<?xml version="1.0" encoding="UTF-8" standalone="no"?><svg xmlns="http://www.w3.org/2000/svg" xmlns:xlink="http://www.w3.org/1999/xlink" contentScriptType="application/ecmascript" contentStyleType="text/css" height="983px" preserveAspectRatio="none" style="width:302px;height:983px;background:#FFFFFF;" version="1.1" viewBox="0 0 302 983" width="302px" zoomAndPan="magnify"><defs><filter height="300%" id="fa6dok2tm3uhd" width="300%" x="-1" y="-1"><feGaussianBlur result="blurOut" stdDeviation="2.0"/><feColorMatrix in="blurOut" result="blurOut2" type="matrix" values="0 0 0 0 0 0 0 0 0 0 0 0 0 0 0 0 0 0 .4 0"/><feOffset dx="4.0" dy="4.0" in="blurOut2" result="blurOut3"/><feBlend in="SourceGraphic" in2="blurOut3" mode="normal"/></filter></defs><g><!--MD5=[8fd473fd151a2794da4f2c8684676405]
cluster Presentation--><polygon fill="#FFFFFF" filter="url(#fa6dok2tm3uhd)" points="47,6,143,6,150,29.6094,193,29.6094,193,106,47,106,47,6" style="stroke:#000000;stroke-width:1.5;"/><line style="stroke:#000000;stroke-width:1.5;" x1="47" x2="150" y1="29.6094" y2="29.6094"/><text fill="#000000" font-family="sans-serif" font-size="14" font-weight="bold" lengthAdjust="spacing" textLength="90" x="51" y="22.5332">Presentation</text><!--MD5=[d64883541e3d62e3241c4d12decf100d]
cluster Application--><polygon fill="#FFFFFF" filter="url(#fa6dok2tm3uhd)" points="16,130,100,130,107,153.6094,224,153.6094,224,258,16,258,16,130" style="stroke:#000000;stroke-width:1.5;"/><line style="stroke:#000000;stroke-width:1.5;" x1="16" x2="107" y1="153.6094" y2="153.6094"/><text fill="#000000" font-family="sans-serif" font-size="14" font-weight="bold" lengthAdjust="spacing" textLength="78" x="20" y="146.5332">Application</text><!--MD5=[121a8bf1197281ab89ed693fab589f94]
cluster Domain--><polygon fill="#FFFFFF" filter="url(#fa6dok2tm3uhd)" points="71,876,129,876,136,899.6094,177,899.6094,177,976,71,976,71,876" style="stroke:#000000;stroke-width:1.5;"/><line style="stroke:#000000;stroke-width:1.5;" x1="71" x2="136" y1="899.6094" y2="899.6094"/><text fill="#000000" font-family="sans-serif" font-size="14" font-weight="bold" lengthAdjust="spacing" textLength="52" x="75" y="892.5332">Domain</text><!--MD5=[bc6b40dadbf86ab6a0c8405a467a48af]
cluster Persistence--><polygon fill="#FFFFFF" filter="url(#fa6dok2tm3uhd)" points="113,327,203,327,210,350.6094,285,350.6094,285,441,113,441,113,327" style="stroke:#000000;stroke-width:1.5;"/><line style="stroke:#000000;stroke-width:1.5;" x1="113" x2="210" y1="350.6094" y2="350.6094"/><text fill="#000000" font-family="sans-serif" font-size="14" font-weight="bold" lengthAdjust="spacing" textLength="84" x="117" y="343.5332">Persistence</text><!--MD5=[0d5799440b3bfefd92b00abfcd2c79b9]
cluster Factory--><polygon fill="#FFFFFF" filter="url(#fa6dok2tm3uhd)" points="117,510,175,510,182,533.6094,279,533.6094,279,624,117,624,117,510" style="stroke:#000000;stroke-width:1.5;"/><line style="stroke:#000000;stroke-width:1.5;" x1="117" x2="182" y1="533.6094" y2="533.6094"/><text fill="#000000" font-family="sans-serif" font-size="14" font-weight="bold" lengthAdjust="spacing" textLength="52" x="121" y="526.5332">Factory</text><!--MD5=[71971f99a41bb66cf321ce46bb59f738]
cluster Repository--><polygon fill="#FFFFFF" filter="url(#fa6dok2tm3uhd)" points="114,693,196,693,203,716.6094,280,716.6094,280,807,114,807,114,693" style="stroke:#000000;stroke-width:1.5;"/><line style="stroke:#000000;stroke-width:1.5;" x1="114" x2="203" y1="716.6094" y2="716.6094"/><text fill="#000000" font-family="sans-serif" font-size="14" font-weight="bold" lengthAdjust="spacing" textLength="76" x="118" y="709.5332">Repository</text><!--MD5=[86429b8f6286f8ae82eb27da35b74181]
class ViewCatalogUI--><rect codeLine="4" fill="#FEFECE" filter="url(#fa6dok2tm3uhd)" height="48" id="ViewCatalogUI" style="stroke:#A80036;stroke-width:1.5;" width="113" x="63.5" y="42"/><ellipse cx="78.5" cy="58" fill="#ADD1B2" rx="11" ry="11" style="stroke:#A80036;stroke-width:1.0;"/><path d="M80.5,54.5 Q80.7031,54 80.9375,53.75 Q81.1719,53.5 81.4375,53.5 Q81.9063,53.5 82.2031,53.7813 Q82.5,54.0625 82.5,54.7188 L82.5,56.2813 Q82.5,56.9375 82.2188,57.2188 Q81.9375,57.5 81.5,57.5 Q81.1094,57.5 80.8594,57.3281 Q80.6094,57.1563 80.5,56.7031 Q80.4531,56.3906 80.2813,56.2188 Q79.9688,55.8906 79.4063,55.7031 Q78.8438,55.5 78.2813,55.5 Q77.5781,55.5 76.9844,55.7813 Q76.4063,56.0625 75.9531,56.6875 Q75.5,57.3125 75.5,58.1719 L75.5,59.0938 Q75.5,60.125 76.3438,60.8125 Q77.1875,61.5 78.6875,61.5 Q79.5781,61.5 80.2031,61.2969 Q80.5625,61.1875 80.9688,60.8281 Q81.2344,60.625 81.375,60.5625 Q81.5156,60.5 81.6875,60.5 Q82.0156,60.5 82.25,60.7656 Q82.5,61.0156 82.5,61.375 Q82.5,61.7188 82.1563,62.125 Q81.6563,62.7188 80.8594,63.0469 Q79.8125,63.5 78.5313,63.5 Q77.0313,63.5 75.8281,62.9063 Q74.8594,62.4375 74.1719,61.4219 Q73.5,60.4063 73.5,59.2031 L73.5,58.1094 Q73.5,56.8594 74.0938,55.7656 Q74.7031,54.6719 75.75,54.0938 Q76.8125,53.5 78,53.5 Q78.7188,53.5 79.3438,53.75 Q79.9688,54 80.5,54.5 Z " fill="#000000"/><text fill="#000000" font-family="sans-serif" font-size="12" lengthAdjust="spacing" textLength="81" x="92.5" y="62.9102">ViewCatalogUI</text><line style="stroke:#A80036;stroke-width:1.5;" x1="64.5" x2="175.5" y1="74" y2="74"/><line style="stroke:#A80036;stroke-width:1.5;" x1="64.5" x2="175.5" y1="82" y2="82"/><!--MD5=[d777000b50831779c9912f270013589f]
class ProductCatalogController--><rect codeLine="8" fill="#FEFECE" filter="url(#fa6dok2tm3uhd)" height="75.6719" id="ProductCatalogController" style="stroke:#A80036;stroke-width:1.5;" width="175" x="32.5" y="166"/><ellipse cx="49.3" cy="182" fill="#ADD1B2" rx="11" ry="11" style="stroke:#A80036;stroke-width:1.0;"/><path d="M51.3,178.5 Q51.5031,178 51.7375,177.75 Q51.9719,177.5 52.2375,177.5 Q52.7063,177.5 53.0031,177.7813 Q53.3,178.0625 53.3,178.7188 L53.3,180.2813 Q53.3,180.9375 53.0188,181.2188 Q52.7375,181.5 52.3,181.5 Q51.9094,181.5 51.6594,181.3281 Q51.4094,181.1563 51.3,180.7031 Q51.2531,180.3906 51.0813,180.2188 Q50.7688,179.8906 50.2063,179.7031 Q49.6438,179.5 49.0813,179.5 Q48.3781,179.5 47.7844,179.7813 Q47.2063,180.0625 46.7531,180.6875 Q46.3,181.3125 46.3,182.1719 L46.3,183.0938 Q46.3,184.125 47.1438,184.8125 Q47.9875,185.5 49.4875,185.5 Q50.3781,185.5 51.0031,185.2969 Q51.3625,185.1875 51.7688,184.8281 Q52.0344,184.625 52.175,184.5625 Q52.3156,184.5 52.4875,184.5 Q52.8156,184.5 53.05,184.7656 Q53.3,185.0156 53.3,185.375 Q53.3,185.7188 52.9563,186.125 Q52.4563,186.7188 51.6594,187.0469 Q50.6125,187.5 49.3313,187.5 Q47.8313,187.5 46.6281,186.9063 Q45.6594,186.4375 44.9719,185.4219 Q44.3,184.4063 44.3,183.2031 L44.3,182.1094 Q44.3,180.8594 44.8938,179.7656 Q45.5031,178.6719 46.55,178.0938 Q47.6125,177.5 48.8,177.5 Q49.5188,177.5 50.1438,177.75 Q50.7688,178 51.3,178.5 Z " fill="#000000"/><text fill="#000000" font-family="sans-serif" font-size="12" lengthAdjust="spacing" textLength="139" x="63.7" y="186.9102">ProductCatalogController</text><line style="stroke:#A80036;stroke-width:1.5;" x1="33.5" x2="206.5" y1="198" y2="198"/><line style="stroke:#A80036;stroke-width:1.5;" x1="33.5" x2="206.5" y1="206" y2="206"/><text fill="#000000" font-family="sans-serif" font-size="11" lengthAdjust="spacing" textLength="163" x="38.5" y="221.4189">+getCatalogFilter(filters, sortOptn)</text><text fill="#000000" font-family="sans-serif" font-size="11" lengthAdjust="spacing" textLength="143" x="38.5" y="235.2549">+getCatalogNoFilter(sortOptn)</text><!--MD5=[72136138052d025cffdce3c22fbd185f]
class Product--><rect codeLine="15" fill="#FEFECE" filter="url(#fa6dok2tm3uhd)" height="48" id="Product" style="stroke:#A80036;stroke-width:1.5;" width="74" x="87" y="912"/><ellipse cx="102" cy="928" fill="#ADD1B2" rx="11" ry="11" style="stroke:#A80036;stroke-width:1.0;"/><path d="M104,924.5 Q104.2031,924 104.4375,923.75 Q104.6719,923.5 104.9375,923.5 Q105.4063,923.5 105.7031,923.7813 Q106,924.0625 106,924.7188 L106,926.2813 Q106,926.9375 105.7188,927.2188 Q105.4375,927.5 105,927.5 Q104.6094,927.5 104.3594,927.3281 Q104.1094,927.1563 104,926.7031 Q103.9531,926.3906 103.7813,926.2188 Q103.4688,925.8906 102.9063,925.7031 Q102.3438,925.5 101.7813,925.5 Q101.0781,925.5 100.4844,925.7813 Q99.9063,926.0625 99.4531,926.6875 Q99,927.3125 99,928.1719 L99,929.0938 Q99,930.125 99.8438,930.8125 Q100.6875,931.5 102.1875,931.5 Q103.0781,931.5 103.7031,931.2969 Q104.0625,931.1875 104.4688,930.8281 Q104.7344,930.625 104.875,930.5625 Q105.0156,930.5 105.1875,930.5 Q105.5156,930.5 105.75,930.7656 Q106,931.0156 106,931.375 Q106,931.7188 105.6563,932.125 Q105.1563,932.7188 104.3594,933.0469 Q103.3125,933.5 102.0313,933.5 Q100.5313,933.5 99.3281,932.9063 Q98.3594,932.4375 97.6719,931.4219 Q97,930.4063 97,929.2031 L97,928.1094 Q97,926.8594 97.5938,925.7656 Q98.2031,924.6719 99.25,924.0938 Q100.3125,923.5 101.5,923.5 Q102.2188,923.5 102.8438,923.75 Q103.4688,924 104,924.5 Z " fill="#000000"/><text fill="#000000" font-family="sans-serif" font-size="12" lengthAdjust="spacing" textLength="42" x="116" y="932.9102">Product</text><line style="stroke:#A80036;stroke-width:1.5;" x1="88" x2="160" y1="944" y2="944"/><line style="stroke:#A80036;stroke-width:1.5;" x1="88" x2="160" y1="952" y2="952"/><!--MD5=[e8c189551b7885b999ad7cefb30fc2a3]
class PersistenceContext--><rect codeLine="19" fill="#FEFECE" filter="url(#fa6dok2tm3uhd)" height="61.8359" id="PersistenceContext" style="stroke:#A80036;stroke-width:1.5;" width="139" x="129.5" y="363"/><ellipse cx="144.5" cy="379" fill="#ADD1B2" rx="11" ry="11" style="stroke:#A80036;stroke-width:1.0;"/><path d="M146.5,375.5 Q146.7031,375 146.9375,374.75 Q147.1719,374.5 147.4375,374.5 Q147.9063,374.5 148.2031,374.7813 Q148.5,375.0625 148.5,375.7188 L148.5,377.2813 Q148.5,377.9375 148.2188,378.2188 Q147.9375,378.5 147.5,378.5 Q147.1094,378.5 146.8594,378.3281 Q146.6094,378.1563 146.5,377.7031 Q146.4531,377.3906 146.2813,377.2188 Q145.9688,376.8906 145.4063,376.7031 Q144.8438,376.5 144.2813,376.5 Q143.5781,376.5 142.9844,376.7813 Q142.4063,377.0625 141.9531,377.6875 Q141.5,378.3125 141.5,379.1719 L141.5,380.0938 Q141.5,381.125 142.3438,381.8125 Q143.1875,382.5 144.6875,382.5 Q145.5781,382.5 146.2031,382.2969 Q146.5625,382.1875 146.9688,381.8281 Q147.2344,381.625 147.375,381.5625 Q147.5156,381.5 147.6875,381.5 Q148.0156,381.5 148.25,381.7656 Q148.5,382.0156 148.5,382.375 Q148.5,382.7188 148.1563,383.125 Q147.6563,383.7188 146.8594,384.0469 Q145.8125,384.5 144.5313,384.5 Q143.0313,384.5 141.8281,383.9063 Q140.8594,383.4375 140.1719,382.4219 Q139.5,381.4063 139.5,380.2031 L139.5,379.1094 Q139.5,377.8594 140.0938,376.7656 Q140.7031,375.6719 141.75,375.0938 Q142.8125,374.5 144,374.5 Q144.7188,374.5 145.3438,374.75 Q145.9688,375 146.5,375.5 Z " fill="#000000"/><text fill="#000000" font-family="sans-serif" font-size="12" lengthAdjust="spacing" textLength="107" x="158.5" y="383.9102">PersistenceContext</text><line style="stroke:#A80036;stroke-width:1.5;" x1="130.5" x2="267.5" y1="395" y2="395"/><line style="stroke:#A80036;stroke-width:1.5;" x1="130.5" x2="267.5" y1="403" y2="403"/><text fill="#000000" font-family="sans-serif" font-size="11" lengthAdjust="spacing" textLength="71" x="135.5" y="418.4189">+repositories()</text><!--MD5=[48590afff58a68e2fcba47824d6f8a11]
class RepositoryFactory--><rect codeLine="25" fill="#FEFECE" filter="url(#fa6dok2tm3uhd)" height="61.8359" id="RepositoryFactory" style="stroke:#A80036;stroke-width:1.5;" width="130" x="133" y="546"/><ellipse cx="148" cy="562" fill="#ADD1B2" rx="11" ry="11" style="stroke:#A80036;stroke-width:1.0;"/><path d="M150,558.5 Q150.2031,558 150.4375,557.75 Q150.6719,557.5 150.9375,557.5 Q151.4063,557.5 151.7031,557.7813 Q152,558.0625 152,558.7188 L152,560.2813 Q152,560.9375 151.7188,561.2188 Q151.4375,561.5 151,561.5 Q150.6094,561.5 150.3594,561.3281 Q150.1094,561.1563 150,560.7031 Q149.9531,560.3906 149.7813,560.2188 Q149.4688,559.8906 148.9063,559.7031 Q148.3438,559.5 147.7813,559.5 Q147.0781,559.5 146.4844,559.7813 Q145.9063,560.0625 145.4531,560.6875 Q145,561.3125 145,562.1719 L145,563.0938 Q145,564.125 145.8438,564.8125 Q146.6875,565.5 148.1875,565.5 Q149.0781,565.5 149.7031,565.2969 Q150.0625,565.1875 150.4688,564.8281 Q150.7344,564.625 150.875,564.5625 Q151.0156,564.5 151.1875,564.5 Q151.5156,564.5 151.75,564.7656 Q152,565.0156 152,565.375 Q152,565.7188 151.6563,566.125 Q151.1563,566.7188 150.3594,567.0469 Q149.3125,567.5 148.0313,567.5 Q146.5313,567.5 145.3281,566.9063 Q144.3594,566.4375 143.6719,565.4219 Q143,564.4063 143,563.2031 L143,562.1094 Q143,560.8594 143.5938,559.7656 Q144.2031,558.6719 145.25,558.0938 Q146.3125,557.5 147.5,557.5 Q148.2188,557.5 148.8438,557.75 Q149.4688,558 150,558.5 Z " fill="#000000"/><text fill="#000000" font-family="sans-serif" font-size="12" lengthAdjust="spacing" textLength="98" x="162" y="566.9102">RepositoryFactory</text><line style="stroke:#A80036;stroke-width:1.5;" x1="134" x2="262" y1="578" y2="578"/><line style="stroke:#A80036;stroke-width:1.5;" x1="134" x2="262" y1="586" y2="586"/><text fill="#000000" font-family="sans-serif" font-size="11" lengthAdjust="spacing" textLength="45" x="139" y="601.4189">+create()</text><!--MD5=[f9761e4ec0e5a044b983a0fb01ce84a9]
class ProductRepository--><rect codeLine="31" fill="#FEFECE" filter="url(#fa6dok2tm3uhd)" height="61.8359" id="ProductRepository" style="stroke:#A80036;stroke-width:1.5;" width="133" x="130.5" y="729"/><ellipse cx="145.5" cy="745" fill="#ADD1B2" rx="11" ry="11" style="stroke:#A80036;stroke-width:1.0;"/><path d="M147.5,741.5 Q147.7031,741 147.9375,740.75 Q148.1719,740.5 148.4375,740.5 Q148.9063,740.5 149.2031,740.7813 Q149.5,741.0625 149.5,741.7188 L149.5,743.2813 Q149.5,743.9375 149.2188,744.2188 Q148.9375,744.5 148.5,744.5 Q148.1094,744.5 147.8594,744.3281 Q147.6094,744.1563 147.5,743.7031 Q147.4531,743.3906 147.2813,743.2188 Q146.9688,742.8906 146.4063,742.7031 Q145.8438,742.5 145.2813,742.5 Q144.5781,742.5 143.9844,742.7813 Q143.4063,743.0625 142.9531,743.6875 Q142.5,744.3125 142.5,745.1719 L142.5,746.0938 Q142.5,747.125 143.3438,747.8125 Q144.1875,748.5 145.6875,748.5 Q146.5781,748.5 147.2031,748.2969 Q147.5625,748.1875 147.9688,747.8281 Q148.2344,747.625 148.375,747.5625 Q148.5156,747.5 148.6875,747.5 Q149.0156,747.5 149.25,747.7656 Q149.5,748.0156 149.5,748.375 Q149.5,748.7188 149.1563,749.125 Q148.6563,749.7188 147.8594,750.0469 Q146.8125,750.5 145.5313,750.5 Q144.0313,750.5 142.8281,749.9063 Q141.8594,749.4375 141.1719,748.4219 Q140.5,747.4063 140.5,746.2031 L140.5,745.1094 Q140.5,743.8594 141.0938,742.7656 Q141.7031,741.6719 142.75,741.0938 Q143.8125,740.5 145,740.5 Q145.7188,740.5 146.3438,740.75 Q146.9688,741 147.5,741.5 Z " fill="#000000"/><text fill="#000000" font-family="sans-serif" font-size="12" lengthAdjust="spacing" textLength="101" x="159.5" y="749.9102">ProductRepository</text><line style="stroke:#A80036;stroke-width:1.5;" x1="131.5" x2="262.5" y1="761" y2="761"/><line style="stroke:#A80036;stroke-width:1.5;" x1="131.5" x2="262.5" y1="769" y2="769"/><text fill="#000000" font-family="sans-serif" font-size="11" lengthAdjust="spacing" textLength="65" x="136.5" y="784.4189">+getCatalog()</text><!--MD5=[c14c94d752715c47150028fcb6411d2b]
link ViewCatalogUI to ProductCatalogController--><path codeLine="35" d="M120,90.07 C120,109.38 120,137.42 120,160.74 " fill="none" id="ViewCatalogUI-to-ProductCatalogController" style="stroke:#A80036;stroke-width:1.0;stroke-dasharray:7.0,7.0;"/><polygon fill="#A80036" points="120,165.94,124,156.94,120,160.94,116,156.94,120,165.94" style="stroke:#A80036;stroke-width:1.0;"/><!--MD5=[b0b86d53809d2ea1cd50236663a4a680]
link ProductCatalogController to Product--><path codeLine="36" d="M105.96,242.21 C93.08,279.71 76,339.53 76,393 C76,393 76,393 76,761 C76,814.16 97.08,873.28 111.3,907.11 " fill="none" id="ProductCatalogController-to-Product" style="stroke:#A80036;stroke-width:1.0;stroke-dasharray:7.0,7.0;"/><polygon fill="#A80036" points="113.35,911.92,113.5072,902.0724,111.3925,907.3191,106.1458,905.2044,113.35,911.92" style="stroke:#A80036;stroke-width:1.0;"/><!--MD5=[a0b7a93e99266f4f00365a96f3d7c90b]
link ProductCatalogController to PersistenceContext--><path codeLine="37" d="M135.61,242.14 C149.75,275.8 170.44,325.04 184.3,358.01 " fill="none" id="ProductCatalogController-to-PersistenceContext" style="stroke:#A80036;stroke-width:1.0;stroke-dasharray:7.0,7.0;"/><polygon fill="#A80036" points="186.29,362.75,186.484,352.9031,184.3497,358.1418,179.1109,356.0075,186.29,362.75" style="stroke:#A80036;stroke-width:1.0;"/><!--MD5=[754b775031405e096442b27febffa290]
link PersistenceContext to RepositoryFactory--><path codeLine="38" d="M198.83,425.3 C198.66,457.11 198.38,507.08 198.2,540.66 " fill="none" id="PersistenceContext-to-RepositoryFactory" style="stroke:#A80036;stroke-width:1.0;stroke-dasharray:7.0,7.0;"/><polygon fill="#A80036" points="198.17,545.91,202.2214,536.933,198.1986,540.9101,194.2215,536.8873,198.17,545.91" style="stroke:#A80036;stroke-width:1.0;"/><!--MD5=[a107a52b6e2b3fb29ad79d2f6a7df605]
link RepositoryFactory to ProductRepository--><path codeLine="39" d="M197.83,608.3 C197.66,640.11 197.38,690.08 197.2,723.66 " fill="none" id="RepositoryFactory-to-ProductRepository" style="stroke:#A80036;stroke-width:1.0;stroke-dasharray:7.0,7.0;"/><polygon fill="#A80036" points="197.17,728.91,201.2214,719.933,197.1986,723.9101,193.2215,719.8873,197.17,728.91" style="stroke:#A80036;stroke-width:1.0;"/><!--MD5=[68e4965bc339513f2ae30d33caf3e4dc]
link ProductRepository to Product--><path codeLine="40" d="M184.28,791.31 C170.6,823.93 149.01,875.4 135.72,907.07 " fill="none" id="ProductRepository-to-Product" style="stroke:#A80036;stroke-width:1.0;stroke-dasharray:7.0,7.0;"/><polygon fill="#A80036" points="133.66,911.98,140.8213,905.2186,135.5881,907.3667,133.44,902.1336,133.66,911.98" style="stroke:#A80036;stroke-width:1.0;"/><!--MD5=[f05ca6e278fd343f6557511d7788f15b]
@startuml
skinparam classAttributeIconSize 0

package "Presentation"{
class ViewCatalogUI
}

package "Application"{
class ProductCatalogController{
+getCatalogFilter(filters, sortOptn)
+getCatalogNoFilter(sortOptn)
}
}

package "Domain"{
class Product
}

package "Persistence"{
class PersistenceContext{
+repositories()
}
}

package "Factory"{
class RepositoryFactory{
+create()
}
}

package "Repository"{
class ProductRepository{
+getCatalog()
}
}
ViewCatalogUI .-> ProductCatalogController
ProductCatalogController .- -> Product
ProductCatalogController .- -> PersistenceContext
PersistenceContext .- -> RepositoryFactory
RepositoryFactory .- -> ProductRepository
ProductRepository .- -> Product


@enduml

PlantUML version 1.2022.1(Tue Feb 01 18:19:58 GMT 2022)
(GPL source distribution)
Java Runtime: OpenJDK Runtime Environment
JVM: OpenJDK 64-Bit Server VM
Default Encoding: Cp1252
Language: pt
Country: PT
--></g></svg>