<?xml version="1.0" encoding="UTF-8" standalone="no"?><svg xmlns="http://www.w3.org/2000/svg" xmlns:xlink="http://www.w3.org/1999/xlink" contentScriptType="application/ecmascript" contentStyleType="text/css" height="409px" preserveAspectRatio="none" style="width:338px;height:409px;background:#FFFFFF;" version="1.1" viewBox="0 0 338 409" width="338px" zoomAndPan="magnify"><defs><filter height="300%" id="f12ges1551dkf0" width="300%" x="-1" y="-1"><feGaussianBlur result="blurOut" stdDeviation="2.0"/><feColorMatrix in="blurOut" result="blurOut2" type="matrix" values="0 0 0 0 0 0 0 0 0 0 0 0 0 0 0 0 0 0 .4 0"/><feOffset dx="4.0" dy="4.0" in="blurOut2" result="blurOut3"/><feBlend in="SourceGraphic" in2="blurOut3" mode="normal"/></filter></defs><g><rect fill="#FFFFFF" filter="url(#f12ges1551dkf0)" height="79.0547" style="stroke:#000000;stroke-width:2.0;" width="314" x="10" y="197.6641"/><line style="stroke:#A80036;stroke-width:1.0;stroke-dasharray:5.0,5.0;" x1="59" x2="59" y1="89.6094" y2="324.0703"/><line style="stroke:#A80036;stroke-width:1.0;stroke-dasharray:5.0,5.0;" x1="280" x2="280" y1="89.6094" y2="324.0703"/><text fill="#000000" font-family="sans-serif" font-size="14" lengthAdjust="spacing" textLength="72" x="20" y="86.5332">Sales Clerk</text><ellipse cx="59" cy="15" fill="#FEFECE" filter="url(#f12ges1551dkf0)" rx="8" ry="8" style="stroke:#A80036;stroke-width:2.0;"/><path d="M59,23 L59,50 M46,31 L72,31 M59,50 L46,65 M59,50 L72,65 " fill="none" filter="url(#f12ges1551dkf0)" style="stroke:#A80036;stroke-width:2.0;"/><text fill="#000000" font-family="sans-serif" font-size="14" lengthAdjust="spacing" textLength="72" x="20" y="337.6035">Sales Clerk</text><ellipse cx="59" cy="350.6797" fill="#FEFECE" filter="url(#f12ges1551dkf0)" rx="8" ry="8" style="stroke:#A80036;stroke-width:2.0;"/><path d="M59,358.6797 L59,385.6797 M46,366.6797 L72,366.6797 M59,385.6797 L46,400.6797 M59,385.6797 L72,400.6797 " fill="none" filter="url(#f12ges1551dkf0)" style="stroke:#A80036;stroke-width:2.0;"/><rect fill="#FEFECE" filter="url(#f12ges1551dkf0)" height="31.6094" style="stroke:#A80036;stroke-width:1.5;" width="64" x="246" y="53"/><text fill="#000000" font-family="sans-serif" font-size="14" lengthAdjust="spacing" textLength="50" x="253" y="74.5332">:System</text><rect fill="#FEFECE" filter="url(#f12ges1551dkf0)" height="31.6094" style="stroke:#A80036;stroke-width:1.5;" width="64" x="246" y="323.0703"/><text fill="#000000" font-family="sans-serif" font-size="14" lengthAdjust="spacing" textLength="50" x="253" y="344.6035">:System</text><polygon fill="#A80036" points="268,117.9609,278,121.9609,268,125.9609,272,121.9609" style="stroke:#A80036;stroke-width:1.0;"/><line style="stroke:#A80036;stroke-width:1.0;" x1="59" x2="274" y1="121.9609" y2="121.9609"/><text fill="#000000" font-family="sans-serif" font-size="13" font-weight="bold" lengthAdjust="spacing" textLength="7" x="66" y="117.1045">1</text><text fill="#000000" font-family="sans-serif" font-size="13" lengthAdjust="spacing" textLength="186" x="77" y="117.1045">ask to view the products catalog</text><polygon fill="#A80036" points="70,148.3125,60,152.3125,70,156.3125,66,152.3125" style="stroke:#A80036;stroke-width:1.0;"/><line style="stroke:#A80036;stroke-width:1.0;stroke-dasharray:2.0,2.0;" x1="64" x2="279" y1="152.3125" y2="152.3125"/><text fill="#000000" font-family="sans-serif" font-size="13" font-weight="bold" lengthAdjust="spacing" textLength="7" x="76" y="147.4561">2</text><text fill="#000000" font-family="sans-serif" font-size="13" lengthAdjust="spacing" textLength="176" x="87" y="147.4561">ask to select one order criteria</text><polygon fill="#A80036" points="268,178.6641,278,182.6641,268,186.6641,272,182.6641" style="stroke:#A80036;stroke-width:1.0;"/><line style="stroke:#A80036;stroke-width:1.0;stroke-dasharray:2.0,2.0;" x1="59" x2="274" y1="182.6641" y2="182.6641"/><text fill="#000000" font-family="sans-serif" font-size="13" font-weight="bold" lengthAdjust="spacing" textLength="7" x="66" y="177.8076">3</text><text fill="#000000" font-family="sans-serif" font-size="13" lengthAdjust="spacing" textLength="111" x="77" y="177.8076">select order criteria</text><path d="M10,197.6641 L83,197.6641 L83,205.6641 L73,215.6641 L10,215.6641 L10,197.6641 " fill="#EEEEEE" style="stroke:#000000;stroke-width:1.0;"/><rect fill="none" height="79.0547" style="stroke:#000000;stroke-width:2.0;" width="314" x="10" y="197.6641"/><text fill="#000000" font-family="sans-serif" font-size="13" font-weight="bold" lengthAdjust="spacing" textLength="28" x="25" y="212.1592">loop</text><text fill="#000000" font-family="sans-serif" font-size="11" font-weight="bold" lengthAdjust="spacing" textLength="88" x="98" y="211.083">[until user skip]</text><polygon fill="#A80036" points="70,234.3672,60,238.3672,70,242.3672,66,238.3672" style="stroke:#A80036;stroke-width:1.0;"/><line style="stroke:#A80036;stroke-width:1.0;stroke-dasharray:2.0,2.0;" x1="64" x2="279" y1="238.3672" y2="238.3672"/><text fill="#000000" font-family="sans-serif" font-size="13" font-weight="bold" lengthAdjust="spacing" textLength="7" x="76" y="233.5107">4</text><text fill="#000000" font-family="sans-serif" font-size="13" lengthAdjust="spacing" textLength="148" x="87" y="233.5107">ask if wants to add a filter</text><polygon fill="#A80036" points="268,264.7188,278,268.7188,268,272.7188,272,268.7188" style="stroke:#A80036;stroke-width:1.0;"/><line style="stroke:#A80036;stroke-width:1.0;stroke-dasharray:2.0,2.0;" x1="59" x2="274" y1="268.7188" y2="268.7188"/><text fill="#000000" font-family="sans-serif" font-size="13" font-weight="bold" lengthAdjust="spacing" textLength="7" x="66" y="263.8623">5</text><text fill="#000000" font-family="sans-serif" font-size="13" lengthAdjust="spacing" textLength="107" x="77" y="263.8623">type a filter or skip</text><polygon fill="#A80036" points="70,302.0703,60,306.0703,70,310.0703,66,306.0703" style="stroke:#A80036;stroke-width:1.0;"/><line style="stroke:#A80036;stroke-width:1.0;stroke-dasharray:2.0,2.0;" x1="64" x2="279" y1="306.0703" y2="306.0703"/><text fill="#000000" font-family="sans-serif" font-size="13" font-weight="bold" lengthAdjust="spacing" textLength="7" x="76" y="301.2139">6</text><text fill="#000000" font-family="sans-serif" font-size="13" lengthAdjust="spacing" textLength="137" x="87" y="301.2139">shows products catalog</text><!--MD5=[2b6a831b39dce239a1de97e57d51cbda]
@startuml
'https://plantuml.com/sequence-diagram

actor "Sales Clerk" as SC
participant ":System" as System

autonumber

SC -> System: ask to view the products catalog
System - -> SC: ask to select one order criteria
SC - -> System: select order criteria
loop until user skip
System - -> SC: ask if wants to add a filter
SC - -> System: type a filter or skip
end loop
System - -> SC: shows products catalog


@enduml

@startuml

actor "Sales Clerk" as SC
participant ":System" as System

autonumber

SC -> System: ask to view the products catalog
System - -> SC: ask to select one order criteria
SC - -> System: select order criteria
loop until user skip
System - -> SC: ask if wants to add a filter
SC - -> System: type a filter or skip
end loop
System - -> SC: shows products catalog


@enduml

PlantUML version 1.2022.1(Tue Feb 01 18:19:58 GMT 2022)
(GPL source distribution)
Java Runtime: OpenJDK Runtime Environment
JVM: OpenJDK 64-Bit Server VM
Default Encoding: Cp1252
Language: pt
Country: PT
--></g></svg>