<?xml version="1.0" encoding="UTF-8" standalone="no"?><svg xmlns="http://www.w3.org/2000/svg" xmlns:xlink="http://www.w3.org/1999/xlink" contentStyleType="text/css" height="590.4px" preserveAspectRatio="none" style="width:395px;height:590px;background:#FFFFFF;" version="1.1" viewBox="0 0 395 590" width="395.4px" zoomAndPan="magnify"><defs/><g><!--MD5=[8fd473fd151a2794da4f2c8684676405]
cluster Presentation--><g id="cluster_Presentation"><path d="M197.1,3.6 L251.7,3.6 A2.25,2.25 0 0 1 253.2,5.1 L257.4,17.7656 L308.1,17.7656 A1.5,1.5 0 0 1 309.6,19.2656 L309.6,62.1 A1.5,1.5 0 0 1 308.1,63.6 L197.1,63.6 A1.5,1.5 0 0 1 195.6,62.1 L195.6,5.1 A1.5,1.5 0 0 1 197.1,3.6 " style="stroke:#000000;stroke-width:0.8999999999999999;fill:none;"/><line style="stroke:#000000;stroke-width:0.8999999999999999;fill:none;" x1="195.6" x2="257.4" y1="17.7656" y2="17.7656"/><text fill="#000000" font-family="sans-serif" font-size="8.4" font-weight="bold" lengthAdjust="spacing" textLength="54" x="198" y="13.5199">Presentation</text></g><!--MD5=[d64883541e3d62e3241c4d12decf100d]
cluster Application--><g id="cluster_Application"><path d="M182.1,78 L229.5,78 A2.25,2.25 0 0 1 231,79.5 L235.2,92.1656 L323.1,92.1656 A1.5,1.5 0 0 1 324.6,93.6656 L324.6,136.5 A1.5,1.5 0 0 1 323.1,138 L182.1,138 A1.5,1.5 0 0 1 180.6,136.5 L180.6,79.5 A1.5,1.5 0 0 1 182.1,78 " style="stroke:#000000;stroke-width:0.8999999999999999;fill:none;"/><line style="stroke:#000000;stroke-width:0.8999999999999999;fill:none;" x1="180.6" x2="235.2" y1="92.1656" y2="92.1656"/><text fill="#000000" font-family="sans-serif" font-size="8.4" font-weight="bold" lengthAdjust="spacing" textLength="46.8" x="183" y="87.9199">Application</text></g><!--MD5=[44cc74aea8168fb4471e814fff38ed12]
cluster Builder--><g id="cluster_Builder"><path d="M5.1,403.8 L36.3,403.8 A2.25,2.25 0 0 1 37.8,405.3 L42,417.9656 L228.9,417.9656 A1.5,1.5 0 0 1 230.4,419.4656 L230.4,483.3 A1.5,1.5 0 0 1 228.9,484.8 L5.1,484.8 A1.5,1.5 0 0 1 3.6,483.3 L3.6,405.3 A1.5,1.5 0 0 1 5.1,403.8 " style="stroke:#000000;stroke-width:0.8999999999999999;fill:none;"/><line style="stroke:#000000;stroke-width:0.8999999999999999;fill:none;" x1="3.6" x2="42" y1="417.9656" y2="417.9656"/><text fill="#000000" font-family="sans-serif" font-size="8.4" font-weight="bold" lengthAdjust="spacing" textLength="30.6" x="6" y="413.7199">Builder</text></g><!--MD5=[121a8bf1197281ab89ed693fab589f94]
cluster Domain--><g id="cluster_Domain"><path d="M216.3,526.2 L248.1,526.2 A2.25,2.25 0 0 1 249.6,527.7 L253.8,540.3656 L288.9,540.3656 A1.5,1.5 0 0 1 290.4,541.8656 L290.4,584.7 A1.5,1.5 0 0 1 288.9,586.2 L216.3,586.2 A1.5,1.5 0 0 1 214.8,584.7 L214.8,527.7 A1.5,1.5 0 0 1 216.3,526.2 " style="stroke:#000000;stroke-width:0.8999999999999999;fill:none;"/><line style="stroke:#000000;stroke-width:0.8999999999999999;fill:none;" x1="214.8" x2="253.8" y1="540.3656" y2="540.3656"/><text fill="#000000" font-family="sans-serif" font-size="8.4" font-weight="bold" lengthAdjust="spacing" textLength="31.2" x="217.2" y="536.1199">Domain</text></g><!--MD5=[bc6b40dadbf86ab6a0c8405a467a48af]
cluster Persistence--><g id="cluster_Persistence"><path d="M277.5,179.4 L328.5,179.4 A2.25,2.25 0 0 1 330,180.9 L334.2,193.5656 L386.1,193.5656 A1.5,1.5 0 0 1 387.6,195.0656 L387.6,248.7 A1.5,1.5 0 0 1 386.1,250.2 L277.5,250.2 A1.5,1.5 0 0 1 276,248.7 L276,180.9 A1.5,1.5 0 0 1 277.5,179.4 " style="stroke:#000000;stroke-width:0.8999999999999999;fill:none;"/><line style="stroke:#000000;stroke-width:0.8999999999999999;fill:none;" x1="276" x2="334.2" y1="193.5656" y2="193.5656"/><text fill="#000000" font-family="sans-serif" font-size="8.4" font-weight="bold" lengthAdjust="spacing" textLength="50.4" x="278.4" y="189.3199">Persistence</text></g><!--MD5=[0d5799440b3bfefd92b00abfcd2c79b9]
cluster Factory--><g id="cluster_Factory"><path d="M279.9,291.6 L311.7,291.6 A2.25,2.25 0 0 1 313.2,293.1 L317.4,305.7656 L384.9,305.7656 A1.5,1.5 0 0 1 386.4,307.2656 L386.4,360.9 A1.5,1.5 0 0 1 384.9,362.4 L279.9,362.4 A1.5,1.5 0 0 1 278.4,360.9 L278.4,293.1 A1.5,1.5 0 0 1 279.9,291.6 " style="stroke:#000000;stroke-width:0.8999999999999999;fill:none;"/><line style="stroke:#000000;stroke-width:0.8999999999999999;fill:none;" x1="278.4" x2="317.4" y1="305.7656" y2="305.7656"/><text fill="#000000" font-family="sans-serif" font-size="8.4" font-weight="bold" lengthAdjust="spacing" textLength="31.2" x="280.8" y="301.5199">Factory</text></g><!--MD5=[71971f99a41bb66cf321ce46bb59f738]
cluster Repository--><g id="cluster_Repository"><path d="M276.3,403.8 L322.5,403.8 A2.25,2.25 0 0 1 324,405.3 L328.2,417.9656 L389.7,417.9656 A1.5,1.5 0 0 1 391.2,419.4656 L391.2,483.3 A1.5,1.5 0 0 1 389.7,484.8 L276.3,484.8 A1.5,1.5 0 0 1 274.8,483.3 L274.8,405.3 A1.5,1.5 0 0 1 276.3,403.8 " style="stroke:#000000;stroke-width:0.8999999999999999;fill:none;"/><line style="stroke:#000000;stroke-width:0.8999999999999999;fill:none;" x1="274.8" x2="328.2" y1="417.9656" y2="417.9656"/><text fill="#000000" font-family="sans-serif" font-size="8.4" font-weight="bold" lengthAdjust="spacing" textLength="45.6" x="277.2" y="413.7199">Repository</text></g><!--MD5=[6da3ee1a450180cf948252897b0c67ba]
class RegisterCustomerUI--><g id="elem_RegisterCustomerUI"><rect codeLine="4" fill="#F1F1F1" height="28.8" id="RegisterCustomerUI" rx="1.5" ry="1.5" style="stroke:#181818;stroke-width:0.3;" width="94.8" x="205.2" y="25.2"/><ellipse cx="214.2" cy="34.8" fill="#ADD1B2" rx="6.6" ry="6.6" style="stroke:#181818;stroke-width:0.6;"/><path d="M215.4,32.7 Q215.5219,32.4 215.6625,32.25 Q215.8031,32.1 215.9625,32.1 Q216.2438,32.1 216.4219,32.2688 Q216.6,32.4375 216.6,32.8313 L216.6,33.7688 Q216.6,34.1625 216.4313,34.3313 Q216.2625,34.5 216,34.5 Q215.7656,34.5 215.6156,34.3969 Q215.4656,34.2937 215.4,34.0219 Q215.3719,33.8344 215.2687,33.7312 Q215.0812,33.5344 214.7438,33.4219 Q214.4063,33.3 214.0688,33.3 Q213.6469,33.3 213.2906,33.4688 Q212.9438,33.6375 212.6719,34.0125 Q212.4,34.3875 212.4,34.9031 L212.4,35.4563 Q212.4,36.075 212.9063,36.4875 Q213.4125,36.9 214.3125,36.9 Q214.8469,36.9 215.2219,36.7781 Q215.4375,36.7125 215.6813,36.4969 Q215.8406,36.375 215.925,36.3375 Q216.0094,36.3 216.1125,36.3 Q216.3094,36.3 216.45,36.4594 Q216.6,36.6094 216.6,36.825 Q216.6,37.0313 216.3937,37.275 Q216.0938,37.6313 215.6156,37.8281 Q214.9875,38.1 214.2188,38.1 Q213.3188,38.1 212.5969,37.7438 Q212.0156,37.4625 211.6031,36.8531 Q211.2,36.2438 211.2,35.5219 L211.2,34.8656 Q211.2,34.1156 211.5563,33.4594 Q211.9219,32.8031 212.55,32.4563 Q213.1875,32.1 213.9,32.1 Q214.3312,32.1 214.7062,32.25 Q215.0812,32.4 215.4,32.7 Z " fill="#000000"/><text fill="#000000" font-family="sans-serif" font-size="8.4" lengthAdjust="spacing" textLength="75.6" x="222.6" y="38.2371">RegisterCustomerUI</text><line style="stroke:#181818;stroke-width:0.3;" x1="205.8" x2="299.4" y1="44.4" y2="44.4"/><line style="stroke:#181818;stroke-width:0.3;" x1="205.8" x2="299.4" y1="49.2" y2="49.2"/></g><!--MD5=[292e49acba7fe27a55ea2af1822ad667]
class RegisterCustomerController--><g id="elem_RegisterCustomerController"><rect codeLine="8" fill="#F1F1F1" height="28.8" id="RegisterCustomerController" rx="1.5" ry="1.5" style="stroke:#181818;stroke-width:0.3;" width="124.8" x="190.2" y="99.6"/><ellipse cx="199.2" cy="109.2" fill="#ADD1B2" rx="6.6" ry="6.6" style="stroke:#181818;stroke-width:0.6;"/><path d="M200.4,107.1 Q200.5219,106.8 200.6625,106.65 Q200.8031,106.5 200.9625,106.5 Q201.2438,106.5 201.4219,106.6688 Q201.6,106.8375 201.6,107.2313 L201.6,108.1688 Q201.6,108.5625 201.4313,108.7313 Q201.2625,108.9 201,108.9 Q200.7656,108.9 200.6156,108.7969 Q200.4656,108.6938 200.4,108.4219 Q200.3719,108.2344 200.2687,108.1313 Q200.0812,107.9344 199.7438,107.8219 Q199.4063,107.7 199.0688,107.7 Q198.6469,107.7 198.2906,107.8687 Q197.9438,108.0375 197.6719,108.4125 Q197.4,108.7875 197.4,109.3031 L197.4,109.8563 Q197.4,110.475 197.9063,110.8875 Q198.4125,111.3 199.3125,111.3 Q199.8469,111.3 200.2219,111.1781 Q200.4375,111.1125 200.6813,110.8969 Q200.8406,110.775 200.925,110.7375 Q201.0094,110.7 201.1125,110.7 Q201.3094,110.7 201.45,110.8594 Q201.6,111.0094 201.6,111.225 Q201.6,111.4312 201.3937,111.675 Q201.0938,112.0313 200.6156,112.2281 Q199.9875,112.5 199.2188,112.5 Q198.3188,112.5 197.5969,112.1438 Q197.0156,111.8625 196.6031,111.2531 Q196.2,110.6438 196.2,109.9219 L196.2,109.2656 Q196.2,108.5156 196.5563,107.8594 Q196.9219,107.2031 197.55,106.8563 Q198.1875,106.5 198.9,106.5 Q199.3312,106.5 199.7062,106.65 Q200.0812,106.8 200.4,107.1 Z " fill="#000000"/><text fill="#000000" font-family="sans-serif" font-size="8.4" lengthAdjust="spacing" textLength="105.6" x="207.6" y="112.6371">RegisterCustomerController</text><line style="stroke:#181818;stroke-width:0.3;" x1="190.8" x2="314.4" y1="118.8" y2="118.8"/><line style="stroke:#181818;stroke-width:0.3;" x1="190.8" x2="314.4" y1="123.6" y2="123.6"/></g><!--MD5=[afbd6b8673ffa001d46d9f81193dcc67]
class CustomerBuilder--><g id="elem_CustomerBuilder"><rect codeLine="12" fill="#F1F1F1" height="49.9313" id="CustomerBuilder" rx="1.5" ry="1.5" style="stroke:#181818;stroke-width:0.3;" width="207" x="13.5" y="425.4"/><ellipse cx="82.95" cy="435" fill="#ADD1B2" rx="6.6" ry="6.6" style="stroke:#181818;stroke-width:0.6;"/><path d="M84.15,432.9 Q84.2719,432.6 84.4125,432.45 Q84.5531,432.3 84.7125,432.3 Q84.9937,432.3 85.1719,432.4688 Q85.35,432.6375 85.35,433.0313 L85.35,433.9688 Q85.35,434.3625 85.1812,434.5313 Q85.0125,434.7 84.75,434.7 Q84.5156,434.7 84.3656,434.5969 Q84.2156,434.4938 84.15,434.2219 Q84.1219,434.0344 84.0188,433.9313 Q83.8313,433.7344 83.4937,433.6219 Q83.1563,433.5 82.8188,433.5 Q82.3969,433.5 82.0406,433.6688 Q81.6938,433.8375 81.4219,434.2125 Q81.15,434.5875 81.15,435.1031 L81.15,435.6563 Q81.15,436.275 81.6563,436.6875 Q82.1625,437.1 83.0625,437.1 Q83.5969,437.1 83.9719,436.9781 Q84.1875,436.9125 84.4312,436.6969 Q84.5906,436.575 84.675,436.5375 Q84.7594,436.5 84.8625,436.5 Q85.0594,436.5 85.2,436.6594 Q85.35,436.8094 85.35,437.025 Q85.35,437.2313 85.1438,437.475 Q84.8438,437.8313 84.3656,438.0281 Q83.7375,438.3 82.9688,438.3 Q82.0688,438.3 81.3469,437.9437 Q80.7656,437.6625 80.3531,437.0531 Q79.95,436.4437 79.95,435.7219 L79.95,435.0656 Q79.95,434.3156 80.3062,433.6594 Q80.6719,433.0031 81.3,432.6563 Q81.9375,432.3 82.65,432.3 Q83.0813,432.3 83.4563,432.45 Q83.8313,432.6 84.15,432.9 Z " fill="#000000"/><text fill="#000000" font-family="sans-serif" font-size="8.4" lengthAdjust="spacing" textLength="63" x="95.25" y="438.4371">CustomerBuilder</text><line style="stroke:#181818;stroke-width:0.3;" x1="14.1" x2="219.9" y1="444.6" y2="444.6"/><line style="stroke:#181818;stroke-width:0.3;" x1="14.1" x2="219.9" y1="449.4" y2="449.4"/><text fill="#000000" font-family="sans-serif" font-size="8.4" lengthAdjust="spacing" textLength="199.8" x="17.1" y="460.5199">+createCustomer(name, VatID, email, phoneNumber,</text><text fill="#000000" font-family="sans-serif" font-size="8.4" lengthAdjust="spacing" textLength="195.6" x="19.5" y="471.0855">birthday, billingAddress, deliveringAddress, gender)</text></g><!--MD5=[2ce0c9fb7f55b1e256ab28a8ea6b25ec]
class Customer--><g id="elem_Customer"><rect codeLine="18" fill="#F1F1F1" height="28.8" id="Customer" rx="1.5" ry="1.5" style="stroke:#181818;stroke-width:0.3;" width="55.8" x="224.7" y="547.8"/><ellipse cx="233.7" cy="557.4" fill="#ADD1B2" rx="6.6" ry="6.6" style="stroke:#181818;stroke-width:0.6;"/><path d="M234.9,555.3 Q235.0219,555 235.1625,554.85 Q235.3031,554.7 235.4625,554.7 Q235.7437,554.7 235.9219,554.8688 Q236.1,555.0375 236.1,555.4313 L236.1,556.3688 Q236.1,556.7625 235.9312,556.9313 Q235.7625,557.1 235.5,557.1 Q235.2656,557.1 235.1156,556.9969 Q234.9656,556.8938 234.9,556.6219 Q234.8719,556.4344 234.7687,556.3313 Q234.5812,556.1344 234.2437,556.0219 Q233.9063,555.9 233.5688,555.9 Q233.1469,555.9 232.7906,556.0688 Q232.4438,556.2375 232.1719,556.6125 Q231.9,556.9875 231.9,557.5031 L231.9,558.0563 Q231.9,558.675 232.4063,559.0875 Q232.9125,559.5 233.8125,559.5 Q234.3469,559.5 234.7219,559.3781 Q234.9375,559.3125 235.1812,559.0969 Q235.3406,558.975 235.425,558.9375 Q235.5094,558.9 235.6125,558.9 Q235.8094,558.9 235.95,559.0594 Q236.1,559.2094 236.1,559.425 Q236.1,559.6313 235.8937,559.875 Q235.5938,560.2312 235.1156,560.4281 Q234.4875,560.7 233.7188,560.7 Q232.8188,560.7 232.0969,560.3438 Q231.5156,560.0625 231.1031,559.4531 Q230.7,558.8438 230.7,558.1219 L230.7,557.4656 Q230.7,556.7156 231.0562,556.0594 Q231.4219,555.4031 232.05,555.0563 Q232.6875,554.7 233.4,554.7 Q233.8312,554.7 234.2062,554.85 Q234.5812,555 234.9,555.3 Z " fill="#000000"/><text fill="#000000" font-family="sans-serif" font-size="8.4" lengthAdjust="spacing" textLength="36.6" x="242.1" y="560.8371">Customer</text><line style="stroke:#181818;stroke-width:0.3;" x1="225.3" x2="279.9" y1="567" y2="567"/><line style="stroke:#181818;stroke-width:0.3;" x1="225.3" x2="279.9" y1="571.8" y2="571.8"/></g><!--MD5=[e8c189551b7885b999ad7cefb30fc2a3]
class PersistenceContext--><g id="elem_PersistenceContext"><rect codeLine="22" fill="#F1F1F1" height="39.3656" id="PersistenceContext" rx="1.5" ry="1.5" style="stroke:#181818;stroke-width:0.3;" width="92.4" x="285.6" y="201"/><ellipse cx="294.6" cy="210.6" fill="#ADD1B2" rx="6.6" ry="6.6" style="stroke:#181818;stroke-width:0.6;"/><path d="M295.8,208.5 Q295.9219,208.2 296.0625,208.05 Q296.2031,207.9 296.3625,207.9 Q296.6438,207.9 296.8219,208.0688 Q297,208.2375 297,208.6313 L297,209.5688 Q297,209.9625 296.8313,210.1313 Q296.6625,210.3 296.4,210.3 Q296.1656,210.3 296.0156,210.1969 Q295.8656,210.0938 295.8,209.8219 Q295.7719,209.6344 295.6688,209.5313 Q295.4813,209.3344 295.1438,209.2219 Q294.8063,209.1 294.4688,209.1 Q294.0469,209.1 293.6906,209.2687 Q293.3438,209.4375 293.0719,209.8125 Q292.8,210.1875 292.8,210.7031 L292.8,211.2563 Q292.8,211.875 293.3063,212.2875 Q293.8125,212.7 294.7125,212.7 Q295.2469,212.7 295.6219,212.5781 Q295.8375,212.5125 296.0813,212.2969 Q296.2406,212.175 296.325,212.1375 Q296.4094,212.1 296.5125,212.1 Q296.7094,212.1 296.85,212.2594 Q297,212.4094 297,212.625 Q297,212.8312 296.7938,213.075 Q296.4938,213.4313 296.0156,213.6281 Q295.3875,213.9 294.6188,213.9 Q293.7188,213.9 292.9969,213.5438 Q292.4156,213.2625 292.0031,212.6531 Q291.6,212.0438 291.6,211.3219 L291.6,210.6656 Q291.6,209.9156 291.9563,209.2594 Q292.3219,208.6031 292.95,208.2563 Q293.5875,207.9 294.3,207.9 Q294.7313,207.9 295.1063,208.05 Q295.4813,208.2 295.8,208.5 Z " fill="#000000"/><text fill="#000000" font-family="sans-serif" font-size="8.4" lengthAdjust="spacing" textLength="73.2" x="303" y="214.0371">PersistenceContext</text><line style="stroke:#181818;stroke-width:0.3;" x1="286.2" x2="377.4" y1="220.2" y2="220.2"/><line style="stroke:#181818;stroke-width:0.3;" x1="286.2" x2="377.4" y1="225" y2="225"/><text fill="#000000" font-family="sans-serif" font-size="8.4" lengthAdjust="spacing" textLength="55.2" x="289.2" y="236.1199">+repositories()</text></g><!--MD5=[48590afff58a68e2fcba47824d6f8a11]
class RepositoryFactory--><g id="elem_RepositoryFactory"><rect codeLine="28" fill="#F1F1F1" height="39.3656" id="RepositoryFactory" rx="1.5" ry="1.5" style="stroke:#181818;stroke-width:0.3;" width="88.8" x="288" y="313.2"/><ellipse cx="297" cy="322.8" fill="#ADD1B2" rx="6.6" ry="6.6" style="stroke:#181818;stroke-width:0.6;"/><path d="M298.2,320.7 Q298.3219,320.4 298.4625,320.25 Q298.6031,320.1 298.7625,320.1 Q299.0438,320.1 299.2219,320.2688 Q299.4,320.4375 299.4,320.8313 L299.4,321.7688 Q299.4,322.1625 299.2313,322.3313 Q299.0625,322.5 298.8,322.5 Q298.5656,322.5 298.4156,322.3969 Q298.2656,322.2938 298.2,322.0219 Q298.1719,321.8344 298.0687,321.7313 Q297.8812,321.5344 297.5438,321.4219 Q297.2063,321.3 296.8688,321.3 Q296.4469,321.3 296.0906,321.4688 Q295.7438,321.6375 295.4719,322.0125 Q295.2,322.3875 295.2,322.9031 L295.2,323.4563 Q295.2,324.075 295.7063,324.4875 Q296.2125,324.9 297.1125,324.9 Q297.6469,324.9 298.0219,324.7781 Q298.2375,324.7125 298.4813,324.4969 Q298.6406,324.375 298.725,324.3375 Q298.8094,324.3 298.9125,324.3 Q299.1094,324.3 299.25,324.4594 Q299.4,324.6094 299.4,324.825 Q299.4,325.0313 299.1937,325.275 Q298.8938,325.6312 298.4156,325.8281 Q297.7875,326.1 297.0188,326.1 Q296.1188,326.1 295.3969,325.7438 Q294.8156,325.4625 294.4031,324.8531 Q294,324.2438 294,323.5219 L294,322.8656 Q294,322.1156 294.3563,321.4594 Q294.7219,320.8031 295.35,320.4563 Q295.9875,320.1 296.7,320.1 Q297.1312,320.1 297.5062,320.25 Q297.8812,320.4 298.2,320.7 Z " fill="#000000"/><text fill="#000000" font-family="sans-serif" font-size="8.4" lengthAdjust="spacing" textLength="69.6" x="305.4" y="326.2371">RepositoryFactory</text><line style="stroke:#181818;stroke-width:0.3;" x1="288.6" x2="376.2" y1="332.4" y2="332.4"/><line style="stroke:#181818;stroke-width:0.3;" x1="288.6" x2="376.2" y1="337.2" y2="337.2"/><text fill="#000000" font-family="sans-serif" font-size="8.4" lengthAdjust="spacing" textLength="34.8" x="291.6" y="348.3199">+create()</text></g><!--MD5=[e69d6994dde37a3d0167e5476c791457]
class CustomerRepository--><g id="elem_CustomerRepository"><rect codeLine="34" fill="#F1F1F1" height="49.9313" id="CustomerRepository" rx="1.5" ry="1.5" style="stroke:#181818;stroke-width:0.3;" width="96.6" x="284.7" y="425.4"/><ellipse cx="293.7" cy="435" fill="#ADD1B2" rx="6.6" ry="6.6" style="stroke:#181818;stroke-width:0.6;"/><path d="M294.9,432.9 Q295.0219,432.6 295.1625,432.45 Q295.3031,432.3 295.4625,432.3 Q295.7438,432.3 295.9219,432.4688 Q296.1,432.6375 296.1,433.0313 L296.1,433.9688 Q296.1,434.3625 295.9313,434.5313 Q295.7625,434.7 295.5,434.7 Q295.2656,434.7 295.1156,434.5969 Q294.9656,434.4938 294.9,434.2219 Q294.8719,434.0344 294.7688,433.9313 Q294.5813,433.7344 294.2438,433.6219 Q293.9063,433.5 293.5687,433.5 Q293.1469,433.5 292.7906,433.6688 Q292.4437,433.8375 292.1719,434.2125 Q291.9,434.5875 291.9,435.1031 L291.9,435.6563 Q291.9,436.275 292.4063,436.6875 Q292.9125,437.1 293.8125,437.1 Q294.3469,437.1 294.7219,436.9781 Q294.9375,436.9125 295.1813,436.6969 Q295.3406,436.575 295.425,436.5375 Q295.5094,436.5 295.6125,436.5 Q295.8094,436.5 295.95,436.6594 Q296.1,436.8094 296.1,437.025 Q296.1,437.2313 295.8938,437.475 Q295.5938,437.8313 295.1156,438.0281 Q294.4875,438.3 293.7188,438.3 Q292.8187,438.3 292.0969,437.9437 Q291.5156,437.6625 291.1031,437.0531 Q290.7,436.4437 290.7,435.7219 L290.7,435.0656 Q290.7,434.3156 291.0563,433.6594 Q291.4219,433.0031 292.05,432.6563 Q292.6875,432.3 293.4,432.3 Q293.8313,432.3 294.2063,432.45 Q294.5813,432.6 294.9,432.9 Z " fill="#000000"/><text fill="#000000" font-family="sans-serif" font-size="8.4" lengthAdjust="spacing" textLength="77.4" x="302.1" y="438.4371">CustomerRepository</text><line style="stroke:#181818;stroke-width:0.3;" x1="285.3" x2="380.7" y1="444.6" y2="444.6"/><line style="stroke:#181818;stroke-width:0.3;" x1="285.3" x2="380.7" y1="449.4" y2="449.4"/><text fill="#000000" font-family="sans-serif" font-size="8.4" lengthAdjust="spacing" textLength="34.8" x="288.3" y="460.5199">+create()</text><text fill="#000000" font-family="sans-serif" font-size="8.4" lengthAdjust="spacing" textLength="63.6" x="288.3" y="471.0855">+save(customer)</text></g><!--MD5=[c033d4bbac79f31b46533f3288e86589]
link RegisterCustomerUI to RegisterCustomerController--><g id="link_RegisterCustomerUI_RegisterCustomerController"><path codeLine="39" d="M252.6,54.138 C252.6,66.15 252.6,83.52 252.6,96.354 " fill="none" id="RegisterCustomerUI-to-RegisterCustomerController" style="stroke:#181818;stroke-width:0.6;stroke-dasharray:7.0,7.0;"/><polygon fill="#181818" points="252.6,99.51,255,94.11,252.6,96.51,250.2,94.11,252.6,99.51" style="stroke:#181818;stroke-width:0.6;"/></g><!--MD5=[279db6a939bac817fb2cc5f04ee97f8e]
link RegisterCustomerController to CustomerBuilder--><g id="link_RegisterCustomerController_CustomerBuilder"><path codeLine="40" d="M229.5,128.4 C203.19,146.076 163.8,179.358 163.8,220.2 C163.8,220.2 163.8,220.2 163.8,333.6 C163.8,365.862 148.062,399.756 134.838,422.532 " fill="none" id="RegisterCustomerController-to-CustomerBuilder" style="stroke:#181818;stroke-width:0.6;stroke-dasharray:7.0,7.0;"/><polygon fill="#181818" points="133.236,425.256,138.0421,421.8177,134.7567,422.67,133.9044,419.3846,133.236,425.256" style="stroke:#181818;stroke-width:0.6;"/></g><!--MD5=[c6a79696cb588641b3692d8b8be2b447]
link RegisterCustomerController to Customer--><g id="link_RegisterCustomerController_Customer"><path codeLine="41" d="M252.6,128.436 C252.6,148.614 252.6,187.29 252.6,220.2 C252.6,220.2 252.6,220.2 252.6,450.9 C252.6,484.146 252.6,523.008 252.6,544.716 " fill="none" id="RegisterCustomerController-to-Customer" style="stroke:#181818;stroke-width:0.6;stroke-dasharray:7.0,7.0;"/><polygon fill="#181818" points="252.6,547.794,255,542.394,252.6,544.794,250.2,542.394,252.6,547.794" style="stroke:#181818;stroke-width:0.6;"/></g><!--MD5=[78b7a21e6691d91be016a834383cda8f]
link RegisterCustomerController to PersistenceContext--><g id="link_RegisterCustomerController_PersistenceContext"><path codeLine="42" d="M262.956,128.406 C276.288,146.19 299.628,177.3 315.39,198.324 " fill="none" id="RegisterCustomerController-to-PersistenceContext" style="stroke:#181818;stroke-width:0.6;stroke-dasharray:7.0,7.0;"/><polygon fill="#181818" points="317.274,200.832,315.954,195.072,315.474,198.432,312.114,197.952,317.274,200.832" style="stroke:#181818;stroke-width:0.6;"/></g><!--MD5=[754b775031405e096442b27febffa290]
link PersistenceContext to RepositoryFactory--><g id="link_PersistenceContext_RepositoryFactory"><path codeLine="43" d="M331.902,240.732 C332.01,260.016 332.166,289.608 332.28,309.924 " fill="none" id="PersistenceContext-to-RepositoryFactory" style="stroke:#181818;stroke-width:0.6;stroke-dasharray:7.0,7.0;"/><polygon fill="#181818" points="332.298,313.098,334.6826,307.6912,332.2894,310.098,329.8826,307.7049,332.298,313.098" style="stroke:#181818;stroke-width:0.6;"/></g><!--MD5=[5480e33a89de9b63c80dfd73aefa71de]
link RepositoryFactory to CustomerRepository--><g id="link_RepositoryFactory_CustomerRepository"><path codeLine="44" d="M332.502,353.034 C332.598,371.982 332.748,400.98 332.856,422.274 " fill="none" id="RepositoryFactory-to-CustomerRepository" style="stroke:#181818;stroke-width:0.6;stroke-dasharray:7.0,7.0;"/><polygon fill="#181818" points="332.874,425.358,335.2431,419.9444,332.8569,422.358,330.4432,419.9718,332.874,425.358" style="stroke:#181818;stroke-width:0.6;"/></g><!--MD5=[3ae97d11c2ca570632e7e7ed3510da9a]
link CustomerRepository to Customer--><g id="link_CustomerRepository_Customer"><path codeLine="45" d="M315.156,475.47 C299.766,496.656 277.968,526.668 264.588,545.094 " fill="none" id="CustomerRepository-to-Customer" style="stroke:#181818;stroke-width:0.6;stroke-dasharray:7.0,7.0;"/><polygon fill="#181818" points="262.674,547.728,267.7805,544.7542,264.4298,545.2955,263.8885,541.9448,262.674,547.728" style="stroke:#181818;stroke-width:0.6;"/></g><!--MD5=[0854e03b6526d03aa21453882e61f10f]
link CustomerBuilder to Customer--><g id="link_CustomerBuilder_Customer"><path codeLine="46" d="M146.928,475.332 C173.19,496.77 210.612,527.322 233.16,545.73 " fill="none" id="CustomerBuilder-to-Customer" style="stroke:#181818;stroke-width:0.6;stroke-dasharray:7.0,7.0;"/><polygon fill="#181818" points="235.566,547.692,232.8884,542.4241,233.2377,545.8002,229.8616,546.1495,235.566,547.692" style="stroke:#181818;stroke-width:0.6;"/></g><!--MD5=[a079f3fb21ffbe01d098ba7dfc7788c2]
@startuml
skinparam classAttributeIconSize 0

package "Presentation"{
class RegisterCustomerUI
}

package "Application"{
class RegisterCustomerController
}

package "Builder"{
class CustomerBuilder{
+createCustomer(name, VatID, email, phoneNumber,\n birthday, billingAddress, deliveringAddress, gender)
}
}

package "Domain"{
class Customer
}

package "Persistence"{
class PersistenceContext{
+repositories()
}
}

package "Factory"{
class RepositoryFactory{
+create()
}
}

package "Repository"{
class CustomerRepository{
+create()
+save(customer)
}
}
RegisterCustomerUI .-> RegisterCustomerController
RegisterCustomerController .- -> CustomerBuilder
RegisterCustomerController .- -> Customer
RegisterCustomerController .- -> PersistenceContext
PersistenceContext .- -> RepositoryFactory
RepositoryFactory .- -> CustomerRepository
CustomerRepository .- -> Customer
CustomerBuilder .- -> Customer


@enduml

PlantUML version 1.2022.4(Sat Apr 09 14:29:17 BST 2022)
(GPL source distribution)
Java Runtime: OpenJDK Runtime Environment
JVM: OpenJDK 64-Bit Server VM
Default Encoding: Cp1252
Language: pt
Country: PT
--></g></svg>