<?xml version="1.0" encoding="UTF-8" standalone="no"?><svg xmlns="http://www.w3.org/2000/svg" xmlns:xlink="http://www.w3.org/1999/xlink" contentStyleType="text/css" height="633px" preserveAspectRatio="none" style="width:779px;height:633px;background:#FFFFFF;" version="1.1" viewBox="0 0 779 633" width="779px" zoomAndPan="magnify"><defs/><g><!--MD5=[b5e3361e2a5f8dd2cdf2e5f0d87d6906]
cluster customer--><g id="cluster_customer"><path d="M8.5,6 L75.5,6 A3.75,3.75 0 0 1 78,8.5 L85,29.6094 L769.5,29.6094 A2.5,2.5 0 0 1 772,32.1094 L772,623.5 A2.5,2.5 0 0 1 769.5,626 L8.5,626 A2.5,2.5 0 0 1 6,623.5 L6,8.5 A2.5,2.5 0 0 1 8.5,6 " style="stroke:#000000;stroke-width:1.5;fill:none;"/><line style="stroke:#000000;stroke-width:1.5;fill:none;" x1="6" x2="85" y1="29.6094" y2="29.6094"/><text fill="#000000" font-family="sans-serif" font-size="14" font-weight="bold" lengthAdjust="spacing" textLength="66" x="10" y="22.5332">customer</text></g><!--MD5=[2ce0c9fb7f55b1e256ab28a8ea6b25ec]
class Customer--><g id="elem_Customer"><rect codeLine="6" fill="#F1F1F1" height="68.3125" id="Customer" rx="2.5" ry="2.5" style="stroke:#181818;stroke-width:0.5;" width="93" x="240" y="292"/><ellipse cx="255" cy="313.3516" fill="#ADD1B2" rx="11" ry="11" style="stroke:#181818;stroke-width:1.0;"/><path d="M257,309.8516 Q257.2031,309.3516 257.4375,309.1016 Q257.6719,308.8516 257.9375,308.8516 Q258.4063,308.8516 258.7031,309.1328 Q259,309.4141 259,310.0703 L259,311.6328 Q259,312.2891 258.7188,312.5703 Q258.4375,312.8516 258,312.8516 Q257.6094,312.8516 257.3594,312.6797 Q257.1094,312.5078 257,312.0547 Q256.9531,311.7422 256.7813,311.5703 Q256.4688,311.2422 255.9063,311.0547 Q255.3438,310.8516 254.7813,310.8516 Q254.0781,310.8516 253.4844,311.1328 Q252.9063,311.4141 252.4531,312.0391 Q252,312.6641 252,313.5234 L252,314.4453 Q252,315.4766 252.8438,316.1641 Q253.6875,316.8516 255.1875,316.8516 Q256.0781,316.8516 256.7031,316.6484 Q257.0625,316.5391 257.4688,316.1797 Q257.7344,315.9766 257.875,315.9141 Q258.0156,315.8516 258.1875,315.8516 Q258.5156,315.8516 258.75,316.1172 Q259,316.3672 259,316.7266 Q259,317.0703 258.6563,317.4766 Q258.1563,318.0703 257.3594,318.3984 Q256.3125,318.8516 255.0313,318.8516 Q253.5313,318.8516 252.3281,318.2578 Q251.3594,317.7891 250.6719,316.7734 Q250,315.7578 250,314.5547 L250,313.4609 Q250,312.2109 250.5938,311.1172 Q251.2031,310.0234 252.25,309.4453 Q253.3125,308.8516 254.5,308.8516 Q255.2188,308.8516 255.8438,309.1016 Q256.4688,309.3516 257,309.8516 Z " fill="#000000"/><text fill="#000000" font-family="sans-serif" font-size="12" font-style="italic" lengthAdjust="spacing" textLength="43" x="278" y="309.457">«entity»</text><text fill="#000000" font-family="sans-serif" font-size="14" lengthAdjust="spacing" textLength="61" x="269" y="326.627">Customer</text><line style="stroke:#181818;stroke-width:0.5;" x1="241" x2="332" y1="334.7031" y2="334.7031"/><text fill="#000000" font-family="sans-serif" font-size="14" lengthAdjust="spacing" textLength="16" x="246" y="353.2363">-id</text></g><!--MD5=[259751c62740cd323654d00ec41ecc78]
class SalesClerk--><g id="elem_SalesClerk"><rect codeLine="10" fill="#F1F1F1" height="50.7031" id="SalesClerk" rx="2.5" ry="2.5" style="stroke:#181818;stroke-width:0.5;" width="100" x="22" y="300.5"/><ellipse cx="37" cy="321.8516" fill="#ADD1B2" rx="11" ry="11" style="stroke:#181818;stroke-width:1.0;"/><path d="M39,318.3516 Q39.2031,317.8516 39.4375,317.6016 Q39.6719,317.3516 39.9375,317.3516 Q40.4063,317.3516 40.7031,317.6328 Q41,317.9141 41,318.5703 L41,320.1328 Q41,320.7891 40.7188,321.0703 Q40.4375,321.3516 40,321.3516 Q39.6094,321.3516 39.3594,321.1797 Q39.1094,321.0078 39,320.5547 Q38.9531,320.2422 38.7813,320.0703 Q38.4688,319.7422 37.9063,319.5547 Q37.3438,319.3516 36.7813,319.3516 Q36.0781,319.3516 35.4844,319.6328 Q34.9063,319.9141 34.4531,320.5391 Q34,321.1641 34,322.0234 L34,322.9453 Q34,323.9766 34.8438,324.6641 Q35.6875,325.3516 37.1875,325.3516 Q38.0781,325.3516 38.7031,325.1484 Q39.0625,325.0391 39.4688,324.6797 Q39.7344,324.4766 39.875,324.4141 Q40.0156,324.3516 40.1875,324.3516 Q40.5156,324.3516 40.75,324.6172 Q41,324.8672 41,325.2266 Q41,325.5703 40.6563,325.9766 Q40.1563,326.5703 39.3594,326.8984 Q38.3125,327.3516 37.0313,327.3516 Q35.5313,327.3516 34.3281,326.7578 Q33.3594,326.2891 32.6719,325.2734 Q32,324.2578 32,323.0547 L32,321.9609 Q32,320.7109 32.5938,319.6172 Q33.2031,318.5234 34.25,317.9453 Q35.3125,317.3516 36.5,317.3516 Q37.2188,317.3516 37.8438,317.6016 Q38.4688,317.8516 39,318.3516 Z " fill="#000000"/><text fill="#000000" font-family="sans-serif" font-size="12" font-style="italic" lengthAdjust="spacing" textLength="43" x="63.5" y="317.957">«entity»</text><text fill="#000000" font-family="sans-serif" font-size="14" lengthAdjust="spacing" textLength="68" x="51" y="335.127">SalesClerk</text><line style="stroke:#181818;stroke-width:0.5;" x1="23" x2="121" y1="343.2031" y2="343.2031"/></g><!--MD5=[0f39e4cb6f03951afbf6d14bd2505654]
class Address--><g id="elem_Address"><rect fill="#F1F1F1" height="50.7031" id="Address" rx="2.5" ry="2.5" style="stroke:#181818;stroke-width:0.5;" width="109" x="470.5" y="558.5"/><ellipse cx="485.5" cy="579.8516" fill="#ADD1B2" rx="11" ry="11" style="stroke:#181818;stroke-width:1.0;"/><path d="M487.5,576.3516 Q487.7031,575.8516 487.9375,575.6016 Q488.1719,575.3516 488.4375,575.3516 Q488.9063,575.3516 489.2031,575.6328 Q489.5,575.9141 489.5,576.5703 L489.5,578.1328 Q489.5,578.7891 489.2188,579.0703 Q488.9375,579.3516 488.5,579.3516 Q488.1094,579.3516 487.8594,579.1797 Q487.6094,579.0078 487.5,578.5547 Q487.4531,578.2422 487.2813,578.0703 Q486.9688,577.7422 486.4063,577.5547 Q485.8438,577.3516 485.2813,577.3516 Q484.5781,577.3516 483.9844,577.6328 Q483.4063,577.9141 482.9531,578.5391 Q482.5,579.1641 482.5,580.0234 L482.5,580.9453 Q482.5,581.9766 483.3438,582.6641 Q484.1875,583.3516 485.6875,583.3516 Q486.5781,583.3516 487.2031,583.1484 Q487.5625,583.0391 487.9688,582.6797 Q488.2344,582.4766 488.375,582.4141 Q488.5156,582.3516 488.6875,582.3516 Q489.0156,582.3516 489.25,582.6172 Q489.5,582.8672 489.5,583.2266 Q489.5,583.5703 489.1563,583.9766 Q488.6563,584.5703 487.8594,584.8984 Q486.8125,585.3516 485.5313,585.3516 Q484.0313,585.3516 482.8281,584.7578 Q481.8594,584.2891 481.1719,583.2734 Q480.5,582.2578 480.5,581.0547 L480.5,579.9609 Q480.5,578.7109 481.0938,577.6172 Q481.7031,576.5234 482.75,575.9453 Q483.8125,575.3516 485,575.3516 Q485.7188,575.3516 486.3438,575.6016 Q486.9688,575.8516 487.5,576.3516 Z " fill="#000000"/><text fill="#000000" font-family="sans-serif" font-size="12" font-style="italic" lengthAdjust="spacing" textLength="81" x="497.5" y="575.957">«value object»</text><text fill="#000000" font-family="sans-serif" font-size="14" lengthAdjust="spacing" textLength="52" x="512" y="593.127">Address</text><line style="stroke:#181818;stroke-width:0.5;" x1="471.5" x2="578.5" y1="601.2031" y2="601.2031"/></g><!--MD5=[78bec0fde86ad92ec1dc3fb343b83709]
class Email--><g id="elem_Email"><rect fill="#F1F1F1" height="50.7031" id="Email" rx="2.5" ry="2.5" style="stroke:#181818;stroke-width:0.5;" width="109" x="470.5" y="472.5"/><ellipse cx="485.5" cy="493.8516" fill="#ADD1B2" rx="11" ry="11" style="stroke:#181818;stroke-width:1.0;"/><path d="M487.5,490.3516 Q487.7031,489.8516 487.9375,489.6016 Q488.1719,489.3516 488.4375,489.3516 Q488.9063,489.3516 489.2031,489.6328 Q489.5,489.9141 489.5,490.5703 L489.5,492.1328 Q489.5,492.7891 489.2188,493.0703 Q488.9375,493.3516 488.5,493.3516 Q488.1094,493.3516 487.8594,493.1797 Q487.6094,493.0078 487.5,492.5547 Q487.4531,492.2422 487.2813,492.0703 Q486.9688,491.7422 486.4063,491.5547 Q485.8438,491.3516 485.2813,491.3516 Q484.5781,491.3516 483.9844,491.6328 Q483.4063,491.9141 482.9531,492.5391 Q482.5,493.1641 482.5,494.0234 L482.5,494.9453 Q482.5,495.9766 483.3438,496.6641 Q484.1875,497.3516 485.6875,497.3516 Q486.5781,497.3516 487.2031,497.1484 Q487.5625,497.0391 487.9688,496.6797 Q488.2344,496.4766 488.375,496.4141 Q488.5156,496.3516 488.6875,496.3516 Q489.0156,496.3516 489.25,496.6172 Q489.5,496.8672 489.5,497.2266 Q489.5,497.5703 489.1563,497.9766 Q488.6563,498.5703 487.8594,498.8984 Q486.8125,499.3516 485.5313,499.3516 Q484.0313,499.3516 482.8281,498.7578 Q481.8594,498.2891 481.1719,497.2734 Q480.5,496.2578 480.5,495.0547 L480.5,493.9609 Q480.5,492.7109 481.0938,491.6172 Q481.7031,490.5234 482.75,489.9453 Q483.8125,489.3516 485,489.3516 Q485.7188,489.3516 486.3438,489.6016 Q486.9688,489.8516 487.5,490.3516 Z " fill="#000000"/><text fill="#000000" font-family="sans-serif" font-size="12" font-style="italic" lengthAdjust="spacing" textLength="81" x="497.5" y="489.957">«value object»</text><text fill="#000000" font-family="sans-serif" font-size="14" lengthAdjust="spacing" textLength="34" x="521" y="507.127">Email</text><line style="stroke:#181818;stroke-width:0.5;" x1="471.5" x2="578.5" y1="515.2031" y2="515.2031"/></g><!--MD5=[b5e265065262f4f9caf90311e5706eef]
class PhoneNumber--><g id="elem_PhoneNumber"><rect fill="#F1F1F1" height="50.7031" id="PhoneNumber" rx="2.5" ry="2.5" style="stroke:#181818;stroke-width:0.5;" width="122" x="464" y="386.5"/><ellipse cx="479" cy="407.8516" fill="#ADD1B2" rx="11" ry="11" style="stroke:#181818;stroke-width:1.0;"/><path d="M481,404.3516 Q481.2031,403.8516 481.4375,403.6016 Q481.6719,403.3516 481.9375,403.3516 Q482.4063,403.3516 482.7031,403.6328 Q483,403.9141 483,404.5703 L483,406.1328 Q483,406.7891 482.7188,407.0703 Q482.4375,407.3516 482,407.3516 Q481.6094,407.3516 481.3594,407.1797 Q481.1094,407.0078 481,406.5547 Q480.9531,406.2422 480.7813,406.0703 Q480.4688,405.7422 479.9063,405.5547 Q479.3438,405.3516 478.7813,405.3516 Q478.0781,405.3516 477.4844,405.6328 Q476.9063,405.9141 476.4531,406.5391 Q476,407.1641 476,408.0234 L476,408.9453 Q476,409.9766 476.8438,410.6641 Q477.6875,411.3516 479.1875,411.3516 Q480.0781,411.3516 480.7031,411.1484 Q481.0625,411.0391 481.4688,410.6797 Q481.7344,410.4766 481.875,410.4141 Q482.0156,410.3516 482.1875,410.3516 Q482.5156,410.3516 482.75,410.6172 Q483,410.8672 483,411.2266 Q483,411.5703 482.6563,411.9766 Q482.1563,412.5703 481.3594,412.8984 Q480.3125,413.3516 479.0313,413.3516 Q477.5313,413.3516 476.3281,412.7578 Q475.3594,412.2891 474.6719,411.2734 Q474,410.2578 474,409.0547 L474,407.9609 Q474,406.7109 474.5938,405.6172 Q475.2031,404.5234 476.25,403.9453 Q477.3125,403.3516 478.5,403.3516 Q479.2188,403.3516 479.8438,403.6016 Q480.4688,403.8516 481,404.3516 Z " fill="#000000"/><text fill="#000000" font-family="sans-serif" font-size="12" font-style="italic" lengthAdjust="spacing" textLength="81" x="497.5" y="403.957">«value object»</text><text fill="#000000" font-family="sans-serif" font-size="14" lengthAdjust="spacing" textLength="90" x="493" y="421.127">PhoneNumber</text><line style="stroke:#181818;stroke-width:0.5;" x1="465" x2="585" y1="429.2031" y2="429.2031"/></g><!--MD5=[ec957f90f125634d426aef890efece94]
class BirthDate--><g id="elem_BirthDate"><rect fill="#F1F1F1" height="50.7031" id="BirthDate" rx="2.5" ry="2.5" style="stroke:#181818;stroke-width:0.5;" width="109" x="470.5" y="300.5"/><ellipse cx="485.5" cy="321.8516" fill="#ADD1B2" rx="11" ry="11" style="stroke:#181818;stroke-width:1.0;"/><path d="M487.5,318.3516 Q487.7031,317.8516 487.9375,317.6016 Q488.1719,317.3516 488.4375,317.3516 Q488.9063,317.3516 489.2031,317.6328 Q489.5,317.9141 489.5,318.5703 L489.5,320.1328 Q489.5,320.7891 489.2188,321.0703 Q488.9375,321.3516 488.5,321.3516 Q488.1094,321.3516 487.8594,321.1797 Q487.6094,321.0078 487.5,320.5547 Q487.4531,320.2422 487.2813,320.0703 Q486.9688,319.7422 486.4063,319.5547 Q485.8438,319.3516 485.2813,319.3516 Q484.5781,319.3516 483.9844,319.6328 Q483.4063,319.9141 482.9531,320.5391 Q482.5,321.1641 482.5,322.0234 L482.5,322.9453 Q482.5,323.9766 483.3438,324.6641 Q484.1875,325.3516 485.6875,325.3516 Q486.5781,325.3516 487.2031,325.1484 Q487.5625,325.0391 487.9688,324.6797 Q488.2344,324.4766 488.375,324.4141 Q488.5156,324.3516 488.6875,324.3516 Q489.0156,324.3516 489.25,324.6172 Q489.5,324.8672 489.5,325.2266 Q489.5,325.5703 489.1563,325.9766 Q488.6563,326.5703 487.8594,326.8984 Q486.8125,327.3516 485.5313,327.3516 Q484.0313,327.3516 482.8281,326.7578 Q481.8594,326.2891 481.1719,325.2734 Q480.5,324.2578 480.5,323.0547 L480.5,321.9609 Q480.5,320.7109 481.0938,319.6172 Q481.7031,318.5234 482.75,317.9453 Q483.8125,317.3516 485,317.3516 Q485.7188,317.3516 486.3438,317.6016 Q486.9688,317.8516 487.5,318.3516 Z " fill="#000000"/><text fill="#000000" font-family="sans-serif" font-size="12" font-style="italic" lengthAdjust="spacing" textLength="81" x="497.5" y="317.957">«value object»</text><text fill="#000000" font-family="sans-serif" font-size="14" lengthAdjust="spacing" textLength="59" x="508.5" y="335.127">BirthDate</text><line style="stroke:#181818;stroke-width:0.5;" x1="471.5" x2="578.5" y1="343.2031" y2="343.2031"/></g><!--MD5=[6f348c1f2887396a65ea6388da50c56a]
class Delivering--><g id="elem_Delivering"><rect fill="#F1F1F1" height="50.7031" id="Delivering" rx="2.5" ry="2.5" style="stroke:#181818;stroke-width:0.5;" width="109" x="647" y="558.5"/><ellipse cx="662" cy="579.8516" fill="#ADD1B2" rx="11" ry="11" style="stroke:#181818;stroke-width:1.0;"/><path d="M664,576.3516 Q664.2031,575.8516 664.4375,575.6016 Q664.6719,575.3516 664.9375,575.3516 Q665.4063,575.3516 665.7031,575.6328 Q666,575.9141 666,576.5703 L666,578.1328 Q666,578.7891 665.7188,579.0703 Q665.4375,579.3516 665,579.3516 Q664.6094,579.3516 664.3594,579.1797 Q664.1094,579.0078 664,578.5547 Q663.9531,578.2422 663.7813,578.0703 Q663.4688,577.7422 662.9063,577.5547 Q662.3438,577.3516 661.7813,577.3516 Q661.0781,577.3516 660.4844,577.6328 Q659.9063,577.9141 659.4531,578.5391 Q659,579.1641 659,580.0234 L659,580.9453 Q659,581.9766 659.8438,582.6641 Q660.6875,583.3516 662.1875,583.3516 Q663.0781,583.3516 663.7031,583.1484 Q664.0625,583.0391 664.4688,582.6797 Q664.7344,582.4766 664.875,582.4141 Q665.0156,582.3516 665.1875,582.3516 Q665.5156,582.3516 665.75,582.6172 Q666,582.8672 666,583.2266 Q666,583.5703 665.6563,583.9766 Q665.1563,584.5703 664.3594,584.8984 Q663.3125,585.3516 662.0313,585.3516 Q660.5313,585.3516 659.3281,584.7578 Q658.3594,584.2891 657.6719,583.2734 Q657,582.2578 657,581.0547 L657,579.9609 Q657,578.7109 657.5938,577.6172 Q658.2031,576.5234 659.25,575.9453 Q660.3125,575.3516 661.5,575.3516 Q662.2188,575.3516 662.8438,575.6016 Q663.4688,575.8516 664,576.3516 Z " fill="#000000"/><text fill="#000000" font-family="sans-serif" font-size="12" font-style="italic" lengthAdjust="spacing" textLength="81" x="674" y="575.957">«value object»</text><text fill="#000000" font-family="sans-serif" font-size="14" lengthAdjust="spacing" textLength="63" x="683" y="593.127">Delivering</text><line style="stroke:#181818;stroke-width:0.5;" x1="648" x2="755" y1="601.2031" y2="601.2031"/></g><!--MD5=[f894d23981485fb2823f2cca49f3bfef]
class Billing--><g id="elem_Billing"><rect fill="#F1F1F1" height="50.7031" id="Billing" rx="2.5" ry="2.5" style="stroke:#181818;stroke-width:0.5;" width="109" x="647" y="472.5"/><ellipse cx="662" cy="493.8516" fill="#ADD1B2" rx="11" ry="11" style="stroke:#181818;stroke-width:1.0;"/><path d="M664,490.3516 Q664.2031,489.8516 664.4375,489.6016 Q664.6719,489.3516 664.9375,489.3516 Q665.4063,489.3516 665.7031,489.6328 Q666,489.9141 666,490.5703 L666,492.1328 Q666,492.7891 665.7188,493.0703 Q665.4375,493.3516 665,493.3516 Q664.6094,493.3516 664.3594,493.1797 Q664.1094,493.0078 664,492.5547 Q663.9531,492.2422 663.7813,492.0703 Q663.4688,491.7422 662.9063,491.5547 Q662.3438,491.3516 661.7813,491.3516 Q661.0781,491.3516 660.4844,491.6328 Q659.9063,491.9141 659.4531,492.5391 Q659,493.1641 659,494.0234 L659,494.9453 Q659,495.9766 659.8438,496.6641 Q660.6875,497.3516 662.1875,497.3516 Q663.0781,497.3516 663.7031,497.1484 Q664.0625,497.0391 664.4688,496.6797 Q664.7344,496.4766 664.875,496.4141 Q665.0156,496.3516 665.1875,496.3516 Q665.5156,496.3516 665.75,496.6172 Q666,496.8672 666,497.2266 Q666,497.5703 665.6563,497.9766 Q665.1563,498.5703 664.3594,498.8984 Q663.3125,499.3516 662.0313,499.3516 Q660.5313,499.3516 659.3281,498.7578 Q658.3594,498.2891 657.6719,497.2734 Q657,496.2578 657,495.0547 L657,493.9609 Q657,492.7109 657.5938,491.6172 Q658.2031,490.5234 659.25,489.9453 Q660.3125,489.3516 661.5,489.3516 Q662.2188,489.3516 662.8438,489.6016 Q663.4688,489.8516 664,490.3516 Z " fill="#000000"/><text fill="#000000" font-family="sans-serif" font-size="12" font-style="italic" lengthAdjust="spacing" textLength="81" x="674" y="489.957">«value object»</text><text fill="#000000" font-family="sans-serif" font-size="14" lengthAdjust="spacing" textLength="37" x="696" y="507.127">Billing</text><line style="stroke:#181818;stroke-width:0.5;" x1="648" x2="755" y1="515.2031" y2="515.2031"/></g><!--MD5=[a626601f1c08886c41476594c2573af3]
class VAT--><g id="elem_VAT"><rect fill="#F1F1F1" height="50.7031" id="VAT" rx="2.5" ry="2.5" style="stroke:#181818;stroke-width:0.5;" width="109" x="470.5" y="214.5"/><ellipse cx="485.5" cy="235.8516" fill="#ADD1B2" rx="11" ry="11" style="stroke:#181818;stroke-width:1.0;"/><path d="M487.5,232.3516 Q487.7031,231.8516 487.9375,231.6016 Q488.1719,231.3516 488.4375,231.3516 Q488.9063,231.3516 489.2031,231.6328 Q489.5,231.9141 489.5,232.5703 L489.5,234.1328 Q489.5,234.7891 489.2188,235.0703 Q488.9375,235.3516 488.5,235.3516 Q488.1094,235.3516 487.8594,235.1797 Q487.6094,235.0078 487.5,234.5547 Q487.4531,234.2422 487.2813,234.0703 Q486.9688,233.7422 486.4063,233.5547 Q485.8438,233.3516 485.2813,233.3516 Q484.5781,233.3516 483.9844,233.6328 Q483.4063,233.9141 482.9531,234.5391 Q482.5,235.1641 482.5,236.0234 L482.5,236.9453 Q482.5,237.9766 483.3438,238.6641 Q484.1875,239.3516 485.6875,239.3516 Q486.5781,239.3516 487.2031,239.1484 Q487.5625,239.0391 487.9688,238.6797 Q488.2344,238.4766 488.375,238.4141 Q488.5156,238.3516 488.6875,238.3516 Q489.0156,238.3516 489.25,238.6172 Q489.5,238.8672 489.5,239.2266 Q489.5,239.5703 489.1563,239.9766 Q488.6563,240.5703 487.8594,240.8984 Q486.8125,241.3516 485.5313,241.3516 Q484.0313,241.3516 482.8281,240.7578 Q481.8594,240.2891 481.1719,239.2734 Q480.5,238.2578 480.5,237.0547 L480.5,235.9609 Q480.5,234.7109 481.0938,233.6172 Q481.7031,232.5234 482.75,231.9453 Q483.8125,231.3516 485,231.3516 Q485.7188,231.3516 486.3438,231.6016 Q486.9688,231.8516 487.5,232.3516 Z " fill="#000000"/><text fill="#000000" font-family="sans-serif" font-size="12" font-style="italic" lengthAdjust="spacing" textLength="81" x="497.5" y="231.957">«value object»</text><text fill="#000000" font-family="sans-serif" font-size="14" lengthAdjust="spacing" textLength="27" x="524.5" y="249.127">VAT</text><line style="stroke:#181818;stroke-width:0.5;" x1="471.5" x2="578.5" y1="257.2031" y2="257.2031"/></g><!--MD5=[53f6a92bd21ca2f2960392a061f3a1c6]
class Name--><g id="elem_Name"><rect fill="#F1F1F1" height="50.7031" id="Name" rx="2.5" ry="2.5" style="stroke:#181818;stroke-width:0.5;" width="109" x="470.5" y="128.5"/><ellipse cx="485.5" cy="149.8516" fill="#ADD1B2" rx="11" ry="11" style="stroke:#181818;stroke-width:1.0;"/><path d="M487.5,146.3516 Q487.7031,145.8516 487.9375,145.6016 Q488.1719,145.3516 488.4375,145.3516 Q488.9063,145.3516 489.2031,145.6328 Q489.5,145.9141 489.5,146.5703 L489.5,148.1328 Q489.5,148.7891 489.2188,149.0703 Q488.9375,149.3516 488.5,149.3516 Q488.1094,149.3516 487.8594,149.1797 Q487.6094,149.0078 487.5,148.5547 Q487.4531,148.2422 487.2813,148.0703 Q486.9688,147.7422 486.4063,147.5547 Q485.8438,147.3516 485.2813,147.3516 Q484.5781,147.3516 483.9844,147.6328 Q483.4063,147.9141 482.9531,148.5391 Q482.5,149.1641 482.5,150.0234 L482.5,150.9453 Q482.5,151.9766 483.3438,152.6641 Q484.1875,153.3516 485.6875,153.3516 Q486.5781,153.3516 487.2031,153.1484 Q487.5625,153.0391 487.9688,152.6797 Q488.2344,152.4766 488.375,152.4141 Q488.5156,152.3516 488.6875,152.3516 Q489.0156,152.3516 489.25,152.6172 Q489.5,152.8672 489.5,153.2266 Q489.5,153.5703 489.1563,153.9766 Q488.6563,154.5703 487.8594,154.8984 Q486.8125,155.3516 485.5313,155.3516 Q484.0313,155.3516 482.8281,154.7578 Q481.8594,154.2891 481.1719,153.2734 Q480.5,152.2578 480.5,151.0547 L480.5,149.9609 Q480.5,148.7109 481.0938,147.6172 Q481.7031,146.5234 482.75,145.9453 Q483.8125,145.3516 485,145.3516 Q485.7188,145.3516 486.3438,145.6016 Q486.9688,145.8516 487.5,146.3516 Z " fill="#000000"/><text fill="#000000" font-family="sans-serif" font-size="12" font-style="italic" lengthAdjust="spacing" textLength="81" x="497.5" y="145.957">«value object»</text><text fill="#000000" font-family="sans-serif" font-size="14" lengthAdjust="spacing" textLength="36" x="520" y="163.127">Name</text><line style="stroke:#181818;stroke-width:0.5;" x1="471.5" x2="578.5" y1="171.2031" y2="171.2031"/></g><!--MD5=[a4ea2dcb44ebd57046df9af95d8b8c12]
class Gender--><g id="elem_Gender"><rect fill="#F1F1F1" height="50.7031" id="Gender" rx="2.5" ry="2.5" style="stroke:#181818;stroke-width:0.5;" width="109" x="470.5" y="42.5"/><ellipse cx="485.5" cy="63.8516" fill="#ADD1B2" rx="11" ry="11" style="stroke:#181818;stroke-width:1.0;"/><path d="M487.5,60.3516 Q487.7031,59.8516 487.9375,59.6016 Q488.1719,59.3516 488.4375,59.3516 Q488.9063,59.3516 489.2031,59.6328 Q489.5,59.9141 489.5,60.5703 L489.5,62.1328 Q489.5,62.7891 489.2188,63.0703 Q488.9375,63.3516 488.5,63.3516 Q488.1094,63.3516 487.8594,63.1797 Q487.6094,63.0078 487.5,62.5547 Q487.4531,62.2422 487.2813,62.0703 Q486.9688,61.7422 486.4063,61.5547 Q485.8438,61.3516 485.2813,61.3516 Q484.5781,61.3516 483.9844,61.6328 Q483.4063,61.9141 482.9531,62.5391 Q482.5,63.1641 482.5,64.0234 L482.5,64.9453 Q482.5,65.9766 483.3438,66.6641 Q484.1875,67.3516 485.6875,67.3516 Q486.5781,67.3516 487.2031,67.1484 Q487.5625,67.0391 487.9688,66.6797 Q488.2344,66.4766 488.375,66.4141 Q488.5156,66.3516 488.6875,66.3516 Q489.0156,66.3516 489.25,66.6172 Q489.5,66.8672 489.5,67.2266 Q489.5,67.5703 489.1563,67.9766 Q488.6563,68.5703 487.8594,68.8984 Q486.8125,69.3516 485.5313,69.3516 Q484.0313,69.3516 482.8281,68.7578 Q481.8594,68.2891 481.1719,67.2734 Q480.5,66.2578 480.5,65.0547 L480.5,63.9609 Q480.5,62.7109 481.0938,61.6172 Q481.7031,60.5234 482.75,59.9453 Q483.8125,59.3516 485,59.3516 Q485.7188,59.3516 486.3438,59.6016 Q486.9688,59.8516 487.5,60.3516 Z " fill="#000000"/><text fill="#000000" font-family="sans-serif" font-size="12" font-style="italic" lengthAdjust="spacing" textLength="81" x="497.5" y="59.957">«value object»</text><text fill="#000000" font-family="sans-serif" font-size="14" lengthAdjust="spacing" textLength="48" x="514" y="77.127">Gender</text><line style="stroke:#181818;stroke-width:0.5;" x1="471.5" x2="578.5" y1="85.2031" y2="85.2031"/></g><!--MD5=[3217017649839e270f5830cd18b7b0c1]
link SalesClerk to Customer--><g id="link_SalesClerk_Customer"><path codeLine="26" d="M122.02,326 C157.56,326 205.29,326 240,326 " fill="none" id="SalesClerk-Customer" style="stroke:#181818;stroke-width:1.0;"/><polygon fill="#000000" points="162,317.1758,152.9549,314.2369,152.9549,320.1147,162,317.1758" style="stroke:#000000;stroke-width:1.0;"/><text fill="#000000" font-family="sans-serif" font-size="13" lengthAdjust="spacing" textLength="43" x="166" y="322.4951">register</text><text fill="#000000" font-family="sans-serif" font-size="13" lengthAdjust="spacing" textLength="7" x="129.8808" y="340.7177">1</text><text fill="#000000" font-family="sans-serif" font-size="13" lengthAdjust="spacing" textLength="5" x="226.8844" y="340.8234">*</text></g><!--MD5=[d37020313d60b0dc9e19f240715ef155]
link Customer to Email--><g id="link_Customer_Email"><path codeLine="27" d="M327.73,360.13 C338.98,369.38 351.33,379.25 363,388 C401.75,417.06 447.47,448 480.28,469.63 " fill="none" id="Customer-to-Email" style="stroke:#181818;stroke-width:1.0;"/><polygon fill="#181818" points="484.61,472.49,479.2876,464.2031,480.4322,469.743,474.8924,470.8876,484.61,472.49" style="stroke:#181818;stroke-width:1.0;"/><text fill="#000000" font-family="sans-serif" font-size="13" lengthAdjust="spacing" textLength="7" x="466.3632" y="461.4813">1</text></g><!--MD5=[e21c05835871e6a5cb5a81425ddc1343]
link Customer to VAT--><g id="link_Customer_VAT"><path codeLine="28" d="M333.1,309.42 C370.76,295.72 424.48,276.19 465.34,261.33 " fill="none" id="Customer-to-VAT" style="stroke:#181818;stroke-width:1.0;"/><polygon fill="#181818" points="470.26,259.54,460.4342,258.8661,465.5627,261.2533,463.1755,266.3818,470.26,259.54" style="stroke:#181818;stroke-width:1.0;"/><text fill="#000000" font-family="sans-serif" font-size="13" lengthAdjust="spacing" textLength="7" x="455.434" y="276.7794">1</text></g><!--MD5=[fd4380d65360519d48eed8286565e90d]
link Customer to PhoneNumber--><g id="link_Customer_PhoneNumber"><path codeLine="29" d="M333.1,342.58 C368.83,355.57 419,373.82 458.95,388.34 " fill="none" id="Customer-to-PhoneNumber" style="stroke:#181818;stroke-width:1.0;"/><polygon fill="#181818" points="463.77,390.1,456.6855,383.2582,459.0727,388.3867,453.9442,390.7739,463.77,390.1" style="stroke:#181818;stroke-width:1.0;"/><text fill="#000000" font-family="sans-serif" font-size="13" lengthAdjust="spacing" textLength="7" x="448.881" y="401.9406">1</text></g><!--MD5=[0a8270db3671c85e503ce247627dc826]
link Customer to Name--><g id="link_Customer_Name"><path codeLine="30" d="M333.13,292.47 C368.71,266.37 419.42,229.27 464,197 C470.45,192.33 477.3,187.4 483.98,182.6 " fill="none" id="Customer-to-Name" style="stroke:#181818;stroke-width:1.0;"/><polygon fill="#181818" points="488.11,179.64,478.4634,181.6258,484.0442,182.5502,483.1198,188.131,488.11,179.64" style="stroke:#181818;stroke-width:1.0;"/><text fill="#000000" font-family="sans-serif" font-size="13" lengthAdjust="spacing" textLength="7" x="472.2747" y="200.5648">1</text></g><!--MD5=[cf5567b3002e4b9a664bc30512620907]
link Customer to Gender--><g id="link_Customer_Gender"><path codeLine="31" d="M311.35,291.63 C343.17,247.12 402.67,168.44 464,111 C469.24,106.09 475.07,101.27 480.97,96.73 " fill="none" id="Customer-to-Gender" style="stroke:#181818;stroke-width:1.0;"/><polygon fill="#181818" points="485.06,93.64,475.474,95.9002,481.0789,96.6651,480.3141,102.27,485.06,93.64" style="stroke:#181818;stroke-width:1.0;"/><text fill="#000000" font-family="sans-serif" font-size="13" lengthAdjust="spacing" textLength="7" x="468.5575" y="114.5648">1</text></g><!--MD5=[dd71b66119cfb2fca85bcf00459bd34f]
link Customer to BirthDate--><g id="link_Customer_BirthDate"><path codeLine="32" d="M333.1,326 C370.61,326 424.04,326 464.84,326 " fill="none" id="Customer-to-BirthDate" style="stroke:#181818;stroke-width:1.0;"/><polygon fill="#181818" points="470.26,326,461.26,322,465.26,326,461.26,330,470.26,326" style="stroke:#181818;stroke-width:1.0;"/><text fill="#000000" font-family="sans-serif" font-size="13" lengthAdjust="spacing" textLength="22" x="440.6588" y="340.4576">0..1</text></g><!--MD5=[9d267913275094cee8b213adaba16fc1]
link Customer to Address--><g id="link_Customer_Address"><path codeLine="33" d="M301.36,360.24 C314.4,389.77 335.94,432.52 363,464 C396.4,502.86 444.53,536.66 479.46,558.4 " fill="none" id="Customer-Address" style="stroke:#181818;stroke-width:1.0;"/><polygon fill="#000000" points="371.3423,458.8945,367.4819,450.2027,363.1102,454.1318,371.3423,458.8945" style="stroke:#000000;stroke-width:1.0;"/><text fill="#000000" font-family="sans-serif" font-size="13" lengthAdjust="spacing" textLength="56" x="377" y="460.4951">residence</text><text fill="#000000" font-family="sans-serif" font-size="13" lengthAdjust="spacing" textLength="7" x="296.5255" y="381.7908">1</text><text fill="#000000" font-family="sans-serif" font-size="13" lengthAdjust="spacing" textLength="5" x="462.7503" y="547.7841">*</text></g><!--MD5=[b8cb112dbaacd49268de50fffcd769f2]
reverse link Address to Delivering--><g id="link_Address_Delivering"><path codeLine="34" d="M599.97,584 C615.73,584 632.08,584 646.9,584 " fill="none" id="Address-backto-Delivering" style="stroke:#181818;stroke-width:1.0;"/><polygon fill="none" points="599.78,591,579.78,584,599.78,577,599.78,591" style="stroke:#181818;stroke-width:1.0;"/></g><!--MD5=[f35a48c44f5e52f9fae94252204d49ad]
reverse link Address to Billing--><g id="link_Address_Billing"><path codeLine="35" d="M596.02,549.49 C613.55,540.85 632.04,531.74 648.52,523.62 " fill="none" id="Address-backto-Billing" style="stroke:#181818;stroke-width:1.0;"/><polygon fill="none" points="598.92,555.87,577.88,558.43,592.73,543.31,598.92,555.87" style="stroke:#181818;stroke-width:1.0;"/></g><!--MD5=[f8ed5c93c13854c783f022f1b62150f1]
@startuml
hide methods
left to right direction
skinparam classAttributeIconSize 0

package "customer"{
class Customer{
-id
}

class SalesClerk{
}

Customer <<entity>>
SalesClerk <<entity>>
Address <<value object>>
Email <<value object>>
PhoneNumber <<value object>>
BirthDate <<value object>>
Delivering <<value object>>
Billing <<value object>>
VAT <<value object>>
Name <<value object>>
Gender <<value object>>
}

SalesClerk "1" - - "*" Customer : register >
Customer  - -> "1" Email
Customer  - -> "1" VAT
Customer  - -> "1" PhoneNumber
Customer  - -> "1" Name
Customer  - -> "1" Gender
Customer  - -> "0..1" BirthDate
Customer "1" - - "*" Address : residence >
Address <|- - Delivering
Address <|- - Billing
@enduml

PlantUML version 1.2022.4(Sat Apr 09 14:29:17 BST 2022)
(GPL source distribution)
Java Runtime: OpenJDK Runtime Environment
JVM: OpenJDK 64-Bit Server VM
Default Encoding: Cp1252
Language: pt
Country: PT
--></g></svg>