<?xml version="1.0" encoding="UTF-8" standalone="no"?><svg xmlns="http://www.w3.org/2000/svg" xmlns:xlink="http://www.w3.org/1999/xlink" contentStyleType="text/css" height="1133px" preserveAspectRatio="none" style="width:779px;height:1133px;background:#FFFFFF;" version="1.1" viewBox="0 0 779 1133" width="779px" zoomAndPan="magnify"><defs/><g><!--MD5=[89f4a5b40138867adcebde5741d6db60]
cluster survey--><g id="cluster_survey"><path d="M234.5,650 L283.5,650 A3.75,3.75 0 0 1 286,652.5 L293,673.6094 L769.5,673.6094 A2.5,2.5 0 0 1 772,676.1094 L772,925.5 A2.5,2.5 0 0 1 769.5,928 L234.5,928 A2.5,2.5 0 0 1 232,925.5 L232,652.5 A2.5,2.5 0 0 1 234.5,650 " style="stroke:#000000;stroke-width:1.5;fill:none;"/><line style="stroke:#000000;stroke-width:1.5;fill:none;" x1="232" x2="293" y1="673.6094" y2="673.6094"/><text fill="#000000" font-family="sans-serif" font-size="14" font-weight="bold" lengthAdjust="spacing" textLength="48" x="236" y="666.5332">survey</text></g><!--MD5=[1a74d44ba1ba7271c81e18b35589cf81]
cluster surveyAnswer--><g id="cluster_surveyAnswer"><path d="M236.5,952 L337.5,952 A3.75,3.75 0 0 1 340,954.5 L347,975.6094 L387.5,975.6094 A2.5,2.5 0 0 1 390,978.1094 L390,1123.5 A2.5,2.5 0 0 1 387.5,1126 L236.5,1126 A2.5,2.5 0 0 1 234,1123.5 L234,954.5 A2.5,2.5 0 0 1 236.5,952 " style="stroke:#000000;stroke-width:1.5;fill:none;"/><line style="stroke:#000000;stroke-width:1.5;fill:none;" x1="234" x2="347" y1="975.6094" y2="975.6094"/><text fill="#000000" font-family="sans-serif" font-size="14" font-weight="bold" lengthAdjust="spacing" textLength="100" x="238" y="968.5332">surveyAnswer</text></g><!--MD5=[b5e3361e2a5f8dd2cdf2e5f0d87d6906]
cluster customer--><g id="cluster_customer"><path d="M8.5,6 L75.5,6 A3.75,3.75 0 0 1 78,8.5 L85,29.6094 L386.5,29.6094 A2.5,2.5 0 0 1 389,32.1094 L389,623.5 A2.5,2.5 0 0 1 386.5,626 L8.5,626 A2.5,2.5 0 0 1 6,623.5 L6,8.5 A2.5,2.5 0 0 1 8.5,6 " style="stroke:#000000;stroke-width:1.5;fill:none;"/><line style="stroke:#000000;stroke-width:1.5;fill:none;" x1="6" x2="85" y1="29.6094" y2="29.6094"/><text fill="#000000" font-family="sans-serif" font-size="14" font-weight="bold" lengthAdjust="spacing" textLength="66" x="10" y="22.5332">customer</text></g><!--MD5=[3145b4be7c5005b24cda6f18a1d594b0]
class Survey--><g id="elem_Survey"><rect codeLine="6" fill="#F1F1F1" height="121.1406" id="Survey" rx="2.5" ry="2.5" style="stroke:#181818;stroke-width:0.5;" width="128" x="248" y="686.5"/><ellipse cx="286.4" cy="707.8516" fill="#ADD1B2" rx="11" ry="11" style="stroke:#181818;stroke-width:1.0;"/><path d="M288.4,704.3516 Q288.6031,703.8516 288.8375,703.6016 Q289.0719,703.3516 289.3375,703.3516 Q289.8063,703.3516 290.1031,703.6328 Q290.4,703.9141 290.4,704.5703 L290.4,706.1328 Q290.4,706.7891 290.1188,707.0703 Q289.8375,707.3516 289.4,707.3516 Q289.0094,707.3516 288.7594,707.1797 Q288.5094,707.0078 288.4,706.5547 Q288.3531,706.2422 288.1813,706.0703 Q287.8688,705.7422 287.3063,705.5547 Q286.7438,705.3516 286.1813,705.3516 Q285.4781,705.3516 284.8844,705.6328 Q284.3063,705.9141 283.8531,706.5391 Q283.4,707.1641 283.4,708.0234 L283.4,708.9453 Q283.4,709.9766 284.2438,710.6641 Q285.0875,711.3516 286.5875,711.3516 Q287.4781,711.3516 288.1031,711.1484 Q288.4625,711.0391 288.8688,710.6797 Q289.1344,710.4766 289.275,710.4141 Q289.4156,710.3516 289.5875,710.3516 Q289.9156,710.3516 290.15,710.6172 Q290.4,710.8672 290.4,711.2266 Q290.4,711.5703 290.0563,711.9766 Q289.5563,712.5703 288.7594,712.8984 Q287.7125,713.3516 286.4313,713.3516 Q284.9313,713.3516 283.7281,712.7578 Q282.7594,712.2891 282.0719,711.2734 Q281.4,710.2578 281.4,709.0547 L281.4,707.9609 Q281.4,706.7109 281.9938,705.6172 Q282.6031,704.5234 283.65,703.9453 Q284.7125,703.3516 285.9,703.3516 Q286.6188,703.3516 287.2438,703.6016 Q287.8688,703.8516 288.4,704.3516 Z " fill="#000000"/><text fill="#000000" font-family="sans-serif" font-size="12" font-style="italic" lengthAdjust="spacing" textLength="43" x="306.1" y="703.957">«entity»</text><text fill="#000000" font-family="sans-serif" font-size="14" lengthAdjust="spacing" textLength="44" x="305.6" y="721.127">Survey</text><line style="stroke:#181818;stroke-width:0.5;" x1="249" x2="375" y1="729.2031" y2="729.2031"/><text fill="#000000" font-family="sans-serif" font-size="14" lengthAdjust="spacing" textLength="16" x="254" y="747.7363">-id</text><text fill="#000000" font-family="sans-serif" font-size="14" lengthAdjust="spacing" textLength="67" x="254" y="765.3457">-final_date</text><text fill="#000000" font-family="sans-serif" font-size="14" lengthAdjust="spacing" textLength="27" x="254" y="782.9551">-title</text><text fill="#000000" font-family="sans-serif" font-size="14" lengthAdjust="spacing" textLength="116" x="254" y="800.5645">-welcomeMessage</text></g><!--MD5=[09a53695e98d4f26e7a054522080af08]
class Section--><g id="elem_Section"><rect codeLine="13" fill="#F1F1F1" height="138.75" id="Section" rx="2.5" ry="2.5" style="stroke:#181818;stroke-width:0.5;" width="149" x="437" y="772.5"/><ellipse cx="483.75" cy="793.8516" fill="#ADD1B2" rx="11" ry="11" style="stroke:#181818;stroke-width:1.0;"/><path d="M485.75,790.3516 Q485.9531,789.8516 486.1875,789.6016 Q486.4219,789.3516 486.6875,789.3516 Q487.1563,789.3516 487.4531,789.6328 Q487.75,789.9141 487.75,790.5703 L487.75,792.1328 Q487.75,792.7891 487.4688,793.0703 Q487.1875,793.3516 486.75,793.3516 Q486.3594,793.3516 486.1094,793.1797 Q485.8594,793.0078 485.75,792.5547 Q485.7031,792.2422 485.5313,792.0703 Q485.2188,791.7422 484.6563,791.5547 Q484.0938,791.3516 483.5313,791.3516 Q482.8281,791.3516 482.2344,791.6328 Q481.6563,791.9141 481.2031,792.5391 Q480.75,793.1641 480.75,794.0234 L480.75,794.9453 Q480.75,795.9766 481.5938,796.6641 Q482.4375,797.3516 483.9375,797.3516 Q484.8281,797.3516 485.4531,797.1484 Q485.8125,797.0391 486.2188,796.6797 Q486.4844,796.4766 486.625,796.4141 Q486.7656,796.3516 486.9375,796.3516 Q487.2656,796.3516 487.5,796.6172 Q487.75,796.8672 487.75,797.2266 Q487.75,797.5703 487.4063,797.9766 Q486.9063,798.5703 486.1094,798.8984 Q485.0625,799.3516 483.7813,799.3516 Q482.2813,799.3516 481.0781,798.7578 Q480.1094,798.2891 479.4219,797.2734 Q478.75,796.2578 478.75,795.0547 L478.75,793.9609 Q478.75,792.7109 479.3438,791.6172 Q479.9531,790.5234 481,789.9453 Q482.0625,789.3516 483.25,789.3516 Q483.9688,789.3516 484.5938,789.6016 Q485.2188,789.8516 485.75,790.3516 Z " fill="#000000"/><text fill="#000000" font-family="sans-serif" font-size="12" font-style="italic" lengthAdjust="spacing" textLength="43" x="506.25" y="789.957">«entity»</text><text fill="#000000" font-family="sans-serif" font-size="14" lengthAdjust="spacing" textLength="47" x="504.25" y="807.127">Section</text><line style="stroke:#181818;stroke-width:0.5;" x1="438" x2="585" y1="815.2031" y2="815.2031"/><text fill="#000000" font-family="sans-serif" font-size="14" lengthAdjust="spacing" textLength="69" x="443" y="833.7363">-section_id</text><text fill="#000000" font-family="sans-serif" font-size="14" lengthAdjust="spacing" textLength="137" x="443" y="851.3457">-section_identification</text><text fill="#000000" font-family="sans-serif" font-size="14" lengthAdjust="spacing" textLength="127" x="443" y="868.9551">-section_description</text><text fill="#000000" font-family="sans-serif" font-size="14" lengthAdjust="spacing" textLength="93" x="443" y="886.5645">-obligatoriness</text><text fill="#000000" font-family="sans-serif" font-size="14" lengthAdjust="spacing" textLength="62" x="443" y="904.1738">-condition</text></g><!--MD5=[009695af4e54f3bba8a9c60dca3e1c94]
class Description--><g id="elem_Description"><rect fill="#F1F1F1" height="50.7031" id="Description" rx="2.5" ry="2.5" style="stroke:#181818;stroke-width:0.5;" width="109" x="457" y="686.5"/><ellipse cx="472" cy="707.8516" fill="#ADD1B2" rx="11" ry="11" style="stroke:#181818;stroke-width:1.0;"/><path d="M474,704.3516 Q474.2031,703.8516 474.4375,703.6016 Q474.6719,703.3516 474.9375,703.3516 Q475.4063,703.3516 475.7031,703.6328 Q476,703.9141 476,704.5703 L476,706.1328 Q476,706.7891 475.7188,707.0703 Q475.4375,707.3516 475,707.3516 Q474.6094,707.3516 474.3594,707.1797 Q474.1094,707.0078 474,706.5547 Q473.9531,706.2422 473.7813,706.0703 Q473.4688,705.7422 472.9063,705.5547 Q472.3438,705.3516 471.7813,705.3516 Q471.0781,705.3516 470.4844,705.6328 Q469.9063,705.9141 469.4531,706.5391 Q469,707.1641 469,708.0234 L469,708.9453 Q469,709.9766 469.8438,710.6641 Q470.6875,711.3516 472.1875,711.3516 Q473.0781,711.3516 473.7031,711.1484 Q474.0625,711.0391 474.4688,710.6797 Q474.7344,710.4766 474.875,710.4141 Q475.0156,710.3516 475.1875,710.3516 Q475.5156,710.3516 475.75,710.6172 Q476,710.8672 476,711.2266 Q476,711.5703 475.6563,711.9766 Q475.1563,712.5703 474.3594,712.8984 Q473.3125,713.3516 472.0313,713.3516 Q470.5313,713.3516 469.3281,712.7578 Q468.3594,712.2891 467.6719,711.2734 Q467,710.2578 467,709.0547 L467,707.9609 Q467,706.7109 467.5938,705.6172 Q468.2031,704.5234 469.25,703.9453 Q470.3125,703.3516 471.5,703.3516 Q472.2188,703.3516 472.8438,703.6016 Q473.4688,703.8516 474,704.3516 Z " fill="#000000"/><text fill="#000000" font-family="sans-serif" font-size="12" font-style="italic" lengthAdjust="spacing" textLength="81" x="484" y="703.957">«value object»</text><text fill="#000000" font-family="sans-serif" font-size="14" lengthAdjust="spacing" textLength="71" x="489" y="721.127">Description</text><line style="stroke:#181818;stroke-width:0.5;" x1="458" x2="565" y1="729.2031" y2="729.2031"/></g><!--MD5=[fc7123defb831ecdd44b2d9bcef6cceb]
class Question--><g id="elem_Question"><rect fill="#F1F1F1" height="50.7031" id="Question" rx="2.5" ry="2.5" style="stroke:#181818;stroke-width:0.5;" width="109" x="647" y="816.5"/><ellipse cx="662" cy="837.8516" fill="#ADD1B2" rx="11" ry="11" style="stroke:#181818;stroke-width:1.0;"/><path d="M664,834.3516 Q664.2031,833.8516 664.4375,833.6016 Q664.6719,833.3516 664.9375,833.3516 Q665.4063,833.3516 665.7031,833.6328 Q666,833.9141 666,834.5703 L666,836.1328 Q666,836.7891 665.7188,837.0703 Q665.4375,837.3516 665,837.3516 Q664.6094,837.3516 664.3594,837.1797 Q664.1094,837.0078 664,836.5547 Q663.9531,836.2422 663.7813,836.0703 Q663.4688,835.7422 662.9063,835.5547 Q662.3438,835.3516 661.7813,835.3516 Q661.0781,835.3516 660.4844,835.6328 Q659.9063,835.9141 659.4531,836.5391 Q659,837.1641 659,838.0234 L659,838.9453 Q659,839.9766 659.8438,840.6641 Q660.6875,841.3516 662.1875,841.3516 Q663.0781,841.3516 663.7031,841.1484 Q664.0625,841.0391 664.4688,840.6797 Q664.7344,840.4766 664.875,840.4141 Q665.0156,840.3516 665.1875,840.3516 Q665.5156,840.3516 665.75,840.6172 Q666,840.8672 666,841.2266 Q666,841.5703 665.6563,841.9766 Q665.1563,842.5703 664.3594,842.8984 Q663.3125,843.3516 662.0313,843.3516 Q660.5313,843.3516 659.3281,842.7578 Q658.3594,842.2891 657.6719,841.2734 Q657,840.2578 657,839.0547 L657,837.9609 Q657,836.7109 657.5938,835.6172 Q658.2031,834.5234 659.25,833.9453 Q660.3125,833.3516 661.5,833.3516 Q662.2188,833.3516 662.8438,833.6016 Q663.4688,833.8516 664,834.3516 Z " fill="#000000"/><text fill="#000000" font-family="sans-serif" font-size="12" font-style="italic" lengthAdjust="spacing" textLength="81" x="674" y="833.957">«value object»</text><text fill="#000000" font-family="sans-serif" font-size="14" lengthAdjust="spacing" textLength="57" x="686" y="851.127">Question</text><line style="stroke:#181818;stroke-width:0.5;" x1="648" x2="755" y1="859.2031" y2="859.2031"/></g><!--MD5=[da68ba2bac56787cc978c52098ea326b]
class SurveyAnswer--><g id="elem_SurveyAnswer"><rect codeLine="30" fill="#F1F1F1" height="121.1406" id="SurveyAnswer" rx="2.5" ry="2.5" style="stroke:#181818;stroke-width:0.5;" width="124" x="250" y="988.5"/><ellipse cx="265.9" cy="1009.8516" fill="#ADD1B2" rx="11" ry="11" style="stroke:#181818;stroke-width:1.0;"/><path d="M267.9,1006.3516 Q268.1031,1005.8516 268.3375,1005.6016 Q268.5719,1005.3516 268.8375,1005.3516 Q269.3063,1005.3516 269.6031,1005.6328 Q269.9,1005.9141 269.9,1006.5703 L269.9,1008.1328 Q269.9,1008.7891 269.6188,1009.0703 Q269.3375,1009.3516 268.9,1009.3516 Q268.5094,1009.3516 268.2594,1009.1797 Q268.0094,1009.0078 267.9,1008.5547 Q267.8531,1008.2422 267.6813,1008.0703 Q267.3688,1007.7422 266.8063,1007.5547 Q266.2438,1007.3516 265.6813,1007.3516 Q264.9781,1007.3516 264.3844,1007.6328 Q263.8063,1007.9141 263.3531,1008.5391 Q262.9,1009.1641 262.9,1010.0234 L262.9,1010.9453 Q262.9,1011.9766 263.7438,1012.6641 Q264.5875,1013.3516 266.0875,1013.3516 Q266.9781,1013.3516 267.6031,1013.1484 Q267.9625,1013.0391 268.3688,1012.6797 Q268.6344,1012.4766 268.775,1012.4141 Q268.9156,1012.3516 269.0875,1012.3516 Q269.4156,1012.3516 269.65,1012.6172 Q269.9,1012.8672 269.9,1013.2266 Q269.9,1013.5703 269.5563,1013.9766 Q269.0563,1014.5703 268.2594,1014.8984 Q267.2125,1015.3516 265.9313,1015.3516 Q264.4313,1015.3516 263.2281,1014.7578 Q262.2594,1014.2891 261.5719,1013.2734 Q260.9,1012.2578 260.9,1011.0547 L260.9,1009.9609 Q260.9,1008.7109 261.4938,1007.6172 Q262.1031,1006.5234 263.15,1005.9453 Q264.2125,1005.3516 265.4,1005.3516 Q266.1188,1005.3516 266.7438,1005.6016 Q267.3688,1005.8516 267.9,1006.3516 Z " fill="#000000"/><text fill="#000000" font-family="sans-serif" font-size="12" font-style="italic" lengthAdjust="spacing" textLength="43" x="303.6" y="1005.957">«entity»</text><text fill="#000000" font-family="sans-serif" font-size="14" lengthAdjust="spacing" textLength="90" x="280.1" y="1023.127">SurveyAnswer</text><line style="stroke:#181818;stroke-width:0.5;" x1="251" x2="373" y1="1031.2031" y2="1031.2031"/><text fill="#000000" font-family="sans-serif" font-size="14" lengthAdjust="spacing" textLength="112" x="256" y="1049.7363">-surveyAnswer_id</text><text fill="#000000" font-family="sans-serif" font-size="14" lengthAdjust="spacing" textLength="63" x="256" y="1067.3457">-customer</text><text fill="#000000" font-family="sans-serif" font-size="14" lengthAdjust="spacing" textLength="47" x="256" y="1084.9551">-survey</text><text fill="#000000" font-family="sans-serif" font-size="14" lengthAdjust="spacing" textLength="57" x="256" y="1102.5645">-answers</text></g><!--MD5=[2ce0c9fb7f55b1e256ab28a8ea6b25ec]
class Customer--><g id="elem_Customer"><rect codeLine="43" fill="#F1F1F1" height="68.3125" id="Customer" rx="2.5" ry="2.5" style="stroke:#181818;stroke-width:0.5;" width="93" x="22" y="378"/><ellipse cx="37" cy="399.3516" fill="#ADD1B2" rx="11" ry="11" style="stroke:#181818;stroke-width:1.0;"/><path d="M39,395.8516 Q39.2031,395.3516 39.4375,395.1016 Q39.6719,394.8516 39.9375,394.8516 Q40.4063,394.8516 40.7031,395.1328 Q41,395.4141 41,396.0703 L41,397.6328 Q41,398.2891 40.7188,398.5703 Q40.4375,398.8516 40,398.8516 Q39.6094,398.8516 39.3594,398.6797 Q39.1094,398.5078 39,398.0547 Q38.9531,397.7422 38.7813,397.5703 Q38.4688,397.2422 37.9063,397.0547 Q37.3438,396.8516 36.7813,396.8516 Q36.0781,396.8516 35.4844,397.1328 Q34.9063,397.4141 34.4531,398.0391 Q34,398.6641 34,399.5234 L34,400.4453 Q34,401.4766 34.8438,402.1641 Q35.6875,402.8516 37.1875,402.8516 Q38.0781,402.8516 38.7031,402.6484 Q39.0625,402.5391 39.4688,402.1797 Q39.7344,401.9766 39.875,401.9141 Q40.0156,401.8516 40.1875,401.8516 Q40.5156,401.8516 40.75,402.1172 Q41,402.3672 41,402.7266 Q41,403.0703 40.6563,403.4766 Q40.1563,404.0703 39.3594,404.3984 Q38.3125,404.8516 37.0313,404.8516 Q35.5313,404.8516 34.3281,404.2578 Q33.3594,403.7891 32.6719,402.7734 Q32,401.7578 32,400.5547 L32,399.4609 Q32,398.2109 32.5938,397.1172 Q33.2031,396.0234 34.25,395.4453 Q35.3125,394.8516 36.5,394.8516 Q37.2188,394.8516 37.8438,395.1016 Q38.4688,395.3516 39,395.8516 Z " fill="#000000"/><text fill="#000000" font-family="sans-serif" font-size="12" font-style="italic" lengthAdjust="spacing" textLength="43" x="60" y="395.457">«entity»</text><text fill="#000000" font-family="sans-serif" font-size="14" lengthAdjust="spacing" textLength="61" x="51" y="412.627">Customer</text><line style="stroke:#181818;stroke-width:0.5;" x1="23" x2="114" y1="420.7031" y2="420.7031"/><text fill="#000000" font-family="sans-serif" font-size="14" lengthAdjust="spacing" textLength="16" x="28" y="439.2363">-id</text></g><!--MD5=[0f39e4cb6f03951afbf6d14bd2505654]
class Address--><g id="elem_Address"><rect fill="#F1F1F1" height="50.7031" id="Address" rx="2.5" ry="2.5" style="stroke:#181818;stroke-width:0.5;" width="109" x="257.5" y="558.5"/><ellipse cx="272.5" cy="579.8516" fill="#ADD1B2" rx="11" ry="11" style="stroke:#181818;stroke-width:1.0;"/><path d="M274.5,576.3516 Q274.7031,575.8516 274.9375,575.6016 Q275.1719,575.3516 275.4375,575.3516 Q275.9063,575.3516 276.2031,575.6328 Q276.5,575.9141 276.5,576.5703 L276.5,578.1328 Q276.5,578.7891 276.2188,579.0703 Q275.9375,579.3516 275.5,579.3516 Q275.1094,579.3516 274.8594,579.1797 Q274.6094,579.0078 274.5,578.5547 Q274.4531,578.2422 274.2813,578.0703 Q273.9688,577.7422 273.4063,577.5547 Q272.8438,577.3516 272.2813,577.3516 Q271.5781,577.3516 270.9844,577.6328 Q270.4063,577.9141 269.9531,578.5391 Q269.5,579.1641 269.5,580.0234 L269.5,580.9453 Q269.5,581.9766 270.3438,582.6641 Q271.1875,583.3516 272.6875,583.3516 Q273.5781,583.3516 274.2031,583.1484 Q274.5625,583.0391 274.9688,582.6797 Q275.2344,582.4766 275.375,582.4141 Q275.5156,582.3516 275.6875,582.3516 Q276.0156,582.3516 276.25,582.6172 Q276.5,582.8672 276.5,583.2266 Q276.5,583.5703 276.1563,583.9766 Q275.6563,584.5703 274.8594,584.8984 Q273.8125,585.3516 272.5313,585.3516 Q271.0313,585.3516 269.8281,584.7578 Q268.8594,584.2891 268.1719,583.2734 Q267.5,582.2578 267.5,581.0547 L267.5,579.9609 Q267.5,578.7109 268.0938,577.6172 Q268.7031,576.5234 269.75,575.9453 Q270.8125,575.3516 272,575.3516 Q272.7188,575.3516 273.3438,575.6016 Q273.9688,575.8516 274.5,576.3516 Z " fill="#000000"/><text fill="#000000" font-family="sans-serif" font-size="12" font-style="italic" lengthAdjust="spacing" textLength="81" x="284.5" y="575.957">«value object»</text><text fill="#000000" font-family="sans-serif" font-size="14" lengthAdjust="spacing" textLength="52" x="299" y="593.127">Address</text><line style="stroke:#181818;stroke-width:0.5;" x1="258.5" x2="365.5" y1="601.2031" y2="601.2031"/></g><!--MD5=[78bec0fde86ad92ec1dc3fb343b83709]
class Email--><g id="elem_Email"><rect fill="#F1F1F1" height="50.7031" id="Email" rx="2.5" ry="2.5" style="stroke:#181818;stroke-width:0.5;" width="109" x="257.5" y="472.5"/><ellipse cx="272.5" cy="493.8516" fill="#ADD1B2" rx="11" ry="11" style="stroke:#181818;stroke-width:1.0;"/><path d="M274.5,490.3516 Q274.7031,489.8516 274.9375,489.6016 Q275.1719,489.3516 275.4375,489.3516 Q275.9063,489.3516 276.2031,489.6328 Q276.5,489.9141 276.5,490.5703 L276.5,492.1328 Q276.5,492.7891 276.2188,493.0703 Q275.9375,493.3516 275.5,493.3516 Q275.1094,493.3516 274.8594,493.1797 Q274.6094,493.0078 274.5,492.5547 Q274.4531,492.2422 274.2813,492.0703 Q273.9688,491.7422 273.4063,491.5547 Q272.8438,491.3516 272.2813,491.3516 Q271.5781,491.3516 270.9844,491.6328 Q270.4063,491.9141 269.9531,492.5391 Q269.5,493.1641 269.5,494.0234 L269.5,494.9453 Q269.5,495.9766 270.3438,496.6641 Q271.1875,497.3516 272.6875,497.3516 Q273.5781,497.3516 274.2031,497.1484 Q274.5625,497.0391 274.9688,496.6797 Q275.2344,496.4766 275.375,496.4141 Q275.5156,496.3516 275.6875,496.3516 Q276.0156,496.3516 276.25,496.6172 Q276.5,496.8672 276.5,497.2266 Q276.5,497.5703 276.1563,497.9766 Q275.6563,498.5703 274.8594,498.8984 Q273.8125,499.3516 272.5313,499.3516 Q271.0313,499.3516 269.8281,498.7578 Q268.8594,498.2891 268.1719,497.2734 Q267.5,496.2578 267.5,495.0547 L267.5,493.9609 Q267.5,492.7109 268.0938,491.6172 Q268.7031,490.5234 269.75,489.9453 Q270.8125,489.3516 272,489.3516 Q272.7188,489.3516 273.3438,489.6016 Q273.9688,489.8516 274.5,490.3516 Z " fill="#000000"/><text fill="#000000" font-family="sans-serif" font-size="12" font-style="italic" lengthAdjust="spacing" textLength="81" x="284.5" y="489.957">«value object»</text><text fill="#000000" font-family="sans-serif" font-size="14" lengthAdjust="spacing" textLength="34" x="308" y="507.127">Email</text><line style="stroke:#181818;stroke-width:0.5;" x1="258.5" x2="365.5" y1="515.2031" y2="515.2031"/></g><!--MD5=[b5e265065262f4f9caf90311e5706eef]
class PhoneNumber--><g id="elem_PhoneNumber"><rect fill="#F1F1F1" height="50.7031" id="PhoneNumber" rx="2.5" ry="2.5" style="stroke:#181818;stroke-width:0.5;" width="122" x="251" y="386.5"/><ellipse cx="266" cy="407.8516" fill="#ADD1B2" rx="11" ry="11" style="stroke:#181818;stroke-width:1.0;"/><path d="M268,404.3516 Q268.2031,403.8516 268.4375,403.6016 Q268.6719,403.3516 268.9375,403.3516 Q269.4063,403.3516 269.7031,403.6328 Q270,403.9141 270,404.5703 L270,406.1328 Q270,406.7891 269.7188,407.0703 Q269.4375,407.3516 269,407.3516 Q268.6094,407.3516 268.3594,407.1797 Q268.1094,407.0078 268,406.5547 Q267.9531,406.2422 267.7813,406.0703 Q267.4688,405.7422 266.9063,405.5547 Q266.3438,405.3516 265.7813,405.3516 Q265.0781,405.3516 264.4844,405.6328 Q263.9063,405.9141 263.4531,406.5391 Q263,407.1641 263,408.0234 L263,408.9453 Q263,409.9766 263.8438,410.6641 Q264.6875,411.3516 266.1875,411.3516 Q267.0781,411.3516 267.7031,411.1484 Q268.0625,411.0391 268.4688,410.6797 Q268.7344,410.4766 268.875,410.4141 Q269.0156,410.3516 269.1875,410.3516 Q269.5156,410.3516 269.75,410.6172 Q270,410.8672 270,411.2266 Q270,411.5703 269.6563,411.9766 Q269.1563,412.5703 268.3594,412.8984 Q267.3125,413.3516 266.0313,413.3516 Q264.5313,413.3516 263.3281,412.7578 Q262.3594,412.2891 261.6719,411.2734 Q261,410.2578 261,409.0547 L261,407.9609 Q261,406.7109 261.5938,405.6172 Q262.2031,404.5234 263.25,403.9453 Q264.3125,403.3516 265.5,403.3516 Q266.2188,403.3516 266.8438,403.6016 Q267.4688,403.8516 268,404.3516 Z " fill="#000000"/><text fill="#000000" font-family="sans-serif" font-size="12" font-style="italic" lengthAdjust="spacing" textLength="81" x="284.5" y="403.957">«value object»</text><text fill="#000000" font-family="sans-serif" font-size="14" lengthAdjust="spacing" textLength="90" x="280" y="421.127">PhoneNumber</text><line style="stroke:#181818;stroke-width:0.5;" x1="252" x2="372" y1="429.2031" y2="429.2031"/></g><!--MD5=[ec957f90f125634d426aef890efece94]
class BirthDate--><g id="elem_BirthDate"><rect fill="#F1F1F1" height="50.7031" id="BirthDate" rx="2.5" ry="2.5" style="stroke:#181818;stroke-width:0.5;" width="109" x="257.5" y="300.5"/><ellipse cx="272.5" cy="321.8516" fill="#ADD1B2" rx="11" ry="11" style="stroke:#181818;stroke-width:1.0;"/><path d="M274.5,318.3516 Q274.7031,317.8516 274.9375,317.6016 Q275.1719,317.3516 275.4375,317.3516 Q275.9063,317.3516 276.2031,317.6328 Q276.5,317.9141 276.5,318.5703 L276.5,320.1328 Q276.5,320.7891 276.2188,321.0703 Q275.9375,321.3516 275.5,321.3516 Q275.1094,321.3516 274.8594,321.1797 Q274.6094,321.0078 274.5,320.5547 Q274.4531,320.2422 274.2813,320.0703 Q273.9688,319.7422 273.4063,319.5547 Q272.8438,319.3516 272.2813,319.3516 Q271.5781,319.3516 270.9844,319.6328 Q270.4063,319.9141 269.9531,320.5391 Q269.5,321.1641 269.5,322.0234 L269.5,322.9453 Q269.5,323.9766 270.3438,324.6641 Q271.1875,325.3516 272.6875,325.3516 Q273.5781,325.3516 274.2031,325.1484 Q274.5625,325.0391 274.9688,324.6797 Q275.2344,324.4766 275.375,324.4141 Q275.5156,324.3516 275.6875,324.3516 Q276.0156,324.3516 276.25,324.6172 Q276.5,324.8672 276.5,325.2266 Q276.5,325.5703 276.1563,325.9766 Q275.6563,326.5703 274.8594,326.8984 Q273.8125,327.3516 272.5313,327.3516 Q271.0313,327.3516 269.8281,326.7578 Q268.8594,326.2891 268.1719,325.2734 Q267.5,324.2578 267.5,323.0547 L267.5,321.9609 Q267.5,320.7109 268.0938,319.6172 Q268.7031,318.5234 269.75,317.9453 Q270.8125,317.3516 272,317.3516 Q272.7188,317.3516 273.3438,317.6016 Q273.9688,317.8516 274.5,318.3516 Z " fill="#000000"/><text fill="#000000" font-family="sans-serif" font-size="12" font-style="italic" lengthAdjust="spacing" textLength="81" x="284.5" y="317.957">«value object»</text><text fill="#000000" font-family="sans-serif" font-size="14" lengthAdjust="spacing" textLength="59" x="295.5" y="335.127">BirthDate</text><line style="stroke:#181818;stroke-width:0.5;" x1="258.5" x2="365.5" y1="343.2031" y2="343.2031"/></g><!--MD5=[a626601f1c08886c41476594c2573af3]
class VAT--><g id="elem_VAT"><rect fill="#F1F1F1" height="50.7031" id="VAT" rx="2.5" ry="2.5" style="stroke:#181818;stroke-width:0.5;" width="109" x="257.5" y="214.5"/><ellipse cx="272.5" cy="235.8516" fill="#ADD1B2" rx="11" ry="11" style="stroke:#181818;stroke-width:1.0;"/><path d="M274.5,232.3516 Q274.7031,231.8516 274.9375,231.6016 Q275.1719,231.3516 275.4375,231.3516 Q275.9063,231.3516 276.2031,231.6328 Q276.5,231.9141 276.5,232.5703 L276.5,234.1328 Q276.5,234.7891 276.2188,235.0703 Q275.9375,235.3516 275.5,235.3516 Q275.1094,235.3516 274.8594,235.1797 Q274.6094,235.0078 274.5,234.5547 Q274.4531,234.2422 274.2813,234.0703 Q273.9688,233.7422 273.4063,233.5547 Q272.8438,233.3516 272.2813,233.3516 Q271.5781,233.3516 270.9844,233.6328 Q270.4063,233.9141 269.9531,234.5391 Q269.5,235.1641 269.5,236.0234 L269.5,236.9453 Q269.5,237.9766 270.3438,238.6641 Q271.1875,239.3516 272.6875,239.3516 Q273.5781,239.3516 274.2031,239.1484 Q274.5625,239.0391 274.9688,238.6797 Q275.2344,238.4766 275.375,238.4141 Q275.5156,238.3516 275.6875,238.3516 Q276.0156,238.3516 276.25,238.6172 Q276.5,238.8672 276.5,239.2266 Q276.5,239.5703 276.1563,239.9766 Q275.6563,240.5703 274.8594,240.8984 Q273.8125,241.3516 272.5313,241.3516 Q271.0313,241.3516 269.8281,240.7578 Q268.8594,240.2891 268.1719,239.2734 Q267.5,238.2578 267.5,237.0547 L267.5,235.9609 Q267.5,234.7109 268.0938,233.6172 Q268.7031,232.5234 269.75,231.9453 Q270.8125,231.3516 272,231.3516 Q272.7188,231.3516 273.3438,231.6016 Q273.9688,231.8516 274.5,232.3516 Z " fill="#000000"/><text fill="#000000" font-family="sans-serif" font-size="12" font-style="italic" lengthAdjust="spacing" textLength="81" x="284.5" y="231.957">«value object»</text><text fill="#000000" font-family="sans-serif" font-size="14" lengthAdjust="spacing" textLength="27" x="311.5" y="249.127">VAT</text><line style="stroke:#181818;stroke-width:0.5;" x1="258.5" x2="365.5" y1="257.2031" y2="257.2031"/></g><!--MD5=[53f6a92bd21ca2f2960392a061f3a1c6]
class Name--><g id="elem_Name"><rect fill="#F1F1F1" height="50.7031" id="Name" rx="2.5" ry="2.5" style="stroke:#181818;stroke-width:0.5;" width="109" x="257.5" y="128.5"/><ellipse cx="272.5" cy="149.8516" fill="#ADD1B2" rx="11" ry="11" style="stroke:#181818;stroke-width:1.0;"/><path d="M274.5,146.3516 Q274.7031,145.8516 274.9375,145.6016 Q275.1719,145.3516 275.4375,145.3516 Q275.9063,145.3516 276.2031,145.6328 Q276.5,145.9141 276.5,146.5703 L276.5,148.1328 Q276.5,148.7891 276.2188,149.0703 Q275.9375,149.3516 275.5,149.3516 Q275.1094,149.3516 274.8594,149.1797 Q274.6094,149.0078 274.5,148.5547 Q274.4531,148.2422 274.2813,148.0703 Q273.9688,147.7422 273.4063,147.5547 Q272.8438,147.3516 272.2813,147.3516 Q271.5781,147.3516 270.9844,147.6328 Q270.4063,147.9141 269.9531,148.5391 Q269.5,149.1641 269.5,150.0234 L269.5,150.9453 Q269.5,151.9766 270.3438,152.6641 Q271.1875,153.3516 272.6875,153.3516 Q273.5781,153.3516 274.2031,153.1484 Q274.5625,153.0391 274.9688,152.6797 Q275.2344,152.4766 275.375,152.4141 Q275.5156,152.3516 275.6875,152.3516 Q276.0156,152.3516 276.25,152.6172 Q276.5,152.8672 276.5,153.2266 Q276.5,153.5703 276.1563,153.9766 Q275.6563,154.5703 274.8594,154.8984 Q273.8125,155.3516 272.5313,155.3516 Q271.0313,155.3516 269.8281,154.7578 Q268.8594,154.2891 268.1719,153.2734 Q267.5,152.2578 267.5,151.0547 L267.5,149.9609 Q267.5,148.7109 268.0938,147.6172 Q268.7031,146.5234 269.75,145.9453 Q270.8125,145.3516 272,145.3516 Q272.7188,145.3516 273.3438,145.6016 Q273.9688,145.8516 274.5,146.3516 Z " fill="#000000"/><text fill="#000000" font-family="sans-serif" font-size="12" font-style="italic" lengthAdjust="spacing" textLength="81" x="284.5" y="145.957">«value object»</text><text fill="#000000" font-family="sans-serif" font-size="14" lengthAdjust="spacing" textLength="36" x="307" y="163.127">Name</text><line style="stroke:#181818;stroke-width:0.5;" x1="258.5" x2="365.5" y1="171.2031" y2="171.2031"/></g><!--MD5=[a4ea2dcb44ebd57046df9af95d8b8c12]
class Gender--><g id="elem_Gender"><rect fill="#F1F1F1" height="50.7031" id="Gender" rx="2.5" ry="2.5" style="stroke:#181818;stroke-width:0.5;" width="109" x="257.5" y="42.5"/><ellipse cx="272.5" cy="63.8516" fill="#ADD1B2" rx="11" ry="11" style="stroke:#181818;stroke-width:1.0;"/><path d="M274.5,60.3516 Q274.7031,59.8516 274.9375,59.6016 Q275.1719,59.3516 275.4375,59.3516 Q275.9063,59.3516 276.2031,59.6328 Q276.5,59.9141 276.5,60.5703 L276.5,62.1328 Q276.5,62.7891 276.2188,63.0703 Q275.9375,63.3516 275.5,63.3516 Q275.1094,63.3516 274.8594,63.1797 Q274.6094,63.0078 274.5,62.5547 Q274.4531,62.2422 274.2813,62.0703 Q273.9688,61.7422 273.4063,61.5547 Q272.8438,61.3516 272.2813,61.3516 Q271.5781,61.3516 270.9844,61.6328 Q270.4063,61.9141 269.9531,62.5391 Q269.5,63.1641 269.5,64.0234 L269.5,64.9453 Q269.5,65.9766 270.3438,66.6641 Q271.1875,67.3516 272.6875,67.3516 Q273.5781,67.3516 274.2031,67.1484 Q274.5625,67.0391 274.9688,66.6797 Q275.2344,66.4766 275.375,66.4141 Q275.5156,66.3516 275.6875,66.3516 Q276.0156,66.3516 276.25,66.6172 Q276.5,66.8672 276.5,67.2266 Q276.5,67.5703 276.1563,67.9766 Q275.6563,68.5703 274.8594,68.8984 Q273.8125,69.3516 272.5313,69.3516 Q271.0313,69.3516 269.8281,68.7578 Q268.8594,68.2891 268.1719,67.2734 Q267.5,66.2578 267.5,65.0547 L267.5,63.9609 Q267.5,62.7109 268.0938,61.6172 Q268.7031,60.5234 269.75,59.9453 Q270.8125,59.3516 272,59.3516 Q272.7188,59.3516 273.3438,59.6016 Q273.9688,59.8516 274.5,60.3516 Z " fill="#000000"/><text fill="#000000" font-family="sans-serif" font-size="12" font-style="italic" lengthAdjust="spacing" textLength="81" x="284.5" y="59.957">«value object»</text><text fill="#000000" font-family="sans-serif" font-size="14" lengthAdjust="spacing" textLength="48" x="301" y="77.127">Gender</text><line style="stroke:#181818;stroke-width:0.5;" x1="258.5" x2="365.5" y1="85.2031" y2="85.2031"/></g><!--MD5=[08f5806e336f712cdf08037e9415a76d]
link Survey to Section--><g id="link_Survey_Section"><path codeLine="38" d="M376.03,777.32 C393.83,785.88 413.41,795.3 432,804.24 " fill="none" id="Survey-to-Section" style="stroke:#181818;stroke-width:1.0;"/><polygon fill="#181818" points="436.7,806.5,430.3133,799.0026,432.1913,804.3387,426.8552,806.2166,436.7,806.5" style="stroke:#181818;stroke-width:1.0;"/><text fill="#000000" font-family="sans-serif" font-size="13" lengthAdjust="spacing" textLength="7" x="421.9923" y="817.3177">1</text></g><!--MD5=[0b4debe2092e88b167a50a5f1b002e59]
link Survey to Description--><g id="link_Survey_Description"><path codeLine="39" d="M376.03,735.83 C400.27,731.53 427.83,726.65 451.66,722.43 " fill="none" id="Survey-to-Description" style="stroke:#181818;stroke-width:1.0;"/><polygon fill="#181818" points="456.69,721.54,447.1298,719.1729,451.7668,722.413,448.5267,727.05,456.69,721.54" style="stroke:#181818;stroke-width:1.0;"/><text fill="#000000" font-family="sans-serif" font-size="13" lengthAdjust="spacing" textLength="7" x="441.8546" y="737.4356">1</text></g><!--MD5=[87fa8ff7d398728728a611d860795352]
link Section to Question--><g id="link_Section_Question"><path codeLine="40" d="M586.26,842 C604.63,842 624.08,842 641.62,842 " fill="none" id="Section-to-Question" style="stroke:#181818;stroke-width:1.0;"/><polygon fill="#181818" points="647,842,638,838,642,842,638,846,647,842" style="stroke:#181818;stroke-width:1.0;"/><text fill="#000000" font-family="sans-serif" font-size="13" lengthAdjust="spacing" textLength="5" x="633.9844" y="856.6657">*</text></g><!--MD5=[5223b9d5b11a375b91dc7002562bff5a]
link Customer to Survey--><g id="link_Customer_Survey"><path codeLine="58" d="M83.39,446.14 C96.97,477.73 119.31,525.35 145,563 C175.19,607.24 215.28,651.97 248.5,686.25 " fill="none" id="Customer-Survey" style="stroke:#181818;stroke-width:1.0;"/><polygon fill="#000000" points="160.333,558.2957,157.6297,549.1775,152.7864,552.5079,160.333,558.2957" style="stroke:#000000;stroke-width:1.0;"/><text fill="#000000" font-family="sans-serif" font-size="13" lengthAdjust="spacing" textLength="41" x="166.5" y="559.4951">answer</text><text fill="#000000" font-family="sans-serif" font-size="13" lengthAdjust="spacing" textLength="5" x="80.8293" y="467.9353">*</text><text fill="#000000" font-family="sans-serif" font-size="13" lengthAdjust="spacing" textLength="5" x="235.8688" y="675.8081">*</text></g><!--MD5=[41ddd6a26ec716242e0269678b7a823f]
link Customer to SurveyAnswer--><g id="link_Customer_SurveyAnswer"><path codeLine="59" d="M75.5,446.09 C91.32,530.98 138.89,757.27 224,928 C234.33,948.72 248.07,969.75 261.58,988.33 " fill="none" id="Customer-SurveyAnswer" style="stroke:#181818;stroke-width:1.0;"/><polygon fill="#000000" points="151.6229,731.9051,151.4668,722.3958,145.9072,724.3037,151.6229,731.9051" style="stroke:#000000;stroke-width:1.0;"/><text fill="#000000" font-family="sans-serif" font-size="13" lengthAdjust="spacing" textLength="56" x="159" y="732.4951">originates</text><text fill="#000000" font-family="sans-serif" font-size="13" lengthAdjust="spacing" textLength="5" x="71.3859" y="467.8754">*</text><text fill="#000000" font-family="sans-serif" font-size="13" lengthAdjust="spacing" textLength="5" x="250.1304" y="977.4688">*</text></g><!--MD5=[d37020313d60b0dc9e19f240715ef155]
link Customer to Email--><g id="link_Customer_Email"><path codeLine="60" d="M115.21,428.28 C154.18,442.16 210.44,462.19 252.66,477.22 " fill="none" id="Customer-to-Email" style="stroke:#181818;stroke-width:1.0;"/><polygon fill="#181818" points="257.47,478.94,250.324,472.1625,252.7574,477.2692,247.6507,479.7026,257.47,478.94" style="stroke:#181818;stroke-width:1.0;"/><text fill="#000000" font-family="sans-serif" font-size="13" lengthAdjust="spacing" textLength="7" x="242.6722" y="490.9925">1</text></g><!--MD5=[e21c05835871e6a5cb5a81425ddc1343]
link Customer to VAT--><g id="link_Customer_VAT"><path codeLine="61" d="M105.35,377.85 C135.5,350.19 180.52,311.32 224,283 C233.06,277.1 243.04,271.45 252.92,266.31 " fill="none" id="Customer-to-VAT" style="stroke:#181818;stroke-width:1.0;"/><polygon fill="#181818" points="257.45,263.98,247.6171,264.5404,253.0039,266.2674,251.2769,271.6542,257.45,263.98" style="stroke:#181818;stroke-width:1.0;"/><text fill="#000000" font-family="sans-serif" font-size="13" lengthAdjust="spacing" textLength="7" x="242.6495" y="281.816">1</text></g><!--MD5=[fd4380d65360519d48eed8286565e90d]
link Customer to PhoneNumber--><g id="link_Customer_PhoneNumber"><path codeLine="62" d="M115.21,412 C152.06,412 204.35,412 245.63,412 " fill="none" id="Customer-to-PhoneNumber" style="stroke:#181818;stroke-width:1.0;"/><polygon fill="#181818" points="250.86,412,241.86,408,245.86,412,241.86,416,250.86,412" style="stroke:#181818;stroke-width:1.0;"/><text fill="#000000" font-family="sans-serif" font-size="13" lengthAdjust="spacing" textLength="7" x="235.982" y="426.5096">1</text></g><!--MD5=[0a8270db3671c85e503ce247627dc826]
link Customer to Name--><g id="link_Customer_Name"><path codeLine="63" d="M87.04,377.86 C112.13,331.79 162.13,249.47 224,197 C232.58,189.72 242.6,183.32 252.73,177.82 " fill="none" id="Customer-to-Name" style="stroke:#181818;stroke-width:1.0;"/><polygon fill="#181818" points="257.39,175.36,247.5642,176.0329,252.9704,177.6981,251.3052,183.1043,257.39,175.36" style="stroke:#181818;stroke-width:1.0;"/><text fill="#000000" font-family="sans-serif" font-size="13" lengthAdjust="spacing" textLength="7" x="242.5815" y="192.8439">1</text></g><!--MD5=[cf5567b3002e4b9a664bc30512620907]
link Customer to Gender--><g id="link_Customer_Gender"><path codeLine="64" d="M78.34,377.68 C95.9,315.99 140.85,185.88 224,111 C232.54,103.31 242.72,96.66 253.04,91.04 " fill="none" id="Customer-to-Gender" style="stroke:#181818;stroke-width:1.0;"/><polygon fill="#181818" points="257.47,88.7,247.6442,89.3729,253.0504,91.0381,251.3852,96.4443,257.47,88.7" style="stroke:#181818;stroke-width:1.0;"/><text fill="#000000" font-family="sans-serif" font-size="13" lengthAdjust="spacing" textLength="7" x="242.6722" y="106.0952">1</text></g><!--MD5=[dd71b66119cfb2fca85bcf00459bd34f]
link Customer to BirthDate--><g id="link_Customer_BirthDate"><path codeLine="65" d="M115.21,395.72 C154.18,381.84 210.44,361.81 252.66,346.78 " fill="none" id="Customer-to-BirthDate" style="stroke:#181818;stroke-width:1.0;"/><polygon fill="#181818" points="257.47,345.06,247.6507,344.2974,252.7574,346.7308,250.324,351.8375,257.47,345.06" style="stroke:#181818;stroke-width:1.0;"/><text fill="#000000" font-family="sans-serif" font-size="13" lengthAdjust="spacing" textLength="22" x="227.4835" y="361.8926">0..1</text></g><!--MD5=[9d267913275094cee8b213adaba16fc1]
link Customer to Address--><g id="link_Customer_Address"><path codeLine="66" d="M100.01,446.18 C113.22,460.15 129.24,476.03 145,489 C177.45,515.71 187.53,520.09 224,541 C234.52,547.03 246.01,553.07 257.08,558.64 " fill="none" id="Customer-Address" style="stroke:#181818;stroke-width:1.0;"/><polygon fill="#000000" points="154.0654,483.0865,148.4219,475.4313,145.0001,480.2105,154.0654,483.0865" style="stroke:#000000;stroke-width:1.0;"/><text fill="#000000" font-family="sans-serif" font-size="13" lengthAdjust="spacing" textLength="56" x="159" y="485.4951">residence</text><text fill="#000000" font-family="sans-serif" font-size="13" lengthAdjust="spacing" textLength="7" x="98.3494" y="467.7194">1</text><text fill="#000000" font-family="sans-serif" font-size="13" lengthAdjust="spacing" textLength="5" x="244.3642" y="569.8459">*</text></g><!--MD5=[68e75ca74472c20d0400743a76536126]
@startuml
hide methods
left to right direction
skinparam classAttributeIconSize 0

package "survey"{
class Survey{
-id
-final_date
-title
-welcomeMessage
}

class Section{
-section_id
-section_identification
-section_description
-obligatoriness
-condition
}

Survey <<entity>>
Section <<entity>>
Description <<value object>>
Question <<value object>>
}

package "surveyAnswer"{
SurveyAnswer <<entity>>

class SurveyAnswer{
-surveyAnswer_id
-customer
-survey
-answers
}
}

Survey  - -> "1" Section
Survey  - -> "1" Description
Section - -> "*" Question

package "customer"{
class Customer{
-id
}


Customer <<entity>>
Address <<value object>>
Email <<value object>>
PhoneNumber <<value object>>
BirthDate <<value object>>
VAT <<value object>>
Name <<value object>>
Gender <<value object>>
}

Customer "*" - - "*" Survey : answer >
Customer "*" - - "*" SurveyAnswer : originates >
Customer  - -> "1" Email
Customer  - -> "1" VAT
Customer  - -> "1" PhoneNumber
Customer  - -> "1" Name
Customer  - -> "1" Gender
Customer  - -> "0..1" BirthDate
Customer "1" - - "*" Address : residence >
@enduml

PlantUML version 1.2022.4(Sat Apr 09 14:29:17 BST 2022)
(GPL source distribution)
Java Runtime: OpenJDK Runtime Environment
JVM: OpenJDK 64-Bit Server VM
Default Encoding: Cp1252
Language: pt
Country: PT
--></g></svg>