<?xml version="1.0" encoding="UTF-8" standalone="no"?><svg xmlns="http://www.w3.org/2000/svg" xmlns:xlink="http://www.w3.org/1999/xlink" contentStyleType="text/css" height="1048px" preserveAspectRatio="none" style="width:763px;height:1048px;background:#FFFFFF;" version="1.1" viewBox="0 0 763 1048" width="763px" zoomAndPan="magnify"><defs/><g><!--MD5=[8fd473fd151a2794da4f2c8684676405]
cluster Presentation--><g id="cluster_Presentation"><path d="M377.5,6 L468.5,6 A3.75,3.75 0 0 1 471,8.5 L478,29.6094 L526.5,29.6094 A2.5,2.5 0 0 1 529,32.1094 L529,121.5 A2.5,2.5 0 0 1 526.5,124 L377.5,124 A2.5,2.5 0 0 1 375,121.5 L375,8.5 A2.5,2.5 0 0 1 377.5,6 " style="stroke:#000000;stroke-width:1.5;fill:none;"/><line style="stroke:#000000;stroke-width:1.5;fill:none;" x1="375" x2="478" y1="29.6094" y2="29.6094"/><text fill="#000000" font-family="sans-serif" font-size="14" font-weight="bold" lengthAdjust="spacing" textLength="90" x="379" y="22.5332">Presentation</text></g><!--MD5=[d64883541e3d62e3241c4d12decf100d]
cluster Application--><g id="cluster_Application"><path d="M211.5,148 L290.5,148 A3.75,3.75 0 0 1 293,150.5 L300,171.6094 L506.5,171.6094 A2.5,2.5 0 0 1 509,174.1094 L509,315.5 A2.5,2.5 0 0 1 506.5,318 L211.5,318 A2.5,2.5 0 0 1 209,315.5 L209,150.5 A2.5,2.5 0 0 1 211.5,148 " style="stroke:#000000;stroke-width:1.5;fill:none;"/><line style="stroke:#000000;stroke-width:1.5;fill:none;" x1="209" x2="300" y1="171.6094" y2="171.6094"/><text fill="#000000" font-family="sans-serif" font-size="14" font-weight="bold" lengthAdjust="spacing" textLength="78" x="213" y="164.5332">Application</text></g><!--MD5=[121a8bf1197281ab89ed693fab589f94]
cluster Domain--><g id="cluster_Domain"><path d="M8.5,396 L61.5,396 A3.75,3.75 0 0 1 64,398.5 L71,419.6094 L240.5,419.6094 A2.5,2.5 0 0 1 243,422.1094 L243,844.5 A2.5,2.5 0 0 1 240.5,847 L8.5,847 A2.5,2.5 0 0 1 6,844.5 L6,398.5 A2.5,2.5 0 0 1 8.5,396 " style="stroke:#000000;stroke-width:1.5;fill:none;"/><line style="stroke:#000000;stroke-width:1.5;fill:none;" x1="6" x2="71" y1="419.6094" y2="419.6094"/><text fill="#000000" font-family="sans-serif" font-size="14" font-weight="bold" lengthAdjust="spacing" textLength="52" x="10" y="412.5332">Domain</text></g><!--MD5=[bc6b40dadbf86ab6a0c8405a467a48af]
cluster Persistence--><g id="cluster_Persistence"><path d="M269.5,387 L354.5,387 A3.75,3.75 0 0 1 357,389.5 L364,410.6094 L450.5,410.6094 A2.5,2.5 0 0 1 453,413.1094 L453,502.5 A2.5,2.5 0 0 1 450.5,505 L269.5,505 A2.5,2.5 0 0 1 267,502.5 L267,389.5 A2.5,2.5 0 0 1 269.5,387 " style="stroke:#000000;stroke-width:1.5;fill:none;"/><line style="stroke:#000000;stroke-width:1.5;fill:none;" x1="267" x2="364" y1="410.6094" y2="410.6094"/><text fill="#000000" font-family="sans-serif" font-size="14" font-weight="bold" lengthAdjust="spacing" textLength="84" x="271" y="403.5332">Persistence</text></g><!--MD5=[0d5799440b3bfefd92b00abfcd2c79b9]
cluster Factory--><g id="cluster_Factory"><path d="M272.5,621 L325.5,621 A3.75,3.75 0 0 1 328,623.5 L335,644.6094 L447.5,644.6094 A2.5,2.5 0 0 1 450,647.1094 L450,736.5 A2.5,2.5 0 0 1 447.5,739 L272.5,739 A2.5,2.5 0 0 1 270,736.5 L270,623.5 A2.5,2.5 0 0 1 272.5,621 " style="stroke:#000000;stroke-width:1.5;fill:none;"/><line style="stroke:#000000;stroke-width:1.5;fill:none;" x1="270" x2="335" y1="644.6094" y2="644.6094"/><text fill="#000000" font-family="sans-serif" font-size="14" font-weight="bold" lengthAdjust="spacing" textLength="52" x="274" y="637.5332">Factory</text></g><!--MD5=[7b8bc9ee8bb84b99fb3a3f9477c19238]
cluster DTO--><g id="cluster_DTO"><path d="M479.5,396 L509.5,396 A3.75,3.75 0 0 1 512,398.5 L519,419.6094 L612.5,419.6094 A2.5,2.5 0 0 1 615,422.1094 L615,493.5 A2.5,2.5 0 0 1 612.5,496 L479.5,496 A2.5,2.5 0 0 1 477,493.5 L477,398.5 A2.5,2.5 0 0 1 479.5,396 " style="stroke:#000000;stroke-width:1.5;fill:none;"/><line style="stroke:#000000;stroke-width:1.5;fill:none;" x1="477" x2="519" y1="419.6094" y2="419.6094"/><text fill="#000000" font-family="sans-serif" font-size="14" font-weight="bold" lengthAdjust="spacing" textLength="29" x="481" y="412.5332">DTO</text></g><!--MD5=[71971f99a41bb66cf321ce46bb59f738]
cluster Repository--><g id="cluster_Repository"><path d="M43.5,871 L120.5,871 A3.75,3.75 0 0 1 123,873.5 L130,894.6094 L753.5,894.6094 A2.5,2.5 0 0 1 756,897.1094 L756,1038.5 A2.5,2.5 0 0 1 753.5,1041 L43.5,1041 A2.5,2.5 0 0 1 41,1038.5 L41,873.5 A2.5,2.5 0 0 1 43.5,871 " style="stroke:#000000;stroke-width:1.5;fill:none;"/><line style="stroke:#000000;stroke-width:1.5;fill:none;" x1="41" x2="130" y1="894.6094" y2="894.6094"/><text fill="#000000" font-family="sans-serif" font-size="14" font-weight="bold" lengthAdjust="spacing" textLength="76" x="45" y="887.5332">Repository</text></g><!--MD5=[a9932b28fc588a8b49b0f4d4cd4bc680]
class ShowReportUI--><g id="elem_ShowReportUI"><rect codeLine="4" fill="#F1F1F1" height="65.6094" id="ShowReportUI" rx="2.5" ry="2.5" style="stroke:#181818;stroke-width:0.5;" width="121" x="391.5" y="42"/><ellipse cx="406.5" cy="58" fill="#ADD1B2" rx="11" ry="11" style="stroke:#181818;stroke-width:1.0;"/><path d="M408.5,54.5 Q408.7031,54 408.9375,53.75 Q409.1719,53.5 409.4375,53.5 Q409.9063,53.5 410.2031,53.7813 Q410.5,54.0625 410.5,54.7188 L410.5,56.2813 Q410.5,56.9375 410.2188,57.2188 Q409.9375,57.5 409.5,57.5 Q409.1094,57.5 408.8594,57.3281 Q408.6094,57.1563 408.5,56.7031 Q408.4531,56.3906 408.2813,56.2188 Q407.9688,55.8906 407.4063,55.7031 Q406.8438,55.5 406.2813,55.5 Q405.5781,55.5 404.9844,55.7813 Q404.4063,56.0625 403.9531,56.6875 Q403.5,57.3125 403.5,58.1719 L403.5,59.0938 Q403.5,60.125 404.3438,60.8125 Q405.1875,61.5 406.6875,61.5 Q407.5781,61.5 408.2031,61.2969 Q408.5625,61.1875 408.9688,60.8281 Q409.2344,60.625 409.375,60.5625 Q409.5156,60.5 409.6875,60.5 Q410.0156,60.5 410.25,60.7656 Q410.5,61.0156 410.5,61.375 Q410.5,61.7188 410.1563,62.125 Q409.6563,62.7188 408.8594,63.0469 Q407.8125,63.5 406.5313,63.5 Q405.0313,63.5 403.8281,62.9063 Q402.8594,62.4375 402.1719,61.4219 Q401.5,60.4063 401.5,59.2031 L401.5,58.1094 Q401.5,56.8594 402.0938,55.7656 Q402.7031,54.6719 403.75,54.0938 Q404.8125,53.5 406,53.5 Q406.7188,53.5 407.3438,53.75 Q407.9688,54 408.5,54.5 Z " fill="#000000"/><text fill="#000000" font-family="sans-serif" font-size="14" lengthAdjust="spacing" textLength="89" x="420.5" y="63.7285">ShowReportUI</text><line style="stroke:#181818;stroke-width:0.5;" x1="392.5" x2="511.5" y1="74" y2="74"/><line style="stroke:#181818;stroke-width:0.5;" x1="392.5" x2="511.5" y1="82" y2="82"/><text fill="#000000" font-family="sans-serif" font-size="14" lengthAdjust="spacing" textLength="68" x="397.5" y="100.5332">+doShow()</text></g><!--MD5=[66fd035b7d338fddc564c90e5d48c7a4]
class ShowReportController--><g id="elem_ShowReportController"><rect codeLine="10" fill="#F1F1F1" height="118.4375" id="ShowReportController" rx="2.5" ry="2.5" style="stroke:#181818;stroke-width:0.5;" width="268" x="225" y="184"/><ellipse cx="285.25" cy="200" fill="#ADD1B2" rx="11" ry="11" style="stroke:#181818;stroke-width:1.0;"/><path d="M287.25,196.5 Q287.4531,196 287.6875,195.75 Q287.9219,195.5 288.1875,195.5 Q288.6563,195.5 288.9531,195.7813 Q289.25,196.0625 289.25,196.7188 L289.25,198.2813 Q289.25,198.9375 288.9688,199.2188 Q288.6875,199.5 288.25,199.5 Q287.8594,199.5 287.6094,199.3281 Q287.3594,199.1563 287.25,198.7031 Q287.2031,198.3906 287.0313,198.2188 Q286.7188,197.8906 286.1563,197.7031 Q285.5938,197.5 285.0313,197.5 Q284.3281,197.5 283.7344,197.7813 Q283.1563,198.0625 282.7031,198.6875 Q282.25,199.3125 282.25,200.1719 L282.25,201.0938 Q282.25,202.125 283.0938,202.8125 Q283.9375,203.5 285.4375,203.5 Q286.3281,203.5 286.9531,203.2969 Q287.3125,203.1875 287.7188,202.8281 Q287.9844,202.625 288.125,202.5625 Q288.2656,202.5 288.4375,202.5 Q288.7656,202.5 289,202.7656 Q289.25,203.0156 289.25,203.375 Q289.25,203.7188 288.9063,204.125 Q288.4063,204.7188 287.6094,205.0469 Q286.5625,205.5 285.2813,205.5 Q283.7813,205.5 282.5781,204.9063 Q281.6094,204.4375 280.9219,203.4219 Q280.25,202.4063 280.25,201.2031 L280.25,200.1094 Q280.25,198.8594 280.8438,197.7656 Q281.4531,196.6719 282.5,196.0938 Q283.5625,195.5 284.75,195.5 Q285.4688,195.5 286.0938,195.75 Q286.7188,196 287.25,196.5 Z " fill="#000000"/><text fill="#000000" font-family="sans-serif" font-size="14" lengthAdjust="spacing" textLength="139" x="305.75" y="205.7285">ShowReportController</text><line style="stroke:#181818;stroke-width:0.5;" x1="226" x2="492" y1="216" y2="216"/><line style="stroke:#181818;stroke-width:0.5;" x1="226" x2="492" y1="224" y2="224"/><text fill="#000000" font-family="sans-serif" font-size="14" lengthAdjust="spacing" textLength="152" x="231" y="242.5332">-toDto(List&lt;Survey&gt; list)</text><text fill="#000000" font-family="sans-serif" font-size="14" lengthAdjust="spacing" textLength="104" x="231" y="260.1426">+getSurveyList()</text><text fill="#000000" font-family="sans-serif" font-size="14" lengthAdjust="spacing" textLength="256" x="231" y="277.752">+getCommonInformation(long survey_id)</text><text fill="#000000" font-family="sans-serif" font-size="14" lengthAdjust="spacing" textLength="118" x="231" y="295.3613">+getQuestionInfo()</text></g><!--MD5=[2ce0c9fb7f55b1e256ab28a8ea6b25ec]
class Customer--><g id="elem_Customer"><rect codeLine="21" fill="#F1F1F1" height="48" id="Customer" rx="2.5" ry="2.5" style="stroke:#181818;stroke-width:0.5;" width="93" x="133.5" y="549"/><ellipse cx="148.5" cy="565" fill="#ADD1B2" rx="11" ry="11" style="stroke:#181818;stroke-width:1.0;"/><path d="M150.5,561.5 Q150.7031,561 150.9375,560.75 Q151.1719,560.5 151.4375,560.5 Q151.9063,560.5 152.2031,560.7813 Q152.5,561.0625 152.5,561.7188 L152.5,563.2813 Q152.5,563.9375 152.2188,564.2188 Q151.9375,564.5 151.5,564.5 Q151.1094,564.5 150.8594,564.3281 Q150.6094,564.1563 150.5,563.7031 Q150.4531,563.3906 150.2813,563.2188 Q149.9688,562.8906 149.4063,562.7031 Q148.8438,562.5 148.2813,562.5 Q147.5781,562.5 146.9844,562.7813 Q146.4063,563.0625 145.9531,563.6875 Q145.5,564.3125 145.5,565.1719 L145.5,566.0938 Q145.5,567.125 146.3438,567.8125 Q147.1875,568.5 148.6875,568.5 Q149.5781,568.5 150.2031,568.2969 Q150.5625,568.1875 150.9688,567.8281 Q151.2344,567.625 151.375,567.5625 Q151.5156,567.5 151.6875,567.5 Q152.0156,567.5 152.25,567.7656 Q152.5,568.0156 152.5,568.375 Q152.5,568.7188 152.1563,569.125 Q151.6563,569.7188 150.8594,570.0469 Q149.8125,570.5 148.5313,570.5 Q147.0313,570.5 145.8281,569.9063 Q144.8594,569.4375 144.1719,568.4219 Q143.5,567.4063 143.5,566.2031 L143.5,565.1094 Q143.5,563.8594 144.0938,562.7656 Q144.7031,561.6719 145.75,561.0938 Q146.8125,560.5 148,560.5 Q148.7188,560.5 149.3438,560.75 Q149.9688,561 150.5,561.5 Z " fill="#000000"/><text fill="#000000" font-family="sans-serif" font-size="14" lengthAdjust="spacing" textLength="61" x="162.5" y="570.7285">Customer</text><line style="stroke:#181818;stroke-width:0.5;" x1="134.5" x2="225.5" y1="581" y2="581"/><line style="stroke:#181818;stroke-width:0.5;" x1="134.5" x2="225.5" y1="589" y2="589"/></g><!--MD5=[3145b4be7c5005b24cda6f18a1d594b0]
class Survey--><g id="elem_Survey"><rect codeLine="22" fill="#F1F1F1" height="48" id="Survey" rx="2.5" ry="2.5" style="stroke:#181818;stroke-width:0.5;" width="76" x="22" y="549"/><ellipse cx="37" cy="565" fill="#ADD1B2" rx="11" ry="11" style="stroke:#181818;stroke-width:1.0;"/><path d="M39,561.5 Q39.2031,561 39.4375,560.75 Q39.6719,560.5 39.9375,560.5 Q40.4063,560.5 40.7031,560.7813 Q41,561.0625 41,561.7188 L41,563.2813 Q41,563.9375 40.7188,564.2188 Q40.4375,564.5 40,564.5 Q39.6094,564.5 39.3594,564.3281 Q39.1094,564.1563 39,563.7031 Q38.9531,563.3906 38.7813,563.2188 Q38.4688,562.8906 37.9063,562.7031 Q37.3438,562.5 36.7813,562.5 Q36.0781,562.5 35.4844,562.7813 Q34.9063,563.0625 34.4531,563.6875 Q34,564.3125 34,565.1719 L34,566.0938 Q34,567.125 34.8438,567.8125 Q35.6875,568.5 37.1875,568.5 Q38.0781,568.5 38.7031,568.2969 Q39.0625,568.1875 39.4688,567.8281 Q39.7344,567.625 39.875,567.5625 Q40.0156,567.5 40.1875,567.5 Q40.5156,567.5 40.75,567.7656 Q41,568.0156 41,568.375 Q41,568.7188 40.6563,569.125 Q40.1563,569.7188 39.3594,570.0469 Q38.3125,570.5 37.0313,570.5 Q35.5313,570.5 34.3281,569.9063 Q33.3594,569.4375 32.6719,568.4219 Q32,567.4063 32,566.2031 L32,565.1094 Q32,563.8594 32.5938,562.7656 Q33.2031,561.6719 34.25,561.0938 Q35.3125,560.5 36.5,560.5 Q37.2188,560.5 37.8438,560.75 Q38.4688,561 39,561.5 Z " fill="#000000"/><text fill="#000000" font-family="sans-serif" font-size="14" lengthAdjust="spacing" textLength="44" x="51" y="570.7285">Survey</text><line style="stroke:#181818;stroke-width:0.5;" x1="23" x2="97" y1="581" y2="581"/><line style="stroke:#181818;stroke-width:0.5;" x1="23" x2="97" y1="589" y2="589"/></g><!--MD5=[fc7123defb831ecdd44b2d9bcef6cceb]
class Question--><g id="elem_Question"><rect codeLine="23" fill="#F1F1F1" height="48" id="Question" rx="2.5" ry="2.5" style="stroke:#181818;stroke-width:0.5;" width="89" x="22.5" y="783"/><ellipse cx="37.5" cy="799" fill="#ADD1B2" rx="11" ry="11" style="stroke:#181818;stroke-width:1.0;"/><path d="M39.5,795.5 Q39.7031,795 39.9375,794.75 Q40.1719,794.5 40.4375,794.5 Q40.9063,794.5 41.2031,794.7813 Q41.5,795.0625 41.5,795.7188 L41.5,797.2813 Q41.5,797.9375 41.2188,798.2188 Q40.9375,798.5 40.5,798.5 Q40.1094,798.5 39.8594,798.3281 Q39.6094,798.1563 39.5,797.7031 Q39.4531,797.3906 39.2813,797.2188 Q38.9688,796.8906 38.4063,796.7031 Q37.8438,796.5 37.2813,796.5 Q36.5781,796.5 35.9844,796.7813 Q35.4063,797.0625 34.9531,797.6875 Q34.5,798.3125 34.5,799.1719 L34.5,800.0938 Q34.5,801.125 35.3438,801.8125 Q36.1875,802.5 37.6875,802.5 Q38.5781,802.5 39.2031,802.2969 Q39.5625,802.1875 39.9688,801.8281 Q40.2344,801.625 40.375,801.5625 Q40.5156,801.5 40.6875,801.5 Q41.0156,801.5 41.25,801.7656 Q41.5,802.0156 41.5,802.375 Q41.5,802.7188 41.1563,803.125 Q40.6563,803.7188 39.8594,804.0469 Q38.8125,804.5 37.5313,804.5 Q36.0313,804.5 34.8281,803.9063 Q33.8594,803.4375 33.1719,802.4219 Q32.5,801.4063 32.5,800.2031 L32.5,799.1094 Q32.5,797.8594 33.0938,796.7656 Q33.7031,795.6719 34.75,795.0938 Q35.8125,794.5 37,794.5 Q37.7188,794.5 38.3438,794.75 Q38.9688,795 39.5,795.5 Z " fill="#000000"/><text fill="#000000" font-family="sans-serif" font-size="14" lengthAdjust="spacing" textLength="57" x="51.5" y="804.7285">Question</text><line style="stroke:#181818;stroke-width:0.5;" x1="23.5" x2="110.5" y1="815" y2="815"/><line style="stroke:#181818;stroke-width:0.5;" x1="23.5" x2="110.5" y1="823" y2="823"/></g><!--MD5=[da68ba2bac56787cc978c52098ea326b]
class SurveyAnswer--><g id="elem_SurveyAnswer"><rect codeLine="24" fill="#F1F1F1" height="48" id="SurveyAnswer" rx="2.5" ry="2.5" style="stroke:#181818;stroke-width:0.5;" width="122" x="105" y="432"/><ellipse cx="120" cy="448" fill="#ADD1B2" rx="11" ry="11" style="stroke:#181818;stroke-width:1.0;"/><path d="M122,444.5 Q122.2031,444 122.4375,443.75 Q122.6719,443.5 122.9375,443.5 Q123.4063,443.5 123.7031,443.7813 Q124,444.0625 124,444.7188 L124,446.2813 Q124,446.9375 123.7188,447.2188 Q123.4375,447.5 123,447.5 Q122.6094,447.5 122.3594,447.3281 Q122.1094,447.1563 122,446.7031 Q121.9531,446.3906 121.7813,446.2188 Q121.4688,445.8906 120.9063,445.7031 Q120.3438,445.5 119.7813,445.5 Q119.0781,445.5 118.4844,445.7813 Q117.9063,446.0625 117.4531,446.6875 Q117,447.3125 117,448.1719 L117,449.0938 Q117,450.125 117.8438,450.8125 Q118.6875,451.5 120.1875,451.5 Q121.0781,451.5 121.7031,451.2969 Q122.0625,451.1875 122.4688,450.8281 Q122.7344,450.625 122.875,450.5625 Q123.0156,450.5 123.1875,450.5 Q123.5156,450.5 123.75,450.7656 Q124,451.0156 124,451.375 Q124,451.7188 123.6563,452.125 Q123.1563,452.7188 122.3594,453.0469 Q121.3125,453.5 120.0313,453.5 Q118.5313,453.5 117.3281,452.9063 Q116.3594,452.4375 115.6719,451.4219 Q115,450.4063 115,449.2031 L115,448.1094 Q115,446.8594 115.5938,445.7656 Q116.2031,444.6719 117.25,444.0938 Q118.3125,443.5 119.5,443.5 Q120.2188,443.5 120.8438,443.75 Q121.4688,444 122,444.5 Z " fill="#000000"/><text fill="#000000" font-family="sans-serif" font-size="14" lengthAdjust="spacing" textLength="90" x="134" y="453.7285">SurveyAnswer</text><line style="stroke:#181818;stroke-width:0.5;" x1="106" x2="226" y1="464" y2="464"/><line style="stroke:#181818;stroke-width:0.5;" x1="106" x2="226" y1="472" y2="472"/></g><!--MD5=[09a53695e98d4f26e7a054522080af08]
class Section--><g id="elem_Section"><rect codeLine="25" fill="#F1F1F1" height="48" id="Section" rx="2.5" ry="2.5" style="stroke:#181818;stroke-width:0.5;" width="79" x="24.5" y="666"/><ellipse cx="39.5" cy="682" fill="#ADD1B2" rx="11" ry="11" style="stroke:#181818;stroke-width:1.0;"/><path d="M41.5,678.5 Q41.7031,678 41.9375,677.75 Q42.1719,677.5 42.4375,677.5 Q42.9063,677.5 43.2031,677.7813 Q43.5,678.0625 43.5,678.7188 L43.5,680.2813 Q43.5,680.9375 43.2188,681.2188 Q42.9375,681.5 42.5,681.5 Q42.1094,681.5 41.8594,681.3281 Q41.6094,681.1563 41.5,680.7031 Q41.4531,680.3906 41.2813,680.2188 Q40.9688,679.8906 40.4063,679.7031 Q39.8438,679.5 39.2813,679.5 Q38.5781,679.5 37.9844,679.7813 Q37.4063,680.0625 36.9531,680.6875 Q36.5,681.3125 36.5,682.1719 L36.5,683.0938 Q36.5,684.125 37.3438,684.8125 Q38.1875,685.5 39.6875,685.5 Q40.5781,685.5 41.2031,685.2969 Q41.5625,685.1875 41.9688,684.8281 Q42.2344,684.625 42.375,684.5625 Q42.5156,684.5 42.6875,684.5 Q43.0156,684.5 43.25,684.7656 Q43.5,685.0156 43.5,685.375 Q43.5,685.7188 43.1563,686.125 Q42.6563,686.7188 41.8594,687.0469 Q40.8125,687.5 39.5313,687.5 Q38.0313,687.5 36.8281,686.9063 Q35.8594,686.4375 35.1719,685.4219 Q34.5,684.4063 34.5,683.2031 L34.5,682.1094 Q34.5,680.8594 35.0938,679.7656 Q35.7031,678.6719 36.75,678.0938 Q37.8125,677.5 39,677.5 Q39.7188,677.5 40.3438,677.75 Q40.9688,678 41.5,678.5 Z " fill="#000000"/><text fill="#000000" font-family="sans-serif" font-size="14" lengthAdjust="spacing" textLength="47" x="53.5" y="687.7285">Section</text><line style="stroke:#181818;stroke-width:0.5;" x1="25.5" x2="102.5" y1="698" y2="698"/><line style="stroke:#181818;stroke-width:0.5;" x1="25.5" x2="102.5" y1="706" y2="706"/></g><!--MD5=[e8c189551b7885b999ad7cefb30fc2a3]
class PersistenceContext--><g id="elem_PersistenceContext"><rect codeLine="30" fill="#F1F1F1" height="65.6094" id="PersistenceContext" rx="2.5" ry="2.5" style="stroke:#181818;stroke-width:0.5;" width="154" x="283" y="423"/><ellipse cx="298" cy="439" fill="#ADD1B2" rx="11" ry="11" style="stroke:#181818;stroke-width:1.0;"/><path d="M300,435.5 Q300.2031,435 300.4375,434.75 Q300.6719,434.5 300.9375,434.5 Q301.4063,434.5 301.7031,434.7813 Q302,435.0625 302,435.7188 L302,437.2813 Q302,437.9375 301.7188,438.2188 Q301.4375,438.5 301,438.5 Q300.6094,438.5 300.3594,438.3281 Q300.1094,438.1563 300,437.7031 Q299.9531,437.3906 299.7813,437.2188 Q299.4688,436.8906 298.9063,436.7031 Q298.3438,436.5 297.7813,436.5 Q297.0781,436.5 296.4844,436.7813 Q295.9063,437.0625 295.4531,437.6875 Q295,438.3125 295,439.1719 L295,440.0938 Q295,441.125 295.8438,441.8125 Q296.6875,442.5 298.1875,442.5 Q299.0781,442.5 299.7031,442.2969 Q300.0625,442.1875 300.4688,441.8281 Q300.7344,441.625 300.875,441.5625 Q301.0156,441.5 301.1875,441.5 Q301.5156,441.5 301.75,441.7656 Q302,442.0156 302,442.375 Q302,442.7188 301.6563,443.125 Q301.1563,443.7188 300.3594,444.0469 Q299.3125,444.5 298.0313,444.5 Q296.5313,444.5 295.3281,443.9063 Q294.3594,443.4375 293.6719,442.4219 Q293,441.4063 293,440.2031 L293,439.1094 Q293,437.8594 293.5938,436.7656 Q294.2031,435.6719 295.25,435.0938 Q296.3125,434.5 297.5,434.5 Q298.2188,434.5 298.8438,434.75 Q299.4688,435 300,435.5 Z " fill="#000000"/><text fill="#000000" font-family="sans-serif" font-size="14" lengthAdjust="spacing" textLength="122" x="312" y="444.7285">PersistenceContext</text><line style="stroke:#181818;stroke-width:0.5;" x1="284" x2="436" y1="455" y2="455"/><line style="stroke:#181818;stroke-width:0.5;" x1="284" x2="436" y1="463" y2="463"/><text fill="#000000" font-family="sans-serif" font-size="14" lengthAdjust="spacing" textLength="92" x="289" y="481.5332">+repositories()</text></g><!--MD5=[48590afff58a68e2fcba47824d6f8a11]
class RepositoryFactory--><g id="elem_RepositoryFactory"><rect codeLine="36" fill="#F1F1F1" height="65.6094" id="RepositoryFactory" rx="2.5" ry="2.5" style="stroke:#181818;stroke-width:0.5;" width="148" x="286" y="657"/><ellipse cx="301" cy="673" fill="#ADD1B2" rx="11" ry="11" style="stroke:#181818;stroke-width:1.0;"/><path d="M303,669.5 Q303.2031,669 303.4375,668.75 Q303.6719,668.5 303.9375,668.5 Q304.4063,668.5 304.7031,668.7813 Q305,669.0625 305,669.7188 L305,671.2813 Q305,671.9375 304.7188,672.2188 Q304.4375,672.5 304,672.5 Q303.6094,672.5 303.3594,672.3281 Q303.1094,672.1563 303,671.7031 Q302.9531,671.3906 302.7813,671.2188 Q302.4688,670.8906 301.9063,670.7031 Q301.3438,670.5 300.7813,670.5 Q300.0781,670.5 299.4844,670.7813 Q298.9063,671.0625 298.4531,671.6875 Q298,672.3125 298,673.1719 L298,674.0938 Q298,675.125 298.8438,675.8125 Q299.6875,676.5 301.1875,676.5 Q302.0781,676.5 302.7031,676.2969 Q303.0625,676.1875 303.4688,675.8281 Q303.7344,675.625 303.875,675.5625 Q304.0156,675.5 304.1875,675.5 Q304.5156,675.5 304.75,675.7656 Q305,676.0156 305,676.375 Q305,676.7188 304.6563,677.125 Q304.1563,677.7188 303.3594,678.0469 Q302.3125,678.5 301.0313,678.5 Q299.5313,678.5 298.3281,677.9063 Q297.3594,677.4375 296.6719,676.4219 Q296,675.4063 296,674.2031 L296,673.1094 Q296,671.8594 296.5938,670.7656 Q297.2031,669.6719 298.25,669.0938 Q299.3125,668.5 300.5,668.5 Q301.2188,668.5 301.8438,668.75 Q302.4688,669 303,669.5 Z " fill="#000000"/><text fill="#000000" font-family="sans-serif" font-size="14" lengthAdjust="spacing" textLength="116" x="315" y="678.7285">RepositoryFactory</text><line style="stroke:#181818;stroke-width:0.5;" x1="287" x2="433" y1="689" y2="689"/><line style="stroke:#181818;stroke-width:0.5;" x1="287" x2="433" y1="697" y2="697"/><text fill="#000000" font-family="sans-serif" font-size="14" lengthAdjust="spacing" textLength="58" x="292" y="715.5332">+create()</text></g><!--MD5=[ca7e2bcbfac35f85e33bf6d1b8bb0f5b]
class SurveyDTO--><g id="elem_SurveyDTO"><rect codeLine="42" fill="#F1F1F1" height="48" id="SurveyDTO" rx="2.5" ry="2.5" style="stroke:#181818;stroke-width:0.5;" width="106" x="493" y="432"/><ellipse cx="508" cy="448" fill="#ADD1B2" rx="11" ry="11" style="stroke:#181818;stroke-width:1.0;"/><path d="M510,444.5 Q510.2031,444 510.4375,443.75 Q510.6719,443.5 510.9375,443.5 Q511.4063,443.5 511.7031,443.7813 Q512,444.0625 512,444.7188 L512,446.2813 Q512,446.9375 511.7188,447.2188 Q511.4375,447.5 511,447.5 Q510.6094,447.5 510.3594,447.3281 Q510.1094,447.1563 510,446.7031 Q509.9531,446.3906 509.7813,446.2188 Q509.4688,445.8906 508.9063,445.7031 Q508.3438,445.5 507.7813,445.5 Q507.0781,445.5 506.4844,445.7813 Q505.9063,446.0625 505.4531,446.6875 Q505,447.3125 505,448.1719 L505,449.0938 Q505,450.125 505.8438,450.8125 Q506.6875,451.5 508.1875,451.5 Q509.0781,451.5 509.7031,451.2969 Q510.0625,451.1875 510.4688,450.8281 Q510.7344,450.625 510.875,450.5625 Q511.0156,450.5 511.1875,450.5 Q511.5156,450.5 511.75,450.7656 Q512,451.0156 512,451.375 Q512,451.7188 511.6563,452.125 Q511.1563,452.7188 510.3594,453.0469 Q509.3125,453.5 508.0313,453.5 Q506.5313,453.5 505.3281,452.9063 Q504.3594,452.4375 503.6719,451.4219 Q503,450.4063 503,449.2031 L503,448.1094 Q503,446.8594 503.5938,445.7656 Q504.2031,444.6719 505.25,444.0938 Q506.3125,443.5 507.5,443.5 Q508.2188,443.5 508.8438,443.75 Q509.4688,444 510,444.5 Z " fill="#000000"/><text fill="#000000" font-family="sans-serif" font-size="14" lengthAdjust="spacing" textLength="74" x="522" y="453.7285">SurveyDTO</text><line style="stroke:#181818;stroke-width:0.5;" x1="494" x2="598" y1="464" y2="464"/><line style="stroke:#181818;stroke-width:0.5;" x1="494" x2="598" y1="472" y2="472"/></g><!--MD5=[ca0abe252586467d5b989c6b12cf24dd]
class SurveyRepository--><g id="elem_SurveyRepository"><rect codeLine="46" fill="#F1F1F1" height="118.4375" id="SurveyRepository" rx="2.5" ry="2.5" style="stroke:#181818;stroke-width:0.5;" width="187" x="57.5" y="907"/><ellipse cx="91.85" cy="923" fill="#ADD1B2" rx="11" ry="11" style="stroke:#181818;stroke-width:1.0;"/><path d="M93.85,919.5 Q94.0531,919 94.2875,918.75 Q94.5219,918.5 94.7875,918.5 Q95.2563,918.5 95.5531,918.7813 Q95.85,919.0625 95.85,919.7188 L95.85,921.2813 Q95.85,921.9375 95.5688,922.2188 Q95.2875,922.5 94.85,922.5 Q94.4594,922.5 94.2094,922.3281 Q93.9594,922.1563 93.85,921.7031 Q93.8031,921.3906 93.6313,921.2188 Q93.3188,920.8906 92.7563,920.7031 Q92.1938,920.5 91.6313,920.5 Q90.9281,920.5 90.3344,920.7813 Q89.7563,921.0625 89.3031,921.6875 Q88.85,922.3125 88.85,923.1719 L88.85,924.0938 Q88.85,925.125 89.6938,925.8125 Q90.5375,926.5 92.0375,926.5 Q92.9281,926.5 93.5531,926.2969 Q93.9125,926.1875 94.3188,925.8281 Q94.5844,925.625 94.725,925.5625 Q94.8656,925.5 95.0375,925.5 Q95.3656,925.5 95.6,925.7656 Q95.85,926.0156 95.85,926.375 Q95.85,926.7188 95.5063,927.125 Q95.0063,927.7188 94.2094,928.0469 Q93.1625,928.5 91.8813,928.5 Q90.3813,928.5 89.1781,927.9063 Q88.2094,927.4375 87.5219,926.4219 Q86.85,925.4063 86.85,924.2031 L86.85,923.1094 Q86.85,921.8594 87.4438,920.7656 Q88.0531,919.6719 89.1,919.0938 Q90.1625,918.5 91.35,918.5 Q92.0688,918.5 92.6938,918.75 Q93.3188,919 93.85,919.5 Z " fill="#000000"/><text fill="#000000" font-family="sans-serif" font-size="14" lengthAdjust="spacing" textLength="112" x="110.15" y="928.7285">SurveyRepository</text><line style="stroke:#181818;stroke-width:0.5;" x1="58.5" x2="243.5" y1="939" y2="939"/><line style="stroke:#181818;stroke-width:0.5;" x1="58.5" x2="243.5" y1="947" y2="947"/><text fill="#000000" font-family="sans-serif" font-size="14" lengthAdjust="spacing" textLength="58" x="63.5" y="965.5332">+create()</text><text fill="#000000" font-family="sans-serif" font-size="14" lengthAdjust="spacing" textLength="56" x="63.5" y="983.1426">+findAll()</text><text fill="#000000" font-family="sans-serif" font-size="14" lengthAdjust="spacing" textLength="175" x="63.5" y="1000.752">+findSurveyByID(survey_id)</text><text fill="#000000" font-family="sans-serif" font-size="14" lengthAdjust="spacing" textLength="48" x="63.5" y="1018.3613">+save()</text></g><!--MD5=[e69d6994dde37a3d0167e5476c791457]
class CustomerRepository--><g id="elem_CustomerRepository"><rect codeLine="52" fill="#F1F1F1" height="100.8281" id="CustomerRepository" rx="2.5" ry="2.5" style="stroke:#181818;stroke-width:0.5;" width="161" x="279.5" y="915.5"/><ellipse cx="294.5" cy="931.5" fill="#ADD1B2" rx="11" ry="11" style="stroke:#181818;stroke-width:1.0;"/><path d="M296.5,928 Q296.7031,927.5 296.9375,927.25 Q297.1719,927 297.4375,927 Q297.9063,927 298.2031,927.2813 Q298.5,927.5625 298.5,928.2188 L298.5,929.7813 Q298.5,930.4375 298.2188,930.7188 Q297.9375,931 297.5,931 Q297.1094,931 296.8594,930.8281 Q296.6094,930.6563 296.5,930.2031 Q296.4531,929.8906 296.2813,929.7188 Q295.9688,929.3906 295.4063,929.2031 Q294.8438,929 294.2813,929 Q293.5781,929 292.9844,929.2813 Q292.4063,929.5625 291.9531,930.1875 Q291.5,930.8125 291.5,931.6719 L291.5,932.5938 Q291.5,933.625 292.3438,934.3125 Q293.1875,935 294.6875,935 Q295.5781,935 296.2031,934.7969 Q296.5625,934.6875 296.9688,934.3281 Q297.2344,934.125 297.375,934.0625 Q297.5156,934 297.6875,934 Q298.0156,934 298.25,934.2656 Q298.5,934.5156 298.5,934.875 Q298.5,935.2188 298.1563,935.625 Q297.6563,936.2188 296.8594,936.5469 Q295.8125,937 294.5313,937 Q293.0313,937 291.8281,936.4063 Q290.8594,935.9375 290.1719,934.9219 Q289.5,933.9063 289.5,932.7031 L289.5,931.6094 Q289.5,930.3594 290.0938,929.2656 Q290.7031,928.1719 291.75,927.5938 Q292.8125,927 294,927 Q294.7188,927 295.3438,927.25 Q295.9688,927.5 296.5,928 Z " fill="#000000"/><text fill="#000000" font-family="sans-serif" font-size="14" lengthAdjust="spacing" textLength="129" x="308.5" y="937.2285">CustomerRepository</text><line style="stroke:#181818;stroke-width:0.5;" x1="280.5" x2="439.5" y1="947.5" y2="947.5"/><line style="stroke:#181818;stroke-width:0.5;" x1="280.5" x2="439.5" y1="955.5" y2="955.5"/><text fill="#000000" font-family="sans-serif" font-size="14" lengthAdjust="spacing" textLength="58" x="285.5" y="974.0332">+create()</text><text fill="#000000" font-family="sans-serif" font-size="14" lengthAdjust="spacing" textLength="56" x="285.5" y="991.6426">+findAll()</text><text fill="#000000" font-family="sans-serif" font-size="14" lengthAdjust="spacing" textLength="48" x="285.5" y="1009.252">+save()</text></g><!--MD5=[8e2ee19657d82c138251b7971390cc51]
class SurveyAnswerRepository--><g id="elem_SurveyAnswerRepository"><rect codeLine="57" fill="#F1F1F1" height="100.8281" id="SurveyAnswerRepository" rx="2.5" ry="2.5" style="stroke:#181818;stroke-width:0.5;" width="264" x="476" y="915.5"/><ellipse cx="524.75" cy="931.5" fill="#ADD1B2" rx="11" ry="11" style="stroke:#181818;stroke-width:1.0;"/><path d="M526.75,928 Q526.9531,927.5 527.1875,927.25 Q527.4219,927 527.6875,927 Q528.1563,927 528.4531,927.2813 Q528.75,927.5625 528.75,928.2188 L528.75,929.7813 Q528.75,930.4375 528.4688,930.7188 Q528.1875,931 527.75,931 Q527.3594,931 527.1094,930.8281 Q526.8594,930.6563 526.75,930.2031 Q526.7031,929.8906 526.5313,929.7188 Q526.2188,929.3906 525.6563,929.2031 Q525.0938,929 524.5313,929 Q523.8281,929 523.2344,929.2813 Q522.6563,929.5625 522.2031,930.1875 Q521.75,930.8125 521.75,931.6719 L521.75,932.5938 Q521.75,933.625 522.5938,934.3125 Q523.4375,935 524.9375,935 Q525.8281,935 526.4531,934.7969 Q526.8125,934.6875 527.2188,934.3281 Q527.4844,934.125 527.625,934.0625 Q527.7656,934 527.9375,934 Q528.2656,934 528.5,934.2656 Q528.75,934.5156 528.75,934.875 Q528.75,935.2188 528.4063,935.625 Q527.9063,936.2188 527.1094,936.5469 Q526.0625,937 524.7813,937 Q523.2813,937 522.0781,936.4063 Q521.1094,935.9375 520.4219,934.9219 Q519.75,933.9063 519.75,932.7031 L519.75,931.6094 Q519.75,930.3594 520.3438,929.2656 Q520.9531,928.1719 522,927.5938 Q523.0625,927 524.25,927 Q524.9688,927 525.5938,927.25 Q526.2188,927.5 526.75,928 Z " fill="#000000"/><text fill="#000000" font-family="sans-serif" font-size="14" lengthAdjust="spacing" textLength="158" x="545.25" y="937.2285">SurveyAnswerRepository</text><line style="stroke:#181818;stroke-width:0.5;" x1="477" x2="739" y1="947.5" y2="947.5"/><line style="stroke:#181818;stroke-width:0.5;" x1="477" x2="739" y1="955.5" y2="955.5"/><text fill="#000000" font-family="sans-serif" font-size="14" lengthAdjust="spacing" textLength="58" x="482" y="974.0332">+create()</text><text fill="#000000" font-family="sans-serif" font-size="14" lengthAdjust="spacing" textLength="252" x="482" y="991.6426">+findSurveyAnswerBySurvey(survey_id)</text><text fill="#000000" font-family="sans-serif" font-size="14" lengthAdjust="spacing" textLength="48" x="482" y="1009.252">+save()</text></g><!--MD5=[e31452a6a5024b5af50132c4718d7a67]
link ShowReportUI to ShowReportController--><g id="link_ShowReportUI_ShowReportController"><path codeLine="64" d="M434.07,108.01 C422.74,128.23 407.72,155.04 394.09,179.37 " fill="none" id="ShowReportUI-to-ShowReportController" style="stroke:#181818;stroke-width:1.0;stroke-dasharray:7.0,7.0;"/><polygon fill="#181818" points="391.56,183.88,399.4504,177.9858,394.0052,179.5187,392.4723,174.0735,391.56,183.88" style="stroke:#181818;stroke-width:1.0;"/></g><!--MD5=[3224fe01db3f8acb090d7c4127a32aa7]
link ShowReportUI to SurveyDTO--><g id="link_ShowReportUI_SurveyDTO"><path codeLine="65" d="M487.38,108.08 C495.79,117.53 503.82,128.46 509,140 C552.94,237.8 551.44,369.06 548.21,426.3 " fill="none" id="ShowReportUI-to-SurveyDTO" style="stroke:#181818;stroke-width:1.0;stroke-dasharray:7.0,7.0;"/><polygon fill="#181818" points="547.89,431.61,552.4218,422.8657,548.1895,426.619,544.4362,422.3866,547.89,431.61" style="stroke:#181818;stroke-width:1.0;"/></g><!--MD5=[bd4f3e2bd29e923a5bbd70ac99a8b5cf]
link ShowReportController to PersistenceContext--><g id="link_ShowReportController_PersistenceContext"><path codeLine="66" d="M359.28,302.22 C359.45,339.15 359.67,385.84 359.82,417.82 " fill="none" id="ShowReportController-to-PersistenceContext" style="stroke:#181818;stroke-width:1.0;stroke-dasharray:7.0,7.0;"/><polygon fill="#181818" points="359.85,422.83,363.8243,413.8186,359.8357,417.83,355.8243,413.8415,359.85,422.83" style="stroke:#181818;stroke-width:1.0;"/></g><!--MD5=[9e4e7738934bc9073e0fd7aa85ad6720]
link ShowReportController to SurveyAnswer--><g id="link_ShowReportController_SurveyAnswer"><path codeLine="67" d="M305.75,302.22 C268.12,343.36 219.42,396.6 190.57,428.14 " fill="none" id="ShowReportController-to-SurveyAnswer" style="stroke:#181818;stroke-width:1.0;stroke-dasharray:7.0,7.0;"/><polygon fill="#181818" points="187.15,431.88,196.176,427.939,190.5247,428.1907,190.2731,422.5394,187.15,431.88" style="stroke:#181818;stroke-width:1.0;"/></g><!--MD5=[e9a0fc04fa112ff93eebc3c1ef998b84]
link ShowReportController to Survey--><g id="link_ShowReportController_Survey"><path codeLine="68" d="M224.77,280.88 C173.9,301.57 120.29,332.81 87,379 C51.5,428.25 52.5,503.28 56.28,543.76 " fill="none" id="ShowReportController-to-Survey" style="stroke:#181818;stroke-width:1.0;stroke-dasharray:7.0,7.0;"/><polygon fill="#181818" points="56.8,548.99,59.8793,539.6349,56.2997,544.0151,51.9194,540.4355,56.8,548.99" style="stroke:#181818;stroke-width:1.0;"/></g><!--MD5=[5f47ad22a8f3a554a69205a9278ea9cd]
link ShowReportController to SurveyDTO--><g id="link_ShowReportController_SurveyDTO"><path codeLine="69" d="M410.59,302.22 C446.91,343.19 493.86,396.17 521.86,427.76 " fill="none" id="ShowReportController-to-SurveyDTO" style="stroke:#181818;stroke-width:1.0;stroke-dasharray:7.0,7.0;"/><polygon fill="#181818" points="525.51,431.88,522.5382,422.4902,522.1953,428.1367,516.5488,427.7938,525.51,431.88" style="stroke:#181818;stroke-width:1.0;"/></g><!--MD5=[754b775031405e096442b27febffa290]
link PersistenceContext to RepositoryFactory--><g id="link_PersistenceContext_RepositoryFactory"><path codeLine="70" d="M360,489.26 C360,531.82 360,606.58 360,651.58 " fill="none" id="PersistenceContext-to-RepositoryFactory" style="stroke:#181818;stroke-width:1.0;stroke-dasharray:7.0,7.0;"/><polygon fill="#181818" points="360,656.64,364,647.64,360,651.64,356,647.64,360,656.64" style="stroke:#181818;stroke-width:1.0;"/></g><!--MD5=[b2261c22df95718c10e32de77a70473c]
link RepositoryFactory to SurveyRepository--><g id="link_RepositoryFactory_SurveyRepository"><path codeLine="71" d="M338.06,723.28 C315.07,756.74 277.55,810.31 243,855 C230.79,870.8 217.2,887.49 204.29,902.97 " fill="none" id="RepositoryFactory-to-SurveyRepository" style="stroke:#181818;stroke-width:1.0;stroke-dasharray:7.0,7.0;"/><polygon fill="#181818" points="201.03,906.88,209.8804,902.5591,204.245,903.0506,203.7534,897.4152,201.03,906.88" style="stroke:#181818;stroke-width:1.0;"/></g><!--MD5=[e08488e93f39d4771289586a7207cfdd]
link RepositoryFactory to SurveyAnswerRepository--><g id="link_RepositoryFactory_SurveyAnswerRepository"><path codeLine="72" d="M389.18,723.24 C431.07,769.52 508.76,855.36 559.41,911.31 " fill="none" id="RepositoryFactory-to-SurveyAnswerRepository" style="stroke:#181818;stroke-width:1.0;stroke-dasharray:7.0,7.0;"/><polygon fill="#181818" points="563.01,915.29,559.9426,905.931,559.6573,911.5806,554.0076,911.2953,563.01,915.29" style="stroke:#181818;stroke-width:1.0;"/></g><!--MD5=[5480e33a89de9b63c80dfd73aefa71de]
link RepositoryFactory to CustomerRepository--><g id="link_RepositoryFactory_CustomerRepository"><path codeLine="73" d="M360,723.24 C360,769.15 360,853.99 360,909.96 " fill="none" id="RepositoryFactory-to-CustomerRepository" style="stroke:#181818;stroke-width:1.0;stroke-dasharray:7.0,7.0;"/><polygon fill="#181818" points="360,915.29,364,906.29,360,910.29,356,906.29,360,915.29" style="stroke:#181818;stroke-width:1.0;"/></g><!--MD5=[f34910b9b680f5ed1f2f99b8d5614bb5]
link SurveyAnswer to Survey--><g id="link_SurveyAnswer_Survey"><path codeLine="74" d="M144.55,480.27 C127.31,498.98 103.06,525.28 84.95,544.93 " fill="none" id="SurveyAnswer-to-Survey" style="stroke:#181818;stroke-width:1.0;"/><polygon fill="#181818" points="81.42,548.76,90.4618,544.8555,84.8096,545.0843,84.5808,539.4321,81.42,548.76" style="stroke:#181818;stroke-width:1.0;"/><text fill="#000000" font-family="sans-serif" font-size="13" lengthAdjust="spacing" textLength="7" x="131.4684" y="501.6738">1</text><text fill="#000000" font-family="sans-serif" font-size="13" lengthAdjust="spacing" textLength="7" x="79.012" y="538.0387">1</text></g><!--MD5=[a17d0735f820313d8a264589d99b8ff6]
link SurveyAnswer to Customer--><g id="link_SurveyAnswer_Customer"><path codeLine="75" d="M168.83,480.27 C171.05,498.51 174.15,523.97 176.52,543.44 " fill="none" id="SurveyAnswer-to-Customer" style="stroke:#181818;stroke-width:1.0;"/><polygon fill="#181818" points="177.17,548.76,180.0596,539.3446,176.5692,543.7962,172.1175,540.3059,177.17,548.76" style="stroke:#181818;stroke-width:1.0;"/><text fill="#000000" font-family="sans-serif" font-size="13" lengthAdjust="spacing" textLength="7" x="161.6667" y="501.6738">1</text><text fill="#000000" font-family="sans-serif" font-size="13" lengthAdjust="spacing" textLength="7" x="168.5479" y="538.0387">1</text></g><!--MD5=[08f5806e336f712cdf08037e9415a76d]
link Survey to Section--><g id="link_Survey_Section"><path codeLine="76" d="M60.81,597.27 C61.44,615.51 62.33,640.97 63.01,660.44 " fill="none" id="Survey-to-Section" style="stroke:#181818;stroke-width:1.0;"/><polygon fill="#181818" points="63.19,665.76,66.8532,656.6177,63.0044,660.7634,58.8587,656.9147,63.19,665.76" style="stroke:#181818;stroke-width:1.0;"/><text fill="#000000" font-family="sans-serif" font-size="13" lengthAdjust="spacing" textLength="7" x="53.1543" y="618.6738">1</text><text fill="#000000" font-family="sans-serif" font-size="13" lengthAdjust="spacing" textLength="5" x="57.3418" y="655.0387">*</text></g><!--MD5=[87fa8ff7d398728728a611d860795352]
link Section to Question--><g id="link_Section_Question"><path codeLine="77" d="M64.61,714.27 C65.08,732.51 65.75,757.97 66.25,777.44 " fill="none" id="Section-to-Question" style="stroke:#181818;stroke-width:1.0;"/><polygon fill="#181818" points="66.39,782.76,70.1573,773.6602,66.2615,777.7617,62.16,773.8658,66.39,782.76" style="stroke:#181818;stroke-width:1.0;"/><text fill="#000000" font-family="sans-serif" font-size="13" lengthAdjust="spacing" textLength="7" x="56.9056" y="735.6738">1</text><text fill="#000000" font-family="sans-serif" font-size="13" lengthAdjust="spacing" textLength="5" x="60.5931" y="772.0387">*</text></g><!--MD5=[05b62ca8937a8094595257f6fa86b5a3]
@startuml
skinparam classAttributeIconSize 0

package "Presentation"{
class ShowReportUI{
+doShow()
}
}

package "Application"{
class ShowReportController{
-toDto(List<Survey> list)
+getSurveyList()
+getCommonInformation(long survey_id)
+getQuestionInfo()
}
}



package "Domain"{
class Customer
class Survey
class Question
class SurveyAnswer
class Section
}


package "Persistence"{
class PersistenceContext{
+repositories()
}
}

package "Factory"{
class RepositoryFactory{
+create()
}
}

package "DTO"{
class SurveyDTO
}

package "Repository"{
class SurveyRepository{
+create()
+findAll()
+findSurveyByID(survey_id)
+save()
}
class CustomerRepository{
+create()
+findAll()
+save()
}
class SurveyAnswerRepository{
+create()
+findSurveyAnswerBySurvey(survey_id)
+save()
}
}

ShowReportUI .-> ShowReportController
ShowReportUI .-> SurveyDTO
ShowReportController .- -> PersistenceContext
ShowReportController .- -> SurveyAnswer
ShowReportController .- -> Survey
ShowReportController .- -> SurveyDTO
PersistenceContext .- -> RepositoryFactory
RepositoryFactory .- -> SurveyRepository
RepositoryFactory .- -> SurveyAnswerRepository
RepositoryFactory .- -> CustomerRepository
SurveyAnswer "1"- ->"1" Survey
SurveyAnswer "1"- ->"1" Customer
Survey "1"- ->"*" Section
Section "1"- ->"*" Question


@enduml

PlantUML version 1.2022.4(Sat Apr 09 14:29:17 BST 2022)
(GPL source distribution)
Java Runtime: OpenJDK Runtime Environment
JVM: OpenJDK 64-Bit Server VM
Default Encoding: Cp1252
Language: pt
Country: PT
--></g></svg>