<?xml version="1.0" encoding="UTF-8" standalone="no"?><svg xmlns="http://www.w3.org/2000/svg" xmlns:xlink="http://www.w3.org/1999/xlink" contentStyleType="text/css" height="910px" preserveAspectRatio="none" style="width:1404px;height:910px;background:#FFFFFF;" version="1.1" viewBox="0 0 1404 910" width="1404px" zoomAndPan="magnify"><defs/><g><rect fill="#FFFFFF" height="717.9609" style="stroke:#181818;stroke-width:1.0;" width="10" x="50.5" y="92.6094"/><rect fill="#FFFFFF" height="362.4453" style="stroke:#181818;stroke-width:1.0;" width="10" x="411.5" y="114.9609"/><rect fill="#FFFFFF" height="302.8125" style="stroke:#181818;stroke-width:1.0;" width="10" x="411.5" y="507.7578"/><rect fill="#FFFFFF" height="301.7422" style="stroke:#181818;stroke-width:1.0;" width="10" x="681.5" y="145.3125"/><rect fill="#FFFFFF" height="28" style="stroke:#181818;stroke-width:1.0;" width="10" x="686.5" y="381.7031"/><rect fill="#FFFFFF" height="151.0547" style="stroke:#181818;stroke-width:1.0;" width="10" x="681.5" y="538.1094"/><rect fill="#FFFFFF" height="30.3516" style="stroke:#181818;stroke-width:1.0;" width="10" x="681.5" y="749.8672"/><rect fill="#FFFFFF" height="106.9844" style="stroke:#181818;stroke-width:1.0;" width="10" x="840" y="175.6641"/><rect fill="#FFFFFF" height="30.3516" style="stroke:#181818;stroke-width:1.0;" width="10" x="985" y="313"/><rect fill="#FFFFFF" height="30" style="stroke:#181818;stroke-width:1.0;" width="10" x="985" y="568.4609"/><rect fill="#FFFFFF" height="30" style="stroke:#181818;stroke-width:1.0;" width="10" x="1148" y="628.8125"/><line style="stroke:#181818;stroke-width:0.5;stroke-dasharray:5.0,5.0;" x1="55" x2="55" y1="82.6094" y2="828.5703"/><line style="stroke:#181818;stroke-width:0.5;stroke-dasharray:5.0,5.0;" x1="416" x2="416" y1="82.6094" y2="828.5703"/><line style="stroke:#181818;stroke-width:0.5;stroke-dasharray:5.0,5.0;" x1="686" x2="686" y1="82.6094" y2="828.5703"/><line style="stroke:#181818;stroke-width:0.5;stroke-dasharray:5.0,5.0;" x1="845" x2="845" y1="82.6094" y2="828.5703"/><line style="stroke:#181818;stroke-width:0.5;stroke-dasharray:5.0,5.0;" x1="990" x2="990" y1="82.6094" y2="828.5703"/><line style="stroke:#181818;stroke-width:0.5;stroke-dasharray:5.0,5.0;" x1="1153" x2="1153" y1="82.6094" y2="828.5703"/><line style="stroke:#181818;stroke-width:0.5;stroke-dasharray:5.0,5.0;" x1="1324" x2="1324" y1="82.6094" y2="828.5703"/><text fill="#000000" font-family="sans-serif" font-size="14" lengthAdjust="spacing" textLength="95" x="5" y="79.5332">Sales Manager</text><ellipse cx="55.5" cy="13.5" fill="#E2E2F0" rx="8" ry="8" style="stroke:#181818;stroke-width:0.5;"/><path d="M55.5,21.5 L55.5,48.5 M42.5,29.5 L68.5,29.5 M55.5,48.5 L42.5,63.5 M55.5,48.5 L68.5,63.5 " fill="none" style="stroke:#181818;stroke-width:0.5;"/><text fill="#000000" font-family="sans-serif" font-size="14" lengthAdjust="spacing" textLength="95" x="5" y="842.1035">Sales Manager</text><ellipse cx="55.5" cy="853.6797" fill="#E2E2F0" rx="8" ry="8" style="stroke:#181818;stroke-width:0.5;"/><path d="M55.5,861.6797 L55.5,888.6797 M42.5,869.6797 L68.5,869.6797 M55.5,888.6797 L42.5,903.6797 M55.5,888.6797 L68.5,903.6797 " fill="none" style="stroke:#181818;stroke-width:0.5;"/><rect fill="#E2E2F0" height="31.6094" rx="2.5" ry="2.5" style="stroke:#181818;stroke-width:0.5;" width="107" x="363" y="50"/><text fill="#000000" font-family="sans-serif" font-size="14" lengthAdjust="spacing" textLength="93" x="370" y="71.5332">:ShowReportUI</text><rect fill="#E2E2F0" height="31.6094" rx="2.5" ry="2.5" style="stroke:#181818;stroke-width:0.5;" width="107" x="363" y="827.5703"/><text fill="#000000" font-family="sans-serif" font-size="14" lengthAdjust="spacing" textLength="93" x="370" y="849.1035">:ShowReportUI</text><rect fill="#E2E2F0" height="31.6094" rx="2.5" ry="2.5" style="stroke:#181818;stroke-width:0.5;" width="157" x="608" y="50"/><text fill="#000000" font-family="sans-serif" font-size="14" lengthAdjust="spacing" textLength="143" x="615" y="71.5332">:ShowReportController</text><rect fill="#E2E2F0" height="31.6094" rx="2.5" ry="2.5" style="stroke:#181818;stroke-width:0.5;" width="157" x="608" y="827.5703"/><text fill="#000000" font-family="sans-serif" font-size="14" lengthAdjust="spacing" textLength="143" x="615" y="849.1035">:ShowReportController</text><rect fill="#E2E2F0" height="31.6094" rx="2.5" ry="2.5" style="stroke:#181818;stroke-width:0.5;" width="140" x="775" y="50"/><text fill="#000000" font-family="sans-serif" font-size="14" lengthAdjust="spacing" textLength="126" x="782" y="71.5332">:PersistenceContext</text><rect fill="#E2E2F0" height="31.6094" rx="2.5" ry="2.5" style="stroke:#181818;stroke-width:0.5;" width="140" x="775" y="827.5703"/><text fill="#000000" font-family="sans-serif" font-size="14" lengthAdjust="spacing" textLength="126" x="782" y="849.1035">:PersistenceContext</text><rect fill="#E2E2F0" height="31.6094" rx="2.5" ry="2.5" style="stroke:#181818;stroke-width:0.5;" width="130" x="925" y="50"/><text fill="#000000" font-family="sans-serif" font-size="14" lengthAdjust="spacing" textLength="116" x="932" y="71.5332">:SurveyRepository</text><rect fill="#E2E2F0" height="31.6094" rx="2.5" ry="2.5" style="stroke:#181818;stroke-width:0.5;" width="130" x="925" y="827.5703"/><text fill="#000000" font-family="sans-serif" font-size="14" lengthAdjust="spacing" textLength="116" x="932" y="849.1035">:SurveyRepository</text><rect fill="#E2E2F0" height="31.6094" rx="2.5" ry="2.5" style="stroke:#181818;stroke-width:0.5;" width="176" x="1065" y="50"/><text fill="#000000" font-family="sans-serif" font-size="14" lengthAdjust="spacing" textLength="162" x="1072" y="71.5332">:SurveyAnswerRepository</text><rect fill="#E2E2F0" height="31.6094" rx="2.5" ry="2.5" style="stroke:#181818;stroke-width:0.5;" width="176" x="1065" y="827.5703"/><text fill="#000000" font-family="sans-serif" font-size="14" lengthAdjust="spacing" textLength="162" x="1072" y="849.1035">:SurveyAnswerRepository</text><rect fill="#E2E2F0" height="31.6094" rx="2.5" ry="2.5" style="stroke:#181818;stroke-width:0.5;" width="147" x="1251" y="50"/><text fill="#000000" font-family="sans-serif" font-size="14" lengthAdjust="spacing" textLength="133" x="1258" y="71.5332">:CustomerRepository</text><rect fill="#E2E2F0" height="31.6094" rx="2.5" ry="2.5" style="stroke:#181818;stroke-width:0.5;" width="147" x="1251" y="827.5703"/><text fill="#000000" font-family="sans-serif" font-size="14" lengthAdjust="spacing" textLength="133" x="1258" y="849.1035">:CustomerRepository</text><rect fill="#FFFFFF" height="717.9609" style="stroke:#181818;stroke-width:1.0;" width="10" x="50.5" y="92.6094"/><rect fill="#FFFFFF" height="362.4453" style="stroke:#181818;stroke-width:1.0;" width="10" x="411.5" y="114.9609"/><rect fill="#FFFFFF" height="302.8125" style="stroke:#181818;stroke-width:1.0;" width="10" x="411.5" y="507.7578"/><rect fill="#FFFFFF" height="301.7422" style="stroke:#181818;stroke-width:1.0;" width="10" x="681.5" y="145.3125"/><rect fill="#FFFFFF" height="28" style="stroke:#181818;stroke-width:1.0;" width="10" x="686.5" y="381.7031"/><rect fill="#FFFFFF" height="151.0547" style="stroke:#181818;stroke-width:1.0;" width="10" x="681.5" y="538.1094"/><rect fill="#FFFFFF" height="30.3516" style="stroke:#181818;stroke-width:1.0;" width="10" x="681.5" y="749.8672"/><rect fill="#FFFFFF" height="106.9844" style="stroke:#181818;stroke-width:1.0;" width="10" x="840" y="175.6641"/><rect fill="#FFFFFF" height="30.3516" style="stroke:#181818;stroke-width:1.0;" width="10" x="985" y="313"/><rect fill="#FFFFFF" height="30" style="stroke:#181818;stroke-width:1.0;" width="10" x="985" y="568.4609"/><rect fill="#FFFFFF" height="30" style="stroke:#181818;stroke-width:1.0;" width="10" x="1148" y="628.8125"/><polygon fill="#181818" points="399.5,110.9609,409.5,114.9609,399.5,118.9609,403.5,114.9609" style="stroke:#181818;stroke-width:1.0;"/><line style="stroke:#181818;stroke-width:1.0;" x1="60.5" x2="405.5" y1="114.9609" y2="114.9609"/><text fill="#000000" font-family="sans-serif" font-size="13" font-weight="bold" lengthAdjust="spacing" textLength="7" x="67.5" y="110.1045">1</text><text fill="#000000" font-family="sans-serif" font-size="13" lengthAdjust="spacing" textLength="321" x="78.5" y="110.1045">I want to see a statistical report about the questionaires</text><polygon fill="#181818" points="669.5,141.3125,679.5,145.3125,669.5,149.3125,673.5,145.3125" style="stroke:#181818;stroke-width:1.0;"/><line style="stroke:#181818;stroke-width:1.0;" x1="421.5" x2="675.5" y1="145.3125" y2="145.3125"/><text fill="#000000" font-family="sans-serif" font-size="13" font-weight="bold" lengthAdjust="spacing" textLength="7" x="428.5" y="140.4561">2</text><text fill="#000000" font-family="sans-serif" font-size="13" lengthAdjust="spacing" textLength="86" x="439.5" y="140.4561">getSurveyList()</text><polygon fill="#181818" points="828,171.6641,838,175.6641,828,179.6641,832,175.6641" style="stroke:#181818;stroke-width:1.0;"/><line style="stroke:#181818;stroke-width:1.0;" x1="691.5" x2="834" y1="175.6641" y2="175.6641"/><text fill="#000000" font-family="sans-serif" font-size="13" font-weight="bold" lengthAdjust="spacing" textLength="7" x="698.5" y="170.8076">3</text><text fill="#000000" font-family="sans-serif" font-size="13" lengthAdjust="spacing" textLength="75" x="709.5" y="170.8076">repositories()</text><rect height="71.6328" style="stroke:#000000;stroke-width:1.5;fill:none;" width="168" x="772" y="183.6641"/><path d="M772,183.6641 L834,183.6641 L834,191.6641 L824,201.6641 L772,201.6641 L772,183.6641 " fill="#EEEEEE" style="stroke:#000000;stroke-width:2.0;"/><text fill="#000000" font-family="sans-serif" font-size="13" font-weight="bold" lengthAdjust="spacing" textLength="17" x="785" y="199.1592">ref</text><text fill="#000000" font-family="sans-serif" font-size="12" lengthAdjust="spacing" textLength="138" x="787" y="218.1211">CustomerRepository_SD</text><text fill="#000000" font-family="sans-serif" font-size="12" lengthAdjust="spacing" textLength="119" x="796.5" y="233.2148">SurveyRepository_SD</text><text fill="#000000" font-family="sans-serif" font-size="12" lengthAdjust="spacing" textLength="160" x="776" y="248.3086">SurveyAnswerRepository_SD</text><polygon fill="#181818" points="702.5,278.6484,692.5,282.6484,702.5,286.6484,698.5,282.6484" style="stroke:#181818;stroke-width:1.0;"/><line style="stroke:#181818;stroke-width:1.0;stroke-dasharray:2.0,2.0;" x1="696.5" x2="844" y1="282.6484" y2="282.6484"/><text fill="#000000" font-family="sans-serif" font-size="13" font-weight="bold" lengthAdjust="spacing" textLength="7" x="708.5" y="277.792">4</text><text fill="#000000" font-family="sans-serif" font-size="13" lengthAdjust="spacing" textLength="4" x="719.5" y="277.792"> </text><polygon fill="#181818" points="973,309,983,313,973,317,977,313" style="stroke:#181818;stroke-width:1.0;"/><line style="stroke:#181818;stroke-width:1.0;" x1="691.5" x2="979" y1="313" y2="313"/><text fill="#000000" font-family="sans-serif" font-size="13" font-weight="bold" lengthAdjust="spacing" textLength="7" x="698.5" y="308.1436">5</text><text fill="#000000" font-family="sans-serif" font-size="13" lengthAdjust="spacing" textLength="43" x="709.5" y="308.1436">findAll()</text><polygon fill="#181818" points="702.5,339.3516,692.5,343.3516,702.5,347.3516,698.5,343.3516" style="stroke:#181818;stroke-width:1.0;"/><line style="stroke:#181818;stroke-width:1.0;stroke-dasharray:2.0,2.0;" x1="696.5" x2="989" y1="343.3516" y2="343.3516"/><text fill="#000000" font-family="sans-serif" font-size="13" font-weight="bold" lengthAdjust="spacing" textLength="7" x="708.5" y="338.4951">6</text><text fill="#000000" font-family="sans-serif" font-size="13" lengthAdjust="spacing" textLength="58" x="719.5" y="338.4951">surveyList</text><line style="stroke:#181818;stroke-width:1.0;" x1="696.5" x2="738.5" y1="373.7031" y2="373.7031"/><line style="stroke:#181818;stroke-width:1.0;" x1="738.5" x2="738.5" y1="373.7031" y2="386.7031"/><line style="stroke:#181818;stroke-width:1.0;" x1="697.5" x2="738.5" y1="386.7031" y2="386.7031"/><polygon fill="#181818" points="707.5,382.7031,697.5,386.7031,707.5,390.7031,703.5,386.7031" style="stroke:#181818;stroke-width:1.0;"/><text fill="#000000" font-family="sans-serif" font-size="13" font-weight="bold" lengthAdjust="spacing" textLength="7" x="703.5" y="368.8467">7</text><text fill="#000000" font-family="sans-serif" font-size="13" lengthAdjust="spacing" textLength="97" x="714.5" y="368.8467">toDto(surveyList)</text><polygon fill="#181818" points="432.5,443.0547,422.5,447.0547,432.5,451.0547,428.5,447.0547" style="stroke:#181818;stroke-width:1.0;"/><line style="stroke:#181818;stroke-width:1.0;stroke-dasharray:2.0,2.0;" x1="426.5" x2="685.5" y1="447.0547" y2="447.0547"/><text fill="#000000" font-family="sans-serif" font-size="13" font-weight="bold" lengthAdjust="spacing" textLength="7" x="438.5" y="442.1982">8</text><text fill="#000000" font-family="sans-serif" font-size="13" lengthAdjust="spacing" textLength="78" x="449.5" y="442.1982">surveyListDto</text><polygon fill="#181818" points="71.5,473.4063,61.5,477.4063,71.5,481.4063,67.5,477.4063" style="stroke:#181818;stroke-width:1.0;"/><line style="stroke:#181818;stroke-width:1.0;stroke-dasharray:2.0,2.0;" x1="65.5" x2="415.5" y1="477.4063" y2="477.4063"/><text fill="#000000" font-family="sans-serif" font-size="13" font-weight="bold" lengthAdjust="spacing" textLength="7" x="77.5" y="472.5498">9</text><text fill="#000000" font-family="sans-serif" font-size="13" lengthAdjust="spacing" textLength="303" x="88.5" y="472.5498">asks to select the needed data (the intended survey)</text><polygon fill="#181818" points="399.5,503.7578,409.5,507.7578,399.5,511.7578,403.5,507.7578" style="stroke:#181818;stroke-width:1.0;"/><line style="stroke:#181818;stroke-width:1.0;" x1="60.5" x2="405.5" y1="507.7578" y2="507.7578"/><text fill="#000000" font-family="sans-serif" font-size="13" font-weight="bold" lengthAdjust="spacing" textLength="14" x="67.5" y="502.9014">10</text><text fill="#000000" font-family="sans-serif" font-size="13" lengthAdjust="spacing" textLength="125" x="85.5" y="502.9014">select requested data</text><polygon fill="#181818" points="669.5,534.1094,679.5,538.1094,669.5,542.1094,673.5,538.1094" style="stroke:#181818;stroke-width:1.0;"/><line style="stroke:#181818;stroke-width:1.0;" x1="421.5" x2="675.5" y1="538.1094" y2="538.1094"/><text fill="#000000" font-family="sans-serif" font-size="13" font-weight="bold" lengthAdjust="spacing" textLength="14" x="428.5" y="533.2529">11</text><text fill="#000000" font-family="sans-serif" font-size="13" lengthAdjust="spacing" textLength="223" x="446.5" y="533.2529">getCommonInformation(long survey_id)</text><polygon fill="#181818" points="973,564.4609,983,568.4609,973,572.4609,977,568.4609" style="stroke:#181818;stroke-width:1.0;"/><line style="stroke:#181818;stroke-width:1.0;" x1="691.5" x2="979" y1="568.4609" y2="568.4609"/><text fill="#000000" font-family="sans-serif" font-size="13" font-weight="bold" lengthAdjust="spacing" textLength="14" x="698.5" y="563.6045">12</text><text fill="#000000" font-family="sans-serif" font-size="13" lengthAdjust="spacing" textLength="202" x="716.5" y="563.6045">survey = findSurveyByID(survey_id)</text><polygon fill="#181818" points="1136,624.8125,1146,628.8125,1136,632.8125,1140,628.8125" style="stroke:#181818;stroke-width:1.0;"/><line style="stroke:#181818;stroke-width:1.0;" x1="691.5" x2="1142" y1="628.8125" y2="628.8125"/><text fill="#000000" font-family="sans-serif" font-size="13" font-weight="bold" lengthAdjust="spacing" textLength="14" x="698.5" y="623.9561">13</text><text fill="#000000" font-family="sans-serif" font-size="13" lengthAdjust="spacing" textLength="252" x="716.5" y="623.9561">list = findSurveyAnswerBySurvey(survey_id)</text><polygon fill="#181818" points="432.5,685.1641,422.5,689.1641,432.5,693.1641,428.5,689.1641" style="stroke:#181818;stroke-width:1.0;"/><line style="stroke:#181818;stroke-width:1.0;stroke-dasharray:2.0,2.0;" x1="426.5" x2="685.5" y1="689.1641" y2="689.1641"/><text fill="#000000" font-family="sans-serif" font-size="13" font-weight="bold" lengthAdjust="spacing" textLength="14" x="438.5" y="684.3076">14</text><text fill="#000000" font-family="sans-serif" font-size="13" lengthAdjust="spacing" textLength="113" x="456.5" y="684.3076">commonInformation</text><polygon fill="#181818" points="71.5,715.5156,61.5,719.5156,71.5,723.5156,67.5,719.5156" style="stroke:#181818;stroke-width:1.0;"/><line style="stroke:#181818;stroke-width:1.0;stroke-dasharray:2.0,2.0;" x1="65.5" x2="410.5" y1="719.5156" y2="719.5156"/><text fill="#000000" font-family="sans-serif" font-size="13" font-weight="bold" lengthAdjust="spacing" textLength="14" x="77.5" y="714.6592">15</text><text fill="#000000" font-family="sans-serif" font-size="13" lengthAdjust="spacing" textLength="158" x="95.5" y="714.6592">shows common information</text><polygon fill="#181818" points="669.5,745.8672,679.5,749.8672,669.5,753.8672,673.5,749.8672" style="stroke:#181818;stroke-width:1.0;"/><line style="stroke:#181818;stroke-width:1.0;" x1="421.5" x2="675.5" y1="749.8672" y2="749.8672"/><text fill="#000000" font-family="sans-serif" font-size="13" font-weight="bold" lengthAdjust="spacing" textLength="14" x="428.5" y="745.0107">16</text><text fill="#000000" font-family="sans-serif" font-size="13" lengthAdjust="spacing" textLength="98" x="446.5" y="745.0107">getQuestionInfo()</text><polygon fill="#181818" points="432.5,776.2188,422.5,780.2188,432.5,784.2188,428.5,780.2188" style="stroke:#181818;stroke-width:1.0;"/><line style="stroke:#181818;stroke-width:1.0;stroke-dasharray:2.0,2.0;" x1="426.5" x2="685.5" y1="780.2188" y2="780.2188"/><text fill="#000000" font-family="sans-serif" font-size="13" font-weight="bold" lengthAdjust="spacing" textLength="14" x="438.5" y="775.3623">17</text><text fill="#000000" font-family="sans-serif" font-size="13" lengthAdjust="spacing" textLength="112" x="456.5" y="775.3623">questionInformation</text><polygon fill="#181818" points="66.5,806.5703,56.5,810.5703,66.5,814.5703,62.5,810.5703" style="stroke:#181818;stroke-width:1.0;"/><line style="stroke:#181818;stroke-width:1.0;stroke-dasharray:2.0,2.0;" x1="60.5" x2="415.5" y1="810.5703" y2="810.5703"/><text fill="#000000" font-family="sans-serif" font-size="13" font-weight="bold" lengthAdjust="spacing" textLength="14" x="72.5" y="805.7139">18</text><text fill="#000000" font-family="sans-serif" font-size="13" lengthAdjust="spacing" textLength="153" x="90.5" y="805.7139">shows questionInformation</text><!--MD5=[c29b58ebac5bb921bde034c0ec8d2a4d]
@startuml
autonumber
'hide footbox
actor "Sales Manager" as SM

participant ":ShowReportUI" as UI
participant ":ShowReportController" as CTRL
participant ":PersistenceContext" as PC
participant ":SurveyRepository" as SR
participant ":SurveyAnswerRepository" as SAR
participant ":CustomerRepository" as CR



autonumber
activate SM

SM -> UI: I want to see a statistical report about the questionaires
activate UI
UI -> CTRL : getSurveyList()
activate CTRL
CTRL -> PC : repositories()

activate PC
ref over PC
CustomerRepository_SD
SurveyRepository_SD
SurveyAnswerRepository_SD
end ref
PC - -> CTRL
deactivate PC

CTRL -> SR : findAll()
activate SR
SR - -> CTRL : surveyList
deactivate SR

CTRL -> CTRL: toDto(surveyList)
activate CTRL
deactivate CTRL

CTRL - -> UI : surveyListDto

deactivate CTRL
UI - -> SM: asks to select the needed data (the intended survey)
deactivate UI

SM -> UI: select requested data
activate UI

UI -> CTRL : getCommonInformation(long survey_id)
activate CTRL
CTRL -> SR : survey = findSurveyByID(survey_id)
activate SR
deactivate SR
CTRL -> SAR : list = findSurveyAnswerBySurvey(survey_id)
activate SAR
deactivate SAR
CTRL - -> UI : commonInformation
deactivate CTRL

UI - -> SM: shows common information
UI -> CTRL : getQuestionInfo()
activate CTRL
CTRL - -> UI :questionInformation
deactivate CTRL

UI - -> SM: shows questionInformation
deactivate UI















deactivate SM
@enduml

@startuml
autonumber
actor "Sales Manager" as SM

participant ":ShowReportUI" as UI
participant ":ShowReportController" as CTRL
participant ":PersistenceContext" as PC
participant ":SurveyRepository" as SR
participant ":SurveyAnswerRepository" as SAR
participant ":CustomerRepository" as CR



autonumber
activate SM

SM -> UI: I want to see a statistical report about the questionaires
activate UI
UI -> CTRL : getSurveyList()
activate CTRL
CTRL -> PC : repositories()

activate PC
ref over PC
CustomerRepository_SD
SurveyRepository_SD
SurveyAnswerRepository_SD
end ref
PC - -> CTRL
deactivate PC

CTRL -> SR : findAll()
activate SR
SR - -> CTRL : surveyList
deactivate SR

CTRL -> CTRL: toDto(surveyList)
activate CTRL
deactivate CTRL

CTRL - -> UI : surveyListDto

deactivate CTRL
UI - -> SM: asks to select the needed data (the intended survey)
deactivate UI

SM -> UI: select requested data
activate UI

UI -> CTRL : getCommonInformation(long survey_id)
activate CTRL
CTRL -> SR : survey = findSurveyByID(survey_id)
activate SR
deactivate SR
CTRL -> SAR : list = findSurveyAnswerBySurvey(survey_id)
activate SAR
deactivate SAR
CTRL - -> UI : commonInformation
deactivate CTRL

UI - -> SM: shows common information
UI -> CTRL : getQuestionInfo()
activate CTRL
CTRL - -> UI :questionInformation
deactivate CTRL

UI - -> SM: shows questionInformation
deactivate UI















deactivate SM
@enduml

PlantUML version 1.2022.4(Sat Apr 09 14:29:17 BST 2022)
(GPL source distribution)
Java Runtime: OpenJDK Runtime Environment
JVM: OpenJDK 64-Bit Server VM
Default Encoding: Cp1252
Language: pt
Country: PT
--></g></svg>