<?xml version="1.0" encoding="UTF-8" standalone="no"?><svg xmlns="http://www.w3.org/2000/svg" xmlns:xlink="http://www.w3.org/1999/xlink" contentStyleType="text/css" height="853px" preserveAspectRatio="none" style="width:2123px;height:853px;background:#FFFFFF;" version="1.1" viewBox="0 0 2123 853" width="2123px" zoomAndPan="magnify"><defs/><g><rect fill="#FFFFFF" height="661.0078" style="stroke:#181818;stroke-width:1.0;" width="10" x="72.5" y="92.6094"/><rect fill="#FFFFFF" height="30.3516" style="stroke:#181818;stroke-width:1.0;" width="10" x="454.5" y="114.9609"/><rect fill="#FFFFFF" height="577.9531" style="stroke:#181818;stroke-width:1.0;" width="10" x="454.5" y="175.6641"/><rect fill="#FFFFFF" height="517.25" style="stroke:#181818;stroke-width:1.0;" width="10" x="596.5" y="206.0156"/><rect fill="#FFFFFF" height="260.2344" style="stroke:#181818;stroke-width:1.0;" width="10" x="601.5" y="244.3672"/><rect fill="#FFFFFF" height="90.7031" style="stroke:#181818;stroke-width:1.0;" width="10" x="778.5" y="547.2109"/><rect fill="#FFFFFF" height="60.3516" style="stroke:#181818;stroke-width:1.0;" width="10" x="925.5" y="577.5625"/><rect fill="#FFFFFF" height="30" style="stroke:#181818;stroke-width:1.0;" width="10" x="1082" y="607.9141"/><rect fill="#FFFFFF" height="30" style="stroke:#181818;stroke-width:1.0;" width="10" x="1082" y="693.2656"/><rect height="135.9219" style="stroke:#000000;stroke-width:1.5;fill:none;" width="846.5" x="503" y="264.3672"/><rect height="60.9609" style="stroke:#000000;stroke-width:1.5;fill:none;" width="749.5" x="513" y="289.7188"/><rect height="60.9609" style="stroke:#000000;stroke-width:1.5;fill:none;" width="987.5" x="513" y="414.2891"/><line style="stroke:#181818;stroke-width:0.5;fill:none;stroke-dasharray:5.0,5.0;" x1="77" x2="77" y1="82.6094" y2="771.6172"/><line style="stroke:#181818;stroke-width:0.5;fill:none;stroke-dasharray:5.0,5.0;" x1="459" x2="459" y1="82.6094" y2="771.6172"/><line style="stroke:#181818;stroke-width:0.5;fill:none;stroke-dasharray:5.0,5.0;" x1="601" x2="601" y1="82.6094" y2="771.6172"/><line style="stroke:#181818;stroke-width:0.5;fill:none;stroke-dasharray:5.0,5.0;" x1="783.5" x2="783.5" y1="82.6094" y2="771.6172"/><line style="stroke:#181818;stroke-width:0.5;fill:none;stroke-dasharray:5.0,5.0;" x1="930.5" x2="930.5" y1="82.6094" y2="771.6172"/><line style="stroke:#181818;stroke-width:0.5;fill:none;stroke-dasharray:5.0,5.0;" x1="1086.5" x2="1086.5" y1="82.6094" y2="771.6172"/><line style="stroke:#181818;stroke-width:0.5;fill:none;stroke-dasharray:5.0,5.0;" x1="1214.5" x2="1214.5" y1="339.375" y2="771.6172"/><line style="stroke:#181818;stroke-width:0.5;fill:none;stroke-dasharray:5.0,5.0;" x1="1300.5" x2="1300.5" y1="388.9844" y2="771.6172"/><line style="stroke:#181818;stroke-width:0.5;fill:none;stroke-dasharray:5.0,5.0;" x1="1419.5" x2="1419.5" y1="463.9453" y2="771.6172"/><line style="stroke:#181818;stroke-width:0.5;fill:none;stroke-dasharray:5.0,5.0;" x1="1580.5" x2="1580.5" y1="513.5547" y2="771.6172"/><line style="stroke:#181818;stroke-width:0.5;fill:none;stroke-dasharray:5.0,5.0;" x1="1730.5" x2="1730.5" y1="82.6094" y2="771.6172"/><line style="stroke:#181818;stroke-width:0.5;fill:none;stroke-dasharray:5.0,5.0;" x1="1860.5" x2="1860.5" y1="82.6094" y2="771.6172"/><line style="stroke:#181818;stroke-width:0.5;fill:none;stroke-dasharray:5.0,5.0;" x1="2024.5" x2="2024.5" y1="82.6094" y2="771.6172"/><text fill="#000000" font-family="sans-serif" font-size="14" lengthAdjust="spacing" textLength="139" x="5" y="79.5332">Warehouse Employee</text><ellipse cx="77.5" cy="13.5" fill="#E2E2F0" rx="8" ry="8" style="stroke:#181818;stroke-width:0.5;"/><path d="M77.5,21.5 L77.5,48.5 M64.5,29.5 L90.5,29.5 M77.5,48.5 L64.5,63.5 M77.5,48.5 L90.5,63.5 " fill="none" style="stroke:#181818;stroke-width:0.5;"/><text fill="#000000" font-family="sans-serif" font-size="14" lengthAdjust="spacing" textLength="139" x="5" y="785.1504">Warehouse Employee</text><ellipse cx="77.5" cy="796.7266" fill="#E2E2F0" rx="8" ry="8" style="stroke:#181818;stroke-width:0.5;"/><path d="M77.5,804.7266 L77.5,831.7266 M64.5,812.7266 L90.5,812.7266 M77.5,831.7266 L64.5,846.7266 M77.5,831.7266 L90.5,846.7266 " fill="none" style="stroke:#181818;stroke-width:0.5;"/><rect fill="#E2E2F0" height="31.6094" rx="2.5" ry="2.5" style="stroke:#181818;stroke-width:0.5;" width="107" x="406" y="50"/><text fill="#000000" font-family="sans-serif" font-size="14" lengthAdjust="spacing" textLength="93" x="413" y="71.5332">:AddJsonFileUI</text><rect fill="#E2E2F0" height="31.6094" rx="2.5" ry="2.5" style="stroke:#181818;stroke-width:0.5;" width="107" x="406" y="770.6172"/><text fill="#000000" font-family="sans-serif" font-size="14" lengthAdjust="spacing" textLength="93" x="413" y="792.1504">:AddJsonFileUI</text><rect fill="#E2E2F0" height="31.6094" rx="2.5" ry="2.5" style="stroke:#181818;stroke-width:0.5;" width="157" x="523" y="50"/><text fill="#000000" font-family="sans-serif" font-size="14" lengthAdjust="spacing" textLength="143" x="530" y="71.5332">:AddJsonFileController</text><rect fill="#E2E2F0" height="31.6094" rx="2.5" ry="2.5" style="stroke:#181818;stroke-width:0.5;" width="157" x="523" y="770.6172"/><text fill="#000000" font-family="sans-serif" font-size="14" lengthAdjust="spacing" textLength="143" x="530" y="792.1504">:AddJsonFileController</text><rect fill="#E2E2F0" height="31.6094" rx="2.5" ry="2.5" style="stroke:#181818;stroke-width:0.5;" width="140" x="713.5" y="50"/><text fill="#000000" font-family="sans-serif" font-size="14" lengthAdjust="spacing" textLength="126" x="720.5" y="71.5332">:PersistenceContext</text><rect fill="#E2E2F0" height="31.6094" rx="2.5" ry="2.5" style="stroke:#181818;stroke-width:0.5;" width="140" x="713.5" y="770.6172"/><text fill="#000000" font-family="sans-serif" font-size="14" lengthAdjust="spacing" textLength="126" x="720.5" y="792.1504">:PersistenceContext</text><rect fill="#E2E2F0" height="31.6094" rx="2.5" ry="2.5" style="stroke:#181818;stroke-width:0.5;" width="134" x="863.5" y="50"/><text fill="#000000" font-family="sans-serif" font-size="14" lengthAdjust="spacing" textLength="120" x="870.5" y="71.5332">:RepositoryFactory</text><rect fill="#E2E2F0" height="31.6094" rx="2.5" ry="2.5" style="stroke:#181818;stroke-width:0.5;" width="134" x="863.5" y="770.6172"/><text fill="#000000" font-family="sans-serif" font-size="14" lengthAdjust="spacing" textLength="120" x="870.5" y="792.1504">:RepositoryFactory</text><rect fill="#E2E2F0" height="31.6094" rx="2.5" ry="2.5" style="stroke:#181818;stroke-width:0.5;" width="159" x="1007.5" y="50"/><text fill="#000000" font-family="sans-serif" font-size="14" lengthAdjust="spacing" textLength="145" x="1014.5" y="71.5332">:WarehouseRepository</text><rect fill="#E2E2F0" height="31.6094" rx="2.5" ry="2.5" style="stroke:#181818;stroke-width:0.5;" width="159" x="1007.5" y="770.6172"/><text fill="#000000" font-family="sans-serif" font-size="14" lengthAdjust="spacing" textLength="145" x="1014.5" y="792.1504">:WarehouseRepository</text><rect fill="#E2E2F0" height="31.6094" rx="2.5" ry="2.5" style="stroke:#181818;stroke-width:0.5;" width="76" x="1176.5" y="770.6172"/><text fill="#000000" font-family="sans-serif" font-size="14" lengthAdjust="spacing" textLength="62" x="1183.5" y="792.1504">row:Roww</text><rect fill="#E2E2F0" height="31.6094" rx="2.5" ry="2.5" style="stroke:#181818;stroke-width:0.5;" width="77" x="1262.5" y="770.6172"/><text fill="#000000" font-family="sans-serif" font-size="14" lengthAdjust="spacing" textLength="63" x="1269.5" y="792.1504">aisle:Aisle</text><rect fill="#E2E2F0" height="31.6094" rx="2.5" ry="2.5" style="stroke:#181818;stroke-width:0.5;" width="141" x="1349.5" y="770.6172"/><text fill="#000000" font-family="sans-serif" font-size="14" lengthAdjust="spacing" textLength="127" x="1356.5" y="792.1504">agvDock:AGVDocks</text><rect fill="#E2E2F0" height="31.6094" rx="2.5" ry="2.5" style="stroke:#181818;stroke-width:0.5;" width="160" x="1500.5" y="770.6172"/><text fill="#000000" font-family="sans-serif" font-size="14" lengthAdjust="spacing" textLength="146" x="1507.5" y="792.1504">warehouse:Warehouse</text><rect fill="#E2E2F0" height="31.6094" rx="2.5" ry="2.5" style="stroke:#181818;stroke-width:0.5;" width="120" x="1670.5" y="50"/><text fill="#000000" font-family="sans-serif" font-size="14" lengthAdjust="spacing" textLength="106" x="1677.5" y="71.5332">rows:Set&lt;Roww&gt;</text><rect fill="#E2E2F0" height="31.6094" rx="2.5" ry="2.5" style="stroke:#181818;stroke-width:0.5;" width="120" x="1670.5" y="770.6172"/><text fill="#000000" font-family="sans-serif" font-size="14" lengthAdjust="spacing" textLength="106" x="1677.5" y="792.1504">rows:Set&lt;Roww&gt;</text><rect fill="#E2E2F0" height="31.6094" rx="2.5" ry="2.5" style="stroke:#181818;stroke-width:0.5;" width="121" x="1800.5" y="50"/><text fill="#000000" font-family="sans-serif" font-size="14" lengthAdjust="spacing" textLength="107" x="1807.5" y="71.5332">aisles:Set&lt;Aisle&gt;</text><rect fill="#E2E2F0" height="31.6094" rx="2.5" ry="2.5" style="stroke:#181818;stroke-width:0.5;" width="121" x="1800.5" y="770.6172"/><text fill="#000000" font-family="sans-serif" font-size="14" lengthAdjust="spacing" textLength="107" x="1807.5" y="792.1504">aisles:Set&lt;Aisle&gt;</text><rect fill="#E2E2F0" height="31.6094" rx="2.5" ry="2.5" style="stroke:#181818;stroke-width:0.5;" width="186" x="1931.5" y="50"/><text fill="#000000" font-family="sans-serif" font-size="14" lengthAdjust="spacing" textLength="172" x="1938.5" y="71.5332">agvDocks:List&lt;AGVDocks&gt;</text><rect fill="#E2E2F0" height="31.6094" rx="2.5" ry="2.5" style="stroke:#181818;stroke-width:0.5;" width="186" x="1931.5" y="770.6172"/><text fill="#000000" font-family="sans-serif" font-size="14" lengthAdjust="spacing" textLength="172" x="1938.5" y="792.1504">agvDocks:List&lt;AGVDocks&gt;</text><rect fill="#FFFFFF" height="661.0078" style="stroke:#181818;stroke-width:1.0;" width="10" x="72.5" y="92.6094"/><rect fill="#FFFFFF" height="30.3516" style="stroke:#181818;stroke-width:1.0;" width="10" x="454.5" y="114.9609"/><rect fill="#FFFFFF" height="577.9531" style="stroke:#181818;stroke-width:1.0;" width="10" x="454.5" y="175.6641"/><rect fill="#FFFFFF" height="517.25" style="stroke:#181818;stroke-width:1.0;" width="10" x="596.5" y="206.0156"/><rect fill="#FFFFFF" height="260.2344" style="stroke:#181818;stroke-width:1.0;" width="10" x="601.5" y="244.3672"/><rect fill="#FFFFFF" height="90.7031" style="stroke:#181818;stroke-width:1.0;" width="10" x="778.5" y="547.2109"/><rect fill="#FFFFFF" height="60.3516" style="stroke:#181818;stroke-width:1.0;" width="10" x="925.5" y="577.5625"/><rect fill="#FFFFFF" height="30" style="stroke:#181818;stroke-width:1.0;" width="10" x="1082" y="607.9141"/><rect fill="#FFFFFF" height="30" style="stroke:#181818;stroke-width:1.0;" width="10" x="1082" y="693.2656"/><polygon fill="#181818" points="442.5,110.9609,452.5,114.9609,442.5,118.9609,446.5,114.9609" style="stroke:#181818;stroke-width:1.0;"/><line style="stroke:#181818;stroke-width:1.0;" x1="82.5" x2="448.5" y1="114.9609" y2="114.9609"/><text fill="#000000" font-family="sans-serif" font-size="13" font-weight="bold" lengthAdjust="spacing" textLength="7" x="89.5" y="110.1045">1</text><text fill="#000000" font-family="sans-serif" font-size="13" lengthAdjust="spacing" textLength="342" x="100.5" y="110.1045">ask to set up the warehouse plant by uploading a JSON file</text><polygon fill="#181818" points="93.5,141.3125,83.5,145.3125,93.5,149.3125,89.5,145.3125" style="stroke:#181818;stroke-width:1.0;"/><line style="stroke:#181818;stroke-width:1.0;stroke-dasharray:2.0,2.0;" x1="87.5" x2="458.5" y1="145.3125" y2="145.3125"/><text fill="#000000" font-family="sans-serif" font-size="13" font-weight="bold" lengthAdjust="spacing" textLength="7" x="99.5" y="140.4561">2</text><text fill="#000000" font-family="sans-serif" font-size="13" lengthAdjust="spacing" textLength="130" x="110.5" y="140.4561">request data(fileName)</text><polygon fill="#181818" points="442.5,171.6641,452.5,175.6641,442.5,179.6641,446.5,175.6641" style="stroke:#181818;stroke-width:1.0;"/><line style="stroke:#181818;stroke-width:1.0;" x1="82.5" x2="448.5" y1="175.6641" y2="175.6641"/><text fill="#000000" font-family="sans-serif" font-size="13" font-weight="bold" lengthAdjust="spacing" textLength="7" x="89.5" y="170.8076">3</text><text fill="#000000" font-family="sans-serif" font-size="13" lengthAdjust="spacing" textLength="122" x="100.5" y="170.8076">types requested data</text><polygon fill="#181818" points="584.5,202.0156,594.5,206.0156,584.5,210.0156,588.5,206.0156" style="stroke:#181818;stroke-width:1.0;"/><line style="stroke:#181818;stroke-width:1.0;" x1="464.5" x2="590.5" y1="206.0156" y2="206.0156"/><text fill="#000000" font-family="sans-serif" font-size="13" font-weight="bold" lengthAdjust="spacing" textLength="7" x="471.5" y="201.1592">4</text><text fill="#000000" font-family="sans-serif" font-size="13" lengthAdjust="spacing" textLength="93" x="482.5" y="201.1592">addJsonFile(file)</text><line style="stroke:#181818;stroke-width:1.0;" x1="606.5" x2="653.5" y1="231.3672" y2="231.3672"/><line style="stroke:#181818;stroke-width:1.0;" x1="653.5" x2="653.5" y1="231.3672" y2="244.3672"/><line style="stroke:#181818;stroke-width:1.0;" x1="612.5" x2="653.5" y1="244.3672" y2="244.3672"/><polygon fill="#181818" points="622.5,240.3672,612.5,244.3672,622.5,248.3672,618.5,244.3672" style="stroke:#181818;stroke-width:1.0;"/><text fill="#000000" font-family="sans-serif" font-size="13" font-weight="bold" lengthAdjust="spacing" textLength="7" x="618.5" y="226.5107">5</text><text fill="#000000" font-family="sans-serif" font-size="13" lengthAdjust="spacing" textLength="147" x="629.5" y="226.5107">WarehousefromJsonFile()</text><path d="M503,264.3672 L576,264.3672 L576,272.7188 L566,282.7188 L503,282.7188 L503,264.3672 " fill="#EEEEEE" style="stroke:#000000;stroke-width:1.5;"/><rect fill="none" height="135.9219" style="stroke:#000000;stroke-width:1.5;" width="846.5" x="503" y="264.3672"/><text fill="#000000" font-family="sans-serif" font-size="13" font-weight="bold" lengthAdjust="spacing" textLength="28" x="518" y="278.8623">loop</text><path d="M513,289.7188 L586,289.7188 L586,298.0703 L576,308.0703 L513,308.0703 L513,289.7188 " fill="#EEEEEE" style="stroke:#000000;stroke-width:1.5;"/><rect fill="none" height="60.9609" style="stroke:#000000;stroke-width:1.5;" width="749.5" x="513" y="289.7188"/><text fill="#000000" font-family="sans-serif" font-size="13" font-weight="bold" lengthAdjust="spacing" textLength="28" x="528" y="304.2139">loop</text><polygon fill="#181818" points="1164.5,326.4219,1174.5,330.4219,1164.5,334.4219,1168.5,330.4219" style="stroke:#181818;stroke-width:1.0;"/><line style="stroke:#181818;stroke-width:1.0;" x1="611.5" x2="1170.5" y1="330.4219" y2="330.4219"/><text fill="#000000" font-family="sans-serif" font-size="13" font-weight="bold" lengthAdjust="spacing" textLength="7" x="618.5" y="325.5654">6</text><text fill="#000000" font-family="sans-serif" font-size="13" lengthAdjust="spacing" textLength="418" x="629.5" y="325.5654">row = create(rowid,warehouseid,aisleid,beginl,beginw,endl,endw,shelves)</text><rect fill="#E2E2F0" height="31.6094" rx="2.5" ry="2.5" style="stroke:#181818;stroke-width:0.5;" width="76" x="1176.5" y="308.0703"/><text fill="#000000" font-family="sans-serif" font-size="14" lengthAdjust="spacing" textLength="62" x="1183.5" y="329.6035">row:Roww</text><polygon fill="#181818" points="1250.5,376.0313,1260.5,380.0313,1250.5,384.0313,1254.5,380.0313" style="stroke:#181818;stroke-width:1.0;"/><line style="stroke:#181818;stroke-width:1.0;" x1="611.5" x2="1256.5" y1="380.0313" y2="380.0313"/><text fill="#000000" font-family="sans-serif" font-size="13" font-weight="bold" lengthAdjust="spacing" textLength="7" x="618.5" y="375.1748">7</text><text fill="#000000" font-family="sans-serif" font-size="13" lengthAdjust="spacing" textLength="535" x="629.5" y="375.1748">aisle = create(warehouseid,aisleid,beginl,beginw,endl,endw,depthl,depthw,accessibility,rows)</text><rect fill="#E2E2F0" height="31.6094" rx="2.5" ry="2.5" style="stroke:#181818;stroke-width:0.5;" width="77" x="1262.5" y="357.6797"/><text fill="#000000" font-family="sans-serif" font-size="14" lengthAdjust="spacing" textLength="63" x="1269.5" y="379.2129">aisle:Aisle</text><path d="M513,414.2891 L586,414.2891 L586,422.6406 L576,432.6406 L513,432.6406 L513,414.2891 " fill="#EEEEEE" style="stroke:#000000;stroke-width:1.5;"/><rect fill="none" height="60.9609" style="stroke:#000000;stroke-width:1.5;" width="987.5" x="513" y="414.2891"/><text fill="#000000" font-family="sans-serif" font-size="13" font-weight="bold" lengthAdjust="spacing" textLength="28" x="528" y="428.7842">loop</text><polygon fill="#181818" points="1337.5,450.9922,1347.5,454.9922,1337.5,458.9922,1341.5,454.9922" style="stroke:#181818;stroke-width:1.0;"/><line style="stroke:#181818;stroke-width:1.0;" x1="611.5" x2="1343.5" y1="454.9922" y2="454.9922"/><text fill="#000000" font-family="sans-serif" font-size="13" font-weight="bold" lengthAdjust="spacing" textLength="7" x="618.5" y="450.1357">8</text><text fill="#000000" font-family="sans-serif" font-size="13" lengthAdjust="spacing" textLength="430" x="629.5" y="450.1357">agvDocks = create(id,beginl,beginw,endl,endw,depthl,depthw,accessibility)</text><rect fill="#E2E2F0" height="31.6094" rx="2.5" ry="2.5" style="stroke:#181818;stroke-width:0.5;" width="141" x="1349.5" y="432.6406"/><text fill="#000000" font-family="sans-serif" font-size="14" lengthAdjust="spacing" textLength="127" x="1356.5" y="454.1738">agvDock:AGVDocks</text><polygon fill="#181818" points="1488.5,500.6016,1498.5,504.6016,1488.5,508.6016,1492.5,504.6016" style="stroke:#181818;stroke-width:1.0;"/><line style="stroke:#181818;stroke-width:1.0;" x1="606.5" x2="1494.5" y1="504.6016" y2="504.6016"/><text fill="#000000" font-family="sans-serif" font-size="13" font-weight="bold" lengthAdjust="spacing" textLength="7" x="613.5" y="499.7451">9</text><text fill="#000000" font-family="sans-serif" font-size="13" lengthAdjust="spacing" textLength="423" x="624.5" y="499.7451">warehouse = create(warehouse,length,width,square,unit,aisles,agvDocks)</text><rect fill="#E2E2F0" height="31.6094" rx="2.5" ry="2.5" style="stroke:#181818;stroke-width:0.5;" width="160" x="1500.5" y="482.25"/><text fill="#000000" font-family="sans-serif" font-size="14" lengthAdjust="spacing" textLength="146" x="1507.5" y="503.7832">warehouse:Warehouse</text><polygon fill="#181818" points="766.5,543.2109,776.5,547.2109,766.5,551.2109,770.5,547.2109" style="stroke:#181818;stroke-width:1.0;"/><line style="stroke:#181818;stroke-width:1.0;" x1="606.5" x2="772.5" y1="547.2109" y2="547.2109"/><text fill="#000000" font-family="sans-serif" font-size="13" font-weight="bold" lengthAdjust="spacing" textLength="14" x="613.5" y="542.3545">10</text><text fill="#000000" font-family="sans-serif" font-size="13" lengthAdjust="spacing" textLength="75" x="631.5" y="542.3545">repositories()</text><polygon fill="#181818" points="913.5,573.5625,923.5,577.5625,913.5,581.5625,917.5,577.5625" style="stroke:#181818;stroke-width:1.0;"/><line style="stroke:#181818;stroke-width:1.0;" x1="788.5" x2="919.5" y1="577.5625" y2="577.5625"/><text fill="#000000" font-family="sans-serif" font-size="13" font-weight="bold" lengthAdjust="spacing" textLength="14" x="795.5" y="572.7061">11</text><text fill="#000000" font-family="sans-serif" font-size="13" lengthAdjust="spacing" textLength="44" x="813.5" y="572.7061">create()</text><polygon fill="#181818" points="1070,603.9141,1080,607.9141,1070,611.9141,1074,607.9141" style="stroke:#181818;stroke-width:1.0;"/><line style="stroke:#181818;stroke-width:1.0;" x1="935.5" x2="1076" y1="607.9141" y2="607.9141"/><text fill="#000000" font-family="sans-serif" font-size="13" font-weight="bold" lengthAdjust="spacing" textLength="14" x="942.5" y="603.0576">12</text><text fill="#000000" font-family="sans-serif" font-size="13" lengthAdjust="spacing" textLength="44" x="960.5" y="603.0576">create()</text><polygon fill="#181818" points="1070,689.2656,1080,693.2656,1070,697.2656,1074,693.2656" style="stroke:#181818;stroke-width:1.0;"/><line style="stroke:#181818;stroke-width:1.0;" x1="606.5" x2="1076" y1="693.2656" y2="693.2656"/><text fill="#000000" font-family="sans-serif" font-size="13" font-weight="bold" lengthAdjust="spacing" textLength="14" x="613.5" y="688.4092">13</text><text fill="#000000" font-family="sans-serif" font-size="13" lengthAdjust="spacing" textLength="96" x="631.5" y="688.4092">save(warehouse)</text><polygon fill="#181818" points="88.5,749.6172,78.5,753.6172,88.5,757.6172,84.5,753.6172" style="stroke:#181818;stroke-width:1.0;"/><line style="stroke:#181818;stroke-width:1.0;stroke-dasharray:2.0,2.0;" x1="82.5" x2="458.5" y1="753.6172" y2="753.6172"/><text fill="#000000" font-family="sans-serif" font-size="13" font-weight="bold" lengthAdjust="spacing" textLength="14" x="94.5" y="748.7607">14</text><text fill="#000000" font-family="sans-serif" font-size="13" lengthAdjust="spacing" textLength="159" x="112.5" y="748.7607">informs operations success</text><!--MD5=[d645e0fffde3912a5cfd6faa94e05c6c]
@startuml
autonumber
'hide footbox
actor "Warehouse Employee" as WE

participant ":AddJsonFileUI" as UI
participant ":AddJsonFileController" as CTRL
participant ":PersistenceContext" as PC
participant ":RepositoryFactory" as RF
participant ":WarehouseRepository" as WR
participant "row:Roww" as R
participant "aisle:Aisle" as A
participant "agvDock:AGVDocks" as AD
participant "warehouse:Warehouse" as W
participant "rows:Set<Roww>" as SR
participant "aisles:Set<Aisle>" as SA
participant "agvDocks:List<AGVDocks>" as SAD





activate WE
WE -> UI :ask to set up the warehouse plant by uploading a JSON file
activate UI
UI - -> WE : request data(fileName)
deactivate UI

WE -> UI : types requested data
activate UI

UI -> CTRL : addJsonFile(file)
activate CTRL

CTRL -> CTRL : WarehousefromJsonFile()
activate CTRL
loop
loop
CTRL -> R** : row = create(rowid,warehouseid,aisleid,beginl,beginw,endl,endw,shelves)
end
CTRL -> A** : aisle = create(warehouseid,aisleid,beginl,beginw,endl,endw,depthl,depthw,accessibility,rows)
end
loop
CTRL -> AD** : agvDocks = create(id,beginl,beginw,endl,endw,depthl,depthw,accessibility)
end
CTRL -> W** : warehouse = create(warehouse,length,width,square,unit,aisles,agvDocks)
deactivate CTRL
CTRL -> PC : repositories()
activate PC
PC -> RF : create()
activate RF
RF -> WR : create()
activate WR
deactivate WR
deactivate RF
|||
deactivate PC

CTRL -> WR : save(warehouse)
activate WR
deactivate WR
deactivate CTRL
UI - -> WE : informs operations success
deactivate UI


deactivate WE
@enduml

@startuml
autonumber
actor "Warehouse Employee" as WE

participant ":AddJsonFileUI" as UI
participant ":AddJsonFileController" as CTRL
participant ":PersistenceContext" as PC
participant ":RepositoryFactory" as RF
participant ":WarehouseRepository" as WR
participant "row:Roww" as R
participant "aisle:Aisle" as A
participant "agvDock:AGVDocks" as AD
participant "warehouse:Warehouse" as W
participant "rows:Set<Roww>" as SR
participant "aisles:Set<Aisle>" as SA
participant "agvDocks:List<AGVDocks>" as SAD





activate WE
WE -> UI :ask to set up the warehouse plant by uploading a JSON file
activate UI
UI - -> WE : request data(fileName)
deactivate UI

WE -> UI : types requested data
activate UI

UI -> CTRL : addJsonFile(file)
activate CTRL

CTRL -> CTRL : WarehousefromJsonFile()
activate CTRL
loop
loop
CTRL -> R** : row = create(rowid,warehouseid,aisleid,beginl,beginw,endl,endw,shelves)
end
CTRL -> A** : aisle = create(warehouseid,aisleid,beginl,beginw,endl,endw,depthl,depthw,accessibility,rows)
end
loop
CTRL -> AD** : agvDocks = create(id,beginl,beginw,endl,endw,depthl,depthw,accessibility)
end
CTRL -> W** : warehouse = create(warehouse,length,width,square,unit,aisles,agvDocks)
deactivate CTRL
CTRL -> PC : repositories()
activate PC
PC -> RF : create()
activate RF
RF -> WR : create()
activate WR
deactivate WR
deactivate RF
|||
deactivate PC

CTRL -> WR : save(warehouse)
activate WR
deactivate WR
deactivate CTRL
UI - -> WE : informs operations success
deactivate UI


deactivate WE
@enduml

PlantUML version 1.2022.4(Sat Apr 09 14:29:17 BST 2022)
(GPL source distribution)
Java Runtime: OpenJDK Runtime Environment
JVM: OpenJDK 64-Bit Server VM
Default Encoding: Cp1252
Language: pt
Country: PT
--></g></svg>