<?xml version="1.0" encoding="UTF-8" standalone="no"?><svg xmlns="http://www.w3.org/2000/svg" xmlns:xlink="http://www.w3.org/1999/xlink" contentStyleType="text/css" height="1246px" preserveAspectRatio="none" style="width:717px;height:1246px;background:#FFFFFF;" version="1.1" viewBox="0 0 717 1246" width="717px" zoomAndPan="magnify"><defs/><g><!--MD5=[54ae7ce482b94e789eb1fedc8ac7dd67]
cluster warehouse--><g id="cluster_warehouse"><path d="M8.5,6 L87.5,6 A3.75,3.75 0 0 1 90,8.5 L97,29.6094 L707.5,29.6094 A2.5,2.5 0 0 1 710,32.1094 L710,1236.5 A2.5,2.5 0 0 1 707.5,1239 L8.5,1239 A2.5,2.5 0 0 1 6,1236.5 L6,8.5 A2.5,2.5 0 0 1 8.5,6 " style="stroke:#000000;stroke-width:1.5;fill:none;"/><line style="stroke:#000000;stroke-width:1.5;fill:none;" x1="6" x2="97" y1="29.6094" y2="29.6094"/><text fill="#000000" font-family="sans-serif" font-size="14" font-weight="bold" lengthAdjust="spacing" textLength="78" x="10" y="22.5332">warehouse</text></g><!--MD5=[c5149b4909ffd2688ff51a939867f774]
class Warehouse--><g id="elem_Warehouse"><rect codeLine="6" fill="#F1F1F1" height="50.7031" id="Warehouse" rx="2.5" ry="2.5" style="stroke:#181818;stroke-width:0.5;" width="105" x="317" y="386.5"/><ellipse cx="332" cy="407.8516" fill="#ADD1B2" rx="11" ry="11" style="stroke:#181818;stroke-width:1.0;"/><path d="M334,404.3516 Q334.2031,403.8516 334.4375,403.6016 Q334.6719,403.3516 334.9375,403.3516 Q335.4063,403.3516 335.7031,403.6328 Q336,403.9141 336,404.5703 L336,406.1328 Q336,406.7891 335.7188,407.0703 Q335.4375,407.3516 335,407.3516 Q334.6094,407.3516 334.3594,407.1797 Q334.1094,407.0078 334,406.5547 Q333.9531,406.2422 333.7813,406.0703 Q333.4688,405.7422 332.9063,405.5547 Q332.3438,405.3516 331.7813,405.3516 Q331.0781,405.3516 330.4844,405.6328 Q329.9063,405.9141 329.4531,406.5391 Q329,407.1641 329,408.0234 L329,408.9453 Q329,409.9766 329.8438,410.6641 Q330.6875,411.3516 332.1875,411.3516 Q333.0781,411.3516 333.7031,411.1484 Q334.0625,411.0391 334.4688,410.6797 Q334.7344,410.4766 334.875,410.4141 Q335.0156,410.3516 335.1875,410.3516 Q335.5156,410.3516 335.75,410.6172 Q336,410.8672 336,411.2266 Q336,411.5703 335.6563,411.9766 Q335.1563,412.5703 334.3594,412.8984 Q333.3125,413.3516 332.0313,413.3516 Q330.5313,413.3516 329.3281,412.7578 Q328.3594,412.2891 327.6719,411.2734 Q327,410.2578 327,409.0547 L327,407.9609 Q327,406.7109 327.5938,405.6172 Q328.2031,404.5234 329.25,403.9453 Q330.3125,403.3516 331.5,403.3516 Q332.2188,403.3516 332.8438,403.6016 Q333.4688,403.8516 334,404.3516 Z " fill="#000000"/><text fill="#000000" font-family="sans-serif" font-size="12" font-style="italic" lengthAdjust="spacing" textLength="43" x="361" y="403.957">«entity»</text><text fill="#000000" font-family="sans-serif" font-size="14" lengthAdjust="spacing" textLength="73" x="346" y="421.127">Warehouse</text><line style="stroke:#181818;stroke-width:0.5;" x1="318" x2="421" y1="429.2031" y2="429.2031"/></g><!--MD5=[0a2f0ce5c49321e9082933c32b514ce4]
class Aisle--><g id="elem_Aisle"><rect codeLine="9" fill="#F1F1F1" height="191.5781" id="Aisle" rx="2.5" ry="2.5" style="stroke:#181818;stroke-width:0.5;" width="148" x="546" y="1031"/><ellipse cx="578.55" cy="1052.3516" fill="#ADD1B2" rx="11" ry="11" style="stroke:#181818;stroke-width:1.0;"/><path d="M580.55,1048.8516 Q580.7531,1048.3516 580.9875,1048.1016 Q581.2219,1047.8516 581.4875,1047.8516 Q581.9563,1047.8516 582.2531,1048.1328 Q582.55,1048.4141 582.55,1049.0703 L582.55,1050.6328 Q582.55,1051.2891 582.2688,1051.5703 Q581.9875,1051.8516 581.55,1051.8516 Q581.1594,1051.8516 580.9094,1051.6797 Q580.6594,1051.5078 580.55,1051.0547 Q580.5031,1050.7422 580.3313,1050.5703 Q580.0188,1050.2422 579.4563,1050.0547 Q578.8938,1049.8516 578.3313,1049.8516 Q577.6281,1049.8516 577.0344,1050.1328 Q576.4563,1050.4141 576.0031,1051.0391 Q575.55,1051.6641 575.55,1052.5234 L575.55,1053.4453 Q575.55,1054.4766 576.3938,1055.1641 Q577.2375,1055.8516 578.7375,1055.8516 Q579.6281,1055.8516 580.2531,1055.6484 Q580.6125,1055.5391 581.0188,1055.1797 Q581.2844,1054.9766 581.425,1054.9141 Q581.5656,1054.8516 581.7375,1054.8516 Q582.0656,1054.8516 582.3,1055.1172 Q582.55,1055.3672 582.55,1055.7266 Q582.55,1056.0703 582.2063,1056.4766 Q581.7063,1057.0703 580.9094,1057.3984 Q579.8625,1057.8516 578.5813,1057.8516 Q577.0813,1057.8516 575.8781,1057.2578 Q574.9094,1056.7891 574.2219,1055.7734 Q573.55,1054.7578 573.55,1053.5547 L573.55,1052.4609 Q573.55,1051.2109 574.1438,1050.1172 Q574.7531,1049.0234 575.8,1048.4453 Q576.8625,1047.8516 578.05,1047.8516 Q578.7688,1047.8516 579.3938,1048.1016 Q580.0188,1048.3516 580.55,1048.8516 Z " fill="#000000"/><text fill="#000000" font-family="sans-serif" font-size="12" font-style="italic" lengthAdjust="spacing" textLength="81" x="594.45" y="1048.457">«value object»</text><text fill="#000000" font-family="sans-serif" font-size="14" lengthAdjust="spacing" textLength="30" x="619.95" y="1065.627">Aisle</text><line style="stroke:#181818;stroke-width:0.5;" x1="547" x2="693" y1="1073.7031" y2="1073.7031"/><text fill="#000000" font-family="sans-serif" font-size="14" lengthAdjust="spacing" textLength="16" x="552" y="1092.2363">-id</text><text fill="#000000" font-family="sans-serif" font-size="14" lengthAdjust="spacing" textLength="130" x="552" y="1109.8457">-beginLengthSquare</text><text fill="#000000" font-family="sans-serif" font-size="14" lengthAdjust="spacing" textLength="122" x="552" y="1127.4551">-beginWidthSquare</text><text fill="#000000" font-family="sans-serif" font-size="14" lengthAdjust="spacing" textLength="119" x="552" y="1145.0645">-endLengthSquare</text><text fill="#000000" font-family="sans-serif" font-size="14" lengthAdjust="spacing" textLength="111" x="552" y="1162.6738">-endWidthSquare</text><text fill="#000000" font-family="sans-serif" font-size="14" lengthAdjust="spacing" textLength="131" x="552" y="1180.2832">-depthLengthSquare</text><text fill="#000000" font-family="sans-serif" font-size="14" lengthAdjust="spacing" textLength="123" x="552" y="1197.8926">-depthWidthSquare</text><text fill="#000000" font-family="sans-serif" font-size="14" lengthAdjust="spacing" textLength="136" x="552" y="1215.502">-accessibilityDirection</text></g><!--MD5=[05aedcff764caeeb5d443618a4d90de7]
class Row--><g id="elem_Row"><rect codeLine="20" fill="#F1F1F1" height="138.75" id="Row" rx="2.5" ry="2.5" style="stroke:#181818;stroke-width:0.5;" width="142" x="549" y="856.5"/><ellipse cx="578.85" cy="877.8516" fill="#ADD1B2" rx="11" ry="11" style="stroke:#181818;stroke-width:1.0;"/><path d="M580.85,874.3516 Q581.0531,873.8516 581.2875,873.6016 Q581.5219,873.3516 581.7875,873.3516 Q582.2563,873.3516 582.5531,873.6328 Q582.85,873.9141 582.85,874.5703 L582.85,876.1328 Q582.85,876.7891 582.5688,877.0703 Q582.2875,877.3516 581.85,877.3516 Q581.4594,877.3516 581.2094,877.1797 Q580.9594,877.0078 580.85,876.5547 Q580.8031,876.2422 580.6313,876.0703 Q580.3188,875.7422 579.7563,875.5547 Q579.1938,875.3516 578.6313,875.3516 Q577.9281,875.3516 577.3344,875.6328 Q576.7563,875.9141 576.3031,876.5391 Q575.85,877.1641 575.85,878.0234 L575.85,878.9453 Q575.85,879.9766 576.6938,880.6641 Q577.5375,881.3516 579.0375,881.3516 Q579.9281,881.3516 580.5531,881.1484 Q580.9125,881.0391 581.3188,880.6797 Q581.5844,880.4766 581.725,880.4141 Q581.8656,880.3516 582.0375,880.3516 Q582.3656,880.3516 582.6,880.6172 Q582.85,880.8672 582.85,881.2266 Q582.85,881.5703 582.5063,881.9766 Q582.0063,882.5703 581.2094,882.8984 Q580.1625,883.3516 578.8813,883.3516 Q577.3813,883.3516 576.1781,882.7578 Q575.2094,882.2891 574.5219,881.2734 Q573.85,880.2578 573.85,879.0547 L573.85,877.9609 Q573.85,876.7109 574.4438,875.6172 Q575.0531,874.5234 576.1,873.9453 Q577.1625,873.3516 578.35,873.3516 Q579.0688,873.3516 579.6938,873.6016 Q580.3188,873.8516 580.85,874.3516 Z " fill="#000000"/><text fill="#000000" font-family="sans-serif" font-size="12" font-style="italic" lengthAdjust="spacing" textLength="81" x="594.15" y="873.957">«value object»</text><text fill="#000000" font-family="sans-serif" font-size="14" lengthAdjust="spacing" textLength="27" x="621.15" y="891.127">Row</text><line style="stroke:#181818;stroke-width:0.5;" x1="550" x2="690" y1="899.2031" y2="899.2031"/><text fill="#000000" font-family="sans-serif" font-size="14" lengthAdjust="spacing" textLength="16" x="555" y="917.7363">-id</text><text fill="#000000" font-family="sans-serif" font-size="14" lengthAdjust="spacing" textLength="130" x="555" y="935.3457">-beginLengthSquare</text><text fill="#000000" font-family="sans-serif" font-size="14" lengthAdjust="spacing" textLength="122" x="555" y="952.9551">-beginWidthSquare</text><text fill="#000000" font-family="sans-serif" font-size="14" lengthAdjust="spacing" textLength="119" x="555" y="970.5645">-endLengthSquare</text><text fill="#000000" font-family="sans-serif" font-size="14" lengthAdjust="spacing" textLength="111" x="555" y="988.1738">-endWidthSquare</text></g><!--MD5=[47ccbbcd9e46084c93562a335102da55]
class Shelf--><g id="elem_Shelf"><rect codeLine="28" fill="#F1F1F1" height="121.1406" id="Shelf" rx="2.5" ry="2.5" style="stroke:#181818;stroke-width:0.5;" width="109" x="565.5" y="700.5"/><ellipse cx="580.5" cy="721.8516" fill="#ADD1B2" rx="11" ry="11" style="stroke:#181818;stroke-width:1.0;"/><path d="M582.5,718.3516 Q582.7031,717.8516 582.9375,717.6016 Q583.1719,717.3516 583.4375,717.3516 Q583.9063,717.3516 584.2031,717.6328 Q584.5,717.9141 584.5,718.5703 L584.5,720.1328 Q584.5,720.7891 584.2188,721.0703 Q583.9375,721.3516 583.5,721.3516 Q583.1094,721.3516 582.8594,721.1797 Q582.6094,721.0078 582.5,720.5547 Q582.4531,720.2422 582.2813,720.0703 Q581.9688,719.7422 581.4063,719.5547 Q580.8438,719.3516 580.2813,719.3516 Q579.5781,719.3516 578.9844,719.6328 Q578.4063,719.9141 577.9531,720.5391 Q577.5,721.1641 577.5,722.0234 L577.5,722.9453 Q577.5,723.9766 578.3438,724.6641 Q579.1875,725.3516 580.6875,725.3516 Q581.5781,725.3516 582.2031,725.1484 Q582.5625,725.0391 582.9688,724.6797 Q583.2344,724.4766 583.375,724.4141 Q583.5156,724.3516 583.6875,724.3516 Q584.0156,724.3516 584.25,724.6172 Q584.5,724.8672 584.5,725.2266 Q584.5,725.5703 584.1563,725.9766 Q583.6563,726.5703 582.8594,726.8984 Q581.8125,727.3516 580.5313,727.3516 Q579.0313,727.3516 577.8281,726.7578 Q576.8594,726.2891 576.1719,725.2734 Q575.5,724.2578 575.5,723.0547 L575.5,721.9609 Q575.5,720.7109 576.0938,719.6172 Q576.7031,718.5234 577.75,717.9453 Q578.8125,717.3516 580,717.3516 Q580.7188,717.3516 581.3438,717.6016 Q581.9688,717.8516 582.5,718.3516 Z " fill="#000000"/><text fill="#000000" font-family="sans-serif" font-size="12" font-style="italic" lengthAdjust="spacing" textLength="81" x="592.5" y="717.957">«value object»</text><text fill="#000000" font-family="sans-serif" font-size="14" lengthAdjust="spacing" textLength="32" x="617" y="735.127">Shelf</text><line style="stroke:#181818;stroke-width:0.5;" x1="566.5" x2="673.5" y1="743.2031" y2="743.2031"/><text fill="#000000" font-family="sans-serif" font-size="14" lengthAdjust="spacing" textLength="16" x="571.5" y="761.7363">-id</text><text fill="#000000" font-family="sans-serif" font-size="14" lengthAdjust="spacing" textLength="50" x="571.5" y="779.3457">-binSize</text><text fill="#000000" font-family="sans-serif" font-size="14" lengthAdjust="spacing" textLength="95" x="571.5" y="796.9551">-numberOfBins</text><text fill="#000000" font-family="sans-serif" font-size="14" lengthAdjust="spacing" textLength="57" x="571.5" y="814.5645">-maxBins</text></g><!--MD5=[e002a6c585fd1b8067a69667d3ea97ef]
class AGVDocks--><g id="elem_AGVDocks"><rect codeLine="35" fill="#F1F1F1" height="191.5781" id="AGVDocks" rx="2.5" ry="2.5" style="stroke:#181818;stroke-width:0.5;" width="100" x="570" y="473"/><ellipse cx="585" cy="494.3516" fill="#ADD1B2" rx="11" ry="11" style="stroke:#181818;stroke-width:1.0;"/><path d="M587,490.8516 Q587.2031,490.3516 587.4375,490.1016 Q587.6719,489.8516 587.9375,489.8516 Q588.4063,489.8516 588.7031,490.1328 Q589,490.4141 589,491.0703 L589,492.6328 Q589,493.2891 588.7188,493.5703 Q588.4375,493.8516 588,493.8516 Q587.6094,493.8516 587.3594,493.6797 Q587.1094,493.5078 587,493.0547 Q586.9531,492.7422 586.7813,492.5703 Q586.4688,492.2422 585.9063,492.0547 Q585.3438,491.8516 584.7813,491.8516 Q584.0781,491.8516 583.4844,492.1328 Q582.9063,492.4141 582.4531,493.0391 Q582,493.6641 582,494.5234 L582,495.4453 Q582,496.4766 582.8438,497.1641 Q583.6875,497.8516 585.1875,497.8516 Q586.0781,497.8516 586.7031,497.6484 Q587.0625,497.5391 587.4688,497.1797 Q587.7344,496.9766 587.875,496.9141 Q588.0156,496.8516 588.1875,496.8516 Q588.5156,496.8516 588.75,497.1172 Q589,497.3672 589,497.7266 Q589,498.0703 588.6563,498.4766 Q588.1563,499.0703 587.3594,499.3984 Q586.3125,499.8516 585.0313,499.8516 Q583.5313,499.8516 582.3281,499.2578 Q581.3594,498.7891 580.6719,497.7734 Q580,496.7578 580,495.5547 L580,494.4609 Q580,493.2109 580.5938,492.1172 Q581.2031,491.0234 582.25,490.4453 Q583.3125,489.8516 584.5,489.8516 Q585.2188,489.8516 585.8438,490.1016 Q586.4688,490.3516 587,490.8516 Z " fill="#000000"/><text fill="#000000" font-family="sans-serif" font-size="12" font-style="italic" lengthAdjust="spacing" textLength="43" x="611.5" y="490.457">«entity»</text><text fill="#000000" font-family="sans-serif" font-size="14" lengthAdjust="spacing" textLength="68" x="599" y="507.627">AGVDocks</text><line style="stroke:#181818;stroke-width:0.5;" x1="571" x2="669" y1="515.7031" y2="515.7031"/><text fill="#000000" font-family="sans-serif" font-size="14" lengthAdjust="spacing" textLength="16" x="576" y="534.2363">-id</text><text fill="#000000" font-family="sans-serif" font-size="14" lengthAdjust="spacing" textLength="43" x="576" y="551.8457">-beginl</text><text fill="#000000" font-family="sans-serif" font-size="14" lengthAdjust="spacing" textLength="49" x="576" y="569.4551">-beginw</text><text fill="#000000" font-family="sans-serif" font-size="14" lengthAdjust="spacing" textLength="32" x="576" y="587.0645">-endl</text><text fill="#000000" font-family="sans-serif" font-size="14" lengthAdjust="spacing" textLength="38" x="576" y="604.6738">-endw</text><text fill="#000000" font-family="sans-serif" font-size="14" lengthAdjust="spacing" textLength="44" x="576" y="622.2832">-depthl</text><text fill="#000000" font-family="sans-serif" font-size="14" lengthAdjust="spacing" textLength="50" x="576" y="639.8926">-depthw</text><text fill="#000000" font-family="sans-serif" font-size="14" lengthAdjust="spacing" textLength="80" x="576" y="657.502">-accessibility</text></g><!--MD5=[b8084bbefe35ffcc4a4483270aef6409]
class WarehouseEmployee--><g id="elem_WarehouseEmployee"><rect fill="#F1F1F1" height="50.7031" id="WarehouseEmployee" rx="2.5" ry="2.5" style="stroke:#181818;stroke-width:0.5;" width="167" x="22" y="386.5"/><ellipse cx="37" cy="407.8516" fill="#ADD1B2" rx="11" ry="11" style="stroke:#181818;stroke-width:1.0;"/><path d="M39,404.3516 Q39.2031,403.8516 39.4375,403.6016 Q39.6719,403.3516 39.9375,403.3516 Q40.4063,403.3516 40.7031,403.6328 Q41,403.9141 41,404.5703 L41,406.1328 Q41,406.7891 40.7188,407.0703 Q40.4375,407.3516 40,407.3516 Q39.6094,407.3516 39.3594,407.1797 Q39.1094,407.0078 39,406.5547 Q38.9531,406.2422 38.7813,406.0703 Q38.4688,405.7422 37.9063,405.5547 Q37.3438,405.3516 36.7813,405.3516 Q36.0781,405.3516 35.4844,405.6328 Q34.9063,405.9141 34.4531,406.5391 Q34,407.1641 34,408.0234 L34,408.9453 Q34,409.9766 34.8438,410.6641 Q35.6875,411.3516 37.1875,411.3516 Q38.0781,411.3516 38.7031,411.1484 Q39.0625,411.0391 39.4688,410.6797 Q39.7344,410.4766 39.875,410.4141 Q40.0156,410.3516 40.1875,410.3516 Q40.5156,410.3516 40.75,410.6172 Q41,410.8672 41,411.2266 Q41,411.5703 40.6563,411.9766 Q40.1563,412.5703 39.3594,412.8984 Q38.3125,413.3516 37.0313,413.3516 Q35.5313,413.3516 34.3281,412.7578 Q33.3594,412.2891 32.6719,411.2734 Q32,410.2578 32,409.0547 L32,407.9609 Q32,406.7109 32.5938,405.6172 Q33.2031,404.5234 34.25,403.9453 Q35.3125,403.3516 36.5,403.3516 Q37.2188,403.3516 37.8438,403.6016 Q38.4688,403.8516 39,404.3516 Z " fill="#000000"/><text fill="#000000" font-family="sans-serif" font-size="12" font-style="italic" lengthAdjust="spacing" textLength="43" x="97" y="403.957">«entity»</text><text fill="#000000" font-family="sans-serif" font-size="14" lengthAdjust="spacing" textLength="135" x="51" y="421.127">WarehouseEmployee</text><line style="stroke:#181818;stroke-width:0.5;" x1="23" x2="188" y1="429.2031" y2="429.2031"/></g><!--MD5=[009695af4e54f3bba8a9c60dca3e1c94]
class Description--><g id="elem_Description"><rect fill="#F1F1F1" height="50.7031" id="Description" rx="2.5" ry="2.5" style="stroke:#181818;stroke-width:0.5;" width="109" x="565.5" y="386.5"/><ellipse cx="580.5" cy="407.8516" fill="#ADD1B2" rx="11" ry="11" style="stroke:#181818;stroke-width:1.0;"/><path d="M582.5,404.3516 Q582.7031,403.8516 582.9375,403.6016 Q583.1719,403.3516 583.4375,403.3516 Q583.9063,403.3516 584.2031,403.6328 Q584.5,403.9141 584.5,404.5703 L584.5,406.1328 Q584.5,406.7891 584.2188,407.0703 Q583.9375,407.3516 583.5,407.3516 Q583.1094,407.3516 582.8594,407.1797 Q582.6094,407.0078 582.5,406.5547 Q582.4531,406.2422 582.2813,406.0703 Q581.9688,405.7422 581.4063,405.5547 Q580.8438,405.3516 580.2813,405.3516 Q579.5781,405.3516 578.9844,405.6328 Q578.4063,405.9141 577.9531,406.5391 Q577.5,407.1641 577.5,408.0234 L577.5,408.9453 Q577.5,409.9766 578.3438,410.6641 Q579.1875,411.3516 580.6875,411.3516 Q581.5781,411.3516 582.2031,411.1484 Q582.5625,411.0391 582.9688,410.6797 Q583.2344,410.4766 583.375,410.4141 Q583.5156,410.3516 583.6875,410.3516 Q584.0156,410.3516 584.25,410.6172 Q584.5,410.8672 584.5,411.2266 Q584.5,411.5703 584.1563,411.9766 Q583.6563,412.5703 582.8594,412.8984 Q581.8125,413.3516 580.5313,413.3516 Q579.0313,413.3516 577.8281,412.7578 Q576.8594,412.2891 576.1719,411.2734 Q575.5,410.2578 575.5,409.0547 L575.5,407.9609 Q575.5,406.7109 576.0938,405.6172 Q576.7031,404.5234 577.75,403.9453 Q578.8125,403.3516 580,403.3516 Q580.7188,403.3516 581.3438,403.6016 Q581.9688,403.8516 582.5,404.3516 Z " fill="#000000"/><text fill="#000000" font-family="sans-serif" font-size="12" font-style="italic" lengthAdjust="spacing" textLength="81" x="592.5" y="403.957">«value object»</text><text fill="#000000" font-family="sans-serif" font-size="14" lengthAdjust="spacing" textLength="71" x="597.5" y="421.127">Description</text><line style="stroke:#181818;stroke-width:0.5;" x1="566.5" x2="673.5" y1="429.2031" y2="429.2031"/></g><!--MD5=[8ab66322f175e1cdab08350fdddc6bee]
class Length--><g id="elem_Length"><rect fill="#F1F1F1" height="50.7031" id="Length" rx="2.5" ry="2.5" style="stroke:#181818;stroke-width:0.5;" width="109" x="565.5" y="300.5"/><ellipse cx="580.5" cy="321.8516" fill="#ADD1B2" rx="11" ry="11" style="stroke:#181818;stroke-width:1.0;"/><path d="M582.5,318.3516 Q582.7031,317.8516 582.9375,317.6016 Q583.1719,317.3516 583.4375,317.3516 Q583.9063,317.3516 584.2031,317.6328 Q584.5,317.9141 584.5,318.5703 L584.5,320.1328 Q584.5,320.7891 584.2188,321.0703 Q583.9375,321.3516 583.5,321.3516 Q583.1094,321.3516 582.8594,321.1797 Q582.6094,321.0078 582.5,320.5547 Q582.4531,320.2422 582.2813,320.0703 Q581.9688,319.7422 581.4063,319.5547 Q580.8438,319.3516 580.2813,319.3516 Q579.5781,319.3516 578.9844,319.6328 Q578.4063,319.9141 577.9531,320.5391 Q577.5,321.1641 577.5,322.0234 L577.5,322.9453 Q577.5,323.9766 578.3438,324.6641 Q579.1875,325.3516 580.6875,325.3516 Q581.5781,325.3516 582.2031,325.1484 Q582.5625,325.0391 582.9688,324.6797 Q583.2344,324.4766 583.375,324.4141 Q583.5156,324.3516 583.6875,324.3516 Q584.0156,324.3516 584.25,324.6172 Q584.5,324.8672 584.5,325.2266 Q584.5,325.5703 584.1563,325.9766 Q583.6563,326.5703 582.8594,326.8984 Q581.8125,327.3516 580.5313,327.3516 Q579.0313,327.3516 577.8281,326.7578 Q576.8594,326.2891 576.1719,325.2734 Q575.5,324.2578 575.5,323.0547 L575.5,321.9609 Q575.5,320.7109 576.0938,319.6172 Q576.7031,318.5234 577.75,317.9453 Q578.8125,317.3516 580,317.3516 Q580.7188,317.3516 581.3438,317.6016 Q581.9688,317.8516 582.5,318.3516 Z " fill="#000000"/><text fill="#000000" font-family="sans-serif" font-size="12" font-style="italic" lengthAdjust="spacing" textLength="81" x="592.5" y="317.957">«value object»</text><text fill="#000000" font-family="sans-serif" font-size="14" lengthAdjust="spacing" textLength="44" x="611" y="335.127">Length</text><line style="stroke:#181818;stroke-width:0.5;" x1="566.5" x2="673.5" y1="343.2031" y2="343.2031"/></g><!--MD5=[dd9eb67b6353675aa4de4238b55e54d8]
class Width--><g id="elem_Width"><rect fill="#F1F1F1" height="50.7031" id="Width" rx="2.5" ry="2.5" style="stroke:#181818;stroke-width:0.5;" width="109" x="565.5" y="214.5"/><ellipse cx="580.5" cy="235.8516" fill="#ADD1B2" rx="11" ry="11" style="stroke:#181818;stroke-width:1.0;"/><path d="M582.5,232.3516 Q582.7031,231.8516 582.9375,231.6016 Q583.1719,231.3516 583.4375,231.3516 Q583.9063,231.3516 584.2031,231.6328 Q584.5,231.9141 584.5,232.5703 L584.5,234.1328 Q584.5,234.7891 584.2188,235.0703 Q583.9375,235.3516 583.5,235.3516 Q583.1094,235.3516 582.8594,235.1797 Q582.6094,235.0078 582.5,234.5547 Q582.4531,234.2422 582.2813,234.0703 Q581.9688,233.7422 581.4063,233.5547 Q580.8438,233.3516 580.2813,233.3516 Q579.5781,233.3516 578.9844,233.6328 Q578.4063,233.9141 577.9531,234.5391 Q577.5,235.1641 577.5,236.0234 L577.5,236.9453 Q577.5,237.9766 578.3438,238.6641 Q579.1875,239.3516 580.6875,239.3516 Q581.5781,239.3516 582.2031,239.1484 Q582.5625,239.0391 582.9688,238.6797 Q583.2344,238.4766 583.375,238.4141 Q583.5156,238.3516 583.6875,238.3516 Q584.0156,238.3516 584.25,238.6172 Q584.5,238.8672 584.5,239.2266 Q584.5,239.5703 584.1563,239.9766 Q583.6563,240.5703 582.8594,240.8984 Q581.8125,241.3516 580.5313,241.3516 Q579.0313,241.3516 577.8281,240.7578 Q576.8594,240.2891 576.1719,239.2734 Q575.5,238.2578 575.5,237.0547 L575.5,235.9609 Q575.5,234.7109 576.0938,233.6172 Q576.7031,232.5234 577.75,231.9453 Q578.8125,231.3516 580,231.3516 Q580.7188,231.3516 581.3438,231.6016 Q581.9688,231.8516 582.5,232.3516 Z " fill="#000000"/><text fill="#000000" font-family="sans-serif" font-size="12" font-style="italic" lengthAdjust="spacing" textLength="81" x="592.5" y="231.957">«value object»</text><text fill="#000000" font-family="sans-serif" font-size="14" lengthAdjust="spacing" textLength="36" x="615" y="249.127">Width</text><line style="stroke:#181818;stroke-width:0.5;" x1="566.5" x2="673.5" y1="257.2031" y2="257.2031"/></g><!--MD5=[431fd866647fde9e8002ea8e9ecf93e6]
class SmallestSquare--><g id="elem_SmallestSquare"><rect fill="#F1F1F1" height="50.7031" id="SmallestSquare" rx="2.5" ry="2.5" style="stroke:#181818;stroke-width:0.5;" width="131" x="554.5" y="128.5"/><ellipse cx="569.5" cy="149.8516" fill="#ADD1B2" rx="11" ry="11" style="stroke:#181818;stroke-width:1.0;"/><path d="M571.5,146.3516 Q571.7031,145.8516 571.9375,145.6016 Q572.1719,145.3516 572.4375,145.3516 Q572.9063,145.3516 573.2031,145.6328 Q573.5,145.9141 573.5,146.5703 L573.5,148.1328 Q573.5,148.7891 573.2188,149.0703 Q572.9375,149.3516 572.5,149.3516 Q572.1094,149.3516 571.8594,149.1797 Q571.6094,149.0078 571.5,148.5547 Q571.4531,148.2422 571.2813,148.0703 Q570.9688,147.7422 570.4063,147.5547 Q569.8438,147.3516 569.2813,147.3516 Q568.5781,147.3516 567.9844,147.6328 Q567.4063,147.9141 566.9531,148.5391 Q566.5,149.1641 566.5,150.0234 L566.5,150.9453 Q566.5,151.9766 567.3438,152.6641 Q568.1875,153.3516 569.6875,153.3516 Q570.5781,153.3516 571.2031,153.1484 Q571.5625,153.0391 571.9688,152.6797 Q572.2344,152.4766 572.375,152.4141 Q572.5156,152.3516 572.6875,152.3516 Q573.0156,152.3516 573.25,152.6172 Q573.5,152.8672 573.5,153.2266 Q573.5,153.5703 573.1563,153.9766 Q572.6563,154.5703 571.8594,154.8984 Q570.8125,155.3516 569.5313,155.3516 Q568.0313,155.3516 566.8281,154.7578 Q565.8594,154.2891 565.1719,153.2734 Q564.5,152.2578 564.5,151.0547 L564.5,149.9609 Q564.5,148.7109 565.0938,147.6172 Q565.7031,146.5234 566.75,145.9453 Q567.8125,145.3516 569,145.3516 Q569.7188,145.3516 570.3438,145.6016 Q570.9688,145.8516 571.5,146.3516 Z " fill="#000000"/><text fill="#000000" font-family="sans-serif" font-size="12" font-style="italic" lengthAdjust="spacing" textLength="81" x="592.5" y="145.957">«value object»</text><text fill="#000000" font-family="sans-serif" font-size="14" lengthAdjust="spacing" textLength="99" x="583.5" y="163.127">SmallestSquare</text><line style="stroke:#181818;stroke-width:0.5;" x1="555.5" x2="684.5" y1="171.2031" y2="171.2031"/></g><!--MD5=[63a373d2559db13dd8cc7d36e037ebb1]
class Unit--><g id="elem_Unit"><rect fill="#F1F1F1" height="50.7031" id="Unit" rx="2.5" ry="2.5" style="stroke:#181818;stroke-width:0.5;" width="109" x="565.5" y="42.5"/><ellipse cx="580.5" cy="63.8516" fill="#ADD1B2" rx="11" ry="11" style="stroke:#181818;stroke-width:1.0;"/><path d="M582.5,60.3516 Q582.7031,59.8516 582.9375,59.6016 Q583.1719,59.3516 583.4375,59.3516 Q583.9063,59.3516 584.2031,59.6328 Q584.5,59.9141 584.5,60.5703 L584.5,62.1328 Q584.5,62.7891 584.2188,63.0703 Q583.9375,63.3516 583.5,63.3516 Q583.1094,63.3516 582.8594,63.1797 Q582.6094,63.0078 582.5,62.5547 Q582.4531,62.2422 582.2813,62.0703 Q581.9688,61.7422 581.4063,61.5547 Q580.8438,61.3516 580.2813,61.3516 Q579.5781,61.3516 578.9844,61.6328 Q578.4063,61.9141 577.9531,62.5391 Q577.5,63.1641 577.5,64.0234 L577.5,64.9453 Q577.5,65.9766 578.3438,66.6641 Q579.1875,67.3516 580.6875,67.3516 Q581.5781,67.3516 582.2031,67.1484 Q582.5625,67.0391 582.9688,66.6797 Q583.2344,66.4766 583.375,66.4141 Q583.5156,66.3516 583.6875,66.3516 Q584.0156,66.3516 584.25,66.6172 Q584.5,66.8672 584.5,67.2266 Q584.5,67.5703 584.1563,67.9766 Q583.6563,68.5703 582.8594,68.8984 Q581.8125,69.3516 580.5313,69.3516 Q579.0313,69.3516 577.8281,68.7578 Q576.8594,68.2891 576.1719,67.2734 Q575.5,66.2578 575.5,65.0547 L575.5,63.9609 Q575.5,62.7109 576.0938,61.6172 Q576.7031,60.5234 577.75,59.9453 Q578.8125,59.3516 580,59.3516 Q580.7188,59.3516 581.3438,59.6016 Q581.9688,59.8516 582.5,60.3516 Z " fill="#000000"/><text fill="#000000" font-family="sans-serif" font-size="12" font-style="italic" lengthAdjust="spacing" textLength="81" x="592.5" y="59.957">«value object»</text><text fill="#000000" font-family="sans-serif" font-size="14" lengthAdjust="spacing" textLength="24" x="621" y="77.127">Unit</text><line style="stroke:#181818;stroke-width:0.5;" x1="566.5" x2="673.5" y1="85.2031" y2="85.2031"/></g><!--MD5=[53f09dd1ff8cc8bd6ec526a2744225fc]
link WarehouseEmployee to Warehouse--><g id="link_WarehouseEmployee_Warehouse"><path codeLine="59" d="M189.04,412 C230.89,412 280.42,412 316.83,412 " fill="none" id="WarehouseEmployee-Warehouse" style="stroke:#181818;stroke-width:1.0;"/><polygon fill="#000000" points="229,403.1758,219.9549,400.2369,219.9549,406.1147,229,403.1758" style="stroke:#000000;stroke-width:1.0;"/><text fill="#000000" font-family="sans-serif" font-size="13" lengthAdjust="spacing" textLength="53" x="233" y="408.4951">manages</text><text fill="#000000" font-family="sans-serif" font-size="13" lengthAdjust="spacing" textLength="7" x="197.064" y="426.2625">1</text><text fill="#000000" font-family="sans-serif" font-size="13" lengthAdjust="spacing" textLength="5" x="304.0717" y="426.6657">*</text></g><!--MD5=[3d3f68f464ba2a1e06de793adbb57ed1]
link Warehouse to AGVDocks--><g id="link_Warehouse_AGVDocks"><path codeLine="60" d="M410.98,437.57 C454.44,465.03 523.49,508.66 569.99,538.04 " fill="none" id="Warehouse-AGVDocks" style="stroke:#181818;stroke-width:1.0;"/><polygon fill="#000000" points="461.2269,461.8466,455.1502,454.5306,452.0105,459.4996,461.2269,461.8466" style="stroke:#000000;stroke-width:1.0;"/><text fill="#000000" font-family="sans-serif" font-size="13" lengthAdjust="spacing" textLength="49" x="466" y="464.4951">contains</text><text fill="#000000" font-family="sans-serif" font-size="13" lengthAdjust="spacing" textLength="7" x="412.7629" y="458.9032">1</text><text fill="#000000" font-family="sans-serif" font-size="13" lengthAdjust="spacing" textLength="5" x="556.9494" y="548.0786">*</text></g><!--MD5=[17945b6083a4b4dab7f006498923d435]
link Warehouse to Shelf--><g id="link_Warehouse_Shelf"><path codeLine="61" d="M385.12,437.53 C413.64,486.62 479.75,596.84 546,682 C550.94,688.35 556.28,694.79 561.75,701.13 " fill="none" id="Warehouse-to-Shelf" style="stroke:#181818;stroke-width:1.0;"/><polygon fill="#181818" points="565.17,705.06,562.2943,695.6403,561.8937,701.283,556.2511,700.8824,565.17,705.06" style="stroke:#181818;stroke-width:1.0;"/><text fill="#000000" font-family="sans-serif" font-size="13" lengthAdjust="spacing" textLength="20" x="537.674" y="713.0242">1..*</text></g><!--MD5=[cca7e706f1d9c6c9e6f0f393b462673a]
link Warehouse to Row--><g id="link_Warehouse_Row"><path codeLine="62" d="M377.37,437.67 C396.57,506.61 455.39,700.02 546,839 C548.89,843.43 551.97,847.88 555.17,852.3 " fill="none" id="Warehouse-to-Row" style="stroke:#181818;stroke-width:1.0;"/><polygon fill="#181818" points="558.15,856.36,556.0489,846.7379,555.1913,852.3293,549.5999,851.4718,558.15,856.36" style="stroke:#181818;stroke-width:1.0;"/><text fill="#000000" font-family="sans-serif" font-size="13" lengthAdjust="spacing" textLength="20" x="530.7405" y="845.8795">1..*</text></g><!--MD5=[8e30de69f95fb92b10aa949696d889b2]
link Warehouse to Aisle--><g id="link_Warehouse_Aisle"><path codeLine="63" d="M374.24,437.93 C383.62,500.28 410.39,663.14 452,794 C484.09,894.94 496.38,919.42 546,1013 C548.35,1017.44 550.82,1021.93 553.37,1026.44 " fill="none" id="Warehouse-to-Aisle" style="stroke:#181818;stroke-width:1.0;"/><polygon fill="#181818" points="555.95,1030.94,554.9508,1021.142,553.4662,1026.6005,548.0077,1025.116,555.95,1030.94" style="stroke:#181818;stroke-width:1.0;"/><text fill="#000000" font-family="sans-serif" font-size="13" lengthAdjust="spacing" textLength="20" x="530.0491" y="1020.1737">1..*</text></g><!--MD5=[ac185d7e95777eadb6deb9554525d48e]
link Warehouse to Description--><g id="link_Warehouse_Description"><path codeLine="64" d="M422.29,412 C462.48,412 518.21,412 560.09,412 " fill="none" id="Warehouse-to-Description" style="stroke:#181818;stroke-width:1.0;"/><polygon fill="#181818" points="565.13,412,556.13,408,560.13,412,556.13,416,565.13,412" style="stroke:#181818;stroke-width:1.0;"/><text fill="#000000" font-family="sans-serif" font-size="13" lengthAdjust="spacing" textLength="12" x="545.331" y="426.5617">1*</text></g><!--MD5=[42d9c72b6fa8daaf1ec41d4d9c26cca7]
link Warehouse to Length--><g id="link_Warehouse_Length"><path codeLine="65" d="M422.29,394.08 C462.56,380.14 518.43,360.8 560.35,346.3 " fill="none" id="Warehouse-to-Length" style="stroke:#181818;stroke-width:1.0;"/><polygon fill="#181818" points="565.13,344.64,555.315,343.8245,560.4085,346.2854,557.9476,351.3789,565.13,344.64" style="stroke:#181818;stroke-width:1.0;"/><text fill="#000000" font-family="sans-serif" font-size="13" lengthAdjust="spacing" textLength="12" x="545.331" y="361.5899">1*</text></g><!--MD5=[2d25dee736ee9fa09ca9100ad1ccf52c]
link Warehouse to Width--><g id="link_Warehouse_Width"><path codeLine="66" d="M403.1,386.49 C437.82,359.69 494.71,316.83 546,283 C553.46,278.08 561.49,273.07 569.4,268.3 " fill="none" id="Warehouse-to-Width" style="stroke:#181818;stroke-width:1.0;"/><polygon fill="#181818" points="573.78,265.67,564.0028,266.8561,569.4888,268.2362,568.1087,273.7221,573.78,265.67" style="stroke:#181818;stroke-width:1.0;"/><text fill="#000000" font-family="sans-serif" font-size="13" lengthAdjust="spacing" textLength="12" x="550.3569" y="286.6014">1*</text></g><!--MD5=[8d2482456db6ef51fb278aa3cbf69ed8]
link Warehouse to SmallestSquare--><g id="link_Warehouse_SmallestSquare"><path codeLine="67" d="M386.97,386.35 C415.5,343.35 477.63,255.68 546,197 C552.01,191.84 558.72,186.95 565.57,182.45 " fill="none" id="Warehouse-to-SmallestSquare" style="stroke:#181818;stroke-width:1.0;"/><polygon fill="#181818" points="569.84,179.69,560.11,181.2155,565.6406,182.4039,564.4522,187.9345,569.84,179.69" style="stroke:#181818;stroke-width:1.0;"/><text fill="#000000" font-family="sans-serif" font-size="13" lengthAdjust="spacing" textLength="12" x="545.555" y="200.6257">1*</text></g><!--MD5=[f64c8f697aa001827a3bc45a4e8046ef]
link Warehouse to Unit--><g id="link_Warehouse_Unit"><path codeLine="68" d="M379.76,386.22 C401.13,329.84 458.81,194 546,111 C551.45,105.81 557.64,100.97 564.06,96.56 " fill="none" id="Warehouse-to-Unit" style="stroke:#181818;stroke-width:1.0;"/><polygon fill="#181818" points="568.53,93.57,558.8267,95.2572,564.3763,96.3534,563.2801,101.903,568.53,93.57" style="stroke:#181818;stroke-width:1.0;"/><text fill="#000000" font-family="sans-serif" font-size="13" lengthAdjust="spacing" textLength="12" x="545.5748" y="113.5262">1*</text></g><!--MD5=[08ff1af1517e026b9bdfc282df7c17dc]
@startuml
hide methods
left to right direction
skinparam classAttributeIconSize 0

package "warehouse"{
class Warehouse{
}

class Aisle{
-id
-beginLengthSquare
-beginWidthSquare
-endLengthSquare
-endWidthSquare
-depthLengthSquare
-depthWidthSquare
-accessibilityDirection
}

class Row{
-id
-beginLengthSquare
-beginWidthSquare
-endLengthSquare
-endWidthSquare
}

class Shelf{
-id
-binSize
-numberOfBins
-maxBins
}

class AGVDocks{
-id
-beginl
-beginw
-endl
-endw
-depthl
-depthw
-accessibility
}

Warehouse <<entity>>
WarehouseEmployee <<entity>>
Shelf <<value object>>
AGVDocks <<entity>>
Row <<value object>>
Aisle <<value object>>
Description <<value object>>
Length <<value object>>
Width <<value object>>
SmallestSquare <<value object>>
Unit <<value object>>
}

WarehouseEmployee "1" - - "*" Warehouse : manages >
Warehouse "1" - - "*" AGVDocks : contains >
Warehouse  - -> "1..*" Shelf
Warehouse  - -> "1..*" Row
Warehouse  - -> "1..*" Aisle
Warehouse  - -> "1*" Description
Warehouse  - -> "1*" Length
Warehouse  - -> "1*" Width
Warehouse  - -> "1*" SmallestSquare
Warehouse  - -> "1*" Unit

@enduml

PlantUML version 1.2022.4(Sat Apr 09 14:29:17 BST 2022)
(GPL source distribution)
Java Runtime: OpenJDK Runtime Environment
JVM: OpenJDK 64-Bit Server VM
Default Encoding: Cp1252
Language: pt
Country: PT
--></g></svg>