<?xml version="1.0" encoding="UTF-8" standalone="no"?><svg xmlns="http://www.w3.org/2000/svg" xmlns:xlink="http://www.w3.org/1999/xlink" contentStyleType="text/css" height="1188px" preserveAspectRatio="none" style="width:473px;height:1188px;background:#FFFFFF;" version="1.1" viewBox="0 0 473 1188" width="473px" zoomAndPan="magnify"><defs/><g><!--MD5=[8fd473fd151a2794da4f2c8684676405]
cluster Presentation--><g id="cluster_Presentation"><path d="M211.5,6 L302.5,6 A3.75,3.75 0 0 1 305,8.5 L312,29.6094 L360.5,29.6094 A2.5,2.5 0 0 1 363,32.1094 L363,103.5 A2.5,2.5 0 0 1 360.5,106 L211.5,106 A2.5,2.5 0 0 1 209,103.5 L209,8.5 A2.5,2.5 0 0 1 211.5,6 " style="stroke:#000000;stroke-width:1.5;fill:none;"/><line style="stroke:#000000;stroke-width:1.5;fill:none;" x1="209" x2="312" y1="29.6094" y2="29.6094"/><text fill="#000000" font-family="sans-serif" font-size="14" font-weight="bold" lengthAdjust="spacing" textLength="90" x="213" y="22.5332">Presentation</text></g><!--MD5=[d64883541e3d62e3241c4d12decf100d]
cluster Application--><g id="cluster_Application"><path d="M173.5,130 L252.5,130 A3.75,3.75 0 0 1 255,132.5 L262,153.6094 L398.5,153.6094 A2.5,2.5 0 0 1 401,156.1094 L401,262.5 A2.5,2.5 0 0 1 398.5,265 L173.5,265 A2.5,2.5 0 0 1 171,262.5 L171,132.5 A2.5,2.5 0 0 1 173.5,130 " style="stroke:#000000;stroke-width:1.5;fill:none;"/><line style="stroke:#000000;stroke-width:1.5;fill:none;" x1="171" x2="262" y1="153.6094" y2="153.6094"/><text fill="#000000" font-family="sans-serif" font-size="14" font-weight="bold" lengthAdjust="spacing" textLength="78" x="175" y="146.5332">Application</text></g><!--MD5=[121a8bf1197281ab89ed693fab589f94]
cluster Domain--><g id="cluster_Domain"><path d="M136.5,912 L189.5,912 A3.75,3.75 0 0 1 192,914.5 L199,935.6094 L463.5,935.6094 A2.5,2.5 0 0 1 466,938.1094 L466,1178.5 A2.5,2.5 0 0 1 463.5,1181 L136.5,1181 A2.5,2.5 0 0 1 134,1178.5 L134,914.5 A2.5,2.5 0 0 1 136.5,912 " style="stroke:#000000;stroke-width:1.5;fill:none;"/><line style="stroke:#000000;stroke-width:1.5;fill:none;" x1="134" x2="199" y1="935.6094" y2="935.6094"/><text fill="#000000" font-family="sans-serif" font-size="14" font-weight="bold" lengthAdjust="spacing" textLength="52" x="138" y="928.5332">Domain</text></g><!--MD5=[bc6b40dadbf86ab6a0c8405a467a48af]
cluster Persistence--><g id="cluster_Persistence"><path d="M60.5,334 L145.5,334 A3.75,3.75 0 0 1 148,336.5 L155,357.6094 L241.5,357.6094 A2.5,2.5 0 0 1 244,360.1094 L244,449.5 A2.5,2.5 0 0 1 241.5,452 L60.5,452 A2.5,2.5 0 0 1 58,449.5 L58,336.5 A2.5,2.5 0 0 1 60.5,334 " style="stroke:#000000;stroke-width:1.5;fill:none;"/><line style="stroke:#000000;stroke-width:1.5;fill:none;" x1="58" x2="155" y1="357.6094" y2="357.6094"/><text fill="#000000" font-family="sans-serif" font-size="14" font-weight="bold" lengthAdjust="spacing" textLength="84" x="62" y="350.5332">Persistence</text></g><!--MD5=[0d5799440b3bfefd92b00abfcd2c79b9]
cluster Factory--><g id="cluster_Factory"><path d="M61.5,521 L114.5,521 A3.75,3.75 0 0 1 117,523.5 L124,544.6094 L236.5,544.6094 A2.5,2.5 0 0 1 239,547.1094 L239,636.5 A2.5,2.5 0 0 1 236.5,639 L61.5,639 A2.5,2.5 0 0 1 59,636.5 L59,523.5 A2.5,2.5 0 0 1 61.5,521 " style="stroke:#000000;stroke-width:1.5;fill:none;"/><line style="stroke:#000000;stroke-width:1.5;fill:none;" x1="59" x2="124" y1="544.6094" y2="544.6094"/><text fill="#000000" font-family="sans-serif" font-size="14" font-weight="bold" lengthAdjust="spacing" textLength="52" x="63" y="537.5332">Factory</text></g><!--MD5=[71971f99a41bb66cf321ce46bb59f738]
cluster Repository--><g id="cluster_Repository"><path d="M45.5,708 L122.5,708 A3.75,3.75 0 0 1 125,710.5 L132,731.6094 L246.5,731.6094 A2.5,2.5 0 0 1 249,734.1094 L249,840.5 A2.5,2.5 0 0 1 246.5,843 L45.5,843 A2.5,2.5 0 0 1 43,840.5 L43,710.5 A2.5,2.5 0 0 1 45.5,708 " style="stroke:#000000;stroke-width:1.5;fill:none;"/><line style="stroke:#000000;stroke-width:1.5;fill:none;" x1="43" x2="132" y1="731.6094" y2="731.6094"/><text fill="#000000" font-family="sans-serif" font-size="14" font-weight="bold" lengthAdjust="spacing" textLength="76" x="47" y="724.5332">Repository</text></g><!--MD5=[1e2b0053b68a62733dd04889d4113715]
class AddJsonFileUI--><g id="elem_AddJsonFileUI"><rect codeLine="4" fill="#F1F1F1" height="48" id="AddJsonFileUI" rx="2.5" ry="2.5" style="stroke:#181818;stroke-width:0.5;" width="121" x="225.5" y="42"/><ellipse cx="240.5" cy="58" fill="#ADD1B2" rx="11" ry="11" style="stroke:#181818;stroke-width:1.0;"/><path d="M242.5,54.5 Q242.7031,54 242.9375,53.75 Q243.1719,53.5 243.4375,53.5 Q243.9063,53.5 244.2031,53.7813 Q244.5,54.0625 244.5,54.7188 L244.5,56.2813 Q244.5,56.9375 244.2188,57.2188 Q243.9375,57.5 243.5,57.5 Q243.1094,57.5 242.8594,57.3281 Q242.6094,57.1563 242.5,56.7031 Q242.4531,56.3906 242.2813,56.2188 Q241.9688,55.8906 241.4063,55.7031 Q240.8438,55.5 240.2813,55.5 Q239.5781,55.5 238.9844,55.7813 Q238.4063,56.0625 237.9531,56.6875 Q237.5,57.3125 237.5,58.1719 L237.5,59.0938 Q237.5,60.125 238.3438,60.8125 Q239.1875,61.5 240.6875,61.5 Q241.5781,61.5 242.2031,61.2969 Q242.5625,61.1875 242.9688,60.8281 Q243.2344,60.625 243.375,60.5625 Q243.5156,60.5 243.6875,60.5 Q244.0156,60.5 244.25,60.7656 Q244.5,61.0156 244.5,61.375 Q244.5,61.7188 244.1563,62.125 Q243.6563,62.7188 242.8594,63.0469 Q241.8125,63.5 240.5313,63.5 Q239.0313,63.5 237.8281,62.9063 Q236.8594,62.4375 236.1719,61.4219 Q235.5,60.4063 235.5,59.2031 L235.5,58.1094 Q235.5,56.8594 236.0938,55.7656 Q236.7031,54.6719 237.75,54.0938 Q238.8125,53.5 240,53.5 Q240.7188,53.5 241.3438,53.75 Q241.9688,54 242.5,54.5 Z " fill="#000000"/><text fill="#000000" font-family="sans-serif" font-size="14" lengthAdjust="spacing" textLength="89" x="254.5" y="63.7285">AddJsonFileUI</text><line style="stroke:#181818;stroke-width:0.5;" x1="226.5" x2="345.5" y1="74" y2="74"/><line style="stroke:#181818;stroke-width:0.5;" x1="226.5" x2="345.5" y1="82" y2="82"/></g><!--MD5=[3fddd73dc9f951a075f7695f7bf08c0c]
class AddJsonFileController--><g id="elem_AddJsonFileController"><rect codeLine="8" fill="#F1F1F1" height="83.2188" id="AddJsonFileController" rx="2.5" ry="2.5" style="stroke:#181818;stroke-width:0.5;" width="198" x="187" y="166"/><ellipse cx="214.15" cy="182" fill="#ADD1B2" rx="11" ry="11" style="stroke:#181818;stroke-width:1.0;"/><path d="M216.15,178.5 Q216.3531,178 216.5875,177.75 Q216.8219,177.5 217.0875,177.5 Q217.5563,177.5 217.8531,177.7813 Q218.15,178.0625 218.15,178.7188 L218.15,180.2813 Q218.15,180.9375 217.8688,181.2188 Q217.5875,181.5 217.15,181.5 Q216.7594,181.5 216.5094,181.3281 Q216.2594,181.1563 216.15,180.7031 Q216.1031,180.3906 215.9313,180.2188 Q215.6188,179.8906 215.0563,179.7031 Q214.4938,179.5 213.9313,179.5 Q213.2281,179.5 212.6344,179.7813 Q212.0563,180.0625 211.6031,180.6875 Q211.15,181.3125 211.15,182.1719 L211.15,183.0938 Q211.15,184.125 211.9938,184.8125 Q212.8375,185.5 214.3375,185.5 Q215.2281,185.5 215.8531,185.2969 Q216.2125,185.1875 216.6188,184.8281 Q216.8844,184.625 217.025,184.5625 Q217.1656,184.5 217.3375,184.5 Q217.6656,184.5 217.9,184.7656 Q218.15,185.0156 218.15,185.375 Q218.15,185.7188 217.8063,186.125 Q217.3063,186.7188 216.5094,187.0469 Q215.4625,187.5 214.1813,187.5 Q212.6813,187.5 211.4781,186.9063 Q210.5094,186.4375 209.8219,185.4219 Q209.15,184.4063 209.15,183.2031 L209.15,182.1094 Q209.15,180.8594 209.7438,179.7656 Q210.3531,178.6719 211.4,178.0938 Q212.4625,177.5 213.65,177.5 Q214.3688,177.5 214.9938,177.75 Q215.6188,178 216.15,178.5 Z " fill="#000000"/><text fill="#000000" font-family="sans-serif" font-size="14" lengthAdjust="spacing" textLength="139" x="230.85" y="187.7285">AddJsonFileController</text><line style="stroke:#181818;stroke-width:0.5;" x1="188" x2="384" y1="198" y2="198"/><line style="stroke:#181818;stroke-width:0.5;" x1="188" x2="384" y1="206" y2="206"/><text fill="#000000" font-family="sans-serif" font-size="14" lengthAdjust="spacing" textLength="112" x="193" y="224.5332">+addJsonFile(file)</text><text fill="#000000" font-family="sans-serif" font-size="14" lengthAdjust="spacing" textLength="186" x="193" y="242.1426">-WarehousefromJsonFile(file)</text></g><!--MD5=[c5149b4909ffd2688ff51a939867f774]
class Warehouse--><g id="elem_Warehouse"><rect codeLine="15" fill="#F1F1F1" height="48" id="Warehouse" rx="2.5" ry="2.5" style="stroke:#181818;stroke-width:0.5;" width="105" x="198.5" y="948"/><ellipse cx="213.5" cy="964" fill="#ADD1B2" rx="11" ry="11" style="stroke:#181818;stroke-width:1.0;"/><path d="M215.5,960.5 Q215.7031,960 215.9375,959.75 Q216.1719,959.5 216.4375,959.5 Q216.9063,959.5 217.2031,959.7813 Q217.5,960.0625 217.5,960.7188 L217.5,962.2813 Q217.5,962.9375 217.2188,963.2188 Q216.9375,963.5 216.5,963.5 Q216.1094,963.5 215.8594,963.3281 Q215.6094,963.1563 215.5,962.7031 Q215.4531,962.3906 215.2813,962.2188 Q214.9688,961.8906 214.4063,961.7031 Q213.8438,961.5 213.2813,961.5 Q212.5781,961.5 211.9844,961.7813 Q211.4063,962.0625 210.9531,962.6875 Q210.5,963.3125 210.5,964.1719 L210.5,965.0938 Q210.5,966.125 211.3438,966.8125 Q212.1875,967.5 213.6875,967.5 Q214.5781,967.5 215.2031,967.2969 Q215.5625,967.1875 215.9688,966.8281 Q216.2344,966.625 216.375,966.5625 Q216.5156,966.5 216.6875,966.5 Q217.0156,966.5 217.25,966.7656 Q217.5,967.0156 217.5,967.375 Q217.5,967.7188 217.1563,968.125 Q216.6563,968.7188 215.8594,969.0469 Q214.8125,969.5 213.5313,969.5 Q212.0313,969.5 210.8281,968.9063 Q209.8594,968.4375 209.1719,967.4219 Q208.5,966.4063 208.5,965.2031 L208.5,964.1094 Q208.5,962.8594 209.0938,961.7656 Q209.7031,960.6719 210.75,960.0938 Q211.8125,959.5 213,959.5 Q213.7188,959.5 214.3438,959.75 Q214.9688,960 215.5,960.5 Z " fill="#000000"/><text fill="#000000" font-family="sans-serif" font-size="14" lengthAdjust="spacing" textLength="73" x="227.5" y="969.7285">Warehouse</text><line style="stroke:#181818;stroke-width:0.5;" x1="199.5" x2="302.5" y1="980" y2="980"/><line style="stroke:#181818;stroke-width:0.5;" x1="199.5" x2="302.5" y1="988" y2="988"/></g><!--MD5=[6855da3a7d31c334f94ff7f8a22c9d39]
class Roww--><g id="elem_Roww"><rect codeLine="17" fill="#F1F1F1" height="48" id="Roww" rx="2.5" ry="2.5" style="stroke:#181818;stroke-width:0.5;" width="68" x="150" y="1117"/><ellipse cx="165" cy="1133" fill="#ADD1B2" rx="11" ry="11" style="stroke:#181818;stroke-width:1.0;"/><path d="M167,1129.5 Q167.2031,1129 167.4375,1128.75 Q167.6719,1128.5 167.9375,1128.5 Q168.4063,1128.5 168.7031,1128.7813 Q169,1129.0625 169,1129.7188 L169,1131.2813 Q169,1131.9375 168.7188,1132.2188 Q168.4375,1132.5 168,1132.5 Q167.6094,1132.5 167.3594,1132.3281 Q167.1094,1132.1563 167,1131.7031 Q166.9531,1131.3906 166.7813,1131.2188 Q166.4688,1130.8906 165.9063,1130.7031 Q165.3438,1130.5 164.7813,1130.5 Q164.0781,1130.5 163.4844,1130.7813 Q162.9063,1131.0625 162.4531,1131.6875 Q162,1132.3125 162,1133.1719 L162,1134.0938 Q162,1135.125 162.8438,1135.8125 Q163.6875,1136.5 165.1875,1136.5 Q166.0781,1136.5 166.7031,1136.2969 Q167.0625,1136.1875 167.4688,1135.8281 Q167.7344,1135.625 167.875,1135.5625 Q168.0156,1135.5 168.1875,1135.5 Q168.5156,1135.5 168.75,1135.7656 Q169,1136.0156 169,1136.375 Q169,1136.7188 168.6563,1137.125 Q168.1563,1137.7188 167.3594,1138.0469 Q166.3125,1138.5 165.0313,1138.5 Q163.5313,1138.5 162.3281,1137.9063 Q161.3594,1137.4375 160.6719,1136.4219 Q160,1135.4063 160,1134.2031 L160,1133.1094 Q160,1131.8594 160.5938,1130.7656 Q161.2031,1129.6719 162.25,1129.0938 Q163.3125,1128.5 164.5,1128.5 Q165.2188,1128.5 165.8438,1128.75 Q166.4688,1129 167,1129.5 Z " fill="#000000"/><text fill="#000000" font-family="sans-serif" font-size="14" lengthAdjust="spacing" textLength="36" x="179" y="1138.7285">Roww</text><line style="stroke:#181818;stroke-width:0.5;" x1="151" x2="217" y1="1149" y2="1149"/><line style="stroke:#181818;stroke-width:0.5;" x1="151" x2="217" y1="1157" y2="1157"/></g><!--MD5=[0a2f0ce5c49321e9082933c32b514ce4]
class Aisle--><g id="elem_Aisle"><rect codeLine="19" fill="#F1F1F1" height="48" id="Aisle" rx="2.5" ry="2.5" style="stroke:#181818;stroke-width:0.5;" width="62" x="253" y="1117"/><ellipse cx="268" cy="1133" fill="#ADD1B2" rx="11" ry="11" style="stroke:#181818;stroke-width:1.0;"/><path d="M270,1129.5 Q270.2031,1129 270.4375,1128.75 Q270.6719,1128.5 270.9375,1128.5 Q271.4063,1128.5 271.7031,1128.7813 Q272,1129.0625 272,1129.7188 L272,1131.2813 Q272,1131.9375 271.7188,1132.2188 Q271.4375,1132.5 271,1132.5 Q270.6094,1132.5 270.3594,1132.3281 Q270.1094,1132.1563 270,1131.7031 Q269.9531,1131.3906 269.7813,1131.2188 Q269.4688,1130.8906 268.9063,1130.7031 Q268.3438,1130.5 267.7813,1130.5 Q267.0781,1130.5 266.4844,1130.7813 Q265.9063,1131.0625 265.4531,1131.6875 Q265,1132.3125 265,1133.1719 L265,1134.0938 Q265,1135.125 265.8438,1135.8125 Q266.6875,1136.5 268.1875,1136.5 Q269.0781,1136.5 269.7031,1136.2969 Q270.0625,1136.1875 270.4688,1135.8281 Q270.7344,1135.625 270.875,1135.5625 Q271.0156,1135.5 271.1875,1135.5 Q271.5156,1135.5 271.75,1135.7656 Q272,1136.0156 272,1136.375 Q272,1136.7188 271.6563,1137.125 Q271.1563,1137.7188 270.3594,1138.0469 Q269.3125,1138.5 268.0313,1138.5 Q266.5313,1138.5 265.3281,1137.9063 Q264.3594,1137.4375 263.6719,1136.4219 Q263,1135.4063 263,1134.2031 L263,1133.1094 Q263,1131.8594 263.5938,1130.7656 Q264.2031,1129.6719 265.25,1129.0938 Q266.3125,1128.5 267.5,1128.5 Q268.2188,1128.5 268.8438,1128.75 Q269.4688,1129 270,1129.5 Z " fill="#000000"/><text fill="#000000" font-family="sans-serif" font-size="14" lengthAdjust="spacing" textLength="30" x="282" y="1138.7285">Aisle</text><line style="stroke:#181818;stroke-width:0.5;" x1="254" x2="314" y1="1149" y2="1149"/><line style="stroke:#181818;stroke-width:0.5;" x1="254" x2="314" y1="1157" y2="1157"/></g><!--MD5=[e002a6c585fd1b8067a69667d3ea97ef]
class AGVDocks--><g id="elem_AGVDocks"><rect codeLine="21" fill="#F1F1F1" height="48" id="AGVDocks" rx="2.5" ry="2.5" style="stroke:#181818;stroke-width:0.5;" width="100" x="350" y="1117"/><ellipse cx="365" cy="1133" fill="#ADD1B2" rx="11" ry="11" style="stroke:#181818;stroke-width:1.0;"/><path d="M367,1129.5 Q367.2031,1129 367.4375,1128.75 Q367.6719,1128.5 367.9375,1128.5 Q368.4063,1128.5 368.7031,1128.7813 Q369,1129.0625 369,1129.7188 L369,1131.2813 Q369,1131.9375 368.7188,1132.2188 Q368.4375,1132.5 368,1132.5 Q367.6094,1132.5 367.3594,1132.3281 Q367.1094,1132.1563 367,1131.7031 Q366.9531,1131.3906 366.7813,1131.2188 Q366.4688,1130.8906 365.9063,1130.7031 Q365.3438,1130.5 364.7813,1130.5 Q364.0781,1130.5 363.4844,1130.7813 Q362.9063,1131.0625 362.4531,1131.6875 Q362,1132.3125 362,1133.1719 L362,1134.0938 Q362,1135.125 362.8438,1135.8125 Q363.6875,1136.5 365.1875,1136.5 Q366.0781,1136.5 366.7031,1136.2969 Q367.0625,1136.1875 367.4688,1135.8281 Q367.7344,1135.625 367.875,1135.5625 Q368.0156,1135.5 368.1875,1135.5 Q368.5156,1135.5 368.75,1135.7656 Q369,1136.0156 369,1136.375 Q369,1136.7188 368.6563,1137.125 Q368.1563,1137.7188 367.3594,1138.0469 Q366.3125,1138.5 365.0313,1138.5 Q363.5313,1138.5 362.3281,1137.9063 Q361.3594,1137.4375 360.6719,1136.4219 Q360,1135.4063 360,1134.2031 L360,1133.1094 Q360,1131.8594 360.5938,1130.7656 Q361.2031,1129.6719 362.25,1129.0938 Q363.3125,1128.5 364.5,1128.5 Q365.2188,1128.5 365.8438,1128.75 Q366.4688,1129 367,1129.5 Z " fill="#000000"/><text fill="#000000" font-family="sans-serif" font-size="14" lengthAdjust="spacing" textLength="68" x="379" y="1138.7285">AGVDocks</text><line style="stroke:#181818;stroke-width:0.5;" x1="351" x2="449" y1="1149" y2="1149"/><line style="stroke:#181818;stroke-width:0.5;" x1="351" x2="449" y1="1157" y2="1157"/></g><!--MD5=[e8c189551b7885b999ad7cefb30fc2a3]
class PersistenceContext--><g id="elem_PersistenceContext"><rect codeLine="27" fill="#F1F1F1" height="65.6094" id="PersistenceContext" rx="2.5" ry="2.5" style="stroke:#181818;stroke-width:0.5;" width="154" x="74" y="370"/><ellipse cx="89" cy="386" fill="#ADD1B2" rx="11" ry="11" style="stroke:#181818;stroke-width:1.0;"/><path d="M91,382.5 Q91.2031,382 91.4375,381.75 Q91.6719,381.5 91.9375,381.5 Q92.4063,381.5 92.7031,381.7813 Q93,382.0625 93,382.7188 L93,384.2813 Q93,384.9375 92.7188,385.2188 Q92.4375,385.5 92,385.5 Q91.6094,385.5 91.3594,385.3281 Q91.1094,385.1563 91,384.7031 Q90.9531,384.3906 90.7813,384.2188 Q90.4688,383.8906 89.9063,383.7031 Q89.3438,383.5 88.7813,383.5 Q88.0781,383.5 87.4844,383.7813 Q86.9063,384.0625 86.4531,384.6875 Q86,385.3125 86,386.1719 L86,387.0938 Q86,388.125 86.8438,388.8125 Q87.6875,389.5 89.1875,389.5 Q90.0781,389.5 90.7031,389.2969 Q91.0625,389.1875 91.4688,388.8281 Q91.7344,388.625 91.875,388.5625 Q92.0156,388.5 92.1875,388.5 Q92.5156,388.5 92.75,388.7656 Q93,389.0156 93,389.375 Q93,389.7188 92.6563,390.125 Q92.1563,390.7188 91.3594,391.0469 Q90.3125,391.5 89.0313,391.5 Q87.5313,391.5 86.3281,390.9063 Q85.3594,390.4375 84.6719,389.4219 Q84,388.4063 84,387.2031 L84,386.1094 Q84,384.8594 84.5938,383.7656 Q85.2031,382.6719 86.25,382.0938 Q87.3125,381.5 88.5,381.5 Q89.2188,381.5 89.8438,381.75 Q90.4688,382 91,382.5 Z " fill="#000000"/><text fill="#000000" font-family="sans-serif" font-size="14" lengthAdjust="spacing" textLength="122" x="103" y="391.7285">PersistenceContext</text><line style="stroke:#181818;stroke-width:0.5;" x1="75" x2="227" y1="402" y2="402"/><line style="stroke:#181818;stroke-width:0.5;" x1="75" x2="227" y1="410" y2="410"/><text fill="#000000" font-family="sans-serif" font-size="14" lengthAdjust="spacing" textLength="92" x="80" y="428.5332">+repositories()</text></g><!--MD5=[48590afff58a68e2fcba47824d6f8a11]
class RepositoryFactory--><g id="elem_RepositoryFactory"><rect codeLine="33" fill="#F1F1F1" height="65.6094" id="RepositoryFactory" rx="2.5" ry="2.5" style="stroke:#181818;stroke-width:0.5;" width="148" x="75" y="557"/><ellipse cx="90" cy="573" fill="#ADD1B2" rx="11" ry="11" style="stroke:#181818;stroke-width:1.0;"/><path d="M92,569.5 Q92.2031,569 92.4375,568.75 Q92.6719,568.5 92.9375,568.5 Q93.4063,568.5 93.7031,568.7813 Q94,569.0625 94,569.7188 L94,571.2813 Q94,571.9375 93.7188,572.2188 Q93.4375,572.5 93,572.5 Q92.6094,572.5 92.3594,572.3281 Q92.1094,572.1563 92,571.7031 Q91.9531,571.3906 91.7813,571.2188 Q91.4688,570.8906 90.9063,570.7031 Q90.3438,570.5 89.7813,570.5 Q89.0781,570.5 88.4844,570.7813 Q87.9063,571.0625 87.4531,571.6875 Q87,572.3125 87,573.1719 L87,574.0938 Q87,575.125 87.8438,575.8125 Q88.6875,576.5 90.1875,576.5 Q91.0781,576.5 91.7031,576.2969 Q92.0625,576.1875 92.4688,575.8281 Q92.7344,575.625 92.875,575.5625 Q93.0156,575.5 93.1875,575.5 Q93.5156,575.5 93.75,575.7656 Q94,576.0156 94,576.375 Q94,576.7188 93.6563,577.125 Q93.1563,577.7188 92.3594,578.0469 Q91.3125,578.5 90.0313,578.5 Q88.5313,578.5 87.3281,577.9063 Q86.3594,577.4375 85.6719,576.4219 Q85,575.4063 85,574.2031 L85,573.1094 Q85,571.8594 85.5938,570.7656 Q86.2031,569.6719 87.25,569.0938 Q88.3125,568.5 89.5,568.5 Q90.2188,568.5 90.8438,568.75 Q91.4688,569 92,569.5 Z " fill="#000000"/><text fill="#000000" font-family="sans-serif" font-size="14" lengthAdjust="spacing" textLength="116" x="104" y="578.7285">RepositoryFactory</text><line style="stroke:#181818;stroke-width:0.5;" x1="76" x2="222" y1="589" y2="589"/><line style="stroke:#181818;stroke-width:0.5;" x1="76" x2="222" y1="597" y2="597"/><text fill="#000000" font-family="sans-serif" font-size="14" lengthAdjust="spacing" textLength="58" x="81" y="615.5332">+create()</text></g><!--MD5=[bf4d0c028d0f251e49ce9c9f9f101ed4]
class WarehouseRepository--><g id="elem_WarehouseRepository"><rect codeLine="39" fill="#F1F1F1" height="83.2188" id="WarehouseRepository" rx="2.5" ry="2.5" style="stroke:#181818;stroke-width:0.5;" width="173" x="59.5" y="744"/><ellipse cx="74.5" cy="760" fill="#ADD1B2" rx="11" ry="11" style="stroke:#181818;stroke-width:1.0;"/><path d="M76.5,756.5 Q76.7031,756 76.9375,755.75 Q77.1719,755.5 77.4375,755.5 Q77.9063,755.5 78.2031,755.7813 Q78.5,756.0625 78.5,756.7188 L78.5,758.2813 Q78.5,758.9375 78.2188,759.2188 Q77.9375,759.5 77.5,759.5 Q77.1094,759.5 76.8594,759.3281 Q76.6094,759.1563 76.5,758.7031 Q76.4531,758.3906 76.2813,758.2188 Q75.9688,757.8906 75.4063,757.7031 Q74.8438,757.5 74.2813,757.5 Q73.5781,757.5 72.9844,757.7813 Q72.4063,758.0625 71.9531,758.6875 Q71.5,759.3125 71.5,760.1719 L71.5,761.0938 Q71.5,762.125 72.3438,762.8125 Q73.1875,763.5 74.6875,763.5 Q75.5781,763.5 76.2031,763.2969 Q76.5625,763.1875 76.9688,762.8281 Q77.2344,762.625 77.375,762.5625 Q77.5156,762.5 77.6875,762.5 Q78.0156,762.5 78.25,762.7656 Q78.5,763.0156 78.5,763.375 Q78.5,763.7188 78.1563,764.125 Q77.6563,764.7188 76.8594,765.0469 Q75.8125,765.5 74.5313,765.5 Q73.0313,765.5 71.8281,764.9063 Q70.8594,764.4375 70.1719,763.4219 Q69.5,762.4063 69.5,761.2031 L69.5,760.1094 Q69.5,758.8594 70.0938,757.7656 Q70.7031,756.6719 71.75,756.0938 Q72.8125,755.5 74,755.5 Q74.7188,755.5 75.3438,755.75 Q75.9688,756 76.5,756.5 Z " fill="#000000"/><text fill="#000000" font-family="sans-serif" font-size="14" lengthAdjust="spacing" textLength="141" x="88.5" y="765.7285">WarehouseRepository</text><line style="stroke:#181818;stroke-width:0.5;" x1="60.5" x2="231.5" y1="776" y2="776"/><line style="stroke:#181818;stroke-width:0.5;" x1="60.5" x2="231.5" y1="784" y2="784"/><text fill="#000000" font-family="sans-serif" font-size="14" lengthAdjust="spacing" textLength="58" x="65.5" y="802.5332">+create()</text><text fill="#000000" font-family="sans-serif" font-size="14" lengthAdjust="spacing" textLength="117" x="65.5" y="820.1426">+save(warehouse)</text></g><!--MD5=[e7c750972368e2c4bf5988dabff1caf2]
link AddJsonFileUI to AddJsonFileController--><g id="link_AddJsonFileUI_AddJsonFileController"><path codeLine="44" d="M286,90.04 C286,109.17 286,136.99 286,160.64 " fill="none" id="AddJsonFileUI-to-AddJsonFileController" style="stroke:#181818;stroke-width:1.0;stroke-dasharray:7.0,7.0;"/><polygon fill="#181818" points="286,165.93,290,156.93,286,160.93,282,156.93,286,165.93" style="stroke:#181818;stroke-width:1.0;"/></g><!--MD5=[b18730152fd3cf9ce494e7421432a9a2]
link AddJsonFileController to Warehouse--><g id="link_AddJsonFileController_Warehouse"><path codeLine="45" d="M286,249.27 C286,288.43 286,349.26 286,402 C286,402 286,402 286,786.5 C286,842.74 270.11,906.97 259.74,942.88 " fill="none" id="AddJsonFileController-to-Warehouse" style="stroke:#181818;stroke-width:1.0;stroke-dasharray:7.0,7.0;"/><polygon fill="#181818" points="258.25,947.97,264.61,940.45,259.65,943.17,256.93,938.21,258.25,947.97" style="stroke:#181818;stroke-width:1.0;"/></g><!--MD5=[793684ae1e6f289d83181b4ab8757511]
link AddJsonFileController to PersistenceContext--><g id="link_AddJsonFileController_PersistenceContext"><path codeLine="46" d="M257.7,249.06 C233.73,283.43 199.65,332.26 176.51,365.44 " fill="none" id="AddJsonFileController-to-PersistenceContext" style="stroke:#181818;stroke-width:1.0;stroke-dasharray:7.0,7.0;"/><polygon fill="#181818" points="173.46,369.81,181.8993,364.7327,176.3283,365.7145,175.3465,360.1435,173.46,369.81" style="stroke:#181818;stroke-width:1.0;"/></g><!--MD5=[754b775031405e096442b27febffa290]
link PersistenceContext to RepositoryFactory--><g id="link_PersistenceContext_RepositoryFactory"><path codeLine="47" d="M150.65,436.22 C150.3,468.36 149.77,517.68 149.4,551.54 " fill="none" id="PersistenceContext-to-RepositoryFactory" style="stroke:#181818;stroke-width:1.0;stroke-dasharray:7.0,7.0;"/><polygon fill="#181818" points="149.35,556.83,153.427,547.8646,149.3929,551.8302,145.4273,547.796,149.35,556.83" style="stroke:#181818;stroke-width:1.0;"/></g><!--MD5=[1e897a22714a6b830b517dbc62a38d7f]
link RepositoryFactory to WarehouseRepository--><g id="link_RepositoryFactory_WarehouseRepository"><path codeLine="48" d="M148.5,623.39 C148.01,654.97 147.26,703.3 146.71,738.79 " fill="none" id="RepositoryFactory-to-WarehouseRepository" style="stroke:#181818;stroke-width:1.0;stroke-dasharray:7.0,7.0;"/><polygon fill="#181818" points="146.63,743.93,150.7582,734.9881,146.7014,738.9305,142.759,734.8738,146.63,743.93" style="stroke:#181818;stroke-width:1.0;"/></g><!--MD5=[cb8d5150214e6aa765a2f24f67e90a63]
link WarehouseRepository to Warehouse--><g id="link_WarehouseRepository_Warehouse"><path codeLine="49" d="M169.3,827.45 C189.4,862.76 217.87,912.78 235.35,943.49 " fill="none" id="WarehouseRepository-to-Warehouse" style="stroke:#181818;stroke-width:1.0;stroke-dasharray:7.0,7.0;"/><polygon fill="#181818" points="237.84,947.88,236.8651,938.0795,235.367,943.5344,229.9121,942.0363,237.84,947.88" style="stroke:#181818;stroke-width:1.0;"/></g><!--MD5=[5c8d427b79315cbf803010ca4f7b01d3]
link AddJsonFileController to Aisle--><g id="link_AddJsonFileController_Aisle"><path codeLine="50" d="M310.43,249.19 C330.97,287.3 357,346.54 357,402 C357,402 357,402 357,973 C357,1025.84 325.93,1080.81 304.33,1112.64 " fill="none" id="AddJsonFileController-to-Aisle" style="stroke:#181818;stroke-width:1.0;stroke-dasharray:7.0,7.0;"/><polygon fill="#181818" points="301.49,1116.79,309.8766,1111.6262,304.316,1112.6652,303.2769,1107.1046,301.49,1116.79" style="stroke:#181818;stroke-width:1.0;"/></g><!--MD5=[54f5456a787d54745da78a8ecb5ce976]
link AddJsonFileController to Roww--><g id="link_AddJsonFileController_Roww"><path codeLine="51" d="M186.89,233.23 C106.34,259.97 6,311.45 6,402 C6,402 6,402 6,973 C6,1048.68 92.65,1100.05 145.03,1124.19 " fill="none" id="AddJsonFileController-to-Roww" style="stroke:#181818;stroke-width:1.0;stroke-dasharray:7.0,7.0;"/><polygon fill="#181818" points="149.68,1126.3,143.1419,1118.9343,145.1282,1124.231,139.8315,1126.2172,149.68,1126.3" style="stroke:#181818;stroke-width:1.0;"/></g><!--MD5=[22a810722b3ff1b0e07fc1a3b0eaac09]
link AddJsonFileController to AGVDocks--><g id="link_AddJsonFileController_AGVDocks"><path codeLine="52" d="M339.68,249.11 C379.9,284.55 428,339.91 428,402 C428,402 428,402 428,973 C428,1022.39 415.94,1078.88 407.65,1111.88 " fill="none" id="AddJsonFileController-to-AGVDocks" style="stroke:#181818;stroke-width:1.0;stroke-dasharray:7.0,7.0;"/><polygon fill="#181818" points="406.35,1116.97,412.4617,1109.2468,407.5929,1112.1269,404.7128,1107.2582,406.35,1116.97" style="stroke:#181818;stroke-width:1.0;"/></g><!--MD5=[3d3f68f464ba2a1e06de793adbb57ed1]
link Warehouse to AGVDocks--><g id="link_Warehouse_AGVDocks"><path codeLine="53" d="M271.72,996.22 C299.07,1026.88 347.14,1080.76 376.03,1113.14 " fill="none" id="Warehouse-to-AGVDocks" style="stroke:#181818;stroke-width:1.0;stroke-dasharray:7.0,7.0;"/><polygon fill="#181818" points="379.46,1116.98,376.4681,1107.5966,376.1373,1113.2437,370.4901,1112.9129,379.46,1116.98" style="stroke:#181818;stroke-width:1.0;"/></g><!--MD5=[10965ed9420d4e0c30bc4f5d5afb13c1]
link Warehouse to Roww--><g id="link_Warehouse_Roww"><path codeLine="54" d="M241.68,996.22 C229.53,1026.51 208.29,1079.45 195.26,1111.94 " fill="none" id="Warehouse-to-Roww" style="stroke:#181818;stroke-width:1.0;stroke-dasharray:7.0,7.0;"/><polygon fill="#181818" points="193.24,1116.98,200.3146,1110.128,195.1092,1112.3426,192.8947,1107.1372,193.24,1116.98" style="stroke:#181818;stroke-width:1.0;"/></g><!--MD5=[8e30de69f95fb92b10aa949696d889b2]
link Warehouse to Aisle--><g id="link_Warehouse_Aisle"><path codeLine="55" d="M255.59,996.22 C261.57,1026.51 272.03,1079.45 278.46,1111.94 " fill="none" id="Warehouse-to-Aisle" style="stroke:#181818;stroke-width:1.0;stroke-dasharray:7.0,7.0;"/><polygon fill="#181818" points="279.45,1116.98,281.6288,1107.3752,278.4804,1112.0749,273.7806,1108.9265,279.45,1116.98" style="stroke:#181818;stroke-width:1.0;"/></g><!--MD5=[451bc3cd51b31c9c69ea974eb5dcde05]
@startuml
skinparam classAttributeIconSize 0

package "Presentation"{
class AddJsonFileUI
}

package "Application"{
class AddJsonFileController{
+addJsonFile(file)
-WarehousefromJsonFile(file)
}
}

package "Domain"{
class Warehouse{
}
class Roww{
}
class Aisle{
}
class AGVDocks{
}
}


package "Persistence"{
class PersistenceContext{
+repositories()
}
}

package "Factory"{
class RepositoryFactory{
+create()
}
}

package "Repository"{
class WarehouseRepository{
+create()
+save(warehouse)
}
}
AddJsonFileUI .-> AddJsonFileController
AddJsonFileController .- -> Warehouse
AddJsonFileController .- -> PersistenceContext
PersistenceContext .- -> RepositoryFactory
RepositoryFactory .- -> WarehouseRepository
WarehouseRepository .- -> Warehouse
AddJsonFileController .- -> Aisle
AddJsonFileController .- -> Roww
AddJsonFileController .- -> AGVDocks
Warehouse .- -> AGVDocks
Warehouse .- -> Roww
Warehouse .- -> Aisle

@enduml

PlantUML version 1.2022.4(Sat Apr 09 14:29:17 BST 2022)
(GPL source distribution)
Java Runtime: OpenJDK Runtime Environment
JVM: OpenJDK 64-Bit Server VM
Default Encoding: Cp1252
Language: pt
Country: PT
--></g></svg>