<?xml version="1.0" encoding="UTF-8" standalone="no"?><svg xmlns="http://www.w3.org/2000/svg" xmlns:xlink="http://www.w3.org/1999/xlink" contentStyleType="text/css" height="934px" preserveAspectRatio="none" style="width:1287px;height:934px;background:#FFFFFF;" version="1.1" viewBox="0 0 1287 934" width="1287px" zoomAndPan="magnify"><defs/><g><!--MD5=[ee08e984e4ca77f785f2ed59227c7356]
cluster AGVManager--><g id="cluster_AGVManager"><path d="M8.5,6 L100.5,6 A3.75,3.75 0 0 1 103,8.5 L110,29.6094 L247.5,29.6094 A2.5,2.5 0 0 1 250,32.1094 L250,189.5 A2.5,2.5 0 0 1 247.5,192 L8.5,192 A2.5,2.5 0 0 1 6,189.5 L6,8.5 A2.5,2.5 0 0 1 8.5,6 " style="stroke:#000000;stroke-width:1.5;fill:none;"/><line style="stroke:#000000;stroke-width:1.5;fill:none;" x1="6" x2="110" y1="29.6094" y2="29.6094"/><text fill="#000000" font-family="sans-serif" font-size="14" font-weight="bold" lengthAdjust="spacing" textLength="91" x="10" y="22.5332">AGVManager</text></g><!--MD5=[4b7a55d430ce43d42ce9ebad9e6b4010]
cluster console--><g id="cluster_console"><path d="M32.5,50 L89.5,50 A3.75,3.75 0 0 1 92,52.5 L99,73.6094 L223.5,73.6094 A2.5,2.5 0 0 1 226,76.1094 L226,165.5 A2.5,2.5 0 0 1 223.5,168 L32.5,168 A2.5,2.5 0 0 1 30,165.5 L30,52.5 A2.5,2.5 0 0 1 32.5,50 " style="stroke:#000000;stroke-width:1.5;fill:none;"/><line style="stroke:#000000;stroke-width:1.5;fill:none;" x1="30" x2="99" y1="73.6094" y2="73.6094"/><text fill="#000000" font-family="sans-serif" font-size="14" font-weight="bold" lengthAdjust="spacing" textLength="56" x="34" y="66.5332">console</text></g><!--MD5=[d64883541e3d62e3241c4d12decf100d]
cluster Application--><g id="cluster_Application"><path d="M884.5,783 L963.5,783 A3.75,3.75 0 0 1 966,785.5 L973,806.6094 L1277.5,806.6094 A2.5,2.5 0 0 1 1280,809.1094 L1280,915.5 A2.5,2.5 0 0 1 1277.5,918 L884.5,918 A2.5,2.5 0 0 1 882,915.5 L882,785.5 A2.5,2.5 0 0 1 884.5,783 " style="stroke:#000000;stroke-width:1.5;fill:none;"/><line style="stroke:#000000;stroke-width:1.5;fill:none;" x1="882" x2="973" y1="806.6094" y2="806.6094"/><text fill="#000000" font-family="sans-serif" font-size="14" font-weight="bold" lengthAdjust="spacing" textLength="78" x="886" y="799.5332">Application</text></g><!--MD5=[d098377b76c3e5e82b41f463683e39ae]
cluster assignorder--><g id="cluster_assignorder"><path d="M276.5,41.5 L362.5,41.5 A3.75,3.75 0 0 1 365,44 L372,65.1094 L595.5,65.1094 A2.5,2.5 0 0 1 598,67.6094 L598,390.5 A2.5,2.5 0 0 1 595.5,393 L276.5,393 A2.5,2.5 0 0 1 274,390.5 L274,44 A2.5,2.5 0 0 1 276.5,41.5 " style="stroke:#000000;stroke-width:1.5;fill:none;"/><line style="stroke:#000000;stroke-width:1.5;fill:none;" x1="274" x2="372" y1="65.1094" y2="65.1094"/><text fill="#000000" font-family="sans-serif" font-size="14" font-weight="bold" lengthAdjust="spacing" textLength="85" x="278" y="58.0332">assignorder</text></g><!--MD5=[3dcf69e4e87a10af00fce8354034ba4c]
cluster presentation--><g id="cluster_presentation"><path d="M300.5,216 L391.5,216 A3.75,3.75 0 0 1 394,218.5 L401,239.6094 L571.5,239.6094 A2.5,2.5 0 0 1 574,242.1094 L574,366.5 A2.5,2.5 0 0 1 571.5,369 L300.5,369 A2.5,2.5 0 0 1 298,366.5 L298,218.5 A2.5,2.5 0 0 1 300.5,216 " style="stroke:#000000;stroke-width:1.5;fill:none;"/><line style="stroke:#000000;stroke-width:1.5;fill:none;" x1="298" x2="401" y1="239.6094" y2="239.6094"/><text fill="#000000" font-family="sans-serif" font-size="14" font-weight="bold" lengthAdjust="spacing" textLength="90" x="302" y="232.5332">presentation</text></g><!--MD5=[979da56a7f83e2393dc758167ae295d0]
cluster Server--><g id="cluster_Server"><path d="M16.5,417 L65.5,417 A3.75,3.75 0 0 1 68,419.5 L75,440.6094 L855.5,440.6094 A2.5,2.5 0 0 1 858,443.1094 L858,924.5 A2.5,2.5 0 0 1 855.5,927 L16.5,927 A2.5,2.5 0 0 1 14,924.5 L14,419.5 A2.5,2.5 0 0 1 16.5,417 " style="stroke:#000000;stroke-width:1.5;fill:none;"/><line style="stroke:#000000;stroke-width:1.5;fill:none;" x1="14" x2="75" y1="440.6094" y2="440.6094"/><text fill="#000000" font-family="sans-serif" font-size="14" font-weight="bold" lengthAdjust="spacing" textLength="48" x="18" y="433.5332">Server</text></g><!--MD5=[035ac329b1fb46baf39b468c9481fdfa]
class AGVDigitalTwinApp--><g id="elem_AGVDigitalTwinApp"><rect codeLine="6" fill="#F1F1F1" height="65.6094" id="AGVDigitalTwinApp" rx="2.5" ry="2.5" style="stroke:#181818;stroke-width:0.5;" width="164" x="46" y="86"/><ellipse cx="65.5" cy="102" fill="#ADD1B2" rx="11" ry="11" style="stroke:#181818;stroke-width:1.0;"/><path d="M67.5,98.5 Q67.7031,98 67.9375,97.75 Q68.1719,97.5 68.4375,97.5 Q68.9063,97.5 69.2031,97.7813 Q69.5,98.0625 69.5,98.7188 L69.5,100.2813 Q69.5,100.9375 69.2188,101.2188 Q68.9375,101.5 68.5,101.5 Q68.1094,101.5 67.8594,101.3281 Q67.6094,101.1563 67.5,100.7031 Q67.4531,100.3906 67.2813,100.2188 Q66.9688,99.8906 66.4063,99.7031 Q65.8438,99.5 65.2813,99.5 Q64.5781,99.5 63.9844,99.7813 Q63.4063,100.0625 62.9531,100.6875 Q62.5,101.3125 62.5,102.1719 L62.5,103.0938 Q62.5,104.125 63.3438,104.8125 Q64.1875,105.5 65.6875,105.5 Q66.5781,105.5 67.2031,105.2969 Q67.5625,105.1875 67.9688,104.8281 Q68.2344,104.625 68.375,104.5625 Q68.5156,104.5 68.6875,104.5 Q69.0156,104.5 69.25,104.7656 Q69.5,105.0156 69.5,105.375 Q69.5,105.7188 69.1563,106.125 Q68.6563,106.7188 67.8594,107.0469 Q66.8125,107.5 65.5313,107.5 Q64.0313,107.5 62.8281,106.9063 Q61.8594,106.4375 61.1719,105.4219 Q60.5,104.4063 60.5,103.2031 L60.5,102.1094 Q60.5,100.8594 61.0938,99.7656 Q61.7031,98.6719 62.75,98.0938 Q63.8125,97.5 65,97.5 Q65.7188,97.5 66.3438,97.75 Q66.9688,98 67.5,98.5 Z " fill="#000000"/><text fill="#000000" font-family="sans-serif" font-size="14" lengthAdjust="spacing" textLength="122" x="80.5" y="107.7285">AGVDigitalTwinApp</text><line style="stroke:#181818;stroke-width:0.5;" x1="47" x2="209" y1="118" y2="118"/><line style="stroke:#181818;stroke-width:0.5;" x1="47" x2="209" y1="126" y2="126"/><text fill="#000000" font-family="sans-serif" font-size="14" lengthAdjust="spacing" textLength="152" x="52" y="144.5332">+connect(address, port)</text></g><!--MD5=[95ed20921d01c46c2fff7cf575df3de8]
class AutoAssignOrderController--><g id="elem_AutoAssignOrderController"><rect codeLine="13" fill="#F1F1F1" height="83.2188" id="AutoAssignOrderController" rx="2.5" ry="2.5" style="stroke:#181818;stroke-width:0.5;" width="366" x="898" y="819"/><ellipse cx="991.75" cy="835" fill="#ADD1B2" rx="11" ry="11" style="stroke:#181818;stroke-width:1.0;"/><path d="M993.75,831.5 Q993.9531,831 994.1875,830.75 Q994.4219,830.5 994.6875,830.5 Q995.1563,830.5 995.4531,830.7813 Q995.75,831.0625 995.75,831.7188 L995.75,833.2813 Q995.75,833.9375 995.4688,834.2188 Q995.1875,834.5 994.75,834.5 Q994.3594,834.5 994.1094,834.3281 Q993.8594,834.1563 993.75,833.7031 Q993.7031,833.3906 993.5313,833.2188 Q993.2188,832.8906 992.6563,832.7031 Q992.0938,832.5 991.5313,832.5 Q990.8281,832.5 990.2344,832.7813 Q989.6563,833.0625 989.2031,833.6875 Q988.75,834.3125 988.75,835.1719 L988.75,836.0938 Q988.75,837.125 989.5938,837.8125 Q990.4375,838.5 991.9375,838.5 Q992.8281,838.5 993.4531,838.2969 Q993.8125,838.1875 994.2188,837.8281 Q994.4844,837.625 994.625,837.5625 Q994.7656,837.5 994.9375,837.5 Q995.2656,837.5 995.5,837.7656 Q995.75,838.0156 995.75,838.375 Q995.75,838.7188 995.4063,839.125 Q994.9063,839.7188 994.1094,840.0469 Q993.0625,840.5 991.7813,840.5 Q990.2813,840.5 989.0781,839.9063 Q988.1094,839.4375 987.4219,838.4219 Q986.75,837.4063 986.75,836.2031 L986.75,835.1094 Q986.75,833.8594 987.3438,832.7656 Q987.9531,831.6719 989,831.0938 Q990.0625,830.5 991.25,830.5 Q991.9688,830.5 992.5938,830.75 Q993.2188,831 993.75,831.5 Z " fill="#000000"/><text fill="#000000" font-family="sans-serif" font-size="14" lengthAdjust="spacing" textLength="170" x="1012.25" y="840.7285">AutoAssignOrderController</text><line style="stroke:#181818;stroke-width:0.5;" x1="899" x2="1263" y1="851" y2="851"/><line style="stroke:#181818;stroke-width:0.5;" x1="899" x2="1263" y1="859" y2="859"/><text fill="#000000" font-family="sans-serif" font-size="14" lengthAdjust="spacing" textLength="253" x="904" y="877.5332">+Product_OrderDTO autoAssignOrder()</text><text fill="#000000" font-family="sans-serif" font-size="14" lengthAdjust="spacing" textLength="354" x="904" y="895.1426">-Product_OrderDTO toDTOOrder(Product_Order order)</text></g><!--MD5=[4d7174ddd294a19c491f7f60ddde2f1c]
class AGVManagerServer--><g id="elem_AGVManagerServer"><rect codeLine="27" fill="#F1F1F1" height="83.2188" id="AGVManagerServer" rx="2.5" ry="2.5" style="stroke:#181818;stroke-width:0.5;" width="193" x="363.5" y="77.5"/><ellipse cx="393.8" cy="93.5" fill="#ADD1B2" rx="11" ry="11" style="stroke:#181818;stroke-width:1.0;"/><path d="M395.8,90 Q396.0031,89.5 396.2375,89.25 Q396.4719,89 396.7375,89 Q397.2063,89 397.5031,89.2813 Q397.8,89.5625 397.8,90.2188 L397.8,91.7813 Q397.8,92.4375 397.5188,92.7188 Q397.2375,93 396.8,93 Q396.4094,93 396.1594,92.8281 Q395.9094,92.6563 395.8,92.2031 Q395.7531,91.8906 395.5813,91.7188 Q395.2688,91.3906 394.7063,91.2031 Q394.1438,91 393.5813,91 Q392.8781,91 392.2844,91.2813 Q391.7063,91.5625 391.2531,92.1875 Q390.8,92.8125 390.8,93.6719 L390.8,94.5938 Q390.8,95.625 391.6438,96.3125 Q392.4875,97 393.9875,97 Q394.8781,97 395.5031,96.7969 Q395.8625,96.6875 396.2688,96.3281 Q396.5344,96.125 396.675,96.0625 Q396.8156,96 396.9875,96 Q397.3156,96 397.55,96.2656 Q397.8,96.5156 397.8,96.875 Q397.8,97.2188 397.4563,97.625 Q396.9563,98.2188 396.1594,98.5469 Q395.1125,99 393.8313,99 Q392.3313,99 391.1281,98.4063 Q390.1594,97.9375 389.4719,96.9219 Q388.8,95.9063 388.8,94.7031 L388.8,93.6094 Q388.8,92.3594 389.3938,91.2656 Q390.0031,90.1719 391.05,89.5938 Q392.1125,89 393.3,89 Q394.0188,89 394.6438,89.25 Q395.2688,89.5 395.8,90 Z " fill="#000000"/><text fill="#000000" font-family="sans-serif" font-size="14" lengthAdjust="spacing" textLength="127" x="411.2" y="99.2285">AGVManagerServer</text><line style="stroke:#181818;stroke-width:0.5;" x1="364.5" x2="555.5" y1="109.5" y2="109.5"/><line style="stroke:#181818;stroke-width:0.5;" x1="364.5" x2="555.5" y1="117.5" y2="117.5"/><text fill="#000000" font-family="sans-serif" font-size="14" lengthAdjust="spacing" textLength="142" x="369.5" y="136.0332">-AGVManagerServer()</text><text fill="#000000" font-family="sans-serif" font-size="14" lengthAdjust="spacing" textLength="181" x="369.5" y="153.6426">+buildServerDependencies()</text></g><!--MD5=[f5c3dd7673470024d27c2dc023182cfe]
class AssignOrderProtocolServer--><g id="elem_AssignOrderProtocolServer"><rect codeLine="21" fill="#F1F1F1" height="100.8281" id="AssignOrderProtocolServer" rx="2.5" ry="2.5" style="stroke:#181818;stroke-width:0.5;" width="244" x="314" y="252"/><ellipse cx="346.55" cy="268" fill="#ADD1B2" rx="11" ry="11" style="stroke:#181818;stroke-width:1.0;"/><path d="M348.55,264.5 Q348.7531,264 348.9875,263.75 Q349.2219,263.5 349.4875,263.5 Q349.9563,263.5 350.2531,263.7813 Q350.55,264.0625 350.55,264.7188 L350.55,266.2813 Q350.55,266.9375 350.2688,267.2188 Q349.9875,267.5 349.55,267.5 Q349.1594,267.5 348.9094,267.3281 Q348.6594,267.1563 348.55,266.7031 Q348.5031,266.3906 348.3313,266.2188 Q348.0188,265.8906 347.4563,265.7031 Q346.8938,265.5 346.3313,265.5 Q345.6281,265.5 345.0344,265.7813 Q344.4563,266.0625 344.0031,266.6875 Q343.55,267.3125 343.55,268.1719 L343.55,269.0938 Q343.55,270.125 344.3938,270.8125 Q345.2375,271.5 346.7375,271.5 Q347.6281,271.5 348.2531,271.2969 Q348.6125,271.1875 349.0188,270.8281 Q349.2844,270.625 349.425,270.5625 Q349.5656,270.5 349.7375,270.5 Q350.0656,270.5 350.3,270.7656 Q350.55,271.0156 350.55,271.375 Q350.55,271.7188 350.2063,272.125 Q349.7063,272.7188 348.9094,273.0469 Q347.8625,273.5 346.5813,273.5 Q345.0813,273.5 343.8781,272.9063 Q342.9094,272.4375 342.2219,271.4219 Q341.55,270.4063 341.55,269.2031 L341.55,268.1094 Q341.55,266.8594 342.1438,265.7656 Q342.7531,264.6719 343.8,264.0938 Q344.8625,263.5 346.05,263.5 Q346.7688,263.5 347.3938,263.75 Q348.0188,264 348.55,264.5 Z " fill="#000000"/><text fill="#000000" font-family="sans-serif" font-size="14" lengthAdjust="spacing" textLength="173" x="364.45" y="273.7285">AssignOrderProtocolServer</text><line style="stroke:#181818;stroke-width:0.5;" x1="315" x2="557" y1="284" y2="284"/><line style="stroke:#181818;stroke-width:0.5;" x1="315" x2="557" y1="292" y2="292"/><text fill="#000000" font-family="sans-serif" font-size="14" lengthAdjust="spacing" textLength="232" x="320" y="310.5332">+AssignOrderProtocolServer(parser)</text><text fill="#000000" font-family="sans-serif" font-size="14" lengthAdjust="spacing" textLength="73" x="320" y="328.1426">-listen(port)</text><text fill="#000000" font-family="sans-serif" font-size="14" lengthAdjust="spacing" textLength="131" x="320" y="345.752">+start(port, blocking)</text></g><!--MD5=[7f3228600c61f75084044b4cb6691947]
class AssignOrderProtocolMessageParser--><g id="elem_AssignOrderProtocolMessageParser"><rect codeLine="34" fill="#F1F1F1" height="83.2188" id="AssignOrderProtocolMessageParser" rx="2.5" ry="2.5" style="stroke:#181818;stroke-width:0.5;" width="319" x="451.5" y="640.5"/><ellipse cx="492.15" cy="656.5" fill="#ADD1B2" rx="11" ry="11" style="stroke:#181818;stroke-width:1.0;"/><path d="M494.15,653 Q494.3531,652.5 494.5875,652.25 Q494.8219,652 495.0875,652 Q495.5563,652 495.8531,652.2813 Q496.15,652.5625 496.15,653.2188 L496.15,654.7813 Q496.15,655.4375 495.8688,655.7188 Q495.5875,656 495.15,656 Q494.7594,656 494.5094,655.8281 Q494.2594,655.6563 494.15,655.2031 Q494.1031,654.8906 493.9313,654.7188 Q493.6188,654.3906 493.0563,654.2031 Q492.4938,654 491.9313,654 Q491.2281,654 490.6344,654.2813 Q490.0563,654.5625 489.6031,655.1875 Q489.15,655.8125 489.15,656.6719 L489.15,657.5938 Q489.15,658.625 489.9938,659.3125 Q490.8375,660 492.3375,660 Q493.2281,660 493.8531,659.7969 Q494.2125,659.6875 494.6188,659.3281 Q494.8844,659.125 495.025,659.0625 Q495.1656,659 495.3375,659 Q495.6656,659 495.9,659.2656 Q496.15,659.5156 496.15,659.875 Q496.15,660.2188 495.8063,660.625 Q495.3063,661.2188 494.5094,661.5469 Q493.4625,662 492.1813,662 Q490.6813,662 489.4781,661.4063 Q488.5094,660.9375 487.8219,659.9219 Q487.15,658.9063 487.15,657.7031 L487.15,656.6094 Q487.15,655.3594 487.7438,654.2656 Q488.3531,653.1719 489.4,652.5938 Q490.4625,652 491.65,652 Q492.3688,652 492.9938,652.25 Q493.6188,652.5 494.15,653 Z " fill="#000000"/><text fill="#000000" font-family="sans-serif" font-size="14" lengthAdjust="spacing" textLength="230" x="511.85" y="662.2285">AssignOrderProtocolMessageParser</text><line style="stroke:#181818;stroke-width:0.5;" x1="452.5" x2="769.5" y1="672.5" y2="672.5"/><line style="stroke:#181818;stroke-width:0.5;" x1="452.5" x2="769.5" y1="680.5" y2="680.5"/><text fill="#000000" font-family="sans-serif" font-size="14" lengthAdjust="spacing" textLength="307" x="457.5" y="699.0332">+AssignOrderProtocolMessageParser(controller)</text><text fill="#000000" font-family="sans-serif" font-size="14" lengthAdjust="spacing" textLength="112" x="457.5" y="716.6426">+parse(inputLine)</text></g><!--MD5=[368b138eab1e2cfa1a3518b720cf06a1]
class AssignOrderProtocolRequest--><g id="elem_AssignOrderProtocolRequest"><rect codeLine="38" fill="#F1F1F1" height="100.8281" id="AssignOrderProtocolRequest" rx="2.5" ry="2.5" style="stroke:#181818;stroke-width:0.5;" width="365" x="59.5" y="453"/><ellipse cx="145.75" cy="469" fill="#ADD1B2" rx="11" ry="11" style="stroke:#181818;stroke-width:1.0;"/><path d="M147.75,465.5 Q147.9531,465 148.1875,464.75 Q148.4219,464.5 148.6875,464.5 Q149.1563,464.5 149.4531,464.7813 Q149.75,465.0625 149.75,465.7188 L149.75,467.2813 Q149.75,467.9375 149.4688,468.2188 Q149.1875,468.5 148.75,468.5 Q148.3594,468.5 148.1094,468.3281 Q147.8594,468.1563 147.75,467.7031 Q147.7031,467.3906 147.5313,467.2188 Q147.2188,466.8906 146.6563,466.7031 Q146.0938,466.5 145.5313,466.5 Q144.8281,466.5 144.2344,466.7813 Q143.6563,467.0625 143.2031,467.6875 Q142.75,468.3125 142.75,469.1719 L142.75,470.0938 Q142.75,471.125 143.5938,471.8125 Q144.4375,472.5 145.9375,472.5 Q146.8281,472.5 147.4531,472.2969 Q147.8125,472.1875 148.2188,471.8281 Q148.4844,471.625 148.625,471.5625 Q148.7656,471.5 148.9375,471.5 Q149.2656,471.5 149.5,471.7656 Q149.75,472.0156 149.75,472.375 Q149.75,472.7188 149.4063,473.125 Q148.9063,473.7188 148.1094,474.0469 Q147.0625,474.5 145.7813,474.5 Q144.2813,474.5 143.0781,473.9063 Q142.1094,473.4375 141.4219,472.4219 Q140.75,471.4063 140.75,470.2031 L140.75,469.1094 Q140.75,467.8594 141.3438,466.7656 Q141.9531,465.6719 143,465.0938 Q144.0625,464.5 145.25,464.5 Q145.9688,464.5 146.5938,464.75 Q147.2188,465 147.75,465.5 Z " fill="#000000"/><text fill="#000000" font-family="sans-serif" font-size="14" lengthAdjust="spacing" textLength="184" x="166.25" y="474.7285">AssignOrderProtocolRequest</text><line style="stroke:#181818;stroke-width:0.5;" x1="60.5" x2="423.5" y1="485" y2="485"/><line style="stroke:#181818;stroke-width:0.5;" x1="60.5" x2="423.5" y1="493" y2="493"/><text fill="#000000" font-family="sans-serif" font-size="14" lengthAdjust="spacing" textLength="353" x="65.5" y="511.5332">+AssignOrderProtocolRequest(controller, inputRequest)</text><text fill="#000000" font-family="sans-serif" font-size="14" lengthAdjust="spacing" textLength="67" x="65.5" y="529.1426">+execute()</text><text fill="#000000" font-family="sans-serif" font-size="14" lengthAdjust="spacing" textLength="86" x="65.5" y="546.752">+isGoodbye()</text></g><!--MD5=[05b268743a5dfb186e74fda60220be62]
class AssignOrderRequest--><g id="elem_AssignOrderRequest"><rect codeLine="43" fill="#F1F1F1" height="100.8281" id="AssignOrderRequest" rx="2.5" ry="2.5" style="stroke:#181818;stroke-width:0.5;" width="277" x="564.5" y="810"/><ellipse cx="632.75" cy="826" fill="#ADD1B2" rx="11" ry="11" style="stroke:#181818;stroke-width:1.0;"/><path d="M634.75,822.5 Q634.9531,822 635.1875,821.75 Q635.4219,821.5 635.6875,821.5 Q636.1563,821.5 636.4531,821.7813 Q636.75,822.0625 636.75,822.7188 L636.75,824.2813 Q636.75,824.9375 636.4688,825.2188 Q636.1875,825.5 635.75,825.5 Q635.3594,825.5 635.1094,825.3281 Q634.8594,825.1563 634.75,824.7031 Q634.7031,824.3906 634.5313,824.2188 Q634.2188,823.8906 633.6563,823.7031 Q633.0938,823.5 632.5313,823.5 Q631.8281,823.5 631.2344,823.7813 Q630.6563,824.0625 630.2031,824.6875 Q629.75,825.3125 629.75,826.1719 L629.75,827.0938 Q629.75,828.125 630.5938,828.8125 Q631.4375,829.5 632.9375,829.5 Q633.8281,829.5 634.4531,829.2969 Q634.8125,829.1875 635.2188,828.8281 Q635.4844,828.625 635.625,828.5625 Q635.7656,828.5 635.9375,828.5 Q636.2656,828.5 636.5,828.7656 Q636.75,829.0156 636.75,829.375 Q636.75,829.7188 636.4063,830.125 Q635.9063,830.7188 635.1094,831.0469 Q634.0625,831.5 632.7813,831.5 Q631.2813,831.5 630.0781,830.9063 Q629.1094,830.4375 628.4219,829.4219 Q627.75,828.4063 627.75,827.2031 L627.75,826.1094 Q627.75,824.8594 628.3438,823.7656 Q628.9531,822.6719 630,822.0938 Q631.0625,821.5 632.25,821.5 Q632.9688,821.5 633.5938,821.75 Q634.2188,822 634.75,822.5 Z " fill="#000000"/><text fill="#000000" font-family="sans-serif" font-size="14" lengthAdjust="spacing" textLength="132" x="653.25" y="831.7285">AssignOrderRequest</text><line style="stroke:#181818;stroke-width:0.5;" x1="565.5" x2="840.5" y1="842" y2="842"/><line style="stroke:#181818;stroke-width:0.5;" x1="565.5" x2="840.5" y1="850" y2="850"/><text fill="#000000" font-family="sans-serif" font-size="14" lengthAdjust="spacing" textLength="265" x="570.5" y="868.5332">+AssignOrderRequest(controller, request)</text><text fill="#000000" font-family="sans-serif" font-size="14" lengthAdjust="spacing" textLength="67" x="570.5" y="886.1426">+execute()</text><text fill="#000000" font-family="sans-serif" font-size="14" lengthAdjust="spacing" textLength="147" x="570.5" y="903.752">+buildResponse(token)</text></g><!--MD5=[1e3ac46dfaa4f84f5037a4a7e5a4b3e2]
class BadRequest--><g id="elem_BadRequest"><rect codeLine="48" fill="#F1F1F1" height="83.2188" id="BadRequest" rx="2.5" ry="2.5" style="stroke:#181818;stroke-width:0.5;" width="266" x="30" y="819"/><ellipse cx="119.75" cy="835" fill="#ADD1B2" rx="11" ry="11" style="stroke:#181818;stroke-width:1.0;"/><path d="M121.75,831.5 Q121.9531,831 122.1875,830.75 Q122.4219,830.5 122.6875,830.5 Q123.1563,830.5 123.4531,830.7813 Q123.75,831.0625 123.75,831.7188 L123.75,833.2813 Q123.75,833.9375 123.4688,834.2188 Q123.1875,834.5 122.75,834.5 Q122.3594,834.5 122.1094,834.3281 Q121.8594,834.1563 121.75,833.7031 Q121.7031,833.3906 121.5313,833.2188 Q121.2188,832.8906 120.6563,832.7031 Q120.0938,832.5 119.5313,832.5 Q118.8281,832.5 118.2344,832.7813 Q117.6563,833.0625 117.2031,833.6875 Q116.75,834.3125 116.75,835.1719 L116.75,836.0938 Q116.75,837.125 117.5938,837.8125 Q118.4375,838.5 119.9375,838.5 Q120.8281,838.5 121.4531,838.2969 Q121.8125,838.1875 122.2188,837.8281 Q122.4844,837.625 122.625,837.5625 Q122.7656,837.5 122.9375,837.5 Q123.2656,837.5 123.5,837.7656 Q123.75,838.0156 123.75,838.375 Q123.75,838.7188 123.4063,839.125 Q122.9063,839.7188 122.1094,840.0469 Q121.0625,840.5 119.7813,840.5 Q118.2813,840.5 117.0781,839.9063 Q116.1094,839.4375 115.4219,838.4219 Q114.75,837.4063 114.75,836.2031 L114.75,835.1094 Q114.75,833.8594 115.3438,832.7656 Q115.9531,831.6719 117,831.0938 Q118.0625,830.5 119.25,830.5 Q119.9688,830.5 120.5938,830.75 Q121.2188,831 121.75,831.5 Z " fill="#000000"/><text fill="#000000" font-family="sans-serif" font-size="14" lengthAdjust="spacing" textLength="78" x="140.25" y="840.7285">BadRequest</text><line style="stroke:#181818;stroke-width:0.5;" x1="31" x2="295" y1="851" y2="851"/><line style="stroke:#181818;stroke-width:0.5;" x1="31" x2="295" y1="859" y2="859"/><text fill="#000000" font-family="sans-serif" font-size="14" lengthAdjust="spacing" textLength="254" x="36" y="877.5332">+BadRequest(request, errorDescription)</text><text fill="#000000" font-family="sans-serif" font-size="14" lengthAdjust="spacing" textLength="107" x="36" y="895.1426">+messageType()</text></g><!--MD5=[b0a34b84acd0c39559ba9c2da39eba50]
class BaseErrorRequest--><g id="elem_BaseErrorRequest"><rect codeLine="52" fill="#F1F1F1" height="136.0469" id="BaseErrorRequest" rx="2.5" ry="2.5" style="stroke:#181818;stroke-width:0.5;" width="305" x="96.5" y="614"/><ellipse cx="186.25" cy="630" fill="#ADD1B2" rx="11" ry="11" style="stroke:#181818;stroke-width:1.0;"/><path d="M188.25,626.5 Q188.4531,626 188.6875,625.75 Q188.9219,625.5 189.1875,625.5 Q189.6563,625.5 189.9531,625.7813 Q190.25,626.0625 190.25,626.7188 L190.25,628.2813 Q190.25,628.9375 189.9688,629.2188 Q189.6875,629.5 189.25,629.5 Q188.8594,629.5 188.6094,629.3281 Q188.3594,629.1563 188.25,628.7031 Q188.2031,628.3906 188.0313,628.2188 Q187.7188,627.8906 187.1563,627.7031 Q186.5938,627.5 186.0313,627.5 Q185.3281,627.5 184.7344,627.7813 Q184.1563,628.0625 183.7031,628.6875 Q183.25,629.3125 183.25,630.1719 L183.25,631.0938 Q183.25,632.125 184.0938,632.8125 Q184.9375,633.5 186.4375,633.5 Q187.3281,633.5 187.9531,633.2969 Q188.3125,633.1875 188.7188,632.8281 Q188.9844,632.625 189.125,632.5625 Q189.2656,632.5 189.4375,632.5 Q189.7656,632.5 190,632.7656 Q190.25,633.0156 190.25,633.375 Q190.25,633.7188 189.9063,634.125 Q189.4063,634.7188 188.6094,635.0469 Q187.5625,635.5 186.2813,635.5 Q184.7813,635.5 183.5781,634.9063 Q182.6094,634.4375 181.9219,633.4219 Q181.25,632.4063 181.25,631.2031 L181.25,630.1094 Q181.25,628.8594 181.8438,627.7656 Q182.4531,626.6719 183.5,626.0938 Q184.5625,625.5 185.75,625.5 Q186.4688,625.5 187.0938,625.75 Q187.7188,626 188.25,626.5 Z " fill="#000000"/><text fill="#000000" font-family="sans-serif" font-size="14" lengthAdjust="spacing" textLength="117" x="206.75" y="635.7285">BaseErrorRequest</text><line style="stroke:#181818;stroke-width:0.5;" x1="97.5" x2="400.5" y1="646" y2="646"/><line style="stroke:#181818;stroke-width:0.5;" x1="97.5" x2="400.5" y1="654" y2="654"/><text fill="#000000" font-family="sans-serif" font-size="14" lengthAdjust="spacing" textLength="293" x="102.5" y="672.5332">+BaseErrorRequest(request, errorDescription)</text><text fill="#000000" font-family="sans-serif" font-size="14" lengthAdjust="spacing" textLength="183" x="102.5" y="690.1426">+BaseErrorRequest(request)</text><text fill="#000000" font-family="sans-serif" font-size="14" lengthAdjust="spacing" textLength="67" x="102.5" y="707.752">+execute()</text><text fill="#000000" font-family="sans-serif" font-size="14" lengthAdjust="spacing" textLength="112" x="102.5" y="725.3613">+buildResponse()</text><text fill="#000000" font-family="sans-serif" font-size="14" lengthAdjust="spacing" textLength="107" x="102.5" y="742.9707">+messageType()</text></g><!--MD5=[f9ec5ddcc12b14cdf1a4275c5575830a]
class UnknownRequest--><g id="elem_UnknownRequest"><rect codeLine="59" fill="#F1F1F1" height="83.2188" id="UnknownRequest" rx="2.5" ry="2.5" style="stroke:#181818;stroke-width:0.5;" width="198" x="331" y="819"/><ellipse cx="371.2" cy="835" fill="#ADD1B2" rx="11" ry="11" style="stroke:#181818;stroke-width:1.0;"/><path d="M373.2,831.5 Q373.4031,831 373.6375,830.75 Q373.8719,830.5 374.1375,830.5 Q374.6063,830.5 374.9031,830.7813 Q375.2,831.0625 375.2,831.7188 L375.2,833.2813 Q375.2,833.9375 374.9188,834.2188 Q374.6375,834.5 374.2,834.5 Q373.8094,834.5 373.5594,834.3281 Q373.3094,834.1563 373.2,833.7031 Q373.1531,833.3906 372.9813,833.2188 Q372.6688,832.8906 372.1063,832.7031 Q371.5438,832.5 370.9813,832.5 Q370.2781,832.5 369.6844,832.7813 Q369.1063,833.0625 368.6531,833.6875 Q368.2,834.3125 368.2,835.1719 L368.2,836.0938 Q368.2,837.125 369.0438,837.8125 Q369.8875,838.5 371.3875,838.5 Q372.2781,838.5 372.9031,838.2969 Q373.2625,838.1875 373.6688,837.8281 Q373.9344,837.625 374.075,837.5625 Q374.2156,837.5 374.3875,837.5 Q374.7156,837.5 374.95,837.7656 Q375.2,838.0156 375.2,838.375 Q375.2,838.7188 374.8563,839.125 Q374.3563,839.7188 373.5594,840.0469 Q372.5125,840.5 371.2313,840.5 Q369.7313,840.5 368.5281,839.9063 Q367.5594,839.4375 366.8719,838.4219 Q366.2,837.4063 366.2,836.2031 L366.2,835.1094 Q366.2,833.8594 366.7938,832.7656 Q367.4031,831.6719 368.45,831.0938 Q369.5125,830.5 370.7,830.5 Q371.4188,830.5 372.0438,830.75 Q372.6688,831 373.2,831.5 Z " fill="#000000"/><text fill="#000000" font-family="sans-serif" font-size="14" lengthAdjust="spacing" textLength="110" x="390.8" y="840.7285">UnknownRequest</text><line style="stroke:#181818;stroke-width:0.5;" x1="332" x2="528" y1="851" y2="851"/><line style="stroke:#181818;stroke-width:0.5;" x1="332" x2="528" y1="859" y2="859"/><text fill="#000000" font-family="sans-serif" font-size="14" lengthAdjust="spacing" textLength="186" x="337" y="877.5332">+UnknownRequest(inputLine)</text><text fill="#000000" font-family="sans-serif" font-size="14" lengthAdjust="spacing" textLength="107" x="337" y="895.1426">+messageType()</text></g><!--MD5=[5f2359fa87ce08542854390afa627278]
link AGVManagerServer to AssignOrderProtocolServer--><g id="link_AGVManagerServer_AssignOrderProtocolServer"><path codeLine="65" d="M454.61,160.73 C451.26,186.12 446.9,219.1 443.24,246.75 " fill="none" id="AGVManagerServer-to-AssignOrderProtocolServer" style="stroke:#181818;stroke-width:1.0;stroke-dasharray:7.0,7.0;"/><polygon fill="#181818" points="442.57,251.85,447.718,243.4537,443.2271,246.8934,439.7874,242.4024,442.57,251.85" style="stroke:#181818;stroke-width:1.0;"/></g><!--MD5=[c1acd9062c81dc5a94e7ebcaa1e723fb]
link AGVManagerServer to AssignOrderProtocolMessageParser--><g id="link_AGVManagerServer_AssignOrderProtocolMessageParser"><path codeLine="66" d="M531.41,160.55 C548.11,173.51 563.95,189.42 574,208 C649.78,348.12 632.18,546.48 619.04,635.12 " fill="none" id="AGVManagerServer-to-AssignOrderProtocolMessageParser" style="stroke:#181818;stroke-width:1.0;stroke-dasharray:7.0,7.0;"/><polygon fill="#181818" points="618.26,640.28,623.5496,631.9722,619.001,635.3352,615.638,630.7866,618.26,640.28" style="stroke:#181818;stroke-width:1.0;"/></g><!--MD5=[e52f3716ec59f9e0b9a3e35e7757df23]
link AssignOrderProtocolMessageParser to AutoAssignOrderController--><g id="link_AssignOrderProtocolMessageParser_AutoAssignOrderController"><path codeLine="67" d="M720.18,723.51 C763.15,739.5 812.91,758.06 858,775 C894.35,788.66 934,803.65 969.65,817.16 " fill="none" id="AssignOrderProtocolMessageParser-to-AutoAssignOrderController" style="stroke:#181818;stroke-width:1.0;stroke-dasharray:7.0,7.0;"/><polygon fill="#181818" points="974.42,818.97,967.423,812.0388,969.7448,817.1972,964.5865,819.519,974.42,818.97" style="stroke:#181818;stroke-width:1.0;"/></g><!--MD5=[646f1a55fcb44249ea530e0e8dd69ace]
link AssignOrderProtocolMessageParser to UnknownRequest--><g id="link_AssignOrderProtocolMessageParser_UnknownRequest"><path codeLine="68" d="M569.02,723.94 C541.04,751.23 504.26,787.08 475.57,815.07 " fill="none" id="AssignOrderProtocolMessageParser-to-UnknownRequest" style="stroke:#181818;stroke-width:1.0;stroke-dasharray:7.0,7.0;"/><polygon fill="#181818" points="471.75,818.79,480.9915,815.3848,475.3352,815.3048,475.4152,809.6485,471.75,818.79" style="stroke:#181818;stroke-width:1.0;"/></g><!--MD5=[6dc051feb8fdaac688b7e1df511fa4ee]
link AssignOrderProtocolMessageParser to BadRequest--><g id="link_AssignOrderProtocolMessageParser_BadRequest"><path codeLine="69" d="M500.96,723.56 C474.3,732.79 445.77,742.17 419,750 C372.96,763.48 358.69,757.57 314,775 C285.69,786.04 256.18,801.55 230.84,816.27 " fill="none" id="AssignOrderProtocolMessageParser-to-BadRequest" style="stroke:#181818;stroke-width:1.0;stroke-dasharray:7.0,7.0;"/><polygon fill="#181818" points="226.48,818.82,236.2688,817.7343,230.7973,816.298,232.2336,810.8265,226.48,818.82" style="stroke:#181818;stroke-width:1.0;"/></g><!--MD5=[3588e01097e0d6c483fce83bb13acde9]
link AssignOrderProtocolMessageParser to AssignOrderRequest--><g id="link_AssignOrderProtocolMessageParser_AssignOrderRequest"><path codeLine="70" d="M632.34,723.94 C644.98,748.2 661.16,779.23 674.84,805.48 " fill="none" id="AssignOrderProtocolMessageParser-to-AssignOrderRequest" style="stroke:#181818;stroke-width:1.0;stroke-dasharray:7.0,7.0;"/><polygon fill="#181818" points="677.19,809.98,676.5667,800.1509,674.8742,805.5486,669.4765,803.8561,677.19,809.98" style="stroke:#181818;stroke-width:1.0;"/></g><!--MD5=[9ae67f6737e7dc07481cb8b01e5940ab]
link BaseErrorRequest to UnknownRequest--><g id="link_BaseErrorRequest_UnknownRequest"><path codeLine="71" d="M317.94,750.23 C340.14,771.88 364.18,795.31 384.27,814.91 " fill="none" id="BaseErrorRequest-to-UnknownRequest" style="stroke:#181818;stroke-width:1.0;stroke-dasharray:7.0,7.0;"/><polygon fill="#181818" points="388.24,818.78,384.5748,809.6385,384.6548,815.2948,378.9985,815.3748,388.24,818.78" style="stroke:#181818;stroke-width:1.0;"/></g><!--MD5=[fdbca5d34e7d95593274e5ccf3007c06]
link BaseErrorRequest to BadRequest--><g id="link_BaseErrorRequest_BadRequest"><path codeLine="72" d="M216.24,750.23 C205.87,771.52 194.66,794.53 185.21,813.93 " fill="none" id="BaseErrorRequest-to-BadRequest" style="stroke:#181818;stroke-width:1.0;stroke-dasharray:7.0,7.0;"/><polygon fill="#181818" points="182.84,818.78,190.3864,812.4514,185.0361,814.2881,183.1994,808.9377,182.84,818.78" style="stroke:#181818;stroke-width:1.0;"/></g><!--MD5=[cad56e7173fa9959de3e3c82c59afa65]
link AssignOrderProtocolServer to BaseErrorRequest--><g id="link_AssignOrderProtocolServer_BaseErrorRequest"><path codeLine="73" d="M451,353.46 C463.94,406.58 475.75,491.39 442,554 C430.13,576.01 412.6,594.83 392.87,610.72 " fill="none" id="AssignOrderProtocolServer-to-BaseErrorRequest" style="stroke:#181818;stroke-width:1.0;stroke-dasharray:7.0,7.0;"/><polygon fill="#181818" points="388.89,613.85,398.4331,611.415,392.8151,610.7527,393.4774,605.1348,388.89,613.85" style="stroke:#181818;stroke-width:1.0;"/></g><!--MD5=[5213411516e6e3dfe3f65a62a8a344d8]
link AssignOrderProtocolServer to AssignOrderProtocolRequest--><g id="link_AssignOrderProtocolServer_AssignOrderProtocolRequest"><path codeLine="74" d="M387.55,353.2 C359.07,382.41 323.09,419.32 294.02,449.14 " fill="none" id="AssignOrderProtocolServer-to-AssignOrderProtocolRequest" style="stroke:#181818;stroke-width:1.0;stroke-dasharray:7.0,7.0;"/><polygon fill="#181818" points="290.51,452.74,299.6588,449.0931,294.0023,449.1618,293.9336,443.5054,290.51,452.74" style="stroke:#181818;stroke-width:1.0;"/></g><!--MD5=[27d35877bf96bcebe2191f82329f483a]
link AssignOrderProtocolRequest to BaseErrorRequest--><g id="link_AssignOrderProtocolRequest_BaseErrorRequest"><path codeLine="75" d="M243.97,554.13 C244.64,571.1 245.41,590.43 246.14,608.8 " fill="none" id="AssignOrderProtocolRequest-to-BaseErrorRequest" style="stroke:#181818;stroke-width:1.0;stroke-dasharray:7.0,7.0;"/><polygon fill="#181818" points="246.34,613.96,249.9771,604.8073,246.1402,608.964,241.9835,605.1271,246.34,613.96" style="stroke:#181818;stroke-width:1.0;"/></g><!--MD5=[072ac929a63d2dcf23e1527332cb9def]
link AGVDigitalTwinApp to AssignOrderProtocolServer--><g id="link_AGVDigitalTwinApp_AssignOrderProtocolServer"><path codeLine="76" d="M182.36,152.03 C227.96,178.91 294,217.82 347.26,249.2 " fill="none" id="AGVDigitalTwinApp-to-AssignOrderProtocolServer" style="stroke:#181818;stroke-width:1.0;stroke-dasharray:7.0,7.0;"/><polygon fill="#181818" points="351.72,251.83,346.0093,243.8058,347.4162,249.2849,341.9371,250.6919,351.72,251.83" style="stroke:#181818;stroke-width:1.0;"/></g><!--MD5=[8f46af5f504753ac2cfe11569c612dc9]
@startuml
skinparam classAttributeIconSize 0


package "AGVManager"{
package "console"{
class AGVDigitalTwinApp{
+connect(address, port)
}
}
}

package "Application"{
class AutoAssignOrderController{
+Product_OrderDTO autoAssignOrder()
-Product_OrderDTO toDTOOrder(Product_Order order)
}
}

package "assignorder"{
package "presentation"{
class AssignOrderProtocolServer{
+AssignOrderProtocolServer(parser)
-listen(port)
+start(port, blocking)
}
}
class AGVManagerServer{
-AGVManagerServer()
+buildServerDependencies()
}
}

package "Server"{
class AssignOrderProtocolMessageParser{
+AssignOrderProtocolMessageParser(controller)
+parse(inputLine)
}
class AssignOrderProtocolRequest{
+AssignOrderProtocolRequest(controller, inputRequest)
+execute()
+isGoodbye()
}
class AssignOrderRequest{
+AssignOrderRequest(controller, request)
+execute()
+buildResponse(token)
}
class BadRequest{
+BadRequest(request, errorDescription)
+messageType()
}
class BaseErrorRequest{
+BaseErrorRequest(request, errorDescription)
+BaseErrorRequest(request)
+execute()
+buildResponse()
+messageType()
}
class UnknownRequest{
+UnknownRequest(inputLine)
+messageType()
}
}

AGVManagerServer .-> AssignOrderProtocolServer
AGVManagerServer .-> AssignOrderProtocolMessageParser
AssignOrderProtocolMessageParser .-> AutoAssignOrderController
AssignOrderProtocolMessageParser .-> UnknownRequest
AssignOrderProtocolMessageParser .-> BadRequest
AssignOrderProtocolMessageParser .-> AssignOrderRequest
BaseErrorRequest .-> UnknownRequest
BaseErrorRequest .-> BadRequest
AssignOrderProtocolServer .-> BaseErrorRequest
AssignOrderProtocolServer .-> AssignOrderProtocolRequest
AssignOrderProtocolRequest .-> BaseErrorRequest
AGVDigitalTwinApp .-> AssignOrderProtocolServer



@enduml

PlantUML version 1.2022.4(Sat Apr 09 14:29:17 BST 2022)
(GPL source distribution)
Java Runtime: OpenJDK Runtime Environment
JVM: OpenJDK 64-Bit Server VM
Default Encoding: Cp1252
Language: pt
Country: PT
--></g></svg>