<?xml version="1.0" encoding="UTF-8" standalone="no"?><svg xmlns="http://www.w3.org/2000/svg" xmlns:xlink="http://www.w3.org/1999/xlink" contentStyleType="text/css" height="633px" preserveAspectRatio="none" style="width:531px;height:633px;background:#FFFFFF;" version="1.1" viewBox="0 0 531 633" width="531px" zoomAndPan="magnify"><defs/><g><!--MD5=[21278497e3b717440c1992229d7cb5dc]
cluster order--><g id="cluster_order"><path d="M8.5,264 L48.5,264 A3.75,3.75 0 0 1 51,266.5 L58,287.6094 L106.5,287.6094 A2.5,2.5 0 0 1 109,290.1094 L109,365.5 A2.5,2.5 0 0 1 106.5,368 L8.5,368 A2.5,2.5 0 0 1 6,365.5 L6,266.5 A2.5,2.5 0 0 1 8.5,264 " style="stroke:#000000;stroke-width:1.5;fill:none;"/><line style="stroke:#000000;stroke-width:1.5;fill:none;" x1="6" x2="58" y1="287.6094" y2="287.6094"/><text fill="#000000" font-family="sans-serif" font-size="14" font-weight="bold" lengthAdjust="spacing" textLength="39" x="10" y="280.5332">order</text></g><!--MD5=[5c1a4368efc4020c811f0dec2d8123d2]
cluster agv--><g id="cluster_agv"><path d="M225.5,6 L252.5,6 A3.75,3.75 0 0 1 255,8.5 L262,29.6094 L521.5,29.6094 A2.5,2.5 0 0 1 524,32.1094 L524,623.5 A2.5,2.5 0 0 1 521.5,626 L225.5,626 A2.5,2.5 0 0 1 223,623.5 L223,8.5 A2.5,2.5 0 0 1 225.5,6 " style="stroke:#000000;stroke-width:1.5;fill:none;"/><line style="stroke:#000000;stroke-width:1.5;fill:none;" x1="223" x2="262" y1="29.6094" y2="29.6094"/><text fill="#000000" font-family="sans-serif" font-size="14" font-weight="bold" lengthAdjust="spacing" textLength="26" x="227" y="22.5332">agv</text></g><!--MD5=[cf4d6237fcae255cd2e1656cf84a30e2]
class Order--><g id="elem_Order"><rect codeLine="6" fill="#F1F1F1" height="50.7031" id="Order" rx="2.5" ry="2.5" style="stroke:#181818;stroke-width:0.5;" width="71" x="22" y="300.5"/><ellipse cx="37" cy="321.8516" fill="#ADD1B2" rx="11" ry="11" style="stroke:#181818;stroke-width:1.0;"/><path d="M39,318.3516 Q39.2031,317.8516 39.4375,317.6016 Q39.6719,317.3516 39.9375,317.3516 Q40.4063,317.3516 40.7031,317.6328 Q41,317.9141 41,318.5703 L41,320.1328 Q41,320.7891 40.7188,321.0703 Q40.4375,321.3516 40,321.3516 Q39.6094,321.3516 39.3594,321.1797 Q39.1094,321.0078 39,320.5547 Q38.9531,320.2422 38.7813,320.0703 Q38.4688,319.7422 37.9063,319.5547 Q37.3438,319.3516 36.7813,319.3516 Q36.0781,319.3516 35.4844,319.6328 Q34.9063,319.9141 34.4531,320.5391 Q34,321.1641 34,322.0234 L34,322.9453 Q34,323.9766 34.8438,324.6641 Q35.6875,325.3516 37.1875,325.3516 Q38.0781,325.3516 38.7031,325.1484 Q39.0625,325.0391 39.4688,324.6797 Q39.7344,324.4766 39.875,324.4141 Q40.0156,324.3516 40.1875,324.3516 Q40.5156,324.3516 40.75,324.6172 Q41,324.8672 41,325.2266 Q41,325.5703 40.6563,325.9766 Q40.1563,326.5703 39.3594,326.8984 Q38.3125,327.3516 37.0313,327.3516 Q35.5313,327.3516 34.3281,326.7578 Q33.3594,326.2891 32.6719,325.2734 Q32,324.2578 32,323.0547 L32,321.9609 Q32,320.7109 32.5938,319.6172 Q33.2031,318.5234 34.25,317.9453 Q35.3125,317.3516 36.5,317.3516 Q37.2188,317.3516 37.8438,317.6016 Q38.4688,317.8516 39,318.3516 Z " fill="#000000"/><text fill="#000000" font-family="sans-serif" font-size="12" font-style="italic" lengthAdjust="spacing" textLength="43" x="49" y="317.957">«entity»</text><text fill="#000000" font-family="sans-serif" font-size="14" lengthAdjust="spacing" textLength="37" x="52" y="335.127">Order</text><line style="stroke:#181818;stroke-width:0.5;" x1="23" x2="92" y1="343.2031" y2="343.2031"/></g><!--MD5=[53b2c06ade5903185ca3326dce80e141]
class AGV--><g id="elem_AGV"><rect codeLine="13" fill="#F1F1F1" height="68.3125" id="AGV" rx="2.5" ry="2.5" style="stroke:#181818;stroke-width:0.5;" width="71" x="239" y="292"/><ellipse cx="254" cy="313.3516" fill="#ADD1B2" rx="11" ry="11" style="stroke:#181818;stroke-width:1.0;"/><path d="M256,309.8516 Q256.2031,309.3516 256.4375,309.1016 Q256.6719,308.8516 256.9375,308.8516 Q257.4063,308.8516 257.7031,309.1328 Q258,309.4141 258,310.0703 L258,311.6328 Q258,312.2891 257.7188,312.5703 Q257.4375,312.8516 257,312.8516 Q256.6094,312.8516 256.3594,312.6797 Q256.1094,312.5078 256,312.0547 Q255.9531,311.7422 255.7813,311.5703 Q255.4688,311.2422 254.9063,311.0547 Q254.3438,310.8516 253.7813,310.8516 Q253.0781,310.8516 252.4844,311.1328 Q251.9063,311.4141 251.4531,312.0391 Q251,312.6641 251,313.5234 L251,314.4453 Q251,315.4766 251.8438,316.1641 Q252.6875,316.8516 254.1875,316.8516 Q255.0781,316.8516 255.7031,316.6484 Q256.0625,316.5391 256.4688,316.1797 Q256.7344,315.9766 256.875,315.9141 Q257.0156,315.8516 257.1875,315.8516 Q257.5156,315.8516 257.75,316.1172 Q258,316.3672 258,316.7266 Q258,317.0703 257.6563,317.4766 Q257.1563,318.0703 256.3594,318.3984 Q255.3125,318.8516 254.0313,318.8516 Q252.5313,318.8516 251.3281,318.2578 Q250.3594,317.7891 249.6719,316.7734 Q249,315.7578 249,314.5547 L249,313.4609 Q249,312.2109 249.5938,311.1172 Q250.2031,310.0234 251.25,309.4453 Q252.3125,308.8516 253.5,308.8516 Q254.2188,308.8516 254.8438,309.1016 Q255.4688,309.3516 256,309.8516 Z " fill="#000000"/><text fill="#000000" font-family="sans-serif" font-size="12" font-style="italic" lengthAdjust="spacing" textLength="43" x="266" y="309.457">«entity»</text><text fill="#000000" font-family="sans-serif" font-size="14" lengthAdjust="spacing" textLength="29" x="273" y="326.627">AGV</text><line style="stroke:#181818;stroke-width:0.5;" x1="240" x2="309" y1="334.7031" y2="334.7031"/><text fill="#000000" font-family="sans-serif" font-size="14" lengthAdjust="spacing" textLength="16" x="245" y="353.2363">-id</text></g><!--MD5=[79d3acb8d8b4a000645cdf546551f625]
class ShortDescription--><g id="elem_ShortDescription"><rect fill="#F1F1F1" height="50.7031" id="ShortDescription" rx="2.5" ry="2.5" style="stroke:#181818;stroke-width:0.5;" width="137" x="371" y="558.5"/><ellipse cx="386" cy="579.8516" fill="#ADD1B2" rx="11" ry="11" style="stroke:#181818;stroke-width:1.0;"/><path d="M388,576.3516 Q388.2031,575.8516 388.4375,575.6016 Q388.6719,575.3516 388.9375,575.3516 Q389.4063,575.3516 389.7031,575.6328 Q390,575.9141 390,576.5703 L390,578.1328 Q390,578.7891 389.7188,579.0703 Q389.4375,579.3516 389,579.3516 Q388.6094,579.3516 388.3594,579.1797 Q388.1094,579.0078 388,578.5547 Q387.9531,578.2422 387.7813,578.0703 Q387.4688,577.7422 386.9063,577.5547 Q386.3438,577.3516 385.7813,577.3516 Q385.0781,577.3516 384.4844,577.6328 Q383.9063,577.9141 383.4531,578.5391 Q383,579.1641 383,580.0234 L383,580.9453 Q383,581.9766 383.8438,582.6641 Q384.6875,583.3516 386.1875,583.3516 Q387.0781,583.3516 387.7031,583.1484 Q388.0625,583.0391 388.4688,582.6797 Q388.7344,582.4766 388.875,582.4141 Q389.0156,582.3516 389.1875,582.3516 Q389.5156,582.3516 389.75,582.6172 Q390,582.8672 390,583.2266 Q390,583.5703 389.6563,583.9766 Q389.1563,584.5703 388.3594,584.8984 Q387.3125,585.3516 386.0313,585.3516 Q384.5313,585.3516 383.3281,584.7578 Q382.3594,584.2891 381.6719,583.2734 Q381,582.2578 381,581.0547 L381,579.9609 Q381,578.7109 381.5938,577.6172 Q382.2031,576.5234 383.25,575.9453 Q384.3125,575.3516 385.5,575.3516 Q386.2188,575.3516 386.8438,575.6016 Q387.4688,575.8516 388,576.3516 Z " fill="#000000"/><text fill="#000000" font-family="sans-serif" font-size="12" font-style="italic" lengthAdjust="spacing" textLength="81" x="412" y="575.957">«value object»</text><text fill="#000000" font-family="sans-serif" font-size="14" lengthAdjust="spacing" textLength="105" x="400" y="593.127">ShortDescription</text><line style="stroke:#181818;stroke-width:0.5;" x1="372" x2="507" y1="601.2031" y2="601.2031"/></g><!--MD5=[7e20e022571e30ec1001cf6eabd7f3e2]
class Model--><g id="elem_Model"><rect fill="#F1F1F1" height="50.7031" id="Model" rx="2.5" ry="2.5" style="stroke:#181818;stroke-width:0.5;" width="109" x="385" y="472.5"/><ellipse cx="400" cy="493.8516" fill="#ADD1B2" rx="11" ry="11" style="stroke:#181818;stroke-width:1.0;"/><path d="M402,490.3516 Q402.2031,489.8516 402.4375,489.6016 Q402.6719,489.3516 402.9375,489.3516 Q403.4063,489.3516 403.7031,489.6328 Q404,489.9141 404,490.5703 L404,492.1328 Q404,492.7891 403.7188,493.0703 Q403.4375,493.3516 403,493.3516 Q402.6094,493.3516 402.3594,493.1797 Q402.1094,493.0078 402,492.5547 Q401.9531,492.2422 401.7813,492.0703 Q401.4688,491.7422 400.9063,491.5547 Q400.3438,491.3516 399.7813,491.3516 Q399.0781,491.3516 398.4844,491.6328 Q397.9063,491.9141 397.4531,492.5391 Q397,493.1641 397,494.0234 L397,494.9453 Q397,495.9766 397.8438,496.6641 Q398.6875,497.3516 400.1875,497.3516 Q401.0781,497.3516 401.7031,497.1484 Q402.0625,497.0391 402.4688,496.6797 Q402.7344,496.4766 402.875,496.4141 Q403.0156,496.3516 403.1875,496.3516 Q403.5156,496.3516 403.75,496.6172 Q404,496.8672 404,497.2266 Q404,497.5703 403.6563,497.9766 Q403.1563,498.5703 402.3594,498.8984 Q401.3125,499.3516 400.0313,499.3516 Q398.5313,499.3516 397.3281,498.7578 Q396.3594,498.2891 395.6719,497.2734 Q395,496.2578 395,495.0547 L395,493.9609 Q395,492.7109 395.5938,491.6172 Q396.2031,490.5234 397.25,489.9453 Q398.3125,489.3516 399.5,489.3516 Q400.2188,489.3516 400.8438,489.6016 Q401.4688,489.8516 402,490.3516 Z " fill="#000000"/><text fill="#000000" font-family="sans-serif" font-size="12" font-style="italic" lengthAdjust="spacing" textLength="81" x="412" y="489.957">«value object»</text><text fill="#000000" font-family="sans-serif" font-size="14" lengthAdjust="spacing" textLength="38" x="433.5" y="507.127">Model</text><line style="stroke:#181818;stroke-width:0.5;" x1="386" x2="493" y1="515.2031" y2="515.2031"/></g><!--MD5=[16d95e38f003ccc6ecae27689936446e]
class MaximumWeight--><g id="elem_MaximumWeight"><rect fill="#F1F1F1" height="50.7031" id="MaximumWeight" rx="2.5" ry="2.5" style="stroke:#181818;stroke-width:0.5;" width="134" x="372.5" y="386.5"/><ellipse cx="387.5" cy="407.8516" fill="#ADD1B2" rx="11" ry="11" style="stroke:#181818;stroke-width:1.0;"/><path d="M389.5,404.3516 Q389.7031,403.8516 389.9375,403.6016 Q390.1719,403.3516 390.4375,403.3516 Q390.9063,403.3516 391.2031,403.6328 Q391.5,403.9141 391.5,404.5703 L391.5,406.1328 Q391.5,406.7891 391.2188,407.0703 Q390.9375,407.3516 390.5,407.3516 Q390.1094,407.3516 389.8594,407.1797 Q389.6094,407.0078 389.5,406.5547 Q389.4531,406.2422 389.2813,406.0703 Q388.9688,405.7422 388.4063,405.5547 Q387.8438,405.3516 387.2813,405.3516 Q386.5781,405.3516 385.9844,405.6328 Q385.4063,405.9141 384.9531,406.5391 Q384.5,407.1641 384.5,408.0234 L384.5,408.9453 Q384.5,409.9766 385.3438,410.6641 Q386.1875,411.3516 387.6875,411.3516 Q388.5781,411.3516 389.2031,411.1484 Q389.5625,411.0391 389.9688,410.6797 Q390.2344,410.4766 390.375,410.4141 Q390.5156,410.3516 390.6875,410.3516 Q391.0156,410.3516 391.25,410.6172 Q391.5,410.8672 391.5,411.2266 Q391.5,411.5703 391.1563,411.9766 Q390.6563,412.5703 389.8594,412.8984 Q388.8125,413.3516 387.5313,413.3516 Q386.0313,413.3516 384.8281,412.7578 Q383.8594,412.2891 383.1719,411.2734 Q382.5,410.2578 382.5,409.0547 L382.5,407.9609 Q382.5,406.7109 383.0938,405.6172 Q383.7031,404.5234 384.75,403.9453 Q385.8125,403.3516 387,403.3516 Q387.7188,403.3516 388.3438,403.6016 Q388.9688,403.8516 389.5,404.3516 Z " fill="#000000"/><text fill="#000000" font-family="sans-serif" font-size="12" font-style="italic" lengthAdjust="spacing" textLength="81" x="412" y="403.957">«value object»</text><text fill="#000000" font-family="sans-serif" font-size="14" lengthAdjust="spacing" textLength="102" x="401.5" y="421.127">MaximumWeight</text><line style="stroke:#181818;stroke-width:0.5;" x1="373.5" x2="505.5" y1="429.2031" y2="429.2031"/></g><!--MD5=[b285e37e75726846a0747551cbfd9ec4]
class MaximumVolume--><g id="elem_MaximumVolume"><rect fill="#F1F1F1" height="50.7031" id="MaximumVolume" rx="2.5" ry="2.5" style="stroke:#181818;stroke-width:0.5;" width="137" x="371" y="300.5"/><ellipse cx="386" cy="321.8516" fill="#ADD1B2" rx="11" ry="11" style="stroke:#181818;stroke-width:1.0;"/><path d="M388,318.3516 Q388.2031,317.8516 388.4375,317.6016 Q388.6719,317.3516 388.9375,317.3516 Q389.4063,317.3516 389.7031,317.6328 Q390,317.9141 390,318.5703 L390,320.1328 Q390,320.7891 389.7188,321.0703 Q389.4375,321.3516 389,321.3516 Q388.6094,321.3516 388.3594,321.1797 Q388.1094,321.0078 388,320.5547 Q387.9531,320.2422 387.7813,320.0703 Q387.4688,319.7422 386.9063,319.5547 Q386.3438,319.3516 385.7813,319.3516 Q385.0781,319.3516 384.4844,319.6328 Q383.9063,319.9141 383.4531,320.5391 Q383,321.1641 383,322.0234 L383,322.9453 Q383,323.9766 383.8438,324.6641 Q384.6875,325.3516 386.1875,325.3516 Q387.0781,325.3516 387.7031,325.1484 Q388.0625,325.0391 388.4688,324.6797 Q388.7344,324.4766 388.875,324.4141 Q389.0156,324.3516 389.1875,324.3516 Q389.5156,324.3516 389.75,324.6172 Q390,324.8672 390,325.2266 Q390,325.5703 389.6563,325.9766 Q389.1563,326.5703 388.3594,326.8984 Q387.3125,327.3516 386.0313,327.3516 Q384.5313,327.3516 383.3281,326.7578 Q382.3594,326.2891 381.6719,325.2734 Q381,324.2578 381,323.0547 L381,321.9609 Q381,320.7109 381.5938,319.6172 Q382.2031,318.5234 383.25,317.9453 Q384.3125,317.3516 385.5,317.3516 Q386.2188,317.3516 386.8438,317.6016 Q387.4688,317.8516 388,318.3516 Z " fill="#000000"/><text fill="#000000" font-family="sans-serif" font-size="12" font-style="italic" lengthAdjust="spacing" textLength="81" x="412" y="317.957">«value object»</text><text fill="#000000" font-family="sans-serif" font-size="14" lengthAdjust="spacing" textLength="105" x="400" y="335.127">MaximumVolume</text><line style="stroke:#181818;stroke-width:0.5;" x1="372" x2="507" y1="343.2031" y2="343.2031"/></g><!--MD5=[064b306410e464970cda6c2fc60b7bb8]
class BaseLocation--><g id="elem_BaseLocation"><rect fill="#F1F1F1" height="50.7031" id="BaseLocation" rx="2.5" ry="2.5" style="stroke:#181818;stroke-width:0.5;" width="118" x="380.5" y="214.5"/><ellipse cx="395.5" cy="235.8516" fill="#ADD1B2" rx="11" ry="11" style="stroke:#181818;stroke-width:1.0;"/><path d="M397.5,232.3516 Q397.7031,231.8516 397.9375,231.6016 Q398.1719,231.3516 398.4375,231.3516 Q398.9063,231.3516 399.2031,231.6328 Q399.5,231.9141 399.5,232.5703 L399.5,234.1328 Q399.5,234.7891 399.2188,235.0703 Q398.9375,235.3516 398.5,235.3516 Q398.1094,235.3516 397.8594,235.1797 Q397.6094,235.0078 397.5,234.5547 Q397.4531,234.2422 397.2813,234.0703 Q396.9688,233.7422 396.4063,233.5547 Q395.8438,233.3516 395.2813,233.3516 Q394.5781,233.3516 393.9844,233.6328 Q393.4063,233.9141 392.9531,234.5391 Q392.5,235.1641 392.5,236.0234 L392.5,236.9453 Q392.5,237.9766 393.3438,238.6641 Q394.1875,239.3516 395.6875,239.3516 Q396.5781,239.3516 397.2031,239.1484 Q397.5625,239.0391 397.9688,238.6797 Q398.2344,238.4766 398.375,238.4141 Q398.5156,238.3516 398.6875,238.3516 Q399.0156,238.3516 399.25,238.6172 Q399.5,238.8672 399.5,239.2266 Q399.5,239.5703 399.1563,239.9766 Q398.6563,240.5703 397.8594,240.8984 Q396.8125,241.3516 395.5313,241.3516 Q394.0313,241.3516 392.8281,240.7578 Q391.8594,240.2891 391.1719,239.2734 Q390.5,238.2578 390.5,237.0547 L390.5,235.9609 Q390.5,234.7109 391.0938,233.6172 Q391.7031,232.5234 392.75,231.9453 Q393.8125,231.3516 395,231.3516 Q395.7188,231.3516 396.3438,231.6016 Q396.9688,231.8516 397.5,232.3516 Z " fill="#000000"/><text fill="#000000" font-family="sans-serif" font-size="12" font-style="italic" lengthAdjust="spacing" textLength="81" x="412" y="231.957">«value object»</text><text fill="#000000" font-family="sans-serif" font-size="14" lengthAdjust="spacing" textLength="86" x="409.5" y="249.127">BaseLocation</text><line style="stroke:#181818;stroke-width:0.5;" x1="381.5" x2="497.5" y1="257.2031" y2="257.2031"/></g><!--MD5=[e3d83ec5fd90ea9f3f2bfe265cb53458]
class Status--><g id="elem_Status"><rect fill="#F1F1F1" height="50.7031" id="Status" rx="2.5" ry="2.5" style="stroke:#181818;stroke-width:0.5;" width="109" x="385" y="128.5"/><ellipse cx="400" cy="149.8516" fill="#ADD1B2" rx="11" ry="11" style="stroke:#181818;stroke-width:1.0;"/><path d="M402,146.3516 Q402.2031,145.8516 402.4375,145.6016 Q402.6719,145.3516 402.9375,145.3516 Q403.4063,145.3516 403.7031,145.6328 Q404,145.9141 404,146.5703 L404,148.1328 Q404,148.7891 403.7188,149.0703 Q403.4375,149.3516 403,149.3516 Q402.6094,149.3516 402.3594,149.1797 Q402.1094,149.0078 402,148.5547 Q401.9531,148.2422 401.7813,148.0703 Q401.4688,147.7422 400.9063,147.5547 Q400.3438,147.3516 399.7813,147.3516 Q399.0781,147.3516 398.4844,147.6328 Q397.9063,147.9141 397.4531,148.5391 Q397,149.1641 397,150.0234 L397,150.9453 Q397,151.9766 397.8438,152.6641 Q398.6875,153.3516 400.1875,153.3516 Q401.0781,153.3516 401.7031,153.1484 Q402.0625,153.0391 402.4688,152.6797 Q402.7344,152.4766 402.875,152.4141 Q403.0156,152.3516 403.1875,152.3516 Q403.5156,152.3516 403.75,152.6172 Q404,152.8672 404,153.2266 Q404,153.5703 403.6563,153.9766 Q403.1563,154.5703 402.3594,154.8984 Q401.3125,155.3516 400.0313,155.3516 Q398.5313,155.3516 397.3281,154.7578 Q396.3594,154.2891 395.6719,153.2734 Q395,152.2578 395,151.0547 L395,149.9609 Q395,148.7109 395.5938,147.6172 Q396.2031,146.5234 397.25,145.9453 Q398.3125,145.3516 399.5,145.3516 Q400.2188,145.3516 400.8438,145.6016 Q401.4688,145.8516 402,146.3516 Z " fill="#000000"/><text fill="#000000" font-family="sans-serif" font-size="12" font-style="italic" lengthAdjust="spacing" textLength="81" x="412" y="145.957">«value object»</text><text fill="#000000" font-family="sans-serif" font-size="14" lengthAdjust="spacing" textLength="40" x="432.5" y="163.127">Status</text><line style="stroke:#181818;stroke-width:0.5;" x1="386" x2="493" y1="171.2031" y2="171.2031"/></g><!--MD5=[38bcef8836b1321d22ded0540bc794c3]
class CurrentTask--><g id="elem_CurrentTask"><rect fill="#F1F1F1" height="50.7031" id="CurrentTask" rx="2.5" ry="2.5" style="stroke:#181818;stroke-width:0.5;" width="111" x="384" y="42.5"/><ellipse cx="399" cy="63.8516" fill="#ADD1B2" rx="11" ry="11" style="stroke:#181818;stroke-width:1.0;"/><path d="M401,60.3516 Q401.2031,59.8516 401.4375,59.6016 Q401.6719,59.3516 401.9375,59.3516 Q402.4063,59.3516 402.7031,59.6328 Q403,59.9141 403,60.5703 L403,62.1328 Q403,62.7891 402.7188,63.0703 Q402.4375,63.3516 402,63.3516 Q401.6094,63.3516 401.3594,63.1797 Q401.1094,63.0078 401,62.5547 Q400.9531,62.2422 400.7813,62.0703 Q400.4688,61.7422 399.9063,61.5547 Q399.3438,61.3516 398.7813,61.3516 Q398.0781,61.3516 397.4844,61.6328 Q396.9063,61.9141 396.4531,62.5391 Q396,63.1641 396,64.0234 L396,64.9453 Q396,65.9766 396.8438,66.6641 Q397.6875,67.3516 399.1875,67.3516 Q400.0781,67.3516 400.7031,67.1484 Q401.0625,67.0391 401.4688,66.6797 Q401.7344,66.4766 401.875,66.4141 Q402.0156,66.3516 402.1875,66.3516 Q402.5156,66.3516 402.75,66.6172 Q403,66.8672 403,67.2266 Q403,67.5703 402.6563,67.9766 Q402.1563,68.5703 401.3594,68.8984 Q400.3125,69.3516 399.0313,69.3516 Q397.5313,69.3516 396.3281,68.7578 Q395.3594,68.2891 394.6719,67.2734 Q394,66.2578 394,65.0547 L394,63.9609 Q394,62.7109 394.5938,61.6172 Q395.2031,60.5234 396.25,59.9453 Q397.3125,59.3516 398.5,59.3516 Q399.2188,59.3516 399.8438,59.6016 Q400.4688,59.8516 401,60.3516 Z " fill="#000000"/><text fill="#000000" font-family="sans-serif" font-size="12" font-style="italic" lengthAdjust="spacing" textLength="81" x="412" y="59.957">«value object»</text><text fill="#000000" font-family="sans-serif" font-size="14" lengthAdjust="spacing" textLength="79" x="413" y="77.127">CurrentTask</text><line style="stroke:#181818;stroke-width:0.5;" x1="385" x2="494" y1="85.2031" y2="85.2031"/></g><!--MD5=[5ec02356f496e963d0f6fc7dcdfc5886]
link Order to AGV--><g id="link_Order_AGV"><path codeLine="31" d="M93.04,326 C133.05,326 198.57,326 238.69,326 " fill="none" id="Order-AGV" style="stroke:#181818;stroke-width:1.0;"/><polygon fill="#000000" points="135,317.1758,125.9549,314.2369,125.9549,320.1147,135,317.1758" style="stroke:#000000;stroke-width:1.0;"/><text fill="#000000" font-family="sans-serif" font-size="13" lengthAdjust="spacing" textLength="67" x="139" y="322.4951">assigned to</text><text fill="#000000" font-family="sans-serif" font-size="13" lengthAdjust="spacing" textLength="7" x="101.092" y="341.212">1</text><text fill="#000000" font-family="sans-serif" font-size="13" lengthAdjust="spacing" textLength="5" x="225.7886" y="341.1491">*</text></g><!--MD5=[bba317dcae9279c3937714ed06aa4019]
link AGV to ShortDescription--><g id="link_AGV_ShortDescription"><path codeLine="32" d="M284.02,360.29 C296.71,405.79 324.23,486.68 371,541 C375.41,546.12 380.57,550.84 386.05,555.14 " fill="none" id="AGV-to-ShortDescription" style="stroke:#181818;stroke-width:1.0;"/><polygon fill="#181818" points="390.3,558.34,385.5196,549.7291,386.3069,555.3309,380.705,556.1181,390.3,558.34" style="stroke:#181818;stroke-width:1.0;"/><text fill="#000000" font-family="sans-serif" font-size="13" lengthAdjust="spacing" textLength="7" x="370.4544" y="547.7095">1</text></g><!--MD5=[90de021bb2aa8991bb28cb59916c543e]
link AGV to Model--><g id="link_AGV_Model"><path codeLine="33" d="M295.87,360.21 C313.45,387.89 340.73,426.78 371,455 C376.45,460.08 382.58,464.92 388.86,469.4 " fill="none" id="AGV-to-Model" style="stroke:#181818;stroke-width:1.0;"/><polygon fill="#181818" points="393.23,472.43,388.1193,464.011,389.1232,469.578,383.5561,470.5819,393.23,472.43" style="stroke:#181818;stroke-width:1.0;"/><text fill="#000000" font-family="sans-serif" font-size="13" lengthAdjust="spacing" textLength="7" x="374.0986" y="461.8215">1</text></g><!--MD5=[c72f1e6940ed6ecc2c144a601f0c19a4]
link AGV to MaximumWeight--><g id="link_AGV_MaximumWeight"><path codeLine="34" d="M310.07,344.24 C331.97,355.8 360.74,370.97 385.5,384.04 " fill="none" id="AGV-to-MaximumWeight" style="stroke:#181818;stroke-width:1.0;"/><polygon fill="#181818" points="390.07,386.45,383.9759,378.7129,385.6476,384.1171,380.2434,385.7888,390.07,386.45" style="stroke:#181818;stroke-width:1.0;"/><text fill="#000000" font-family="sans-serif" font-size="13" lengthAdjust="spacing" textLength="7" x="370.1683" y="375.8463">1</text></g><!--MD5=[67bde9aab136fc3a908675e16468351d]
link AGV to MaximumVolume--><g id="link_AGV_MaximumVolume"><path codeLine="35" d="M310.07,326 C326.21,326 346.08,326 365.33,326 " fill="none" id="AGV-to-MaximumVolume" style="stroke:#181818;stroke-width:1.0;"/><polygon fill="#181818" points="370.74,326,361.74,322,365.74,326,361.74,330,370.74,326" style="stroke:#181818;stroke-width:1.0;"/><text fill="#000000" font-family="sans-serif" font-size="13" lengthAdjust="spacing" textLength="7" x="355.8366" y="340.4056">1</text></g><!--MD5=[670f8ab1959079f3e542dc0d97ca6264]
link AGV to BaseLocation--><g id="link_AGV_BaseLocation"><path codeLine="36" d="M310.07,307.76 C331.97,296.2 360.74,281.03 385.5,267.96 " fill="none" id="AGV-to-BaseLocation" style="stroke:#181818;stroke-width:1.0;"/><polygon fill="#181818" points="390.07,265.55,380.2434,266.2112,385.6476,267.8829,383.9759,273.2871,390.07,265.55" style="stroke:#181818;stroke-width:1.0;"/><text fill="#000000" font-family="sans-serif" font-size="13" lengthAdjust="spacing" textLength="7" x="370.8299" y="286.8785">1</text></g><!--MD5=[f5443cc58319b313032a803e076be4aa]
link AGV to Status--><g id="link_AGV_Status"><path codeLine="37" d="M295.87,291.79 C313.45,264.11 340.73,225.22 371,197 C376.45,191.92 382.58,187.08 388.86,182.6 " fill="none" id="AGV-to-Status" style="stroke:#181818;stroke-width:1.0;"/><polygon fill="#181818" points="393.23,179.57,383.5561,181.4181,389.1232,182.422,388.1193,187.989,393.23,179.57" style="stroke:#181818;stroke-width:1.0;"/><text fill="#000000" font-family="sans-serif" font-size="13" lengthAdjust="spacing" textLength="7" x="374.7207" y="200.9032">1</text></g><!--MD5=[92849aba45a5a3491428223c69d2c017]
link AGV to CurrentTask--><g id="link_AGV_CurrentTask"><path codeLine="38" d="M284.02,291.71 C296.71,246.21 324.23,165.32 371,111 C375.41,105.88 380.57,101.16 386.05,96.86 " fill="none" id="AGV-to-CurrentTask" style="stroke:#181818;stroke-width:1.0;"/><polygon fill="#181818" points="390.3,93.66,380.705,95.8819,386.3069,96.6691,385.5196,102.2709,390.3,93.66" style="stroke:#181818;stroke-width:1.0;"/><text fill="#000000" font-family="sans-serif" font-size="13" lengthAdjust="spacing" textLength="7" x="371.7719" y="114.5892">1</text></g><!--MD5=[7af47df451164e819f7e9e1c77410f7b]
@startuml
hide methods
left to right direction
skinparam classAttributeIconSize 0

package "order"{
class Order{

}
}


package "agv"{
class AGV{
-id
}

AGV <<entity>>
ShortDescription <<value object>>
Model <<value object>>
MaximumWeight <<value object>>
MaximumVolume <<value object>>
BaseLocation <<value object>>
Status <<value object>>
CurrentTask <<value object>>
}

Order <<entity>>
AGV <<entity>>


Order "1" - - "*" AGV : assigned to >
AGV  - -> "1" ShortDescription
AGV  - -> "1" Model
AGV  - -> "1" MaximumWeight
AGV  - -> "1" MaximumVolume
AGV  - -> "1" BaseLocation
AGV  - -> "1" Status
AGV  - -> "1" CurrentTask


@enduml

PlantUML version 1.2022.4(Sat Apr 09 14:29:17 BST 2022)
(GPL source distribution)
Java Runtime: OpenJDK Runtime Environment
JVM: OpenJDK 64-Bit Server VM
Default Encoding: Cp1252
Language: pt
Country: PT
--></g></svg>