<?xml version="1.0" encoding="UTF-8" standalone="no"?><svg xmlns="http://www.w3.org/2000/svg" xmlns:xlink="http://www.w3.org/1999/xlink" contentStyleType="text/css" height="1363px" preserveAspectRatio="none" style="width:719px;height:1363px;background:#FFFFFF;" version="1.1" viewBox="0 0 719 1363" width="719px" zoomAndPan="magnify"><defs/><g><!--MD5=[21278497e3b717440c1992229d7cb5dc]
cluster order--><g id="cluster_order"><path d="M41.5,650 L81.5,650 A3.75,3.75 0 0 1 84,652.5 L91,673.6094 L509.5,673.6094 A2.5,2.5 0 0 1 512,676.1094 L512,1353.5 A2.5,2.5 0 0 1 509.5,1356 L41.5,1356 A2.5,2.5 0 0 1 39,1353.5 L39,652.5 A2.5,2.5 0 0 1 41.5,650 " style="stroke:#000000;stroke-width:1.5;fill:none;"/><line style="stroke:#000000;stroke-width:1.5;fill:none;" x1="39" x2="91" y1="673.6094" y2="673.6094"/><text fill="#000000" font-family="sans-serif" font-size="14" font-weight="bold" lengthAdjust="spacing" textLength="39" x="43" y="666.5332">order</text></g><!--MD5=[5c1a4368efc4020c811f0dec2d8123d2]
cluster agv--><g id="cluster_agv"><path d="M357,6 L384,6 A3.75,3.75 0 0 1 386.5,8.5 L393.5,29.6094 L709.5,29.6094 A2.5,2.5 0 0 1 712,32.1094 L712,623.5 A2.5,2.5 0 0 1 709.5,626 L357,626 A2.5,2.5 0 0 1 354.5,623.5 L354.5,8.5 A2.5,2.5 0 0 1 357,6 " style="stroke:#000000;stroke-width:1.5;fill:none;"/><line style="stroke:#000000;stroke-width:1.5;fill:none;" x1="354.5" x2="393.5" y1="29.6094" y2="29.6094"/><text fill="#000000" font-family="sans-serif" font-size="14" font-weight="bold" lengthAdjust="spacing" textLength="26" x="358.5" y="22.5332">agv</text></g><!--MD5=[cf4d6237fcae255cd2e1656cf84a30e2]
class Order--><g id="elem_Order"><rect codeLine="6" fill="#F1F1F1" height="50.7031" id="Order" rx="2.5" ry="2.5" style="stroke:#181818;stroke-width:0.5;" width="71" x="55" y="944.5"/><ellipse cx="70" cy="965.8516" fill="#ADD1B2" rx="11" ry="11" style="stroke:#181818;stroke-width:1.0;"/><path d="M72,962.3516 Q72.2031,961.8516 72.4375,961.6016 Q72.6719,961.3516 72.9375,961.3516 Q73.4063,961.3516 73.7031,961.6328 Q74,961.9141 74,962.5703 L74,964.1328 Q74,964.7891 73.7188,965.0703 Q73.4375,965.3516 73,965.3516 Q72.6094,965.3516 72.3594,965.1797 Q72.1094,965.0078 72,964.5547 Q71.9531,964.2422 71.7813,964.0703 Q71.4688,963.7422 70.9063,963.5547 Q70.3438,963.3516 69.7813,963.3516 Q69.0781,963.3516 68.4844,963.6328 Q67.9063,963.9141 67.4531,964.5391 Q67,965.1641 67,966.0234 L67,966.9453 Q67,967.9766 67.8438,968.6641 Q68.6875,969.3516 70.1875,969.3516 Q71.0781,969.3516 71.7031,969.1484 Q72.0625,969.0391 72.4688,968.6797 Q72.7344,968.4766 72.875,968.4141 Q73.0156,968.3516 73.1875,968.3516 Q73.5156,968.3516 73.75,968.6172 Q74,968.8672 74,969.2266 Q74,969.5703 73.6563,969.9766 Q73.1563,970.5703 72.3594,970.8984 Q71.3125,971.3516 70.0313,971.3516 Q68.5313,971.3516 67.3281,970.7578 Q66.3594,970.2891 65.6719,969.2734 Q65,968.2578 65,967.0547 L65,965.9609 Q65,964.7109 65.5938,963.6172 Q66.2031,962.5234 67.25,961.9453 Q68.3125,961.3516 69.5,961.3516 Q70.2188,961.3516 70.8438,961.6016 Q71.4688,961.8516 72,962.3516 Z " fill="#000000"/><text fill="#000000" font-family="sans-serif" font-size="12" font-style="italic" lengthAdjust="spacing" textLength="43" x="82" y="961.957">«entity»</text><text fill="#000000" font-family="sans-serif" font-size="14" lengthAdjust="spacing" textLength="37" x="85" y="979.127">Order</text><line style="stroke:#181818;stroke-width:0.5;" x1="56" x2="125" y1="987.2031" y2="987.2031"/></g><!--MD5=[72136138052d025cffdce3c22fbd185f]
class Product--><g id="elem_Product"><rect fill="#F1F1F1" height="50.7031" id="Product" rx="2.5" ry="2.5" style="stroke:#181818;stroke-width:0.5;" width="81" x="365.5" y="1288.5"/><ellipse cx="380.5" cy="1309.8516" fill="#ADD1B2" rx="11" ry="11" style="stroke:#181818;stroke-width:1.0;"/><path d="M382.5,1306.3516 Q382.7031,1305.8516 382.9375,1305.6016 Q383.1719,1305.3516 383.4375,1305.3516 Q383.9063,1305.3516 384.2031,1305.6328 Q384.5,1305.9141 384.5,1306.5703 L384.5,1308.1328 Q384.5,1308.7891 384.2188,1309.0703 Q383.9375,1309.3516 383.5,1309.3516 Q383.1094,1309.3516 382.8594,1309.1797 Q382.6094,1309.0078 382.5,1308.5547 Q382.4531,1308.2422 382.2813,1308.0703 Q381.9688,1307.7422 381.4063,1307.5547 Q380.8438,1307.3516 380.2813,1307.3516 Q379.5781,1307.3516 378.9844,1307.6328 Q378.4063,1307.9141 377.9531,1308.5391 Q377.5,1309.1641 377.5,1310.0234 L377.5,1310.9453 Q377.5,1311.9766 378.3438,1312.6641 Q379.1875,1313.3516 380.6875,1313.3516 Q381.5781,1313.3516 382.2031,1313.1484 Q382.5625,1313.0391 382.9688,1312.6797 Q383.2344,1312.4766 383.375,1312.4141 Q383.5156,1312.3516 383.6875,1312.3516 Q384.0156,1312.3516 384.25,1312.6172 Q384.5,1312.8672 384.5,1313.2266 Q384.5,1313.5703 384.1563,1313.9766 Q383.6563,1314.5703 382.8594,1314.8984 Q381.8125,1315.3516 380.5313,1315.3516 Q379.0313,1315.3516 377.8281,1314.7578 Q376.8594,1314.2891 376.1719,1313.2734 Q375.5,1312.2578 375.5,1311.0547 L375.5,1309.9609 Q375.5,1308.7109 376.0938,1307.6172 Q376.7031,1306.5234 377.75,1305.9453 Q378.8125,1305.3516 380,1305.3516 Q380.7188,1305.3516 381.3438,1305.6016 Q381.9688,1305.8516 382.5,1306.3516 Z " fill="#000000"/><text fill="#000000" font-family="sans-serif" font-size="12" font-style="italic" lengthAdjust="spacing" textLength="43" x="397.5" y="1305.957">«entity»</text><text fill="#000000" font-family="sans-serif" font-size="14" lengthAdjust="spacing" textLength="49" x="394.5" y="1323.127">Product</text><line style="stroke:#181818;stroke-width:0.5;" x1="366.5" x2="445.5" y1="1331.2031" y2="1331.2031"/></g><!--MD5=[2ce0c9fb7f55b1e256ab28a8ea6b25ec]
class Customer--><g id="elem_Customer"><rect fill="#F1F1F1" height="50.7031" id="Customer" rx="2.5" ry="2.5" style="stroke:#181818;stroke-width:0.5;" width="93" x="359.5" y="1202.5"/><ellipse cx="374.5" cy="1223.8516" fill="#ADD1B2" rx="11" ry="11" style="stroke:#181818;stroke-width:1.0;"/><path d="M376.5,1220.3516 Q376.7031,1219.8516 376.9375,1219.6016 Q377.1719,1219.3516 377.4375,1219.3516 Q377.9063,1219.3516 378.2031,1219.6328 Q378.5,1219.9141 378.5,1220.5703 L378.5,1222.1328 Q378.5,1222.7891 378.2188,1223.0703 Q377.9375,1223.3516 377.5,1223.3516 Q377.1094,1223.3516 376.8594,1223.1797 Q376.6094,1223.0078 376.5,1222.5547 Q376.4531,1222.2422 376.2813,1222.0703 Q375.9688,1221.7422 375.4063,1221.5547 Q374.8438,1221.3516 374.2813,1221.3516 Q373.5781,1221.3516 372.9844,1221.6328 Q372.4063,1221.9141 371.9531,1222.5391 Q371.5,1223.1641 371.5,1224.0234 L371.5,1224.9453 Q371.5,1225.9766 372.3438,1226.6641 Q373.1875,1227.3516 374.6875,1227.3516 Q375.5781,1227.3516 376.2031,1227.1484 Q376.5625,1227.0391 376.9688,1226.6797 Q377.2344,1226.4766 377.375,1226.4141 Q377.5156,1226.3516 377.6875,1226.3516 Q378.0156,1226.3516 378.25,1226.6172 Q378.5,1226.8672 378.5,1227.2266 Q378.5,1227.5703 378.1563,1227.9766 Q377.6563,1228.5703 376.8594,1228.8984 Q375.8125,1229.3516 374.5313,1229.3516 Q373.0313,1229.3516 371.8281,1228.7578 Q370.8594,1228.2891 370.1719,1227.2734 Q369.5,1226.2578 369.5,1225.0547 L369.5,1223.9609 Q369.5,1222.7109 370.0938,1221.6172 Q370.7031,1220.5234 371.75,1219.9453 Q372.8125,1219.3516 374,1219.3516 Q374.7188,1219.3516 375.3438,1219.6016 Q375.9688,1219.8516 376.5,1220.3516 Z " fill="#000000"/><text fill="#000000" font-family="sans-serif" font-size="12" font-style="italic" lengthAdjust="spacing" textLength="43" x="397.5" y="1219.957">«entity»</text><text fill="#000000" font-family="sans-serif" font-size="14" lengthAdjust="spacing" textLength="61" x="388.5" y="1237.127">Customer</text><line style="stroke:#181818;stroke-width:0.5;" x1="360.5" x2="451.5" y1="1245.2031" y2="1245.2031"/></g><!--MD5=[c29df52dd5928320aafb26241afd4a45]
class Shipment_method_cost--><g id="elem_Shipment_method_cost"><rect fill="#F1F1F1" height="50.7031" id="Shipment_method_cost" rx="2.5" ry="2.5" style="stroke:#181818;stroke-width:0.5;" width="180" x="316" y="1116.5"/><ellipse cx="331" cy="1137.8516" fill="#ADD1B2" rx="11" ry="11" style="stroke:#181818;stroke-width:1.0;"/><path d="M333,1134.3516 Q333.2031,1133.8516 333.4375,1133.6016 Q333.6719,1133.3516 333.9375,1133.3516 Q334.4063,1133.3516 334.7031,1133.6328 Q335,1133.9141 335,1134.5703 L335,1136.1328 Q335,1136.7891 334.7188,1137.0703 Q334.4375,1137.3516 334,1137.3516 Q333.6094,1137.3516 333.3594,1137.1797 Q333.1094,1137.0078 333,1136.5547 Q332.9531,1136.2422 332.7813,1136.0703 Q332.4688,1135.7422 331.9063,1135.5547 Q331.3438,1135.3516 330.7813,1135.3516 Q330.0781,1135.3516 329.4844,1135.6328 Q328.9063,1135.9141 328.4531,1136.5391 Q328,1137.1641 328,1138.0234 L328,1138.9453 Q328,1139.9766 328.8438,1140.6641 Q329.6875,1141.3516 331.1875,1141.3516 Q332.0781,1141.3516 332.7031,1141.1484 Q333.0625,1141.0391 333.4688,1140.6797 Q333.7344,1140.4766 333.875,1140.4141 Q334.0156,1140.3516 334.1875,1140.3516 Q334.5156,1140.3516 334.75,1140.6172 Q335,1140.8672 335,1141.2266 Q335,1141.5703 334.6563,1141.9766 Q334.1563,1142.5703 333.3594,1142.8984 Q332.3125,1143.3516 331.0313,1143.3516 Q329.5313,1143.3516 328.3281,1142.7578 Q327.3594,1142.2891 326.6719,1141.2734 Q326,1140.2578 326,1139.0547 L326,1137.9609 Q326,1136.7109 326.5938,1135.6172 Q327.2031,1134.5234 328.25,1133.9453 Q329.3125,1133.3516 330.5,1133.3516 Q331.2188,1133.3516 331.8438,1133.6016 Q332.4688,1133.8516 333,1134.3516 Z " fill="#000000"/><text fill="#000000" font-family="sans-serif" font-size="12" font-style="italic" lengthAdjust="spacing" textLength="81" x="378.5" y="1133.957">«value object»</text><text fill="#000000" font-family="sans-serif" font-size="14" lengthAdjust="spacing" textLength="148" x="345" y="1151.127">Shipment_method_cost</text><line style="stroke:#181818;stroke-width:0.5;" x1="317" x2="495" y1="1159.2031" y2="1159.2031"/></g><!--MD5=[82d64f05644c079a4b442d58ebf2fd25]
class Total_amount--><g id="elem_Total_amount"><rect fill="#F1F1F1" height="50.7031" id="Total_amount" rx="2.5" ry="2.5" style="stroke:#181818;stroke-width:0.5;" width="119" x="346.5" y="1030.5"/><ellipse cx="361.5" cy="1051.8516" fill="#ADD1B2" rx="11" ry="11" style="stroke:#181818;stroke-width:1.0;"/><path d="M363.5,1048.3516 Q363.7031,1047.8516 363.9375,1047.6016 Q364.1719,1047.3516 364.4375,1047.3516 Q364.9063,1047.3516 365.2031,1047.6328 Q365.5,1047.9141 365.5,1048.5703 L365.5,1050.1328 Q365.5,1050.7891 365.2188,1051.0703 Q364.9375,1051.3516 364.5,1051.3516 Q364.1094,1051.3516 363.8594,1051.1797 Q363.6094,1051.0078 363.5,1050.5547 Q363.4531,1050.2422 363.2813,1050.0703 Q362.9688,1049.7422 362.4063,1049.5547 Q361.8438,1049.3516 361.2813,1049.3516 Q360.5781,1049.3516 359.9844,1049.6328 Q359.4063,1049.9141 358.9531,1050.5391 Q358.5,1051.1641 358.5,1052.0234 L358.5,1052.9453 Q358.5,1053.9766 359.3438,1054.6641 Q360.1875,1055.3516 361.6875,1055.3516 Q362.5781,1055.3516 363.2031,1055.1484 Q363.5625,1055.0391 363.9688,1054.6797 Q364.2344,1054.4766 364.375,1054.4141 Q364.5156,1054.3516 364.6875,1054.3516 Q365.0156,1054.3516 365.25,1054.6172 Q365.5,1054.8672 365.5,1055.2266 Q365.5,1055.5703 365.1563,1055.9766 Q364.6563,1056.5703 363.8594,1056.8984 Q362.8125,1057.3516 361.5313,1057.3516 Q360.0313,1057.3516 358.8281,1056.7578 Q357.8594,1056.2891 357.1719,1055.2734 Q356.5,1054.2578 356.5,1053.0547 L356.5,1051.9609 Q356.5,1050.7109 357.0938,1049.6172 Q357.7031,1048.5234 358.75,1047.9453 Q359.8125,1047.3516 361,1047.3516 Q361.7188,1047.3516 362.3438,1047.6016 Q362.9688,1047.8516 363.5,1048.3516 Z " fill="#000000"/><text fill="#000000" font-family="sans-serif" font-size="12" font-style="italic" lengthAdjust="spacing" textLength="81" x="378.5" y="1047.957">«value object»</text><text fill="#000000" font-family="sans-serif" font-size="14" lengthAdjust="spacing" textLength="87" x="375.5" y="1065.127">Total_amount</text><line style="stroke:#181818;stroke-width:0.5;" x1="347.5" x2="464.5" y1="1073.2031" y2="1073.2031"/></g><!--MD5=[cda9517f86d5563a6c586dec9582437c]
class Payment_confirmation--><g id="elem_Payment_confirmation"><rect fill="#F1F1F1" height="50.7031" id="Payment_confirmation" rx="2.5" ry="2.5" style="stroke:#181818;stroke-width:0.5;" width="172" x="320" y="944.5"/><ellipse cx="335" cy="965.8516" fill="#ADD1B2" rx="11" ry="11" style="stroke:#181818;stroke-width:1.0;"/><path d="M337,962.3516 Q337.2031,961.8516 337.4375,961.6016 Q337.6719,961.3516 337.9375,961.3516 Q338.4063,961.3516 338.7031,961.6328 Q339,961.9141 339,962.5703 L339,964.1328 Q339,964.7891 338.7188,965.0703 Q338.4375,965.3516 338,965.3516 Q337.6094,965.3516 337.3594,965.1797 Q337.1094,965.0078 337,964.5547 Q336.9531,964.2422 336.7813,964.0703 Q336.4688,963.7422 335.9063,963.5547 Q335.3438,963.3516 334.7813,963.3516 Q334.0781,963.3516 333.4844,963.6328 Q332.9063,963.9141 332.4531,964.5391 Q332,965.1641 332,966.0234 L332,966.9453 Q332,967.9766 332.8438,968.6641 Q333.6875,969.3516 335.1875,969.3516 Q336.0781,969.3516 336.7031,969.1484 Q337.0625,969.0391 337.4688,968.6797 Q337.7344,968.4766 337.875,968.4141 Q338.0156,968.3516 338.1875,968.3516 Q338.5156,968.3516 338.75,968.6172 Q339,968.8672 339,969.2266 Q339,969.5703 338.6563,969.9766 Q338.1563,970.5703 337.3594,970.8984 Q336.3125,971.3516 335.0313,971.3516 Q333.5313,971.3516 332.3281,970.7578 Q331.3594,970.2891 330.6719,969.2734 Q330,968.2578 330,967.0547 L330,965.9609 Q330,964.7109 330.5938,963.6172 Q331.2031,962.5234 332.25,961.9453 Q333.3125,961.3516 334.5,961.3516 Q335.2188,961.3516 335.8438,961.6016 Q336.4688,961.8516 337,962.3516 Z " fill="#000000"/><text fill="#000000" font-family="sans-serif" font-size="12" font-style="italic" lengthAdjust="spacing" textLength="81" x="378.5" y="961.957">«value object»</text><text fill="#000000" font-family="sans-serif" font-size="14" lengthAdjust="spacing" textLength="140" x="349" y="979.127">Payment_confirmation</text><line style="stroke:#181818;stroke-width:0.5;" x1="321" x2="491" y1="987.2031" y2="987.2031"/></g><!--MD5=[55bfef92506fde6eef81af0ffbdd0e10]
class Payment_method--><g id="elem_Payment_method"><rect fill="#F1F1F1" height="50.7031" id="Payment_method" rx="2.5" ry="2.5" style="stroke:#181818;stroke-width:0.5;" width="142" x="335" y="858.5"/><ellipse cx="350" cy="879.8516" fill="#ADD1B2" rx="11" ry="11" style="stroke:#181818;stroke-width:1.0;"/><path d="M352,876.3516 Q352.2031,875.8516 352.4375,875.6016 Q352.6719,875.3516 352.9375,875.3516 Q353.4063,875.3516 353.7031,875.6328 Q354,875.9141 354,876.5703 L354,878.1328 Q354,878.7891 353.7188,879.0703 Q353.4375,879.3516 353,879.3516 Q352.6094,879.3516 352.3594,879.1797 Q352.1094,879.0078 352,878.5547 Q351.9531,878.2422 351.7813,878.0703 Q351.4688,877.7422 350.9063,877.5547 Q350.3438,877.3516 349.7813,877.3516 Q349.0781,877.3516 348.4844,877.6328 Q347.9063,877.9141 347.4531,878.5391 Q347,879.1641 347,880.0234 L347,880.9453 Q347,881.9766 347.8438,882.6641 Q348.6875,883.3516 350.1875,883.3516 Q351.0781,883.3516 351.7031,883.1484 Q352.0625,883.0391 352.4688,882.6797 Q352.7344,882.4766 352.875,882.4141 Q353.0156,882.3516 353.1875,882.3516 Q353.5156,882.3516 353.75,882.6172 Q354,882.8672 354,883.2266 Q354,883.5703 353.6563,883.9766 Q353.1563,884.5703 352.3594,884.8984 Q351.3125,885.3516 350.0313,885.3516 Q348.5313,885.3516 347.3281,884.7578 Q346.3594,884.2891 345.6719,883.2734 Q345,882.2578 345,881.0547 L345,879.9609 Q345,878.7109 345.5938,877.6172 Q346.2031,876.5234 347.25,875.9453 Q348.3125,875.3516 349.5,875.3516 Q350.2188,875.3516 350.8438,875.6016 Q351.4688,875.8516 352,876.3516 Z " fill="#000000"/><text fill="#000000" font-family="sans-serif" font-size="12" font-style="italic" lengthAdjust="spacing" textLength="81" x="378.5" y="875.957">«value object»</text><text fill="#000000" font-family="sans-serif" font-size="14" lengthAdjust="spacing" textLength="110" x="364" y="893.127">Payment_method</text><line style="stroke:#181818;stroke-width:0.5;" x1="336" x2="476" y1="901.2031" y2="901.2031"/></g><!--MD5=[0f39e4cb6f03951afbf6d14bd2505654]
class Address--><g id="elem_Address"><rect fill="#F1F1F1" height="50.7031" id="Address" rx="2.5" ry="2.5" style="stroke:#181818;stroke-width:0.5;" width="109" x="351.5" y="772.5"/><ellipse cx="366.5" cy="793.8516" fill="#ADD1B2" rx="11" ry="11" style="stroke:#181818;stroke-width:1.0;"/><path d="M368.5,790.3516 Q368.7031,789.8516 368.9375,789.6016 Q369.1719,789.3516 369.4375,789.3516 Q369.9063,789.3516 370.2031,789.6328 Q370.5,789.9141 370.5,790.5703 L370.5,792.1328 Q370.5,792.7891 370.2188,793.0703 Q369.9375,793.3516 369.5,793.3516 Q369.1094,793.3516 368.8594,793.1797 Q368.6094,793.0078 368.5,792.5547 Q368.4531,792.2422 368.2813,792.0703 Q367.9688,791.7422 367.4063,791.5547 Q366.8438,791.3516 366.2813,791.3516 Q365.5781,791.3516 364.9844,791.6328 Q364.4063,791.9141 363.9531,792.5391 Q363.5,793.1641 363.5,794.0234 L363.5,794.9453 Q363.5,795.9766 364.3438,796.6641 Q365.1875,797.3516 366.6875,797.3516 Q367.5781,797.3516 368.2031,797.1484 Q368.5625,797.0391 368.9688,796.6797 Q369.2344,796.4766 369.375,796.4141 Q369.5156,796.3516 369.6875,796.3516 Q370.0156,796.3516 370.25,796.6172 Q370.5,796.8672 370.5,797.2266 Q370.5,797.5703 370.1563,797.9766 Q369.6563,798.5703 368.8594,798.8984 Q367.8125,799.3516 366.5313,799.3516 Q365.0313,799.3516 363.8281,798.7578 Q362.8594,798.2891 362.1719,797.2734 Q361.5,796.2578 361.5,795.0547 L361.5,793.9609 Q361.5,792.7109 362.0938,791.6172 Q362.7031,790.5234 363.75,789.9453 Q364.8125,789.3516 366,789.3516 Q366.7188,789.3516 367.3438,789.6016 Q367.9688,789.8516 368.5,790.3516 Z " fill="#000000"/><text fill="#000000" font-family="sans-serif" font-size="12" font-style="italic" lengthAdjust="spacing" textLength="81" x="378.5" y="789.957">«value object»</text><text fill="#000000" font-family="sans-serif" font-size="14" lengthAdjust="spacing" textLength="52" x="393" y="807.127">Address</text><line style="stroke:#181818;stroke-width:0.5;" x1="352.5" x2="459.5" y1="815.2031" y2="815.2031"/></g><!--MD5=[60d6b92408f98aed8df94d5c6e04aa63]
class State--><g id="elem_State"><rect fill="#F1F1F1" height="50.7031" id="State" rx="2.5" ry="2.5" style="stroke:#181818;stroke-width:0.5;" width="109" x="351.5" y="686.5"/><ellipse cx="366.5" cy="707.8516" fill="#ADD1B2" rx="11" ry="11" style="stroke:#181818;stroke-width:1.0;"/><path d="M368.5,704.3516 Q368.7031,703.8516 368.9375,703.6016 Q369.1719,703.3516 369.4375,703.3516 Q369.9063,703.3516 370.2031,703.6328 Q370.5,703.9141 370.5,704.5703 L370.5,706.1328 Q370.5,706.7891 370.2188,707.0703 Q369.9375,707.3516 369.5,707.3516 Q369.1094,707.3516 368.8594,707.1797 Q368.6094,707.0078 368.5,706.5547 Q368.4531,706.2422 368.2813,706.0703 Q367.9688,705.7422 367.4063,705.5547 Q366.8438,705.3516 366.2813,705.3516 Q365.5781,705.3516 364.9844,705.6328 Q364.4063,705.9141 363.9531,706.5391 Q363.5,707.1641 363.5,708.0234 L363.5,708.9453 Q363.5,709.9766 364.3438,710.6641 Q365.1875,711.3516 366.6875,711.3516 Q367.5781,711.3516 368.2031,711.1484 Q368.5625,711.0391 368.9688,710.6797 Q369.2344,710.4766 369.375,710.4141 Q369.5156,710.3516 369.6875,710.3516 Q370.0156,710.3516 370.25,710.6172 Q370.5,710.8672 370.5,711.2266 Q370.5,711.5703 370.1563,711.9766 Q369.6563,712.5703 368.8594,712.8984 Q367.8125,713.3516 366.5313,713.3516 Q365.0313,713.3516 363.8281,712.7578 Q362.8594,712.2891 362.1719,711.2734 Q361.5,710.2578 361.5,709.0547 L361.5,707.9609 Q361.5,706.7109 362.0938,705.6172 Q362.7031,704.5234 363.75,703.9453 Q364.8125,703.3516 366,703.3516 Q366.7188,703.3516 367.3438,703.6016 Q367.9688,703.8516 368.5,704.3516 Z " fill="#000000"/><text fill="#000000" font-family="sans-serif" font-size="12" font-style="italic" lengthAdjust="spacing" textLength="81" x="378.5" y="703.957">«value object»</text><text fill="#000000" font-family="sans-serif" font-size="14" lengthAdjust="spacing" textLength="33" x="402.5" y="721.127">State</text><line style="stroke:#181818;stroke-width:0.5;" x1="352.5" x2="459.5" y1="729.2031" y2="729.2031"/></g><!--MD5=[53b2c06ade5903185ca3326dce80e141]
class AGV--><g id="elem_AGV"><rect codeLine="22" fill="#F1F1F1" height="68.3125" id="AGV" rx="2.5" ry="2.5" style="stroke:#181818;stroke-width:0.5;" width="71" x="370.5" y="335"/><ellipse cx="385.5" cy="356.3516" fill="#ADD1B2" rx="11" ry="11" style="stroke:#181818;stroke-width:1.0;"/><path d="M387.5,352.8516 Q387.7031,352.3516 387.9375,352.1016 Q388.1719,351.8516 388.4375,351.8516 Q388.9063,351.8516 389.2031,352.1328 Q389.5,352.4141 389.5,353.0703 L389.5,354.6328 Q389.5,355.2891 389.2188,355.5703 Q388.9375,355.8516 388.5,355.8516 Q388.1094,355.8516 387.8594,355.6797 Q387.6094,355.5078 387.5,355.0547 Q387.4531,354.7422 387.2813,354.5703 Q386.9688,354.2422 386.4063,354.0547 Q385.8438,353.8516 385.2813,353.8516 Q384.5781,353.8516 383.9844,354.1328 Q383.4063,354.4141 382.9531,355.0391 Q382.5,355.6641 382.5,356.5234 L382.5,357.4453 Q382.5,358.4766 383.3438,359.1641 Q384.1875,359.8516 385.6875,359.8516 Q386.5781,359.8516 387.2031,359.6484 Q387.5625,359.5391 387.9688,359.1797 Q388.2344,358.9766 388.375,358.9141 Q388.5156,358.8516 388.6875,358.8516 Q389.0156,358.8516 389.25,359.1172 Q389.5,359.3672 389.5,359.7266 Q389.5,360.0703 389.1563,360.4766 Q388.6563,361.0703 387.8594,361.3984 Q386.8125,361.8516 385.5313,361.8516 Q384.0313,361.8516 382.8281,361.2578 Q381.8594,360.7891 381.1719,359.7734 Q380.5,358.7578 380.5,357.5547 L380.5,356.4609 Q380.5,355.2109 381.0938,354.1172 Q381.7031,353.0234 382.75,352.4453 Q383.8125,351.8516 385,351.8516 Q385.7188,351.8516 386.3438,352.1016 Q386.9688,352.3516 387.5,352.8516 Z " fill="#000000"/><text fill="#000000" font-family="sans-serif" font-size="12" font-style="italic" lengthAdjust="spacing" textLength="43" x="397.5" y="352.457">«entity»</text><text fill="#000000" font-family="sans-serif" font-size="14" lengthAdjust="spacing" textLength="29" x="404.5" y="369.627">AGV</text><line style="stroke:#181818;stroke-width:0.5;" x1="371.5" x2="440.5" y1="377.7031" y2="377.7031"/><text fill="#000000" font-family="sans-serif" font-size="14" lengthAdjust="spacing" textLength="16" x="376.5" y="396.2363">-id</text></g><!--MD5=[79d3acb8d8b4a000645cdf546551f625]
class ShortDescription--><g id="elem_ShortDescription"><rect fill="#F1F1F1" height="50.7031" id="ShortDescription" rx="2.5" ry="2.5" style="stroke:#181818;stroke-width:0.5;" width="137" x="559" y="558.5"/><ellipse cx="574" cy="579.8516" fill="#ADD1B2" rx="11" ry="11" style="stroke:#181818;stroke-width:1.0;"/><path d="M576,576.3516 Q576.2031,575.8516 576.4375,575.6016 Q576.6719,575.3516 576.9375,575.3516 Q577.4063,575.3516 577.7031,575.6328 Q578,575.9141 578,576.5703 L578,578.1328 Q578,578.7891 577.7188,579.0703 Q577.4375,579.3516 577,579.3516 Q576.6094,579.3516 576.3594,579.1797 Q576.1094,579.0078 576,578.5547 Q575.9531,578.2422 575.7813,578.0703 Q575.4688,577.7422 574.9063,577.5547 Q574.3438,577.3516 573.7813,577.3516 Q573.0781,577.3516 572.4844,577.6328 Q571.9063,577.9141 571.4531,578.5391 Q571,579.1641 571,580.0234 L571,580.9453 Q571,581.9766 571.8438,582.6641 Q572.6875,583.3516 574.1875,583.3516 Q575.0781,583.3516 575.7031,583.1484 Q576.0625,583.0391 576.4688,582.6797 Q576.7344,582.4766 576.875,582.4141 Q577.0156,582.3516 577.1875,582.3516 Q577.5156,582.3516 577.75,582.6172 Q578,582.8672 578,583.2266 Q578,583.5703 577.6563,583.9766 Q577.1563,584.5703 576.3594,584.8984 Q575.3125,585.3516 574.0313,585.3516 Q572.5313,585.3516 571.3281,584.7578 Q570.3594,584.2891 569.6719,583.2734 Q569,582.2578 569,581.0547 L569,579.9609 Q569,578.7109 569.5938,577.6172 Q570.2031,576.5234 571.25,575.9453 Q572.3125,575.3516 573.5,575.3516 Q574.2188,575.3516 574.8438,575.6016 Q575.4688,575.8516 576,576.3516 Z " fill="#000000"/><text fill="#000000" font-family="sans-serif" font-size="12" font-style="italic" lengthAdjust="spacing" textLength="81" x="600" y="575.957">«value object»</text><text fill="#000000" font-family="sans-serif" font-size="14" lengthAdjust="spacing" textLength="105" x="588" y="593.127">ShortDescription</text><line style="stroke:#181818;stroke-width:0.5;" x1="560" x2="695" y1="601.2031" y2="601.2031"/></g><!--MD5=[7e20e022571e30ec1001cf6eabd7f3e2]
class Model--><g id="elem_Model"><rect fill="#F1F1F1" height="50.7031" id="Model" rx="2.5" ry="2.5" style="stroke:#181818;stroke-width:0.5;" width="109" x="573" y="472.5"/><ellipse cx="588" cy="493.8516" fill="#ADD1B2" rx="11" ry="11" style="stroke:#181818;stroke-width:1.0;"/><path d="M590,490.3516 Q590.2031,489.8516 590.4375,489.6016 Q590.6719,489.3516 590.9375,489.3516 Q591.4063,489.3516 591.7031,489.6328 Q592,489.9141 592,490.5703 L592,492.1328 Q592,492.7891 591.7188,493.0703 Q591.4375,493.3516 591,493.3516 Q590.6094,493.3516 590.3594,493.1797 Q590.1094,493.0078 590,492.5547 Q589.9531,492.2422 589.7813,492.0703 Q589.4688,491.7422 588.9063,491.5547 Q588.3438,491.3516 587.7813,491.3516 Q587.0781,491.3516 586.4844,491.6328 Q585.9063,491.9141 585.4531,492.5391 Q585,493.1641 585,494.0234 L585,494.9453 Q585,495.9766 585.8438,496.6641 Q586.6875,497.3516 588.1875,497.3516 Q589.0781,497.3516 589.7031,497.1484 Q590.0625,497.0391 590.4688,496.6797 Q590.7344,496.4766 590.875,496.4141 Q591.0156,496.3516 591.1875,496.3516 Q591.5156,496.3516 591.75,496.6172 Q592,496.8672 592,497.2266 Q592,497.5703 591.6563,497.9766 Q591.1563,498.5703 590.3594,498.8984 Q589.3125,499.3516 588.0313,499.3516 Q586.5313,499.3516 585.3281,498.7578 Q584.3594,498.2891 583.6719,497.2734 Q583,496.2578 583,495.0547 L583,493.9609 Q583,492.7109 583.5938,491.6172 Q584.2031,490.5234 585.25,489.9453 Q586.3125,489.3516 587.5,489.3516 Q588.2188,489.3516 588.8438,489.6016 Q589.4688,489.8516 590,490.3516 Z " fill="#000000"/><text fill="#000000" font-family="sans-serif" font-size="12" font-style="italic" lengthAdjust="spacing" textLength="81" x="600" y="489.957">«value object»</text><text fill="#000000" font-family="sans-serif" font-size="14" lengthAdjust="spacing" textLength="38" x="621.5" y="507.127">Model</text><line style="stroke:#181818;stroke-width:0.5;" x1="574" x2="681" y1="515.2031" y2="515.2031"/></g><!--MD5=[16d95e38f003ccc6ecae27689936446e]
class MaximumWeight--><g id="elem_MaximumWeight"><rect fill="#F1F1F1" height="50.7031" id="MaximumWeight" rx="2.5" ry="2.5" style="stroke:#181818;stroke-width:0.5;" width="134" x="560.5" y="386.5"/><ellipse cx="575.5" cy="407.8516" fill="#ADD1B2" rx="11" ry="11" style="stroke:#181818;stroke-width:1.0;"/><path d="M577.5,404.3516 Q577.7031,403.8516 577.9375,403.6016 Q578.1719,403.3516 578.4375,403.3516 Q578.9063,403.3516 579.2031,403.6328 Q579.5,403.9141 579.5,404.5703 L579.5,406.1328 Q579.5,406.7891 579.2188,407.0703 Q578.9375,407.3516 578.5,407.3516 Q578.1094,407.3516 577.8594,407.1797 Q577.6094,407.0078 577.5,406.5547 Q577.4531,406.2422 577.2813,406.0703 Q576.9688,405.7422 576.4063,405.5547 Q575.8438,405.3516 575.2813,405.3516 Q574.5781,405.3516 573.9844,405.6328 Q573.4063,405.9141 572.9531,406.5391 Q572.5,407.1641 572.5,408.0234 L572.5,408.9453 Q572.5,409.9766 573.3438,410.6641 Q574.1875,411.3516 575.6875,411.3516 Q576.5781,411.3516 577.2031,411.1484 Q577.5625,411.0391 577.9688,410.6797 Q578.2344,410.4766 578.375,410.4141 Q578.5156,410.3516 578.6875,410.3516 Q579.0156,410.3516 579.25,410.6172 Q579.5,410.8672 579.5,411.2266 Q579.5,411.5703 579.1563,411.9766 Q578.6563,412.5703 577.8594,412.8984 Q576.8125,413.3516 575.5313,413.3516 Q574.0313,413.3516 572.8281,412.7578 Q571.8594,412.2891 571.1719,411.2734 Q570.5,410.2578 570.5,409.0547 L570.5,407.9609 Q570.5,406.7109 571.0938,405.6172 Q571.7031,404.5234 572.75,403.9453 Q573.8125,403.3516 575,403.3516 Q575.7188,403.3516 576.3438,403.6016 Q576.9688,403.8516 577.5,404.3516 Z " fill="#000000"/><text fill="#000000" font-family="sans-serif" font-size="12" font-style="italic" lengthAdjust="spacing" textLength="81" x="600" y="403.957">«value object»</text><text fill="#000000" font-family="sans-serif" font-size="14" lengthAdjust="spacing" textLength="102" x="589.5" y="421.127">MaximumWeight</text><line style="stroke:#181818;stroke-width:0.5;" x1="561.5" x2="693.5" y1="429.2031" y2="429.2031"/></g><!--MD5=[b285e37e75726846a0747551cbfd9ec4]
class MaximumVolume--><g id="elem_MaximumVolume"><rect fill="#F1F1F1" height="50.7031" id="MaximumVolume" rx="2.5" ry="2.5" style="stroke:#181818;stroke-width:0.5;" width="137" x="559" y="300.5"/><ellipse cx="574" cy="321.8516" fill="#ADD1B2" rx="11" ry="11" style="stroke:#181818;stroke-width:1.0;"/><path d="M576,318.3516 Q576.2031,317.8516 576.4375,317.6016 Q576.6719,317.3516 576.9375,317.3516 Q577.4063,317.3516 577.7031,317.6328 Q578,317.9141 578,318.5703 L578,320.1328 Q578,320.7891 577.7188,321.0703 Q577.4375,321.3516 577,321.3516 Q576.6094,321.3516 576.3594,321.1797 Q576.1094,321.0078 576,320.5547 Q575.9531,320.2422 575.7813,320.0703 Q575.4688,319.7422 574.9063,319.5547 Q574.3438,319.3516 573.7813,319.3516 Q573.0781,319.3516 572.4844,319.6328 Q571.9063,319.9141 571.4531,320.5391 Q571,321.1641 571,322.0234 L571,322.9453 Q571,323.9766 571.8438,324.6641 Q572.6875,325.3516 574.1875,325.3516 Q575.0781,325.3516 575.7031,325.1484 Q576.0625,325.0391 576.4688,324.6797 Q576.7344,324.4766 576.875,324.4141 Q577.0156,324.3516 577.1875,324.3516 Q577.5156,324.3516 577.75,324.6172 Q578,324.8672 578,325.2266 Q578,325.5703 577.6563,325.9766 Q577.1563,326.5703 576.3594,326.8984 Q575.3125,327.3516 574.0313,327.3516 Q572.5313,327.3516 571.3281,326.7578 Q570.3594,326.2891 569.6719,325.2734 Q569,324.2578 569,323.0547 L569,321.9609 Q569,320.7109 569.5938,319.6172 Q570.2031,318.5234 571.25,317.9453 Q572.3125,317.3516 573.5,317.3516 Q574.2188,317.3516 574.8438,317.6016 Q575.4688,317.8516 576,318.3516 Z " fill="#000000"/><text fill="#000000" font-family="sans-serif" font-size="12" font-style="italic" lengthAdjust="spacing" textLength="81" x="600" y="317.957">«value object»</text><text fill="#000000" font-family="sans-serif" font-size="14" lengthAdjust="spacing" textLength="105" x="588" y="335.127">MaximumVolume</text><line style="stroke:#181818;stroke-width:0.5;" x1="560" x2="695" y1="343.2031" y2="343.2031"/></g><!--MD5=[064b306410e464970cda6c2fc60b7bb8]
class BaseLocation--><g id="elem_BaseLocation"><rect fill="#F1F1F1" height="50.7031" id="BaseLocation" rx="2.5" ry="2.5" style="stroke:#181818;stroke-width:0.5;" width="118" x="568.5" y="214.5"/><ellipse cx="583.5" cy="235.8516" fill="#ADD1B2" rx="11" ry="11" style="stroke:#181818;stroke-width:1.0;"/><path d="M585.5,232.3516 Q585.7031,231.8516 585.9375,231.6016 Q586.1719,231.3516 586.4375,231.3516 Q586.9063,231.3516 587.2031,231.6328 Q587.5,231.9141 587.5,232.5703 L587.5,234.1328 Q587.5,234.7891 587.2188,235.0703 Q586.9375,235.3516 586.5,235.3516 Q586.1094,235.3516 585.8594,235.1797 Q585.6094,235.0078 585.5,234.5547 Q585.4531,234.2422 585.2813,234.0703 Q584.9688,233.7422 584.4063,233.5547 Q583.8438,233.3516 583.2813,233.3516 Q582.5781,233.3516 581.9844,233.6328 Q581.4063,233.9141 580.9531,234.5391 Q580.5,235.1641 580.5,236.0234 L580.5,236.9453 Q580.5,237.9766 581.3438,238.6641 Q582.1875,239.3516 583.6875,239.3516 Q584.5781,239.3516 585.2031,239.1484 Q585.5625,239.0391 585.9688,238.6797 Q586.2344,238.4766 586.375,238.4141 Q586.5156,238.3516 586.6875,238.3516 Q587.0156,238.3516 587.25,238.6172 Q587.5,238.8672 587.5,239.2266 Q587.5,239.5703 587.1563,239.9766 Q586.6563,240.5703 585.8594,240.8984 Q584.8125,241.3516 583.5313,241.3516 Q582.0313,241.3516 580.8281,240.7578 Q579.8594,240.2891 579.1719,239.2734 Q578.5,238.2578 578.5,237.0547 L578.5,235.9609 Q578.5,234.7109 579.0938,233.6172 Q579.7031,232.5234 580.75,231.9453 Q581.8125,231.3516 583,231.3516 Q583.7188,231.3516 584.3438,231.6016 Q584.9688,231.8516 585.5,232.3516 Z " fill="#000000"/><text fill="#000000" font-family="sans-serif" font-size="12" font-style="italic" lengthAdjust="spacing" textLength="81" x="600" y="231.957">«value object»</text><text fill="#000000" font-family="sans-serif" font-size="14" lengthAdjust="spacing" textLength="86" x="597.5" y="249.127">BaseLocation</text><line style="stroke:#181818;stroke-width:0.5;" x1="569.5" x2="685.5" y1="257.2031" y2="257.2031"/></g><!--MD5=[e3d83ec5fd90ea9f3f2bfe265cb53458]
class Status--><g id="elem_Status"><rect fill="#F1F1F1" height="50.7031" id="Status" rx="2.5" ry="2.5" style="stroke:#181818;stroke-width:0.5;" width="109" x="573" y="128.5"/><ellipse cx="588" cy="149.8516" fill="#ADD1B2" rx="11" ry="11" style="stroke:#181818;stroke-width:1.0;"/><path d="M590,146.3516 Q590.2031,145.8516 590.4375,145.6016 Q590.6719,145.3516 590.9375,145.3516 Q591.4063,145.3516 591.7031,145.6328 Q592,145.9141 592,146.5703 L592,148.1328 Q592,148.7891 591.7188,149.0703 Q591.4375,149.3516 591,149.3516 Q590.6094,149.3516 590.3594,149.1797 Q590.1094,149.0078 590,148.5547 Q589.9531,148.2422 589.7813,148.0703 Q589.4688,147.7422 588.9063,147.5547 Q588.3438,147.3516 587.7813,147.3516 Q587.0781,147.3516 586.4844,147.6328 Q585.9063,147.9141 585.4531,148.5391 Q585,149.1641 585,150.0234 L585,150.9453 Q585,151.9766 585.8438,152.6641 Q586.6875,153.3516 588.1875,153.3516 Q589.0781,153.3516 589.7031,153.1484 Q590.0625,153.0391 590.4688,152.6797 Q590.7344,152.4766 590.875,152.4141 Q591.0156,152.3516 591.1875,152.3516 Q591.5156,152.3516 591.75,152.6172 Q592,152.8672 592,153.2266 Q592,153.5703 591.6563,153.9766 Q591.1563,154.5703 590.3594,154.8984 Q589.3125,155.3516 588.0313,155.3516 Q586.5313,155.3516 585.3281,154.7578 Q584.3594,154.2891 583.6719,153.2734 Q583,152.2578 583,151.0547 L583,149.9609 Q583,148.7109 583.5938,147.6172 Q584.2031,146.5234 585.25,145.9453 Q586.3125,145.3516 587.5,145.3516 Q588.2188,145.3516 588.8438,145.6016 Q589.4688,145.8516 590,146.3516 Z " fill="#000000"/><text fill="#000000" font-family="sans-serif" font-size="12" font-style="italic" lengthAdjust="spacing" textLength="81" x="600" y="145.957">«value object»</text><text fill="#000000" font-family="sans-serif" font-size="14" lengthAdjust="spacing" textLength="40" x="620.5" y="163.127">Status</text><line style="stroke:#181818;stroke-width:0.5;" x1="574" x2="681" y1="171.2031" y2="171.2031"/></g><!--MD5=[38bcef8836b1321d22ded0540bc794c3]
class CurrentTask--><g id="elem_CurrentTask"><rect fill="#F1F1F1" height="50.7031" id="CurrentTask" rx="2.5" ry="2.5" style="stroke:#181818;stroke-width:0.5;" width="111" x="572" y="42.5"/><ellipse cx="587" cy="63.8516" fill="#ADD1B2" rx="11" ry="11" style="stroke:#181818;stroke-width:1.0;"/><path d="M589,60.3516 Q589.2031,59.8516 589.4375,59.6016 Q589.6719,59.3516 589.9375,59.3516 Q590.4063,59.3516 590.7031,59.6328 Q591,59.9141 591,60.5703 L591,62.1328 Q591,62.7891 590.7188,63.0703 Q590.4375,63.3516 590,63.3516 Q589.6094,63.3516 589.3594,63.1797 Q589.1094,63.0078 589,62.5547 Q588.9531,62.2422 588.7813,62.0703 Q588.4688,61.7422 587.9063,61.5547 Q587.3438,61.3516 586.7813,61.3516 Q586.0781,61.3516 585.4844,61.6328 Q584.9063,61.9141 584.4531,62.5391 Q584,63.1641 584,64.0234 L584,64.9453 Q584,65.9766 584.8438,66.6641 Q585.6875,67.3516 587.1875,67.3516 Q588.0781,67.3516 588.7031,67.1484 Q589.0625,67.0391 589.4688,66.6797 Q589.7344,66.4766 589.875,66.4141 Q590.0156,66.3516 590.1875,66.3516 Q590.5156,66.3516 590.75,66.6172 Q591,66.8672 591,67.2266 Q591,67.5703 590.6563,67.9766 Q590.1563,68.5703 589.3594,68.8984 Q588.3125,69.3516 587.0313,69.3516 Q585.5313,69.3516 584.3281,68.7578 Q583.3594,68.2891 582.6719,67.2734 Q582,66.2578 582,65.0547 L582,63.9609 Q582,62.7109 582.5938,61.6172 Q583.2031,60.5234 584.25,59.9453 Q585.3125,59.3516 586.5,59.3516 Q587.2188,59.3516 587.8438,59.6016 Q588.4688,59.8516 589,60.3516 Z " fill="#000000"/><text fill="#000000" font-family="sans-serif" font-size="12" font-style="italic" lengthAdjust="spacing" textLength="81" x="600" y="59.957">«value object»</text><text fill="#000000" font-family="sans-serif" font-size="14" lengthAdjust="spacing" textLength="79" x="601" y="77.127">CurrentTask</text><line style="stroke:#181818;stroke-width:0.5;" x1="573" x2="682" y1="85.2031" y2="85.2031"/></g><!--MD5=[b8084bbefe35ffcc4a4483270aef6409]
class WarehouseEmployee--><g id="elem_WarehouseEmployee"><rect codeLine="36" fill="#F1F1F1" height="50.7031" id="WarehouseEmployee" rx="2.5" ry="2.5" style="stroke:#181818;stroke-width:0.5;" width="167" x="7" y="343.5"/><ellipse cx="22" cy="364.8516" fill="#ADD1B2" rx="11" ry="11" style="stroke:#181818;stroke-width:1.0;"/><path d="M24,361.3516 Q24.2031,360.8516 24.4375,360.6016 Q24.6719,360.3516 24.9375,360.3516 Q25.4063,360.3516 25.7031,360.6328 Q26,360.9141 26,361.5703 L26,363.1328 Q26,363.7891 25.7188,364.0703 Q25.4375,364.3516 25,364.3516 Q24.6094,364.3516 24.3594,364.1797 Q24.1094,364.0078 24,363.5547 Q23.9531,363.2422 23.7813,363.0703 Q23.4688,362.7422 22.9063,362.5547 Q22.3438,362.3516 21.7813,362.3516 Q21.0781,362.3516 20.4844,362.6328 Q19.9063,362.9141 19.4531,363.5391 Q19,364.1641 19,365.0234 L19,365.9453 Q19,366.9766 19.8438,367.6641 Q20.6875,368.3516 22.1875,368.3516 Q23.0781,368.3516 23.7031,368.1484 Q24.0625,368.0391 24.4688,367.6797 Q24.7344,367.4766 24.875,367.4141 Q25.0156,367.3516 25.1875,367.3516 Q25.5156,367.3516 25.75,367.6172 Q26,367.8672 26,368.2266 Q26,368.5703 25.6563,368.9766 Q25.1563,369.5703 24.3594,369.8984 Q23.3125,370.3516 22.0313,370.3516 Q20.5313,370.3516 19.3281,369.7578 Q18.3594,369.2891 17.6719,368.2734 Q17,367.2578 17,366.0547 L17,364.9609 Q17,363.7109 17.5938,362.6172 Q18.2031,361.5234 19.25,360.9453 Q20.3125,360.3516 21.5,360.3516 Q22.2188,360.3516 22.8438,360.6016 Q23.4688,360.8516 24,361.3516 Z " fill="#000000"/><text fill="#000000" font-family="sans-serif" font-size="12" font-style="italic" lengthAdjust="spacing" textLength="43" x="82" y="360.957">«entity»</text><text fill="#000000" font-family="sans-serif" font-size="14" lengthAdjust="spacing" textLength="135" x="36" y="378.127">WarehouseEmployee</text><line style="stroke:#181818;stroke-width:0.5;" x1="8" x2="173" y1="386.2031" y2="386.2031"/></g><!--MD5=[2f5e32ec77f03236670af236b3ac1ba3]
link WarehouseEmployee to AGV--><g id="link_WarehouseEmployee_AGV"><path codeLine="43" d="M174.28,369 C238.13,369 323.24,369 370.2,369 " fill="none" id="WarehouseEmployee-AGV" style="stroke:#181818;stroke-width:1.0;"/><polygon fill="#000000" points="221,360.1758,211.9549,357.2369,211.9549,363.1147,221,360.1758" style="stroke:#000000;stroke-width:1.0;"/><text fill="#000000" font-family="sans-serif" font-size="13" lengthAdjust="spacing" textLength="53" x="225" y="365.4951">manages</text><text fill="#000000" font-family="sans-serif" font-size="13" lengthAdjust="spacing" textLength="7" x="182.0534" y="383.2365">1</text><text fill="#000000" font-family="sans-serif" font-size="13" lengthAdjust="spacing" textLength="5" x="357.3006" y="384.1491">*</text></g><!--MD5=[5ec02356f496e963d0f6fc7dcdfc5886]
link Order to AGV--><g id="link_Order_AGV"><path codeLine="44" d="M104.97,944.18 C155.01,848.24 330.27,512.27 387.08,403.36 " fill="none" id="Order-AGV" style="stroke:#181818;stroke-width:1.0;"/><polygon fill="#000000" points="211.3125,584.7427,204.5235,591.403,209.7349,594.1215,211.3125,584.7427" style="stroke:#000000;stroke-width:1.0;"/><text fill="#000000" font-family="sans-serif" font-size="13" lengthAdjust="spacing" textLength="67" x="218" y="594.4951">assigned to</text><text fill="#000000" font-family="sans-serif" font-size="13" lengthAdjust="spacing" textLength="7" x="100.6439" y="933.5105">1</text><text fill="#000000" font-family="sans-serif" font-size="13" lengthAdjust="spacing" textLength="5" x="377.9968" y="424.9337">*</text></g><!--MD5=[bba317dcae9279c3937714ed06aa4019]
link AGV to ShortDescription--><g id="link_AGV_ShortDescription"><path codeLine="45" d="M432.53,403.23 C460.91,439.89 509.32,498.54 559,541 C564.95,546.08 571.55,551.01 578.22,555.61 " fill="none" id="AGV-to-ShortDescription" style="stroke:#181818;stroke-width:1.0;"/><polygon fill="#181818" points="582.38,558.42,577.1632,550.0663,578.2374,555.6202,572.6835,556.6944,582.38,558.42" style="stroke:#181818;stroke-width:1.0;"/><text fill="#000000" font-family="sans-serif" font-size="13" lengthAdjust="spacing" textLength="7" x="563.5289" y="547.809">1</text></g><!--MD5=[90de021bb2aa8991bb28cb59916c543e]
link AGV to Model--><g id="link_AGV_Model"><path codeLine="46" d="M441.78,389.44 C478.64,411.1 537.1,445.46 578.37,469.71 " fill="none" id="AGV-to-Model" style="stroke:#181818;stroke-width:1.0;"/><polygon fill="#181818" points="582.81,472.32,577.0876,464.3041,578.5025,469.7812,573.0255,471.1961,582.81,472.32" style="stroke:#181818;stroke-width:1.0;"/><text fill="#000000" font-family="sans-serif" font-size="13" lengthAdjust="spacing" textLength="7" x="564.0637" y="461.6846">1</text></g><!--MD5=[c72f1e6940ed6ecc2c144a601f0c19a4]
link AGV to MaximumWeight--><g id="link_AGV_MaximumWeight"><path codeLine="47" d="M441.78,375.81 C472.21,381.77 517.36,390.62 555.41,398.07 " fill="none" id="AGV-to-MaximumWeight" style="stroke:#181818;stroke-width:1.0;"/><polygon fill="#181818" points="560.49,399.07,552.4397,393.3962,555.5855,398.0977,550.884,401.2434,560.49,399.07" style="stroke:#181818;stroke-width:1.0;"/><text fill="#000000" font-family="sans-serif" font-size="13" lengthAdjust="spacing" textLength="7" x="545.3373" y="412.0326">1</text></g><!--MD5=[67bde9aab136fc3a908675e16468351d]
link AGV to MaximumVolume--><g id="link_AGV_MaximumVolume"><path codeLine="48" d="M441.78,362.19 C471.74,356.32 515.99,347.65 553.67,340.27 " fill="none" id="AGV-to-MaximumVolume" style="stroke:#181818;stroke-width:1.0;"/><polygon fill="#181818" points="558.7,339.28,549.1001,337.0796,553.7927,340.2386,550.6338,344.9312,558.7,339.28" style="stroke:#181818;stroke-width:1.0;"/><text fill="#000000" font-family="sans-serif" font-size="13" lengthAdjust="spacing" textLength="7" x="543.7922" y="355.1381">1</text></g><!--MD5=[670f8ab1959079f3e542dc0d97ca6264]
link AGV to BaseLocation--><g id="link_AGV_BaseLocation"><path codeLine="49" d="M441.78,348.56 C478.64,326.9 537.1,292.54 578.37,268.29 " fill="none" id="AGV-to-BaseLocation" style="stroke:#181818;stroke-width:1.0;"/><polygon fill="#181818" points="582.81,265.68,573.0255,266.8039,578.5025,268.2188,577.0876,273.6959,582.81,265.68" style="stroke:#181818;stroke-width:1.0;"/><text fill="#000000" font-family="sans-serif" font-size="13" lengthAdjust="spacing" textLength="7" x="565.2684" y="286.6135">1</text></g><!--MD5=[f5443cc58319b313032a803e076be4aa]
link AGV to Status--><g id="link_AGV_Status"><path codeLine="50" d="M432.53,334.77 C460.91,298.11 509.32,239.46 559,197 C564.95,191.92 571.55,186.99 578.22,182.39 " fill="none" id="AGV-to-Status" style="stroke:#181818;stroke-width:1.0;"/><polygon fill="#181818" points="582.38,179.58,572.6835,181.3056,578.2374,182.3798,577.1632,187.9337,582.38,179.58" style="stroke:#181818;stroke-width:1.0;"/><text fill="#000000" font-family="sans-serif" font-size="13" lengthAdjust="spacing" textLength="7" x="564.7444" y="200.4917">1</text></g><!--MD5=[92849aba45a5a3491428223c69d2c017]
link AGV to CurrentTask--><g id="link_AGV_CurrentTask"><path codeLine="51" d="M420.91,334.72 C443.64,281.87 492.91,179.43 559,111 C563.94,105.88 569.6,101.09 575.5,96.71 " fill="none" id="AGV-to-CurrentTask" style="stroke:#181818;stroke-width:1.0;"/><polygon fill="#181818" points="579.62,93.73,569.9814,95.7542,575.5659,96.6564,574.6637,102.2409,579.62,93.73" style="stroke:#181818;stroke-width:1.0;"/><text fill="#000000" font-family="sans-serif" font-size="13" lengthAdjust="spacing" textLength="7" x="561.3806" y="114.6745">1</text></g><!--MD5=[5df16df72a49edaa4f00919f1e597f76]
link Order to Product--><g id="link_Order_Product"><path codeLine="53" d="M99.92,995.51 C115.28,1039.22 151.2,1129.66 204,1191 C248.57,1242.78 320.53,1279.35 365.17,1298.51 " fill="none" id="Order-Product" style="stroke:#181818;stroke-width:1.0;"/><polygon fill="#000000" points="221.2934,1185.9379,217.5469,1177.1964,213.1243,1181.068,221.2934,1185.9379" style="stroke:#000000;stroke-width:1.0;"/><text fill="#000000" font-family="sans-serif" font-size="13" lengthAdjust="spacing" textLength="49" x="227" y="1187.4951">contains</text><text fill="#000000" font-family="sans-serif" font-size="13" lengthAdjust="spacing" textLength="7" x="94.289" y="1016.8293">1</text><text fill="#000000" font-family="sans-serif" font-size="13" lengthAdjust="spacing" textLength="5" x="352.4518" y="1310.7287">*</text></g><!--MD5=[a11f8a7c0857caaceb9973075ab12293]
link Order to Shipment_method_cost--><g id="link_Order_Shipment_method_cost"><path codeLine="54" d="M126.11,995.34 C147.93,1010.82 177,1030.54 204,1046 C250.15,1072.41 304.71,1098.15 345.33,1116.31 " fill="none" id="Order-Shipment_method_cost" style="stroke:#181818;stroke-width:1.0;"/><polygon fill="#000000" points="236.3777,1039.5915,229.8783,1032.6483,227.0384,1037.7946,236.3777,1039.5915" style="stroke:#000000;stroke-width:1.0;"/><text fill="#000000" font-family="sans-serif" font-size="13" lengthAdjust="spacing" textLength="21" x="241" y="1042.4951">has</text><text fill="#000000" font-family="sans-serif" font-size="13" lengthAdjust="spacing" textLength="7" x="126.5354" y="1016.62">1</text><text fill="#000000" font-family="sans-serif" font-size="13" lengthAdjust="spacing" textLength="7" x="322.6886" y="1105.6722">1</text></g><!--MD5=[dd2bca8e69277b6dcf04d6bf8fed5dca]
link Order to Address--><g id="link_Order_Address"><path codeLine="55" d="M126.07,949.11 C169.79,922.92 247.63,877.1 316,841 C325.74,835.86 336.19,830.59 346.38,825.59 " fill="none" id="Order-to-Address" style="stroke:#181818;stroke-width:1.0;"/><polygon fill="#181818" points="351.04,823.31,341.1977,823.6694,346.5481,825.5061,344.7114,830.8564,351.04,823.31" style="stroke:#181818;stroke-width:1.0;"/><text fill="#000000" font-family="sans-serif" font-size="13" lengthAdjust="spacing" textLength="7" x="336.5498" y="841.1145">2</text></g><!--MD5=[65622aaf8fcfd7b10df86db327daabc8]
link Order to Customer--><g id="link_Order_Customer"><path codeLine="56" d="M111.82,995.55 C133.45,1022.1 169.28,1064.27 204,1097 C250.06,1140.42 262.3,1151.48 316,1185 C328.06,1192.53 341.63,1199.68 354.47,1205.92 " fill="none" id="Order-to-Customer" style="stroke:#181818;stroke-width:1.0;"/><polygon fill="#181818" points="359.17,1208.18,352.8027,1200.6662,354.6669,1206.0071,349.326,1207.8712,359.17,1208.18" style="stroke:#181818;stroke-width:1.0;"/><text fill="#000000" font-family="sans-serif" font-size="13" lengthAdjust="spacing" textLength="7" x="344.4632" y="1219.9148">1</text></g><!--MD5=[d632493b7aa33197b9cc0e718a5b0895]
link Order to Total_amount--><g id="link_Order_Total_amount"><path codeLine="57" d="M126.05,978.41 C165.03,988.02 230.26,1004.41 286,1020 C304.05,1025.05 323.55,1030.81 341.43,1036.23 " fill="none" id="Order-to-Total_amount" style="stroke:#181818;stroke-width:1.0;"/><polygon fill="#181818" points="346.43,1037.75,338.9853,1031.302,341.6468,1036.2936,336.6551,1038.9551,346.43,1037.75" style="stroke:#181818;stroke-width:1.0;"/><text fill="#000000" font-family="sans-serif" font-size="13" lengthAdjust="spacing" textLength="7" x="331.3492" y="1049.9734">1</text></g><!--MD5=[ea8e6d7b91295ceaf4229b76aea87bb4]
link Order to Payment_method--><g id="link_Order_Payment_method"><path codeLine="58" d="M126.25,960.47 C175.11,947.06 265.37,922.3 329.95,904.59 " fill="none" id="Order-to-Payment_method" style="stroke:#181818;stroke-width:1.0;"/><polygon fill="#181818" points="334.95,903.22,325.2113,901.7509,330.1292,904.5464,327.3336,909.4643,334.95,903.22" style="stroke:#181818;stroke-width:1.0;"/><text fill="#000000" font-family="sans-serif" font-size="13" lengthAdjust="spacing" textLength="7" x="319.7961" y="919.7278">1</text></g><!--MD5=[1b7a817b58e247dd4f1c0e76d5afeb0d]
link Order to Payment_confirmation--><g id="link_Order_Payment_confirmation"><path codeLine="59" d="M126.25,970 C171.37,970 251.79,970 314.7,970 " fill="none" id="Order-to-Payment_confirmation" style="stroke:#181818;stroke-width:1.0;"/><polygon fill="#181818" points="319.96,970,310.96,966,314.96,970,310.96,974,319.96,970" style="stroke:#181818;stroke-width:1.0;"/><text fill="#000000" font-family="sans-serif" font-size="13" lengthAdjust="spacing" textLength="7" x="304.9853" y="984.2365">1</text></g><!--MD5=[1724ada59dee632394b1e9b70396c85a]
link Order to State--><g id="link_Order_State"><path codeLine="60" d="M113.27,944.45 C151.09,901.22 232.88,812.71 316,755 C325.5,748.41 336.16,742.3 346.72,736.89 " fill="none" id="Order-to-State" style="stroke:#181818;stroke-width:1.0;"/><polygon fill="#181818" points="351.23,734.62,341.3919,735.0798,346.7607,736.8618,344.9787,742.2306,351.23,734.62" style="stroke:#181818;stroke-width:1.0;"/><text fill="#000000" font-family="sans-serif" font-size="13" lengthAdjust="spacing" textLength="7" x="336.4" y="752.2732">1</text></g><!--MD5=[7bb032fb1810ca5e8648aa228409b686]
@startuml
hide methods
left to right direction
skinparam classAttributeIconSize 0

package "order"{
class Order{

}

Product <<entity>>
Customer <<entity>>
Shipment_method_cost <<value object>>
Total_amount <<value object>>
Payment_confirmation <<value object>>
Payment_method <<value object>>
Address <<value object>>
State <<value object>>
}


package "agv"{
class AGV{
-id
}

AGV <<entity>>
ShortDescription <<value object>>
Model <<value object>>
MaximumWeight <<value object>>
MaximumVolume <<value object>>
BaseLocation <<value object>>
Status <<value object>>
CurrentTask <<value object>>
}

class WarehouseEmployee{
}

WarehouseEmployee <<entity>>
Order <<entity>>
AGV <<entity>>

WarehouseEmployee "1" - - "*" AGV : manages >
Order "1" - - "*" AGV : assigned to >
AGV  - -> "1" ShortDescription
AGV  - -> "1" Model
AGV  - -> "1" MaximumWeight
AGV  - -> "1" MaximumVolume
AGV  - -> "1" BaseLocation
AGV  - -> "1" Status
AGV  - -> "1" CurrentTask

Order "1" - - "*" Product : contains >
Order "1" - - "1" Shipment_method_cost : has >
Order  - -> "2" Address
Order  - -> "1" Customer
Order  - -> "1" Total_amount
Order  - -> "1" Payment_method
Order  - -> "1" Payment_confirmation
Order  - -> "1" State


@enduml

PlantUML version 1.2022.4(Sat Apr 09 14:29:17 BST 2022)
(GPL source distribution)
Java Runtime: OpenJDK Runtime Environment
JVM: OpenJDK 64-Bit Server VM
Default Encoding: Cp1252
Language: pt
Country: PT
--></g></svg>