<?xml version="1.0" encoding="UTF-8" standalone="no"?><svg xmlns="http://www.w3.org/2000/svg" xmlns:xlink="http://www.w3.org/1999/xlink" contentStyleType="text/css" height="1259px" preserveAspectRatio="none" style="width:905px;height:1259px;background:#FFFFFF;" version="1.1" viewBox="0 0 905 1259" width="905px" zoomAndPan="magnify"><defs/><g><!--MD5=[8fd473fd151a2794da4f2c8684676405]
cluster Presentation--><g id="cluster_Presentation"><path d="M336.5,6 L427.5,6 A3.75,3.75 0 0 1 430,8.5 L437,29.6094 L487.5,29.6094 A2.5,2.5 0 0 1 490,32.1094 L490,103.5 A2.5,2.5 0 0 1 487.5,106 L336.5,106 A2.5,2.5 0 0 1 334,103.5 L334,8.5 A2.5,2.5 0 0 1 336.5,6 " style="stroke:#000000;stroke-width:1.5;fill:none;"/><line style="stroke:#000000;stroke-width:1.5;fill:none;" x1="334" x2="437" y1="29.6094" y2="29.6094"/><text fill="#000000" font-family="sans-serif" font-size="14" font-weight="bold" lengthAdjust="spacing" textLength="90" x="338" y="22.5332">Presentation</text></g><!--MD5=[d64883541e3d62e3241c4d12decf100d]
cluster Application--><g id="cluster_Application"><path d="M123.5,130 L202.5,130 A3.75,3.75 0 0 1 205,132.5 L212,153.6094 L700.5,153.6094 A2.5,2.5 0 0 1 703,156.1094 L703,297.5 A2.5,2.5 0 0 1 700.5,300 L123.5,300 A2.5,2.5 0 0 1 121,297.5 L121,132.5 A2.5,2.5 0 0 1 123.5,130 " style="stroke:#000000;stroke-width:1.5;fill:none;"/><line style="stroke:#000000;stroke-width:1.5;fill:none;" x1="121" x2="212" y1="153.6094" y2="153.6094"/><text fill="#000000" font-family="sans-serif" font-size="14" font-weight="bold" lengthAdjust="spacing" textLength="78" x="125" y="146.5332">Application</text></g><!--MD5=[7b8bc9ee8bb84b99fb3a3f9477c19238]
cluster DTO--><g id="cluster_DTO"><path d="M8.5,1143 L38.5,1143 A3.75,3.75 0 0 1 41,1145.5 L48,1166.6094 L251.5,1166.6094 A2.5,2.5 0 0 1 254,1169.1094 L254,1240.5 A2.5,2.5 0 0 1 251.5,1243 L8.5,1243 A2.5,2.5 0 0 1 6,1240.5 L6,1145.5 A2.5,2.5 0 0 1 8.5,1143 " style="stroke:#000000;stroke-width:1.5;fill:none;"/><line style="stroke:#000000;stroke-width:1.5;fill:none;" x1="6" x2="48" y1="1166.6094" y2="1166.6094"/><text fill="#000000" font-family="sans-serif" font-size="14" font-weight="bold" lengthAdjust="spacing" textLength="29" x="10" y="1159.5332">DTO</text></g><!--MD5=[121a8bf1197281ab89ed693fab589f94]
cluster Domain--><g id="cluster_Domain"><path d="M280.5,947 L333.5,947 A3.75,3.75 0 0 1 336,949.5 L343,970.6094 L580.5,970.6094 A2.5,2.5 0 0 1 583,973.1094 L583,1249.5 A2.5,2.5 0 0 1 580.5,1252 L280.5,1252 A2.5,2.5 0 0 1 278,1249.5 L278,949.5 A2.5,2.5 0 0 1 280.5,947 " style="stroke:#000000;stroke-width:1.5;fill:none;"/><line style="stroke:#000000;stroke-width:1.5;fill:none;" x1="278" x2="343" y1="970.6094" y2="970.6094"/><text fill="#000000" font-family="sans-serif" font-size="14" font-weight="bold" lengthAdjust="spacing" textLength="52" x="282" y="963.5332">Domain</text></g><!--MD5=[bc6b40dadbf86ab6a0c8405a467a48af]
cluster Persistence--><g id="cluster_Persistence"><path d="M402.5,369 L487.5,369 A3.75,3.75 0 0 1 490,371.5 L497,392.6094 L583.5,392.6094 A2.5,2.5 0 0 1 586,395.1094 L586,484.5 A2.5,2.5 0 0 1 583.5,487 L402.5,487 A2.5,2.5 0 0 1 400,484.5 L400,371.5 A2.5,2.5 0 0 1 402.5,369 " style="stroke:#000000;stroke-width:1.5;fill:none;"/><line style="stroke:#000000;stroke-width:1.5;fill:none;" x1="400" x2="497" y1="392.6094" y2="392.6094"/><text fill="#000000" font-family="sans-serif" font-size="14" font-weight="bold" lengthAdjust="spacing" textLength="84" x="404" y="385.5332">Persistence</text></g><!--MD5=[0d5799440b3bfefd92b00abfcd2c79b9]
cluster Factory--><g id="cluster_Factory"><path d="M412.5,556 L465.5,556 A3.75,3.75 0 0 1 468,558.5 L475,579.6094 L587.5,579.6094 A2.5,2.5 0 0 1 590,582.1094 L590,671.5 A2.5,2.5 0 0 1 587.5,674 L412.5,674 A2.5,2.5 0 0 1 410,671.5 L410,558.5 A2.5,2.5 0 0 1 412.5,556 " style="stroke:#000000;stroke-width:1.5;fill:none;"/><line style="stroke:#000000;stroke-width:1.5;fill:none;" x1="410" x2="475" y1="579.6094" y2="579.6094"/><text fill="#000000" font-family="sans-serif" font-size="14" font-weight="bold" lengthAdjust="spacing" textLength="52" x="414" y="572.5332">Factory</text></g><!--MD5=[71971f99a41bb66cf321ce46bb59f738]
cluster Repository--><g id="cluster_Repository"><path d="M399.5,743 L476.5,743 A3.75,3.75 0 0 1 479,745.5 L486,766.6094 L895.5,766.6094 A2.5,2.5 0 0 1 898,769.1094 L898,875.5 A2.5,2.5 0 0 1 895.5,878 L399.5,878 A2.5,2.5 0 0 1 397,875.5 L397,745.5 A2.5,2.5 0 0 1 399.5,743 " style="stroke:#000000;stroke-width:1.5;fill:none;"/><line style="stroke:#000000;stroke-width:1.5;fill:none;" x1="397" x2="486" y1="766.6094" y2="766.6094"/><text fill="#000000" font-family="sans-serif" font-size="14" font-weight="bold" lengthAdjust="spacing" textLength="76" x="401" y="759.5332">Repository</text></g><!--MD5=[26da981954f35f4addd025e195c3ef65]
class AssignOrderUI--><g id="elem_AssignOrderUI"><rect codeLine="4" fill="#F1F1F1" height="48" id="AssignOrderUI" rx="2.5" ry="2.5" style="stroke:#181818;stroke-width:0.5;" width="123" x="350.5" y="42"/><ellipse cx="365.5" cy="58" fill="#ADD1B2" rx="11" ry="11" style="stroke:#181818;stroke-width:1.0;"/><path d="M367.5,54.5 Q367.7031,54 367.9375,53.75 Q368.1719,53.5 368.4375,53.5 Q368.9063,53.5 369.2031,53.7813 Q369.5,54.0625 369.5,54.7188 L369.5,56.2813 Q369.5,56.9375 369.2188,57.2188 Q368.9375,57.5 368.5,57.5 Q368.1094,57.5 367.8594,57.3281 Q367.6094,57.1563 367.5,56.7031 Q367.4531,56.3906 367.2813,56.2188 Q366.9688,55.8906 366.4063,55.7031 Q365.8438,55.5 365.2813,55.5 Q364.5781,55.5 363.9844,55.7813 Q363.4063,56.0625 362.9531,56.6875 Q362.5,57.3125 362.5,58.1719 L362.5,59.0938 Q362.5,60.125 363.3438,60.8125 Q364.1875,61.5 365.6875,61.5 Q366.5781,61.5 367.2031,61.2969 Q367.5625,61.1875 367.9688,60.8281 Q368.2344,60.625 368.375,60.5625 Q368.5156,60.5 368.6875,60.5 Q369.0156,60.5 369.25,60.7656 Q369.5,61.0156 369.5,61.375 Q369.5,61.7188 369.1563,62.125 Q368.6563,62.7188 367.8594,63.0469 Q366.8125,63.5 365.5313,63.5 Q364.0313,63.5 362.8281,62.9063 Q361.8594,62.4375 361.1719,61.4219 Q360.5,60.4063 360.5,59.2031 L360.5,58.1094 Q360.5,56.8594 361.0938,55.7656 Q361.7031,54.6719 362.75,54.0938 Q363.8125,53.5 365,53.5 Q365.7188,53.5 366.3438,53.75 Q366.9688,54 367.5,54.5 Z " fill="#000000"/><text fill="#000000" font-family="sans-serif" font-size="14" lengthAdjust="spacing" textLength="91" x="379.5" y="63.7285">AssignOrderUI</text><line style="stroke:#181818;stroke-width:0.5;" x1="351.5" x2="472.5" y1="74" y2="74"/><line style="stroke:#181818;stroke-width:0.5;" x1="351.5" x2="472.5" y1="82" y2="82"/></g><!--MD5=[047d232cc0534551ac6cbe0cb4c2b5eb]
class AssignOrderController--><g id="elem_AssignOrderController"><rect codeLine="8" fill="#F1F1F1" height="118.4375" id="AssignOrderController" rx="2.5" ry="2.5" style="stroke:#181818;stroke-width:0.5;" width="549" x="137.5" y="166"/><ellipse cx="337.25" cy="182" fill="#ADD1B2" rx="11" ry="11" style="stroke:#181818;stroke-width:1.0;"/><path d="M339.25,178.5 Q339.4531,178 339.6875,177.75 Q339.9219,177.5 340.1875,177.5 Q340.6563,177.5 340.9531,177.7813 Q341.25,178.0625 341.25,178.7188 L341.25,180.2813 Q341.25,180.9375 340.9688,181.2188 Q340.6875,181.5 340.25,181.5 Q339.8594,181.5 339.6094,181.3281 Q339.3594,181.1563 339.25,180.7031 Q339.2031,180.3906 339.0313,180.2188 Q338.7188,179.8906 338.1563,179.7031 Q337.5938,179.5 337.0313,179.5 Q336.3281,179.5 335.7344,179.7813 Q335.1563,180.0625 334.7031,180.6875 Q334.25,181.3125 334.25,182.1719 L334.25,183.0938 Q334.25,184.125 335.0938,184.8125 Q335.9375,185.5 337.4375,185.5 Q338.3281,185.5 338.9531,185.2969 Q339.3125,185.1875 339.7188,184.8281 Q339.9844,184.625 340.125,184.5625 Q340.2656,184.5 340.4375,184.5 Q340.7656,184.5 341,184.7656 Q341.25,185.0156 341.25,185.375 Q341.25,185.7188 340.9063,186.125 Q340.4063,186.7188 339.6094,187.0469 Q338.5625,187.5 337.2813,187.5 Q335.7813,187.5 334.5781,186.9063 Q333.6094,186.4375 332.9219,185.4219 Q332.25,184.4063 332.25,183.2031 L332.25,182.1094 Q332.25,180.8594 332.8438,179.7656 Q333.4531,178.6719 334.5,178.0938 Q335.5625,177.5 336.75,177.5 Q337.4688,177.5 338.0938,177.75 Q338.7188,178 339.25,178.5 Z " fill="#000000"/><text fill="#000000" font-family="sans-serif" font-size="14" lengthAdjust="spacing" textLength="141" x="357.75" y="187.7285">AssignOrderController</text><line style="stroke:#181818;stroke-width:0.5;" x1="138.5" x2="685.5" y1="198" y2="198"/><line style="stroke:#181818;stroke-width:0.5;" x1="138.5" x2="685.5" y1="206" y2="206"/><text fill="#000000" font-family="sans-serif" font-size="14" lengthAdjust="spacing" textLength="401" x="143.5" y="224.5332">+List&lt;Product_OrderDTOComplete&gt; getOrdersToBePrepared()</text><text fill="#000000" font-family="sans-serif" font-size="14" lengthAdjust="spacing" textLength="477" x="143.5" y="242.1426">-List&lt;Product_OrderDTOComplete&gt; toDTOOrder( List&lt;Product_Order&gt; list)</text><text fill="#000000" font-family="sans-serif" font-size="14" lengthAdjust="spacing" textLength="537" x="143.5" y="259.752">+List&lt;AGVDTO&gt; getAGVAvailable(Product_OrderDTOComplete orderDTOComplete)</text><text fill="#000000" font-family="sans-serif" font-size="14" lengthAdjust="spacing" textLength="275" x="143.5" y="277.3613">-List&lt;AGVDTO&gt; toDTOAGV(List&lt;AGV&gt; list)</text></g><!--MD5=[d2c0c585346bec4342776ae6562cf14f]
class Product_OrderDTOComplete--><g id="elem_Product_OrderDTOComplete"><rect codeLine="17" fill="#F1F1F1" height="48" id="Product_OrderDTOComplete" rx="2.5" ry="2.5" style="stroke:#181818;stroke-width:0.5;" width="216" x="22" y="1179"/><ellipse cx="37" cy="1195" fill="#ADD1B2" rx="11" ry="11" style="stroke:#181818;stroke-width:1.0;"/><path d="M39,1191.5 Q39.2031,1191 39.4375,1190.75 Q39.6719,1190.5 39.9375,1190.5 Q40.4063,1190.5 40.7031,1190.7813 Q41,1191.0625 41,1191.7188 L41,1193.2813 Q41,1193.9375 40.7188,1194.2188 Q40.4375,1194.5 40,1194.5 Q39.6094,1194.5 39.3594,1194.3281 Q39.1094,1194.1563 39,1193.7031 Q38.9531,1193.3906 38.7813,1193.2188 Q38.4688,1192.8906 37.9063,1192.7031 Q37.3438,1192.5 36.7813,1192.5 Q36.0781,1192.5 35.4844,1192.7813 Q34.9063,1193.0625 34.4531,1193.6875 Q34,1194.3125 34,1195.1719 L34,1196.0938 Q34,1197.125 34.8438,1197.8125 Q35.6875,1198.5 37.1875,1198.5 Q38.0781,1198.5 38.7031,1198.2969 Q39.0625,1198.1875 39.4688,1197.8281 Q39.7344,1197.625 39.875,1197.5625 Q40.0156,1197.5 40.1875,1197.5 Q40.5156,1197.5 40.75,1197.7656 Q41,1198.0156 41,1198.375 Q41,1198.7188 40.6563,1199.125 Q40.1563,1199.7188 39.3594,1200.0469 Q38.3125,1200.5 37.0313,1200.5 Q35.5313,1200.5 34.3281,1199.9063 Q33.3594,1199.4375 32.6719,1198.4219 Q32,1197.4063 32,1196.2031 L32,1195.1094 Q32,1193.8594 32.5938,1192.7656 Q33.2031,1191.6719 34.25,1191.0938 Q35.3125,1190.5 36.5,1190.5 Q37.2188,1190.5 37.8438,1190.75 Q38.4688,1191 39,1191.5 Z " fill="#000000"/><text fill="#000000" font-family="sans-serif" font-size="14" lengthAdjust="spacing" textLength="184" x="51" y="1200.7285">Product_OrderDTOComplete</text><line style="stroke:#181818;stroke-width:0.5;" x1="23" x2="237" y1="1211" y2="1211"/><line style="stroke:#181818;stroke-width:0.5;" x1="23" x2="237" y1="1219" y2="1219"/></g><!--MD5=[53b2c06ade5903185ca3326dce80e141]
class AGV--><g id="elem_AGV"><rect codeLine="23" fill="#F1F1F1" height="65.6094" id="AGV" rx="2.5" ry="2.5" style="stroke:#181818;stroke-width:0.5;" width="72" x="452" y="1170"/><ellipse cx="471.95" cy="1186" fill="#ADD1B2" rx="11" ry="11" style="stroke:#181818;stroke-width:1.0;"/><path d="M473.95,1182.5 Q474.1531,1182 474.3875,1181.75 Q474.6219,1181.5 474.8875,1181.5 Q475.3563,1181.5 475.6531,1181.7813 Q475.95,1182.0625 475.95,1182.7188 L475.95,1184.2813 Q475.95,1184.9375 475.6688,1185.2188 Q475.3875,1185.5 474.95,1185.5 Q474.5594,1185.5 474.3094,1185.3281 Q474.0594,1185.1563 473.95,1184.7031 Q473.9031,1184.3906 473.7313,1184.2188 Q473.4188,1183.8906 472.8563,1183.7031 Q472.2938,1183.5 471.7313,1183.5 Q471.0281,1183.5 470.4344,1183.7813 Q469.8563,1184.0625 469.4031,1184.6875 Q468.95,1185.3125 468.95,1186.1719 L468.95,1187.0938 Q468.95,1188.125 469.7938,1188.8125 Q470.6375,1189.5 472.1375,1189.5 Q473.0281,1189.5 473.6531,1189.2969 Q474.0125,1189.1875 474.4188,1188.8281 Q474.6844,1188.625 474.825,1188.5625 Q474.9656,1188.5 475.1375,1188.5 Q475.4656,1188.5 475.7,1188.7656 Q475.95,1189.0156 475.95,1189.375 Q475.95,1189.7188 475.6063,1190.125 Q475.1063,1190.7188 474.3094,1191.0469 Q473.2625,1191.5 471.9813,1191.5 Q470.4813,1191.5 469.2781,1190.9063 Q468.3094,1190.4375 467.6219,1189.4219 Q466.95,1188.4063 466.95,1187.2031 L466.95,1186.1094 Q466.95,1184.8594 467.5438,1183.7656 Q468.1531,1182.6719 469.2,1182.0938 Q470.2625,1181.5 471.45,1181.5 Q472.1688,1181.5 472.7938,1181.75 Q473.4188,1182 473.95,1182.5 Z " fill="#000000"/><text fill="#000000" font-family="sans-serif" font-size="14" lengthAdjust="spacing" textLength="29" x="487.05" y="1191.7285">AGV</text><line style="stroke:#181818;stroke-width:0.5;" x1="453" x2="523" y1="1202" y2="1202"/><line style="stroke:#181818;stroke-width:0.5;" x1="453" x2="523" y1="1210" y2="1210"/><text fill="#000000" font-family="sans-serif" font-size="14" lengthAdjust="spacing" textLength="60" x="458" y="1228.5332">+toDTO()</text></g><!--MD5=[cbdbc9de1bbacc23837bd5178e7780ba]
class Product_Order--><g id="elem_Product_Order"><rect codeLine="26" fill="#F1F1F1" height="65.6094" id="Product_Order" rx="2.5" ry="2.5" style="stroke:#181818;stroke-width:0.5;" width="132" x="294" y="983"/><ellipse cx="311.7" cy="999" fill="#ADD1B2" rx="11" ry="11" style="stroke:#181818;stroke-width:1.0;"/><path d="M313.7,995.5 Q313.9031,995 314.1375,994.75 Q314.3719,994.5 314.6375,994.5 Q315.1063,994.5 315.4031,994.7813 Q315.7,995.0625 315.7,995.7188 L315.7,997.2813 Q315.7,997.9375 315.4188,998.2188 Q315.1375,998.5 314.7,998.5 Q314.3094,998.5 314.0594,998.3281 Q313.8094,998.1563 313.7,997.7031 Q313.6531,997.3906 313.4813,997.2188 Q313.1688,996.8906 312.6063,996.7031 Q312.0438,996.5 311.4813,996.5 Q310.7781,996.5 310.1844,996.7813 Q309.6063,997.0625 309.1531,997.6875 Q308.7,998.3125 308.7,999.1719 L308.7,1000.0938 Q308.7,1001.125 309.5438,1001.8125 Q310.3875,1002.5 311.8875,1002.5 Q312.7781,1002.5 313.4031,1002.2969 Q313.7625,1002.1875 314.1688,1001.8281 Q314.4344,1001.625 314.575,1001.5625 Q314.7156,1001.5 314.8875,1001.5 Q315.2156,1001.5 315.45,1001.7656 Q315.7,1002.0156 315.7,1002.375 Q315.7,1002.7188 315.3563,1003.125 Q314.8563,1003.7188 314.0594,1004.0469 Q313.0125,1004.5 311.7313,1004.5 Q310.2313,1004.5 309.0281,1003.9063 Q308.0594,1003.4375 307.3719,1002.4219 Q306.7,1001.4063 306.7,1000.2031 L306.7,999.1094 Q306.7,997.8594 307.2938,996.7656 Q307.9031,995.6719 308.95,995.0938 Q310.0125,994.5 311.2,994.5 Q311.9188,994.5 312.5438,994.75 Q313.1688,995 313.7,995.5 Z " fill="#000000"/><text fill="#000000" font-family="sans-serif" font-size="14" lengthAdjust="spacing" textLength="94" x="326.3" y="1004.7285">Product_Order</text><line style="stroke:#181818;stroke-width:0.5;" x1="295" x2="425" y1="1015" y2="1015"/><line style="stroke:#181818;stroke-width:0.5;" x1="295" x2="425" y1="1023" y2="1023"/><text fill="#000000" font-family="sans-serif" font-size="14" lengthAdjust="spacing" textLength="120" x="300" y="1041.5332">+toDTOComplete()</text></g><!--MD5=[c5149b4909ffd2688ff51a939867f774]
class Warehouse--><g id="elem_Warehouse"><rect codeLine="29" fill="#F1F1F1" height="65.6094" id="Warehouse" rx="2.5" ry="2.5" style="stroke:#181818;stroke-width:0.5;" width="105" x="461.5" y="983"/><ellipse cx="476.5" cy="999" fill="#ADD1B2" rx="11" ry="11" style="stroke:#181818;stroke-width:1.0;"/><path d="M478.5,995.5 Q478.7031,995 478.9375,994.75 Q479.1719,994.5 479.4375,994.5 Q479.9063,994.5 480.2031,994.7813 Q480.5,995.0625 480.5,995.7188 L480.5,997.2813 Q480.5,997.9375 480.2188,998.2188 Q479.9375,998.5 479.5,998.5 Q479.1094,998.5 478.8594,998.3281 Q478.6094,998.1563 478.5,997.7031 Q478.4531,997.3906 478.2813,997.2188 Q477.9688,996.8906 477.4063,996.7031 Q476.8438,996.5 476.2813,996.5 Q475.5781,996.5 474.9844,996.7813 Q474.4063,997.0625 473.9531,997.6875 Q473.5,998.3125 473.5,999.1719 L473.5,1000.0938 Q473.5,1001.125 474.3438,1001.8125 Q475.1875,1002.5 476.6875,1002.5 Q477.5781,1002.5 478.2031,1002.2969 Q478.5625,1002.1875 478.9688,1001.8281 Q479.2344,1001.625 479.375,1001.5625 Q479.5156,1001.5 479.6875,1001.5 Q480.0156,1001.5 480.25,1001.7656 Q480.5,1002.0156 480.5,1002.375 Q480.5,1002.7188 480.1563,1003.125 Q479.6563,1003.7188 478.8594,1004.0469 Q477.8125,1004.5 476.5313,1004.5 Q475.0313,1004.5 473.8281,1003.9063 Q472.8594,1003.4375 472.1719,1002.4219 Q471.5,1001.4063 471.5,1000.2031 L471.5,999.1094 Q471.5,997.8594 472.0938,996.7656 Q472.7031,995.6719 473.75,995.0938 Q474.8125,994.5 476,994.5 Q476.7188,994.5 477.3438,994.75 Q477.9688,995 478.5,995.5 Z " fill="#000000"/><text fill="#000000" font-family="sans-serif" font-size="14" lengthAdjust="spacing" textLength="73" x="490.5" y="1004.7285">Warehouse</text><line style="stroke:#181818;stroke-width:0.5;" x1="462.5" x2="565.5" y1="1015" y2="1015"/><line style="stroke:#181818;stroke-width:0.5;" x1="462.5" x2="565.5" y1="1023" y2="1023"/><text fill="#000000" font-family="sans-serif" font-size="14" lengthAdjust="spacing" textLength="82" x="467.5" y="1041.5332">+getOrders()</text></g><!--MD5=[e8c189551b7885b999ad7cefb30fc2a3]
class PersistenceContext--><g id="elem_PersistenceContext"><rect codeLine="36" fill="#F1F1F1" height="65.6094" id="PersistenceContext" rx="2.5" ry="2.5" style="stroke:#181818;stroke-width:0.5;" width="154" x="416" y="405"/><ellipse cx="431" cy="421" fill="#ADD1B2" rx="11" ry="11" style="stroke:#181818;stroke-width:1.0;"/><path d="M433,417.5 Q433.2031,417 433.4375,416.75 Q433.6719,416.5 433.9375,416.5 Q434.4063,416.5 434.7031,416.7813 Q435,417.0625 435,417.7188 L435,419.2813 Q435,419.9375 434.7188,420.2188 Q434.4375,420.5 434,420.5 Q433.6094,420.5 433.3594,420.3281 Q433.1094,420.1563 433,419.7031 Q432.9531,419.3906 432.7813,419.2188 Q432.4688,418.8906 431.9063,418.7031 Q431.3438,418.5 430.7813,418.5 Q430.0781,418.5 429.4844,418.7813 Q428.9063,419.0625 428.4531,419.6875 Q428,420.3125 428,421.1719 L428,422.0938 Q428,423.125 428.8438,423.8125 Q429.6875,424.5 431.1875,424.5 Q432.0781,424.5 432.7031,424.2969 Q433.0625,424.1875 433.4688,423.8281 Q433.7344,423.625 433.875,423.5625 Q434.0156,423.5 434.1875,423.5 Q434.5156,423.5 434.75,423.7656 Q435,424.0156 435,424.375 Q435,424.7188 434.6563,425.125 Q434.1563,425.7188 433.3594,426.0469 Q432.3125,426.5 431.0313,426.5 Q429.5313,426.5 428.3281,425.9063 Q427.3594,425.4375 426.6719,424.4219 Q426,423.4063 426,422.2031 L426,421.1094 Q426,419.8594 426.5938,418.7656 Q427.2031,417.6719 428.25,417.0938 Q429.3125,416.5 430.5,416.5 Q431.2188,416.5 431.8438,416.75 Q432.4688,417 433,417.5 Z " fill="#000000"/><text fill="#000000" font-family="sans-serif" font-size="14" lengthAdjust="spacing" textLength="122" x="445" y="426.7285">PersistenceContext</text><line style="stroke:#181818;stroke-width:0.5;" x1="417" x2="569" y1="437" y2="437"/><line style="stroke:#181818;stroke-width:0.5;" x1="417" x2="569" y1="445" y2="445"/><text fill="#000000" font-family="sans-serif" font-size="14" lengthAdjust="spacing" textLength="92" x="422" y="463.5332">+repositories()</text></g><!--MD5=[48590afff58a68e2fcba47824d6f8a11]
class RepositoryFactory--><g id="elem_RepositoryFactory"><rect codeLine="42" fill="#F1F1F1" height="65.6094" id="RepositoryFactory" rx="2.5" ry="2.5" style="stroke:#181818;stroke-width:0.5;" width="148" x="426" y="592"/><ellipse cx="441" cy="608" fill="#ADD1B2" rx="11" ry="11" style="stroke:#181818;stroke-width:1.0;"/><path d="M443,604.5 Q443.2031,604 443.4375,603.75 Q443.6719,603.5 443.9375,603.5 Q444.4063,603.5 444.7031,603.7813 Q445,604.0625 445,604.7188 L445,606.2813 Q445,606.9375 444.7188,607.2188 Q444.4375,607.5 444,607.5 Q443.6094,607.5 443.3594,607.3281 Q443.1094,607.1563 443,606.7031 Q442.9531,606.3906 442.7813,606.2188 Q442.4688,605.8906 441.9063,605.7031 Q441.3438,605.5 440.7813,605.5 Q440.0781,605.5 439.4844,605.7813 Q438.9063,606.0625 438.4531,606.6875 Q438,607.3125 438,608.1719 L438,609.0938 Q438,610.125 438.8438,610.8125 Q439.6875,611.5 441.1875,611.5 Q442.0781,611.5 442.7031,611.2969 Q443.0625,611.1875 443.4688,610.8281 Q443.7344,610.625 443.875,610.5625 Q444.0156,610.5 444.1875,610.5 Q444.5156,610.5 444.75,610.7656 Q445,611.0156 445,611.375 Q445,611.7188 444.6563,612.125 Q444.1563,612.7188 443.3594,613.0469 Q442.3125,613.5 441.0313,613.5 Q439.5313,613.5 438.3281,612.9063 Q437.3594,612.4375 436.6719,611.4219 Q436,610.4063 436,609.2031 L436,608.1094 Q436,606.8594 436.5938,605.7656 Q437.2031,604.6719 438.25,604.0938 Q439.3125,603.5 440.5,603.5 Q441.2188,603.5 441.8438,603.75 Q442.4688,604 443,604.5 Z " fill="#000000"/><text fill="#000000" font-family="sans-serif" font-size="14" lengthAdjust="spacing" textLength="116" x="455" y="613.7285">RepositoryFactory</text><line style="stroke:#181818;stroke-width:0.5;" x1="427" x2="573" y1="624" y2="624"/><line style="stroke:#181818;stroke-width:0.5;" x1="427" x2="573" y1="632" y2="632"/><text fill="#000000" font-family="sans-serif" font-size="14" lengthAdjust="spacing" textLength="58" x="432" y="650.5332">+create()</text></g><!--MD5=[bf4d0c028d0f251e49ce9c9f9f101ed4]
class WarehouseRepository--><g id="elem_WarehouseRepository"><rect codeLine="48" fill="#F1F1F1" height="83.2188" id="WarehouseRepository" rx="2.5" ry="2.5" style="stroke:#181818;stroke-width:0.5;" width="173" x="413.5" y="779"/><ellipse cx="428.5" cy="795" fill="#ADD1B2" rx="11" ry="11" style="stroke:#181818;stroke-width:1.0;"/><path d="M430.5,791.5 Q430.7031,791 430.9375,790.75 Q431.1719,790.5 431.4375,790.5 Q431.9063,790.5 432.2031,790.7813 Q432.5,791.0625 432.5,791.7188 L432.5,793.2813 Q432.5,793.9375 432.2188,794.2188 Q431.9375,794.5 431.5,794.5 Q431.1094,794.5 430.8594,794.3281 Q430.6094,794.1563 430.5,793.7031 Q430.4531,793.3906 430.2813,793.2188 Q429.9688,792.8906 429.4063,792.7031 Q428.8438,792.5 428.2813,792.5 Q427.5781,792.5 426.9844,792.7813 Q426.4063,793.0625 425.9531,793.6875 Q425.5,794.3125 425.5,795.1719 L425.5,796.0938 Q425.5,797.125 426.3438,797.8125 Q427.1875,798.5 428.6875,798.5 Q429.5781,798.5 430.2031,798.2969 Q430.5625,798.1875 430.9688,797.8281 Q431.2344,797.625 431.375,797.5625 Q431.5156,797.5 431.6875,797.5 Q432.0156,797.5 432.25,797.7656 Q432.5,798.0156 432.5,798.375 Q432.5,798.7188 432.1563,799.125 Q431.6563,799.7188 430.8594,800.0469 Q429.8125,800.5 428.5313,800.5 Q427.0313,800.5 425.8281,799.9063 Q424.8594,799.4375 424.1719,798.4219 Q423.5,797.4063 423.5,796.2031 L423.5,795.1094 Q423.5,793.8594 424.0938,792.7656 Q424.7031,791.6719 425.75,791.0938 Q426.8125,790.5 428,790.5 Q428.7188,790.5 429.3438,790.75 Q429.9688,791 430.5,791.5 Z " fill="#000000"/><text fill="#000000" font-family="sans-serif" font-size="14" lengthAdjust="spacing" textLength="141" x="442.5" y="800.7285">WarehouseRepository</text><line style="stroke:#181818;stroke-width:0.5;" x1="414.5" x2="585.5" y1="811" y2="811"/><line style="stroke:#181818;stroke-width:0.5;" x1="414.5" x2="585.5" y1="819" y2="819"/><text fill="#000000" font-family="sans-serif" font-size="14" lengthAdjust="spacing" textLength="58" x="419.5" y="837.5332">+create()</text><text fill="#000000" font-family="sans-serif" font-size="14" lengthAdjust="spacing" textLength="136" x="419.5" y="855.1426">+findAllWarehouses()</text></g><!--MD5=[a2934c79e3adc781b0cd87c74812aba5]
class AGVRepository--><g id="elem_AGVRepository"><rect codeLine="52" fill="#F1F1F1" height="83.2188" id="AGVRepository" rx="2.5" ry="2.5" style="stroke:#181818;stroke-width:0.5;" width="260" x="622" y="779"/><ellipse cx="699.25" cy="795" fill="#ADD1B2" rx="11" ry="11" style="stroke:#181818;stroke-width:1.0;"/><path d="M701.25,791.5 Q701.4531,791 701.6875,790.75 Q701.9219,790.5 702.1875,790.5 Q702.6563,790.5 702.9531,790.7813 Q703.25,791.0625 703.25,791.7188 L703.25,793.2813 Q703.25,793.9375 702.9688,794.2188 Q702.6875,794.5 702.25,794.5 Q701.8594,794.5 701.6094,794.3281 Q701.3594,794.1563 701.25,793.7031 Q701.2031,793.3906 701.0313,793.2188 Q700.7188,792.8906 700.1563,792.7031 Q699.5938,792.5 699.0313,792.5 Q698.3281,792.5 697.7344,792.7813 Q697.1563,793.0625 696.7031,793.6875 Q696.25,794.3125 696.25,795.1719 L696.25,796.0938 Q696.25,797.125 697.0938,797.8125 Q697.9375,798.5 699.4375,798.5 Q700.3281,798.5 700.9531,798.2969 Q701.3125,798.1875 701.7188,797.8281 Q701.9844,797.625 702.125,797.5625 Q702.2656,797.5 702.4375,797.5 Q702.7656,797.5 703,797.7656 Q703.25,798.0156 703.25,798.375 Q703.25,798.7188 702.9063,799.125 Q702.4063,799.7188 701.6094,800.0469 Q700.5625,800.5 699.2813,800.5 Q697.7813,800.5 696.5781,799.9063 Q695.6094,799.4375 694.9219,798.4219 Q694.25,797.4063 694.25,796.2031 L694.25,795.1094 Q694.25,793.8594 694.8438,792.7656 Q695.4531,791.6719 696.5,791.0938 Q697.5625,790.5 698.75,790.5 Q699.4688,790.5 700.0938,790.75 Q700.7188,791 701.25,791.5 Z " fill="#000000"/><text fill="#000000" font-family="sans-serif" font-size="14" lengthAdjust="spacing" textLength="97" x="719.75" y="800.7285">AGVRepository</text><line style="stroke:#181818;stroke-width:0.5;" x1="623" x2="881" y1="811" y2="811"/><line style="stroke:#181818;stroke-width:0.5;" x1="623" x2="881" y1="819" y2="819"/><text fill="#000000" font-family="sans-serif" font-size="14" lengthAdjust="spacing" textLength="58" x="628" y="837.5332">+create()</text><text fill="#000000" font-family="sans-serif" font-size="14" lengthAdjust="spacing" textLength="248" x="628" y="855.1426">+findAbleAGVs(totalweight,totalvolume)</text></g><!--MD5=[a8c259c455f4f1141ce436ed628651af]
link AssignOrderUI to AssignOrderController--><g id="link_AssignOrderUI_AssignOrderController"><path codeLine="57" d="M412,90.17 C412,108.72 412,135.67 412,160.52 " fill="none" id="AssignOrderUI-to-AssignOrderController" style="stroke:#181818;stroke-width:1.0;stroke-dasharray:7.0,7.0;"/><polygon fill="#181818" points="412,165.79,416,156.79,412,160.79,408,156.79,412,165.79" style="stroke:#181818;stroke-width:1.0;"/></g><!--MD5=[f87cec59ef899bfa07445af1dec5b80b]
link AssignOrderController to PersistenceContext--><g id="link_AssignOrderController_PersistenceContext"><path codeLine="58" d="M434.35,284.22 C448.53,321.15 466.45,367.84 478.73,399.82 " fill="none" id="AssignOrderController-to-PersistenceContext" style="stroke:#181818;stroke-width:1.0;stroke-dasharray:7.0,7.0;"/><polygon fill="#181818" points="480.65,404.83,481.1727,394.995,478.8647,400.1596,473.7001,397.8515,480.65,404.83" style="stroke:#181818;stroke-width:1.0;"/></g><!--MD5=[754b775031405e096442b27febffa290]
link PersistenceContext to RepositoryFactory--><g id="link_PersistenceContext_RepositoryFactory"><path codeLine="59" d="M494.22,471.22 C495.44,503.36 497.3,552.68 498.58,586.54 " fill="none" id="PersistenceContext-to-RepositoryFactory" style="stroke:#181818;stroke-width:1.0;stroke-dasharray:7.0,7.0;"/><polygon fill="#181818" points="498.78,591.83,502.4422,582.6873,498.5939,586.8335,494.4478,582.9851,498.78,591.83" style="stroke:#181818;stroke-width:1.0;"/></g><!--MD5=[1e897a22714a6b830b517dbc62a38d7f]
link RepositoryFactory to WarehouseRepository--><g id="link_RepositoryFactory_WarehouseRepository"><path codeLine="60" d="M500,658.39 C500,689.97 500,738.3 500,773.79 " fill="none" id="RepositoryFactory-to-WarehouseRepository" style="stroke:#181818;stroke-width:1.0;stroke-dasharray:7.0,7.0;"/><polygon fill="#181818" points="500,778.93,504,769.93,500,773.93,496,769.93,500,778.93" style="stroke:#181818;stroke-width:1.0;"/></g><!--MD5=[d05eaea78b8765320ad56e3795dd7d42]
link RepositoryFactory to AGVRepository--><g id="link_RepositoryFactory_AGVRepository"><path codeLine="61" d="M541.9,658.17 C583.74,690.3 648.36,739.92 694.88,775.64 " fill="none" id="RepositoryFactory-to-AGVRepository" style="stroke:#181818;stroke-width:1.0;stroke-dasharray:7.0,7.0;"/><polygon fill="#181818" points="699.05,778.84,694.3733,770.1723,695.0933,775.7832,689.4824,776.5031,699.05,778.84" style="stroke:#181818;stroke-width:1.0;"/></g><!--MD5=[cb8d5150214e6aa765a2f24f67e90a63]
link WarehouseRepository to Warehouse--><g id="link_WarehouseRepository_Warehouse"><path codeLine="62" d="M502.93,862.06 C505.4,896.15 508.9,944.47 511.3,977.62 " fill="none" id="WarehouseRepository-to-Warehouse" style="stroke:#181818;stroke-width:1.0;stroke-dasharray:7.0,7.0;"/><polygon fill="#181818" points="511.67,982.81,514.9923,973.5384,511.2996,977.8237,507.0143,974.1311,511.67,982.81" style="stroke:#181818;stroke-width:1.0;"/></g><!--MD5=[44c78d46300cbd445cde51c8cf6651a2]
link AGVRepository to AGV--><g id="link_AGVRepository_AGV"><path codeLine="63" d="M723.75,862.22 C671.97,936.84 562.66,1094.39 513.23,1165.64 " fill="none" id="AGVRepository-to-AGV" style="stroke:#181818;stroke-width:1.0;stroke-dasharray:7.0,7.0;"/><polygon fill="#181818" points="510.34,1169.79,518.7554,1164.6732,513.189,1165.6811,512.1811,1160.1148,510.34,1169.79" style="stroke:#181818;stroke-width:1.0;"/></g><!--MD5=[b0e0aad2e638ff9594c044bb94938609]
link AssignOrderController to Product_Order--><g id="link_AssignOrderController_Product_Order"><path codeLine="64" d="M389.65,284.17 C375.55,326.03 360,384.18 360,437 C360,437 360,437 360,821.5 C360,875.83 360,938.75 360,977.72 " fill="none" id="AssignOrderController-to-Product_Order" style="stroke:#181818;stroke-width:1.0;stroke-dasharray:7.0,7.0;"/><polygon fill="#181818" points="360,982.82,364,973.82,360,977.82,356,973.82,360,982.82" style="stroke:#181818;stroke-width:1.0;"/></g><!--MD5=[f0ec9a1b308eb15252144431beddb166]
link Product_Order to AGV--><g id="link_Product_Order_AGV"><path codeLine="65" d="M382.3,1049.22 C404.71,1081.62 439.22,1131.49 462.66,1165.37 " fill="none" id="Product_Order-to-AGV" style="stroke:#181818;stroke-width:1.0;stroke-dasharray:7.0,7.0;"/><polygon fill="#181818" points="465.75,1169.83,463.9246,1160.1518,462.9077,1165.7165,457.343,1164.6995,465.75,1169.83" style="stroke:#181818;stroke-width:1.0;"/></g><!--MD5=[35b0aa6f83a62e2d0b726cf6e0a1d6dc]
link Product_Order to Product_OrderDTOComplete--><g id="link_Product_Order_Product_OrderDTOComplete"><path codeLine="66" d="M320.2,1049.01 C275.61,1084.88 204.16,1142.35 162.69,1175.7 " fill="none" id="Product_Order-to-Product_OrderDTOComplete" style="stroke:#181818;stroke-width:1.0;stroke-dasharray:7.0,7.0;"/><polygon fill="#181818" points="158.78,1178.85,168.2987,1176.3214,162.6745,1175.7143,163.2816,1170.0901,158.78,1178.85" style="stroke:#181818;stroke-width:1.0;"/></g><!--MD5=[017f486ad2181786ebb2bc92c68ed586]
@startuml
skinparam classAttributeIconSize 0

package "Presentation"{
class AssignOrderUI
}

package "Application"{
class AssignOrderController{
+List<Product_OrderDTOComplete> getOrdersToBePrepared()
-List<Product_OrderDTOComplete> toDTOOrder( List<Product_Order> list)
+List<AGVDTO> getAGVAvailable(Product_OrderDTOComplete orderDTOComplete)
-List<AGVDTO> toDTOAGV(List<AGV> list)
}
}

package "DTO"{
class Product_OrderDTOComplete{
}
}


package "Domain"{
class AGV{
+toDTO()
}
class Product_Order{
+toDTOComplete()
}
class Warehouse{
+getOrders()
}
}


package "Persistence"{
class PersistenceContext{
+repositories()
}
}

package "Factory"{
class RepositoryFactory{
+create()
}
}

package "Repository"{
class WarehouseRepository{
+create()
+findAllWarehouses()
}
class AGVRepository{
+create()
+findAbleAGVs(totalweight,totalvolume)
}
}
AssignOrderUI .-> AssignOrderController
AssignOrderController .- -> PersistenceContext
PersistenceContext .- -> RepositoryFactory
RepositoryFactory .- -> WarehouseRepository
RepositoryFactory .- -> AGVRepository
WarehouseRepository .- -> Warehouse
AGVRepository .- -> AGV
AssignOrderController .- -> Product_Order
Product_Order .- -> AGV
Product_Order .- -> Product_OrderDTOComplete

@enduml

PlantUML version 1.2022.4(Sat Apr 09 14:29:17 BST 2022)
(GPL source distribution)
Java Runtime: OpenJDK Runtime Environment
JVM: OpenJDK 64-Bit Server VM
Default Encoding: Cp1252
Language: pt
Country: PT
--></g></svg>