<?xml version="1.0" encoding="UTF-8" standalone="no"?><svg xmlns="http://www.w3.org/2000/svg" xmlns:xlink="http://www.w3.org/1999/xlink" contentStyleType="text/css" height="725px" preserveAspectRatio="none" style="width:590px;height:725px;background:#FFFFFF;" version="1.1" viewBox="0 0 590 725" width="590px" zoomAndPan="magnify"><defs/><g><rect fill="#FFFFFF" height="525.3281" style="stroke:#181818;stroke-width:1.0;" width="10" x="85.5" y="92.6094"/><rect fill="#FFFFFF" height="30.3516" style="stroke:#181818;stroke-width:1.0;" width="10" x="516.5" y="114.9609"/><rect fill="#FFFFFF" height="30.3516" style="stroke:#181818;stroke-width:1.0;" width="10" x="516.5" y="201.0156"/><rect fill="#FFFFFF" height="30.3516" style="stroke:#181818;stroke-width:1.0;" width="10" x="516.5" y="261.7188"/><rect fill="#FFFFFF" height="46.7031" style="stroke:#181818;stroke-width:1.0;" width="10" x="516.5" y="324.4219"/><rect fill="#FFFFFF" height="55.7031" style="stroke:#181818;stroke-width:1.0;" width="10" x="516.5" y="401.4766"/><rect fill="#FFFFFF" height="55.7031" style="stroke:#181818;stroke-width:1.0;" width="10" x="516.5" y="487.5313"/><rect fill="#FFFFFF" height="44.3516" style="stroke:#181818;stroke-width:1.0;" width="10" x="516.5" y="573.5859"/><rect height="465.625" style="stroke:#000000;stroke-width:1.5;fill:none;" width="573.5" x="10" y="160.3125"/><rect height="172.1094" style="stroke:#000000;stroke-width:1.5;fill:none;" width="553.5" x="20" y="416.4766"/><rect height="79.0547" style="stroke:#000000;stroke-width:1.5;fill:none;" width="533.5" x="30" y="502.5313"/><line style="stroke:#181818;stroke-width:0.5;fill:none;stroke-dasharray:5.0,5.0;" x1="90" x2="90" y1="82.6094" y2="642.9375"/><line style="stroke:#181818;stroke-width:0.5;fill:none;stroke-dasharray:5.0,5.0;" x1="521.5" x2="521.5" y1="82.6094" y2="642.9375"/><text fill="#000000" font-family="sans-serif" font-size="14" lengthAdjust="spacing" textLength="95" x="40" y="79.5332">Sales Manager</text><ellipse cx="90.5" cy="13.5" fill="#E2E2F0" rx="8" ry="8" style="stroke:#181818;stroke-width:0.5;"/><path d="M90.5,21.5 L90.5,48.5 M77.5,29.5 L103.5,29.5 M90.5,48.5 L77.5,63.5 M90.5,48.5 L103.5,63.5 " fill="none" style="stroke:#181818;stroke-width:0.5;"/><text fill="#000000" font-family="sans-serif" font-size="14" lengthAdjust="spacing" textLength="95" x="40" y="656.4707">Sales Manager</text><ellipse cx="90.5" cy="668.0469" fill="#E2E2F0" rx="8" ry="8" style="stroke:#181818;stroke-width:0.5;"/><path d="M90.5,676.0469 L90.5,703.0469 M77.5,684.0469 L103.5,684.0469 M90.5,703.0469 L77.5,718.0469 M90.5,703.0469 L103.5,718.0469 " fill="none" style="stroke:#181818;stroke-width:0.5;"/><rect fill="#E2E2F0" height="31.6094" rx="2.5" ry="2.5" style="stroke:#181818;stroke-width:0.5;" width="64" x="489.5" y="50"/><text fill="#000000" font-family="sans-serif" font-size="14" lengthAdjust="spacing" textLength="50" x="496.5" y="71.5332">:System</text><rect fill="#E2E2F0" height="31.6094" rx="2.5" ry="2.5" style="stroke:#181818;stroke-width:0.5;" width="64" x="489.5" y="641.9375"/><text fill="#000000" font-family="sans-serif" font-size="14" lengthAdjust="spacing" textLength="50" x="496.5" y="663.4707">:System</text><rect fill="#FFFFFF" height="525.3281" style="stroke:#181818;stroke-width:1.0;" width="10" x="85.5" y="92.6094"/><rect fill="#FFFFFF" height="30.3516" style="stroke:#181818;stroke-width:1.0;" width="10" x="516.5" y="114.9609"/><rect fill="#FFFFFF" height="30.3516" style="stroke:#181818;stroke-width:1.0;" width="10" x="516.5" y="201.0156"/><rect fill="#FFFFFF" height="30.3516" style="stroke:#181818;stroke-width:1.0;" width="10" x="516.5" y="261.7188"/><rect fill="#FFFFFF" height="46.7031" style="stroke:#181818;stroke-width:1.0;" width="10" x="516.5" y="324.4219"/><rect fill="#FFFFFF" height="55.7031" style="stroke:#181818;stroke-width:1.0;" width="10" x="516.5" y="401.4766"/><rect fill="#FFFFFF" height="55.7031" style="stroke:#181818;stroke-width:1.0;" width="10" x="516.5" y="487.5313"/><rect fill="#FFFFFF" height="44.3516" style="stroke:#181818;stroke-width:1.0;" width="10" x="516.5" y="573.5859"/><polygon fill="#181818" points="504.5,110.9609,514.5,114.9609,504.5,118.9609,508.5,114.9609" style="stroke:#181818;stroke-width:1.0;"/><line style="stroke:#181818;stroke-width:1.0;" x1="95.5" x2="510.5" y1="114.9609" y2="114.9609"/><text fill="#000000" font-family="sans-serif" font-size="13" font-weight="bold" lengthAdjust="spacing" textLength="7" x="102.5" y="110.1045">1</text><text fill="#000000" font-family="sans-serif" font-size="13" lengthAdjust="spacing" textLength="175" x="113.5" y="110.1045">I want to register a new survey</text><polygon fill="#181818" points="106.5,141.3125,96.5,145.3125,106.5,149.3125,102.5,145.3125" style="stroke:#181818;stroke-width:1.0;"/><line style="stroke:#181818;stroke-width:1.0;stroke-dasharray:2.0,2.0;" x1="100.5" x2="520.5" y1="145.3125" y2="145.3125"/><text fill="#000000" font-family="sans-serif" font-size="13" font-weight="bold" lengthAdjust="spacing" textLength="7" x="112.5" y="140.4561">2</text><text fill="#000000" font-family="sans-serif" font-size="13" lengthAdjust="spacing" textLength="327" x="123.5" y="140.4561">asks to select if he want to put a file or register manually</text><path d="M10,160.3125 L71,160.3125 L71,168.6641 L61,178.6641 L10,178.6641 L10,160.3125 " fill="#EEEEEE" style="stroke:#000000;stroke-width:1.5;"/><rect fill="none" height="465.625" style="stroke:#000000;stroke-width:1.5;" width="573.5" x="10" y="160.3125"/><text fill="#000000" font-family="sans-serif" font-size="13" font-weight="bold" lengthAdjust="spacing" textLength="16" x="25" y="174.8076">alt</text><text fill="#000000" font-family="sans-serif" font-size="11" font-weight="bold" lengthAdjust="spacing" textLength="69" x="86" y="173.7314">[choose file]</text><polygon fill="#181818" points="504.5,197.0156,514.5,201.0156,504.5,205.0156,508.5,201.0156" style="stroke:#181818;stroke-width:1.0;"/><line style="stroke:#181818;stroke-width:1.0;" x1="95.5" x2="510.5" y1="201.0156" y2="201.0156"/><text fill="#000000" font-family="sans-serif" font-size="13" font-weight="bold" lengthAdjust="spacing" textLength="7" x="102.5" y="196.1592">3</text><text fill="#000000" font-family="sans-serif" font-size="13" lengthAdjust="spacing" textLength="125" x="113.5" y="196.1592">select requested data</text><polygon fill="#181818" points="106.5,227.3672,96.5,231.3672,106.5,235.3672,102.5,231.3672" style="stroke:#181818;stroke-width:1.0;"/><line style="stroke:#181818;stroke-width:1.0;stroke-dasharray:2.0,2.0;" x1="100.5" x2="520.5" y1="231.3672" y2="231.3672"/><text fill="#000000" font-family="sans-serif" font-size="13" font-weight="bold" lengthAdjust="spacing" textLength="7" x="112.5" y="226.5107">4</text><text fill="#000000" font-family="sans-serif" font-size="13" lengthAdjust="spacing" textLength="183" x="123.5" y="226.5107">asks to enter the path of the file</text><polygon fill="#181818" points="504.5,257.7188,514.5,261.7188,504.5,265.7188,508.5,261.7188" style="stroke:#181818;stroke-width:1.0;"/><line style="stroke:#181818;stroke-width:1.0;" x1="95.5" x2="510.5" y1="261.7188" y2="261.7188"/><text fill="#000000" font-family="sans-serif" font-size="13" font-weight="bold" lengthAdjust="spacing" textLength="7" x="102.5" y="256.8623">5</text><text fill="#000000" font-family="sans-serif" font-size="13" lengthAdjust="spacing" textLength="119" x="113.5" y="256.8623">enter requested data</text><polygon fill="#181818" points="106.5,288.0703,96.5,292.0703,106.5,296.0703,102.5,292.0703" style="stroke:#181818;stroke-width:1.0;"/><line style="stroke:#181818;stroke-width:1.0;stroke-dasharray:2.0,2.0;" x1="100.5" x2="520.5" y1="292.0703" y2="292.0703"/><text fill="#000000" font-family="sans-serif" font-size="13" font-weight="bold" lengthAdjust="spacing" textLength="7" x="112.5" y="287.2139">6</text><text fill="#000000" font-family="sans-serif" font-size="13" lengthAdjust="spacing" textLength="152" x="123.5" y="287.2139">informs operation success</text><line style="stroke:#000000;stroke-width:1.0;stroke-dasharray:2.0,2.0;" x1="10" x2="583.5" y1="301.0703" y2="301.0703"/><polygon fill="#181818" points="504.5,320.4219,514.5,324.4219,504.5,328.4219,508.5,324.4219" style="stroke:#181818;stroke-width:1.0;"/><line style="stroke:#181818;stroke-width:1.0;" x1="95.5" x2="510.5" y1="324.4219" y2="324.4219"/><text fill="#000000" font-family="sans-serif" font-size="13" font-weight="bold" lengthAdjust="spacing" textLength="7" x="102.5" y="319.5654">7</text><text fill="#000000" font-family="sans-serif" font-size="13" lengthAdjust="spacing" textLength="125" x="113.5" y="319.5654">select requested data</text><polygon fill="#181818" points="106.5,367.125,96.5,371.125,106.5,375.125,102.5,371.125" style="stroke:#181818;stroke-width:1.0;"/><line style="stroke:#181818;stroke-width:1.0;stroke-dasharray:2.0,2.0;" x1="100.5" x2="520.5" y1="371.125" y2="371.125"/><text fill="#000000" font-family="sans-serif" font-size="13" font-weight="bold" lengthAdjust="spacing" textLength="7" x="112.5" y="358.0928">8</text><text fill="#000000" font-family="sans-serif" font-size="13" lengthAdjust="spacing" textLength="269" x="123.5" y="349.917">asks to type data (id,description,num of days ,</text><text fill="#000000" font-family="sans-serif" font-size="13" lengthAdjust="spacing" textLength="162" x="123.5" y="366.2686">title and welcome message)</text><polygon fill="#181818" points="504.5,397.4766,514.5,401.4766,504.5,405.4766,508.5,401.4766" style="stroke:#181818;stroke-width:1.0;"/><line style="stroke:#181818;stroke-width:1.0;stroke-dasharray:2.0,2.0;" x1="95.5" x2="510.5" y1="401.4766" y2="401.4766"/><text fill="#000000" font-family="sans-serif" font-size="13" font-weight="bold" lengthAdjust="spacing" textLength="7" x="102.5" y="396.6201">9</text><text fill="#000000" font-family="sans-serif" font-size="13" lengthAdjust="spacing" textLength="122" x="113.5" y="396.6201">types requested data</text><path d="M20,416.4766 L93,416.4766 L93,424.8281 L83,434.8281 L20,434.8281 L20,416.4766 " fill="#EEEEEE" style="stroke:#000000;stroke-width:1.5;"/><rect fill="none" height="172.1094" style="stroke:#000000;stroke-width:1.5;" width="553.5" x="20" y="416.4766"/><text fill="#000000" font-family="sans-serif" font-size="13" font-weight="bold" lengthAdjust="spacing" textLength="28" x="35" y="430.9717">loop</text><text fill="#000000" font-family="sans-serif" font-size="11" font-weight="bold" lengthAdjust="spacing" textLength="228" x="108" y="429.8955">[while the user wants to create sections]</text><polygon fill="#181818" points="106.5,453.1797,96.5,457.1797,106.5,461.1797,102.5,457.1797" style="stroke:#181818;stroke-width:1.0;"/><line style="stroke:#181818;stroke-width:1.0;stroke-dasharray:2.0,2.0;" x1="100.5" x2="520.5" y1="457.1797" y2="457.1797"/><text fill="#000000" font-family="sans-serif" font-size="13" font-weight="bold" lengthAdjust="spacing" textLength="14" x="112.5" y="452.3232">10</text><text fill="#000000" font-family="sans-serif" font-size="13" lengthAdjust="spacing" textLength="379" x="130.5" y="452.3232">asks to type requested data (section title and section description)</text><polygon fill="#181818" points="504.5,483.5313,514.5,487.5313,504.5,491.5313,508.5,487.5313" style="stroke:#181818;stroke-width:1.0;"/><line style="stroke:#181818;stroke-width:1.0;stroke-dasharray:2.0,2.0;" x1="95.5" x2="510.5" y1="487.5313" y2="487.5313"/><text fill="#000000" font-family="sans-serif" font-size="13" font-weight="bold" lengthAdjust="spacing" textLength="14" x="102.5" y="482.6748">11</text><text fill="#000000" font-family="sans-serif" font-size="13" lengthAdjust="spacing" textLength="115" x="120.5" y="482.6748">type requested data</text><path d="M30,502.5313 L103,502.5313 L103,510.8828 L93,520.8828 L30,520.8828 L30,502.5313 " fill="#EEEEEE" style="stroke:#000000;stroke-width:1.5;"/><rect fill="none" height="79.0547" style="stroke:#000000;stroke-width:1.5;" width="533.5" x="30" y="502.5313"/><text fill="#000000" font-family="sans-serif" font-size="13" font-weight="bold" lengthAdjust="spacing" textLength="28" x="45" y="517.0264">loop</text><text fill="#000000" font-family="sans-serif" font-size="11" font-weight="bold" lengthAdjust="spacing" textLength="236" x="118" y="515.9502">[while the user wants to create questions]</text><polygon fill="#181818" points="106.5,539.2344,96.5,543.2344,106.5,547.2344,102.5,543.2344" style="stroke:#181818;stroke-width:1.0;"/><line style="stroke:#181818;stroke-width:1.0;stroke-dasharray:2.0,2.0;" x1="100.5" x2="520.5" y1="543.2344" y2="543.2344"/><text fill="#000000" font-family="sans-serif" font-size="13" font-weight="bold" lengthAdjust="spacing" textLength="14" x="112.5" y="538.3779">12</text><text fill="#000000" font-family="sans-serif" font-size="13" lengthAdjust="spacing" textLength="340" x="130.5" y="538.3779">asks to select the question type and requests needed data</text><polygon fill="#181818" points="504.5,569.5859,514.5,573.5859,504.5,577.5859,508.5,573.5859" style="stroke:#181818;stroke-width:1.0;"/><line style="stroke:#181818;stroke-width:1.0;stroke-dasharray:2.0,2.0;" x1="95.5" x2="510.5" y1="573.5859" y2="573.5859"/><text fill="#000000" font-family="sans-serif" font-size="13" font-weight="bold" lengthAdjust="spacing" textLength="14" x="102.5" y="568.7295">13</text><text fill="#000000" font-family="sans-serif" font-size="13" lengthAdjust="spacing" textLength="215" x="120.5" y="568.7295">selects and types the requested data</text><polygon fill="#181818" points="101.5,613.9375,91.5,617.9375,101.5,621.9375,97.5,617.9375" style="stroke:#181818;stroke-width:1.0;"/><line style="stroke:#181818;stroke-width:1.0;stroke-dasharray:2.0,2.0;" x1="95.5" x2="520.5" y1="617.9375" y2="617.9375"/><text fill="#000000" font-family="sans-serif" font-size="13" font-weight="bold" lengthAdjust="spacing" textLength="14" x="107.5" y="613.0811">14</text><text fill="#000000" font-family="sans-serif" font-size="13" lengthAdjust="spacing" textLength="152" x="125.5" y="613.0811">informs operation success</text><!--MD5=[31dd5a7a3ff6e0e1abb8f798b8ba7eb4]
@startuml
actor "Sales Manager" as SM
participant ":System" as System

autonumber
activate SM
SM -> System: I want to register a new survey
activate System
System - -> SM: asks to select if he want to put a file or register manually
deactivate System
alt choose file
SM -> System: select requested data
activate System
System - -> SM: asks to enter the path of the file
deactivate System
SM -> System: enter requested data
activate System
System - -> SM: informs operation success
deactivate System

else
SM -> System: select requested data
activate System
System - -> SM: asks to type data (id,description,num of days ,\ntitle and welcome message)
deactivate System
SM - -> System : types requested data
activate System
loop while the user wants to create sections
System - -> SM : asks to type requested data (section title and section description)
deactivate System
SM - -> System : type requested data
activate System
loop while the user wants to create questions
System - -> SM : asks to select the question type and requests needed data
deactivate System
SM - -> System : selects and types the requested data
activate System
end
end
System - -> SM: informs operation success
deactivate System
deactivate SM
end



@enduml

PlantUML version 1.2022.4(Sat Apr 09 14:29:17 BST 2022)
(GPL source distribution)
Java Runtime: OpenJDK Runtime Environment
JVM: OpenJDK 64-Bit Server VM
Default Encoding: Cp1252
Language: pt
Country: PT
--></g></svg>