<?xml version="1.0" encoding="UTF-8" standalone="no"?><svg xmlns="http://www.w3.org/2000/svg" xmlns:xlink="http://www.w3.org/1999/xlink" contentStyleType="text/css" height="1523px" preserveAspectRatio="none" style="width:2243px;height:1523px;background:#FFFFFF;" version="1.1" viewBox="0 0 2243 1523" width="2243px" zoomAndPan="magnify"><defs/><g><rect fill="#FFFFFF" height="1323.75" style="stroke:#181818;stroke-width:1.0;" width="10" x="85.5" y="92.6094"/><rect fill="#FFFFFF" height="30.3516" style="stroke:#181818;stroke-width:1.0;" width="10" x="516.5" y="114.9609"/><rect fill="#FFFFFF" height="30.3516" style="stroke:#181818;stroke-width:1.0;" width="10" x="516.5" y="201.0156"/><rect fill="#FFFFFF" height="439.9609" style="stroke:#181818;stroke-width:1.0;" width="10" x="516.5" y="261.7188"/><rect fill="#FFFFFF" height="46.7031" style="stroke:#181818;stroke-width:1.0;" width="10" x="516.5" y="734.0313"/><rect fill="#FFFFFF" height="55.7031" style="stroke:#181818;stroke-width:1.0;" width="10" x="516.5" y="811.0859"/><rect fill="#FFFFFF" height="159.4063" style="stroke:#181818;stroke-width:1.0;" width="10" x="516.5" y="897.1406"/><rect fill="#FFFFFF" height="329.4609" style="stroke:#181818;stroke-width:1.0;" width="10" x="516.5" y="1086.8984"/><rect fill="#FFFFFF" height="197.8516" style="stroke:#181818;stroke-width:1.0;" width="10" x="1158.5" y="292.0703"/><rect fill="#FFFFFF" height="151.0547" style="stroke:#181818;stroke-width:1.0;" width="10" x="1158.5" y="520.2734"/><rect fill="#FFFFFF" height="151.0547" style="stroke:#181818;stroke-width:1.0;" width="10" x="1158.5" y="1234.9531"/><rect fill="#FFFFFF" height="76.7969" style="stroke:#181818;stroke-width:1.0;" width="10" x="1327" y="322.4219"/><rect fill="#FFFFFF" height="30" style="stroke:#181818;stroke-width:1.0;" width="10" x="1589.5" y="429.5703"/><rect fill="#FFFFFF" height="30" style="stroke:#181818;stroke-width:1.0;" width="10" x="1703" y="610.9766"/><rect fill="#FFFFFF" height="30" style="stroke:#181818;stroke-width:1.0;" width="10" x="1703" y="1325.6563"/><rect fill="#FFFFFF" height="30" style="stroke:#181818;stroke-width:1.0;" width="10" x="1830" y="550.625"/><rect fill="#FFFFFF" height="30" style="stroke:#181818;stroke-width:1.0;" width="10" x="1830" y="1265.3047"/><rect fill="#FFFFFF" height="30" style="stroke:#181818;stroke-width:1.0;" width="10" x="1977" y="927.4922"/><rect fill="#FFFFFF" height="30" style="stroke:#181818;stroke-width:1.0;" width="10" x="2136.5" y="1117.25"/><rect height="1264.0469" style="stroke:#000000;stroke-width:1.5;fill:none;" width="2226" x="10" y="160.3125"/><rect height="379.5156" style="stroke:#000000;stroke-width:1.5;fill:none;" width="2206" x="20" y="826.0859"/><rect height="182.7578" style="stroke:#000000;stroke-width:1.5;fill:none;" width="2186" x="30" y="1015.8438"/><line style="stroke:#181818;stroke-width:0.5;fill:none;stroke-dasharray:5.0,5.0;" x1="90" x2="90" y1="82.6094" y2="1441.3594"/><line style="stroke:#181818;stroke-width:0.5;fill:none;stroke-dasharray:5.0,5.0;" x1="521" x2="521" y1="82.6094" y2="1441.3594"/><line style="stroke:#181818;stroke-width:0.5;fill:none;stroke-dasharray:5.0,5.0;" x1="1163" x2="1163" y1="82.6094" y2="1441.3594"/><line style="stroke:#181818;stroke-width:0.5;fill:none;stroke-dasharray:5.0,5.0;" x1="1332" x2="1332" y1="82.6094" y2="1441.3594"/><line style="stroke:#181818;stroke-width:0.5;fill:none;stroke-dasharray:5.0,5.0;" x1="1479" x2="1479" y1="82.6094" y2="1441.3594"/><line style="stroke:#181818;stroke-width:0.5;fill:none;stroke-dasharray:5.0,5.0;" x1="1594" x2="1594" y1="82.6094" y2="1441.3594"/><line style="stroke:#181818;stroke-width:0.5;fill:none;stroke-dasharray:5.0,5.0;" x1="1708" x2="1708" y1="82.6094" y2="1441.3594"/><line style="stroke:#181818;stroke-width:0.5;fill:none;stroke-dasharray:5.0,5.0;" x1="1835" x2="1835" y1="82.6094" y2="1441.3594"/><line style="stroke:#181818;stroke-width:0.5;fill:none;stroke-dasharray:5.0,5.0;" x1="1982" x2="1982" y1="82.6094" y2="1441.3594"/><line style="stroke:#181818;stroke-width:0.5;fill:none;stroke-dasharray:5.0,5.0;" x1="2141" x2="2141" y1="82.6094" y2="1441.3594"/><text fill="#000000" font-family="sans-serif" font-size="14" lengthAdjust="spacing" textLength="95" x="40" y="79.5332">Sales Manager</text><ellipse cx="90.5" cy="13.5" fill="#E2E2F0" rx="8" ry="8" style="stroke:#181818;stroke-width:0.5;"/><path d="M90.5,21.5 L90.5,48.5 M77.5,29.5 L103.5,29.5 M90.5,48.5 L77.5,63.5 M90.5,48.5 L103.5,63.5 " fill="none" style="stroke:#181818;stroke-width:0.5;"/><text fill="#000000" font-family="sans-serif" font-size="14" lengthAdjust="spacing" textLength="95" x="40" y="1454.8926">Sales Manager</text><ellipse cx="90.5" cy="1466.4688" fill="#E2E2F0" rx="8" ry="8" style="stroke:#181818;stroke-width:0.5;"/><path d="M90.5,1474.4688 L90.5,1501.4688 M77.5,1482.4688 L103.5,1482.4688 M90.5,1501.4688 L77.5,1516.4688 M90.5,1501.4688 L103.5,1516.4688 " fill="none" style="stroke:#181818;stroke-width:0.5;"/><rect fill="#E2E2F0" height="31.6094" rx="2.5" ry="2.5" style="stroke:#181818;stroke-width:0.5;" width="127" x="458" y="50"/><text fill="#000000" font-family="sans-serif" font-size="14" lengthAdjust="spacing" textLength="113" x="465" y="71.5332">:RegisterSurveyUI</text><rect fill="#E2E2F0" height="31.6094" rx="2.5" ry="2.5" style="stroke:#181818;stroke-width:0.5;" width="127" x="458" y="1440.3594"/><text fill="#000000" font-family="sans-serif" font-size="14" lengthAdjust="spacing" textLength="113" x="465" y="1461.8926">:RegisterSurveyUI</text><rect fill="#E2E2F0" height="31.6094" rx="2.5" ry="2.5" style="stroke:#181818;stroke-width:0.5;" width="177" x="1075" y="50"/><text fill="#000000" font-family="sans-serif" font-size="14" lengthAdjust="spacing" textLength="163" x="1082" y="71.5332">:RegisterSurveyController</text><rect fill="#E2E2F0" height="31.6094" rx="2.5" ry="2.5" style="stroke:#181818;stroke-width:0.5;" width="177" x="1075" y="1440.3594"/><text fill="#000000" font-family="sans-serif" font-size="14" lengthAdjust="spacing" textLength="163" x="1082" y="1461.8926">:RegisterSurveyController</text><rect fill="#E2E2F0" height="31.6094" rx="2.5" ry="2.5" style="stroke:#181818;stroke-width:0.5;" width="140" x="1262" y="50"/><text fill="#000000" font-family="sans-serif" font-size="14" lengthAdjust="spacing" textLength="126" x="1269" y="71.5332">:PersistenceContext</text><rect fill="#E2E2F0" height="31.6094" rx="2.5" ry="2.5" style="stroke:#181818;stroke-width:0.5;" width="140" x="1262" y="1440.3594"/><text fill="#000000" font-family="sans-serif" font-size="14" lengthAdjust="spacing" textLength="126" x="1269" y="1461.8926">:PersistenceContext</text><rect fill="#E2E2F0" height="31.6094" rx="2.5" ry="2.5" style="stroke:#181818;stroke-width:0.5;" width="134" x="1412" y="50"/><text fill="#000000" font-family="sans-serif" font-size="14" lengthAdjust="spacing" textLength="120" x="1419" y="71.5332">:RepositoryFactory</text><rect fill="#E2E2F0" height="31.6094" rx="2.5" ry="2.5" style="stroke:#181818;stroke-width:0.5;" width="134" x="1412" y="1440.3594"/><text fill="#000000" font-family="sans-serif" font-size="14" lengthAdjust="spacing" textLength="120" x="1419" y="1461.8926">:RepositoryFactory</text><rect fill="#E2E2F0" height="31.6094" rx="2.5" ry="2.5" style="stroke:#181818;stroke-width:0.5;" width="77" x="1556" y="50"/><text fill="#000000" font-family="sans-serif" font-size="14" lengthAdjust="spacing" textLength="63" x="1563" y="71.5332">:Grammar</text><rect fill="#E2E2F0" height="31.6094" rx="2.5" ry="2.5" style="stroke:#181818;stroke-width:0.5;" width="77" x="1556" y="1440.3594"/><text fill="#000000" font-family="sans-serif" font-size="14" lengthAdjust="spacing" textLength="63" x="1563" y="1461.8926">:Grammar</text><rect fill="#E2E2F0" height="31.6094" rx="2.5" ry="2.5" style="stroke:#181818;stroke-width:0.5;" width="130" x="1643" y="50"/><text fill="#000000" font-family="sans-serif" font-size="14" lengthAdjust="spacing" textLength="116" x="1650" y="71.5332">:SurveyRepository</text><rect fill="#E2E2F0" height="31.6094" rx="2.5" ry="2.5" style="stroke:#181818;stroke-width:0.5;" width="130" x="1643" y="1440.3594"/><text fill="#000000" font-family="sans-serif" font-size="14" lengthAdjust="spacing" textLength="116" x="1650" y="1461.8926">:SurveyRepository</text><rect fill="#E2E2F0" height="31.6094" rx="2.5" ry="2.5" style="stroke:#181818;stroke-width:0.5;" width="104" x="1783" y="50"/><text fill="#000000" font-family="sans-serif" font-size="14" lengthAdjust="spacing" textLength="90" x="1790" y="71.5332">survey:Survey</text><rect fill="#E2E2F0" height="31.6094" rx="2.5" ry="2.5" style="stroke:#181818;stroke-width:0.5;" width="104" x="1783" y="1440.3594"/><text fill="#000000" font-family="sans-serif" font-size="14" lengthAdjust="spacing" textLength="90" x="1790" y="1461.8926">survey:Survey</text><rect fill="#E2E2F0" height="31.6094" rx="2.5" ry="2.5" style="stroke:#181818;stroke-width:0.5;" width="170" x="1897" y="50"/><text fill="#000000" font-family="sans-serif" font-size="14" lengthAdjust="spacing" textLength="156" x="1904" y="71.5332">sectionDTO:SectionDTO</text><rect fill="#E2E2F0" height="31.6094" rx="2.5" ry="2.5" style="stroke:#181818;stroke-width:0.5;" width="170" x="1897" y="1440.3594"/><text fill="#000000" font-family="sans-serif" font-size="14" lengthAdjust="spacing" textLength="156" x="1904" y="1461.8926">sectionDTO:SectionDTO</text><rect fill="#E2E2F0" height="31.6094" rx="2.5" ry="2.5" style="stroke:#181818;stroke-width:0.5;" width="129" x="2077" y="50"/><text fill="#000000" font-family="sans-serif" font-size="14" lengthAdjust="spacing" textLength="115" x="2084" y="71.5332">question:Question</text><rect fill="#E2E2F0" height="31.6094" rx="2.5" ry="2.5" style="stroke:#181818;stroke-width:0.5;" width="129" x="2077" y="1440.3594"/><text fill="#000000" font-family="sans-serif" font-size="14" lengthAdjust="spacing" textLength="115" x="2084" y="1461.8926">question:Question</text><rect fill="#FFFFFF" height="1323.75" style="stroke:#181818;stroke-width:1.0;" width="10" x="85.5" y="92.6094"/><rect fill="#FFFFFF" height="30.3516" style="stroke:#181818;stroke-width:1.0;" width="10" x="516.5" y="114.9609"/><rect fill="#FFFFFF" height="30.3516" style="stroke:#181818;stroke-width:1.0;" width="10" x="516.5" y="201.0156"/><rect fill="#FFFFFF" height="439.9609" style="stroke:#181818;stroke-width:1.0;" width="10" x="516.5" y="261.7188"/><rect fill="#FFFFFF" height="46.7031" style="stroke:#181818;stroke-width:1.0;" width="10" x="516.5" y="734.0313"/><rect fill="#FFFFFF" height="55.7031" style="stroke:#181818;stroke-width:1.0;" width="10" x="516.5" y="811.0859"/><rect fill="#FFFFFF" height="159.4063" style="stroke:#181818;stroke-width:1.0;" width="10" x="516.5" y="897.1406"/><rect fill="#FFFFFF" height="329.4609" style="stroke:#181818;stroke-width:1.0;" width="10" x="516.5" y="1086.8984"/><rect fill="#FFFFFF" height="197.8516" style="stroke:#181818;stroke-width:1.0;" width="10" x="1158.5" y="292.0703"/><rect fill="#FFFFFF" height="151.0547" style="stroke:#181818;stroke-width:1.0;" width="10" x="1158.5" y="520.2734"/><rect fill="#FFFFFF" height="151.0547" style="stroke:#181818;stroke-width:1.0;" width="10" x="1158.5" y="1234.9531"/><rect fill="#FFFFFF" height="76.7969" style="stroke:#181818;stroke-width:1.0;" width="10" x="1327" y="322.4219"/><rect fill="#FFFFFF" height="30" style="stroke:#181818;stroke-width:1.0;" width="10" x="1589.5" y="429.5703"/><rect fill="#FFFFFF" height="30" style="stroke:#181818;stroke-width:1.0;" width="10" x="1703" y="610.9766"/><rect fill="#FFFFFF" height="30" style="stroke:#181818;stroke-width:1.0;" width="10" x="1703" y="1325.6563"/><rect fill="#FFFFFF" height="30" style="stroke:#181818;stroke-width:1.0;" width="10" x="1830" y="550.625"/><rect fill="#FFFFFF" height="30" style="stroke:#181818;stroke-width:1.0;" width="10" x="1830" y="1265.3047"/><rect fill="#FFFFFF" height="30" style="stroke:#181818;stroke-width:1.0;" width="10" x="1977" y="927.4922"/><rect fill="#FFFFFF" height="30" style="stroke:#181818;stroke-width:1.0;" width="10" x="2136.5" y="1117.25"/><polygon fill="#181818" points="504.5,110.9609,514.5,114.9609,504.5,118.9609,508.5,114.9609" style="stroke:#181818;stroke-width:1.0;"/><line style="stroke:#181818;stroke-width:1.0;" x1="95.5" x2="510.5" y1="114.9609" y2="114.9609"/><text fill="#000000" font-family="sans-serif" font-size="13" font-weight="bold" lengthAdjust="spacing" textLength="7" x="102.5" y="110.1045">1</text><text fill="#000000" font-family="sans-serif" font-size="13" lengthAdjust="spacing" textLength="175" x="113.5" y="110.1045">I want to register a new survey</text><polygon fill="#181818" points="106.5,141.3125,96.5,145.3125,106.5,149.3125,102.5,145.3125" style="stroke:#181818;stroke-width:1.0;"/><line style="stroke:#181818;stroke-width:1.0;stroke-dasharray:2.0,2.0;" x1="100.5" x2="520.5" y1="145.3125" y2="145.3125"/><text fill="#000000" font-family="sans-serif" font-size="13" font-weight="bold" lengthAdjust="spacing" textLength="7" x="112.5" y="140.4561">2</text><text fill="#000000" font-family="sans-serif" font-size="13" lengthAdjust="spacing" textLength="327" x="123.5" y="140.4561">asks to select if he want to put a file or register manually</text><path d="M10,160.3125 L71,160.3125 L71,168.6641 L61,178.6641 L10,178.6641 L10,160.3125 " fill="#EEEEEE" style="stroke:#000000;stroke-width:1.5;"/><rect fill="none" height="1264.0469" style="stroke:#000000;stroke-width:1.5;" width="2226" x="10" y="160.3125"/><text fill="#000000" font-family="sans-serif" font-size="13" font-weight="bold" lengthAdjust="spacing" textLength="16" x="25" y="174.8076">alt</text><text fill="#000000" font-family="sans-serif" font-size="11" font-weight="bold" lengthAdjust="spacing" textLength="69" x="86" y="173.7314">[choose file]</text><polygon fill="#181818" points="504.5,197.0156,514.5,201.0156,504.5,205.0156,508.5,201.0156" style="stroke:#181818;stroke-width:1.0;"/><line style="stroke:#181818;stroke-width:1.0;" x1="95.5" x2="510.5" y1="201.0156" y2="201.0156"/><text fill="#000000" font-family="sans-serif" font-size="13" font-weight="bold" lengthAdjust="spacing" textLength="7" x="102.5" y="196.1592">3</text><text fill="#000000" font-family="sans-serif" font-size="13" lengthAdjust="spacing" textLength="125" x="113.5" y="196.1592">select requested data</text><polygon fill="#181818" points="106.5,227.3672,96.5,231.3672,106.5,235.3672,102.5,231.3672" style="stroke:#181818;stroke-width:1.0;"/><line style="stroke:#181818;stroke-width:1.0;stroke-dasharray:2.0,2.0;" x1="100.5" x2="520.5" y1="231.3672" y2="231.3672"/><text fill="#000000" font-family="sans-serif" font-size="13" font-weight="bold" lengthAdjust="spacing" textLength="7" x="112.5" y="226.5107">4</text><text fill="#000000" font-family="sans-serif" font-size="13" lengthAdjust="spacing" textLength="183" x="123.5" y="226.5107">asks to enter the path of the file</text><polygon fill="#181818" points="504.5,257.7188,514.5,261.7188,504.5,265.7188,508.5,261.7188" style="stroke:#181818;stroke-width:1.0;"/><line style="stroke:#181818;stroke-width:1.0;" x1="95.5" x2="510.5" y1="261.7188" y2="261.7188"/><text fill="#000000" font-family="sans-serif" font-size="13" font-weight="bold" lengthAdjust="spacing" textLength="7" x="102.5" y="256.8623">5</text><text fill="#000000" font-family="sans-serif" font-size="13" lengthAdjust="spacing" textLength="119" x="113.5" y="256.8623">enter requested data</text><polygon fill="#181818" points="1146.5,288.0703,1156.5,292.0703,1146.5,296.0703,1150.5,292.0703" style="stroke:#181818;stroke-width:1.0;"/><line style="stroke:#181818;stroke-width:1.0;stroke-dasharray:2.0,2.0;" x1="526.5" x2="1152.5" y1="292.0703" y2="292.0703"/><text fill="#000000" font-family="sans-serif" font-size="13" font-weight="bold" lengthAdjust="spacing" textLength="7" x="533.5" y="287.2139">6</text><text fill="#000000" font-family="sans-serif" font-size="13" lengthAdjust="spacing" textLength="106" x="544.5" y="287.2139">registerSurvey(file)</text><polygon fill="#181818" points="1315,318.4219,1325,322.4219,1315,326.4219,1319,322.4219" style="stroke:#181818;stroke-width:1.0;"/><line style="stroke:#181818;stroke-width:1.0;" x1="1168.5" x2="1321" y1="322.4219" y2="322.4219"/><text fill="#000000" font-family="sans-serif" font-size="13" font-weight="bold" lengthAdjust="spacing" textLength="7" x="1175.5" y="317.5654">7</text><text fill="#000000" font-family="sans-serif" font-size="13" lengthAdjust="spacing" textLength="75" x="1186.5" y="317.5654">repositories()</text><rect height="41.4453" style="stroke:#000000;stroke-width:1.5;fill:none;" width="146" x="1259" y="330.4219"/><path d="M1259,330.4219 L1321,330.4219 L1321,338.4219 L1311,348.4219 L1259,348.4219 L1259,330.4219 " fill="#EEEEEE" style="stroke:#000000;stroke-width:2.0;"/><text fill="#000000" font-family="sans-serif" font-size="13" font-weight="bold" lengthAdjust="spacing" textLength="17" x="1272" y="345.917">ref</text><text fill="#000000" font-family="sans-serif" font-size="12" lengthAdjust="spacing" textLength="119" x="1272.5" y="364.8789">SurveyRepository_SD</text><polygon fill="#181818" points="1179.5,395.2188,1169.5,399.2188,1179.5,403.2188,1175.5,399.2188" style="stroke:#181818;stroke-width:1.0;"/><line style="stroke:#181818;stroke-width:1.0;stroke-dasharray:2.0,2.0;" x1="1173.5" x2="1331" y1="399.2188" y2="399.2188"/><text fill="#000000" font-family="sans-serif" font-size="13" font-weight="bold" lengthAdjust="spacing" textLength="7" x="1185.5" y="394.3623">8</text><text fill="#000000" font-family="sans-serif" font-size="13" lengthAdjust="spacing" textLength="4" x="1196.5" y="394.3623"> </text><polygon fill="#181818" points="1577.5,425.5703,1587.5,429.5703,1577.5,433.5703,1581.5,429.5703" style="stroke:#181818;stroke-width:1.0;"/><line style="stroke:#181818;stroke-width:1.0;" x1="1168.5" x2="1583.5" y1="429.5703" y2="429.5703"/><text fill="#000000" font-family="sans-serif" font-size="13" font-weight="bold" lengthAdjust="spacing" textLength="7" x="1175.5" y="424.7139">9</text><text fill="#000000" font-family="sans-serif" font-size="13" lengthAdjust="spacing" textLength="96" x="1186.5" y="424.7139">checksurvey(file)</text><polygon fill="#181818" points="537.5,485.9219,527.5,489.9219,537.5,493.9219,533.5,489.9219" style="stroke:#181818;stroke-width:1.0;"/><line style="stroke:#181818;stroke-width:1.0;stroke-dasharray:2.0,2.0;" x1="531.5" x2="1162.5" y1="489.9219" y2="489.9219"/><text fill="#000000" font-family="sans-serif" font-size="13" font-weight="bold" lengthAdjust="spacing" textLength="14" x="543.5" y="485.0654">10</text><text fill="#000000" font-family="sans-serif" font-size="13" lengthAdjust="spacing" textLength="152" x="561.5" y="485.0654">informs operation success</text><polygon fill="#181818" points="1146.5,516.2734,1156.5,520.2734,1146.5,524.2734,1150.5,520.2734" style="stroke:#181818;stroke-width:1.0;"/><line style="stroke:#181818;stroke-width:1.0;" x1="526.5" x2="1152.5" y1="520.2734" y2="520.2734"/><text fill="#000000" font-family="sans-serif" font-size="13" font-weight="bold" lengthAdjust="spacing" textLength="14" x="533.5" y="515.417">11</text><text fill="#000000" font-family="sans-serif" font-size="13" lengthAdjust="spacing" textLength="595" x="551.5" y="515.417">registerSurvey(id,description,data,title,welcome_message,num_questions,sectionDTOList,questionList)</text><polygon fill="#181818" points="1818,546.625,1828,550.625,1818,554.625,1822,550.625" style="stroke:#181818;stroke-width:1.0;"/><line style="stroke:#181818;stroke-width:1.0;" x1="1168.5" x2="1824" y1="550.625" y2="550.625"/><text fill="#000000" font-family="sans-serif" font-size="13" font-weight="bold" lengthAdjust="spacing" textLength="14" x="1175.5" y="545.7686">12</text><text fill="#000000" font-family="sans-serif" font-size="13" lengthAdjust="spacing" textLength="450" x="1193.5" y="545.7686">survey = create(code,description,finalDate,title,welcomeMessage,sectionList);</text><polygon fill="#181818" points="1691,606.9766,1701,610.9766,1691,614.9766,1695,610.9766" style="stroke:#181818;stroke-width:1.0;"/><line style="stroke:#181818;stroke-width:1.0;" x1="1168.5" x2="1697" y1="610.9766" y2="610.9766"/><text fill="#000000" font-family="sans-serif" font-size="13" font-weight="bold" lengthAdjust="spacing" textLength="14" x="1175.5" y="606.1201">13</text><text fill="#000000" font-family="sans-serif" font-size="13" lengthAdjust="spacing" textLength="71" x="1193.5" y="606.1201">save(survey)</text><polygon fill="#181818" points="537.5,667.3281,527.5,671.3281,537.5,675.3281,533.5,671.3281" style="stroke:#181818;stroke-width:1.0;"/><line style="stroke:#181818;stroke-width:1.0;stroke-dasharray:2.0,2.0;" x1="531.5" x2="1162.5" y1="671.3281" y2="671.3281"/><text fill="#000000" font-family="sans-serif" font-size="13" font-weight="bold" lengthAdjust="spacing" textLength="14" x="543.5" y="666.4717">14</text><text fill="#000000" font-family="sans-serif" font-size="13" lengthAdjust="spacing" textLength="152" x="561.5" y="666.4717">informs operation success</text><polygon fill="#181818" points="106.5,697.6797,96.5,701.6797,106.5,705.6797,102.5,701.6797" style="stroke:#181818;stroke-width:1.0;"/><line style="stroke:#181818;stroke-width:1.0;stroke-dasharray:2.0,2.0;" x1="100.5" x2="520.5" y1="701.6797" y2="701.6797"/><text fill="#000000" font-family="sans-serif" font-size="13" font-weight="bold" lengthAdjust="spacing" textLength="14" x="112.5" y="696.8232">15</text><text fill="#000000" font-family="sans-serif" font-size="13" lengthAdjust="spacing" textLength="152" x="130.5" y="696.8232">informs operation success</text><line style="stroke:#000000;stroke-width:1.0;stroke-dasharray:2.0,2.0;" x1="10" x2="2236" y1="710.6797" y2="710.6797"/><polygon fill="#181818" points="504.5,730.0313,514.5,734.0313,504.5,738.0313,508.5,734.0313" style="stroke:#181818;stroke-width:1.0;"/><line style="stroke:#181818;stroke-width:1.0;" x1="95.5" x2="510.5" y1="734.0313" y2="734.0313"/><text fill="#000000" font-family="sans-serif" font-size="13" font-weight="bold" lengthAdjust="spacing" textLength="14" x="102.5" y="729.1748">16</text><text fill="#000000" font-family="sans-serif" font-size="13" lengthAdjust="spacing" textLength="125" x="120.5" y="729.1748">select requested data</text><polygon fill="#181818" points="106.5,776.7344,96.5,780.7344,106.5,784.7344,102.5,780.7344" style="stroke:#181818;stroke-width:1.0;"/><line style="stroke:#181818;stroke-width:1.0;stroke-dasharray:2.0,2.0;" x1="100.5" x2="520.5" y1="780.7344" y2="780.7344"/><text fill="#000000" font-family="sans-serif" font-size="13" font-weight="bold" lengthAdjust="spacing" textLength="14" x="112.5" y="767.7021">17</text><text fill="#000000" font-family="sans-serif" font-size="13" lengthAdjust="spacing" textLength="269" x="130.5" y="759.5264">asks to type data (id,description,num of days ,</text><text fill="#000000" font-family="sans-serif" font-size="13" lengthAdjust="spacing" textLength="162" x="130.5" y="775.8779">title and welcome message)</text><polygon fill="#181818" points="504.5,807.0859,514.5,811.0859,504.5,815.0859,508.5,811.0859" style="stroke:#181818;stroke-width:1.0;"/><line style="stroke:#181818;stroke-width:1.0;stroke-dasharray:2.0,2.0;" x1="95.5" x2="510.5" y1="811.0859" y2="811.0859"/><text fill="#000000" font-family="sans-serif" font-size="13" font-weight="bold" lengthAdjust="spacing" textLength="14" x="102.5" y="806.2295">18</text><text fill="#000000" font-family="sans-serif" font-size="13" lengthAdjust="spacing" textLength="122" x="120.5" y="806.2295">types requested data</text><path d="M20,826.0859 L93,826.0859 L93,834.4375 L83,844.4375 L20,844.4375 L20,826.0859 " fill="#EEEEEE" style="stroke:#000000;stroke-width:1.5;"/><rect fill="none" height="379.5156" style="stroke:#000000;stroke-width:1.5;" width="2206" x="20" y="826.0859"/><text fill="#000000" font-family="sans-serif" font-size="13" font-weight="bold" lengthAdjust="spacing" textLength="28" x="35" y="840.5811">loop</text><text fill="#000000" font-family="sans-serif" font-size="11" font-weight="bold" lengthAdjust="spacing" textLength="228" x="108" y="839.5049">[while the user wants to create sections]</text><polygon fill="#181818" points="106.5,862.7891,96.5,866.7891,106.5,870.7891,102.5,866.7891" style="stroke:#181818;stroke-width:1.0;"/><line style="stroke:#181818;stroke-width:1.0;stroke-dasharray:2.0,2.0;" x1="100.5" x2="520.5" y1="866.7891" y2="866.7891"/><text fill="#000000" font-family="sans-serif" font-size="13" font-weight="bold" lengthAdjust="spacing" textLength="14" x="112.5" y="861.9326">19</text><text fill="#000000" font-family="sans-serif" font-size="13" lengthAdjust="spacing" textLength="379" x="130.5" y="861.9326">asks to type requested data (section title and section description)</text><polygon fill="#181818" points="504.5,893.1406,514.5,897.1406,504.5,901.1406,508.5,897.1406" style="stroke:#181818;stroke-width:1.0;"/><line style="stroke:#181818;stroke-width:1.0;stroke-dasharray:2.0,2.0;" x1="95.5" x2="510.5" y1="897.1406" y2="897.1406"/><text fill="#000000" font-family="sans-serif" font-size="13" font-weight="bold" lengthAdjust="spacing" textLength="14" x="102.5" y="892.2842">20</text><text fill="#000000" font-family="sans-serif" font-size="13" lengthAdjust="spacing" textLength="115" x="120.5" y="892.2842">type requested data</text><polygon fill="#181818" points="1965,923.4922,1975,927.4922,1965,931.4922,1969,927.4922" style="stroke:#181818;stroke-width:1.0;"/><line style="stroke:#181818;stroke-width:1.0;" x1="526.5" x2="1971" y1="927.4922" y2="927.4922"/><text fill="#000000" font-family="sans-serif" font-size="13" font-weight="bold" lengthAdjust="spacing" textLength="14" x="533.5" y="922.6357">21</text><text fill="#000000" font-family="sans-serif" font-size="13" lengthAdjust="spacing" textLength="527" x="551.5" y="922.6357">sectionDTO = create(sectionId,sectiontitle,sectiondescription,sectionobli,section_condition)</text><line style="stroke:#181818;stroke-width:1.0;" x1="526.5" x2="568.5" y1="987.8438" y2="987.8438"/><line style="stroke:#181818;stroke-width:1.0;" x1="568.5" x2="568.5" y1="987.8438" y2="1000.8438"/><line style="stroke:#181818;stroke-width:1.0;" x1="527.5" x2="568.5" y1="1000.8438" y2="1000.8438"/><polygon fill="#181818" points="537.5,996.8438,527.5,1000.8438,537.5,1004.8438,533.5,1000.8438" style="stroke:#181818;stroke-width:1.0;"/><text fill="#000000" font-family="sans-serif" font-size="13" font-weight="bold" lengthAdjust="spacing" textLength="14" x="533.5" y="982.9873">22</text><text fill="#000000" font-family="sans-serif" font-size="13" lengthAdjust="spacing" textLength="190" x="551.5" y="982.9873">sectionDTOList.add(sectionDTO)</text><path d="M30,1015.8438 L103,1015.8438 L103,1024.1953 L93,1034.1953 L30,1034.1953 L30,1015.8438 " fill="#EEEEEE" style="stroke:#000000;stroke-width:1.5;"/><rect fill="none" height="182.7578" style="stroke:#000000;stroke-width:1.5;" width="2186" x="30" y="1015.8438"/><text fill="#000000" font-family="sans-serif" font-size="13" font-weight="bold" lengthAdjust="spacing" textLength="28" x="45" y="1030.3389">loop</text><text fill="#000000" font-family="sans-serif" font-size="11" font-weight="bold" lengthAdjust="spacing" textLength="236" x="118" y="1029.2627">[while the user wants to create questions]</text><polygon fill="#181818" points="106.5,1052.5469,96.5,1056.5469,106.5,1060.5469,102.5,1056.5469" style="stroke:#181818;stroke-width:1.0;"/><line style="stroke:#181818;stroke-width:1.0;stroke-dasharray:2.0,2.0;" x1="100.5" x2="520.5" y1="1056.5469" y2="1056.5469"/><text fill="#000000" font-family="sans-serif" font-size="13" font-weight="bold" lengthAdjust="spacing" textLength="14" x="112.5" y="1051.6904">23</text><text fill="#000000" font-family="sans-serif" font-size="13" lengthAdjust="spacing" textLength="340" x="130.5" y="1051.6904">asks to select the question type and requests needed data</text><polygon fill="#181818" points="504.5,1082.8984,514.5,1086.8984,504.5,1090.8984,508.5,1086.8984" style="stroke:#181818;stroke-width:1.0;"/><line style="stroke:#181818;stroke-width:1.0;stroke-dasharray:2.0,2.0;" x1="95.5" x2="510.5" y1="1086.8984" y2="1086.8984"/><text fill="#000000" font-family="sans-serif" font-size="13" font-weight="bold" lengthAdjust="spacing" textLength="14" x="102.5" y="1082.042">24</text><text fill="#000000" font-family="sans-serif" font-size="13" lengthAdjust="spacing" textLength="215" x="120.5" y="1082.042">selects and types the requested data</text><polygon fill="#181818" points="2124.5,1113.25,2134.5,1117.25,2124.5,1121.25,2128.5,1117.25" style="stroke:#181818;stroke-width:1.0;"/><line style="stroke:#181818;stroke-width:1.0;" x1="526.5" x2="2130.5" y1="1117.25" y2="1117.25"/><text fill="#000000" font-family="sans-serif" font-size="13" font-weight="bold" lengthAdjust="spacing" textLength="14" x="533.5" y="1112.3936">25</text><text fill="#000000" font-family="sans-serif" font-size="13" lengthAdjust="spacing" textLength="306" x="551.5" y="1112.3936">question = create(question,questionId,question_type)</text><line style="stroke:#181818;stroke-width:1.0;" x1="526.5" x2="568.5" y1="1177.6016" y2="1177.6016"/><line style="stroke:#181818;stroke-width:1.0;" x1="568.5" x2="568.5" y1="1177.6016" y2="1190.6016"/><line style="stroke:#181818;stroke-width:1.0;" x1="527.5" x2="568.5" y1="1190.6016" y2="1190.6016"/><polygon fill="#181818" points="537.5,1186.6016,527.5,1190.6016,537.5,1194.6016,533.5,1190.6016" style="stroke:#181818;stroke-width:1.0;"/><text fill="#000000" font-family="sans-serif" font-size="13" font-weight="bold" lengthAdjust="spacing" textLength="14" x="533.5" y="1172.7451">26</text><text fill="#000000" font-family="sans-serif" font-size="13" lengthAdjust="spacing" textLength="152" x="551.5" y="1172.7451">questionList.add(question)</text><polygon fill="#181818" points="1146.5,1230.9531,1156.5,1234.9531,1146.5,1238.9531,1150.5,1234.9531" style="stroke:#181818;stroke-width:1.0;"/><line style="stroke:#181818;stroke-width:1.0;" x1="526.5" x2="1152.5" y1="1234.9531" y2="1234.9531"/><text fill="#000000" font-family="sans-serif" font-size="13" font-weight="bold" lengthAdjust="spacing" textLength="14" x="533.5" y="1230.0967">27</text><text fill="#000000" font-family="sans-serif" font-size="13" lengthAdjust="spacing" textLength="595" x="551.5" y="1230.0967">registerSurvey(id,description,data,title,welcome_message,num_questions,sectionDTOList,questionList)</text><polygon fill="#181818" points="1818,1261.3047,1828,1265.3047,1818,1269.3047,1822,1265.3047" style="stroke:#181818;stroke-width:1.0;"/><line style="stroke:#181818;stroke-width:1.0;" x1="1168.5" x2="1824" y1="1265.3047" y2="1265.3047"/><text fill="#000000" font-family="sans-serif" font-size="13" font-weight="bold" lengthAdjust="spacing" textLength="14" x="1175.5" y="1260.4482">28</text><text fill="#000000" font-family="sans-serif" font-size="13" lengthAdjust="spacing" textLength="450" x="1193.5" y="1260.4482">survey = create(code,description,finalDate,title,welcomeMessage,sectionList);</text><polygon fill="#181818" points="1691,1321.6563,1701,1325.6563,1691,1329.6563,1695,1325.6563" style="stroke:#181818;stroke-width:1.0;"/><line style="stroke:#181818;stroke-width:1.0;" x1="1168.5" x2="1697" y1="1325.6563" y2="1325.6563"/><text fill="#000000" font-family="sans-serif" font-size="13" font-weight="bold" lengthAdjust="spacing" textLength="14" x="1175.5" y="1320.7998">29</text><text fill="#000000" font-family="sans-serif" font-size="13" lengthAdjust="spacing" textLength="71" x="1193.5" y="1320.7998">save(survey)</text><polygon fill="#181818" points="537.5,1382.0078,527.5,1386.0078,537.5,1390.0078,533.5,1386.0078" style="stroke:#181818;stroke-width:1.0;"/><line style="stroke:#181818;stroke-width:1.0;stroke-dasharray:2.0,2.0;" x1="531.5" x2="1162.5" y1="1386.0078" y2="1386.0078"/><text fill="#000000" font-family="sans-serif" font-size="13" font-weight="bold" lengthAdjust="spacing" textLength="14" x="543.5" y="1381.1514">30</text><text fill="#000000" font-family="sans-serif" font-size="13" lengthAdjust="spacing" textLength="152" x="561.5" y="1381.1514">informs operation success</text><polygon fill="#181818" points="101.5,1412.3594,91.5,1416.3594,101.5,1420.3594,97.5,1416.3594" style="stroke:#181818;stroke-width:1.0;"/><line style="stroke:#181818;stroke-width:1.0;stroke-dasharray:2.0,2.0;" x1="95.5" x2="520.5" y1="1416.3594" y2="1416.3594"/><text fill="#000000" font-family="sans-serif" font-size="13" font-weight="bold" lengthAdjust="spacing" textLength="14" x="107.5" y="1411.5029">31</text><text fill="#000000" font-family="sans-serif" font-size="13" lengthAdjust="spacing" textLength="152" x="125.5" y="1411.5029">informs operation success</text><!--MD5=[236ffb0ad5d3e9c3138c0322f42c3c5d]
@startuml
autonumber
'hide footbox
actor "Sales Manager" as SM

participant ":RegisterSurveyUI" as UI
participant ":RegisterSurveyController" as CTRL
participant ":PersistenceContext" as PC
participant ":RepositoryFactory" as RF
participant ":Grammar" as G
participant ":SurveyRepository" as SR
participant "survey:Survey" as S
participant "sectionDTO:SectionDTO" as SEDTO
participant "question:Question" as Q



autonumber
activate SM
SM -> UI: I want to register a new survey
activate UI
UI - -> SM: asks to select if he want to put a file or register manually
deactivate UI
alt choose file
SM -> UI: select requested data
activate UI
UI - -> SM: asks to enter the path of the file
deactivate UI
SM -> UI: enter requested data
activate UI
UI - -> CTRL : registerSurvey(file)
activate CTRL
CTRL -> PC : repositories()

activate PC
ref over PC
SurveyRepository_SD
end ref
PC - -> CTRL
deactivate PC
CTRL -> G : checksurvey(file)
activate G
deactivate G

CTRL - -> UI : informs operation success
deactivate CTRL
UI -> CTRL : registerSurvey(id,description,data,title,welcome_message,num_questions,sectionDTOList,questionList)
activate CTRL
CTRL -> S : survey = create(code,description,finalDate,title,welcomeMessage,sectionList);
activate S
deactivate S
CTRL -> SR : save(survey)
activate SR
deactivate SR
CTRL - -> UI : informs operation success
deactivate CTRL
UI - -> SM: informs operation success
deactivate UI

else
SM -> UI: select requested data
activate UI
UI - -> SM: asks to type data (id,description,num of days ,\ntitle and welcome message)
deactivate UI
SM - -> UI : types requested data
activate UI
loop while the user wants to create sections
UI - -> SM : asks to type requested data (section title and section description)
deactivate UI
SM - -> UI : type requested data
activate UI
UI -> SEDTO : sectionDTO = create(sectionId,sectiontitle,sectiondescription,sectionobli,section_condition)
activate SEDTO
deactivate SEDTO
UI -> UI : sectionDTOList.add(sectionDTO)
loop while the user wants to create questions
UI - -> SM : asks to select the question type and requests needed data
deactivate UI
SM - -> UI : selects and types the requested data
activate UI
UI -> Q : question = create(question,questionId,question_type)
activate Q
deactivate Q
UI -> UI : questionList.add(question)
end
end
UI -> CTRL : registerSurvey(id,description,data,title,welcome_message,num_questions,sectionDTOList,questionList)
activate CTRL
CTRL -> S : survey = create(code,description,finalDate,title,welcomeMessage,sectionList);
activate S
deactivate S
CTRL -> SR : save(survey)
activate SR
deactivate SR
CTRL - -> UI : informs operation success
deactivate CTRL
UI - -> SM: informs operation success
deactivate UI
deactivate SM
end












deactivate SM
@enduml

@startuml
autonumber
actor "Sales Manager" as SM

participant ":RegisterSurveyUI" as UI
participant ":RegisterSurveyController" as CTRL
participant ":PersistenceContext" as PC
participant ":RepositoryFactory" as RF
participant ":Grammar" as G
participant ":SurveyRepository" as SR
participant "survey:Survey" as S
participant "sectionDTO:SectionDTO" as SEDTO
participant "question:Question" as Q



autonumber
activate SM
SM -> UI: I want to register a new survey
activate UI
UI - -> SM: asks to select if he want to put a file or register manually
deactivate UI
alt choose file
SM -> UI: select requested data
activate UI
UI - -> SM: asks to enter the path of the file
deactivate UI
SM -> UI: enter requested data
activate UI
UI - -> CTRL : registerSurvey(file)
activate CTRL
CTRL -> PC : repositories()

activate PC
ref over PC
SurveyRepository_SD
end ref
PC - -> CTRL
deactivate PC
CTRL -> G : checksurvey(file)
activate G
deactivate G

CTRL - -> UI : informs operation success
deactivate CTRL
UI -> CTRL : registerSurvey(id,description,data,title,welcome_message,num_questions,sectionDTOList,questionList)
activate CTRL
CTRL -> S : survey = create(code,description,finalDate,title,welcomeMessage,sectionList);
activate S
deactivate S
CTRL -> SR : save(survey)
activate SR
deactivate SR
CTRL - -> UI : informs operation success
deactivate CTRL
UI - -> SM: informs operation success
deactivate UI

else
SM -> UI: select requested data
activate UI
UI - -> SM: asks to type data (id,description,num of days ,\ntitle and welcome message)
deactivate UI
SM - -> UI : types requested data
activate UI
loop while the user wants to create sections
UI - -> SM : asks to type requested data (section title and section description)
deactivate UI
SM - -> UI : type requested data
activate UI
UI -> SEDTO : sectionDTO = create(sectionId,sectiontitle,sectiondescription,sectionobli,section_condition)
activate SEDTO
deactivate SEDTO
UI -> UI : sectionDTOList.add(sectionDTO)
loop while the user wants to create questions
UI - -> SM : asks to select the question type and requests needed data
deactivate UI
SM - -> UI : selects and types the requested data
activate UI
UI -> Q : question = create(question,questionId,question_type)
activate Q
deactivate Q
UI -> UI : questionList.add(question)
end
end
UI -> CTRL : registerSurvey(id,description,data,title,welcome_message,num_questions,sectionDTOList,questionList)
activate CTRL
CTRL -> S : survey = create(code,description,finalDate,title,welcomeMessage,sectionList);
activate S
deactivate S
CTRL -> SR : save(survey)
activate SR
deactivate SR
CTRL - -> UI : informs operation success
deactivate CTRL
UI - -> SM: informs operation success
deactivate UI
deactivate SM
end












deactivate SM
@enduml

PlantUML version 1.2022.4(Sat Apr 09 14:29:17 BST 2022)
(GPL source distribution)
Java Runtime: OpenJDK Runtime Environment
JVM: OpenJDK 64-Bit Server VM
Default Encoding: Cp1252
Language: pt
Country: PT
--></g></svg>