<?xml version="1.0" encoding="UTF-8" standalone="no"?><svg xmlns="http://www.w3.org/2000/svg" xmlns:xlink="http://www.w3.org/1999/xlink" contentStyleType="text/css" height="419px" preserveAspectRatio="none" style="width:791px;height:419px;background:#FFFFFF;" version="1.1" viewBox="0 0 791 419" width="791px" zoomAndPan="magnify"><defs/><g><!--MD5=[89f4a5b40138867adcebde5741d6db60]
cluster survey--><g id="cluster_survey"><path d="M246.5,6 L295.5,6 A3.75,3.75 0 0 1 298,8.5 L305,29.6094 L781.5,29.6094 A2.5,2.5 0 0 1 784,32.1094 L784,281.5 A2.5,2.5 0 0 1 781.5,284 L246.5,284 A2.5,2.5 0 0 1 244,281.5 L244,8.5 A2.5,2.5 0 0 1 246.5,6 " style="stroke:#000000;stroke-width:1.5;fill:none;"/><line style="stroke:#000000;stroke-width:1.5;fill:none;" x1="244" x2="305" y1="29.6094" y2="29.6094"/><text fill="#000000" font-family="sans-serif" font-size="14" font-weight="bold" lengthAdjust="spacing" textLength="48" x="248" y="22.5332">survey</text></g><!--MD5=[b5e3361e2a5f8dd2cdf2e5f0d87d6906]
cluster customer--><g id="cluster_customer"><path d="M463.5,308 L530.5,308 A3.75,3.75 0 0 1 533,310.5 L540,331.6094 L583.5,331.6094 A2.5,2.5 0 0 1 586,334.1094 L586,409.5 A2.5,2.5 0 0 1 583.5,412 L463.5,412 A2.5,2.5 0 0 1 461,409.5 L461,310.5 A2.5,2.5 0 0 1 463.5,308 " style="stroke:#000000;stroke-width:1.5;fill:none;"/><line style="stroke:#000000;stroke-width:1.5;fill:none;" x1="461" x2="540" y1="331.6094" y2="331.6094"/><text fill="#000000" font-family="sans-serif" font-size="14" font-weight="bold" lengthAdjust="spacing" textLength="66" x="465" y="324.5332">customer</text></g><!--MD5=[3145b4be7c5005b24cda6f18a1d594b0]
class Survey--><g id="elem_Survey"><rect codeLine="7" fill="#F1F1F1" height="121.1406" id="Survey" rx="2.5" ry="2.5" style="stroke:#181818;stroke-width:0.5;" width="128" x="260" y="137.5"/><ellipse cx="298.4" cy="158.8516" fill="#ADD1B2" rx="11" ry="11" style="stroke:#181818;stroke-width:1.0;"/><path d="M300.4,155.3516 Q300.6031,154.8516 300.8375,154.6016 Q301.0719,154.3516 301.3375,154.3516 Q301.8063,154.3516 302.1031,154.6328 Q302.4,154.9141 302.4,155.5703 L302.4,157.1328 Q302.4,157.7891 302.1188,158.0703 Q301.8375,158.3516 301.4,158.3516 Q301.0094,158.3516 300.7594,158.1797 Q300.5094,158.0078 300.4,157.5547 Q300.3531,157.2422 300.1813,157.0703 Q299.8688,156.7422 299.3063,156.5547 Q298.7438,156.3516 298.1813,156.3516 Q297.4781,156.3516 296.8844,156.6328 Q296.3063,156.9141 295.8531,157.5391 Q295.4,158.1641 295.4,159.0234 L295.4,159.9453 Q295.4,160.9766 296.2438,161.6641 Q297.0875,162.3516 298.5875,162.3516 Q299.4781,162.3516 300.1031,162.1484 Q300.4625,162.0391 300.8688,161.6797 Q301.1344,161.4766 301.275,161.4141 Q301.4156,161.3516 301.5875,161.3516 Q301.9156,161.3516 302.15,161.6172 Q302.4,161.8672 302.4,162.2266 Q302.4,162.5703 302.0563,162.9766 Q301.5563,163.5703 300.7594,163.8984 Q299.7125,164.3516 298.4313,164.3516 Q296.9313,164.3516 295.7281,163.7578 Q294.7594,163.2891 294.0719,162.2734 Q293.4,161.2578 293.4,160.0547 L293.4,158.9609 Q293.4,157.7109 293.9938,156.6172 Q294.6031,155.5234 295.65,154.9453 Q296.7125,154.3516 297.9,154.3516 Q298.6188,154.3516 299.2438,154.6016 Q299.8688,154.8516 300.4,155.3516 Z " fill="#000000"/><text fill="#000000" font-family="sans-serif" font-size="12" font-style="italic" lengthAdjust="spacing" textLength="43" x="318.1" y="154.957">«entity»</text><text fill="#000000" font-family="sans-serif" font-size="14" lengthAdjust="spacing" textLength="44" x="317.6" y="172.127">Survey</text><line style="stroke:#181818;stroke-width:0.5;" x1="261" x2="387" y1="180.2031" y2="180.2031"/><text fill="#000000" font-family="sans-serif" font-size="14" lengthAdjust="spacing" textLength="16" x="266" y="198.7363">-id</text><text fill="#000000" font-family="sans-serif" font-size="14" lengthAdjust="spacing" textLength="67" x="266" y="216.3457">-final_date</text><text fill="#000000" font-family="sans-serif" font-size="14" lengthAdjust="spacing" textLength="27" x="266" y="233.9551">-title</text><text fill="#000000" font-family="sans-serif" font-size="14" lengthAdjust="spacing" textLength="116" x="266" y="251.5645">-welcomeMessage</text></g><!--MD5=[09a53695e98d4f26e7a054522080af08]
class Section--><g id="elem_Section"><rect codeLine="14" fill="#F1F1F1" height="138.75" id="Section" rx="2.5" ry="2.5" style="stroke:#181818;stroke-width:0.5;" width="149" x="449" y="128.5"/><ellipse cx="495.75" cy="149.8516" fill="#ADD1B2" rx="11" ry="11" style="stroke:#181818;stroke-width:1.0;"/><path d="M497.75,146.3516 Q497.9531,145.8516 498.1875,145.6016 Q498.4219,145.3516 498.6875,145.3516 Q499.1563,145.3516 499.4531,145.6328 Q499.75,145.9141 499.75,146.5703 L499.75,148.1328 Q499.75,148.7891 499.4688,149.0703 Q499.1875,149.3516 498.75,149.3516 Q498.3594,149.3516 498.1094,149.1797 Q497.8594,149.0078 497.75,148.5547 Q497.7031,148.2422 497.5313,148.0703 Q497.2188,147.7422 496.6563,147.5547 Q496.0938,147.3516 495.5313,147.3516 Q494.8281,147.3516 494.2344,147.6328 Q493.6563,147.9141 493.2031,148.5391 Q492.75,149.1641 492.75,150.0234 L492.75,150.9453 Q492.75,151.9766 493.5938,152.6641 Q494.4375,153.3516 495.9375,153.3516 Q496.8281,153.3516 497.4531,153.1484 Q497.8125,153.0391 498.2188,152.6797 Q498.4844,152.4766 498.625,152.4141 Q498.7656,152.3516 498.9375,152.3516 Q499.2656,152.3516 499.5,152.6172 Q499.75,152.8672 499.75,153.2266 Q499.75,153.5703 499.4063,153.9766 Q498.9063,154.5703 498.1094,154.8984 Q497.0625,155.3516 495.7813,155.3516 Q494.2813,155.3516 493.0781,154.7578 Q492.1094,154.2891 491.4219,153.2734 Q490.75,152.2578 490.75,151.0547 L490.75,149.9609 Q490.75,148.7109 491.3438,147.6172 Q491.9531,146.5234 493,145.9453 Q494.0625,145.3516 495.25,145.3516 Q495.9688,145.3516 496.5938,145.6016 Q497.2188,145.8516 497.75,146.3516 Z " fill="#000000"/><text fill="#000000" font-family="sans-serif" font-size="12" font-style="italic" lengthAdjust="spacing" textLength="43" x="518.25" y="145.957">«entity»</text><text fill="#000000" font-family="sans-serif" font-size="14" lengthAdjust="spacing" textLength="47" x="516.25" y="163.127">Section</text><line style="stroke:#181818;stroke-width:0.5;" x1="450" x2="597" y1="171.2031" y2="171.2031"/><text fill="#000000" font-family="sans-serif" font-size="14" lengthAdjust="spacing" textLength="69" x="455" y="189.7363">-section_id</text><text fill="#000000" font-family="sans-serif" font-size="14" lengthAdjust="spacing" textLength="137" x="455" y="207.3457">-section_identification</text><text fill="#000000" font-family="sans-serif" font-size="14" lengthAdjust="spacing" textLength="127" x="455" y="224.9551">-section_description</text><text fill="#000000" font-family="sans-serif" font-size="14" lengthAdjust="spacing" textLength="93" x="455" y="242.5645">-obligatoriness</text><text fill="#000000" font-family="sans-serif" font-size="14" lengthAdjust="spacing" textLength="62" x="455" y="260.1738">-condition</text></g><!--MD5=[009695af4e54f3bba8a9c60dca3e1c94]
class Description--><g id="elem_Description"><rect fill="#F1F1F1" height="50.7031" id="Description" rx="2.5" ry="2.5" style="stroke:#181818;stroke-width:0.5;" width="109" x="469" y="42.5"/><ellipse cx="484" cy="63.8516" fill="#ADD1B2" rx="11" ry="11" style="stroke:#181818;stroke-width:1.0;"/><path d="M486,60.3516 Q486.2031,59.8516 486.4375,59.6016 Q486.6719,59.3516 486.9375,59.3516 Q487.4063,59.3516 487.7031,59.6328 Q488,59.9141 488,60.5703 L488,62.1328 Q488,62.7891 487.7188,63.0703 Q487.4375,63.3516 487,63.3516 Q486.6094,63.3516 486.3594,63.1797 Q486.1094,63.0078 486,62.5547 Q485.9531,62.2422 485.7813,62.0703 Q485.4688,61.7422 484.9063,61.5547 Q484.3438,61.3516 483.7813,61.3516 Q483.0781,61.3516 482.4844,61.6328 Q481.9063,61.9141 481.4531,62.5391 Q481,63.1641 481,64.0234 L481,64.9453 Q481,65.9766 481.8438,66.6641 Q482.6875,67.3516 484.1875,67.3516 Q485.0781,67.3516 485.7031,67.1484 Q486.0625,67.0391 486.4688,66.6797 Q486.7344,66.4766 486.875,66.4141 Q487.0156,66.3516 487.1875,66.3516 Q487.5156,66.3516 487.75,66.6172 Q488,66.8672 488,67.2266 Q488,67.5703 487.6563,67.9766 Q487.1563,68.5703 486.3594,68.8984 Q485.3125,69.3516 484.0313,69.3516 Q482.5313,69.3516 481.3281,68.7578 Q480.3594,68.2891 479.6719,67.2734 Q479,66.2578 479,65.0547 L479,63.9609 Q479,62.7109 479.5938,61.6172 Q480.2031,60.5234 481.25,59.9453 Q482.3125,59.3516 483.5,59.3516 Q484.2188,59.3516 484.8438,59.6016 Q485.4688,59.8516 486,60.3516 Z " fill="#000000"/><text fill="#000000" font-family="sans-serif" font-size="12" font-style="italic" lengthAdjust="spacing" textLength="81" x="496" y="59.957">«value object»</text><text fill="#000000" font-family="sans-serif" font-size="14" lengthAdjust="spacing" textLength="71" x="501" y="77.127">Description</text><line style="stroke:#181818;stroke-width:0.5;" x1="470" x2="577" y1="85.2031" y2="85.2031"/></g><!--MD5=[fc7123defb831ecdd44b2d9bcef6cceb]
class Question--><g id="elem_Question"><rect fill="#F1F1F1" height="50.7031" id="Question" rx="2.5" ry="2.5" style="stroke:#181818;stroke-width:0.5;" width="109" x="659" y="172.5"/><ellipse cx="674" cy="193.8516" fill="#ADD1B2" rx="11" ry="11" style="stroke:#181818;stroke-width:1.0;"/><path d="M676,190.3516 Q676.2031,189.8516 676.4375,189.6016 Q676.6719,189.3516 676.9375,189.3516 Q677.4063,189.3516 677.7031,189.6328 Q678,189.9141 678,190.5703 L678,192.1328 Q678,192.7891 677.7188,193.0703 Q677.4375,193.3516 677,193.3516 Q676.6094,193.3516 676.3594,193.1797 Q676.1094,193.0078 676,192.5547 Q675.9531,192.2422 675.7813,192.0703 Q675.4688,191.7422 674.9063,191.5547 Q674.3438,191.3516 673.7813,191.3516 Q673.0781,191.3516 672.4844,191.6328 Q671.9063,191.9141 671.4531,192.5391 Q671,193.1641 671,194.0234 L671,194.9453 Q671,195.9766 671.8438,196.6641 Q672.6875,197.3516 674.1875,197.3516 Q675.0781,197.3516 675.7031,197.1484 Q676.0625,197.0391 676.4688,196.6797 Q676.7344,196.4766 676.875,196.4141 Q677.0156,196.3516 677.1875,196.3516 Q677.5156,196.3516 677.75,196.6172 Q678,196.8672 678,197.2266 Q678,197.5703 677.6563,197.9766 Q677.1563,198.5703 676.3594,198.8984 Q675.3125,199.3516 674.0313,199.3516 Q672.5313,199.3516 671.3281,198.7578 Q670.3594,198.2891 669.6719,197.2734 Q669,196.2578 669,195.0547 L669,193.9609 Q669,192.7109 669.5938,191.6172 Q670.2031,190.5234 671.25,189.9453 Q672.3125,189.3516 673.5,189.3516 Q674.2188,189.3516 674.8438,189.6016 Q675.4688,189.8516 676,190.3516 Z " fill="#000000"/><text fill="#000000" font-family="sans-serif" font-size="12" font-style="italic" lengthAdjust="spacing" textLength="81" x="686" y="189.957">«value object»</text><text fill="#000000" font-family="sans-serif" font-size="14" lengthAdjust="spacing" textLength="57" x="698" y="207.127">Question</text><line style="stroke:#181818;stroke-width:0.5;" x1="660" x2="767" y1="215.2031" y2="215.2031"/></g><!--MD5=[2ce0c9fb7f55b1e256ab28a8ea6b25ec]
class Customer--><g id="elem_Customer"><rect codeLine="31" fill="#F1F1F1" height="50.7031" id="Customer" rx="2.5" ry="2.5" style="stroke:#181818;stroke-width:0.5;" width="93" x="477" y="344.5"/><ellipse cx="492" cy="365.8516" fill="#ADD1B2" rx="11" ry="11" style="stroke:#181818;stroke-width:1.0;"/><path d="M494,362.3516 Q494.2031,361.8516 494.4375,361.6016 Q494.6719,361.3516 494.9375,361.3516 Q495.4063,361.3516 495.7031,361.6328 Q496,361.9141 496,362.5703 L496,364.1328 Q496,364.7891 495.7188,365.0703 Q495.4375,365.3516 495,365.3516 Q494.6094,365.3516 494.3594,365.1797 Q494.1094,365.0078 494,364.5547 Q493.9531,364.2422 493.7813,364.0703 Q493.4688,363.7422 492.9063,363.5547 Q492.3438,363.3516 491.7813,363.3516 Q491.0781,363.3516 490.4844,363.6328 Q489.9063,363.9141 489.4531,364.5391 Q489,365.1641 489,366.0234 L489,366.9453 Q489,367.9766 489.8438,368.6641 Q490.6875,369.3516 492.1875,369.3516 Q493.0781,369.3516 493.7031,369.1484 Q494.0625,369.0391 494.4688,368.6797 Q494.7344,368.4766 494.875,368.4141 Q495.0156,368.3516 495.1875,368.3516 Q495.5156,368.3516 495.75,368.6172 Q496,368.8672 496,369.2266 Q496,369.5703 495.6563,369.9766 Q495.1563,370.5703 494.3594,370.8984 Q493.3125,371.3516 492.0313,371.3516 Q490.5313,371.3516 489.3281,370.7578 Q488.3594,370.2891 487.6719,369.2734 Q487,368.2578 487,367.0547 L487,365.9609 Q487,364.7109 487.5938,363.6172 Q488.2031,362.5234 489.25,361.9453 Q490.3125,361.3516 491.5,361.3516 Q492.2188,361.3516 492.8438,361.6016 Q493.4688,361.8516 494,362.3516 Z " fill="#000000"/><text fill="#000000" font-family="sans-serif" font-size="12" font-style="italic" lengthAdjust="spacing" textLength="43" x="515" y="361.957">«entity»</text><text fill="#000000" font-family="sans-serif" font-size="14" lengthAdjust="spacing" textLength="61" x="506" y="379.127">Customer</text><line style="stroke:#181818;stroke-width:0.5;" x1="478" x2="569" y1="387.2031" y2="387.2031"/></g><!--MD5=[71cea2dfb2163bac4b85ec617c47f2aa]
class SalesManager--><g id="elem_SalesManager"><rect codeLine="27" fill="#F1F1F1" height="50.7031" id="SalesManager" rx="2.5" ry="2.5" style="stroke:#181818;stroke-width:0.5;" width="123" x="7" y="172.5"/><ellipse cx="22" cy="193.8516" fill="#ADD1B2" rx="11" ry="11" style="stroke:#181818;stroke-width:1.0;"/><path d="M24,190.3516 Q24.2031,189.8516 24.4375,189.6016 Q24.6719,189.3516 24.9375,189.3516 Q25.4063,189.3516 25.7031,189.6328 Q26,189.9141 26,190.5703 L26,192.1328 Q26,192.7891 25.7188,193.0703 Q25.4375,193.3516 25,193.3516 Q24.6094,193.3516 24.3594,193.1797 Q24.1094,193.0078 24,192.5547 Q23.9531,192.2422 23.7813,192.0703 Q23.4688,191.7422 22.9063,191.5547 Q22.3438,191.3516 21.7813,191.3516 Q21.0781,191.3516 20.4844,191.6328 Q19.9063,191.9141 19.4531,192.5391 Q19,193.1641 19,194.0234 L19,194.9453 Q19,195.9766 19.8438,196.6641 Q20.6875,197.3516 22.1875,197.3516 Q23.0781,197.3516 23.7031,197.1484 Q24.0625,197.0391 24.4688,196.6797 Q24.7344,196.4766 24.875,196.4141 Q25.0156,196.3516 25.1875,196.3516 Q25.5156,196.3516 25.75,196.6172 Q26,196.8672 26,197.2266 Q26,197.5703 25.6563,197.9766 Q25.1563,198.5703 24.3594,198.8984 Q23.3125,199.3516 22.0313,199.3516 Q20.5313,199.3516 19.3281,198.7578 Q18.3594,198.2891 17.6719,197.2734 Q17,196.2578 17,195.0547 L17,193.9609 Q17,192.7109 17.5938,191.6172 Q18.2031,190.5234 19.25,189.9453 Q20.3125,189.3516 21.5,189.3516 Q22.2188,189.3516 22.8438,189.6016 Q23.4688,189.8516 24,190.3516 Z " fill="#000000"/><text fill="#000000" font-family="sans-serif" font-size="12" font-style="italic" lengthAdjust="spacing" textLength="43" x="60" y="189.957">«entity»</text><text fill="#000000" font-family="sans-serif" font-size="14" lengthAdjust="spacing" textLength="91" x="36" y="207.127">SalesManager</text><line style="stroke:#181818;stroke-width:0.5;" x1="8" x2="129" y1="215.2031" y2="215.2031"/></g><!--MD5=[fb20e54973d2f66dbbec645131d181b1]
link SalesManager to Survey--><g id="link_SalesManager_Survey"><path codeLine="39" d="M130.22,198 C169.33,198 220.07,198 259.68,198 " fill="none" id="SalesManager-Survey" style="stroke:#181818;stroke-width:1.0;"/><polygon fill="#000000" points="170,189.1758,160.9549,186.2369,160.9549,192.1147,170,189.1758" style="stroke:#000000;stroke-width:1.0;"/><text fill="#000000" font-family="sans-serif" font-size="13" lengthAdjust="spacing" textLength="53" x="174" y="194.4951">manages</text><text fill="#000000" font-family="sans-serif" font-size="13" lengthAdjust="spacing" textLength="7" x="138.1687" y="212.5096">1</text><text fill="#000000" font-family="sans-serif" font-size="13" lengthAdjust="spacing" textLength="5" x="246.9539" y="212.4323">*</text></g><!--MD5=[08f5806e336f712cdf08037e9415a76d]
link Survey to Section--><g id="link_Survey_Section"><path codeLine="40" d="M388.03,198 C405.68,198 425.08,198 443.53,198 " fill="none" id="Survey-to-Section" style="stroke:#181818;stroke-width:1.0;"/><polygon fill="#181818" points="448.7,198,439.7,194,443.7,198,439.7,202,448.7,198" style="stroke:#181818;stroke-width:1.0;"/><text fill="#000000" font-family="sans-serif" font-size="13" lengthAdjust="spacing" textLength="7" x="433.9923" y="212.3122">1</text></g><!--MD5=[0b4debe2092e88b167a50a5f1b002e59]
link Survey to Description--><g id="link_Survey_Description"><path codeLine="41" d="M388.03,152.27 C407.37,138.66 428.86,123.93 449,111 C456.66,106.08 464.89,101.04 472.98,96.22 " fill="none" id="Survey-to-Description" style="stroke:#181818;stroke-width:1.0;"/><polygon fill="#181818" points="477.44,93.57,467.66,94.7322,473.1425,96.1257,471.749,101.6082,477.44,93.57" style="stroke:#181818;stroke-width:1.0;"/><text fill="#000000" font-family="sans-serif" font-size="13" lengthAdjust="spacing" textLength="7" x="458.9793" y="114.9032">1</text></g><!--MD5=[87fa8ff7d398728728a611d860795352]
link Section to Question--><g id="link_Section_Question"><path codeLine="42" d="M598.26,198 C616.63,198 636.08,198 653.62,198 " fill="none" id="Section-to-Question" style="stroke:#181818;stroke-width:1.0;"/><polygon fill="#181818" points="659,198,650,194,654,198,650,202,659,198" style="stroke:#181818;stroke-width:1.0;"/><text fill="#000000" font-family="sans-serif" font-size="13" lengthAdjust="spacing" textLength="5" x="645.9844" y="212.6657">*</text></g><!--MD5=[165a9640f33d3077452ad72de17b1c00]
link Survey to Customer--><g id="link_Survey_Customer"><path codeLine="43" d="M388.03,252.89 C423.25,283.57 465.48,320.34 493.1,344.4 " fill="none" id="Survey-Customer" style="stroke:#181818;stroke-width:1.0;"/><text fill="#000000" font-family="sans-serif" font-size="13" lengthAdjust="spacing" textLength="5" x="396.1383" y="274.0627">*</text><text fill="#000000" font-family="sans-serif" font-size="13" lengthAdjust="spacing" textLength="5" x="480.0806" y="333.7841">*</text></g><!--MD5=[f128d5165a7b1fe7546339528d78ff20]
@startuml
hide methods
left to right direction
skinparam classAttributeIconSize 0


package "survey"{
class Survey{
-id
-final_date
-title
-welcomeMessage
}

class Section{
-section_id
-section_identification
-section_description
-obligatoriness
-condition
}
Survey <<entity>>
Section <<entity>>
Description <<value object>>
Question <<value object>>
}

class SalesManager{
}

package "customer"{
class Customer{
}
}

SalesManager <<entity>>
Survey <<entity>>
Customer <<entity>>

SalesManager "1" - - "*" Survey : manages >
Survey  - -> "1" Section
Survey  - -> "1" Description
Section - -> "*" Question
Survey "*" - - "*" Customer


@enduml

PlantUML version 1.2022.4(Sat Apr 09 14:29:17 BST 2022)
(GPL source distribution)
Java Runtime: OpenJDK Runtime Environment
JVM: OpenJDK 64-Bit Server VM
Default Encoding: Cp1252
Language: pt
Country: PT
--></g></svg>