<?xml version="1.0" encoding="UTF-8" standalone="no"?><svg xmlns="http://www.w3.org/2000/svg" xmlns:xlink="http://www.w3.org/1999/xlink" contentStyleType="text/css" height="1474px" preserveAspectRatio="none" style="width:1277px;height:1474px;background:#FFFFFF;" version="1.1" viewBox="0 0 1277 1474" width="1277px" zoomAndPan="magnify"><defs/><g><!--MD5=[8fd473fd151a2794da4f2c8684676405]
cluster Presentation--><g id="cluster_Presentation"><path d="M553.5,6 L644.5,6 A3.75,3.75 0 0 1 647,8.5 L654,29.6094 L722.5,29.6094 A2.5,2.5 0 0 1 725,32.1094 L725,103.5 A2.5,2.5 0 0 1 722.5,106 L553.5,106 A2.5,2.5 0 0 1 551,103.5 L551,8.5 A2.5,2.5 0 0 1 553.5,6 " style="stroke:#000000;stroke-width:1.5;fill:none;"/><line style="stroke:#000000;stroke-width:1.5;fill:none;" x1="551" x2="654" y1="29.6094" y2="29.6094"/><text fill="#000000" font-family="sans-serif" font-size="14" font-weight="bold" lengthAdjust="spacing" textLength="90" x="555" y="22.5332">Presentation</text></g><!--MD5=[d64883541e3d62e3241c4d12decf100d]
cluster Application--><g id="cluster_Application"><path d="M8.5,130 L87.5,130 A3.75,3.75 0 0 1 90,132.5 L97,153.6094 L1267.5,153.6094 A2.5,2.5 0 0 1 1270,156.1094 L1270,370.5 A2.5,2.5 0 0 1 1267.5,373 L8.5,373 A2.5,2.5 0 0 1 6,370.5 L6,132.5 A2.5,2.5 0 0 1 8.5,130 " style="stroke:#000000;stroke-width:1.5;fill:none;"/><line style="stroke:#000000;stroke-width:1.5;fill:none;" x1="6" x2="97" y1="153.6094" y2="153.6094"/><text fill="#000000" font-family="sans-serif" font-size="14" font-weight="bold" lengthAdjust="spacing" textLength="78" x="10" y="146.5332">Application</text></g><!--MD5=[7b8bc9ee8bb84b99fb3a3f9477c19238]
cluster DTO--><g id="cluster_DTO"><path d="M463.5,1358 L493.5,1358 A3.75,3.75 0 0 1 496,1360.5 L503,1381.6094 L600.5,1381.6094 A2.5,2.5 0 0 1 603,1384.1094 L603,1455.5 A2.5,2.5 0 0 1 600.5,1458 L463.5,1458 A2.5,2.5 0 0 1 461,1455.5 L461,1360.5 A2.5,2.5 0 0 1 463.5,1358 " style="stroke:#000000;stroke-width:1.5;fill:none;"/><line style="stroke:#000000;stroke-width:1.5;fill:none;" x1="461" x2="503" y1="1381.6094" y2="1381.6094"/><text fill="#000000" font-family="sans-serif" font-size="14" font-weight="bold" lengthAdjust="spacing" textLength="29" x="465" y="1374.5332">DTO</text></g><!--MD5=[121a8bf1197281ab89ed693fab589f94]
cluster Domain--><g id="cluster_Domain"><path d="M634.5,975 L687.5,975 A3.75,3.75 0 0 1 690,977.5 L697,998.6094 L751.5,998.6094 A2.5,2.5 0 0 1 754,1001.1094 L754,1464.5 A2.5,2.5 0 0 1 751.5,1467 L634.5,1467 A2.5,2.5 0 0 1 632,1464.5 L632,977.5 A2.5,2.5 0 0 1 634.5,975 " style="stroke:#000000;stroke-width:1.5;fill:none;"/><line style="stroke:#000000;stroke-width:1.5;fill:none;" x1="632" x2="697" y1="998.6094" y2="998.6094"/><text fill="#000000" font-family="sans-serif" font-size="14" font-weight="bold" lengthAdjust="spacing" textLength="52" x="636" y="991.5332">Domain</text></g><!--MD5=[bc6b40dadbf86ab6a0c8405a467a48af]
cluster Persistence--><g id="cluster_Persistence"><path d="M712.5,397 L797.5,397 A3.75,3.75 0 0 1 800,399.5 L807,420.6094 L893.5,420.6094 A2.5,2.5 0 0 1 896,423.1094 L896,512.5 A2.5,2.5 0 0 1 893.5,515 L712.5,515 A2.5,2.5 0 0 1 710,512.5 L710,399.5 A2.5,2.5 0 0 1 712.5,397 " style="stroke:#000000;stroke-width:1.5;fill:none;"/><line style="stroke:#000000;stroke-width:1.5;fill:none;" x1="710" x2="807" y1="420.6094" y2="420.6094"/><text fill="#000000" font-family="sans-serif" font-size="14" font-weight="bold" lengthAdjust="spacing" textLength="84" x="714" y="413.5332">Persistence</text></g><!--MD5=[0d5799440b3bfefd92b00abfcd2c79b9]
cluster Factory--><g id="cluster_Factory"><path d="M714.5,584 L767.5,584 A3.75,3.75 0 0 1 770,586.5 L777,607.6094 L889.5,607.6094 A2.5,2.5 0 0 1 892,610.1094 L892,699.5 A2.5,2.5 0 0 1 889.5,702 L714.5,702 A2.5,2.5 0 0 1 712,699.5 L712,586.5 A2.5,2.5 0 0 1 714.5,584 " style="stroke:#000000;stroke-width:1.5;fill:none;"/><line style="stroke:#000000;stroke-width:1.5;fill:none;" x1="712" x2="777" y1="607.6094" y2="607.6094"/><text fill="#000000" font-family="sans-serif" font-size="14" font-weight="bold" lengthAdjust="spacing" textLength="52" x="716" y="600.5332">Factory</text></g><!--MD5=[71971f99a41bb66cf321ce46bb59f738]
cluster Repository--><g id="cluster_Repository"><path d="M713.5,771 L790.5,771 A3.75,3.75 0 0 1 793,773.5 L800,794.6094 L884.5,794.6094 A2.5,2.5 0 0 1 887,797.1094 L887,903.5 A2.5,2.5 0 0 1 884.5,906 L713.5,906 A2.5,2.5 0 0 1 711,903.5 L711,773.5 A2.5,2.5 0 0 1 713.5,771 " style="stroke:#000000;stroke-width:1.5;fill:none;"/><line style="stroke:#000000;stroke-width:1.5;fill:none;" x1="711" x2="800" y1="794.6094" y2="794.6094"/><text fill="#000000" font-family="sans-serif" font-size="14" font-weight="bold" lengthAdjust="spacing" textLength="76" x="715" y="787.5332">Repository</text></g><!--MD5=[a7d411bb5b710f82d0e54e10fe02d988]
class RegisterSurveyUI--><g id="elem_RegisterSurveyUI"><rect codeLine="4" fill="#F1F1F1" height="48" id="RegisterSurveyUI" rx="2.5" ry="2.5" style="stroke:#181818;stroke-width:0.5;" width="141" x="567.5" y="42"/><ellipse cx="582.5" cy="58" fill="#ADD1B2" rx="11" ry="11" style="stroke:#181818;stroke-width:1.0;"/><path d="M584.5,54.5 Q584.7031,54 584.9375,53.75 Q585.1719,53.5 585.4375,53.5 Q585.9063,53.5 586.2031,53.7813 Q586.5,54.0625 586.5,54.7188 L586.5,56.2813 Q586.5,56.9375 586.2188,57.2188 Q585.9375,57.5 585.5,57.5 Q585.1094,57.5 584.8594,57.3281 Q584.6094,57.1563 584.5,56.7031 Q584.4531,56.3906 584.2813,56.2188 Q583.9688,55.8906 583.4063,55.7031 Q582.8438,55.5 582.2813,55.5 Q581.5781,55.5 580.9844,55.7813 Q580.4063,56.0625 579.9531,56.6875 Q579.5,57.3125 579.5,58.1719 L579.5,59.0938 Q579.5,60.125 580.3438,60.8125 Q581.1875,61.5 582.6875,61.5 Q583.5781,61.5 584.2031,61.2969 Q584.5625,61.1875 584.9688,60.8281 Q585.2344,60.625 585.375,60.5625 Q585.5156,60.5 585.6875,60.5 Q586.0156,60.5 586.25,60.7656 Q586.5,61.0156 586.5,61.375 Q586.5,61.7188 586.1563,62.125 Q585.6563,62.7188 584.8594,63.0469 Q583.8125,63.5 582.5313,63.5 Q581.0313,63.5 579.8281,62.9063 Q578.8594,62.4375 578.1719,61.4219 Q577.5,60.4063 577.5,59.2031 L577.5,58.1094 Q577.5,56.8594 578.0938,55.7656 Q578.7031,54.6719 579.75,54.0938 Q580.8125,53.5 582,53.5 Q582.7188,53.5 583.3438,53.75 Q583.9688,54 584.5,54.5 Z " fill="#000000"/><text fill="#000000" font-family="sans-serif" font-size="14" lengthAdjust="spacing" textLength="109" x="596.5" y="63.7285">RegisterSurveyUI</text><line style="stroke:#181818;stroke-width:0.5;" x1="568.5" x2="707.5" y1="74" y2="74"/><line style="stroke:#181818;stroke-width:0.5;" x1="568.5" x2="707.5" y1="82" y2="82"/></g><!--MD5=[b5548ff325e82eba2cd4d0e3351d19e0]
class RegisterSurveyController--><g id="elem_RegisterSurveyController"><rect codeLine="8" fill="#F1F1F1" height="83.2188" id="RegisterSurveyController" rx="2.5" ry="2.5" style="stroke:#181818;stroke-width:0.5;" width="1231" x="22.5" y="166"/><ellipse cx="554.25" cy="182" fill="#ADD1B2" rx="11" ry="11" style="stroke:#181818;stroke-width:1.0;"/><path d="M556.25,178.5 Q556.4531,178 556.6875,177.75 Q556.9219,177.5 557.1875,177.5 Q557.6563,177.5 557.9531,177.7813 Q558.25,178.0625 558.25,178.7188 L558.25,180.2813 Q558.25,180.9375 557.9688,181.2188 Q557.6875,181.5 557.25,181.5 Q556.8594,181.5 556.6094,181.3281 Q556.3594,181.1563 556.25,180.7031 Q556.2031,180.3906 556.0313,180.2188 Q555.7188,179.8906 555.1563,179.7031 Q554.5938,179.5 554.0313,179.5 Q553.3281,179.5 552.7344,179.7813 Q552.1563,180.0625 551.7031,180.6875 Q551.25,181.3125 551.25,182.1719 L551.25,183.0938 Q551.25,184.125 552.0938,184.8125 Q552.9375,185.5 554.4375,185.5 Q555.3281,185.5 555.9531,185.2969 Q556.3125,185.1875 556.7188,184.8281 Q556.9844,184.625 557.125,184.5625 Q557.2656,184.5 557.4375,184.5 Q557.7656,184.5 558,184.7656 Q558.25,185.0156 558.25,185.375 Q558.25,185.7188 557.9063,186.125 Q557.4063,186.7188 556.6094,187.0469 Q555.5625,187.5 554.2813,187.5 Q552.7813,187.5 551.5781,186.9063 Q550.6094,186.4375 549.9219,185.4219 Q549.25,184.4063 549.25,183.2031 L549.25,182.1094 Q549.25,180.8594 549.8438,179.7656 Q550.4531,178.6719 551.5,178.0938 Q552.5625,177.5 553.75,177.5 Q554.4688,177.5 555.0938,177.75 Q555.7188,178 556.25,178.5 Z " fill="#000000"/><text fill="#000000" font-family="sans-serif" font-size="14" lengthAdjust="spacing" textLength="159" x="574.75" y="187.7285">RegisterSurveyController</text><line style="stroke:#181818;stroke-width:0.5;" x1="23.5" x2="1252.5" y1="198" y2="198"/><line style="stroke:#181818;stroke-width:0.5;" x1="23.5" x2="1252.5" y1="206" y2="206"/><text fill="#000000" font-family="sans-serif" font-size="14" lengthAdjust="spacing" textLength="1219" x="28.5" y="224.5332">+registerSurvey(String code, String description, Date finalDate, String title, String welcomeMessage,List&lt;Integer&gt; num_questions ,List&lt;SectionDTO&gt; sectionsListdto, List&lt;Question&gt; questionList)</text><text fill="#000000" font-family="sans-serif" font-size="14" lengthAdjust="spacing" textLength="169" x="28.5" y="242.1426">+registerSurvey(String file)</text></g><!--MD5=[09c4d209b07612e18b512840160e8db5]
class Grammar--><g id="elem_Grammar"><rect codeLine="12" fill="#F1F1F1" height="48" id="Grammar" rx="2.5" ry="2.5" style="stroke:#181818;stroke-width:0.5;" width="91" x="386.5" y="309"/><ellipse cx="401.5" cy="325" fill="#ADD1B2" rx="11" ry="11" style="stroke:#181818;stroke-width:1.0;"/><path d="M403.5,321.5 Q403.7031,321 403.9375,320.75 Q404.1719,320.5 404.4375,320.5 Q404.9063,320.5 405.2031,320.7813 Q405.5,321.0625 405.5,321.7188 L405.5,323.2813 Q405.5,323.9375 405.2188,324.2188 Q404.9375,324.5 404.5,324.5 Q404.1094,324.5 403.8594,324.3281 Q403.6094,324.1563 403.5,323.7031 Q403.4531,323.3906 403.2813,323.2188 Q402.9688,322.8906 402.4063,322.7031 Q401.8438,322.5 401.2813,322.5 Q400.5781,322.5 399.9844,322.7813 Q399.4063,323.0625 398.9531,323.6875 Q398.5,324.3125 398.5,325.1719 L398.5,326.0938 Q398.5,327.125 399.3438,327.8125 Q400.1875,328.5 401.6875,328.5 Q402.5781,328.5 403.2031,328.2969 Q403.5625,328.1875 403.9688,327.8281 Q404.2344,327.625 404.375,327.5625 Q404.5156,327.5 404.6875,327.5 Q405.0156,327.5 405.25,327.7656 Q405.5,328.0156 405.5,328.375 Q405.5,328.7188 405.1563,329.125 Q404.6563,329.7188 403.8594,330.0469 Q402.8125,330.5 401.5313,330.5 Q400.0313,330.5 398.8281,329.9063 Q397.8594,329.4375 397.1719,328.4219 Q396.5,327.4063 396.5,326.2031 L396.5,325.1094 Q396.5,323.8594 397.0938,322.7656 Q397.7031,321.6719 398.75,321.0938 Q399.8125,320.5 401,320.5 Q401.7188,320.5 402.3438,320.75 Q402.9688,321 403.5,321.5 Z " fill="#000000"/><text fill="#000000" font-family="sans-serif" font-size="14" lengthAdjust="spacing" textLength="59" x="415.5" y="330.7285">Grammar</text><line style="stroke:#181818;stroke-width:0.5;" x1="387.5" x2="476.5" y1="341" y2="341"/><line style="stroke:#181818;stroke-width:0.5;" x1="387.5" x2="476.5" y1="349" y2="349"/></g><!--MD5=[89835f43ccbacc82295c51dbfdfbe6e9]
class SectionDTO--><g id="elem_SectionDTO"><rect codeLine="17" fill="#F1F1F1" height="48" id="SectionDTO" rx="2.5" ry="2.5" style="stroke:#181818;stroke-width:0.5;" width="109" x="477.5" y="1394"/><ellipse cx="492.5" cy="1410" fill="#ADD1B2" rx="11" ry="11" style="stroke:#181818;stroke-width:1.0;"/><path d="M494.5,1406.5 Q494.7031,1406 494.9375,1405.75 Q495.1719,1405.5 495.4375,1405.5 Q495.9063,1405.5 496.2031,1405.7813 Q496.5,1406.0625 496.5,1406.7188 L496.5,1408.2813 Q496.5,1408.9375 496.2188,1409.2188 Q495.9375,1409.5 495.5,1409.5 Q495.1094,1409.5 494.8594,1409.3281 Q494.6094,1409.1563 494.5,1408.7031 Q494.4531,1408.3906 494.2813,1408.2188 Q493.9688,1407.8906 493.4063,1407.7031 Q492.8438,1407.5 492.2813,1407.5 Q491.5781,1407.5 490.9844,1407.7813 Q490.4063,1408.0625 489.9531,1408.6875 Q489.5,1409.3125 489.5,1410.1719 L489.5,1411.0938 Q489.5,1412.125 490.3438,1412.8125 Q491.1875,1413.5 492.6875,1413.5 Q493.5781,1413.5 494.2031,1413.2969 Q494.5625,1413.1875 494.9688,1412.8281 Q495.2344,1412.625 495.375,1412.5625 Q495.5156,1412.5 495.6875,1412.5 Q496.0156,1412.5 496.25,1412.7656 Q496.5,1413.0156 496.5,1413.375 Q496.5,1413.7188 496.1563,1414.125 Q495.6563,1414.7188 494.8594,1415.0469 Q493.8125,1415.5 492.5313,1415.5 Q491.0313,1415.5 489.8281,1414.9063 Q488.8594,1414.4375 488.1719,1413.4219 Q487.5,1412.4063 487.5,1411.2031 L487.5,1410.1094 Q487.5,1408.8594 488.0938,1407.7656 Q488.7031,1406.6719 489.75,1406.0938 Q490.8125,1405.5 492,1405.5 Q492.7188,1405.5 493.3438,1405.75 Q493.9688,1406 494.5,1406.5 Z " fill="#000000"/><text fill="#000000" font-family="sans-serif" font-size="14" lengthAdjust="spacing" textLength="77" x="506.5" y="1415.7285">SectionDTO</text><line style="stroke:#181818;stroke-width:0.5;" x1="478.5" x2="585.5" y1="1426" y2="1426"/><line style="stroke:#181818;stroke-width:0.5;" x1="478.5" x2="585.5" y1="1434" y2="1434"/></g><!--MD5=[3145b4be7c5005b24cda6f18a1d594b0]
class Survey--><g id="elem_Survey"><rect codeLine="23" fill="#F1F1F1" height="65.6094" id="Survey" rx="2.5" ry="2.5" style="stroke:#181818;stroke-width:0.5;" width="76" x="655" y="1011"/><ellipse cx="670" cy="1027" fill="#ADD1B2" rx="11" ry="11" style="stroke:#181818;stroke-width:1.0;"/><path d="M672,1023.5 Q672.2031,1023 672.4375,1022.75 Q672.6719,1022.5 672.9375,1022.5 Q673.4063,1022.5 673.7031,1022.7813 Q674,1023.0625 674,1023.7188 L674,1025.2813 Q674,1025.9375 673.7188,1026.2188 Q673.4375,1026.5 673,1026.5 Q672.6094,1026.5 672.3594,1026.3281 Q672.1094,1026.1563 672,1025.7031 Q671.9531,1025.3906 671.7813,1025.2188 Q671.4688,1024.8906 670.9063,1024.7031 Q670.3438,1024.5 669.7813,1024.5 Q669.0781,1024.5 668.4844,1024.7813 Q667.9063,1025.0625 667.4531,1025.6875 Q667,1026.3125 667,1027.1719 L667,1028.0938 Q667,1029.125 667.8438,1029.8125 Q668.6875,1030.5 670.1875,1030.5 Q671.0781,1030.5 671.7031,1030.2969 Q672.0625,1030.1875 672.4688,1029.8281 Q672.7344,1029.625 672.875,1029.5625 Q673.0156,1029.5 673.1875,1029.5 Q673.5156,1029.5 673.75,1029.7656 Q674,1030.0156 674,1030.375 Q674,1030.7188 673.6563,1031.125 Q673.1563,1031.7188 672.3594,1032.0469 Q671.3125,1032.5 670.0313,1032.5 Q668.5313,1032.5 667.3281,1031.9063 Q666.3594,1031.4375 665.6719,1030.4219 Q665,1029.4063 665,1028.2031 L665,1027.1094 Q665,1025.8594 665.5938,1024.7656 Q666.2031,1023.6719 667.25,1023.0938 Q668.3125,1022.5 669.5,1022.5 Q670.2188,1022.5 670.8438,1022.75 Q671.4688,1023 672,1023.5 Z " fill="#000000"/><text fill="#000000" font-family="sans-serif" font-size="14" lengthAdjust="spacing" textLength="44" x="684" y="1032.7285">Survey</text><line style="stroke:#181818;stroke-width:0.5;" x1="656" x2="730" y1="1043" y2="1043"/><line style="stroke:#181818;stroke-width:0.5;" x1="656" x2="730" y1="1051" y2="1051"/><text fill="#000000" font-family="sans-serif" font-size="14" lengthAdjust="spacing" textLength="58" x="661" y="1069.5332">+create()</text></g><!--MD5=[09a53695e98d4f26e7a054522080af08]
class Section--><g id="elem_Section"><rect codeLine="26" fill="#F1F1F1" height="65.6094" id="Section" rx="2.5" ry="2.5" style="stroke:#181818;stroke-width:0.5;" width="79" x="649.5" y="1198"/><ellipse cx="664.5" cy="1214" fill="#ADD1B2" rx="11" ry="11" style="stroke:#181818;stroke-width:1.0;"/><path d="M666.5,1210.5 Q666.7031,1210 666.9375,1209.75 Q667.1719,1209.5 667.4375,1209.5 Q667.9063,1209.5 668.2031,1209.7813 Q668.5,1210.0625 668.5,1210.7188 L668.5,1212.2813 Q668.5,1212.9375 668.2188,1213.2188 Q667.9375,1213.5 667.5,1213.5 Q667.1094,1213.5 666.8594,1213.3281 Q666.6094,1213.1563 666.5,1212.7031 Q666.4531,1212.3906 666.2813,1212.2188 Q665.9688,1211.8906 665.4063,1211.7031 Q664.8438,1211.5 664.2813,1211.5 Q663.5781,1211.5 662.9844,1211.7813 Q662.4063,1212.0625 661.9531,1212.6875 Q661.5,1213.3125 661.5,1214.1719 L661.5,1215.0938 Q661.5,1216.125 662.3438,1216.8125 Q663.1875,1217.5 664.6875,1217.5 Q665.5781,1217.5 666.2031,1217.2969 Q666.5625,1217.1875 666.9688,1216.8281 Q667.2344,1216.625 667.375,1216.5625 Q667.5156,1216.5 667.6875,1216.5 Q668.0156,1216.5 668.25,1216.7656 Q668.5,1217.0156 668.5,1217.375 Q668.5,1217.7188 668.1563,1218.125 Q667.6563,1218.7188 666.8594,1219.0469 Q665.8125,1219.5 664.5313,1219.5 Q663.0313,1219.5 661.8281,1218.9063 Q660.8594,1218.4375 660.1719,1217.4219 Q659.5,1216.4063 659.5,1215.2031 L659.5,1214.1094 Q659.5,1212.8594 660.0938,1211.7656 Q660.7031,1210.6719 661.75,1210.0938 Q662.8125,1209.5 664,1209.5 Q664.7188,1209.5 665.3438,1209.75 Q665.9688,1210 666.5,1210.5 Z " fill="#000000"/><text fill="#000000" font-family="sans-serif" font-size="14" lengthAdjust="spacing" textLength="47" x="678.5" y="1219.7285">Section</text><line style="stroke:#181818;stroke-width:0.5;" x1="650.5" x2="727.5" y1="1230" y2="1230"/><line style="stroke:#181818;stroke-width:0.5;" x1="650.5" x2="727.5" y1="1238" y2="1238"/><text fill="#000000" font-family="sans-serif" font-size="14" lengthAdjust="spacing" textLength="58" x="655.5" y="1256.5332">+create()</text></g><!--MD5=[fc7123defb831ecdd44b2d9bcef6cceb]
class Question--><g id="elem_Question"><rect codeLine="29" fill="#F1F1F1" height="65.6094" id="Question" rx="2.5" ry="2.5" style="stroke:#181818;stroke-width:0.5;" width="89" x="648.5" y="1385"/><ellipse cx="663.5" cy="1401" fill="#ADD1B2" rx="11" ry="11" style="stroke:#181818;stroke-width:1.0;"/><path d="M665.5,1397.5 Q665.7031,1397 665.9375,1396.75 Q666.1719,1396.5 666.4375,1396.5 Q666.9063,1396.5 667.2031,1396.7813 Q667.5,1397.0625 667.5,1397.7188 L667.5,1399.2813 Q667.5,1399.9375 667.2188,1400.2188 Q666.9375,1400.5 666.5,1400.5 Q666.1094,1400.5 665.8594,1400.3281 Q665.6094,1400.1563 665.5,1399.7031 Q665.4531,1399.3906 665.2813,1399.2188 Q664.9688,1398.8906 664.4063,1398.7031 Q663.8438,1398.5 663.2813,1398.5 Q662.5781,1398.5 661.9844,1398.7813 Q661.4063,1399.0625 660.9531,1399.6875 Q660.5,1400.3125 660.5,1401.1719 L660.5,1402.0938 Q660.5,1403.125 661.3438,1403.8125 Q662.1875,1404.5 663.6875,1404.5 Q664.5781,1404.5 665.2031,1404.2969 Q665.5625,1404.1875 665.9688,1403.8281 Q666.2344,1403.625 666.375,1403.5625 Q666.5156,1403.5 666.6875,1403.5 Q667.0156,1403.5 667.25,1403.7656 Q667.5,1404.0156 667.5,1404.375 Q667.5,1404.7188 667.1563,1405.125 Q666.6563,1405.7188 665.8594,1406.0469 Q664.8125,1406.5 663.5313,1406.5 Q662.0313,1406.5 660.8281,1405.9063 Q659.8594,1405.4375 659.1719,1404.4219 Q658.5,1403.4063 658.5,1402.2031 L658.5,1401.1094 Q658.5,1399.8594 659.0938,1398.7656 Q659.7031,1397.6719 660.75,1397.0938 Q661.8125,1396.5 663,1396.5 Q663.7188,1396.5 664.3438,1396.75 Q664.9688,1397 665.5,1397.5 Z " fill="#000000"/><text fill="#000000" font-family="sans-serif" font-size="14" lengthAdjust="spacing" textLength="57" x="677.5" y="1406.7285">Question</text><line style="stroke:#181818;stroke-width:0.5;" x1="649.5" x2="736.5" y1="1417" y2="1417"/><line style="stroke:#181818;stroke-width:0.5;" x1="649.5" x2="736.5" y1="1425" y2="1425"/><text fill="#000000" font-family="sans-serif" font-size="14" lengthAdjust="spacing" textLength="58" x="654.5" y="1443.5332">+create()</text></g><!--MD5=[e8c189551b7885b999ad7cefb30fc2a3]
class PersistenceContext--><g id="elem_PersistenceContext"><rect codeLine="36" fill="#F1F1F1" height="65.6094" id="PersistenceContext" rx="2.5" ry="2.5" style="stroke:#181818;stroke-width:0.5;" width="154" x="726" y="433"/><ellipse cx="741" cy="449" fill="#ADD1B2" rx="11" ry="11" style="stroke:#181818;stroke-width:1.0;"/><path d="M743,445.5 Q743.2031,445 743.4375,444.75 Q743.6719,444.5 743.9375,444.5 Q744.4063,444.5 744.7031,444.7813 Q745,445.0625 745,445.7188 L745,447.2813 Q745,447.9375 744.7188,448.2188 Q744.4375,448.5 744,448.5 Q743.6094,448.5 743.3594,448.3281 Q743.1094,448.1563 743,447.7031 Q742.9531,447.3906 742.7813,447.2188 Q742.4688,446.8906 741.9063,446.7031 Q741.3438,446.5 740.7813,446.5 Q740.0781,446.5 739.4844,446.7813 Q738.9063,447.0625 738.4531,447.6875 Q738,448.3125 738,449.1719 L738,450.0938 Q738,451.125 738.8438,451.8125 Q739.6875,452.5 741.1875,452.5 Q742.0781,452.5 742.7031,452.2969 Q743.0625,452.1875 743.4688,451.8281 Q743.7344,451.625 743.875,451.5625 Q744.0156,451.5 744.1875,451.5 Q744.5156,451.5 744.75,451.7656 Q745,452.0156 745,452.375 Q745,452.7188 744.6563,453.125 Q744.1563,453.7188 743.3594,454.0469 Q742.3125,454.5 741.0313,454.5 Q739.5313,454.5 738.3281,453.9063 Q737.3594,453.4375 736.6719,452.4219 Q736,451.4063 736,450.2031 L736,449.1094 Q736,447.8594 736.5938,446.7656 Q737.2031,445.6719 738.25,445.0938 Q739.3125,444.5 740.5,444.5 Q741.2188,444.5 741.8438,444.75 Q742.4688,445 743,445.5 Z " fill="#000000"/><text fill="#000000" font-family="sans-serif" font-size="14" lengthAdjust="spacing" textLength="122" x="755" y="454.7285">PersistenceContext</text><line style="stroke:#181818;stroke-width:0.5;" x1="727" x2="879" y1="465" y2="465"/><line style="stroke:#181818;stroke-width:0.5;" x1="727" x2="879" y1="473" y2="473"/><text fill="#000000" font-family="sans-serif" font-size="14" lengthAdjust="spacing" textLength="92" x="732" y="491.5332">+repositories()</text></g><!--MD5=[48590afff58a68e2fcba47824d6f8a11]
class RepositoryFactory--><g id="elem_RepositoryFactory"><rect codeLine="42" fill="#F1F1F1" height="65.6094" id="RepositoryFactory" rx="2.5" ry="2.5" style="stroke:#181818;stroke-width:0.5;" width="148" x="728" y="620"/><ellipse cx="743" cy="636" fill="#ADD1B2" rx="11" ry="11" style="stroke:#181818;stroke-width:1.0;"/><path d="M745,632.5 Q745.2031,632 745.4375,631.75 Q745.6719,631.5 745.9375,631.5 Q746.4063,631.5 746.7031,631.7813 Q747,632.0625 747,632.7188 L747,634.2813 Q747,634.9375 746.7188,635.2188 Q746.4375,635.5 746,635.5 Q745.6094,635.5 745.3594,635.3281 Q745.1094,635.1563 745,634.7031 Q744.9531,634.3906 744.7813,634.2188 Q744.4688,633.8906 743.9063,633.7031 Q743.3438,633.5 742.7813,633.5 Q742.0781,633.5 741.4844,633.7813 Q740.9063,634.0625 740.4531,634.6875 Q740,635.3125 740,636.1719 L740,637.0938 Q740,638.125 740.8438,638.8125 Q741.6875,639.5 743.1875,639.5 Q744.0781,639.5 744.7031,639.2969 Q745.0625,639.1875 745.4688,638.8281 Q745.7344,638.625 745.875,638.5625 Q746.0156,638.5 746.1875,638.5 Q746.5156,638.5 746.75,638.7656 Q747,639.0156 747,639.375 Q747,639.7188 746.6563,640.125 Q746.1563,640.7188 745.3594,641.0469 Q744.3125,641.5 743.0313,641.5 Q741.5313,641.5 740.3281,640.9063 Q739.3594,640.4375 738.6719,639.4219 Q738,638.4063 738,637.2031 L738,636.1094 Q738,634.8594 738.5938,633.7656 Q739.2031,632.6719 740.25,632.0938 Q741.3125,631.5 742.5,631.5 Q743.2188,631.5 743.8438,631.75 Q744.4688,632 745,632.5 Z " fill="#000000"/><text fill="#000000" font-family="sans-serif" font-size="14" lengthAdjust="spacing" textLength="116" x="757" y="641.7285">RepositoryFactory</text><line style="stroke:#181818;stroke-width:0.5;" x1="729" x2="875" y1="652" y2="652"/><line style="stroke:#181818;stroke-width:0.5;" x1="729" x2="875" y1="660" y2="660"/><text fill="#000000" font-family="sans-serif" font-size="14" lengthAdjust="spacing" textLength="58" x="734" y="678.5332">+create()</text></g><!--MD5=[ca0abe252586467d5b989c6b12cf24dd]
class SurveyRepository--><g id="elem_SurveyRepository"><rect codeLine="48" fill="#F1F1F1" height="83.2188" id="SurveyRepository" rx="2.5" ry="2.5" style="stroke:#181818;stroke-width:0.5;" width="144" x="727" y="807"/><ellipse cx="742" cy="823" fill="#ADD1B2" rx="11" ry="11" style="stroke:#181818;stroke-width:1.0;"/><path d="M744,819.5 Q744.2031,819 744.4375,818.75 Q744.6719,818.5 744.9375,818.5 Q745.4063,818.5 745.7031,818.7813 Q746,819.0625 746,819.7188 L746,821.2813 Q746,821.9375 745.7188,822.2188 Q745.4375,822.5 745,822.5 Q744.6094,822.5 744.3594,822.3281 Q744.1094,822.1563 744,821.7031 Q743.9531,821.3906 743.7813,821.2188 Q743.4688,820.8906 742.9063,820.7031 Q742.3438,820.5 741.7813,820.5 Q741.0781,820.5 740.4844,820.7813 Q739.9063,821.0625 739.4531,821.6875 Q739,822.3125 739,823.1719 L739,824.0938 Q739,825.125 739.8438,825.8125 Q740.6875,826.5 742.1875,826.5 Q743.0781,826.5 743.7031,826.2969 Q744.0625,826.1875 744.4688,825.8281 Q744.7344,825.625 744.875,825.5625 Q745.0156,825.5 745.1875,825.5 Q745.5156,825.5 745.75,825.7656 Q746,826.0156 746,826.375 Q746,826.7188 745.6563,827.125 Q745.1563,827.7188 744.3594,828.0469 Q743.3125,828.5 742.0313,828.5 Q740.5313,828.5 739.3281,827.9063 Q738.3594,827.4375 737.6719,826.4219 Q737,825.4063 737,824.2031 L737,823.1094 Q737,821.8594 737.5938,820.7656 Q738.2031,819.6719 739.25,819.0938 Q740.3125,818.5 741.5,818.5 Q742.2188,818.5 742.8438,818.75 Q743.4688,819 744,819.5 Z " fill="#000000"/><text fill="#000000" font-family="sans-serif" font-size="14" lengthAdjust="spacing" textLength="112" x="756" y="828.7285">SurveyRepository</text><line style="stroke:#181818;stroke-width:0.5;" x1="728" x2="870" y1="839" y2="839"/><line style="stroke:#181818;stroke-width:0.5;" x1="728" x2="870" y1="847" y2="847"/><text fill="#000000" font-family="sans-serif" font-size="14" lengthAdjust="spacing" textLength="58" x="733" y="865.5332">+create()</text><text fill="#000000" font-family="sans-serif" font-size="14" lengthAdjust="spacing" textLength="48" x="733" y="883.1426">+save()</text></g><!--MD5=[76d1197dd20f9f42c9470e39119681bb]
link RegisterSurveyUI to RegisterSurveyController--><g id="link_RegisterSurveyUI_RegisterSurveyController"><path codeLine="54" d="M638,90.04 C638,109.17 638,136.99 638,160.64 " fill="none" id="RegisterSurveyUI-to-RegisterSurveyController" style="stroke:#181818;stroke-width:1.0;stroke-dasharray:7.0,7.0;"/><polygon fill="#181818" points="638,165.93,642,156.93,638,160.93,634,156.93,638,165.93" style="stroke:#181818;stroke-width:1.0;"/></g><!--MD5=[7a52bd6f15d4b9e5271851ebe2a2465b]
link RegisterSurveyController to PersistenceContext--><g id="link_RegisterSurveyController_PersistenceContext"><path codeLine="55" d="M664.14,249.14 C695.84,298.41 748.78,380.71 779.32,428.19 " fill="none" id="RegisterSurveyController-to-PersistenceContext" style="stroke:#181818;stroke-width:1.0;stroke-dasharray:7.0,7.0;"/><polygon fill="#181818" points="782.2,432.67,780.6979,422.9364,779.4962,428.4641,773.9685,427.2624,782.2,432.67" style="stroke:#181818;stroke-width:1.0;"/></g><!--MD5=[29b96aef3bd939de0e061480b3ec4e03]
link RegisterSurveyController to Section--><g id="link_RegisterSurveyController_Section"><path codeLine="56" d="M628.73,249.12 C618.06,299.49 602,388.11 602,465 C602,465 602,465 602,1045 C602,1100.76 634.77,1157.76 660.09,1193.48 " fill="none" id="RegisterSurveyController-to-Section" style="stroke:#181818;stroke-width:1.0;stroke-dasharray:7.0,7.0;"/><polygon fill="#181818" points="663.13,1197.72,661.1281,1188.0767,660.213,1193.6591,654.6307,1192.7439,663.13,1197.72" style="stroke:#181818;stroke-width:1.0;"/></g><!--MD5=[59a7f4e90921559661d1dee4a411b63d]
link RegisterSurveyController to SectionDTO--><g id="link_RegisterSurveyController_SectionDTO"><path codeLine="57" d="M609.04,249.42 C577.36,298.3 531,383.7 531,465 C531,465 531,465 531,1232 C531,1287.56 531.46,1352.51 531.75,1388.79 " fill="none" id="RegisterSurveyController-to-SectionDTO" style="stroke:#181818;stroke-width:1.0;stroke-dasharray:7.0,7.0;"/><polygon fill="#181818" points="531.8,1393.93,535.7227,1384.896,531.7571,1388.9302,527.723,1384.9646,531.8,1393.93" style="stroke:#181818;stroke-width:1.0;"/></g><!--MD5=[dd09985f740f7db0b9399ae0ae598175]
link RegisterSurveyController to Question--><g id="link_RegisterSurveyController_Question"><path codeLine="58" d="M742.42,249.03 C827.28,289.59 933,360.99 933,465 C933,465 933,465 933,1232 C933,1327.3 812.82,1380.36 742.55,1403.24 " fill="none" id="RegisterSurveyController-to-Question" style="stroke:#181818;stroke-width:1.0;stroke-dasharray:7.0,7.0;"/><polygon fill="#181818" points="737.58,1404.84,747.3722,1405.895,742.3403,1403.3104,744.9249,1398.2785,737.58,1404.84" style="stroke:#181818;stroke-width:1.0;"/></g><!--MD5=[9710c5cb4a55f7481c1b3a8b89af963c]
link RegisterSurveyController to Grammar--><g id="link_RegisterSurveyController_Grammar"><path codeLine="59" d="M570.26,249.11 C538.87,267.93 502.51,289.73 474.96,306.24 " fill="none" id="RegisterSurveyController-to-Grammar" style="stroke:#181818;stroke-width:1.0;stroke-dasharray:7.0,7.0;"/><polygon fill="#181818" points="470.62,308.85,480.3954,307.6495,474.9075,306.2775,476.2795,300.7896,470.62,308.85" style="stroke:#181818;stroke-width:1.0;"/></g><!--MD5=[754b775031405e096442b27febffa290]
link PersistenceContext to RepositoryFactory--><g id="link_PersistenceContext_RepositoryFactory"><path codeLine="60" d="M802.83,499.22 C802.65,531.36 802.39,580.68 802.2,614.54 " fill="none" id="PersistenceContext-to-RepositoryFactory" style="stroke:#181818;stroke-width:1.0;stroke-dasharray:7.0,7.0;"/><polygon fill="#181818" points="802.17,619.83,806.1957,610.8415,802.1843,614.83,798.1957,610.8186,802.17,619.83" style="stroke:#181818;stroke-width:1.0;"/></g><!--MD5=[b2261c22df95718c10e32de77a70473c]
link RepositoryFactory to SurveyRepository--><g id="link_RepositoryFactory_SurveyRepository"><path codeLine="61" d="M801.5,686.39 C801.01,717.97 800.26,766.3 799.71,801.79 " fill="none" id="RepositoryFactory-to-SurveyRepository" style="stroke:#181818;stroke-width:1.0;stroke-dasharray:7.0,7.0;"/><polygon fill="#181818" points="799.63,806.93,803.7582,797.9881,799.7014,801.9305,795.759,797.8738,799.63,806.93" style="stroke:#181818;stroke-width:1.0;"/></g><!--MD5=[912da1c7e1b555381036141150726338]
link SurveyRepository to Survey--><g id="link_SurveyRepository_Survey"><path codeLine="62" d="M776.78,890.06 C758.03,924.29 731.42,972.86 713.25,1006.03 " fill="none" id="SurveyRepository-to-Survey" style="stroke:#181818;stroke-width:1.0;stroke-dasharray:7.0,7.0;"/><polygon fill="#181818" points="710.64,1010.81,718.4694,1004.8351,713.0403,1006.4238,711.4515,1000.9946,710.64,1010.81" style="stroke:#181818;stroke-width:1.0;"/></g><!--MD5=[cccff69ed31c01bcd75b3d6ff5c17afb]
link RegisterSurveyController to Survey--><g id="link_RegisterSurveyController_Survey"><path codeLine="63" d="M647.01,249.14 C657.38,299.52 673,388.15 673,465 C673,465 673,465 673,849.5 C673,904.12 680.98,966.96 686.86,1005.83 " fill="none" id="RegisterSurveyController-to-Survey" style="stroke:#181818;stroke-width:1.0;stroke-dasharray:7.0,7.0;"/><polygon fill="#181818" points="687.64,1010.92,690.2312,1001.4181,686.8829,1005.9776,682.3234,1002.6294,687.64,1010.92" style="stroke:#181818;stroke-width:1.0;"/></g><!--MD5=[08f5806e336f712cdf08037e9415a76d]
link Survey to Section--><g id="link_Survey_Section"><path codeLine="64" d="M692.3,1077.22 C691.61,1109.36 690.54,1158.68 689.81,1192.54 " fill="none" id="Survey-to-Section" style="stroke:#181818;stroke-width:1.0;stroke-dasharray:7.0,7.0;"/><polygon fill="#181818" points="689.7,1197.83,693.8792,1188.9118,689.8,1192.831,685.8808,1188.7518,689.7,1197.83" style="stroke:#181818;stroke-width:1.0;"/></g><!--MD5=[9b0b65ccc49b55b55dd829eeb24bdc44]
link Section to SectionDTO--><g id="link_Section_SectionDTO"><path codeLine="65" d="M661.65,1264.22 C631.43,1299.84 583.29,1356.57 554.95,1389.96 " fill="none" id="Section-to-SectionDTO" style="stroke:#181818;stroke-width:1.0;stroke-dasharray:7.0,7.0;"/><polygon fill="#181818" points="551.6,1393.91,560.4771,1389.6441,554.8387,1390.1007,554.3821,1384.4623,551.6,1393.91" style="stroke:#181818;stroke-width:1.0;"/></g><!--MD5=[87fa8ff7d398728728a611d860795352]
link Section to Question--><g id="link_Section_Question"><path codeLine="66" d="M689.7,1264.22 C690.39,1296.36 691.46,1345.68 692.19,1379.54 " fill="none" id="Section-to-Question" style="stroke:#181818;stroke-width:1.0;stroke-dasharray:7.0,7.0;"/><polygon fill="#181818" points="692.3,1384.83,696.1192,1375.7518,692.2,1379.831,688.1208,1375.9118,692.3,1384.83" style="stroke:#181818;stroke-width:1.0;"/></g><!--MD5=[ca109aba409eaa41f1b22f0c78d7bd79]
@startuml
skinparam classAttributeIconSize 0

package "Presentation"{
class RegisterSurveyUI
}

package "Application"{
class RegisterSurveyController{
+registerSurvey(String code, String description, Date finalDate, String title, String welcomeMessage,List<Integer> num_questions ,List<SectionDTO> sectionsListdto, List<Question> questionList)
+registerSurvey(String file)
}
class Grammar{
}
}

package "DTO"{
class SectionDTO{
}
}


package "Domain"{
class Survey{
+create()
}
class Section{
+create()
}
class Question{
+create()
}
}


package "Persistence"{
class PersistenceContext{
+repositories()
}
}

package "Factory"{
class RepositoryFactory{
+create()
}
}

package "Repository"{
class SurveyRepository{
+create()
+save()
}
}

RegisterSurveyUI .-> RegisterSurveyController
RegisterSurveyController .- -> PersistenceContext
RegisterSurveyController .- -> Section
RegisterSurveyController .- -> SectionDTO
RegisterSurveyController .- -> Question
RegisterSurveyController .-> Grammar
PersistenceContext .- -> RepositoryFactory
RepositoryFactory .- -> SurveyRepository
SurveyRepository .- -> Survey
RegisterSurveyController .- -> Survey
Survey .- -> Section
Section .- -> SectionDTO
Section .- -> Question


@enduml

PlantUML version 1.2022.4(Sat Apr 09 14:29:17 BST 2022)
(GPL source distribution)
Java Runtime: OpenJDK Runtime Environment
JVM: OpenJDK 64-Bit Server VM
Default Encoding: Cp1252
Language: pt
Country: PT
--></g></svg>