<?xml version="1.0" encoding="UTF-8" standalone="no"?><svg xmlns="http://www.w3.org/2000/svg" xmlns:xlink="http://www.w3.org/1999/xlink" contentStyleType="text/css" height="1358px" preserveAspectRatio="none" style="width:821px;height:1358px;background:#FFFFFF;" version="1.1" viewBox="0 0 821 1358" width="821px" zoomAndPan="magnify"><defs/><g><!--MD5=[8fd473fd151a2794da4f2c8684676405]
cluster Presentation--><g id="cluster_Presentation"><path d="M331.5,6 L422.5,6 A3.75,3.75 0 0 1 425,8.5 L432,29.6094 L494.5,29.6094 A2.5,2.5 0 0 1 497,32.1094 L497,103.5 A2.5,2.5 0 0 1 494.5,106 L331.5,106 A2.5,2.5 0 0 1 329,103.5 L329,8.5 A2.5,2.5 0 0 1 331.5,6 " style="stroke:#000000;stroke-width:1.5;fill:none;"/><line style="stroke:#000000;stroke-width:1.5;fill:none;" x1="329" x2="432" y1="29.6094" y2="29.6094"/><text fill="#000000" font-family="sans-serif" font-size="14" font-weight="bold" lengthAdjust="spacing" textLength="90" x="333" y="22.5332">Presentation</text></g><!--MD5=[d64883541e3d62e3241c4d12decf100d]
cluster Application--><g id="cluster_Application"><path d="M14.5,130 L93.5,130 A3.75,3.75 0 0 1 96,132.5 L103,153.6094 L811.5,153.6094 A2.5,2.5 0 0 1 814,156.1094 L814,245.5 A2.5,2.5 0 0 1 811.5,248 L14.5,248 A2.5,2.5 0 0 1 12,245.5 L12,132.5 A2.5,2.5 0 0 1 14.5,130 " style="stroke:#000000;stroke-width:1.5;fill:none;"/><line style="stroke:#000000;stroke-width:1.5;fill:none;" x1="12" x2="103" y1="153.6094" y2="153.6094"/><text fill="#000000" font-family="sans-serif" font-size="14" font-weight="bold" lengthAdjust="spacing" textLength="78" x="16" y="146.5332">Application</text></g><!--MD5=[121a8bf1197281ab89ed693fab589f94]
cluster Domain--><g id="cluster_Domain"><path d="M443.5,913 L496.5,913 A3.75,3.75 0 0 1 499,915.5 L506,936.6094 L576.5,936.6094 A2.5,2.5 0 0 1 579,939.1094 L579,1348.5 A2.5,2.5 0 0 1 576.5,1351 L443.5,1351 A2.5,2.5 0 0 1 441,1348.5 L441,915.5 A2.5,2.5 0 0 1 443.5,913 " style="stroke:#000000;stroke-width:1.5;fill:none;"/><line style="stroke:#000000;stroke-width:1.5;fill:none;" x1="441" x2="506" y1="936.6094" y2="936.6094"/><text fill="#000000" font-family="sans-serif" font-size="14" font-weight="bold" lengthAdjust="spacing" textLength="52" x="445" y="929.5332">Domain</text></g><!--MD5=[bc6b40dadbf86ab6a0c8405a467a48af]
cluster Persistence--><g id="cluster_Persistence"><path d="M187.5,317 L272.5,317 A3.75,3.75 0 0 1 275,319.5 L282,340.6094 L368.5,340.6094 A2.5,2.5 0 0 1 371,343.1094 L371,432.5 A2.5,2.5 0 0 1 368.5,435 L187.5,435 A2.5,2.5 0 0 1 185,432.5 L185,319.5 A2.5,2.5 0 0 1 187.5,317 " style="stroke:#000000;stroke-width:1.5;fill:none;"/><line style="stroke:#000000;stroke-width:1.5;fill:none;" x1="185" x2="282" y1="340.6094" y2="340.6094"/><text fill="#000000" font-family="sans-serif" font-size="14" font-weight="bold" lengthAdjust="spacing" textLength="84" x="189" y="333.5332">Persistence</text></g><!--MD5=[0d5799440b3bfefd92b00abfcd2c79b9]
cluster Factory--><g id="cluster_Factory"><path d="M185.5,504 L238.5,504 A3.75,3.75 0 0 1 241,506.5 L248,527.6094 L360.5,527.6094 A2.5,2.5 0 0 1 363,530.1094 L363,619.5 A2.5,2.5 0 0 1 360.5,622 L185.5,622 A2.5,2.5 0 0 1 183,619.5 L183,506.5 A2.5,2.5 0 0 1 185.5,504 " style="stroke:#000000;stroke-width:1.5;fill:none;"/><line style="stroke:#000000;stroke-width:1.5;fill:none;" x1="183" x2="248" y1="527.6094" y2="527.6094"/><text fill="#000000" font-family="sans-serif" font-size="14" font-weight="bold" lengthAdjust="spacing" textLength="52" x="187" y="520.5332">Factory</text></g><!--MD5=[71971f99a41bb66cf321ce46bb59f738]
cluster Repository--><g id="cluster_Repository"><path d="M8.5,691 L85.5,691 A3.75,3.75 0 0 1 88,693.5 L95,714.6094 L373.5,714.6094 A2.5,2.5 0 0 1 376,717.1094 L376,841.5 A2.5,2.5 0 0 1 373.5,844 L8.5,844 A2.5,2.5 0 0 1 6,841.5 L6,693.5 A2.5,2.5 0 0 1 8.5,691 " style="stroke:#000000;stroke-width:1.5;fill:none;"/><line style="stroke:#000000;stroke-width:1.5;fill:none;" x1="6" x2="95" y1="714.6094" y2="714.6094"/><text fill="#000000" font-family="sans-serif" font-size="14" font-weight="bold" lengthAdjust="spacing" textLength="76" x="10" y="707.5332">Repository</text></g><!--MD5=[47bc46f73210ae9de136f250d636c983]
class ConfigureAGVUI--><g id="elem_ConfigureAGVUI"><rect codeLine="4" fill="#F1F1F1" height="48" id="ConfigureAGVUI" rx="2.5" ry="2.5" style="stroke:#181818;stroke-width:0.5;" width="135" x="345.5" y="42"/><ellipse cx="360.5" cy="58" fill="#ADD1B2" rx="11" ry="11" style="stroke:#181818;stroke-width:1.0;"/><path d="M362.5,54.5 Q362.7031,54 362.9375,53.75 Q363.1719,53.5 363.4375,53.5 Q363.9063,53.5 364.2031,53.7813 Q364.5,54.0625 364.5,54.7188 L364.5,56.2813 Q364.5,56.9375 364.2188,57.2188 Q363.9375,57.5 363.5,57.5 Q363.1094,57.5 362.8594,57.3281 Q362.6094,57.1563 362.5,56.7031 Q362.4531,56.3906 362.2813,56.2188 Q361.9688,55.8906 361.4063,55.7031 Q360.8438,55.5 360.2813,55.5 Q359.5781,55.5 358.9844,55.7813 Q358.4063,56.0625 357.9531,56.6875 Q357.5,57.3125 357.5,58.1719 L357.5,59.0938 Q357.5,60.125 358.3438,60.8125 Q359.1875,61.5 360.6875,61.5 Q361.5781,61.5 362.2031,61.2969 Q362.5625,61.1875 362.9688,60.8281 Q363.2344,60.625 363.375,60.5625 Q363.5156,60.5 363.6875,60.5 Q364.0156,60.5 364.25,60.7656 Q364.5,61.0156 364.5,61.375 Q364.5,61.7188 364.1563,62.125 Q363.6563,62.7188 362.8594,63.0469 Q361.8125,63.5 360.5313,63.5 Q359.0313,63.5 357.8281,62.9063 Q356.8594,62.4375 356.1719,61.4219 Q355.5,60.4063 355.5,59.2031 L355.5,58.1094 Q355.5,56.8594 356.0938,55.7656 Q356.7031,54.6719 357.75,54.0938 Q358.8125,53.5 360,53.5 Q360.7188,53.5 361.3438,53.75 Q361.9688,54 362.5,54.5 Z " fill="#000000"/><text fill="#000000" font-family="sans-serif" font-size="14" lengthAdjust="spacing" textLength="103" x="374.5" y="63.7285">ConfigureAGVUI</text><line style="stroke:#181818;stroke-width:0.5;" x1="346.5" x2="479.5" y1="74" y2="74"/><line style="stroke:#181818;stroke-width:0.5;" x1="346.5" x2="479.5" y1="82" y2="82"/></g><!--MD5=[4a05030ac364552cd297a89687ca123f]
class ConfigureAGVController--><g id="elem_ConfigureAGVController"><rect codeLine="8" fill="#F1F1F1" height="65.6094" id="ConfigureAGVController" rx="2.5" ry="2.5" style="stroke:#181818;stroke-width:0.5;" width="770" x="28" y="166"/><ellipse cx="332.25" cy="182" fill="#ADD1B2" rx="11" ry="11" style="stroke:#181818;stroke-width:1.0;"/><path d="M334.25,178.5 Q334.4531,178 334.6875,177.75 Q334.9219,177.5 335.1875,177.5 Q335.6563,177.5 335.9531,177.7813 Q336.25,178.0625 336.25,178.7188 L336.25,180.2813 Q336.25,180.9375 335.9688,181.2188 Q335.6875,181.5 335.25,181.5 Q334.8594,181.5 334.6094,181.3281 Q334.3594,181.1563 334.25,180.7031 Q334.2031,180.3906 334.0313,180.2188 Q333.7188,179.8906 333.1563,179.7031 Q332.5938,179.5 332.0313,179.5 Q331.3281,179.5 330.7344,179.7813 Q330.1563,180.0625 329.7031,180.6875 Q329.25,181.3125 329.25,182.1719 L329.25,183.0938 Q329.25,184.125 330.0938,184.8125 Q330.9375,185.5 332.4375,185.5 Q333.3281,185.5 333.9531,185.2969 Q334.3125,185.1875 334.7188,184.8281 Q334.9844,184.625 335.125,184.5625 Q335.2656,184.5 335.4375,184.5 Q335.7656,184.5 336,184.7656 Q336.25,185.0156 336.25,185.375 Q336.25,185.7188 335.9063,186.125 Q335.4063,186.7188 334.6094,187.0469 Q333.5625,187.5 332.2813,187.5 Q330.7813,187.5 329.5781,186.9063 Q328.6094,186.4375 327.9219,185.4219 Q327.25,184.4063 327.25,183.2031 L327.25,182.1094 Q327.25,180.8594 327.8438,179.7656 Q328.4531,178.6719 329.5,178.0938 Q330.5625,177.5 331.75,177.5 Q332.4688,177.5 333.0938,177.75 Q333.7188,178 334.25,178.5 Z " fill="#000000"/><text fill="#000000" font-family="sans-serif" font-size="14" lengthAdjust="spacing" textLength="153" x="352.75" y="187.7285">ConfigureAGVController</text><line style="stroke:#181818;stroke-width:0.5;" x1="29" x2="797" y1="198" y2="198"/><line style="stroke:#181818;stroke-width:0.5;" x1="29" x2="797" y1="206" y2="206"/><text fill="#000000" font-family="sans-serif" font-size="14" lengthAdjust="spacing" textLength="758" x="34" y="224.5332">+configureAGV(agvDocks,id,shortDescription,model,maximumWeight,maximumVolume,baseLocation,autonomy,currentTask)</text></g><!--MD5=[c5149b4909ffd2688ff51a939867f774]
class Warehouse--><g id="elem_Warehouse"><rect codeLine="14" fill="#F1F1F1" height="48" id="Warehouse" rx="2.5" ry="2.5" style="stroke:#181818;stroke-width:0.5;" width="105" x="457.5" y="949"/><ellipse cx="472.5" cy="965" fill="#ADD1B2" rx="11" ry="11" style="stroke:#181818;stroke-width:1.0;"/><path d="M474.5,961.5 Q474.7031,961 474.9375,960.75 Q475.1719,960.5 475.4375,960.5 Q475.9063,960.5 476.2031,960.7813 Q476.5,961.0625 476.5,961.7188 L476.5,963.2813 Q476.5,963.9375 476.2188,964.2188 Q475.9375,964.5 475.5,964.5 Q475.1094,964.5 474.8594,964.3281 Q474.6094,964.1563 474.5,963.7031 Q474.4531,963.3906 474.2813,963.2188 Q473.9688,962.8906 473.4063,962.7031 Q472.8438,962.5 472.2813,962.5 Q471.5781,962.5 470.9844,962.7813 Q470.4063,963.0625 469.9531,963.6875 Q469.5,964.3125 469.5,965.1719 L469.5,966.0938 Q469.5,967.125 470.3438,967.8125 Q471.1875,968.5 472.6875,968.5 Q473.5781,968.5 474.2031,968.2969 Q474.5625,968.1875 474.9688,967.8281 Q475.2344,967.625 475.375,967.5625 Q475.5156,967.5 475.6875,967.5 Q476.0156,967.5 476.25,967.7656 Q476.5,968.0156 476.5,968.375 Q476.5,968.7188 476.1563,969.125 Q475.6563,969.7188 474.8594,970.0469 Q473.8125,970.5 472.5313,970.5 Q471.0313,970.5 469.8281,969.9063 Q468.8594,969.4375 468.1719,968.4219 Q467.5,967.4063 467.5,966.2031 L467.5,965.1094 Q467.5,963.8594 468.0938,962.7656 Q468.7031,961.6719 469.75,961.0938 Q470.8125,960.5 472,960.5 Q472.7188,960.5 473.3438,960.75 Q473.9688,961 474.5,961.5 Z " fill="#000000"/><text fill="#000000" font-family="sans-serif" font-size="14" lengthAdjust="spacing" textLength="73" x="486.5" y="970.7285">Warehouse</text><line style="stroke:#181818;stroke-width:0.5;" x1="458.5" x2="561.5" y1="981" y2="981"/><line style="stroke:#181818;stroke-width:0.5;" x1="458.5" x2="561.5" y1="989" y2="989"/></g><!--MD5=[53b2c06ade5903185ca3326dce80e141]
class AGV--><g id="elem_AGV"><rect codeLine="16" fill="#F1F1F1" height="48" id="AGV" rx="2.5" ry="2.5" style="stroke:#181818;stroke-width:0.5;" width="61" x="466.5" y="1287"/><ellipse cx="481.5" cy="1303" fill="#ADD1B2" rx="11" ry="11" style="stroke:#181818;stroke-width:1.0;"/><path d="M483.5,1299.5 Q483.7031,1299 483.9375,1298.75 Q484.1719,1298.5 484.4375,1298.5 Q484.9063,1298.5 485.2031,1298.7813 Q485.5,1299.0625 485.5,1299.7188 L485.5,1301.2813 Q485.5,1301.9375 485.2188,1302.2188 Q484.9375,1302.5 484.5,1302.5 Q484.1094,1302.5 483.8594,1302.3281 Q483.6094,1302.1563 483.5,1301.7031 Q483.4531,1301.3906 483.2813,1301.2188 Q482.9688,1300.8906 482.4063,1300.7031 Q481.8438,1300.5 481.2813,1300.5 Q480.5781,1300.5 479.9844,1300.7813 Q479.4063,1301.0625 478.9531,1301.6875 Q478.5,1302.3125 478.5,1303.1719 L478.5,1304.0938 Q478.5,1305.125 479.3438,1305.8125 Q480.1875,1306.5 481.6875,1306.5 Q482.5781,1306.5 483.2031,1306.2969 Q483.5625,1306.1875 483.9688,1305.8281 Q484.2344,1305.625 484.375,1305.5625 Q484.5156,1305.5 484.6875,1305.5 Q485.0156,1305.5 485.25,1305.7656 Q485.5,1306.0156 485.5,1306.375 Q485.5,1306.7188 485.1563,1307.125 Q484.6563,1307.7188 483.8594,1308.0469 Q482.8125,1308.5 481.5313,1308.5 Q480.0313,1308.5 478.8281,1307.9063 Q477.8594,1307.4375 477.1719,1306.4219 Q476.5,1305.4063 476.5,1304.2031 L476.5,1303.1094 Q476.5,1301.8594 477.0938,1300.7656 Q477.7031,1299.6719 478.75,1299.0938 Q479.8125,1298.5 481,1298.5 Q481.7188,1298.5 482.3438,1298.75 Q482.9688,1299 483.5,1299.5 Z " fill="#000000"/><text fill="#000000" font-family="sans-serif" font-size="14" lengthAdjust="spacing" textLength="29" x="495.5" y="1308.7285">AGV</text><line style="stroke:#181818;stroke-width:0.5;" x1="467.5" x2="526.5" y1="1319" y2="1319"/><line style="stroke:#181818;stroke-width:0.5;" x1="467.5" x2="526.5" y1="1327" y2="1327"/></g><!--MD5=[e002a6c585fd1b8067a69667d3ea97ef]
class AGVDocks--><g id="elem_AGVDocks"><rect codeLine="18" fill="#F1F1F1" height="48" id="AGVDocks" rx="2.5" ry="2.5" style="stroke:#181818;stroke-width:0.5;" width="100" x="457" y="1118"/><ellipse cx="472" cy="1134" fill="#ADD1B2" rx="11" ry="11" style="stroke:#181818;stroke-width:1.0;"/><path d="M474,1130.5 Q474.2031,1130 474.4375,1129.75 Q474.6719,1129.5 474.9375,1129.5 Q475.4063,1129.5 475.7031,1129.7813 Q476,1130.0625 476,1130.7188 L476,1132.2813 Q476,1132.9375 475.7188,1133.2188 Q475.4375,1133.5 475,1133.5 Q474.6094,1133.5 474.3594,1133.3281 Q474.1094,1133.1563 474,1132.7031 Q473.9531,1132.3906 473.7813,1132.2188 Q473.4688,1131.8906 472.9063,1131.7031 Q472.3438,1131.5 471.7813,1131.5 Q471.0781,1131.5 470.4844,1131.7813 Q469.9063,1132.0625 469.4531,1132.6875 Q469,1133.3125 469,1134.1719 L469,1135.0938 Q469,1136.125 469.8438,1136.8125 Q470.6875,1137.5 472.1875,1137.5 Q473.0781,1137.5 473.7031,1137.2969 Q474.0625,1137.1875 474.4688,1136.8281 Q474.7344,1136.625 474.875,1136.5625 Q475.0156,1136.5 475.1875,1136.5 Q475.5156,1136.5 475.75,1136.7656 Q476,1137.0156 476,1137.375 Q476,1137.7188 475.6563,1138.125 Q475.1563,1138.7188 474.3594,1139.0469 Q473.3125,1139.5 472.0313,1139.5 Q470.5313,1139.5 469.3281,1138.9063 Q468.3594,1138.4375 467.6719,1137.4219 Q467,1136.4063 467,1135.2031 L467,1134.1094 Q467,1132.8594 467.5938,1131.7656 Q468.2031,1130.6719 469.25,1130.0938 Q470.3125,1129.5 471.5,1129.5 Q472.2188,1129.5 472.8438,1129.75 Q473.4688,1130 474,1130.5 Z " fill="#000000"/><text fill="#000000" font-family="sans-serif" font-size="14" lengthAdjust="spacing" textLength="68" x="486" y="1139.7285">AGVDocks</text><line style="stroke:#181818;stroke-width:0.5;" x1="458" x2="556" y1="1150" y2="1150"/><line style="stroke:#181818;stroke-width:0.5;" x1="458" x2="556" y1="1158" y2="1158"/></g><!--MD5=[e8c189551b7885b999ad7cefb30fc2a3]
class PersistenceContext--><g id="elem_PersistenceContext"><rect codeLine="24" fill="#F1F1F1" height="65.6094" id="PersistenceContext" rx="2.5" ry="2.5" style="stroke:#181818;stroke-width:0.5;" width="154" x="201" y="353"/><ellipse cx="216" cy="369" fill="#ADD1B2" rx="11" ry="11" style="stroke:#181818;stroke-width:1.0;"/><path d="M218,365.5 Q218.2031,365 218.4375,364.75 Q218.6719,364.5 218.9375,364.5 Q219.4063,364.5 219.7031,364.7813 Q220,365.0625 220,365.7188 L220,367.2813 Q220,367.9375 219.7188,368.2188 Q219.4375,368.5 219,368.5 Q218.6094,368.5 218.3594,368.3281 Q218.1094,368.1563 218,367.7031 Q217.9531,367.3906 217.7813,367.2188 Q217.4688,366.8906 216.9063,366.7031 Q216.3438,366.5 215.7813,366.5 Q215.0781,366.5 214.4844,366.7813 Q213.9063,367.0625 213.4531,367.6875 Q213,368.3125 213,369.1719 L213,370.0938 Q213,371.125 213.8438,371.8125 Q214.6875,372.5 216.1875,372.5 Q217.0781,372.5 217.7031,372.2969 Q218.0625,372.1875 218.4688,371.8281 Q218.7344,371.625 218.875,371.5625 Q219.0156,371.5 219.1875,371.5 Q219.5156,371.5 219.75,371.7656 Q220,372.0156 220,372.375 Q220,372.7188 219.6563,373.125 Q219.1563,373.7188 218.3594,374.0469 Q217.3125,374.5 216.0313,374.5 Q214.5313,374.5 213.3281,373.9063 Q212.3594,373.4375 211.6719,372.4219 Q211,371.4063 211,370.2031 L211,369.1094 Q211,367.8594 211.5938,366.7656 Q212.2031,365.6719 213.25,365.0938 Q214.3125,364.5 215.5,364.5 Q216.2188,364.5 216.8438,364.75 Q217.4688,365 218,365.5 Z " fill="#000000"/><text fill="#000000" font-family="sans-serif" font-size="14" lengthAdjust="spacing" textLength="122" x="230" y="374.7285">PersistenceContext</text><line style="stroke:#181818;stroke-width:0.5;" x1="202" x2="354" y1="385" y2="385"/><line style="stroke:#181818;stroke-width:0.5;" x1="202" x2="354" y1="393" y2="393"/><text fill="#000000" font-family="sans-serif" font-size="14" lengthAdjust="spacing" textLength="92" x="207" y="411.5332">+repositories()</text></g><!--MD5=[48590afff58a68e2fcba47824d6f8a11]
class RepositoryFactory--><g id="elem_RepositoryFactory"><rect codeLine="30" fill="#F1F1F1" height="65.6094" id="RepositoryFactory" rx="2.5" ry="2.5" style="stroke:#181818;stroke-width:0.5;" width="148" x="199" y="540"/><ellipse cx="214" cy="556" fill="#ADD1B2" rx="11" ry="11" style="stroke:#181818;stroke-width:1.0;"/><path d="M216,552.5 Q216.2031,552 216.4375,551.75 Q216.6719,551.5 216.9375,551.5 Q217.4063,551.5 217.7031,551.7813 Q218,552.0625 218,552.7188 L218,554.2813 Q218,554.9375 217.7188,555.2188 Q217.4375,555.5 217,555.5 Q216.6094,555.5 216.3594,555.3281 Q216.1094,555.1563 216,554.7031 Q215.9531,554.3906 215.7813,554.2188 Q215.4688,553.8906 214.9063,553.7031 Q214.3438,553.5 213.7813,553.5 Q213.0781,553.5 212.4844,553.7813 Q211.9063,554.0625 211.4531,554.6875 Q211,555.3125 211,556.1719 L211,557.0938 Q211,558.125 211.8438,558.8125 Q212.6875,559.5 214.1875,559.5 Q215.0781,559.5 215.7031,559.2969 Q216.0625,559.1875 216.4688,558.8281 Q216.7344,558.625 216.875,558.5625 Q217.0156,558.5 217.1875,558.5 Q217.5156,558.5 217.75,558.7656 Q218,559.0156 218,559.375 Q218,559.7188 217.6563,560.125 Q217.1563,560.7188 216.3594,561.0469 Q215.3125,561.5 214.0313,561.5 Q212.5313,561.5 211.3281,560.9063 Q210.3594,560.4375 209.6719,559.4219 Q209,558.4063 209,557.2031 L209,556.1094 Q209,554.8594 209.5938,553.7656 Q210.2031,552.6719 211.25,552.0938 Q212.3125,551.5 213.5,551.5 Q214.2188,551.5 214.8438,551.75 Q215.4688,552 216,552.5 Z " fill="#000000"/><text fill="#000000" font-family="sans-serif" font-size="14" lengthAdjust="spacing" textLength="116" x="228" y="561.7285">RepositoryFactory</text><line style="stroke:#181818;stroke-width:0.5;" x1="200" x2="346" y1="572" y2="572"/><line style="stroke:#181818;stroke-width:0.5;" x1="200" x2="346" y1="580" y2="580"/><text fill="#000000" font-family="sans-serif" font-size="14" lengthAdjust="spacing" textLength="58" x="205" y="598.5332">+create()</text></g><!--MD5=[bf4d0c028d0f251e49ce9c9f9f101ed4]
class WarehouseRepository--><g id="elem_WarehouseRepository"><rect codeLine="36" fill="#F1F1F1" height="100.8281" id="WarehouseRepository" rx="2.5" ry="2.5" style="stroke:#181818;stroke-width:0.5;" width="173" x="186.5" y="727"/><ellipse cx="201.5" cy="743" fill="#ADD1B2" rx="11" ry="11" style="stroke:#181818;stroke-width:1.0;"/><path d="M203.5,739.5 Q203.7031,739 203.9375,738.75 Q204.1719,738.5 204.4375,738.5 Q204.9063,738.5 205.2031,738.7813 Q205.5,739.0625 205.5,739.7188 L205.5,741.2813 Q205.5,741.9375 205.2188,742.2188 Q204.9375,742.5 204.5,742.5 Q204.1094,742.5 203.8594,742.3281 Q203.6094,742.1563 203.5,741.7031 Q203.4531,741.3906 203.2813,741.2188 Q202.9688,740.8906 202.4063,740.7031 Q201.8438,740.5 201.2813,740.5 Q200.5781,740.5 199.9844,740.7813 Q199.4063,741.0625 198.9531,741.6875 Q198.5,742.3125 198.5,743.1719 L198.5,744.0938 Q198.5,745.125 199.3438,745.8125 Q200.1875,746.5 201.6875,746.5 Q202.5781,746.5 203.2031,746.2969 Q203.5625,746.1875 203.9688,745.8281 Q204.2344,745.625 204.375,745.5625 Q204.5156,745.5 204.6875,745.5 Q205.0156,745.5 205.25,745.7656 Q205.5,746.0156 205.5,746.375 Q205.5,746.7188 205.1563,747.125 Q204.6563,747.7188 203.8594,748.0469 Q202.8125,748.5 201.5313,748.5 Q200.0313,748.5 198.8281,747.9063 Q197.8594,747.4375 197.1719,746.4219 Q196.5,745.4063 196.5,744.2031 L196.5,743.1094 Q196.5,741.8594 197.0938,740.7656 Q197.7031,739.6719 198.75,739.0938 Q199.8125,738.5 201,738.5 Q201.7188,738.5 202.3438,738.75 Q202.9688,739 203.5,739.5 Z " fill="#000000"/><text fill="#000000" font-family="sans-serif" font-size="14" lengthAdjust="spacing" textLength="141" x="215.5" y="748.7285">WarehouseRepository</text><line style="stroke:#181818;stroke-width:0.5;" x1="187.5" x2="358.5" y1="759" y2="759"/><line style="stroke:#181818;stroke-width:0.5;" x1="187.5" x2="358.5" y1="767" y2="767"/><text fill="#000000" font-family="sans-serif" font-size="14" lengthAdjust="spacing" textLength="58" x="192.5" y="785.5332">+create()</text><text fill="#000000" font-family="sans-serif" font-size="14" lengthAdjust="spacing" textLength="117" x="192.5" y="803.1426">+save(warehouse)</text><text fill="#000000" font-family="sans-serif" font-size="14" lengthAdjust="spacing" textLength="141" x="192.5" y="820.752">+findAllAvgDocksnull()</text></g><!--MD5=[a2934c79e3adc781b0cd87c74812aba5]
class AGVRepository--><g id="elem_AGVRepository"><rect codeLine="41" fill="#F1F1F1" height="83.2188" id="AGVRepository" rx="2.5" ry="2.5" style="stroke:#181818;stroke-width:0.5;" width="129" x="22.5" y="736"/><ellipse cx="37.5" cy="752" fill="#ADD1B2" rx="11" ry="11" style="stroke:#181818;stroke-width:1.0;"/><path d="M39.5,748.5 Q39.7031,748 39.9375,747.75 Q40.1719,747.5 40.4375,747.5 Q40.9063,747.5 41.2031,747.7813 Q41.5,748.0625 41.5,748.7188 L41.5,750.2813 Q41.5,750.9375 41.2188,751.2188 Q40.9375,751.5 40.5,751.5 Q40.1094,751.5 39.8594,751.3281 Q39.6094,751.1563 39.5,750.7031 Q39.4531,750.3906 39.2813,750.2188 Q38.9688,749.8906 38.4063,749.7031 Q37.8438,749.5 37.2813,749.5 Q36.5781,749.5 35.9844,749.7813 Q35.4063,750.0625 34.9531,750.6875 Q34.5,751.3125 34.5,752.1719 L34.5,753.0938 Q34.5,754.125 35.3438,754.8125 Q36.1875,755.5 37.6875,755.5 Q38.5781,755.5 39.2031,755.2969 Q39.5625,755.1875 39.9688,754.8281 Q40.2344,754.625 40.375,754.5625 Q40.5156,754.5 40.6875,754.5 Q41.0156,754.5 41.25,754.7656 Q41.5,755.0156 41.5,755.375 Q41.5,755.7188 41.1563,756.125 Q40.6563,756.7188 39.8594,757.0469 Q38.8125,757.5 37.5313,757.5 Q36.0313,757.5 34.8281,756.9063 Q33.8594,756.4375 33.1719,755.4219 Q32.5,754.4063 32.5,753.2031 L32.5,752.1094 Q32.5,750.8594 33.0938,749.7656 Q33.7031,748.6719 34.75,748.0938 Q35.8125,747.5 37,747.5 Q37.7188,747.5 38.3438,747.75 Q38.9688,748 39.5,748.5 Z " fill="#000000"/><text fill="#000000" font-family="sans-serif" font-size="14" lengthAdjust="spacing" textLength="97" x="51.5" y="757.7285">AGVRepository</text><line style="stroke:#181818;stroke-width:0.5;" x1="23.5" x2="150.5" y1="768" y2="768"/><line style="stroke:#181818;stroke-width:0.5;" x1="23.5" x2="150.5" y1="776" y2="776"/><text fill="#000000" font-family="sans-serif" font-size="14" lengthAdjust="spacing" textLength="58" x="28.5" y="794.5332">+create()</text><text fill="#000000" font-family="sans-serif" font-size="14" lengthAdjust="spacing" textLength="71" x="28.5" y="812.1426">+save(agv)</text></g><!--MD5=[4c2ca6742170b953f9ed8ad6fa9ed9f7]
link ConfigureAGVUI to ConfigureAGVController--><g id="link_ConfigureAGVUI_ConfigureAGVController"><path codeLine="46" d="M413,90.12 C413,109.65 413,137.99 413,160.72 " fill="none" id="ConfigureAGVUI-to-ConfigureAGVController" style="stroke:#181818;stroke-width:1.0;stroke-dasharray:7.0,7.0;"/><polygon fill="#181818" points="413,165.78,417,156.78,413,160.78,409,156.78,413,165.78" style="stroke:#181818;stroke-width:1.0;"/></g><!--MD5=[baaa61432d782af36281d71212619e28]
link ConfigureAGVController to Warehouse--><g id="link_ConfigureAGVController_Warehouse"><path codeLine="47" d="M439.16,232.23 C465.1,267.51 501,326.85 501,385 C501,385 501,385 501,778.5 C501,837.16 505.18,905.71 507.84,943.44 " fill="none" id="ConfigureAGVController-to-Warehouse" style="stroke:#181818;stroke-width:1.0;stroke-dasharray:7.0,7.0;"/><polygon fill="#181818" points="508.22,948.78,511.5667,939.5172,507.8627,943.7928,503.5872,940.0888,508.22,948.78" style="stroke:#181818;stroke-width:1.0;"/></g><!--MD5=[66c54dcf1d0717ab7c6c4cd11df11fe0]
link ConfigureAGVController to PersistenceContext--><g id="link_ConfigureAGVController_PersistenceContext"><path codeLine="48" d="M389.48,232.22 C365.75,264.75 329.15,314.9 304.43,348.79 " fill="none" id="ConfigureAGVController-to-PersistenceContext" style="stroke:#181818;stroke-width:1.0;stroke-dasharray:7.0,7.0;"/><polygon fill="#181818" points="301.47,352.83,310.0201,347.9418,304.4287,348.7993,303.5711,343.2079,301.47,352.83" style="stroke:#181818;stroke-width:1.0;"/></g><!--MD5=[754b775031405e096442b27febffa290]
link PersistenceContext to RepositoryFactory--><g id="link_PersistenceContext_RepositoryFactory"><path codeLine="49" d="M277.13,419.22 C276.26,451.36 274.93,500.68 274.01,534.54 " fill="none" id="PersistenceContext-to-RepositoryFactory" style="stroke:#181818;stroke-width:1.0;stroke-dasharray:7.0,7.0;"/><polygon fill="#181818" points="273.87,539.83,278.1007,530.9361,273.9989,534.8317,270.1033,530.7299,273.87,539.83" style="stroke:#181818;stroke-width:1.0;"/></g><!--MD5=[1e897a22714a6b830b517dbc62a38d7f]
link RepositoryFactory to WarehouseRepository--><g id="link_RepositoryFactory_WarehouseRepository"><path codeLine="50" d="M273,606.09 C273,637.02 273,684.45 273,721.42 " fill="none" id="RepositoryFactory-to-WarehouseRepository" style="stroke:#181818;stroke-width:1.0;stroke-dasharray:7.0,7.0;"/><polygon fill="#181818" points="273,726.8,277,717.8,273,721.8,269,717.8,273,726.8" style="stroke:#181818;stroke-width:1.0;"/></g><!--MD5=[d05eaea78b8765320ad56e3795dd7d42]
link RepositoryFactory to AGVRepository--><g id="link_RepositoryFactory_AGVRepository"><path codeLine="51" d="M241.7,606.1 C220.86,627.63 193.01,656.75 169,683 C154.62,698.71 139.15,716.2 125.56,731.76 " fill="none" id="RepositoryFactory-to-AGVRepository" style="stroke:#181818;stroke-width:1.0;stroke-dasharray:7.0,7.0;"/><polygon fill="#181818" points="122.15,735.67,131.0779,731.5116,125.4344,731.9,125.046,726.2565,122.15,735.67" style="stroke:#181818;stroke-width:1.0;"/></g><!--MD5=[cb8d5150214e6aa765a2f24f67e90a63]
link WarehouseRepository to Warehouse--><g id="link_WarehouseRepository_Warehouse"><path codeLine="52" d="M333.73,828.08 C379.64,865.57 440.88,915.57 477.77,945.69 " fill="none" id="WarehouseRepository-to-Warehouse" style="stroke:#181818;stroke-width:1.0;stroke-dasharray:7.0,7.0;"/><polygon fill="#181818" points="481.71,948.9,477.2632,940.1122,477.8351,945.74,472.2073,946.312,481.71,948.9" style="stroke:#181818;stroke-width:1.0;"/></g><!--MD5=[8244a5b78e8241a0dd6cd84fef129155]
link WarehouseRepository to AGVDocks--><g id="link_WarehouseRepository_AGVDocks"><path codeLine="53" d="M281.73,828.19 C294.34,888.09 322.48,989.23 378,1058 C397.76,1082.48 426.76,1102.04 452.26,1116.01 " fill="none" id="WarehouseRepository-to-AGVDocks" style="stroke:#181818;stroke-width:1.0;stroke-dasharray:7.0,7.0;"/><polygon fill="#181818" points="456.98,1118.56,450.9552,1110.7689,452.5786,1116.1878,447.1596,1117.8112,456.98,1118.56" style="stroke:#181818;stroke-width:1.0;"/></g><!--MD5=[44c78d46300cbd445cde51c8cf6651a2]
link AGVRepository to AGV--><g id="link_AGVRepository_AGV"><path codeLine="54" d="M105.96,819.04 C122.21,857.52 143,917.44 143,972 C143,972 143,972 143,1143 C143,1282.58 370.91,1305.69 460.99,1309.37 " fill="none" id="AGVRepository-to-AGV" style="stroke:#181818;stroke-width:1.0;stroke-dasharray:7.0,7.0;"/><polygon fill="#181818" points="466.2,1309.56,457.3551,1305.2278,461.2035,1309.3739,457.0573,1313.2222,466.2,1309.56" style="stroke:#181818;stroke-width:1.0;"/></g><!--MD5=[b6d00c16f19ecbffd164fea301c0dc40]
link ConfigureAGVController to AGVDocks--><g id="link_ConfigureAGVController_AGVDocks"><path codeLine="55" d="M413,232.08 C413,268.98 413,331.36 413,385 C413,385 413,385 413,778.5 C413,876.35 413.03,902.94 440,997 C452.19,1039.52 475.41,1085.3 491.05,1113.55 " fill="none" id="ConfigureAGVController-to-AGVDocks" style="stroke:#181818;stroke-width:1.0;stroke-dasharray:7.0,7.0;"/><polygon fill="#181818" points="493.5,1117.93,492.6014,1108.1222,491.0609,1113.5653,485.6178,1112.0248,493.5,1117.93" style="stroke:#181818;stroke-width:1.0;"/></g><!--MD5=[3d3f68f464ba2a1e06de793adbb57ed1]
link Warehouse to AGVDocks--><g id="link_Warehouse_AGVDocks"><path codeLine="56" d="M509.58,997.22 C509.04,1027.51 508.09,1080.45 507.5,1112.94 " fill="none" id="Warehouse-to-AGVDocks" style="stroke:#181818;stroke-width:1.0;stroke-dasharray:7.0,7.0;"/><polygon fill="#181818" points="507.41,1117.98,511.5637,1109.0499,507.4957,1112.9807,503.5649,1108.9128,507.41,1117.98" style="stroke:#181818;stroke-width:1.0;"/></g><!--MD5=[4e47cf26289c644c6e9031256c211d6b]
link AGVDocks to AGV--><g id="link_AGVDocks_AGV"><path codeLine="57" d="M505.61,1166.22 C503.8,1196.51 500.63,1249.45 498.68,1281.94 " fill="none" id="AGVDocks-to-AGV" style="stroke:#181818;stroke-width:1.0;stroke-dasharray:7.0,7.0;"/><polygon fill="#181818" points="498.38,1286.98,502.9133,1278.2365,498.6803,1281.989,494.9278,1277.756,498.38,1286.98" style="stroke:#181818;stroke-width:1.0;"/></g><!--MD5=[b5677b94c90a565cb90b8a2567f86dc5]
@startuml
skinparam classAttributeIconSize 0

package "Presentation"{
class ConfigureAGVUI
}

package "Application"{
class ConfigureAGVController{
+configureAGV(agvDocks,id,shortDescription,model,maximumWeight,maximumVolume,baseLocation,autonomy,currentTask)
}
}

package "Domain"{
class Warehouse{
}
class AGV{
}
class AGVDocks{
}
}


package "Persistence"{
class PersistenceContext{
+repositories()
}
}

package "Factory"{
class RepositoryFactory{
+create()
}
}

package "Repository"{
class WarehouseRepository{
+create()
+save(warehouse)
+findAllAvgDocksnull()
}
class AGVRepository{
+create()
+save(agv)
}
}
ConfigureAGVUI .-> ConfigureAGVController
ConfigureAGVController .- -> Warehouse
ConfigureAGVController .- -> PersistenceContext
PersistenceContext .- -> RepositoryFactory
RepositoryFactory .- -> WarehouseRepository
RepositoryFactory .- -> AGVRepository
WarehouseRepository .- -> Warehouse
WarehouseRepository .- -> AGVDocks
AGVRepository .- -> AGV
ConfigureAGVController .- -> AGVDocks
Warehouse .- -> AGVDocks
AGVDocks .- -> AGV

@enduml

PlantUML version 1.2022.4(Sat Apr 09 14:29:17 BST 2022)
(GPL source distribution)
Java Runtime: OpenJDK Runtime Environment
JVM: OpenJDK 64-Bit Server VM
Default Encoding: Cp1252
Language: pt
Country: PT
--></g></svg>