<?xml version="1.0" encoding="UTF-8" standalone="no"?><svg xmlns="http://www.w3.org/2000/svg" xmlns:xlink="http://www.w3.org/1999/xlink" contentStyleType="text/css" height="887px" preserveAspectRatio="none" style="width:2422px;height:887px;background:#FFFFFF;" version="1.1" viewBox="0 0 2422 887" width="2422px" zoomAndPan="magnify"><defs/><g><rect fill="#FFFFFF" height="694.8828" style="stroke:#181818;stroke-width:1.0;" width="10" x="72.5" y="92.6094"/><rect fill="#FFFFFF" height="30.3516" style="stroke:#181818;stroke-width:1.0;" width="10" x="730.5" y="114.9609"/><rect fill="#FFFFFF" height="30.3516" style="stroke:#181818;stroke-width:1.0;" width="10" x="730.5" y="175.6641"/><rect fill="#FFFFFF" height="551.125" style="stroke:#181818;stroke-width:1.0;" width="10" x="730.5" y="236.3672"/><rect fill="#FFFFFF" height="490.4219" style="stroke:#181818;stroke-width:1.0;" width="10" x="1391.5" y="266.7188"/><rect fill="#FFFFFF" height="151.0547" style="stroke:#181818;stroke-width:1.0;" width="10" x="1557" y="460.3828"/><rect fill="#FFFFFF" height="120.7031" style="stroke:#181818;stroke-width:1.0;" width="10" x="1704" y="490.7344"/><rect fill="#FFFFFF" height="30" style="stroke:#181818;stroke-width:1.0;" width="10" x="1838.5" y="521.0859"/><rect fill="#FFFFFF" height="30" style="stroke:#181818;stroke-width:1.0;" width="10" x="1838.5" y="666.7891"/><rect fill="#FFFFFF" height="30" style="stroke:#181818;stroke-width:1.0;" width="10" x="1985.5" y="581.4375"/><rect fill="#FFFFFF" height="30" style="stroke:#181818;stroke-width:1.0;" width="10" x="1985.5" y="727.1406"/><rect fill="#FFFFFF" height="30" style="stroke:#181818;stroke-width:1.0;" width="10" x="2198" y="339.6797"/><rect fill="#FFFFFF" height="30" style="stroke:#181818;stroke-width:1.0;" width="10" x="2331" y="400.0313"/><line style="stroke:#181818;stroke-width:0.5;stroke-dasharray:5.0,5.0;" x1="77" x2="77" y1="82.6094" y2="805.4922"/><line style="stroke:#181818;stroke-width:0.5;stroke-dasharray:5.0,5.0;" x1="735" x2="735" y1="82.6094" y2="805.4922"/><line style="stroke:#181818;stroke-width:0.5;stroke-dasharray:5.0,5.0;" x1="1396" x2="1396" y1="82.6094" y2="805.4922"/><line style="stroke:#181818;stroke-width:0.5;stroke-dasharray:5.0,5.0;" x1="1562" x2="1562" y1="82.6094" y2="805.4922"/><line style="stroke:#181818;stroke-width:0.5;stroke-dasharray:5.0,5.0;" x1="1709" x2="1709" y1="82.6094" y2="805.4922"/><line style="stroke:#181818;stroke-width:0.5;stroke-dasharray:5.0,5.0;" x1="1843" x2="1843" y1="82.6094" y2="805.4922"/><line style="stroke:#181818;stroke-width:0.5;stroke-dasharray:5.0,5.0;" x1="1990" x2="1990" y1="82.6094" y2="805.4922"/><line style="stroke:#181818;stroke-width:0.5;stroke-dasharray:5.0,5.0;" x1="2115" x2="2115" y1="306.0234" y2="805.4922"/><line style="stroke:#181818;stroke-width:0.5;stroke-dasharray:5.0,5.0;" x1="2203" x2="2203" y1="82.6094" y2="805.4922"/><line style="stroke:#181818;stroke-width:0.5;stroke-dasharray:5.0,5.0;" x1="2336" x2="2336" y1="82.6094" y2="805.4922"/><text fill="#000000" font-family="sans-serif" font-size="14" lengthAdjust="spacing" textLength="139" x="5" y="79.5332">Warehouse Employee</text><ellipse cx="77.5" cy="13.5" fill="#E2E2F0" rx="8" ry="8" style="stroke:#181818;stroke-width:0.5;"/><path d="M77.5,21.5 L77.5,48.5 M64.5,29.5 L90.5,29.5 M77.5,48.5 L64.5,63.5 M77.5,48.5 L90.5,63.5 " fill="none" style="stroke:#181818;stroke-width:0.5;"/><text fill="#000000" font-family="sans-serif" font-size="14" lengthAdjust="spacing" textLength="139" x="5" y="819.0254">Warehouse Employee</text><ellipse cx="77.5" cy="830.6016" fill="#E2E2F0" rx="8" ry="8" style="stroke:#181818;stroke-width:0.5;"/><path d="M77.5,838.6016 L77.5,865.6016 M64.5,846.6016 L90.5,846.6016 M77.5,865.6016 L64.5,880.6016 M77.5,865.6016 L90.5,880.6016 " fill="none" style="stroke:#181818;stroke-width:0.5;"/><rect fill="#E2E2F0" height="31.6094" rx="2.5" ry="2.5" style="stroke:#181818;stroke-width:0.5;" width="121" x="675" y="50"/><text fill="#000000" font-family="sans-serif" font-size="14" lengthAdjust="spacing" textLength="107" x="682" y="71.5332">:ConfigureAGVUI</text><rect fill="#E2E2F0" height="31.6094" rx="2.5" ry="2.5" style="stroke:#181818;stroke-width:0.5;" width="121" x="675" y="804.4922"/><text fill="#000000" font-family="sans-serif" font-size="14" lengthAdjust="spacing" textLength="107" x="682" y="826.0254">:ConfigureAGVUI</text><rect fill="#E2E2F0" height="31.6094" rx="2.5" ry="2.5" style="stroke:#181818;stroke-width:0.5;" width="171" x="1311" y="50"/><text fill="#000000" font-family="sans-serif" font-size="14" lengthAdjust="spacing" textLength="157" x="1318" y="71.5332">:ConfigureAGVController</text><rect fill="#E2E2F0" height="31.6094" rx="2.5" ry="2.5" style="stroke:#181818;stroke-width:0.5;" width="171" x="1311" y="804.4922"/><text fill="#000000" font-family="sans-serif" font-size="14" lengthAdjust="spacing" textLength="157" x="1318" y="826.0254">:ConfigureAGVController</text><rect fill="#E2E2F0" height="31.6094" rx="2.5" ry="2.5" style="stroke:#181818;stroke-width:0.5;" width="140" x="1492" y="50"/><text fill="#000000" font-family="sans-serif" font-size="14" lengthAdjust="spacing" textLength="126" x="1499" y="71.5332">:PersistenceContext</text><rect fill="#E2E2F0" height="31.6094" rx="2.5" ry="2.5" style="stroke:#181818;stroke-width:0.5;" width="140" x="1492" y="804.4922"/><text fill="#000000" font-family="sans-serif" font-size="14" lengthAdjust="spacing" textLength="126" x="1499" y="826.0254">:PersistenceContext</text><rect fill="#E2E2F0" height="31.6094" rx="2.5" ry="2.5" style="stroke:#181818;stroke-width:0.5;" width="134" x="1642" y="50"/><text fill="#000000" font-family="sans-serif" font-size="14" lengthAdjust="spacing" textLength="120" x="1649" y="71.5332">:RepositoryFactory</text><rect fill="#E2E2F0" height="31.6094" rx="2.5" ry="2.5" style="stroke:#181818;stroke-width:0.5;" width="134" x="1642" y="804.4922"/><text fill="#000000" font-family="sans-serif" font-size="14" lengthAdjust="spacing" textLength="120" x="1649" y="826.0254">:RepositoryFactory</text><rect fill="#E2E2F0" height="31.6094" rx="2.5" ry="2.5" style="stroke:#181818;stroke-width:0.5;" width="115" x="1786" y="50"/><text fill="#000000" font-family="sans-serif" font-size="14" lengthAdjust="spacing" textLength="101" x="1793" y="71.5332">:AGVRepository</text><rect fill="#E2E2F0" height="31.6094" rx="2.5" ry="2.5" style="stroke:#181818;stroke-width:0.5;" width="115" x="1786" y="804.4922"/><text fill="#000000" font-family="sans-serif" font-size="14" lengthAdjust="spacing" textLength="101" x="1793" y="826.0254">:AGVRepository</text><rect fill="#E2E2F0" height="31.6094" rx="2.5" ry="2.5" style="stroke:#181818;stroke-width:0.5;" width="159" x="1911" y="50"/><text fill="#000000" font-family="sans-serif" font-size="14" lengthAdjust="spacing" textLength="145" x="1918" y="71.5332">:WarehouseRepository</text><rect fill="#E2E2F0" height="31.6094" rx="2.5" ry="2.5" style="stroke:#181818;stroke-width:0.5;" width="159" x="1911" y="804.4922"/><text fill="#000000" font-family="sans-serif" font-size="14" lengthAdjust="spacing" textLength="145" x="1918" y="826.0254">:WarehouseRepository</text><rect fill="#E2E2F0" height="31.6094" rx="2.5" ry="2.5" style="stroke:#181818;stroke-width:0.5;" width="70" x="2080" y="804.4922"/><text fill="#000000" font-family="sans-serif" font-size="14" lengthAdjust="spacing" textLength="56" x="2087" y="826.0254">agv:AGV</text><rect fill="#E2E2F0" height="31.6094" rx="2.5" ry="2.5" style="stroke:#181818;stroke-width:0.5;" width="86" x="2160" y="50"/><text fill="#000000" font-family="sans-serif" font-size="14" lengthAdjust="spacing" textLength="72" x="2167" y="71.5332">:AGVDocks</text><rect fill="#E2E2F0" height="31.6094" rx="2.5" ry="2.5" style="stroke:#181818;stroke-width:0.5;" width="86" x="2160" y="804.4922"/><text fill="#000000" font-family="sans-serif" font-size="14" lengthAdjust="spacing" textLength="72" x="2167" y="826.0254">:AGVDocks</text><rect fill="#E2E2F0" height="31.6094" rx="2.5" ry="2.5" style="stroke:#181818;stroke-width:0.5;" width="160" x="2256" y="50"/><text fill="#000000" font-family="sans-serif" font-size="14" lengthAdjust="spacing" textLength="146" x="2263" y="71.5332">warehouse:Warehouse</text><rect fill="#E2E2F0" height="31.6094" rx="2.5" ry="2.5" style="stroke:#181818;stroke-width:0.5;" width="160" x="2256" y="804.4922"/><text fill="#000000" font-family="sans-serif" font-size="14" lengthAdjust="spacing" textLength="146" x="2263" y="826.0254">warehouse:Warehouse</text><rect fill="#FFFFFF" height="694.8828" style="stroke:#181818;stroke-width:1.0;" width="10" x="72.5" y="92.6094"/><rect fill="#FFFFFF" height="30.3516" style="stroke:#181818;stroke-width:1.0;" width="10" x="730.5" y="114.9609"/><rect fill="#FFFFFF" height="30.3516" style="stroke:#181818;stroke-width:1.0;" width="10" x="730.5" y="175.6641"/><rect fill="#FFFFFF" height="551.125" style="stroke:#181818;stroke-width:1.0;" width="10" x="730.5" y="236.3672"/><rect fill="#FFFFFF" height="490.4219" style="stroke:#181818;stroke-width:1.0;" width="10" x="1391.5" y="266.7188"/><rect fill="#FFFFFF" height="151.0547" style="stroke:#181818;stroke-width:1.0;" width="10" x="1557" y="460.3828"/><rect fill="#FFFFFF" height="120.7031" style="stroke:#181818;stroke-width:1.0;" width="10" x="1704" y="490.7344"/><rect fill="#FFFFFF" height="30" style="stroke:#181818;stroke-width:1.0;" width="10" x="1838.5" y="521.0859"/><rect fill="#FFFFFF" height="30" style="stroke:#181818;stroke-width:1.0;" width="10" x="1838.5" y="666.7891"/><rect fill="#FFFFFF" height="30" style="stroke:#181818;stroke-width:1.0;" width="10" x="1985.5" y="581.4375"/><rect fill="#FFFFFF" height="30" style="stroke:#181818;stroke-width:1.0;" width="10" x="1985.5" y="727.1406"/><rect fill="#FFFFFF" height="30" style="stroke:#181818;stroke-width:1.0;" width="10" x="2198" y="339.6797"/><rect fill="#FFFFFF" height="30" style="stroke:#181818;stroke-width:1.0;" width="10" x="2331" y="400.0313"/><polygon fill="#181818" points="718.5,110.9609,728.5,114.9609,718.5,118.9609,722.5,114.9609" style="stroke:#181818;stroke-width:1.0;"/><line style="stroke:#181818;stroke-width:1.0;" x1="82.5" x2="724.5" y1="114.9609" y2="114.9609"/><text fill="#000000" font-family="sans-serif" font-size="13" font-weight="bold" lengthAdjust="spacing" textLength="7" x="89.5" y="110.1045">1</text><text fill="#000000" font-family="sans-serif" font-size="13" lengthAdjust="spacing" textLength="319" x="100.5" y="110.1045">asks to configure the AGVs available on the warehouse</text><polygon fill="#181818" points="93.5,141.3125,83.5,145.3125,93.5,149.3125,89.5,145.3125" style="stroke:#181818;stroke-width:1.0;"/><line style="stroke:#181818;stroke-width:1.0;stroke-dasharray:2.0,2.0;" x1="87.5" x2="734.5" y1="145.3125" y2="145.3125"/><text fill="#000000" font-family="sans-serif" font-size="13" font-weight="bold" lengthAdjust="spacing" textLength="7" x="99.5" y="140.4561">2</text><text fill="#000000" font-family="sans-serif" font-size="13" lengthAdjust="spacing" textLength="129" x="110.5" y="140.4561">request data(agvDock)</text><polygon fill="#181818" points="718.5,171.6641,728.5,175.6641,718.5,179.6641,722.5,175.6641" style="stroke:#181818;stroke-width:1.0;"/><line style="stroke:#181818;stroke-width:1.0;" x1="82.5" x2="724.5" y1="175.6641" y2="175.6641"/><text fill="#000000" font-family="sans-serif" font-size="13" font-weight="bold" lengthAdjust="spacing" textLength="7" x="89.5" y="170.8076">3</text><text fill="#000000" font-family="sans-serif" font-size="13" lengthAdjust="spacing" textLength="122" x="100.5" y="170.8076">types requested data</text><polygon fill="#181818" points="93.5,202.0156,83.5,206.0156,93.5,210.0156,89.5,206.0156" style="stroke:#181818;stroke-width:1.0;"/><line style="stroke:#181818;stroke-width:1.0;stroke-dasharray:2.0,2.0;" x1="87.5" x2="734.5" y1="206.0156" y2="206.0156"/><text fill="#000000" font-family="sans-serif" font-size="13" font-weight="bold" lengthAdjust="spacing" textLength="7" x="99.5" y="201.1592">4</text><text fill="#000000" font-family="sans-serif" font-size="13" lengthAdjust="spacing" textLength="613" x="110.5" y="201.1592">request data(shortDescription,model,maximumWeight,maximumVolume,baseLocation,autonomy,currentTask)</text><polygon fill="#181818" points="718.5,232.3672,728.5,236.3672,718.5,240.3672,722.5,236.3672" style="stroke:#181818;stroke-width:1.0;"/><line style="stroke:#181818;stroke-width:1.0;" x1="82.5" x2="724.5" y1="236.3672" y2="236.3672"/><text fill="#000000" font-family="sans-serif" font-size="13" font-weight="bold" lengthAdjust="spacing" textLength="7" x="89.5" y="231.5107">5</text><text fill="#000000" font-family="sans-serif" font-size="13" lengthAdjust="spacing" textLength="122" x="100.5" y="231.5107">types requested data</text><polygon fill="#181818" points="1379.5,262.7188,1389.5,266.7188,1379.5,270.7188,1383.5,266.7188" style="stroke:#181818;stroke-width:1.0;"/><line style="stroke:#181818;stroke-width:1.0;" x1="740.5" x2="1385.5" y1="266.7188" y2="266.7188"/><text fill="#000000" font-family="sans-serif" font-size="13" font-weight="bold" lengthAdjust="spacing" textLength="7" x="747.5" y="261.8623">6</text><text fill="#000000" font-family="sans-serif" font-size="13" lengthAdjust="spacing" textLength="621" x="758.5" y="261.8623">configureAGV(shortDescription,model,maximumWeight,maximumVolume,baseLocation,autonomy,currentTask)</text><polygon fill="#181818" points="2068,293.0703,2078,297.0703,2068,301.0703,2072,297.0703" style="stroke:#181818;stroke-width:1.0;"/><line style="stroke:#181818;stroke-width:1.0;" x1="1401.5" x2="2074" y1="297.0703" y2="297.0703"/><text fill="#000000" font-family="sans-serif" font-size="13" font-weight="bold" lengthAdjust="spacing" textLength="7" x="1408.5" y="292.2139">7</text><text fill="#000000" font-family="sans-serif" font-size="13" lengthAdjust="spacing" textLength="626" x="1419.5" y="292.2139">agv = create(id,shortDescription,model,maximumWeight,maximumVolume,baseLocation,autonomy,currentTask)</text><rect fill="#E2E2F0" height="31.6094" rx="2.5" ry="2.5" style="stroke:#181818;stroke-width:0.5;" width="70" x="2080" y="274.7188"/><text fill="#000000" font-family="sans-serif" font-size="14" lengthAdjust="spacing" textLength="56" x="2087" y="296.252">agv:AGV</text><polygon fill="#181818" points="2186,335.6797,2196,339.6797,2186,343.6797,2190,339.6797" style="stroke:#181818;stroke-width:1.0;"/><line style="stroke:#181818;stroke-width:1.0;" x1="1401.5" x2="2192" y1="339.6797" y2="339.6797"/><text fill="#000000" font-family="sans-serif" font-size="13" font-weight="bold" lengthAdjust="spacing" textLength="7" x="1408.5" y="334.8232">8</text><text fill="#000000" font-family="sans-serif" font-size="13" lengthAdjust="spacing" textLength="98" x="1419.5" y="334.8232">agvDock.set(agv)</text><polygon fill="#181818" points="2319,396.0313,2329,400.0313,2319,404.0313,2323,400.0313" style="stroke:#181818;stroke-width:1.0;"/><line style="stroke:#181818;stroke-width:1.0;" x1="1401.5" x2="2325" y1="400.0313" y2="400.0313"/><text fill="#000000" font-family="sans-serif" font-size="13" font-weight="bold" lengthAdjust="spacing" textLength="7" x="1408.5" y="395.1748">9</text><text fill="#000000" font-family="sans-serif" font-size="13" lengthAdjust="spacing" textLength="220" x="1419.5" y="395.1748">warehouse.setaddAgvDocks(agvDock)</text><polygon fill="#181818" points="1545,456.3828,1555,460.3828,1545,464.3828,1549,460.3828" style="stroke:#181818;stroke-width:1.0;"/><line style="stroke:#181818;stroke-width:1.0;" x1="1401.5" x2="1551" y1="460.3828" y2="460.3828"/><text fill="#000000" font-family="sans-serif" font-size="13" font-weight="bold" lengthAdjust="spacing" textLength="14" x="1408.5" y="455.5264">10</text><text fill="#000000" font-family="sans-serif" font-size="13" lengthAdjust="spacing" textLength="75" x="1426.5" y="455.5264">repositories()</text><polygon fill="#181818" points="1692,486.7344,1702,490.7344,1692,494.7344,1696,490.7344" style="stroke:#181818;stroke-width:1.0;"/><line style="stroke:#181818;stroke-width:1.0;" x1="1567" x2="1698" y1="490.7344" y2="490.7344"/><text fill="#000000" font-family="sans-serif" font-size="13" font-weight="bold" lengthAdjust="spacing" textLength="14" x="1574" y="485.8779">11</text><text fill="#000000" font-family="sans-serif" font-size="13" lengthAdjust="spacing" textLength="44" x="1592" y="485.8779">create()</text><polygon fill="#181818" points="1826.5,517.0859,1836.5,521.0859,1826.5,525.0859,1830.5,521.0859" style="stroke:#181818;stroke-width:1.0;"/><line style="stroke:#181818;stroke-width:1.0;" x1="1714" x2="1832.5" y1="521.0859" y2="521.0859"/><text fill="#000000" font-family="sans-serif" font-size="13" font-weight="bold" lengthAdjust="spacing" textLength="14" x="1721" y="516.2295">12</text><text fill="#000000" font-family="sans-serif" font-size="13" lengthAdjust="spacing" textLength="44" x="1739" y="516.2295">create()</text><polygon fill="#181818" points="1973.5,577.4375,1983.5,581.4375,1973.5,585.4375,1977.5,581.4375" style="stroke:#181818;stroke-width:1.0;"/><line style="stroke:#181818;stroke-width:1.0;" x1="1714" x2="1979.5" y1="581.4375" y2="581.4375"/><text fill="#000000" font-family="sans-serif" font-size="13" font-weight="bold" lengthAdjust="spacing" textLength="14" x="1721" y="576.5811">13</text><text fill="#000000" font-family="sans-serif" font-size="13" lengthAdjust="spacing" textLength="44" x="1739" y="576.5811">create()</text><polygon fill="#181818" points="1826.5,662.7891,1836.5,666.7891,1826.5,670.7891,1830.5,666.7891" style="stroke:#181818;stroke-width:1.0;"/><line style="stroke:#181818;stroke-width:1.0;" x1="1401.5" x2="1832.5" y1="666.7891" y2="666.7891"/><text fill="#000000" font-family="sans-serif" font-size="13" font-weight="bold" lengthAdjust="spacing" textLength="14" x="1408.5" y="661.9326">14</text><text fill="#000000" font-family="sans-serif" font-size="13" lengthAdjust="spacing" textLength="53" x="1426.5" y="661.9326">save(agv)</text><polygon fill="#181818" points="1973.5,723.1406,1983.5,727.1406,1973.5,731.1406,1977.5,727.1406" style="stroke:#181818;stroke-width:1.0;"/><line style="stroke:#181818;stroke-width:1.0;" x1="1401.5" x2="1979.5" y1="727.1406" y2="727.1406"/><text fill="#000000" font-family="sans-serif" font-size="13" font-weight="bold" lengthAdjust="spacing" textLength="14" x="1408.5" y="722.2842">15</text><text fill="#000000" font-family="sans-serif" font-size="13" lengthAdjust="spacing" textLength="96" x="1426.5" y="722.2842">save(warehouse)</text><polygon fill="#181818" points="88.5,783.4922,78.5,787.4922,88.5,791.4922,84.5,787.4922" style="stroke:#181818;stroke-width:1.0;"/><line style="stroke:#181818;stroke-width:1.0;stroke-dasharray:2.0,2.0;" x1="82.5" x2="734.5" y1="787.4922" y2="787.4922"/><text fill="#000000" font-family="sans-serif" font-size="13" font-weight="bold" lengthAdjust="spacing" textLength="14" x="94.5" y="782.6357">16</text><text fill="#000000" font-family="sans-serif" font-size="13" lengthAdjust="spacing" textLength="159" x="112.5" y="782.6357">informs operations success</text><!--MD5=[12277c7c4f9b383ff07a082aabce9b32]
@startuml
autonumber
'hide footbox
actor "Warehouse Employee" as WE

participant ":ConfigureAGVUI" as UI
participant ":ConfigureAGVController" as CTRL
participant ":PersistenceContext" as PC
participant ":RepositoryFactory" as RF
participant ":AGVRepository" as AR
participant ":WarehouseRepository" as WR
participant "agv:AGV" as A
participant ":AGVDocks" as AD
participant "warehouse:Warehouse" as W

activate WE
WE -> UI :asks to configure the AGVs available on the warehouse
activate UI
UI - -> WE : request data(agvDock)
deactivate UI
WE -> UI :types requested data
activate UI
UI - -> WE : request data(shortDescription,model,maximumWeight,maximumVolume,baseLocation,autonomy,currentTask)
deactivate UI

WE -> UI : types requested data
activate UI

UI -> CTRL : configureAGV(shortDescription,model,maximumWeight,maximumVolume,baseLocation,autonomy,currentTask)
activate CTRL

CTRL -> A** : agv = create(id,shortDescription,model,maximumWeight,maximumVolume,baseLocation,autonomy,currentTask)
CTRL -> AD : agvDock.set(agv)
activate AD
deactivate AD
CTRL -> W : warehouse.setaddAgvDocks(agvDock)
activate W
deactivate W
CTRL -> PC : repositories()
activate PC
PC -> RF : create()
activate RF
RF -> AR : create()
activate AR
deactivate AR
RF -> WR : create()
activate WR
deactivate WR
deactivate RF
|||
deactivate PC

CTRL -> AR : save(agv)
activate AR
deactivate AR
CTRL -> WR : save(warehouse)
activate WR
deactivate WR
deactivate CTRL
UI - -> WE : informs operations success
deactivate UI

deactivate WE
@enduml

@startuml
autonumber
actor "Warehouse Employee" as WE

participant ":ConfigureAGVUI" as UI
participant ":ConfigureAGVController" as CTRL
participant ":PersistenceContext" as PC
participant ":RepositoryFactory" as RF
participant ":AGVRepository" as AR
participant ":WarehouseRepository" as WR
participant "agv:AGV" as A
participant ":AGVDocks" as AD
participant "warehouse:Warehouse" as W

activate WE
WE -> UI :asks to configure the AGVs available on the warehouse
activate UI
UI - -> WE : request data(agvDock)
deactivate UI
WE -> UI :types requested data
activate UI
UI - -> WE : request data(shortDescription,model,maximumWeight,maximumVolume,baseLocation,autonomy,currentTask)
deactivate UI

WE -> UI : types requested data
activate UI

UI -> CTRL : configureAGV(shortDescription,model,maximumWeight,maximumVolume,baseLocation,autonomy,currentTask)
activate CTRL

CTRL -> A** : agv = create(id,shortDescription,model,maximumWeight,maximumVolume,baseLocation,autonomy,currentTask)
CTRL -> AD : agvDock.set(agv)
activate AD
deactivate AD
CTRL -> W : warehouse.setaddAgvDocks(agvDock)
activate W
deactivate W
CTRL -> PC : repositories()
activate PC
PC -> RF : create()
activate RF
RF -> AR : create()
activate AR
deactivate AR
RF -> WR : create()
activate WR
deactivate WR
deactivate RF
|||
deactivate PC

CTRL -> AR : save(agv)
activate AR
deactivate AR
CTRL -> WR : save(warehouse)
activate WR
deactivate WR
deactivate CTRL
UI - -> WE : informs operations success
deactivate UI

deactivate WE
@enduml

PlantUML version 1.2022.4(Sat Apr 09 14:29:17 BST 2022)
(GPL source distribution)
Java Runtime: OpenJDK Runtime Environment
JVM: OpenJDK 64-Bit Server VM
Default Encoding: Cp1252
Language: pt
Country: PT
--></g></svg>