<?xml version="1.0" encoding="UTF-8" standalone="no"?><svg xmlns="http://www.w3.org/2000/svg" xmlns:xlink="http://www.w3.org/1999/xlink" contentStyleType="text/css" height="633px" preserveAspectRatio="none" style="width:539px;height:633px;background:#FFFFFF;" version="1.1" viewBox="0 0 539 633" width="539px" zoomAndPan="magnify"><defs/><g><!--MD5=[5c1a4368efc4020c811f0dec2d8123d2]
cluster agv--><g id="cluster_agv"><path d="M233.5,6 L260.5,6 A3.75,3.75 0 0 1 263,8.5 L270,29.6094 L529.5,29.6094 A2.5,2.5 0 0 1 532,32.1094 L532,623.5 A2.5,2.5 0 0 1 529.5,626 L233.5,626 A2.5,2.5 0 0 1 231,623.5 L231,8.5 A2.5,2.5 0 0 1 233.5,6 " style="stroke:#000000;stroke-width:1.5;fill:none;"/><line style="stroke:#000000;stroke-width:1.5;fill:none;" x1="231" x2="270" y1="29.6094" y2="29.6094"/><text fill="#000000" font-family="sans-serif" font-size="14" font-weight="bold" lengthAdjust="spacing" textLength="26" x="235" y="22.5332">agv</text></g><!--MD5=[54ae7ce482b94e789eb1fedc8ac7dd67]
cluster warehouse--><g id="cluster_warehouse"><path d="M8.5,194 L87.5,194 A3.75,3.75 0 0 1 90,196.5 L97,217.6094 L135.5,217.6094 A2.5,2.5 0 0 1 138,220.1094 L138,435.5 A2.5,2.5 0 0 1 135.5,438 L8.5,438 A2.5,2.5 0 0 1 6,435.5 L6,196.5 A2.5,2.5 0 0 1 8.5,194 " style="stroke:#000000;stroke-width:1.5;fill:none;"/><line style="stroke:#000000;stroke-width:1.5;fill:none;" x1="6" x2="97" y1="217.6094" y2="217.6094"/><text fill="#000000" font-family="sans-serif" font-size="14" font-weight="bold" lengthAdjust="spacing" textLength="78" x="10" y="210.5332">warehouse</text></g><!--MD5=[53b2c06ade5903185ca3326dce80e141]
class AGV--><g id="elem_AGV"><rect codeLine="6" fill="#F1F1F1" height="68.3125" id="AGV" rx="2.5" ry="2.5" style="stroke:#181818;stroke-width:0.5;" width="71" x="247" y="292"/><ellipse cx="262" cy="313.3516" fill="#ADD1B2" rx="11" ry="11" style="stroke:#181818;stroke-width:1.0;"/><path d="M264,309.8516 Q264.2031,309.3516 264.4375,309.1016 Q264.6719,308.8516 264.9375,308.8516 Q265.4063,308.8516 265.7031,309.1328 Q266,309.4141 266,310.0703 L266,311.6328 Q266,312.2891 265.7188,312.5703 Q265.4375,312.8516 265,312.8516 Q264.6094,312.8516 264.3594,312.6797 Q264.1094,312.5078 264,312.0547 Q263.9531,311.7422 263.7813,311.5703 Q263.4688,311.2422 262.9063,311.0547 Q262.3438,310.8516 261.7813,310.8516 Q261.0781,310.8516 260.4844,311.1328 Q259.9063,311.4141 259.4531,312.0391 Q259,312.6641 259,313.5234 L259,314.4453 Q259,315.4766 259.8438,316.1641 Q260.6875,316.8516 262.1875,316.8516 Q263.0781,316.8516 263.7031,316.6484 Q264.0625,316.5391 264.4688,316.1797 Q264.7344,315.9766 264.875,315.9141 Q265.0156,315.8516 265.1875,315.8516 Q265.5156,315.8516 265.75,316.1172 Q266,316.3672 266,316.7266 Q266,317.0703 265.6563,317.4766 Q265.1563,318.0703 264.3594,318.3984 Q263.3125,318.8516 262.0313,318.8516 Q260.5313,318.8516 259.3281,318.2578 Q258.3594,317.7891 257.6719,316.7734 Q257,315.7578 257,314.5547 L257,313.4609 Q257,312.2109 257.5938,311.1172 Q258.2031,310.0234 259.25,309.4453 Q260.3125,308.8516 261.5,308.8516 Q262.2188,308.8516 262.8438,309.1016 Q263.4688,309.3516 264,309.8516 Z " fill="#000000"/><text fill="#000000" font-family="sans-serif" font-size="12" font-style="italic" lengthAdjust="spacing" textLength="43" x="274" y="309.457">«entity»</text><text fill="#000000" font-family="sans-serif" font-size="14" lengthAdjust="spacing" textLength="29" x="281" y="326.627">AGV</text><line style="stroke:#181818;stroke-width:0.5;" x1="248" x2="317" y1="334.7031" y2="334.7031"/><text fill="#000000" font-family="sans-serif" font-size="14" lengthAdjust="spacing" textLength="16" x="253" y="353.2363">-id</text></g><!--MD5=[79d3acb8d8b4a000645cdf546551f625]
class ShortDescription--><g id="elem_ShortDescription"><rect fill="#F1F1F1" height="50.7031" id="ShortDescription" rx="2.5" ry="2.5" style="stroke:#181818;stroke-width:0.5;" width="137" x="379" y="558.5"/><ellipse cx="394" cy="579.8516" fill="#ADD1B2" rx="11" ry="11" style="stroke:#181818;stroke-width:1.0;"/><path d="M396,576.3516 Q396.2031,575.8516 396.4375,575.6016 Q396.6719,575.3516 396.9375,575.3516 Q397.4063,575.3516 397.7031,575.6328 Q398,575.9141 398,576.5703 L398,578.1328 Q398,578.7891 397.7188,579.0703 Q397.4375,579.3516 397,579.3516 Q396.6094,579.3516 396.3594,579.1797 Q396.1094,579.0078 396,578.5547 Q395.9531,578.2422 395.7813,578.0703 Q395.4688,577.7422 394.9063,577.5547 Q394.3438,577.3516 393.7813,577.3516 Q393.0781,577.3516 392.4844,577.6328 Q391.9063,577.9141 391.4531,578.5391 Q391,579.1641 391,580.0234 L391,580.9453 Q391,581.9766 391.8438,582.6641 Q392.6875,583.3516 394.1875,583.3516 Q395.0781,583.3516 395.7031,583.1484 Q396.0625,583.0391 396.4688,582.6797 Q396.7344,582.4766 396.875,582.4141 Q397.0156,582.3516 397.1875,582.3516 Q397.5156,582.3516 397.75,582.6172 Q398,582.8672 398,583.2266 Q398,583.5703 397.6563,583.9766 Q397.1563,584.5703 396.3594,584.8984 Q395.3125,585.3516 394.0313,585.3516 Q392.5313,585.3516 391.3281,584.7578 Q390.3594,584.2891 389.6719,583.2734 Q389,582.2578 389,581.0547 L389,579.9609 Q389,578.7109 389.5938,577.6172 Q390.2031,576.5234 391.25,575.9453 Q392.3125,575.3516 393.5,575.3516 Q394.2188,575.3516 394.8438,575.6016 Q395.4688,575.8516 396,576.3516 Z " fill="#000000"/><text fill="#000000" font-family="sans-serif" font-size="12" font-style="italic" lengthAdjust="spacing" textLength="81" x="420" y="575.957">«value object»</text><text fill="#000000" font-family="sans-serif" font-size="14" lengthAdjust="spacing" textLength="105" x="408" y="593.127">ShortDescription</text><line style="stroke:#181818;stroke-width:0.5;" x1="380" x2="515" y1="601.2031" y2="601.2031"/></g><!--MD5=[7e20e022571e30ec1001cf6eabd7f3e2]
class Model--><g id="elem_Model"><rect fill="#F1F1F1" height="50.7031" id="Model" rx="2.5" ry="2.5" style="stroke:#181818;stroke-width:0.5;" width="109" x="393" y="472.5"/><ellipse cx="408" cy="493.8516" fill="#ADD1B2" rx="11" ry="11" style="stroke:#181818;stroke-width:1.0;"/><path d="M410,490.3516 Q410.2031,489.8516 410.4375,489.6016 Q410.6719,489.3516 410.9375,489.3516 Q411.4063,489.3516 411.7031,489.6328 Q412,489.9141 412,490.5703 L412,492.1328 Q412,492.7891 411.7188,493.0703 Q411.4375,493.3516 411,493.3516 Q410.6094,493.3516 410.3594,493.1797 Q410.1094,493.0078 410,492.5547 Q409.9531,492.2422 409.7813,492.0703 Q409.4688,491.7422 408.9063,491.5547 Q408.3438,491.3516 407.7813,491.3516 Q407.0781,491.3516 406.4844,491.6328 Q405.9063,491.9141 405.4531,492.5391 Q405,493.1641 405,494.0234 L405,494.9453 Q405,495.9766 405.8438,496.6641 Q406.6875,497.3516 408.1875,497.3516 Q409.0781,497.3516 409.7031,497.1484 Q410.0625,497.0391 410.4688,496.6797 Q410.7344,496.4766 410.875,496.4141 Q411.0156,496.3516 411.1875,496.3516 Q411.5156,496.3516 411.75,496.6172 Q412,496.8672 412,497.2266 Q412,497.5703 411.6563,497.9766 Q411.1563,498.5703 410.3594,498.8984 Q409.3125,499.3516 408.0313,499.3516 Q406.5313,499.3516 405.3281,498.7578 Q404.3594,498.2891 403.6719,497.2734 Q403,496.2578 403,495.0547 L403,493.9609 Q403,492.7109 403.5938,491.6172 Q404.2031,490.5234 405.25,489.9453 Q406.3125,489.3516 407.5,489.3516 Q408.2188,489.3516 408.8438,489.6016 Q409.4688,489.8516 410,490.3516 Z " fill="#000000"/><text fill="#000000" font-family="sans-serif" font-size="12" font-style="italic" lengthAdjust="spacing" textLength="81" x="420" y="489.957">«value object»</text><text fill="#000000" font-family="sans-serif" font-size="14" lengthAdjust="spacing" textLength="38" x="441.5" y="507.127">Model</text><line style="stroke:#181818;stroke-width:0.5;" x1="394" x2="501" y1="515.2031" y2="515.2031"/></g><!--MD5=[16d95e38f003ccc6ecae27689936446e]
class MaximumWeight--><g id="elem_MaximumWeight"><rect fill="#F1F1F1" height="50.7031" id="MaximumWeight" rx="2.5" ry="2.5" style="stroke:#181818;stroke-width:0.5;" width="134" x="380.5" y="386.5"/><ellipse cx="395.5" cy="407.8516" fill="#ADD1B2" rx="11" ry="11" style="stroke:#181818;stroke-width:1.0;"/><path d="M397.5,404.3516 Q397.7031,403.8516 397.9375,403.6016 Q398.1719,403.3516 398.4375,403.3516 Q398.9063,403.3516 399.2031,403.6328 Q399.5,403.9141 399.5,404.5703 L399.5,406.1328 Q399.5,406.7891 399.2188,407.0703 Q398.9375,407.3516 398.5,407.3516 Q398.1094,407.3516 397.8594,407.1797 Q397.6094,407.0078 397.5,406.5547 Q397.4531,406.2422 397.2813,406.0703 Q396.9688,405.7422 396.4063,405.5547 Q395.8438,405.3516 395.2813,405.3516 Q394.5781,405.3516 393.9844,405.6328 Q393.4063,405.9141 392.9531,406.5391 Q392.5,407.1641 392.5,408.0234 L392.5,408.9453 Q392.5,409.9766 393.3438,410.6641 Q394.1875,411.3516 395.6875,411.3516 Q396.5781,411.3516 397.2031,411.1484 Q397.5625,411.0391 397.9688,410.6797 Q398.2344,410.4766 398.375,410.4141 Q398.5156,410.3516 398.6875,410.3516 Q399.0156,410.3516 399.25,410.6172 Q399.5,410.8672 399.5,411.2266 Q399.5,411.5703 399.1563,411.9766 Q398.6563,412.5703 397.8594,412.8984 Q396.8125,413.3516 395.5313,413.3516 Q394.0313,413.3516 392.8281,412.7578 Q391.8594,412.2891 391.1719,411.2734 Q390.5,410.2578 390.5,409.0547 L390.5,407.9609 Q390.5,406.7109 391.0938,405.6172 Q391.7031,404.5234 392.75,403.9453 Q393.8125,403.3516 395,403.3516 Q395.7188,403.3516 396.3438,403.6016 Q396.9688,403.8516 397.5,404.3516 Z " fill="#000000"/><text fill="#000000" font-family="sans-serif" font-size="12" font-style="italic" lengthAdjust="spacing" textLength="81" x="420" y="403.957">«value object»</text><text fill="#000000" font-family="sans-serif" font-size="14" lengthAdjust="spacing" textLength="102" x="409.5" y="421.127">MaximumWeight</text><line style="stroke:#181818;stroke-width:0.5;" x1="381.5" x2="513.5" y1="429.2031" y2="429.2031"/></g><!--MD5=[b285e37e75726846a0747551cbfd9ec4]
class MaximumVolume--><g id="elem_MaximumVolume"><rect fill="#F1F1F1" height="50.7031" id="MaximumVolume" rx="2.5" ry="2.5" style="stroke:#181818;stroke-width:0.5;" width="137" x="379" y="300.5"/><ellipse cx="394" cy="321.8516" fill="#ADD1B2" rx="11" ry="11" style="stroke:#181818;stroke-width:1.0;"/><path d="M396,318.3516 Q396.2031,317.8516 396.4375,317.6016 Q396.6719,317.3516 396.9375,317.3516 Q397.4063,317.3516 397.7031,317.6328 Q398,317.9141 398,318.5703 L398,320.1328 Q398,320.7891 397.7188,321.0703 Q397.4375,321.3516 397,321.3516 Q396.6094,321.3516 396.3594,321.1797 Q396.1094,321.0078 396,320.5547 Q395.9531,320.2422 395.7813,320.0703 Q395.4688,319.7422 394.9063,319.5547 Q394.3438,319.3516 393.7813,319.3516 Q393.0781,319.3516 392.4844,319.6328 Q391.9063,319.9141 391.4531,320.5391 Q391,321.1641 391,322.0234 L391,322.9453 Q391,323.9766 391.8438,324.6641 Q392.6875,325.3516 394.1875,325.3516 Q395.0781,325.3516 395.7031,325.1484 Q396.0625,325.0391 396.4688,324.6797 Q396.7344,324.4766 396.875,324.4141 Q397.0156,324.3516 397.1875,324.3516 Q397.5156,324.3516 397.75,324.6172 Q398,324.8672 398,325.2266 Q398,325.5703 397.6563,325.9766 Q397.1563,326.5703 396.3594,326.8984 Q395.3125,327.3516 394.0313,327.3516 Q392.5313,327.3516 391.3281,326.7578 Q390.3594,326.2891 389.6719,325.2734 Q389,324.2578 389,323.0547 L389,321.9609 Q389,320.7109 389.5938,319.6172 Q390.2031,318.5234 391.25,317.9453 Q392.3125,317.3516 393.5,317.3516 Q394.2188,317.3516 394.8438,317.6016 Q395.4688,317.8516 396,318.3516 Z " fill="#000000"/><text fill="#000000" font-family="sans-serif" font-size="12" font-style="italic" lengthAdjust="spacing" textLength="81" x="420" y="317.957">«value object»</text><text fill="#000000" font-family="sans-serif" font-size="14" lengthAdjust="spacing" textLength="105" x="408" y="335.127">MaximumVolume</text><line style="stroke:#181818;stroke-width:0.5;" x1="380" x2="515" y1="343.2031" y2="343.2031"/></g><!--MD5=[064b306410e464970cda6c2fc60b7bb8]
class BaseLocation--><g id="elem_BaseLocation"><rect fill="#F1F1F1" height="50.7031" id="BaseLocation" rx="2.5" ry="2.5" style="stroke:#181818;stroke-width:0.5;" width="118" x="388.5" y="214.5"/><ellipse cx="403.5" cy="235.8516" fill="#ADD1B2" rx="11" ry="11" style="stroke:#181818;stroke-width:1.0;"/><path d="M405.5,232.3516 Q405.7031,231.8516 405.9375,231.6016 Q406.1719,231.3516 406.4375,231.3516 Q406.9063,231.3516 407.2031,231.6328 Q407.5,231.9141 407.5,232.5703 L407.5,234.1328 Q407.5,234.7891 407.2188,235.0703 Q406.9375,235.3516 406.5,235.3516 Q406.1094,235.3516 405.8594,235.1797 Q405.6094,235.0078 405.5,234.5547 Q405.4531,234.2422 405.2813,234.0703 Q404.9688,233.7422 404.4063,233.5547 Q403.8438,233.3516 403.2813,233.3516 Q402.5781,233.3516 401.9844,233.6328 Q401.4063,233.9141 400.9531,234.5391 Q400.5,235.1641 400.5,236.0234 L400.5,236.9453 Q400.5,237.9766 401.3438,238.6641 Q402.1875,239.3516 403.6875,239.3516 Q404.5781,239.3516 405.2031,239.1484 Q405.5625,239.0391 405.9688,238.6797 Q406.2344,238.4766 406.375,238.4141 Q406.5156,238.3516 406.6875,238.3516 Q407.0156,238.3516 407.25,238.6172 Q407.5,238.8672 407.5,239.2266 Q407.5,239.5703 407.1563,239.9766 Q406.6563,240.5703 405.8594,240.8984 Q404.8125,241.3516 403.5313,241.3516 Q402.0313,241.3516 400.8281,240.7578 Q399.8594,240.2891 399.1719,239.2734 Q398.5,238.2578 398.5,237.0547 L398.5,235.9609 Q398.5,234.7109 399.0938,233.6172 Q399.7031,232.5234 400.75,231.9453 Q401.8125,231.3516 403,231.3516 Q403.7188,231.3516 404.3438,231.6016 Q404.9688,231.8516 405.5,232.3516 Z " fill="#000000"/><text fill="#000000" font-family="sans-serif" font-size="12" font-style="italic" lengthAdjust="spacing" textLength="81" x="420" y="231.957">«value object»</text><text fill="#000000" font-family="sans-serif" font-size="14" lengthAdjust="spacing" textLength="86" x="417.5" y="249.127">BaseLocation</text><line style="stroke:#181818;stroke-width:0.5;" x1="389.5" x2="505.5" y1="257.2031" y2="257.2031"/></g><!--MD5=[e3d83ec5fd90ea9f3f2bfe265cb53458]
class Status--><g id="elem_Status"><rect fill="#F1F1F1" height="50.7031" id="Status" rx="2.5" ry="2.5" style="stroke:#181818;stroke-width:0.5;" width="109" x="393" y="128.5"/><ellipse cx="408" cy="149.8516" fill="#ADD1B2" rx="11" ry="11" style="stroke:#181818;stroke-width:1.0;"/><path d="M410,146.3516 Q410.2031,145.8516 410.4375,145.6016 Q410.6719,145.3516 410.9375,145.3516 Q411.4063,145.3516 411.7031,145.6328 Q412,145.9141 412,146.5703 L412,148.1328 Q412,148.7891 411.7188,149.0703 Q411.4375,149.3516 411,149.3516 Q410.6094,149.3516 410.3594,149.1797 Q410.1094,149.0078 410,148.5547 Q409.9531,148.2422 409.7813,148.0703 Q409.4688,147.7422 408.9063,147.5547 Q408.3438,147.3516 407.7813,147.3516 Q407.0781,147.3516 406.4844,147.6328 Q405.9063,147.9141 405.4531,148.5391 Q405,149.1641 405,150.0234 L405,150.9453 Q405,151.9766 405.8438,152.6641 Q406.6875,153.3516 408.1875,153.3516 Q409.0781,153.3516 409.7031,153.1484 Q410.0625,153.0391 410.4688,152.6797 Q410.7344,152.4766 410.875,152.4141 Q411.0156,152.3516 411.1875,152.3516 Q411.5156,152.3516 411.75,152.6172 Q412,152.8672 412,153.2266 Q412,153.5703 411.6563,153.9766 Q411.1563,154.5703 410.3594,154.8984 Q409.3125,155.3516 408.0313,155.3516 Q406.5313,155.3516 405.3281,154.7578 Q404.3594,154.2891 403.6719,153.2734 Q403,152.2578 403,151.0547 L403,149.9609 Q403,148.7109 403.5938,147.6172 Q404.2031,146.5234 405.25,145.9453 Q406.3125,145.3516 407.5,145.3516 Q408.2188,145.3516 408.8438,145.6016 Q409.4688,145.8516 410,146.3516 Z " fill="#000000"/><text fill="#000000" font-family="sans-serif" font-size="12" font-style="italic" lengthAdjust="spacing" textLength="81" x="420" y="145.957">«value object»</text><text fill="#000000" font-family="sans-serif" font-size="14" lengthAdjust="spacing" textLength="40" x="440.5" y="163.127">Status</text><line style="stroke:#181818;stroke-width:0.5;" x1="394" x2="501" y1="171.2031" y2="171.2031"/></g><!--MD5=[38bcef8836b1321d22ded0540bc794c3]
class CurrentTask--><g id="elem_CurrentTask"><rect fill="#F1F1F1" height="50.7031" id="CurrentTask" rx="2.5" ry="2.5" style="stroke:#181818;stroke-width:0.5;" width="111" x="392" y="42.5"/><ellipse cx="407" cy="63.8516" fill="#ADD1B2" rx="11" ry="11" style="stroke:#181818;stroke-width:1.0;"/><path d="M409,60.3516 Q409.2031,59.8516 409.4375,59.6016 Q409.6719,59.3516 409.9375,59.3516 Q410.4063,59.3516 410.7031,59.6328 Q411,59.9141 411,60.5703 L411,62.1328 Q411,62.7891 410.7188,63.0703 Q410.4375,63.3516 410,63.3516 Q409.6094,63.3516 409.3594,63.1797 Q409.1094,63.0078 409,62.5547 Q408.9531,62.2422 408.7813,62.0703 Q408.4688,61.7422 407.9063,61.5547 Q407.3438,61.3516 406.7813,61.3516 Q406.0781,61.3516 405.4844,61.6328 Q404.9063,61.9141 404.4531,62.5391 Q404,63.1641 404,64.0234 L404,64.9453 Q404,65.9766 404.8438,66.6641 Q405.6875,67.3516 407.1875,67.3516 Q408.0781,67.3516 408.7031,67.1484 Q409.0625,67.0391 409.4688,66.6797 Q409.7344,66.4766 409.875,66.4141 Q410.0156,66.3516 410.1875,66.3516 Q410.5156,66.3516 410.75,66.6172 Q411,66.8672 411,67.2266 Q411,67.5703 410.6563,67.9766 Q410.1563,68.5703 409.3594,68.8984 Q408.3125,69.3516 407.0313,69.3516 Q405.5313,69.3516 404.3281,68.7578 Q403.3594,68.2891 402.6719,67.2734 Q402,66.2578 402,65.0547 L402,63.9609 Q402,62.7109 402.5938,61.6172 Q403.2031,60.5234 404.25,59.9453 Q405.3125,59.3516 406.5,59.3516 Q407.2188,59.3516 407.8438,59.6016 Q408.4688,59.8516 409,60.3516 Z " fill="#000000"/><text fill="#000000" font-family="sans-serif" font-size="12" font-style="italic" lengthAdjust="spacing" textLength="81" x="420" y="59.957">«value object»</text><text fill="#000000" font-family="sans-serif" font-size="14" lengthAdjust="spacing" textLength="79" x="421" y="77.127">CurrentTask</text><line style="stroke:#181818;stroke-width:0.5;" x1="393" x2="502" y1="85.2031" y2="85.2031"/></g><!--MD5=[e002a6c585fd1b8067a69667d3ea97ef]
class AGVDocks--><g id="elem_AGVDocks"><rect codeLine="24" fill="#F1F1F1" height="191.5781" id="AGVDocks" rx="2.5" ry="2.5" style="stroke:#181818;stroke-width:0.5;" width="100" x="22" y="230"/><ellipse cx="37" cy="251.3516" fill="#ADD1B2" rx="11" ry="11" style="stroke:#181818;stroke-width:1.0;"/><path d="M39,247.8516 Q39.2031,247.3516 39.4375,247.1016 Q39.6719,246.8516 39.9375,246.8516 Q40.4063,246.8516 40.7031,247.1328 Q41,247.4141 41,248.0703 L41,249.6328 Q41,250.2891 40.7188,250.5703 Q40.4375,250.8516 40,250.8516 Q39.6094,250.8516 39.3594,250.6797 Q39.1094,250.5078 39,250.0547 Q38.9531,249.7422 38.7813,249.5703 Q38.4688,249.2422 37.9063,249.0547 Q37.3438,248.8516 36.7813,248.8516 Q36.0781,248.8516 35.4844,249.1328 Q34.9063,249.4141 34.4531,250.0391 Q34,250.6641 34,251.5234 L34,252.4453 Q34,253.4766 34.8438,254.1641 Q35.6875,254.8516 37.1875,254.8516 Q38.0781,254.8516 38.7031,254.6484 Q39.0625,254.5391 39.4688,254.1797 Q39.7344,253.9766 39.875,253.9141 Q40.0156,253.8516 40.1875,253.8516 Q40.5156,253.8516 40.75,254.1172 Q41,254.3672 41,254.7266 Q41,255.0703 40.6563,255.4766 Q40.1563,256.0703 39.3594,256.3984 Q38.3125,256.8516 37.0313,256.8516 Q35.5313,256.8516 34.3281,256.2578 Q33.3594,255.7891 32.6719,254.7734 Q32,253.7578 32,252.5547 L32,251.4609 Q32,250.2109 32.5938,249.1172 Q33.2031,248.0234 34.25,247.4453 Q35.3125,246.8516 36.5,246.8516 Q37.2188,246.8516 37.8438,247.1016 Q38.4688,247.3516 39,247.8516 Z " fill="#000000"/><text fill="#000000" font-family="sans-serif" font-size="12" font-style="italic" lengthAdjust="spacing" textLength="43" x="63.5" y="247.457">«entity»</text><text fill="#000000" font-family="sans-serif" font-size="14" lengthAdjust="spacing" textLength="68" x="51" y="264.627">AGVDocks</text><line style="stroke:#181818;stroke-width:0.5;" x1="23" x2="121" y1="272.7031" y2="272.7031"/><text fill="#000000" font-family="sans-serif" font-size="14" lengthAdjust="spacing" textLength="16" x="28" y="291.2363">-id</text><text fill="#000000" font-family="sans-serif" font-size="14" lengthAdjust="spacing" textLength="43" x="28" y="308.8457">-beginl</text><text fill="#000000" font-family="sans-serif" font-size="14" lengthAdjust="spacing" textLength="49" x="28" y="326.4551">-beginw</text><text fill="#000000" font-family="sans-serif" font-size="14" lengthAdjust="spacing" textLength="32" x="28" y="344.0645">-endl</text><text fill="#000000" font-family="sans-serif" font-size="14" lengthAdjust="spacing" textLength="38" x="28" y="361.6738">-endw</text><text fill="#000000" font-family="sans-serif" font-size="14" lengthAdjust="spacing" textLength="44" x="28" y="379.2832">-depthl</text><text fill="#000000" font-family="sans-serif" font-size="14" lengthAdjust="spacing" textLength="50" x="28" y="396.8926">-depthw</text><text fill="#000000" font-family="sans-serif" font-size="14" lengthAdjust="spacing" textLength="80" x="28" y="414.502">-accessibility</text></g><!--MD5=[4e47cf26289c644c6e9031256c211d6b]
link AGVDocks to AGV--><g id="link_AGVDocks_AGV"><path codeLine="37" d="M122.15,326 C160.43,326 212.63,326 246.69,326 " fill="none" id="AGVDocks-AGV" style="stroke:#181818;stroke-width:1.0;"/><polygon fill="#000000" points="154,317.1758,163.0451,320.1147,163.0451,314.2369,154,317.1758" style="stroke:#000000;stroke-width:1.0;"/><text fill="#000000" font-family="sans-serif" font-size="13" lengthAdjust="spacing" textLength="46" x="168" y="322.4951">parks in</text><text fill="#000000" font-family="sans-serif" font-size="13" lengthAdjust="spacing" textLength="7" x="130.0298" y="340.7269">1</text><text fill="#000000" font-family="sans-serif" font-size="13" lengthAdjust="spacing" textLength="7" x="231.9508" y="341.074">1</text></g><!--MD5=[bba317dcae9279c3937714ed06aa4019]
link AGV to ShortDescription--><g id="link_AGV_ShortDescription"><path codeLine="38" d="M292.02,360.29 C304.71,405.79 332.23,486.68 379,541 C383.41,546.12 388.57,550.84 394.05,555.14 " fill="none" id="AGV-to-ShortDescription" style="stroke:#181818;stroke-width:1.0;"/><polygon fill="#181818" points="398.3,558.34,393.5196,549.7291,394.3069,555.3309,388.705,556.1181,398.3,558.34" style="stroke:#181818;stroke-width:1.0;"/><text fill="#000000" font-family="sans-serif" font-size="13" lengthAdjust="spacing" textLength="7" x="378.4544" y="547.7095">1</text></g><!--MD5=[90de021bb2aa8991bb28cb59916c543e]
link AGV to Model--><g id="link_AGV_Model"><path codeLine="39" d="M303.87,360.21 C321.45,387.89 348.73,426.78 379,455 C384.45,460.08 390.58,464.92 396.86,469.4 " fill="none" id="AGV-to-Model" style="stroke:#181818;stroke-width:1.0;"/><polygon fill="#181818" points="401.23,472.43,396.1193,464.011,397.1232,469.578,391.5561,470.5819,401.23,472.43" style="stroke:#181818;stroke-width:1.0;"/><text fill="#000000" font-family="sans-serif" font-size="13" lengthAdjust="spacing" textLength="7" x="382.0986" y="461.8215">1</text></g><!--MD5=[c72f1e6940ed6ecc2c144a601f0c19a4]
link AGV to MaximumWeight--><g id="link_AGV_MaximumWeight"><path codeLine="40" d="M318.07,344.24 C339.97,355.8 368.74,370.97 393.5,384.04 " fill="none" id="AGV-to-MaximumWeight" style="stroke:#181818;stroke-width:1.0;"/><polygon fill="#181818" points="398.07,386.45,391.9759,378.7129,393.6476,384.1171,388.2434,385.7888,398.07,386.45" style="stroke:#181818;stroke-width:1.0;"/><text fill="#000000" font-family="sans-serif" font-size="13" lengthAdjust="spacing" textLength="7" x="378.1683" y="375.8463">1</text></g><!--MD5=[67bde9aab136fc3a908675e16468351d]
link AGV to MaximumVolume--><g id="link_AGV_MaximumVolume"><path codeLine="41" d="M318.07,326 C334.21,326 354.08,326 373.33,326 " fill="none" id="AGV-to-MaximumVolume" style="stroke:#181818;stroke-width:1.0;"/><polygon fill="#181818" points="378.74,326,369.74,322,373.74,326,369.74,330,378.74,326" style="stroke:#181818;stroke-width:1.0;"/><text fill="#000000" font-family="sans-serif" font-size="13" lengthAdjust="spacing" textLength="7" x="363.8366" y="340.4056">1</text></g><!--MD5=[670f8ab1959079f3e542dc0d97ca6264]
link AGV to BaseLocation--><g id="link_AGV_BaseLocation"><path codeLine="42" d="M318.07,307.76 C339.97,296.2 368.74,281.03 393.5,267.96 " fill="none" id="AGV-to-BaseLocation" style="stroke:#181818;stroke-width:1.0;"/><polygon fill="#181818" points="398.07,265.55,388.2434,266.2112,393.6476,267.8829,391.9759,273.2871,398.07,265.55" style="stroke:#181818;stroke-width:1.0;"/><text fill="#000000" font-family="sans-serif" font-size="13" lengthAdjust="spacing" textLength="7" x="378.8299" y="286.8785">1</text></g><!--MD5=[f5443cc58319b313032a803e076be4aa]
link AGV to Status--><g id="link_AGV_Status"><path codeLine="43" d="M303.87,291.79 C321.45,264.11 348.73,225.22 379,197 C384.45,191.92 390.58,187.08 396.86,182.6 " fill="none" id="AGV-to-Status" style="stroke:#181818;stroke-width:1.0;"/><polygon fill="#181818" points="401.23,179.57,391.5561,181.4181,397.1232,182.422,396.1193,187.989,401.23,179.57" style="stroke:#181818;stroke-width:1.0;"/><text fill="#000000" font-family="sans-serif" font-size="13" lengthAdjust="spacing" textLength="7" x="382.7207" y="200.9032">1</text></g><!--MD5=[92849aba45a5a3491428223c69d2c017]
link AGV to CurrentTask--><g id="link_AGV_CurrentTask"><path codeLine="44" d="M292.02,291.71 C304.71,246.21 332.23,165.32 379,111 C383.41,105.88 388.57,101.16 394.05,96.86 " fill="none" id="AGV-to-CurrentTask" style="stroke:#181818;stroke-width:1.0;"/><polygon fill="#181818" points="398.3,93.66,388.705,95.8819,394.3069,96.6691,393.5196,102.2709,398.3,93.66" style="stroke:#181818;stroke-width:1.0;"/><text fill="#000000" font-family="sans-serif" font-size="13" lengthAdjust="spacing" textLength="7" x="379.7719" y="114.5892">1</text></g><!--MD5=[5d7e2400714da3cbe4c6db8fe6235d80]
@startuml
hide methods
left to right direction
skinparam classAttributeIconSize 0

package "agv"{
class AGV{
-id
}

AGV <<entity>>
ShortDescription <<value object>>
Model <<value object>>
MaximumWeight <<value object>>
MaximumVolume <<value object>>
BaseLocation <<value object>>
Status <<value object>>
CurrentTask <<value object>>

}


package "warehouse"{
AGVDocks <<entity>>
class AGVDocks{
-id
-beginl
-beginw
-endl
-endw
-depthl
-depthw
-accessibility
}
}


AGVDocks "1" - - "1" AGV : parks in <
AGV  - -> "1" ShortDescription
AGV  - -> "1" Model
AGV  - -> "1" MaximumWeight
AGV  - -> "1" MaximumVolume
AGV  - -> "1" BaseLocation
AGV  - -> "1" Status
AGV  - -> "1" CurrentTask




@enduml

PlantUML version 1.2022.4(Sat Apr 09 14:29:17 BST 2022)
(GPL source distribution)
Java Runtime: OpenJDK Runtime Environment
JVM: OpenJDK 64-Bit Server VM
Default Encoding: Cp1252
Language: pt
Country: PT
--></g></svg>