<?xml version="1.0" encoding="UTF-8" standalone="no"?><svg xmlns="http://www.w3.org/2000/svg" xmlns:xlink="http://www.w3.org/1999/xlink" contentStyleType="text/css" height="580.2px" preserveAspectRatio="none" style="width:749px;height:580px;background:#FFFFFF;" version="1.1" viewBox="0 0 749 580" width="749.4px" zoomAndPan="magnify"><defs/><g><!--MD5=[8fd473fd151a2794da4f2c8684676405]
cluster Presentation--><g id="cluster_Presentation"><path d="M135.3,3.6 L189.9,3.6 A2.25,2.25 0 0 1 191.4,5.1 L195.6,17.7656 L245.1,17.7656 A1.5,1.5 0 0 1 246.6,19.2656 L246.6,62.1 A1.5,1.5 0 0 1 245.1,63.6 L135.3,63.6 A1.5,1.5 0 0 1 133.8,62.1 L133.8,5.1 A1.5,1.5 0 0 1 135.3,3.6 " style="stroke:#000000;stroke-width:0.8999999999999999;fill:none;"/><line style="stroke:#000000;stroke-width:0.8999999999999999;fill:none;" x1="133.8" x2="195.6" y1="17.7656" y2="17.7656"/><text fill="#000000" font-family="sans-serif" font-size="8.4" font-weight="bold" lengthAdjust="spacing" textLength="54" x="136.2" y="13.5199">Presentation</text></g><!--MD5=[d64883541e3d62e3241c4d12decf100d]
cluster Application--><g id="cluster_Application"><path d="M120.3,78 L167.7,78 A2.25,2.25 0 0 1 169.2,79.5 L173.4,92.1656 L260.1,92.1656 A1.5,1.5 0 0 1 261.6,93.6656 L261.6,136.5 A1.5,1.5 0 0 1 260.1,138 L120.3,138 A1.5,1.5 0 0 1 118.8,136.5 L118.8,79.5 A1.5,1.5 0 0 1 120.3,78 " style="stroke:#000000;stroke-width:0.8999999999999999;fill:none;"/><line style="stroke:#000000;stroke-width:0.8999999999999999;fill:none;" x1="118.8" x2="173.4" y1="92.1656" y2="92.1656"/><text fill="#000000" font-family="sans-serif" font-size="8.4" font-weight="bold" lengthAdjust="spacing" textLength="46.8" x="121.2" y="87.9199">Application</text></g><!--MD5=[121a8bf1197281ab89ed693fab589f94]
cluster Domain--><g id="cluster_Domain"><path d="M5.1,516 L36.9,516 A2.25,2.25 0 0 1 38.4,517.5 L42.6,530.1656 L381.3,530.1656 A1.5,1.5 0 0 1 382.8,531.6656 L382.8,574.5 A1.5,1.5 0 0 1 381.3,576 L5.1,576 A1.5,1.5 0 0 1 3.6,574.5 L3.6,517.5 A1.5,1.5 0 0 1 5.1,516 " style="stroke:#000000;stroke-width:0.8999999999999999;fill:none;"/><line style="stroke:#000000;stroke-width:0.8999999999999999;fill:none;" x1="3.6" x2="42.6" y1="530.1656" y2="530.1656"/><text fill="#000000" font-family="sans-serif" font-size="8.4" font-weight="bold" lengthAdjust="spacing" textLength="31.2" x="6" y="525.9199">Domain</text></g><!--MD5=[bc6b40dadbf86ab6a0c8405a467a48af]
cluster Persistence--><g id="cluster_Persistence"><path d="M333.3,179.4 L384.3,179.4 A2.25,2.25 0 0 1 385.8,180.9 L390,193.5656 L441.9,193.5656 A1.5,1.5 0 0 1 443.4,195.0656 L443.4,248.7 A1.5,1.5 0 0 1 441.9,250.2 L333.3,250.2 A1.5,1.5 0 0 1 331.8,248.7 L331.8,180.9 A1.5,1.5 0 0 1 333.3,179.4 " style="stroke:#000000;stroke-width:0.8999999999999999;fill:none;"/><line style="stroke:#000000;stroke-width:0.8999999999999999;fill:none;" x1="331.8" x2="390" y1="193.5656" y2="193.5656"/><text fill="#000000" font-family="sans-serif" font-size="8.4" font-weight="bold" lengthAdjust="spacing" textLength="50.4" x="334.2" y="189.3199">Persistence</text></g><!--MD5=[0d5799440b3bfefd92b00abfcd2c79b9]
cluster Factory--><g id="cluster_Factory"><path d="M355.5,291.6 L387.3,291.6 A2.25,2.25 0 0 1 388.8,293.1 L393,305.7656 L460.5,305.7656 A1.5,1.5 0 0 1 462,307.2656 L462,360.9 A1.5,1.5 0 0 1 460.5,362.4 L355.5,362.4 A1.5,1.5 0 0 1 354,360.9 L354,293.1 A1.5,1.5 0 0 1 355.5,291.6 " style="stroke:#000000;stroke-width:0.8999999999999999;fill:none;"/><line style="stroke:#000000;stroke-width:0.8999999999999999;fill:none;" x1="354" x2="393" y1="305.7656" y2="305.7656"/><text fill="#000000" font-family="sans-serif" font-size="8.4" font-weight="bold" lengthAdjust="spacing" textLength="31.2" x="356.4" y="301.5199">Factory</text></g><!--MD5=[71971f99a41bb66cf321ce46bb59f738]
cluster Repository--><g id="cluster_Repository"><path d="M299.1,403.8 L345.3,403.8 A2.25,2.25 0 0 1 346.8,405.3 L351,417.9656 L743.7,417.9656 A1.5,1.5 0 0 1 745.2,419.4656 L745.2,473.1 A1.5,1.5 0 0 1 743.7,474.6 L299.1,474.6 A1.5,1.5 0 0 1 297.6,473.1 L297.6,405.3 A1.5,1.5 0 0 1 299.1,403.8 " style="stroke:#000000;stroke-width:0.8999999999999999;fill:none;"/><line style="stroke:#000000;stroke-width:0.8999999999999999;fill:none;" x1="297.6" x2="351" y1="417.9656" y2="417.9656"/><text fill="#000000" font-family="sans-serif" font-size="8.4" font-weight="bold" lengthAdjust="spacing" textLength="45.6" x="300" y="413.7199">Repository</text></g><!--MD5=[1e61acfa56001ad227d509adeb7fe57a]
class QuestionnaireListUI--><g id="elem_QuestionnaireListUI"><rect codeLine="4" fill="#F1F1F1" height="28.8" id="QuestionnaireListUI" rx="1.5" ry="1.5" style="stroke:#181818;stroke-width:0.3;" width="93" x="143.7" y="25.2"/><ellipse cx="152.7" cy="34.8" fill="#ADD1B2" rx="6.6" ry="6.6" style="stroke:#181818;stroke-width:0.6;"/><path d="M153.9,32.7 Q154.0219,32.4 154.1625,32.25 Q154.3031,32.1 154.4625,32.1 Q154.7438,32.1 154.9219,32.2688 Q155.1,32.4375 155.1,32.8313 L155.1,33.7688 Q155.1,34.1625 154.9313,34.3313 Q154.7625,34.5 154.5,34.5 Q154.2656,34.5 154.1156,34.3969 Q153.9656,34.2937 153.9,34.0219 Q153.8719,33.8344 153.7687,33.7312 Q153.5812,33.5344 153.2438,33.4219 Q152.9063,33.3 152.5688,33.3 Q152.1469,33.3 151.7906,33.4688 Q151.4438,33.6375 151.1719,34.0125 Q150.9,34.3875 150.9,34.9031 L150.9,35.4563 Q150.9,36.075 151.4063,36.4875 Q151.9125,36.9 152.8125,36.9 Q153.3469,36.9 153.7219,36.7781 Q153.9375,36.7125 154.1813,36.4969 Q154.3406,36.375 154.425,36.3375 Q154.5094,36.3 154.6125,36.3 Q154.8094,36.3 154.95,36.4594 Q155.1,36.6094 155.1,36.825 Q155.1,37.0313 154.8937,37.275 Q154.5938,37.6313 154.1156,37.8281 Q153.4875,38.1 152.7188,38.1 Q151.8188,38.1 151.0969,37.7438 Q150.5156,37.4625 150.1031,36.8531 Q149.7,36.2438 149.7,35.5219 L149.7,34.8656 Q149.7,34.1156 150.0563,33.4594 Q150.4219,32.8031 151.05,32.4563 Q151.6875,32.1 152.4,32.1 Q152.8312,32.1 153.2062,32.25 Q153.5812,32.4 153.9,32.7 Z " fill="#000000"/><text fill="#000000" font-family="sans-serif" font-size="8.4" lengthAdjust="spacing" textLength="73.8" x="161.1" y="38.2371">QuestionnaireListUI</text><line style="stroke:#181818;stroke-width:0.3;" x1="144.3" x2="236.1" y1="44.4" y2="44.4"/><line style="stroke:#181818;stroke-width:0.3;" x1="144.3" x2="236.1" y1="49.2" y2="49.2"/></g><!--MD5=[17f8201f95f8837f705c1a263237766b]
class QuestionnaireListController--><g id="elem_QuestionnaireListController"><rect codeLine="8" fill="#F1F1F1" height="28.8" id="QuestionnaireListController" rx="1.5" ry="1.5" style="stroke:#181818;stroke-width:0.3;" width="123" x="128.7" y="99.6"/><ellipse cx="137.7" cy="109.2" fill="#ADD1B2" rx="6.6" ry="6.6" style="stroke:#181818;stroke-width:0.6;"/><path d="M138.9,107.1 Q139.0219,106.8 139.1625,106.65 Q139.3031,106.5 139.4625,106.5 Q139.7438,106.5 139.9219,106.6688 Q140.1,106.8375 140.1,107.2313 L140.1,108.1688 Q140.1,108.5625 139.9313,108.7313 Q139.7625,108.9 139.5,108.9 Q139.2656,108.9 139.1156,108.7969 Q138.9656,108.6938 138.9,108.4219 Q138.8719,108.2344 138.7687,108.1313 Q138.5812,107.9344 138.2438,107.8219 Q137.9063,107.7 137.5688,107.7 Q137.1469,107.7 136.7906,107.8687 Q136.4438,108.0375 136.1719,108.4125 Q135.9,108.7875 135.9,109.3031 L135.9,109.8563 Q135.9,110.475 136.4063,110.8875 Q136.9125,111.3 137.8125,111.3 Q138.3469,111.3 138.7219,111.1781 Q138.9375,111.1125 139.1813,110.8969 Q139.3406,110.775 139.425,110.7375 Q139.5094,110.7 139.6125,110.7 Q139.8094,110.7 139.95,110.8594 Q140.1,111.0094 140.1,111.225 Q140.1,111.4312 139.8937,111.675 Q139.5938,112.0313 139.1156,112.2281 Q138.4875,112.5 137.7188,112.5 Q136.8188,112.5 136.0969,112.1438 Q135.5156,111.8625 135.1031,111.2531 Q134.7,110.6438 134.7,109.9219 L134.7,109.2656 Q134.7,108.5156 135.0563,107.8594 Q135.4219,107.2031 136.05,106.8563 Q136.6875,106.5 137.4,106.5 Q137.8312,106.5 138.2062,106.65 Q138.5812,106.8 138.9,107.1 Z " fill="#000000"/><text fill="#000000" font-family="sans-serif" font-size="8.4" lengthAdjust="spacing" textLength="103.8" x="146.1" y="112.6371">QuestionnaireListController</text><line style="stroke:#181818;stroke-width:0.3;" x1="129.3" x2="251.1" y1="118.8" y2="118.8"/><line style="stroke:#181818;stroke-width:0.3;" x1="129.3" x2="251.1" y1="123.6" y2="123.6"/></g><!--MD5=[2ce0c9fb7f55b1e256ab28a8ea6b25ec]
class Customer--><g id="elem_Customer"><rect codeLine="12" fill="#F1F1F1" height="28.8" id="Customer" rx="1.5" ry="1.5" style="stroke:#181818;stroke-width:0.3;" width="55.8" x="156.3" y="537.6"/><ellipse cx="165.3" cy="547.2" fill="#ADD1B2" rx="6.6" ry="6.6" style="stroke:#181818;stroke-width:0.6;"/><path d="M166.5,545.1 Q166.6219,544.8 166.7625,544.65 Q166.9031,544.5 167.0625,544.5 Q167.3438,544.5 167.5219,544.6687 Q167.7,544.8375 167.7,545.2312 L167.7,546.1687 Q167.7,546.5625 167.5313,546.7312 Q167.3625,546.9 167.1,546.9 Q166.8656,546.9 166.7156,546.7969 Q166.5656,546.6938 166.5,546.4219 Q166.4719,546.2344 166.3688,546.1313 Q166.1813,545.9344 165.8438,545.8219 Q165.5063,545.7 165.1688,545.7 Q164.7469,545.7 164.3906,545.8688 Q164.0438,546.0375 163.7719,546.4125 Q163.5,546.7875 163.5,547.3031 L163.5,547.8562 Q163.5,548.475 164.0063,548.8875 Q164.5125,549.3 165.4125,549.3 Q165.9469,549.3 166.3219,549.1781 Q166.5375,549.1125 166.7813,548.8969 Q166.9406,548.775 167.025,548.7375 Q167.1094,548.7 167.2125,548.7 Q167.4094,548.7 167.55,548.8594 Q167.7,549.0094 167.7,549.225 Q167.7,549.4313 167.4938,549.675 Q167.1938,550.0313 166.7156,550.2281 Q166.0875,550.5 165.3188,550.5 Q164.4188,550.5 163.6969,550.1438 Q163.1156,549.8625 162.7031,549.2531 Q162.3,548.6438 162.3,547.9219 L162.3,547.2656 Q162.3,546.5156 162.6563,545.8594 Q163.0219,545.2031 163.65,544.8562 Q164.2875,544.5 165,544.5 Q165.4313,544.5 165.8063,544.65 Q166.1813,544.8 166.5,545.1 Z " fill="#000000"/><text fill="#000000" font-family="sans-serif" font-size="8.4" lengthAdjust="spacing" textLength="36.6" x="173.7" y="550.6371">Customer</text><line style="stroke:#181818;stroke-width:0.3;" x1="156.9" x2="211.5" y1="556.8" y2="556.8"/><line style="stroke:#181818;stroke-width:0.3;" x1="156.9" x2="211.5" y1="561.6" y2="561.6"/></g><!--MD5=[3145b4be7c5005b24cda6f18a1d594b0]
class Survey--><g id="elem_Survey"><rect codeLine="13" fill="#F1F1F1" height="28.8" id="Survey" rx="1.5" ry="1.5" style="stroke:#181818;stroke-width:0.3;" width="45.6" x="233.4" y="537.6"/><ellipse cx="242.4" cy="547.2" fill="#ADD1B2" rx="6.6" ry="6.6" style="stroke:#181818;stroke-width:0.6;"/><path d="M243.6,545.1 Q243.7219,544.8 243.8625,544.65 Q244.0031,544.5 244.1625,544.5 Q244.4438,544.5 244.6219,544.6687 Q244.8,544.8375 244.8,545.2312 L244.8,546.1687 Q244.8,546.5625 244.6313,546.7312 Q244.4625,546.9 244.2,546.9 Q243.9656,546.9 243.8156,546.7969 Q243.6656,546.6938 243.6,546.4219 Q243.5719,546.2344 243.4688,546.1313 Q243.2813,545.9344 242.9438,545.8219 Q242.6063,545.7 242.2687,545.7 Q241.8469,545.7 241.4906,545.8688 Q241.1437,546.0375 240.8719,546.4125 Q240.6,546.7875 240.6,547.3031 L240.6,547.8562 Q240.6,548.475 241.1063,548.8875 Q241.6125,549.3 242.5125,549.3 Q243.0469,549.3 243.4219,549.1781 Q243.6375,549.1125 243.8813,548.8969 Q244.0406,548.775 244.125,548.7375 Q244.2094,548.7 244.3125,548.7 Q244.5094,548.7 244.65,548.8594 Q244.8,549.0094 244.8,549.225 Q244.8,549.4313 244.5938,549.675 Q244.2938,550.0313 243.8156,550.2281 Q243.1875,550.5 242.4188,550.5 Q241.5187,550.5 240.7969,550.1438 Q240.2156,549.8625 239.8031,549.2531 Q239.4,548.6438 239.4,547.9219 L239.4,547.2656 Q239.4,546.5156 239.7563,545.8594 Q240.1219,545.2031 240.75,544.8562 Q241.3875,544.5 242.1,544.5 Q242.5313,544.5 242.9063,544.65 Q243.2813,544.8 243.6,545.1 Z " fill="#000000"/><text fill="#000000" font-family="sans-serif" font-size="8.4" lengthAdjust="spacing" textLength="26.4" x="250.8" y="550.6371">Survey</text><line style="stroke:#181818;stroke-width:0.3;" x1="234" x2="278.4" y1="556.8" y2="556.8"/><line style="stroke:#181818;stroke-width:0.3;" x1="234" x2="278.4" y1="561.6" y2="561.6"/></g><!--MD5=[fc7123defb831ecdd44b2d9bcef6cceb]
class Question--><g id="elem_Question"><rect codeLine="14" fill="#F1F1F1" height="28.8" id="Question" rx="1.5" ry="1.5" style="stroke:#181818;stroke-width:0.3;" width="53.4" x="13.5" y="537.6"/><ellipse cx="22.5" cy="547.2" fill="#ADD1B2" rx="6.6" ry="6.6" style="stroke:#181818;stroke-width:0.6;"/><path d="M23.7,545.1 Q23.8219,544.8 23.9625,544.65 Q24.1031,544.5 24.2625,544.5 Q24.5438,544.5 24.7219,544.6687 Q24.9,544.8375 24.9,545.2312 L24.9,546.1687 Q24.9,546.5625 24.7313,546.7312 Q24.5625,546.9 24.3,546.9 Q24.0656,546.9 23.9156,546.7969 Q23.7656,546.6938 23.7,546.4219 Q23.6719,546.2344 23.5687,546.1313 Q23.3812,545.9344 23.0438,545.8219 Q22.7063,545.7 22.3688,545.7 Q21.9469,545.7 21.5906,545.8688 Q21.2438,546.0375 20.9719,546.4125 Q20.7,546.7875 20.7,547.3031 L20.7,547.8562 Q20.7,548.475 21.2063,548.8875 Q21.7125,549.3 22.6125,549.3 Q23.1469,549.3 23.5219,549.1781 Q23.7375,549.1125 23.9813,548.8969 Q24.1406,548.775 24.225,548.7375 Q24.3094,548.7 24.4125,548.7 Q24.6094,548.7 24.75,548.8594 Q24.9,549.0094 24.9,549.225 Q24.9,549.4313 24.6937,549.675 Q24.3938,550.0313 23.9156,550.2281 Q23.2875,550.5 22.5188,550.5 Q21.6188,550.5 20.8969,550.1438 Q20.3156,549.8625 19.9031,549.2531 Q19.5,548.6438 19.5,547.9219 L19.5,547.2656 Q19.5,546.5156 19.8563,545.8594 Q20.2219,545.2031 20.85,544.8562 Q21.4875,544.5 22.2,544.5 Q22.6312,544.5 23.0062,544.65 Q23.3812,544.8 23.7,545.1 Z " fill="#000000"/><text fill="#000000" font-family="sans-serif" font-size="8.4" lengthAdjust="spacing" textLength="34.2" x="30.9" y="550.6371">Question</text><line style="stroke:#181818;stroke-width:0.3;" x1="14.1" x2="66.3" y1="556.8" y2="556.8"/><line style="stroke:#181818;stroke-width:0.3;" x1="14.1" x2="66.3" y1="561.6" y2="561.6"/></g><!--MD5=[da68ba2bac56787cc978c52098ea326b]
class SurveyAnswer--><g id="elem_SurveyAnswer"><rect codeLine="15" fill="#F1F1F1" height="28.8" id="SurveyAnswer" rx="1.5" ry="1.5" style="stroke:#181818;stroke-width:0.3;" width="73.2" x="300" y="537.6"/><ellipse cx="309" cy="547.2" fill="#ADD1B2" rx="6.6" ry="6.6" style="stroke:#181818;stroke-width:0.6;"/><path d="M310.2,545.1 Q310.3219,544.8 310.4625,544.65 Q310.6031,544.5 310.7625,544.5 Q311.0438,544.5 311.2219,544.6687 Q311.4,544.8375 311.4,545.2312 L311.4,546.1687 Q311.4,546.5625 311.2313,546.7312 Q311.0625,546.9 310.8,546.9 Q310.5656,546.9 310.4156,546.7969 Q310.2656,546.6938 310.2,546.4219 Q310.1719,546.2344 310.0687,546.1313 Q309.8812,545.9344 309.5438,545.8219 Q309.2063,545.7 308.8688,545.7 Q308.4469,545.7 308.0906,545.8688 Q307.7438,546.0375 307.4719,546.4125 Q307.2,546.7875 307.2,547.3031 L307.2,547.8562 Q307.2,548.475 307.7063,548.8875 Q308.2125,549.3 309.1125,549.3 Q309.6469,549.3 310.0219,549.1781 Q310.2375,549.1125 310.4813,548.8969 Q310.6406,548.775 310.725,548.7375 Q310.8094,548.7 310.9125,548.7 Q311.1094,548.7 311.25,548.8594 Q311.4,549.0094 311.4,549.225 Q311.4,549.4313 311.1937,549.675 Q310.8938,550.0313 310.4156,550.2281 Q309.7875,550.5 309.0188,550.5 Q308.1188,550.5 307.3969,550.1438 Q306.8156,549.8625 306.4031,549.2531 Q306,548.6438 306,547.9219 L306,547.2656 Q306,546.5156 306.3563,545.8594 Q306.7219,545.2031 307.35,544.8562 Q307.9875,544.5 308.7,544.5 Q309.1312,544.5 309.5062,544.65 Q309.8812,544.8 310.2,545.1 Z " fill="#000000"/><text fill="#000000" font-family="sans-serif" font-size="8.4" lengthAdjust="spacing" textLength="54" x="317.4" y="550.6371">SurveyAnswer</text><line style="stroke:#181818;stroke-width:0.3;" x1="300.6" x2="372.6" y1="556.8" y2="556.8"/><line style="stroke:#181818;stroke-width:0.3;" x1="300.6" x2="372.6" y1="561.6" y2="561.6"/></g><!--MD5=[09a53695e98d4f26e7a054522080af08]
class Section--><g id="elem_Section"><rect codeLine="16" fill="#F1F1F1" height="28.8" id="Section" rx="1.5" ry="1.5" style="stroke:#181818;stroke-width:0.3;" width="47.4" x="87.9" y="537.6"/><ellipse cx="96.9" cy="547.2" fill="#ADD1B2" rx="6.6" ry="6.6" style="stroke:#181818;stroke-width:0.6;"/><path d="M98.1,545.1 Q98.2219,544.8 98.3625,544.65 Q98.5031,544.5 98.6625,544.5 Q98.9438,544.5 99.1219,544.6687 Q99.3,544.8375 99.3,545.2312 L99.3,546.1687 Q99.3,546.5625 99.1313,546.7312 Q98.9625,546.9 98.7,546.9 Q98.4656,546.9 98.3156,546.7969 Q98.1656,546.6938 98.1,546.4219 Q98.0719,546.2344 97.9688,546.1313 Q97.7813,545.9344 97.4438,545.8219 Q97.1063,545.7 96.7688,545.7 Q96.3469,545.7 95.9906,545.8688 Q95.6438,546.0375 95.3719,546.4125 Q95.1,546.7875 95.1,547.3031 L95.1,547.8562 Q95.1,548.475 95.6063,548.8875 Q96.1125,549.3 97.0125,549.3 Q97.5469,549.3 97.9219,549.1781 Q98.1375,549.1125 98.3813,548.8969 Q98.5406,548.775 98.625,548.7375 Q98.7094,548.7 98.8125,548.7 Q99.0094,548.7 99.15,548.8594 Q99.3,549.0094 99.3,549.225 Q99.3,549.4313 99.0938,549.675 Q98.7938,550.0313 98.3156,550.2281 Q97.6875,550.5 96.9188,550.5 Q96.0188,550.5 95.2969,550.1438 Q94.7156,549.8625 94.3031,549.2531 Q93.9,548.6438 93.9,547.9219 L93.9,547.2656 Q93.9,546.5156 94.2563,545.8594 Q94.6219,545.2031 95.25,544.8562 Q95.8875,544.5 96.6,544.5 Q97.0313,544.5 97.4063,544.65 Q97.7813,544.8 98.1,545.1 Z " fill="#000000"/><text fill="#000000" font-family="sans-serif" font-size="8.4" lengthAdjust="spacing" textLength="28.2" x="105.3" y="550.6371">Section</text><line style="stroke:#181818;stroke-width:0.3;" x1="88.5" x2="134.7" y1="556.8" y2="556.8"/><line style="stroke:#181818;stroke-width:0.3;" x1="88.5" x2="134.7" y1="561.6" y2="561.6"/></g><!--MD5=[e8c189551b7885b999ad7cefb30fc2a3]
class PersistenceContext--><g id="elem_PersistenceContext"><rect codeLine="20" fill="#F1F1F1" height="39.3656" id="PersistenceContext" rx="1.5" ry="1.5" style="stroke:#181818;stroke-width:0.3;" width="92.4" x="341.4" y="201"/><ellipse cx="350.4" cy="210.6" fill="#ADD1B2" rx="6.6" ry="6.6" style="stroke:#181818;stroke-width:0.6;"/><path d="M351.6,208.5 Q351.7219,208.2 351.8625,208.05 Q352.0031,207.9 352.1625,207.9 Q352.4437,207.9 352.6219,208.0688 Q352.8,208.2375 352.8,208.6313 L352.8,209.5688 Q352.8,209.9625 352.6312,210.1313 Q352.4625,210.3 352.2,210.3 Q351.9656,210.3 351.8156,210.1969 Q351.6656,210.0938 351.6,209.8219 Q351.5719,209.6344 351.4688,209.5313 Q351.2813,209.3344 350.9437,209.2219 Q350.6063,209.1 350.2688,209.1 Q349.8469,209.1 349.4906,209.2687 Q349.1438,209.4375 348.8719,209.8125 Q348.6,210.1875 348.6,210.7031 L348.6,211.2563 Q348.6,211.875 349.1063,212.2875 Q349.6125,212.7 350.5125,212.7 Q351.0469,212.7 351.4219,212.5781 Q351.6375,212.5125 351.8812,212.2969 Q352.0406,212.175 352.125,212.1375 Q352.2094,212.1 352.3125,212.1 Q352.5094,212.1 352.65,212.2594 Q352.8,212.4094 352.8,212.625 Q352.8,212.8312 352.5938,213.075 Q352.2938,213.4313 351.8156,213.6281 Q351.1875,213.9 350.4188,213.9 Q349.5188,213.9 348.7969,213.5438 Q348.2156,213.2625 347.8031,212.6531 Q347.4,212.0438 347.4,211.3219 L347.4,210.6656 Q347.4,209.9156 347.7562,209.2594 Q348.1219,208.6031 348.75,208.2563 Q349.3875,207.9 350.1,207.9 Q350.5313,207.9 350.9063,208.05 Q351.2813,208.2 351.6,208.5 Z " fill="#000000"/><text fill="#000000" font-family="sans-serif" font-size="8.4" lengthAdjust="spacing" textLength="73.2" x="358.8" y="214.0371">PersistenceContext</text><line style="stroke:#181818;stroke-width:0.3;" x1="342" x2="433.2" y1="220.2" y2="220.2"/><line style="stroke:#181818;stroke-width:0.3;" x1="342" x2="433.2" y1="225" y2="225"/><text fill="#000000" font-family="sans-serif" font-size="8.4" lengthAdjust="spacing" textLength="55.2" x="345" y="236.1199">+repositories()</text></g><!--MD5=[48590afff58a68e2fcba47824d6f8a11]
class RepositoryFactory--><g id="elem_RepositoryFactory"><rect codeLine="26" fill="#F1F1F1" height="39.3656" id="RepositoryFactory" rx="1.5" ry="1.5" style="stroke:#181818;stroke-width:0.3;" width="88.8" x="363.6" y="313.2"/><ellipse cx="372.6" cy="322.8" fill="#ADD1B2" rx="6.6" ry="6.6" style="stroke:#181818;stroke-width:0.6;"/><path d="M373.8,320.7 Q373.9219,320.4 374.0625,320.25 Q374.2031,320.1 374.3625,320.1 Q374.6438,320.1 374.8219,320.2688 Q375,320.4375 375,320.8313 L375,321.7688 Q375,322.1625 374.8313,322.3313 Q374.6625,322.5 374.4,322.5 Q374.1656,322.5 374.0156,322.3969 Q373.8656,322.2938 373.8,322.0219 Q373.7719,321.8344 373.6688,321.7313 Q373.4813,321.5344 373.1438,321.4219 Q372.8063,321.3 372.4688,321.3 Q372.0469,321.3 371.6906,321.4688 Q371.3438,321.6375 371.0719,322.0125 Q370.8,322.3875 370.8,322.9031 L370.8,323.4563 Q370.8,324.075 371.3063,324.4875 Q371.8125,324.9 372.7125,324.9 Q373.2469,324.9 373.6219,324.7781 Q373.8375,324.7125 374.0813,324.4969 Q374.2406,324.375 374.325,324.3375 Q374.4094,324.3 374.5125,324.3 Q374.7094,324.3 374.85,324.4594 Q375,324.6094 375,324.825 Q375,325.0313 374.7938,325.275 Q374.4938,325.6312 374.0156,325.8281 Q373.3875,326.1 372.6188,326.1 Q371.7188,326.1 370.9969,325.7438 Q370.4156,325.4625 370.0031,324.8531 Q369.6,324.2438 369.6,323.5219 L369.6,322.8656 Q369.6,322.1156 369.9563,321.4594 Q370.3219,320.8031 370.95,320.4563 Q371.5875,320.1 372.3,320.1 Q372.7313,320.1 373.1063,320.25 Q373.4813,320.4 373.8,320.7 Z " fill="#000000"/><text fill="#000000" font-family="sans-serif" font-size="8.4" lengthAdjust="spacing" textLength="69.6" x="381" y="326.2371">RepositoryFactory</text><line style="stroke:#181818;stroke-width:0.3;" x1="364.2" x2="451.8" y1="332.4" y2="332.4"/><line style="stroke:#181818;stroke-width:0.3;" x1="364.2" x2="451.8" y1="337.2" y2="337.2"/><text fill="#000000" font-family="sans-serif" font-size="8.4" lengthAdjust="spacing" textLength="34.8" x="367.2" y="348.3199">+create()</text></g><!--MD5=[e69d6994dde37a3d0167e5476c791457]
class CustomerRepository--><g id="elem_CustomerRepository"><rect codeLine="32" fill="#F1F1F1" height="39.3656" id="CustomerRepository" rx="1.5" ry="1.5" style="stroke:#181818;stroke-width:0.3;" width="118.2" x="307.5" y="425.4"/><ellipse cx="326.22" cy="435" fill="#ADD1B2" rx="6.6" ry="6.6" style="stroke:#181818;stroke-width:0.6;"/><path d="M327.42,432.9 Q327.5419,432.6 327.6825,432.45 Q327.8231,432.3 327.9825,432.3 Q328.2638,432.3 328.4419,432.4688 Q328.62,432.6375 328.62,433.0313 L328.62,433.9688 Q328.62,434.3625 328.4513,434.5313 Q328.2825,434.7 328.02,434.7 Q327.7856,434.7 327.6356,434.5969 Q327.4856,434.4938 327.42,434.2219 Q327.3919,434.0344 327.2888,433.9313 Q327.1013,433.7344 326.7638,433.6219 Q326.4263,433.5 326.0888,433.5 Q325.6669,433.5 325.3106,433.6688 Q324.9638,433.8375 324.6919,434.2125 Q324.42,434.5875 324.42,435.1031 L324.42,435.6563 Q324.42,436.275 324.9263,436.6875 Q325.4325,437.1 326.3325,437.1 Q326.8669,437.1 327.2419,436.9781 Q327.4575,436.9125 327.7013,436.6969 Q327.8606,436.575 327.945,436.5375 Q328.0294,436.5 328.1325,436.5 Q328.3294,436.5 328.47,436.6594 Q328.62,436.8094 328.62,437.025 Q328.62,437.2313 328.4138,437.475 Q328.1138,437.8313 327.6356,438.0281 Q327.0075,438.3 326.2388,438.3 Q325.3388,438.3 324.6169,437.9437 Q324.0356,437.6625 323.6231,437.0531 Q323.22,436.4437 323.22,435.7219 L323.22,435.0656 Q323.22,434.3156 323.5763,433.6594 Q323.9419,433.0031 324.57,432.6563 Q325.2075,432.3 325.92,432.3 Q326.3513,432.3 326.7263,432.45 Q327.1013,432.6 327.42,432.9 Z " fill="#000000"/><text fill="#000000" font-family="sans-serif" font-size="8.4" lengthAdjust="spacing" textLength="77.4" x="336.78" y="438.4371">CustomerRepository</text><line style="stroke:#181818;stroke-width:0.3;" x1="308.1" x2="425.1" y1="444.6" y2="444.6"/><line style="stroke:#181818;stroke-width:0.3;" x1="308.1" x2="425.1" y1="449.4" y2="449.4"/><text fill="#000000" font-family="sans-serif" font-size="8.4" lengthAdjust="spacing" textLength="111" x="311.1" y="460.5199">+findCustomerByEmail(email)</text></g><!--MD5=[ca0abe252586467d5b989c6b12cf24dd]
class SurveyRepository--><g id="elem_SurveyRepository"><rect codeLine="35" fill="#F1F1F1" height="39.3656" id="SurveyRepository" rx="1.5" ry="1.5" style="stroke:#181818;stroke-width:0.3;" width="86.4" x="447" y="425.4"/><ellipse cx="456" cy="435" fill="#ADD1B2" rx="6.6" ry="6.6" style="stroke:#181818;stroke-width:0.6;"/><path d="M457.2,432.9 Q457.3219,432.6 457.4625,432.45 Q457.6031,432.3 457.7625,432.3 Q458.0438,432.3 458.2219,432.4688 Q458.4,432.6375 458.4,433.0313 L458.4,433.9688 Q458.4,434.3625 458.2313,434.5313 Q458.0625,434.7 457.8,434.7 Q457.5656,434.7 457.4156,434.5969 Q457.2656,434.4938 457.2,434.2219 Q457.1719,434.0344 457.0687,433.9313 Q456.8812,433.7344 456.5438,433.6219 Q456.2063,433.5 455.8688,433.5 Q455.4469,433.5 455.0906,433.6688 Q454.7438,433.8375 454.4719,434.2125 Q454.2,434.5875 454.2,435.1031 L454.2,435.6563 Q454.2,436.275 454.7063,436.6875 Q455.2125,437.1 456.1125,437.1 Q456.6469,437.1 457.0219,436.9781 Q457.2375,436.9125 457.4813,436.6969 Q457.6406,436.575 457.725,436.5375 Q457.8094,436.5 457.9125,436.5 Q458.1094,436.5 458.25,436.6594 Q458.4,436.8094 458.4,437.025 Q458.4,437.2313 458.1937,437.475 Q457.8938,437.8313 457.4156,438.0281 Q456.7875,438.3 456.0188,438.3 Q455.1188,438.3 454.3969,437.9437 Q453.8156,437.6625 453.4031,437.0531 Q453,436.4437 453,435.7219 L453,435.0656 Q453,434.3156 453.3563,433.6594 Q453.7219,433.0031 454.35,432.6563 Q454.9875,432.3 455.7,432.3 Q456.1312,432.3 456.5062,432.45 Q456.8812,432.6 457.2,432.9 Z " fill="#000000"/><text fill="#000000" font-family="sans-serif" font-size="8.4" lengthAdjust="spacing" textLength="67.2" x="464.4" y="438.4371">SurveyRepository</text><line style="stroke:#181818;stroke-width:0.3;" x1="447.6" x2="532.8" y1="444.6" y2="444.6"/><line style="stroke:#181818;stroke-width:0.3;" x1="447.6" x2="532.8" y1="449.4" y2="449.4"/><text fill="#000000" font-family="sans-serif" font-size="8.4" lengthAdjust="spacing" textLength="33.6" x="450.6" y="460.5199">+findAll()</text></g><!--MD5=[8e2ee19657d82c138251b7971390cc51]
class SurveyAnswerRepository--><g id="elem_SurveyAnswerRepository"><rect codeLine="38" fill="#F1F1F1" height="39.3656" id="SurveyAnswerRepository" rx="1.5" ry="1.5" style="stroke:#181818;stroke-width:0.3;" width="180.6" x="554.7" y="425.4"/><ellipse cx="595.05" cy="435" fill="#ADD1B2" rx="6.6" ry="6.6" style="stroke:#181818;stroke-width:0.6;"/><path d="M596.25,432.9 Q596.3719,432.6 596.5125,432.45 Q596.6531,432.3 596.8125,432.3 Q597.0938,432.3 597.2719,432.4688 Q597.45,432.6375 597.45,433.0313 L597.45,433.9688 Q597.45,434.3625 597.2813,434.5313 Q597.1125,434.7 596.85,434.7 Q596.6156,434.7 596.4656,434.5969 Q596.3156,434.4938 596.25,434.2219 Q596.2219,434.0344 596.1188,433.9313 Q595.9313,433.7344 595.5938,433.6219 Q595.2563,433.5 594.9187,433.5 Q594.4969,433.5 594.1406,433.6688 Q593.7937,433.8375 593.5219,434.2125 Q593.25,434.5875 593.25,435.1031 L593.25,435.6563 Q593.25,436.275 593.7563,436.6875 Q594.2625,437.1 595.1625,437.1 Q595.6969,437.1 596.0719,436.9781 Q596.2875,436.9125 596.5313,436.6969 Q596.6906,436.575 596.775,436.5375 Q596.8594,436.5 596.9625,436.5 Q597.1594,436.5 597.3,436.6594 Q597.45,436.8094 597.45,437.025 Q597.45,437.2313 597.2438,437.475 Q596.9438,437.8313 596.4656,438.0281 Q595.8375,438.3 595.0688,438.3 Q594.1687,438.3 593.4469,437.9437 Q592.8656,437.6625 592.4531,437.0531 Q592.05,436.4437 592.05,435.7219 L592.05,435.0656 Q592.05,434.3156 592.4063,433.6594 Q592.7719,433.0031 593.4,432.6563 Q594.0375,432.3 594.75,432.3 Q595.1813,432.3 595.5563,432.45 Q595.9313,432.6 596.25,432.9 Z " fill="#000000"/><text fill="#000000" font-family="sans-serif" font-size="8.4" lengthAdjust="spacing" textLength="94.8" x="607.35" y="438.4371">SurveyAnswerRepository</text><line style="stroke:#181818;stroke-width:0.3;" x1="555.3" x2="734.7" y1="444.6" y2="444.6"/><line style="stroke:#181818;stroke-width:0.3;" x1="555.3" x2="734.7" y1="449.4" y2="449.4"/><text fill="#000000" font-family="sans-serif" font-size="8.4" lengthAdjust="spacing" textLength="173.4" x="558.3" y="460.5199">+findSurveysAnsweredByCustomer(customer)</text></g><!--MD5=[549cda9490458f57154e48566c0c39c7]
link QuestionnaireListUI to QuestionnaireListController--><g id="link_QuestionnaireListUI_QuestionnaireListController"><path codeLine="42" d="M190.2,54.138 C190.2,66.15 190.2,83.52 190.2,96.354 " fill="none" id="QuestionnaireListUI-to-QuestionnaireListController" style="stroke:#181818;stroke-width:0.6;stroke-dasharray:7.0,7.0;"/><polygon fill="#181818" points="190.2,99.51,192.6,94.11,190.2,96.51,187.8,94.11,190.2,99.51" style="stroke:#181818;stroke-width:0.6;"/></g><!--MD5=[dfa2d96ceeeceb02f0efaacad11d2aa5]
link QuestionnaireListController to Customer--><g id="link_QuestionnaireListController_Customer"><path codeLine="43" d="M180.642,128.4 C168.078,147.912 147.6,185.112 147.6,220.2 C147.6,220.2 147.6,220.2 147.6,445.8 C147.6,478.716 163.674,514.386 174.516,534.702 " fill="none" id="QuestionnaireListController-to-Customer" style="stroke:#181818;stroke-width:0.6;stroke-dasharray:7.0,7.0;"/><polygon fill="#181818" points="176.076,537.582,175.6119,531.6909,174.646,534.9447,171.3923,533.9789,176.076,537.582" style="stroke:#181818;stroke-width:0.6;"/></g><!--MD5=[1df6d6c7bc0a112a0813ff4f49b4731d]
link QuestionnaireListController to Survey--><g id="link_QuestionnaireListController_Survey"><path codeLine="44" d="M199.758,128.4 C212.322,147.912 232.8,185.112 232.8,220.2 C232.8,220.2 232.8,220.2 232.8,445.8 C232.8,477.75 243.138,513.87 250.068,534.51 " fill="none" id="QuestionnaireListController-to-Survey" style="stroke:#181818;stroke-width:0.6;stroke-dasharray:7.0,7.0;"/><polygon fill="#181818" points="251.064,537.444,251.5961,531.5587,250.0974,534.604,247.0521,533.1053,251.064,537.444" style="stroke:#181818;stroke-width:0.6;"/></g><!--MD5=[c917a8aa1cc9c49acb2ef03e41e778df]
link QuestionnaireListController to Section--><g id="link_QuestionnaireListController_Section"><path codeLine="45" d="M168.258,128.472 C143.016,146.334 105,179.916 105,220.2 C105,220.2 105,220.2 105,445.8 C105,477.096 107.922,513.51 109.878,534.366 " fill="none" id="QuestionnaireListController-to-Section" style="stroke:#181818;stroke-width:0.6;stroke-dasharray:7.0,7.0;"/><polygon fill="#181818" points="110.184,537.582,112.0635,531.9795,109.9008,534.5954,107.2849,532.4327,110.184,537.582" style="stroke:#181818;stroke-width:0.6;"/></g><!--MD5=[3287ea0beb6ae2966c4ad4171d0a394b]
link QuestionnaireListController to Question--><g id="link_QuestionnaireListController_Question"><path codeLine="46" d="M145.8,128.448 C106.254,143.88 54.6,173.058 54.6,220.2 C54.6,220.2 54.6,220.2 54.6,445.8 C54.6,477.366 48.204,513.762 43.938,534.528 " fill="none" id="QuestionnaireListController-to-Question" style="stroke:#181818;stroke-width:0.6;stroke-dasharray:7.0,7.0;"/><polygon fill="#181818" points="43.326,537.474,46.7708,532.6726,43.9341,534.5363,42.0704,531.6996,43.326,537.474" style="stroke:#181818;stroke-width:0.6;"/></g><!--MD5=[79d67b92290cebaf3e62a77599e6cbb5]
link QuestionnaireListController to SurveyAnswer--><g id="link_QuestionnaireListController_SurveyAnswer"><path codeLine="47" d="M212.142,128.472 C237.384,146.334 275.4,179.916 275.4,220.2 C275.4,220.2 275.4,220.2 275.4,389.4 C275.4,445.758 308.214,506.442 325.788,534.9 " fill="none" id="QuestionnaireListController-to-SurveyAnswer" style="stroke:#181818;stroke-width:0.6;stroke-dasharray:7.0,7.0;"/><polygon fill="#181818" points="327.438,537.552,326.6201,531.6996,325.8519,535.0056,322.5458,534.2374,327.438,537.552" style="stroke:#181818;stroke-width:0.6;"/></g><!--MD5=[0926631107a13828388e15494286854d]
link QuestionnaireListController to PersistenceContext--><g id="link_QuestionnaireListController_PersistenceContext"><path codeLine="48" d="M219.57,128.49 C239.814,138.21 267.252,151.692 291,164.4 C311.754,175.506 334.572,188.64 352.818,199.374 " fill="none" id="QuestionnaireListController-to-PersistenceContext" style="stroke:#181818;stroke-width:0.6;stroke-dasharray:7.0,7.0;"/><polygon fill="#181818" points="355.476,200.946,352.0496,196.1315,352.8937,199.4189,349.6063,200.2631,355.476,200.946" style="stroke:#181818;stroke-width:0.6;"/></g><!--MD5=[754b775031405e096442b27febffa290]
link PersistenceContext to RepositoryFactory--><g id="link_PersistenceContext_RepositoryFactory"><path codeLine="49" d="M391.152,240.732 C394.698,260.016 400.134,289.608 403.872,309.924 " fill="none" id="PersistenceContext-to-RepositoryFactory" style="stroke:#181818;stroke-width:0.6;stroke-dasharray:7.0,7.0;"/><polygon fill="#181818" points="404.454,313.098,405.8449,307.3547,403.9151,310.1468,401.123,308.217,404.454,313.098" style="stroke:#181818;stroke-width:0.6;"/></g><!--MD5=[5480e33a89de9b63c80dfd73aefa71de]
link RepositoryFactory to CustomerRepository--><g id="link_RepositoryFactory_CustomerRepository"><path codeLine="50" d="M400.788,352.932 C393.57,372.294 382.47,402.054 374.892,422.376 " fill="none" id="RepositoryFactory-to-CustomerRepository" style="stroke:#181818;stroke-width:0.6;stroke-dasharray:7.0,7.0;"/><polygon fill="#181818" points="373.8,425.298,377.932,421.0734,374.8459,422.4862,373.4331,419.4001,373.8,425.298" style="stroke:#181818;stroke-width:0.6;"/></g><!--MD5=[b2261c22df95718c10e32de77a70473c]
link RepositoryFactory to SurveyRepository--><g id="link_RepositoryFactory_SurveyRepository"><path codeLine="51" d="M422.316,352.932 C436.77,372.45 459.054,402.54 474.108,422.874 " fill="none" id="RepositoryFactory-to-SurveyRepository" style="stroke:#181818;stroke-width:0.6;stroke-dasharray:7.0,7.0;"/><polygon fill="#181818" points="475.908,425.298,474.6243,419.5298,474.1231,422.8867,470.7662,422.3856,475.908,425.298" style="stroke:#181818;stroke-width:0.6;"/></g><!--MD5=[e08488e93f39d4771289586a7207cfdd]
link RepositoryFactory to SurveyAnswerRepository--><g id="link_RepositoryFactory_SurveyAnswerRepository"><path codeLine="52" d="M449.01,352.806 C491.466,372.69 557.556,403.644 601.062,424.02 " fill="none" id="RepositoryFactory-to-SurveyAnswerRepository" style="stroke:#181818;stroke-width:0.6;stroke-dasharray:7.0,7.0;"/><polygon fill="#181818" points="603.894,425.346,600.0279,420.8769,601.179,424.0698,597.986,425.221,603.894,425.346" style="stroke:#181818;stroke-width:0.6;"/></g><!--MD5=[3ae97d11c2ca570632e7e7ed3510da9a]
link CustomerRepository to Customer--><g id="link_CustomerRepository_Customer"><path codeLine="53" d="M312.114,465.054 C284.19,476.268 250.428,492 223.2,511.2 C213.696,517.902 204.558,527.118 197.52,535.038 " fill="none" id="CustomerRepository-to-Customer" style="stroke:#181818;stroke-width:0.6;stroke-dasharray:7.0,7.0;"/><polygon fill="#181818" points="195.402,537.45,200.7688,534.9766,197.3818,535.196,197.1624,531.809,195.402,537.45" style="stroke:#181818;stroke-width:0.6;"/></g><!--MD5=[912da1c7e1b555381036141150726338]
link SurveyRepository to Survey--><g id="link_SurveyRepository_Survey"><path codeLine="54" d="M463.146,465.15 C454.818,470.406 445.41,475.668 436.2,479.4 C374.496,504.42 346.764,476.724 289.8,511.2 C280.14,517.05 271.944,526.68 266.07,535.05 " fill="none" id="SurveyRepository-to-Survey" style="stroke:#181818;stroke-width:0.6;stroke-dasharray:7.0,7.0;"/><polygon fill="#181818" points="264.318,537.6,269.355,534.5098,266.0176,535.1279,265.3996,531.7905,264.318,537.6" style="stroke:#181818;stroke-width:0.6;"/></g><!--MD5=[75dddf798945b487a42666bc1dda5eec]
link SurveyAnswerRepository to SurveyAnswer--><g id="link_SurveyAnswerRepository_SurveyAnswer"><path codeLine="55" d="M588.792,465.048 C527.262,486.114 430.188,519.354 376.182,537.846 " fill="none" id="SurveyAnswerRepository-to-SurveyAnswer" style="stroke:#181818;stroke-width:0.6;stroke-dasharray:7.0,7.0;"/><polygon fill="#181818" points="373.326,538.824,379.2118,539.3507,376.1651,537.8548,377.661,534.8081,373.326,538.824" style="stroke:#181818;stroke-width:0.6;"/></g><!--MD5=[b3e775727ee3018493ca4ab3598fa3d9]
@startuml
skinparam classAttributeIconSize 0

package "Presentation"{
class QuestionnaireListUI
}

package "Application"{
class QuestionnaireListController
}

package "Domain"{
class Customer
class Survey
class Question
class SurveyAnswer
class Section
}

package "Persistence"{
class PersistenceContext{
+repositories()
}
}

package "Factory"{
class RepositoryFactory{
+create()
}
}

package "Repository"{
class CustomerRepository{
+findCustomerByEmail(email)
}
class SurveyRepository{
+findAll()
}
class SurveyAnswerRepository{
+findSurveysAnsweredByCustomer(customer)
}
}
QuestionnaireListUI .-> QuestionnaireListController
QuestionnaireListController .- -> Customer
QuestionnaireListController .- -> Survey
QuestionnaireListController .- -> Section
QuestionnaireListController .- -> Question
QuestionnaireListController .- -> SurveyAnswer
QuestionnaireListController .- -> PersistenceContext
PersistenceContext .- -> RepositoryFactory
RepositoryFactory .- -> CustomerRepository
RepositoryFactory .- -> SurveyRepository
RepositoryFactory .- -> SurveyAnswerRepository
CustomerRepository .- -> Customer
SurveyRepository .- -> Survey
SurveyAnswerRepository .- -> SurveyAnswer


@enduml

PlantUML version 1.2022.4(Sat Apr 09 14:29:17 BST 2022)
(GPL source distribution)
Java Runtime: OpenJDK Runtime Environment
JVM: OpenJDK 64-Bit Server VM
Default Encoding: Cp1252
Language: pt
Country: PT
--></g></svg>