<?xml version="1.0" encoding="UTF-8" standalone="no"?><svg xmlns="http://www.w3.org/2000/svg" xmlns:xlink="http://www.w3.org/1999/xlink" contentStyleType="text/css" height="679.8px" preserveAspectRatio="none" style="width:467px;height:679px;background:#FFFFFF;" version="1.1" viewBox="0 0 467 679" width="467.4px" zoomAndPan="magnify"><defs/><g><!--MD5=[89f4a5b40138867adcebde5741d6db60]
cluster survey--><g id="cluster_survey"><path d="M140.7,390 L170.1,390 A2.25,2.25 0 0 1 171.6,391.5 L175.8,404.1656 L461.7,404.1656 A1.5,1.5 0 0 1 463.2,405.6656 L463.2,555.3 A1.5,1.5 0 0 1 461.7,556.8 L140.7,556.8 A1.5,1.5 0 0 1 139.2,555.3 L139.2,391.5 A1.5,1.5 0 0 1 140.7,390 " style="stroke:#000000;stroke-width:0.8999999999999999;fill:none;"/><line style="stroke:#000000;stroke-width:0.8999999999999999;fill:none;" x1="139.2" x2="175.8" y1="404.1656" y2="404.1656"/><text fill="#000000" font-family="sans-serif" font-size="8.4" font-weight="bold" lengthAdjust="spacing" textLength="28.8" x="141.6" y="399.9199">survey</text></g><!--MD5=[1a74d44ba1ba7271c81e18b35589cf81]
cluster surveyAnswer--><g id="cluster_surveyAnswer"><path d="M141.9,571.2 L202.5,571.2 A2.25,2.25 0 0 1 204,572.7 L208.2,585.3656 L232.5,585.3656 A1.5,1.5 0 0 1 234,586.8656 L234,674.1 A1.5,1.5 0 0 1 232.5,675.6 L141.9,675.6 A1.5,1.5 0 0 1 140.4,674.1 L140.4,572.7 A1.5,1.5 0 0 1 141.9,571.2 " style="stroke:#000000;stroke-width:0.8999999999999999;fill:none;"/><line style="stroke:#000000;stroke-width:0.8999999999999999;fill:none;" x1="140.4" x2="208.2" y1="585.3656" y2="585.3656"/><text fill="#000000" font-family="sans-serif" font-size="8.4" font-weight="bold" lengthAdjust="spacing" textLength="60" x="142.8" y="581.1199">surveyAnswer</text></g><!--MD5=[b5e3361e2a5f8dd2cdf2e5f0d87d6906]
cluster customer--><g id="cluster_customer"><path d="M5.1,3.6 L45.3,3.6 A2.25,2.25 0 0 1 46.8,5.1 L51,17.7656 L347.7,17.7656 A1.5,1.5 0 0 1 349.2,19.2656 L349.2,374.1 A1.5,1.5 0 0 1 347.7,375.6 L5.1,375.6 A1.5,1.5 0 0 1 3.6,374.1 L3.6,5.1 A1.5,1.5 0 0 1 5.1,3.6 " style="stroke:#000000;stroke-width:0.8999999999999999;fill:none;"/><line style="stroke:#000000;stroke-width:0.8999999999999999;fill:none;" x1="3.6" x2="51" y1="17.7656" y2="17.7656"/><text fill="#000000" font-family="sans-serif" font-size="8.4" font-weight="bold" lengthAdjust="spacing" textLength="39.6" x="6" y="13.5199">customer</text></g><!--MD5=[3145b4be7c5005b24cda6f18a1d594b0]
class Survey--><g id="elem_Survey"><rect codeLine="6" fill="#F1F1F1" height="72.6844" id="Survey" rx="1.5" ry="1.5" style="stroke:#181818;stroke-width:0.3;" width="76.8" x="148.8" y="411.9"/><ellipse cx="171.84" cy="424.7109" fill="#ADD1B2" rx="6.6" ry="6.6" style="stroke:#181818;stroke-width:0.6;"/><path d="M173.04,422.6109 Q173.1619,422.3109 173.3025,422.1609 Q173.4431,422.0109 173.6025,422.0109 Q173.8838,422.0109 174.0619,422.1797 Q174.24,422.3484 174.24,422.7422 L174.24,423.6797 Q174.24,424.0734 174.0713,424.2422 Q173.9025,424.4109 173.64,424.4109 Q173.4056,424.4109 173.2556,424.3078 Q173.1056,424.2047 173.04,423.9328 Q173.0119,423.7453 172.9087,423.6422 Q172.7212,423.4453 172.3838,423.3328 Q172.0463,423.2109 171.7087,423.2109 Q171.2869,423.2109 170.9306,423.3797 Q170.5837,423.5484 170.3119,423.9234 Q170.04,424.2984 170.04,424.8141 L170.04,425.3672 Q170.04,425.9859 170.5463,426.3984 Q171.0525,426.8109 171.9525,426.8109 Q172.4869,426.8109 172.8619,426.6891 Q173.0775,426.6234 173.3213,426.4078 Q173.4806,426.2859 173.565,426.2484 Q173.6494,426.2109 173.7525,426.2109 Q173.9494,426.2109 174.09,426.3703 Q174.24,426.5203 174.24,426.7359 Q174.24,426.9422 174.0337,427.1859 Q173.7338,427.5422 173.2556,427.7391 Q172.6275,428.0109 171.8588,428.0109 Q170.9587,428.0109 170.2369,427.6547 Q169.6556,427.3734 169.2431,426.7641 Q168.84,426.1547 168.84,425.4328 L168.84,424.7766 Q168.84,424.0266 169.1963,423.3703 Q169.5619,422.7141 170.19,422.3672 Q170.8275,422.0109 171.54,422.0109 Q171.9712,422.0109 172.3462,422.1609 Q172.7212,422.3109 173.04,422.6109 Z " fill="#000000"/><text fill="#000000" font-family="sans-serif" font-size="7.2" font-style="italic" lengthAdjust="spacing" textLength="25.8" x="183.66" y="422.3742">«entity»</text><text fill="#000000" font-family="sans-serif" font-size="8.4" lengthAdjust="spacing" textLength="26.4" x="183.36" y="432.6762">Survey</text><line style="stroke:#181818;stroke-width:0.3;" x1="149.4" x2="225" y1="437.5219" y2="437.5219"/><text fill="#000000" font-family="sans-serif" font-size="8.4" lengthAdjust="spacing" textLength="9.6" x="152.4" y="448.6418">-id</text><text fill="#000000" font-family="sans-serif" font-size="8.4" lengthAdjust="spacing" textLength="40.2" x="152.4" y="459.2074">-final_date</text><text fill="#000000" font-family="sans-serif" font-size="8.4" lengthAdjust="spacing" textLength="16.2" x="152.4" y="469.773">-title</text><text fill="#000000" font-family="sans-serif" font-size="8.4" lengthAdjust="spacing" textLength="69.6" x="152.4" y="480.3387">-welcomeMessage</text></g><!--MD5=[09a53695e98d4f26e7a054522080af08]
class Section--><g id="elem_Section"><rect codeLine="13" fill="#F1F1F1" height="83.25" id="Section" rx="1.5" ry="1.5" style="stroke:#181818;stroke-width:0.3;" width="89.4" x="262.2" y="463.5"/><ellipse cx="290.25" cy="476.3109" fill="#ADD1B2" rx="6.6" ry="6.6" style="stroke:#181818;stroke-width:0.6;"/><path d="M291.45,474.2109 Q291.5719,473.9109 291.7125,473.7609 Q291.8531,473.6109 292.0125,473.6109 Q292.2938,473.6109 292.4719,473.7797 Q292.65,473.9484 292.65,474.3422 L292.65,475.2797 Q292.65,475.6734 292.4813,475.8422 Q292.3125,476.0109 292.05,476.0109 Q291.8156,476.0109 291.6656,475.9078 Q291.5156,475.8047 291.45,475.5328 Q291.4219,475.3453 291.3187,475.2422 Q291.1312,475.0453 290.7938,474.9328 Q290.4563,474.8109 290.1188,474.8109 Q289.6969,474.8109 289.3406,474.9797 Q288.9938,475.1484 288.7219,475.5234 Q288.45,475.8984 288.45,476.4141 L288.45,476.9672 Q288.45,477.5859 288.9563,477.9984 Q289.4625,478.4109 290.3625,478.4109 Q290.8969,478.4109 291.2719,478.2891 Q291.4875,478.2234 291.7313,478.0078 Q291.8906,477.8859 291.975,477.8484 Q292.0594,477.8109 292.1625,477.8109 Q292.3594,477.8109 292.5,477.9703 Q292.65,478.1203 292.65,478.3359 Q292.65,478.5422 292.4437,478.7859 Q292.1438,479.1422 291.6656,479.3391 Q291.0375,479.6109 290.2688,479.6109 Q289.3688,479.6109 288.6469,479.2547 Q288.0656,478.9734 287.6531,478.3641 Q287.25,477.7547 287.25,477.0328 L287.25,476.3766 Q287.25,475.6266 287.6063,474.9703 Q287.9719,474.3141 288.6,473.9672 Q289.2375,473.6109 289.95,473.6109 Q290.3812,473.6109 290.7562,473.7609 Q291.1312,473.9109 291.45,474.2109 Z " fill="#000000"/><text fill="#000000" font-family="sans-serif" font-size="7.2" font-style="italic" lengthAdjust="spacing" textLength="25.8" x="303.75" y="473.9742">«entity»</text><text fill="#000000" font-family="sans-serif" font-size="8.4" lengthAdjust="spacing" textLength="28.2" x="302.55" y="484.2762">Section</text><line style="stroke:#181818;stroke-width:0.3;" x1="262.8" x2="351" y1="489.1219" y2="489.1219"/><text fill="#000000" font-family="sans-serif" font-size="8.4" lengthAdjust="spacing" textLength="41.4" x="265.8" y="500.2418">-section_id</text><text fill="#000000" font-family="sans-serif" font-size="8.4" lengthAdjust="spacing" textLength="82.2" x="265.8" y="510.8074">-section_identification</text><text fill="#000000" font-family="sans-serif" font-size="8.4" lengthAdjust="spacing" textLength="76.2" x="265.8" y="521.373">-section_description</text><text fill="#000000" font-family="sans-serif" font-size="8.4" lengthAdjust="spacing" textLength="55.8" x="265.8" y="531.9387">-obligatoriness</text><text fill="#000000" font-family="sans-serif" font-size="8.4" lengthAdjust="spacing" textLength="37.2" x="265.8" y="542.5043">-condition</text></g><!--MD5=[009695af4e54f3bba8a9c60dca3e1c94]
class Description--><g id="elem_Description"><rect fill="#F1F1F1" height="30.4219" id="Description" rx="1.5" ry="1.5" style="stroke:#181818;stroke-width:0.3;" width="65.4" x="274.2" y="411.9"/><ellipse cx="283.2" cy="424.7109" fill="#ADD1B2" rx="6.6" ry="6.6" style="stroke:#181818;stroke-width:0.6;"/><path d="M284.4,422.6109 Q284.5219,422.3109 284.6625,422.1609 Q284.8031,422.0109 284.9625,422.0109 Q285.2438,422.0109 285.4219,422.1797 Q285.6,422.3484 285.6,422.7422 L285.6,423.6797 Q285.6,424.0734 285.4313,424.2422 Q285.2625,424.4109 285,424.4109 Q284.7656,424.4109 284.6156,424.3078 Q284.4656,424.2047 284.4,423.9328 Q284.3719,423.7453 284.2688,423.6422 Q284.0813,423.4453 283.7438,423.3328 Q283.4063,423.2109 283.0687,423.2109 Q282.6469,423.2109 282.2906,423.3797 Q281.9437,423.5484 281.6719,423.9234 Q281.4,424.2984 281.4,424.8141 L281.4,425.3672 Q281.4,425.9859 281.9063,426.3984 Q282.4125,426.8109 283.3125,426.8109 Q283.8469,426.8109 284.2219,426.6891 Q284.4375,426.6234 284.6813,426.4078 Q284.8406,426.2859 284.925,426.2484 Q285.0094,426.2109 285.1125,426.2109 Q285.3094,426.2109 285.45,426.3703 Q285.6,426.5203 285.6,426.7359 Q285.6,426.9422 285.3938,427.1859 Q285.0938,427.5422 284.6156,427.7391 Q283.9875,428.0109 283.2188,428.0109 Q282.3187,428.0109 281.5969,427.6547 Q281.0156,427.3734 280.6031,426.7641 Q280.2,426.1547 280.2,425.4328 L280.2,424.7766 Q280.2,424.0266 280.5563,423.3703 Q280.9219,422.7141 281.55,422.3672 Q282.1875,422.0109 282.9,422.0109 Q283.3313,422.0109 283.7063,422.1609 Q284.0813,422.3109 284.4,422.6109 Z " fill="#000000"/><text fill="#000000" font-family="sans-serif" font-size="7.2" font-style="italic" lengthAdjust="spacing" textLength="48.6" x="290.4" y="422.3742">«value object»</text><text fill="#000000" font-family="sans-serif" font-size="8.4" lengthAdjust="spacing" textLength="42.6" x="293.4" y="432.6762">Description</text><line style="stroke:#181818;stroke-width:0.3;" x1="274.8" x2="339" y1="437.5219" y2="437.5219"/></g><!--MD5=[fc7123defb831ecdd44b2d9bcef6cceb]
class Question--><g id="elem_Question"><rect fill="#F1F1F1" height="30.4219" id="Question" rx="1.5" ry="1.5" style="stroke:#181818;stroke-width:0.3;" width="65.4" x="388.2" y="489.9"/><ellipse cx="397.2" cy="502.7109" fill="#ADD1B2" rx="6.6" ry="6.6" style="stroke:#181818;stroke-width:0.6;"/><path d="M398.4,500.6109 Q398.5219,500.3109 398.6625,500.1609 Q398.8031,500.0109 398.9625,500.0109 Q399.2438,500.0109 399.4219,500.1797 Q399.6,500.3484 399.6,500.7422 L399.6,501.6797 Q399.6,502.0734 399.4313,502.2422 Q399.2625,502.4109 399,502.4109 Q398.7656,502.4109 398.6156,502.3078 Q398.4656,502.2047 398.4,501.9328 Q398.3719,501.7453 398.2688,501.6422 Q398.0813,501.4453 397.7438,501.3328 Q397.4063,501.2109 397.0687,501.2109 Q396.6469,501.2109 396.2906,501.3797 Q395.9437,501.5484 395.6719,501.9234 Q395.4,502.2984 395.4,502.8141 L395.4,503.3672 Q395.4,503.9859 395.9063,504.3984 Q396.4125,504.8109 397.3125,504.8109 Q397.8469,504.8109 398.2219,504.6891 Q398.4375,504.6234 398.6813,504.4078 Q398.8406,504.2859 398.925,504.2484 Q399.0094,504.2109 399.1125,504.2109 Q399.3094,504.2109 399.45,504.3703 Q399.6,504.5203 399.6,504.7359 Q399.6,504.9422 399.3938,505.1859 Q399.0938,505.5422 398.6156,505.7391 Q397.9875,506.0109 397.2188,506.0109 Q396.3187,506.0109 395.5969,505.6547 Q395.0156,505.3734 394.6031,504.7641 Q394.2,504.1547 394.2,503.4328 L394.2,502.7766 Q394.2,502.0266 394.5563,501.3703 Q394.9219,500.7141 395.55,500.3672 Q396.1875,500.0109 396.9,500.0109 Q397.3313,500.0109 397.7063,500.1609 Q398.0813,500.3109 398.4,500.6109 Z " fill="#000000"/><text fill="#000000" font-family="sans-serif" font-size="7.2" font-style="italic" lengthAdjust="spacing" textLength="48.6" x="404.4" y="500.3742">«value object»</text><text fill="#000000" font-family="sans-serif" font-size="8.4" lengthAdjust="spacing" textLength="34.2" x="411.6" y="510.6762">Question</text><line style="stroke:#181818;stroke-width:0.3;" x1="388.8" x2="453" y1="515.5219" y2="515.5219"/></g><!--MD5=[da68ba2bac56787cc978c52098ea326b]
class SurveyAnswer--><g id="elem_SurveyAnswer"><rect codeLine="30" fill="#F1F1F1" height="72.6844" id="SurveyAnswer" rx="1.5" ry="1.5" style="stroke:#181818;stroke-width:0.3;" width="74.4" x="150" y="593.1"/><ellipse cx="159.54" cy="605.9109" fill="#ADD1B2" rx="6.6" ry="6.6" style="stroke:#181818;stroke-width:0.6;"/><path d="M160.74,603.8109 Q160.8619,603.5109 161.0025,603.3609 Q161.1431,603.2109 161.3025,603.2109 Q161.5837,603.2109 161.7619,603.3797 Q161.94,603.5484 161.94,603.9422 L161.94,604.8797 Q161.94,605.2734 161.7712,605.4422 Q161.6025,605.6109 161.34,605.6109 Q161.1056,605.6109 160.9556,605.5078 Q160.8056,605.4047 160.74,605.1328 Q160.7119,604.9453 160.6088,604.8422 Q160.4213,604.6453 160.0837,604.5328 Q159.7462,604.4109 159.4087,604.4109 Q158.9869,604.4109 158.6306,604.5797 Q158.2837,604.7484 158.0119,605.1234 Q157.74,605.4984 157.74,606.0141 L157.74,606.5672 Q157.74,607.1859 158.2462,607.5984 Q158.7525,608.0109 159.6525,608.0109 Q160.1869,608.0109 160.5619,607.8891 Q160.7775,607.8234 161.0212,607.6078 Q161.1806,607.4859 161.265,607.4484 Q161.3494,607.4109 161.4525,607.4109 Q161.6494,607.4109 161.79,607.5703 Q161.94,607.7203 161.94,607.9359 Q161.94,608.1422 161.7338,608.3859 Q161.4337,608.7422 160.9556,608.9391 Q160.3275,609.2109 159.5587,609.2109 Q158.6587,609.2109 157.9369,608.8547 Q157.3556,608.5734 156.9431,607.9641 Q156.54,607.3547 156.54,606.6328 L156.54,605.9766 Q156.54,605.2266 156.8962,604.5703 Q157.2619,603.9141 157.89,603.5672 Q158.5275,603.2109 159.24,603.2109 Q159.6713,603.2109 160.0463,603.3609 Q160.4213,603.5109 160.74,603.8109 Z " fill="#000000"/><text fill="#000000" font-family="sans-serif" font-size="7.2" font-style="italic" lengthAdjust="spacing" textLength="25.8" x="182.16" y="603.5742">«entity»</text><text fill="#000000" font-family="sans-serif" font-size="8.4" lengthAdjust="spacing" textLength="54" x="168.06" y="613.8762">SurveyAnswer</text><line style="stroke:#181818;stroke-width:0.3;" x1="150.6" x2="223.8" y1="618.7219" y2="618.7219"/><text fill="#000000" font-family="sans-serif" font-size="8.4" lengthAdjust="spacing" textLength="67.2" x="153.6" y="629.8418">-surveyAnswer_id</text><text fill="#000000" font-family="sans-serif" font-size="8.4" lengthAdjust="spacing" textLength="37.8" x="153.6" y="640.4074">-customer</text><text fill="#000000" font-family="sans-serif" font-size="8.4" lengthAdjust="spacing" textLength="28.2" x="153.6" y="650.973">-survey</text><text fill="#000000" font-family="sans-serif" font-size="8.4" lengthAdjust="spacing" textLength="34.2" x="153.6" y="661.5387">-answers</text></g><!--MD5=[2ce0c9fb7f55b1e256ab28a8ea6b25ec]
class Customer--><g id="elem_Customer"><rect codeLine="43" fill="#F1F1F1" height="40.9875" id="Customer" rx="1.5" ry="1.5" style="stroke:#181818;stroke-width:0.3;" width="55.8" x="13.2" y="226.8"/><ellipse cx="22.2" cy="239.6109" fill="#ADD1B2" rx="6.6" ry="6.6" style="stroke:#181818;stroke-width:0.6;"/><path d="M23.4,237.5109 Q23.5219,237.2109 23.6625,237.0609 Q23.8031,236.9109 23.9625,236.9109 Q24.2438,236.9109 24.4219,237.0797 Q24.6,237.2484 24.6,237.6422 L24.6,238.5797 Q24.6,238.9734 24.4313,239.1422 Q24.2625,239.3109 24,239.3109 Q23.7656,239.3109 23.6156,239.2078 Q23.4656,239.1047 23.4,238.8328 Q23.3719,238.6453 23.2688,238.5422 Q23.0813,238.3453 22.7438,238.2328 Q22.4063,238.1109 22.0687,238.1109 Q21.6469,238.1109 21.2906,238.2797 Q20.9437,238.4484 20.6719,238.8234 Q20.4,239.1984 20.4,239.7141 L20.4,240.2672 Q20.4,240.8859 20.9063,241.2984 Q21.4125,241.7109 22.3125,241.7109 Q22.8469,241.7109 23.2219,241.5891 Q23.4375,241.5234 23.6813,241.3078 Q23.8406,241.1859 23.925,241.1484 Q24.0094,241.1109 24.1125,241.1109 Q24.3094,241.1109 24.45,241.2703 Q24.6,241.4203 24.6,241.6359 Q24.6,241.8422 24.3938,242.0859 Q24.0938,242.4422 23.6156,242.6391 Q22.9875,242.9109 22.2188,242.9109 Q21.3187,242.9109 20.5969,242.5547 Q20.0156,242.2734 19.6031,241.6641 Q19.2,241.0547 19.2,240.3328 L19.2,239.6766 Q19.2,238.9266 19.5563,238.2703 Q19.9219,237.6141 20.55,237.2672 Q21.1875,236.9109 21.9,236.9109 Q22.3313,236.9109 22.7063,237.0609 Q23.0813,237.2109 23.4,237.5109 Z " fill="#000000"/><text fill="#000000" font-family="sans-serif" font-size="7.2" font-style="italic" lengthAdjust="spacing" textLength="25.8" x="36" y="237.2742">«entity»</text><text fill="#000000" font-family="sans-serif" font-size="8.4" lengthAdjust="spacing" textLength="36.6" x="30.6" y="247.5762">Customer</text><line style="stroke:#181818;stroke-width:0.3;" x1="13.8" x2="68.4" y1="252.4219" y2="252.4219"/><text fill="#000000" font-family="sans-serif" font-size="8.4" lengthAdjust="spacing" textLength="9.6" x="16.8" y="263.5418">-id</text></g><!--MD5=[0f39e4cb6f03951afbf6d14bd2505654]
class Address--><g id="elem_Address"><rect fill="#F1F1F1" height="30.4219" id="Address" rx="1.5" ry="1.5" style="stroke:#181818;stroke-width:0.3;" width="65.4" x="154.5" y="335.1"/><ellipse cx="163.5" cy="347.9109" fill="#ADD1B2" rx="6.6" ry="6.6" style="stroke:#181818;stroke-width:0.6;"/><path d="M164.7,345.8109 Q164.8219,345.5109 164.9625,345.3609 Q165.1031,345.2109 165.2625,345.2109 Q165.5438,345.2109 165.7219,345.3797 Q165.9,345.5484 165.9,345.9422 L165.9,346.8797 Q165.9,347.2734 165.7313,347.4422 Q165.5625,347.6109 165.3,347.6109 Q165.0656,347.6109 164.9156,347.5078 Q164.7656,347.4047 164.7,347.1328 Q164.6719,346.9453 164.5688,346.8422 Q164.3813,346.6453 164.0438,346.5328 Q163.7062,346.4109 163.3688,346.4109 Q162.9469,346.4109 162.5906,346.5797 Q162.2438,346.7484 161.9719,347.1234 Q161.7,347.4984 161.7,348.0141 L161.7,348.5672 Q161.7,349.1859 162.2062,349.5984 Q162.7125,350.0109 163.6125,350.0109 Q164.1469,350.0109 164.5219,349.8891 Q164.7375,349.8234 164.9813,349.6078 Q165.1406,349.4859 165.225,349.4484 Q165.3094,349.4109 165.4125,349.4109 Q165.6094,349.4109 165.75,349.5703 Q165.9,349.7203 165.9,349.9359 Q165.9,350.1422 165.6938,350.3859 Q165.3937,350.7422 164.9156,350.9391 Q164.2875,351.2109 163.5187,351.2109 Q162.6188,351.2109 161.8969,350.8547 Q161.3156,350.5734 160.9031,349.9641 Q160.5,349.3547 160.5,348.6328 L160.5,347.9766 Q160.5,347.2266 160.8563,346.5703 Q161.2219,345.9141 161.85,345.5672 Q162.4875,345.2109 163.2,345.2109 Q163.6313,345.2109 164.0063,345.3609 Q164.3813,345.5109 164.7,345.8109 Z " fill="#000000"/><text fill="#000000" font-family="sans-serif" font-size="7.2" font-style="italic" lengthAdjust="spacing" textLength="48.6" x="170.7" y="345.5742">«value object»</text><text fill="#000000" font-family="sans-serif" font-size="8.4" lengthAdjust="spacing" textLength="31.2" x="179.4" y="355.8762">Address</text><line style="stroke:#181818;stroke-width:0.3;" x1="155.1" x2="219.3" y1="360.7219" y2="360.7219"/></g><!--MD5=[78bec0fde86ad92ec1dc3fb343b83709]
class Email--><g id="elem_Email"><rect fill="#F1F1F1" height="30.4219" id="Email" rx="1.5" ry="1.5" style="stroke:#181818;stroke-width:0.3;" width="65.4" x="154.5" y="283.5"/><ellipse cx="163.5" cy="296.3109" fill="#ADD1B2" rx="6.6" ry="6.6" style="stroke:#181818;stroke-width:0.6;"/><path d="M164.7,294.2109 Q164.8219,293.9109 164.9625,293.7609 Q165.1031,293.6109 165.2625,293.6109 Q165.5438,293.6109 165.7219,293.7797 Q165.9,293.9484 165.9,294.3422 L165.9,295.2797 Q165.9,295.6734 165.7313,295.8422 Q165.5625,296.0109 165.3,296.0109 Q165.0656,296.0109 164.9156,295.9078 Q164.7656,295.8047 164.7,295.5328 Q164.6719,295.3453 164.5688,295.2422 Q164.3813,295.0453 164.0438,294.9328 Q163.7062,294.8109 163.3688,294.8109 Q162.9469,294.8109 162.5906,294.9797 Q162.2438,295.1484 161.9719,295.5234 Q161.7,295.8984 161.7,296.4141 L161.7,296.9672 Q161.7,297.5859 162.2062,297.9984 Q162.7125,298.4109 163.6125,298.4109 Q164.1469,298.4109 164.5219,298.2891 Q164.7375,298.2234 164.9813,298.0078 Q165.1406,297.8859 165.225,297.8484 Q165.3094,297.8109 165.4125,297.8109 Q165.6094,297.8109 165.75,297.9703 Q165.9,298.1203 165.9,298.3359 Q165.9,298.5422 165.6938,298.7859 Q165.3937,299.1422 164.9156,299.3391 Q164.2875,299.6109 163.5187,299.6109 Q162.6188,299.6109 161.8969,299.2547 Q161.3156,298.9734 160.9031,298.3641 Q160.5,297.7547 160.5,297.0328 L160.5,296.3766 Q160.5,295.6266 160.8563,294.9703 Q161.2219,294.3141 161.85,293.9672 Q162.4875,293.6109 163.2,293.6109 Q163.6313,293.6109 164.0063,293.7609 Q164.3813,293.9109 164.7,294.2109 Z " fill="#000000"/><text fill="#000000" font-family="sans-serif" font-size="7.2" font-style="italic" lengthAdjust="spacing" textLength="48.6" x="170.7" y="293.9742">«value object»</text><text fill="#000000" font-family="sans-serif" font-size="8.4" lengthAdjust="spacing" textLength="20.4" x="184.8" y="304.2762">Email</text><line style="stroke:#181818;stroke-width:0.3;" x1="155.1" x2="219.3" y1="309.1219" y2="309.1219"/></g><!--MD5=[b5e265065262f4f9caf90311e5706eef]
class PhoneNumber--><g id="elem_PhoneNumber"><rect fill="#F1F1F1" height="30.4219" id="PhoneNumber" rx="1.5" ry="1.5" style="stroke:#181818;stroke-width:0.3;" width="73.2" x="150.6" y="231.9"/><ellipse cx="159.6" cy="244.7109" fill="#ADD1B2" rx="6.6" ry="6.6" style="stroke:#181818;stroke-width:0.6;"/><path d="M160.8,242.6109 Q160.9219,242.3109 161.0625,242.1609 Q161.2031,242.0109 161.3625,242.0109 Q161.6437,242.0109 161.8219,242.1797 Q162,242.3484 162,242.7422 L162,243.6797 Q162,244.0734 161.8312,244.2422 Q161.6625,244.4109 161.4,244.4109 Q161.1656,244.4109 161.0156,244.3078 Q160.8656,244.2047 160.8,243.9328 Q160.7719,243.7453 160.6688,243.6422 Q160.4813,243.4453 160.1437,243.3328 Q159.8063,243.2109 159.4688,243.2109 Q159.0469,243.2109 158.6906,243.3797 Q158.3438,243.5484 158.0719,243.9234 Q157.8,244.2984 157.8,244.8141 L157.8,245.3672 Q157.8,245.9859 158.3063,246.3984 Q158.8125,246.8109 159.7125,246.8109 Q160.2469,246.8109 160.6219,246.6891 Q160.8375,246.6234 161.0812,246.4078 Q161.2406,246.2859 161.325,246.2484 Q161.4094,246.2109 161.5125,246.2109 Q161.7094,246.2109 161.85,246.3703 Q162,246.5203 162,246.7359 Q162,246.9422 161.7938,247.1859 Q161.4938,247.5422 161.0156,247.7391 Q160.3875,248.0109 159.6188,248.0109 Q158.7188,248.0109 157.9969,247.6547 Q157.4156,247.3734 157.0031,246.7641 Q156.6,246.1547 156.6,245.4328 L156.6,244.7766 Q156.6,244.0266 156.9562,243.3703 Q157.3219,242.7141 157.95,242.3672 Q158.5875,242.0109 159.3,242.0109 Q159.7313,242.0109 160.1063,242.1609 Q160.4813,242.3109 160.8,242.6109 Z " fill="#000000"/><text fill="#000000" font-family="sans-serif" font-size="7.2" font-style="italic" lengthAdjust="spacing" textLength="48.6" x="170.7" y="242.3742">«value object»</text><text fill="#000000" font-family="sans-serif" font-size="8.4" lengthAdjust="spacing" textLength="54" x="168" y="252.6762">PhoneNumber</text><line style="stroke:#181818;stroke-width:0.3;" x1="151.2" x2="223.2" y1="257.5219" y2="257.5219"/></g><!--MD5=[ec957f90f125634d426aef890efece94]
class BirthDate--><g id="elem_BirthDate"><rect fill="#F1F1F1" height="30.4219" id="BirthDate" rx="1.5" ry="1.5" style="stroke:#181818;stroke-width:0.3;" width="65.4" x="154.5" y="180.3"/><ellipse cx="163.5" cy="193.1109" fill="#ADD1B2" rx="6.6" ry="6.6" style="stroke:#181818;stroke-width:0.6;"/><path d="M164.7,191.0109 Q164.8219,190.7109 164.9625,190.5609 Q165.1031,190.4109 165.2625,190.4109 Q165.5438,190.4109 165.7219,190.5797 Q165.9,190.7484 165.9,191.1422 L165.9,192.0797 Q165.9,192.4734 165.7313,192.6422 Q165.5625,192.8109 165.3,192.8109 Q165.0656,192.8109 164.9156,192.7078 Q164.7656,192.6047 164.7,192.3328 Q164.6719,192.1453 164.5688,192.0422 Q164.3813,191.8453 164.0438,191.7328 Q163.7062,191.6109 163.3688,191.6109 Q162.9469,191.6109 162.5906,191.7797 Q162.2438,191.9484 161.9719,192.3234 Q161.7,192.6984 161.7,193.2141 L161.7,193.7672 Q161.7,194.3859 162.2062,194.7984 Q162.7125,195.2109 163.6125,195.2109 Q164.1469,195.2109 164.5219,195.0891 Q164.7375,195.0234 164.9813,194.8078 Q165.1406,194.6859 165.225,194.6484 Q165.3094,194.6109 165.4125,194.6109 Q165.6094,194.6109 165.75,194.7703 Q165.9,194.9203 165.9,195.1359 Q165.9,195.3422 165.6938,195.5859 Q165.3937,195.9422 164.9156,196.1391 Q164.2875,196.4109 163.5187,196.4109 Q162.6188,196.4109 161.8969,196.0547 Q161.3156,195.7734 160.9031,195.1641 Q160.5,194.5547 160.5,193.8328 L160.5,193.1766 Q160.5,192.4266 160.8563,191.7703 Q161.2219,191.1141 161.85,190.7672 Q162.4875,190.4109 163.2,190.4109 Q163.6313,190.4109 164.0063,190.5609 Q164.3813,190.7109 164.7,191.0109 Z " fill="#000000"/><text fill="#000000" font-family="sans-serif" font-size="7.2" font-style="italic" lengthAdjust="spacing" textLength="48.6" x="170.7" y="190.7742">«value object»</text><text fill="#000000" font-family="sans-serif" font-size="8.4" lengthAdjust="spacing" textLength="35.4" x="177.3" y="201.0762">BirthDate</text><line style="stroke:#181818;stroke-width:0.3;" x1="155.1" x2="219.3" y1="205.9219" y2="205.9219"/></g><!--MD5=[6f348c1f2887396a65ea6388da50c56a]
class Delivering--><g id="elem_Delivering"><rect fill="#F1F1F1" height="30.4219" id="Delivering" rx="1.5" ry="1.5" style="stroke:#181818;stroke-width:0.3;" width="65.4" x="274.2" y="335.1"/><ellipse cx="283.2" cy="347.9109" fill="#ADD1B2" rx="6.6" ry="6.6" style="stroke:#181818;stroke-width:0.6;"/><path d="M284.4,345.8109 Q284.5219,345.5109 284.6625,345.3609 Q284.8031,345.2109 284.9625,345.2109 Q285.2438,345.2109 285.4219,345.3797 Q285.6,345.5484 285.6,345.9422 L285.6,346.8797 Q285.6,347.2734 285.4313,347.4422 Q285.2625,347.6109 285,347.6109 Q284.7656,347.6109 284.6156,347.5078 Q284.4656,347.4047 284.4,347.1328 Q284.3719,346.9453 284.2688,346.8422 Q284.0813,346.6453 283.7438,346.5328 Q283.4063,346.4109 283.0687,346.4109 Q282.6469,346.4109 282.2906,346.5797 Q281.9437,346.7484 281.6719,347.1234 Q281.4,347.4984 281.4,348.0141 L281.4,348.5672 Q281.4,349.1859 281.9063,349.5984 Q282.4125,350.0109 283.3125,350.0109 Q283.8469,350.0109 284.2219,349.8891 Q284.4375,349.8234 284.6813,349.6078 Q284.8406,349.4859 284.925,349.4484 Q285.0094,349.4109 285.1125,349.4109 Q285.3094,349.4109 285.45,349.5703 Q285.6,349.7203 285.6,349.9359 Q285.6,350.1422 285.3938,350.3859 Q285.0938,350.7422 284.6156,350.9391 Q283.9875,351.2109 283.2188,351.2109 Q282.3187,351.2109 281.5969,350.8547 Q281.0156,350.5734 280.6031,349.9641 Q280.2,349.3547 280.2,348.6328 L280.2,347.9766 Q280.2,347.2266 280.5563,346.5703 Q280.9219,345.9141 281.55,345.5672 Q282.1875,345.2109 282.9,345.2109 Q283.3313,345.2109 283.7063,345.3609 Q284.0813,345.5109 284.4,345.8109 Z " fill="#000000"/><text fill="#000000" font-family="sans-serif" font-size="7.2" font-style="italic" lengthAdjust="spacing" textLength="48.6" x="290.4" y="345.5742">«value object»</text><text fill="#000000" font-family="sans-serif" font-size="8.4" lengthAdjust="spacing" textLength="37.8" x="295.8" y="355.8762">Delivering</text><line style="stroke:#181818;stroke-width:0.3;" x1="274.8" x2="339" y1="360.7219" y2="360.7219"/></g><!--MD5=[f894d23981485fb2823f2cca49f3bfef]
class Billing--><g id="elem_Billing"><rect fill="#F1F1F1" height="30.4219" id="Billing" rx="1.5" ry="1.5" style="stroke:#181818;stroke-width:0.3;" width="65.4" x="274.2" y="283.5"/><ellipse cx="283.2" cy="296.3109" fill="#ADD1B2" rx="6.6" ry="6.6" style="stroke:#181818;stroke-width:0.6;"/><path d="M284.4,294.2109 Q284.5219,293.9109 284.6625,293.7609 Q284.8031,293.6109 284.9625,293.6109 Q285.2438,293.6109 285.4219,293.7797 Q285.6,293.9484 285.6,294.3422 L285.6,295.2797 Q285.6,295.6734 285.4313,295.8422 Q285.2625,296.0109 285,296.0109 Q284.7656,296.0109 284.6156,295.9078 Q284.4656,295.8047 284.4,295.5328 Q284.3719,295.3453 284.2688,295.2422 Q284.0813,295.0453 283.7438,294.9328 Q283.4063,294.8109 283.0687,294.8109 Q282.6469,294.8109 282.2906,294.9797 Q281.9437,295.1484 281.6719,295.5234 Q281.4,295.8984 281.4,296.4141 L281.4,296.9672 Q281.4,297.5859 281.9063,297.9984 Q282.4125,298.4109 283.3125,298.4109 Q283.8469,298.4109 284.2219,298.2891 Q284.4375,298.2234 284.6813,298.0078 Q284.8406,297.8859 284.925,297.8484 Q285.0094,297.8109 285.1125,297.8109 Q285.3094,297.8109 285.45,297.9703 Q285.6,298.1203 285.6,298.3359 Q285.6,298.5422 285.3938,298.7859 Q285.0938,299.1422 284.6156,299.3391 Q283.9875,299.6109 283.2188,299.6109 Q282.3187,299.6109 281.5969,299.2547 Q281.0156,298.9734 280.6031,298.3641 Q280.2,297.7547 280.2,297.0328 L280.2,296.3766 Q280.2,295.6266 280.5563,294.9703 Q280.9219,294.3141 281.55,293.9672 Q282.1875,293.6109 282.9,293.6109 Q283.3313,293.6109 283.7063,293.7609 Q284.0813,293.9109 284.4,294.2109 Z " fill="#000000"/><text fill="#000000" font-family="sans-serif" font-size="7.2" font-style="italic" lengthAdjust="spacing" textLength="48.6" x="290.4" y="293.9742">«value object»</text><text fill="#000000" font-family="sans-serif" font-size="8.4" lengthAdjust="spacing" textLength="22.2" x="303.6" y="304.2762">Billing</text><line style="stroke:#181818;stroke-width:0.3;" x1="274.8" x2="339" y1="309.1219" y2="309.1219"/></g><!--MD5=[a626601f1c08886c41476594c2573af3]
class VAT--><g id="elem_VAT"><rect fill="#F1F1F1" height="30.4219" id="VAT" rx="1.5" ry="1.5" style="stroke:#181818;stroke-width:0.3;" width="65.4" x="154.5" y="128.7"/><ellipse cx="163.5" cy="141.5109" fill="#ADD1B2" rx="6.6" ry="6.6" style="stroke:#181818;stroke-width:0.6;"/><path d="M164.7,139.4109 Q164.8219,139.1109 164.9625,138.9609 Q165.1031,138.8109 165.2625,138.8109 Q165.5438,138.8109 165.7219,138.9797 Q165.9,139.1484 165.9,139.5422 L165.9,140.4797 Q165.9,140.8734 165.7313,141.0422 Q165.5625,141.2109 165.3,141.2109 Q165.0656,141.2109 164.9156,141.1078 Q164.7656,141.0047 164.7,140.7328 Q164.6719,140.5453 164.5688,140.4422 Q164.3813,140.2453 164.0438,140.1328 Q163.7062,140.0109 163.3688,140.0109 Q162.9469,140.0109 162.5906,140.1797 Q162.2438,140.3484 161.9719,140.7234 Q161.7,141.0984 161.7,141.6141 L161.7,142.1672 Q161.7,142.7859 162.2062,143.1984 Q162.7125,143.6109 163.6125,143.6109 Q164.1469,143.6109 164.5219,143.4891 Q164.7375,143.4234 164.9813,143.2078 Q165.1406,143.0859 165.225,143.0484 Q165.3094,143.0109 165.4125,143.0109 Q165.6094,143.0109 165.75,143.1703 Q165.9,143.3203 165.9,143.5359 Q165.9,143.7422 165.6938,143.9859 Q165.3937,144.3422 164.9156,144.5391 Q164.2875,144.8109 163.5187,144.8109 Q162.6188,144.8109 161.8969,144.4547 Q161.3156,144.1734 160.9031,143.5641 Q160.5,142.9547 160.5,142.2328 L160.5,141.5766 Q160.5,140.8266 160.8563,140.1703 Q161.2219,139.5141 161.85,139.1672 Q162.4875,138.8109 163.2,138.8109 Q163.6313,138.8109 164.0063,138.9609 Q164.3813,139.1109 164.7,139.4109 Z " fill="#000000"/><text fill="#000000" font-family="sans-serif" font-size="7.2" font-style="italic" lengthAdjust="spacing" textLength="48.6" x="170.7" y="139.1742">«value object»</text><text fill="#000000" font-family="sans-serif" font-size="8.4" lengthAdjust="spacing" textLength="16.2" x="186.9" y="149.4762">VAT</text><line style="stroke:#181818;stroke-width:0.3;" x1="155.1" x2="219.3" y1="154.3219" y2="154.3219"/></g><!--MD5=[53f6a92bd21ca2f2960392a061f3a1c6]
class Name--><g id="elem_Name"><rect fill="#F1F1F1" height="30.4219" id="Name" rx="1.5" ry="1.5" style="stroke:#181818;stroke-width:0.3;" width="65.4" x="154.5" y="77.1"/><ellipse cx="163.5" cy="89.9109" fill="#ADD1B2" rx="6.6" ry="6.6" style="stroke:#181818;stroke-width:0.6;"/><path d="M164.7,87.8109 Q164.8219,87.5109 164.9625,87.3609 Q165.1031,87.2109 165.2625,87.2109 Q165.5438,87.2109 165.7219,87.3797 Q165.9,87.5484 165.9,87.9422 L165.9,88.8797 Q165.9,89.2734 165.7313,89.4422 Q165.5625,89.6109 165.3,89.6109 Q165.0656,89.6109 164.9156,89.5078 Q164.7656,89.4047 164.7,89.1328 Q164.6719,88.9453 164.5688,88.8422 Q164.3813,88.6453 164.0438,88.5328 Q163.7062,88.4109 163.3688,88.4109 Q162.9469,88.4109 162.5906,88.5797 Q162.2438,88.7484 161.9719,89.1234 Q161.7,89.4984 161.7,90.0141 L161.7,90.5672 Q161.7,91.1859 162.2062,91.5984 Q162.7125,92.0109 163.6125,92.0109 Q164.1469,92.0109 164.5219,91.8891 Q164.7375,91.8234 164.9813,91.6078 Q165.1406,91.4859 165.225,91.4484 Q165.3094,91.4109 165.4125,91.4109 Q165.6094,91.4109 165.75,91.5703 Q165.9,91.7203 165.9,91.9359 Q165.9,92.1422 165.6938,92.3859 Q165.3937,92.7422 164.9156,92.9391 Q164.2875,93.2109 163.5187,93.2109 Q162.6188,93.2109 161.8969,92.8547 Q161.3156,92.5734 160.9031,91.9641 Q160.5,91.3547 160.5,90.6328 L160.5,89.9766 Q160.5,89.2266 160.8563,88.5703 Q161.2219,87.9141 161.85,87.5672 Q162.4875,87.2109 163.2,87.2109 Q163.6313,87.2109 164.0063,87.3609 Q164.3813,87.5109 164.7,87.8109 Z " fill="#000000"/><text fill="#000000" font-family="sans-serif" font-size="7.2" font-style="italic" lengthAdjust="spacing" textLength="48.6" x="170.7" y="87.5742">«value object»</text><text fill="#000000" font-family="sans-serif" font-size="8.4" lengthAdjust="spacing" textLength="21.6" x="184.2" y="97.8762">Name</text><line style="stroke:#181818;stroke-width:0.3;" x1="155.1" x2="219.3" y1="102.7219" y2="102.7219"/></g><!--MD5=[a4ea2dcb44ebd57046df9af95d8b8c12]
class Gender--><g id="elem_Gender"><rect fill="#F1F1F1" height="30.4219" id="Gender" rx="1.5" ry="1.5" style="stroke:#181818;stroke-width:0.3;" width="65.4" x="154.5" y="25.5"/><ellipse cx="163.5" cy="38.3109" fill="#ADD1B2" rx="6.6" ry="6.6" style="stroke:#181818;stroke-width:0.6;"/><path d="M164.7,36.2109 Q164.8219,35.9109 164.9625,35.7609 Q165.1031,35.6109 165.2625,35.6109 Q165.5438,35.6109 165.7219,35.7797 Q165.9,35.9484 165.9,36.3422 L165.9,37.2797 Q165.9,37.6734 165.7313,37.8422 Q165.5625,38.0109 165.3,38.0109 Q165.0656,38.0109 164.9156,37.9078 Q164.7656,37.8047 164.7,37.5328 Q164.6719,37.3453 164.5688,37.2422 Q164.3813,37.0453 164.0438,36.9328 Q163.7062,36.8109 163.3688,36.8109 Q162.9469,36.8109 162.5906,36.9797 Q162.2438,37.1484 161.9719,37.5234 Q161.7,37.8984 161.7,38.4141 L161.7,38.9672 Q161.7,39.5859 162.2062,39.9984 Q162.7125,40.4109 163.6125,40.4109 Q164.1469,40.4109 164.5219,40.2891 Q164.7375,40.2234 164.9813,40.0078 Q165.1406,39.8859 165.225,39.8484 Q165.3094,39.8109 165.4125,39.8109 Q165.6094,39.8109 165.75,39.9703 Q165.9,40.1203 165.9,40.3359 Q165.9,40.5422 165.6938,40.7859 Q165.3937,41.1422 164.9156,41.3391 Q164.2875,41.6109 163.5187,41.6109 Q162.6188,41.6109 161.8969,41.2547 Q161.3156,40.9734 160.9031,40.3641 Q160.5,39.7547 160.5,39.0328 L160.5,38.3766 Q160.5,37.6266 160.8563,36.9703 Q161.2219,36.3141 161.85,35.9672 Q162.4875,35.6109 163.2,35.6109 Q163.6313,35.6109 164.0063,35.7609 Q164.3813,35.9109 164.7,36.2109 Z " fill="#000000"/><text fill="#000000" font-family="sans-serif" font-size="7.2" font-style="italic" lengthAdjust="spacing" textLength="48.6" x="170.7" y="35.9742">«value object»</text><text fill="#000000" font-family="sans-serif" font-size="8.4" lengthAdjust="spacing" textLength="28.8" x="180.6" y="46.2762">Gender</text><line style="stroke:#181818;stroke-width:0.3;" x1="155.1" x2="219.3" y1="51.1219" y2="51.1219"/></g><!--MD5=[08f5806e336f712cdf08037e9415a76d]
link Survey to Section--><g id="link_Survey_Section"><path codeLine="38" d="M225.618,466.392 C236.298,471.528 248.046,477.18 259.2,482.544 " fill="none" id="Survey-to-Section" style="stroke:#181818;stroke-width:0.6;"/><polygon fill="#181818" points="262.02,483.9,258.188,479.4016,259.3148,482.6032,256.1131,483.73,262.02,483.9" style="stroke:#181818;stroke-width:0.6;"/><text fill="#000000" font-family="sans-serif" font-size="7.8" lengthAdjust="spacing" textLength="4.2" x="253.1954" y="490.3906">1</text></g><!--MD5=[0b4debe2092e88b167a50a5f1b002e59]
link Survey to Description--><g id="link_Survey_Description"><path codeLine="39" d="M225.618,441.498 C240.162,438.918 256.698,435.99 270.996,433.458 " fill="none" id="Survey-to-Description" style="stroke:#181818;stroke-width:0.6;"/><polygon fill="#181818" points="274.014,432.924,268.2779,431.5037,271.0601,433.4478,269.116,436.23,274.014,432.924" style="stroke:#181818;stroke-width:0.6;"/><text fill="#000000" font-family="sans-serif" font-size="7.8" lengthAdjust="spacing" textLength="4.2" x="265.1128" y="442.4614">1</text></g><!--MD5=[87fa8ff7d398728728a611d860795352]
link Section to Question--><g id="link_Section_Question"><path codeLine="40" d="M351.756,505.2 C362.778,505.2 374.448,505.2 384.972,505.2 " fill="none" id="Section-to-Question" style="stroke:#181818;stroke-width:0.6;"/><polygon fill="#181818" points="388.2,505.2,382.8,502.8,385.2,505.2,382.8,507.6,388.2,505.2" style="stroke:#181818;stroke-width:0.6;"/><text fill="#000000" font-family="sans-serif" font-size="7.8" lengthAdjust="spacing" textLength="3" x="380.3906" y="513.9994">*</text></g><!--MD5=[5223b9d5b11a375b91dc7002562bff5a]
link Customer to Survey--><g id="link_Customer_Survey"><path codeLine="60" d="M50.034,267.684 C58.182,286.638 71.586,315.21 87,337.8 C105.114,364.344 129.168,391.182 149.1,411.75 " fill="none" id="Customer-Survey" style="stroke:#181818;stroke-width:0.6;"/><polygon fill="#000000" points="96.1998,334.9774,94.5778,329.5065,91.6718,331.5047,96.1998,334.9774" style="stroke:#000000;stroke-width:0.6;"/><text fill="#000000" font-family="sans-serif" font-size="7.8" lengthAdjust="spacing" textLength="24.6" x="99.9" y="335.6971">answer</text><text fill="#000000" font-family="sans-serif" font-size="7.8" lengthAdjust="spacing" textLength="3" x="48.4976" y="280.7612">*</text><text fill="#000000" font-family="sans-serif" font-size="7.8" lengthAdjust="spacing" textLength="3" x="141.5213" y="405.4849">*</text></g><!--MD5=[41ddd6a26ec716242e0269678b7a823f]
link Customer to SurveyAnswer--><g id="link_Customer_SurveyAnswer"><path codeLine="61" d="M45.3,267.654 C54.792,318.588 83.334,454.362 134.4,556.8 C140.598,569.232 148.842,581.85 156.948,592.998 " fill="none" id="Customer-SurveyAnswer" style="stroke:#181818;stroke-width:0.6;"/><polygon fill="#000000" points="90.9738,439.143,90.8801,433.4375,87.5443,434.5822,90.9738,439.143" style="stroke:#000000;stroke-width:0.6;"/><text fill="#000000" font-family="sans-serif" font-size="7.8" lengthAdjust="spacing" textLength="33.6" x="95.4" y="439.4971">originates</text><text fill="#000000" font-family="sans-serif" font-size="7.8" lengthAdjust="spacing" textLength="3" x="42.8316" y="280.7253">*</text><text fill="#000000" font-family="sans-serif" font-size="7.8" lengthAdjust="spacing" textLength="3" x="150.0782" y="586.4813">*</text></g><!--MD5=[d37020313d60b0dc9e19f240715ef155]
link Customer to Email--><g id="link_Customer_Email"><path codeLine="62" d="M69.126,256.968 C92.508,265.296 126.264,277.314 151.596,286.332 " fill="none" id="Customer-to-Email" style="stroke:#181818;stroke-width:0.6;"/><polygon fill="#181818" points="154.482,287.364,150.1944,283.2975,151.6545,286.3615,148.5904,287.8215,154.482,287.364" style="stroke:#181818;stroke-width:0.6;"/><text fill="#000000" font-family="sans-serif" font-size="7.8" lengthAdjust="spacing" textLength="4.2" x="145.6033" y="294.5955">1</text></g><!--MD5=[e21c05835871e6a5cb5a81425ddc1343]
link Customer to VAT--><g id="link_Customer_VAT"><path codeLine="63" d="M63.21,226.71 C81.3,210.114 108.312,186.792 134.4,169.8 C139.836,166.26 145.824,162.87 151.752,159.786 " fill="none" id="Customer-to-VAT" style="stroke:#181818;stroke-width:0.6;"/><polygon fill="#181818" points="154.47,158.388,148.5703,158.7242,151.8023,159.7604,150.7662,162.9925,154.47,158.388" style="stroke:#181818;stroke-width:0.6;"/><text fill="#000000" font-family="sans-serif" font-size="7.8" lengthAdjust="spacing" textLength="4.2" x="145.5897" y="169.0896">1</text></g><!--MD5=[fd4380d65360519d48eed8286565e90d]
link Customer to PhoneNumber--><g id="link_Customer_PhoneNumber"><path codeLine="64" d="M69.126,247.2 C91.236,247.2 122.61,247.2 147.378,247.2 " fill="none" id="Customer-to-PhoneNumber" style="stroke:#181818;stroke-width:0.6;"/><polygon fill="#181818" points="150.516,247.2,145.116,244.8,147.516,247.2,145.116,249.6,150.516,247.2" style="stroke:#181818;stroke-width:0.6;"/><text fill="#000000" font-family="sans-serif" font-size="7.8" lengthAdjust="spacing" textLength="4.2" x="141.5892" y="255.9058">1</text></g><!--MD5=[0a8270db3671c85e503ce247627dc826]
link Customer to Name--><g id="link_Customer_Name"><path codeLine="65" d="M52.224,226.716 C67.278,199.074 97.278,149.682 134.4,118.2 C139.548,113.832 145.56,109.992 151.638,106.692 " fill="none" id="Customer-to-Name" style="stroke:#181818;stroke-width:0.6;"/><polygon fill="#181818" points="154.434,105.216,148.5385,105.6198,151.7822,106.6189,150.7831,109.8626,154.434,105.216" style="stroke:#181818;stroke-width:0.6;"/><text fill="#000000" font-family="sans-serif" font-size="7.8" lengthAdjust="spacing" textLength="4.2" x="145.5489" y="115.7064">1</text></g><!--MD5=[cf5567b3002e4b9a664bc30512620907]
link Customer to Gender--><g id="link_Customer_Gender"><path codeLine="66" d="M47.004,226.608 C57.54,189.594 84.51,111.528 134.4,66.6 C139.524,61.986 145.632,57.996 151.824,54.624 " fill="none" id="Customer-to-Gender" style="stroke:#181818;stroke-width:0.6;"/><polygon fill="#181818" points="154.482,53.22,148.5865,53.6238,151.8302,54.6229,150.8311,57.8666,154.482,53.22" style="stroke:#181818;stroke-width:0.6;"/><text fill="#000000" font-family="sans-serif" font-size="7.8" lengthAdjust="spacing" textLength="4.2" x="145.6033" y="63.6571">1</text></g><!--MD5=[dd71b66119cfb2fca85bcf00459bd34f]
link Customer to BirthDate--><g id="link_Customer_BirthDate"><path codeLine="67" d="M69.126,237.432 C92.508,229.104 126.264,217.086 151.596,208.068 " fill="none" id="Customer-to-BirthDate" style="stroke:#181818;stroke-width:0.6;"/><polygon fill="#181818" points="154.482,207.036,148.5904,206.5785,151.6545,208.0385,150.1944,211.1025,154.482,207.036" style="stroke:#181818;stroke-width:0.6;"/><text fill="#000000" font-family="sans-serif" font-size="7.8" lengthAdjust="spacing" textLength="13.2" x="136.4901" y="217.1355">0..1</text></g><!--MD5=[9d267913275094cee8b213adaba16fc1]
link Customer to Address--><g id="link_Customer_Address"><path codeLine="68" d="M60.006,267.708 C67.932,276.09 77.544,285.618 87,293.4 C106.47,309.426 112.518,312.054 134.4,324.6 C140.712,328.218 147.606,331.842 154.248,335.184 " fill="none" id="Customer-Address" style="stroke:#181818;stroke-width:0.6;"/><polygon fill="#000000" points="92.4392,289.8519,89.0532,285.2588,87.0001,288.1263,92.4392,289.8519" style="stroke:#000000;stroke-width:0.6;"/><text fill="#000000" font-family="sans-serif" font-size="7.8" lengthAdjust="spacing" textLength="33.6" x="95.4" y="291.2971">residence</text><text fill="#000000" font-family="sans-serif" font-size="7.8" lengthAdjust="spacing" textLength="4.2" x="59.0096" y="280.6316">1</text><text fill="#000000" font-family="sans-serif" font-size="7.8" lengthAdjust="spacing" textLength="3" x="146.6185" y="341.9076">*</text></g><!--MD5=[b8cb112dbaacd49268de50fffcd769f2]
reverse link Address to Delivering--><g id="link_Address_Delivering"><path codeLine="69" d="M232.128,350.4 C246.06,350.4 261.162,350.4 274.08,350.4 " fill="none" id="Address-backto-Delivering" style="stroke:#181818;stroke-width:0.6;"/><polygon fill="none" points="232.026,354.6,220.026,350.4,232.026,346.2,232.026,354.6" style="stroke:#181818;stroke-width:0.6;"/></g><!--MD5=[f35a48c44f5e52f9fae94252204d49ad]
reverse link Address to Billing--><g id="link_Address_Billing"><path codeLine="70" d="M231.072,331.56 C245.292,325.368 260.832,318.6 274.08,312.828 " fill="none" id="Address-backto-Billing" style="stroke:#181818;stroke-width:0.6;"/><polygon fill="none" points="232.704,335.43,220.026,336.366,229.35,327.726,232.704,335.43" style="stroke:#181818;stroke-width:0.6;"/></g><!--MD5=[0b9c506fba440106327f9428c84b11ed]
@startuml
hide methods
left to right direction
skinparam classAttributeIconSize 0

package "survey"{
class Survey{
-id
-final_date
-title
-welcomeMessage
}

class Section{
-section_id
-section_identification
-section_description
-obligatoriness
-condition
}

Survey <<entity>>
Section <<entity>>
Description <<value object>>
Question <<value object>>
}

package "surveyAnswer"{
SurveyAnswer <<entity>>

class SurveyAnswer{
-surveyAnswer_id
-customer
-survey
-answers
}
}

Survey  - -> "1" Section
Survey  - -> "1" Description
Section - -> "*" Question

package "customer"{
class Customer{
-id
}


Customer <<entity>>
Address <<value object>>
Email <<value object>>
PhoneNumber <<value object>>
BirthDate <<value object>>
Delivering <<value object>>
Billing <<value object>>
VAT <<value object>>
Name <<value object>>
Gender <<value object>>
}

Customer "*" - - "*" Survey : answer >
Customer "*" - - "*" SurveyAnswer : originates >
Customer  - -> "1" Email
Customer  - -> "1" VAT
Customer  - -> "1" PhoneNumber
Customer  - -> "1" Name
Customer  - -> "1" Gender
Customer  - -> "0..1" BirthDate
Customer "1" - - "*" Address : residence >
Address <|- - Delivering
Address <|- - Billing
@enduml

PlantUML version 1.2022.4(Sat Apr 09 14:29:17 BST 2022)
(GPL source distribution)
Java Runtime: OpenJDK Runtime Environment
JVM: OpenJDK 64-Bit Server VM
Default Encoding: Cp1252
Language: pt
Country: PT
--></g></svg>