<?xml version="1.0" encoding="UTF-8" standalone="no"?><svg xmlns="http://www.w3.org/2000/svg" xmlns:xlink="http://www.w3.org/1999/xlink" contentStyleType="text/css" height="881px" preserveAspectRatio="none" style="width:2769px;height:881px;background:#FFFFFF;" version="1.1" viewBox="0 0 2769 881" width="2769px" zoomAndPan="magnify"><defs/><g><rect fill="#FFFFFF" height="688.3281" style="stroke:#181818;stroke-width:1.0;" width="10" x="33.5" y="92.6094"/><rect fill="#FFFFFF" height="363.1641" style="stroke:#181818;stroke-width:1.0;" width="10" x="519.5" y="114.9609"/><rect fill="#FFFFFF" height="272.4609" style="stroke:#181818;stroke-width:1.0;" width="10" x="519.5" y="508.4766"/><rect fill="#FFFFFF" height="302.4609" style="stroke:#181818;stroke-width:1.0;" width="10" x="814.5" y="145.3125"/><rect fill="#FFFFFF" height="251.1094" style="stroke:#181818;stroke-width:1.0;" width="10" x="814.5" y="538.8281"/><rect fill="#FFFFFF" height="272.1094" style="stroke:#181818;stroke-width:1.0;" width="10" x="990" y="175.6641"/><rect fill="#FFFFFF" height="220.7578" style="stroke:#181818;stroke-width:1.0;" width="10" x="990" y="569.1797"/><rect fill="#FFFFFF" height="60.3516" style="stroke:#181818;stroke-width:1.0;" width="10" x="1404" y="206.0156"/><rect fill="#FFFFFF" height="60.3516" style="stroke:#181818;stroke-width:1.0;" width="10" x="1404" y="296.7188"/><rect fill="#FFFFFF" height="60.3516" style="stroke:#181818;stroke-width:1.0;" width="10" x="1404" y="387.4219"/><rect fill="#FFFFFF" height="60.3516" style="stroke:#181818;stroke-width:1.0;" width="10" x="1404" y="599.5313"/><rect fill="#FFFFFF" height="60.3516" style="stroke:#181818;stroke-width:1.0;" width="10" x="1404" y="690.2344"/><rect fill="#FFFFFF" height="30" style="stroke:#181818;stroke-width:1.0;" width="10" x="1685" y="236.3672"/><rect fill="#FFFFFF" height="30" style="stroke:#181818;stroke-width:1.0;" width="10" x="1685" y="629.8828"/><rect fill="#FFFFFF" height="30" style="stroke:#181818;stroke-width:1.0;" width="10" x="1833.5" y="417.7734"/><rect fill="#FFFFFF" height="30" style="stroke:#181818;stroke-width:1.0;" width="10" x="1996.5" y="327.0703"/><rect fill="#FFFFFF" height="30" style="stroke:#181818;stroke-width:1.0;" width="10" x="1996.5" y="720.5859"/><line style="stroke:#181818;stroke-width:0.5;stroke-dasharray:5.0,5.0;" x1="38" x2="38" y1="82.6094" y2="798.9375"/><line style="stroke:#181818;stroke-width:0.5;stroke-dasharray:5.0,5.0;" x1="524" x2="524" y1="82.6094" y2="798.9375"/><line style="stroke:#181818;stroke-width:0.5;stroke-dasharray:5.0,5.0;" x1="819" x2="819" y1="82.6094" y2="798.9375"/><line style="stroke:#181818;stroke-width:0.5;stroke-dasharray:5.0,5.0;" x1="995" x2="995" y1="82.6094" y2="798.9375"/><line style="stroke:#181818;stroke-width:0.5;stroke-dasharray:5.0,5.0;" x1="1409" x2="1409" y1="82.6094" y2="798.9375"/><line style="stroke:#181818;stroke-width:0.5;stroke-dasharray:5.0,5.0;" x1="1689.5" x2="1689.5" y1="82.6094" y2="798.9375"/><line style="stroke:#181818;stroke-width:0.5;stroke-dasharray:5.0,5.0;" x1="1838.5" x2="1838.5" y1="82.6094" y2="798.9375"/><line style="stroke:#181818;stroke-width:0.5;stroke-dasharray:5.0,5.0;" x1="2001.5" x2="2001.5" y1="82.6094" y2="798.9375"/><line style="stroke:#181818;stroke-width:0.5;stroke-dasharray:5.0,5.0;" x1="2169.5" x2="2169.5" y1="82.6094" y2="798.9375"/><line style="stroke:#181818;stroke-width:0.5;stroke-dasharray:5.0,5.0;" x1="2339.5" x2="2339.5" y1="82.6094" y2="798.9375"/><line style="stroke:#181818;stroke-width:0.5;stroke-dasharray:5.0,5.0;" x1="2495.5" x2="2495.5" y1="82.6094" y2="798.9375"/><line style="stroke:#181818;stroke-width:0.5;stroke-dasharray:5.0,5.0;" x1="2663.5" x2="2663.5" y1="82.6094" y2="798.9375"/><text fill="#000000" font-family="sans-serif" font-size="14" lengthAdjust="spacing" textLength="61" x="5" y="79.5332">Customer</text><ellipse cx="38.5" cy="13.5" fill="#E2E2F0" rx="8" ry="8" style="stroke:#181818;stroke-width:0.5;"/><path d="M38.5,21.5 L38.5,48.5 M25.5,29.5 L51.5,29.5 M38.5,48.5 L25.5,63.5 M38.5,48.5 L51.5,63.5 " fill="none" style="stroke:#181818;stroke-width:0.5;"/><text fill="#000000" font-family="sans-serif" font-size="14" lengthAdjust="spacing" textLength="61" x="5" y="812.4707">Customer</text><ellipse cx="38.5" cy="824.0469" fill="#E2E2F0" rx="8" ry="8" style="stroke:#181818;stroke-width:0.5;"/><path d="M38.5,832.0469 L38.5,859.0469 M25.5,840.0469 L51.5,840.0469 M38.5,859.0469 L25.5,874.0469 M38.5,859.0469 L51.5,874.0469 " fill="none" style="stroke:#181818;stroke-width:0.5;"/><rect fill="#E2E2F0" height="31.6094" rx="2.5" ry="2.5" style="stroke:#181818;stroke-width:0.5;" width="141" x="454" y="50"/><text fill="#000000" font-family="sans-serif" font-size="14" lengthAdjust="spacing" textLength="127" x="461" y="71.5332">:QuestionnaireListUI</text><rect fill="#E2E2F0" height="31.6094" rx="2.5" ry="2.5" style="stroke:#181818;stroke-width:0.5;" width="141" x="454" y="797.9375"/><text fill="#000000" font-family="sans-serif" font-size="14" lengthAdjust="spacing" textLength="127" x="461" y="819.4707">:QuestionnaireListUI</text><rect fill="#E2E2F0" height="31.6094" rx="2.5" ry="2.5" style="stroke:#181818;stroke-width:0.5;" width="191" x="724" y="50"/><text fill="#000000" font-family="sans-serif" font-size="14" lengthAdjust="spacing" textLength="177" x="731" y="71.5332">:QuestionnaireListController</text><rect fill="#E2E2F0" height="31.6094" rx="2.5" ry="2.5" style="stroke:#181818;stroke-width:0.5;" width="191" x="724" y="797.9375"/><text fill="#000000" font-family="sans-serif" font-size="14" lengthAdjust="spacing" textLength="177" x="731" y="819.4707">:QuestionnaireListController</text><rect fill="#E2E2F0" height="31.6094" rx="2.5" ry="2.5" style="stroke:#181818;stroke-width:0.5;" width="140" x="925" y="50"/><text fill="#000000" font-family="sans-serif" font-size="14" lengthAdjust="spacing" textLength="126" x="932" y="71.5332">:PersistenceContext</text><rect fill="#E2E2F0" height="31.6094" rx="2.5" ry="2.5" style="stroke:#181818;stroke-width:0.5;" width="140" x="925" y="797.9375"/><text fill="#000000" font-family="sans-serif" font-size="14" lengthAdjust="spacing" textLength="126" x="932" y="819.4707">:PersistenceContext</text><rect fill="#E2E2F0" height="31.6094" rx="2.5" ry="2.5" style="stroke:#181818;stroke-width:0.5;" width="134" x="1342" y="50"/><text fill="#000000" font-family="sans-serif" font-size="14" lengthAdjust="spacing" textLength="120" x="1349" y="71.5332">:RepositoryFactory</text><rect fill="#E2E2F0" height="31.6094" rx="2.5" ry="2.5" style="stroke:#181818;stroke-width:0.5;" width="134" x="1342" y="797.9375"/><text fill="#000000" font-family="sans-serif" font-size="14" lengthAdjust="spacing" textLength="120" x="1349" y="819.4707">:RepositoryFactory</text><rect fill="#E2E2F0" height="31.6094" rx="2.5" ry="2.5" style="stroke:#181818;stroke-width:0.5;" width="147" x="1616.5" y="50"/><text fill="#000000" font-family="sans-serif" font-size="14" lengthAdjust="spacing" textLength="133" x="1623.5" y="71.5332">:CustomerRepository</text><rect fill="#E2E2F0" height="31.6094" rx="2.5" ry="2.5" style="stroke:#181818;stroke-width:0.5;" width="147" x="1616.5" y="797.9375"/><text fill="#000000" font-family="sans-serif" font-size="14" lengthAdjust="spacing" textLength="133" x="1623.5" y="819.4707">:CustomerRepository</text><rect fill="#E2E2F0" height="31.6094" rx="2.5" ry="2.5" style="stroke:#181818;stroke-width:0.5;" width="130" x="1773.5" y="50"/><text fill="#000000" font-family="sans-serif" font-size="14" lengthAdjust="spacing" textLength="116" x="1780.5" y="71.5332">:SurveyRepository</text><rect fill="#E2E2F0" height="31.6094" rx="2.5" ry="2.5" style="stroke:#181818;stroke-width:0.5;" width="130" x="1773.5" y="797.9375"/><text fill="#000000" font-family="sans-serif" font-size="14" lengthAdjust="spacing" textLength="116" x="1780.5" y="819.4707">:SurveyRepository</text><rect fill="#E2E2F0" height="31.6094" rx="2.5" ry="2.5" style="stroke:#181818;stroke-width:0.5;" width="176" x="1913.5" y="50"/><text fill="#000000" font-family="sans-serif" font-size="14" lengthAdjust="spacing" textLength="162" x="1920.5" y="71.5332">:SurveyAnswerRepository</text><rect fill="#E2E2F0" height="31.6094" rx="2.5" ry="2.5" style="stroke:#181818;stroke-width:0.5;" width="176" x="1913.5" y="797.9375"/><text fill="#000000" font-family="sans-serif" font-size="14" lengthAdjust="spacing" textLength="162" x="1920.5" y="819.4707">:SurveyAnswerRepository</text><rect fill="#E2E2F0" height="31.6094" rx="2.5" ry="2.5" style="stroke:#181818;stroke-width:0.5;" width="141" x="2099.5" y="50"/><text fill="#000000" font-family="sans-serif" font-size="14" lengthAdjust="spacing" textLength="127" x="2106.5" y="71.5332">customer: Customer</text><rect fill="#E2E2F0" height="31.6094" rx="2.5" ry="2.5" style="stroke:#181818;stroke-width:0.5;" width="141" x="2099.5" y="797.9375"/><text fill="#000000" font-family="sans-serif" font-size="14" lengthAdjust="spacing" textLength="127" x="2106.5" y="819.4707">customer: Customer</text><rect fill="#E2E2F0" height="31.6094" rx="2.5" ry="2.5" style="stroke:#181818;stroke-width:0.5;" width="178" x="2250.5" y="50"/><text fill="#000000" font-family="sans-serif" font-size="14" lengthAdjust="spacing" textLength="164" x="2257.5" y="71.5332">answeredSurveys: Survey</text><rect fill="#E2E2F0" height="31.6094" rx="2.5" ry="2.5" style="stroke:#181818;stroke-width:0.5;" width="178" x="2250.5" y="797.9375"/><text fill="#000000" font-family="sans-serif" font-size="14" lengthAdjust="spacing" textLength="164" x="2257.5" y="819.4707">answeredSurveys: Survey</text><rect fill="#E2E2F0" height="31.6094" rx="2.5" ry="2.5" style="stroke:#181818;stroke-width:0.5;" width="115" x="2438.5" y="50"/><text fill="#000000" font-family="sans-serif" font-size="14" lengthAdjust="spacing" textLength="101" x="2445.5" y="71.5332">surveys: Survey</text><rect fill="#E2E2F0" height="31.6094" rx="2.5" ry="2.5" style="stroke:#181818;stroke-width:0.5;" width="115" x="2438.5" y="797.9375"/><text fill="#000000" font-family="sans-serif" font-size="14" lengthAdjust="spacing" textLength="101" x="2445.5" y="819.4707">surveys: Survey</text><rect fill="#E2E2F0" height="31.6094" rx="2.5" ry="2.5" style="stroke:#181818;stroke-width:0.5;" width="200" x="2563.5" y="50"/><text fill="#000000" font-family="sans-serif" font-size="14" lengthAdjust="spacing" textLength="186" x="2570.5" y="71.5332">surveyAnswer: SurveyAnswer</text><rect fill="#E2E2F0" height="31.6094" rx="2.5" ry="2.5" style="stroke:#181818;stroke-width:0.5;" width="200" x="2563.5" y="797.9375"/><text fill="#000000" font-family="sans-serif" font-size="14" lengthAdjust="spacing" textLength="186" x="2570.5" y="819.4707">surveyAnswer: SurveyAnswer</text><rect fill="#FFFFFF" height="688.3281" style="stroke:#181818;stroke-width:1.0;" width="10" x="33.5" y="92.6094"/><rect fill="#FFFFFF" height="363.1641" style="stroke:#181818;stroke-width:1.0;" width="10" x="519.5" y="114.9609"/><rect fill="#FFFFFF" height="272.4609" style="stroke:#181818;stroke-width:1.0;" width="10" x="519.5" y="508.4766"/><rect fill="#FFFFFF" height="302.4609" style="stroke:#181818;stroke-width:1.0;" width="10" x="814.5" y="145.3125"/><rect fill="#FFFFFF" height="251.1094" style="stroke:#181818;stroke-width:1.0;" width="10" x="814.5" y="538.8281"/><rect fill="#FFFFFF" height="272.1094" style="stroke:#181818;stroke-width:1.0;" width="10" x="990" y="175.6641"/><rect fill="#FFFFFF" height="220.7578" style="stroke:#181818;stroke-width:1.0;" width="10" x="990" y="569.1797"/><rect fill="#FFFFFF" height="60.3516" style="stroke:#181818;stroke-width:1.0;" width="10" x="1404" y="206.0156"/><rect fill="#FFFFFF" height="60.3516" style="stroke:#181818;stroke-width:1.0;" width="10" x="1404" y="296.7188"/><rect fill="#FFFFFF" height="60.3516" style="stroke:#181818;stroke-width:1.0;" width="10" x="1404" y="387.4219"/><rect fill="#FFFFFF" height="60.3516" style="stroke:#181818;stroke-width:1.0;" width="10" x="1404" y="599.5313"/><rect fill="#FFFFFF" height="60.3516" style="stroke:#181818;stroke-width:1.0;" width="10" x="1404" y="690.2344"/><rect fill="#FFFFFF" height="30" style="stroke:#181818;stroke-width:1.0;" width="10" x="1685" y="236.3672"/><rect fill="#FFFFFF" height="30" style="stroke:#181818;stroke-width:1.0;" width="10" x="1685" y="629.8828"/><rect fill="#FFFFFF" height="30" style="stroke:#181818;stroke-width:1.0;" width="10" x="1833.5" y="417.7734"/><rect fill="#FFFFFF" height="30" style="stroke:#181818;stroke-width:1.0;" width="10" x="1996.5" y="327.0703"/><rect fill="#FFFFFF" height="30" style="stroke:#181818;stroke-width:1.0;" width="10" x="1996.5" y="720.5859"/><polygon fill="#181818" points="507.5,110.9609,517.5,114.9609,507.5,118.9609,511.5,114.9609" style="stroke:#181818;stroke-width:1.0;"/><line style="stroke:#181818;stroke-width:1.0;" x1="43.5" x2="513.5" y1="114.9609" y2="114.9609"/><text fill="#000000" font-family="sans-serif" font-size="13" font-weight="bold" lengthAdjust="spacing" textLength="7" x="50.5" y="110.1045">1</text><text fill="#000000" font-family="sans-serif" font-size="13" lengthAdjust="spacing" textLength="446" x="61.5" y="110.1045">asks to get the list of questionnaires that the system is asking him to answer</text><polygon fill="#181818" points="802.5,141.3125,812.5,145.3125,802.5,149.3125,806.5,145.3125" style="stroke:#181818;stroke-width:1.0;"/><line style="stroke:#181818;stroke-width:1.0;" x1="529.5" x2="808.5" y1="145.3125" y2="145.3125"/><text fill="#000000" font-family="sans-serif" font-size="13" font-weight="bold" lengthAdjust="spacing" textLength="7" x="536.5" y="140.4561">2</text><text fill="#000000" font-family="sans-serif" font-size="13" lengthAdjust="spacing" textLength="255" x="547.5" y="140.4561">questionnairesList = getQuestionnairesList()</text><polygon fill="#181818" points="978,171.6641,988,175.6641,978,179.6641,982,175.6641" style="stroke:#181818;stroke-width:1.0;"/><line style="stroke:#181818;stroke-width:1.0;" x1="824.5" x2="984" y1="175.6641" y2="175.6641"/><text fill="#000000" font-family="sans-serif" font-size="13" font-weight="bold" lengthAdjust="spacing" textLength="7" x="831.5" y="170.8076">3</text><text fill="#000000" font-family="sans-serif" font-size="13" lengthAdjust="spacing" textLength="75" x="842.5" y="170.8076">repositories()</text><polygon fill="#181818" points="1392,202.0156,1402,206.0156,1392,210.0156,1396,206.0156" style="stroke:#181818;stroke-width:1.0;"/><line style="stroke:#181818;stroke-width:1.0;" x1="1000" x2="1398" y1="206.0156" y2="206.0156"/><text fill="#000000" font-family="sans-serif" font-size="13" font-weight="bold" lengthAdjust="spacing" textLength="7" x="1007" y="201.1592">4</text><text fill="#000000" font-family="sans-serif" font-size="13" lengthAdjust="spacing" textLength="234" x="1018" y="201.1592">customer = findCustomerByEmail(email)</text><polygon fill="#181818" points="1673,232.3672,1683,236.3672,1673,240.3672,1677,236.3672" style="stroke:#181818;stroke-width:1.0;"/><line style="stroke:#181818;stroke-width:1.0;" x1="1414" x2="1679" y1="236.3672" y2="236.3672"/><text fill="#000000" font-family="sans-serif" font-size="13" font-weight="bold" lengthAdjust="spacing" textLength="7" x="1421" y="231.5107">5</text><text fill="#000000" font-family="sans-serif" font-size="13" lengthAdjust="spacing" textLength="234" x="1432" y="231.5107">customer = findCustomerByEmail(email)</text><polygon fill="#181818" points="1392,292.7188,1402,296.7188,1392,300.7188,1396,296.7188" style="stroke:#181818;stroke-width:1.0;"/><line style="stroke:#181818;stroke-width:1.0;" x1="1000" x2="1398" y1="296.7188" y2="296.7188"/><text fill="#000000" font-family="sans-serif" font-size="13" font-weight="bold" lengthAdjust="spacing" textLength="7" x="1007" y="291.8623">6</text><text fill="#000000" font-family="sans-serif" font-size="13" lengthAdjust="spacing" textLength="374" x="1018" y="291.8623">answeredSurveys = findSurveysAnsweredByCustomer(customer)</text><polygon fill="#181818" points="1984.5,323.0703,1994.5,327.0703,1984.5,331.0703,1988.5,327.0703" style="stroke:#181818;stroke-width:1.0;"/><line style="stroke:#181818;stroke-width:1.0;" x1="1414" x2="1990.5" y1="327.0703" y2="327.0703"/><text fill="#000000" font-family="sans-serif" font-size="13" font-weight="bold" lengthAdjust="spacing" textLength="7" x="1421" y="322.2139">7</text><text fill="#000000" font-family="sans-serif" font-size="13" lengthAdjust="spacing" textLength="374" x="1432" y="322.2139">answeredSurveys = findSurveysAnsweredByCustomer(customer)</text><polygon fill="#181818" points="1392,383.4219,1402,387.4219,1392,391.4219,1396,387.4219" style="stroke:#181818;stroke-width:1.0;"/><line style="stroke:#181818;stroke-width:1.0;" x1="1000" x2="1398" y1="387.4219" y2="387.4219"/><text fill="#000000" font-family="sans-serif" font-size="13" font-weight="bold" lengthAdjust="spacing" textLength="7" x="1007" y="382.5654">8</text><text fill="#000000" font-family="sans-serif" font-size="13" lengthAdjust="spacing" textLength="160" x="1018" y="382.5654">answeredSurveys = findAll()</text><polygon fill="#181818" points="1821.5,413.7734,1831.5,417.7734,1821.5,421.7734,1825.5,417.7734" style="stroke:#181818;stroke-width:1.0;"/><line style="stroke:#181818;stroke-width:1.0;" x1="1414" x2="1827.5" y1="417.7734" y2="417.7734"/><text fill="#000000" font-family="sans-serif" font-size="13" font-weight="bold" lengthAdjust="spacing" textLength="7" x="1421" y="412.917">9</text><text fill="#000000" font-family="sans-serif" font-size="13" lengthAdjust="spacing" textLength="160" x="1432" y="412.917">answeredSurveys = findAll()</text><polygon fill="#181818" points="54.5,474.125,44.5,478.125,54.5,482.125,50.5,478.125" style="stroke:#181818;stroke-width:1.0;"/><line style="stroke:#181818;stroke-width:1.0;stroke-dasharray:2.0,2.0;" x1="48.5" x2="523.5" y1="478.125" y2="478.125"/><text fill="#000000" font-family="sans-serif" font-size="13" font-weight="bold" lengthAdjust="spacing" textLength="14" x="60.5" y="473.2686">10</text><text fill="#000000" font-family="sans-serif" font-size="13" lengthAdjust="spacing" textLength="243" x="78.5" y="473.2686">shows the requested list of questionnaires</text><polygon fill="#181818" points="507.5,504.4766,517.5,508.4766,507.5,512.4766,511.5,508.4766" style="stroke:#181818;stroke-width:1.0;"/><line style="stroke:#181818;stroke-width:1.0;" x1="43.5" x2="513.5" y1="508.4766" y2="508.4766"/><text fill="#000000" font-family="sans-serif" font-size="13" font-weight="bold" lengthAdjust="spacing" textLength="14" x="50.5" y="503.6201">11</text><text fill="#000000" font-family="sans-serif" font-size="13" lengthAdjust="spacing" textLength="214" x="68.5" y="503.6201">answers the questionnaires he wants</text><polygon fill="#181818" points="802.5,534.8281,812.5,538.8281,802.5,542.8281,806.5,538.8281" style="stroke:#181818;stroke-width:1.0;"/><line style="stroke:#181818;stroke-width:1.0;" x1="529.5" x2="808.5" y1="538.8281" y2="538.8281"/><text fill="#000000" font-family="sans-serif" font-size="13" font-weight="bold" lengthAdjust="spacing" textLength="14" x="536.5" y="533.9717">12</text><text fill="#000000" font-family="sans-serif" font-size="13" lengthAdjust="spacing" textLength="181" x="554.5" y="533.9717">answerSurvey(survey, answers)</text><polygon fill="#181818" points="978,565.1797,988,569.1797,978,573.1797,982,569.1797" style="stroke:#181818;stroke-width:1.0;"/><line style="stroke:#181818;stroke-width:1.0;" x1="824.5" x2="984" y1="569.1797" y2="569.1797"/><text fill="#000000" font-family="sans-serif" font-size="13" font-weight="bold" lengthAdjust="spacing" textLength="14" x="831.5" y="564.3232">13</text><text fill="#000000" font-family="sans-serif" font-size="13" lengthAdjust="spacing" textLength="75" x="849.5" y="564.3232">repositories()</text><polygon fill="#181818" points="1392,595.5313,1402,599.5313,1392,603.5313,1396,599.5313" style="stroke:#181818;stroke-width:1.0;"/><line style="stroke:#181818;stroke-width:1.0;" x1="1000" x2="1398" y1="599.5313" y2="599.5313"/><text fill="#000000" font-family="sans-serif" font-size="13" font-weight="bold" lengthAdjust="spacing" textLength="14" x="1007" y="594.6748">14</text><text fill="#000000" font-family="sans-serif" font-size="13" lengthAdjust="spacing" textLength="234" x="1025" y="594.6748">customer = findCustomerByEmail(email)</text><polygon fill="#181818" points="1673,625.8828,1683,629.8828,1673,633.8828,1677,629.8828" style="stroke:#181818;stroke-width:1.0;"/><line style="stroke:#181818;stroke-width:1.0;" x1="1414" x2="1679" y1="629.8828" y2="629.8828"/><text fill="#000000" font-family="sans-serif" font-size="13" font-weight="bold" lengthAdjust="spacing" textLength="14" x="1421" y="625.0264">15</text><text fill="#000000" font-family="sans-serif" font-size="13" lengthAdjust="spacing" textLength="234" x="1439" y="625.0264">customer = findCustomerByEmail(email)</text><polygon fill="#181818" points="1392,686.2344,1402,690.2344,1392,694.2344,1396,690.2344" style="stroke:#181818;stroke-width:1.0;"/><line style="stroke:#181818;stroke-width:1.0;" x1="1000" x2="1398" y1="690.2344" y2="690.2344"/><text fill="#000000" font-family="sans-serif" font-size="13" font-weight="bold" lengthAdjust="spacing" textLength="14" x="1007" y="685.3779">16</text><text fill="#000000" font-family="sans-serif" font-size="13" lengthAdjust="spacing" textLength="114" x="1025" y="685.3779">save(surveyAnswer)</text><polygon fill="#181818" points="1984.5,716.5859,1994.5,720.5859,1984.5,724.5859,1988.5,720.5859" style="stroke:#181818;stroke-width:1.0;"/><line style="stroke:#181818;stroke-width:1.0;" x1="1414" x2="1990.5" y1="720.5859" y2="720.5859"/><text fill="#000000" font-family="sans-serif" font-size="13" font-weight="bold" lengthAdjust="spacing" textLength="14" x="1421" y="715.7295">17</text><text fill="#000000" font-family="sans-serif" font-size="13" lengthAdjust="spacing" textLength="114" x="1439" y="715.7295">save(surveyAnswer)</text><polygon fill="#181818" points="49.5,776.9375,39.5,780.9375,49.5,784.9375,45.5,780.9375" style="stroke:#181818;stroke-width:1.0;"/><line style="stroke:#181818;stroke-width:1.0;stroke-dasharray:2.0,2.0;" x1="43.5" x2="523.5" y1="780.9375" y2="780.9375"/><text fill="#000000" font-family="sans-serif" font-size="13" font-weight="bold" lengthAdjust="spacing" textLength="14" x="55.5" y="776.0811">18</text><text fill="#000000" font-family="sans-serif" font-size="13" lengthAdjust="spacing" textLength="152" x="73.5" y="776.0811">informs operation success</text><!--MD5=[29994941a848ba682270209c49cf2a91]
@startuml
actor "Customer" as C
participant ":QuestionnaireListUI" as QLUI
participant ":QuestionnaireListController" as QLC
participant ":PersistenceContext" as PC
participant ":RepositoryFactory" as RF
participant ":CustomerRepository" as CR
participant ":SurveyRepository" as SR
participant ":SurveyAnswerRepository" as SAR
participant "customer: Customer" as Ct
participant "answeredSurveys: Survey" as AS
participant "surveys: Survey" as S
participant "surveyAnswer: SurveyAnswer" as SA

autonumber
activate C
C -> QLUI: asks to get the list of questionnaires that the system is asking him to answer
activate QLUI
QLUI -> QLC: questionnairesList = getQuestionnairesList()
activate QLC
QLC -> PC : repositories()
activate PC
PC -> RF : customer = findCustomerByEmail(email)
activate RF
RF -> CR : customer = findCustomerByEmail(email)
activate CR
deactivate CR
deactivate RF
PC -> RF : answeredSurveys = findSurveysAnsweredByCustomer(customer)
activate RF
RF -> SAR : answeredSurveys = findSurveysAnsweredByCustomer(customer)
activate SAR
deactivate SAR
deactivate RF
PC -> RF : answeredSurveys = findAll()
activate RF
RF -> SR : answeredSurveys = findAll()
activate SR
deactivate SR
deactivate RF


deactivate CR
deactivate RF
deactivate PC
deactivate QLC
QLUI - -> C: shows the requested list of questionnaires
deactivate QLUI
C -> QLUI: answers the questionnaires he wants
activate QLUI
QLUI -> QLC: answerSurvey(survey, answers)
activate QLC
QLC -> PC : repositories()
activate PC
PC -> RF : customer = findCustomerByEmail(email)
activate RF
RF -> CR : customer = findCustomerByEmail(email)
activate CR
deactivate CR
deactivate RF
PC -> RF : save(surveyAnswer)
activate RF
RF -> SAR : save(surveyAnswer)
activate SAR
deactivate SAR
deactivate RF
QLUI - -> C: informs operation success
deactivate QLUI
deactivate C
@enduml

PlantUML version 1.2022.4(Sat Apr 09 14:29:17 BST 2022)
(GPL source distribution)
Java Runtime: OpenJDK Runtime Environment
JVM: OpenJDK 64-Bit Server VM
Default Encoding: Cp1252
Language: pt
Country: PT
--></g></svg>