<?xml version="1.0" encoding="UTF-8" standalone="no"?><svg xmlns="http://www.w3.org/2000/svg" xmlns:xlink="http://www.w3.org/1999/xlink" contentStyleType="text/css" height="1037px" preserveAspectRatio="none" style="width:411px;height:1037px;background:#FFFFFF;" version="1.1" viewBox="0 0 411 1037" width="411px" zoomAndPan="magnify"><defs/><g><!--MD5=[8fd473fd151a2794da4f2c8684676405]
cluster Presentation--><g id="cluster_Presentation"><path d="M69.5,6 L160.5,6 A3.75,3.75 0 0 1 163,8.5 L170,29.6094 L232.5,29.6094 A2.5,2.5 0 0 1 235,32.1094 L235,103.5 A2.5,2.5 0 0 1 232.5,106 L69.5,106 A2.5,2.5 0 0 1 67,103.5 L67,8.5 A2.5,2.5 0 0 1 69.5,6 " style="stroke:#000000;stroke-width:1.5;fill:none;"/><line style="stroke:#000000;stroke-width:1.5;fill:none;" x1="67" x2="170" y1="29.6094" y2="29.6094"/><text fill="#000000" font-family="sans-serif" font-size="14" font-weight="bold" lengthAdjust="spacing" textLength="90" x="71" y="22.5332">Presentation</text></g><!--MD5=[d64883541e3d62e3241c4d12decf100d]
cluster Application--><g id="cluster_Application"><path d="M8.5,130 L87.5,130 A3.75,3.75 0 0 1 90,132.5 L97,153.6094 L293.5,153.6094 A2.5,2.5 0 0 1 296,156.1094 L296,262.5 A2.5,2.5 0 0 1 293.5,265 L8.5,265 A2.5,2.5 0 0 1 6,262.5 L6,132.5 A2.5,2.5 0 0 1 8.5,130 " style="stroke:#000000;stroke-width:1.5;fill:none;"/><line style="stroke:#000000;stroke-width:1.5;fill:none;" x1="6" x2="97" y1="153.6094" y2="153.6094"/><text fill="#000000" font-family="sans-serif" font-size="14" font-weight="bold" lengthAdjust="spacing" textLength="78" x="10" y="146.5332">Application</text></g><!--MD5=[121a8bf1197281ab89ed693fab589f94]
cluster Domain--><g id="cluster_Domain"><path d="M75.5,912 L128.5,912 A3.75,3.75 0 0 1 131,914.5 L138,935.6094 L246.5,935.6094 A2.5,2.5 0 0 1 249,938.1094 L249,1027.5 A2.5,2.5 0 0 1 246.5,1030 L75.5,1030 A2.5,2.5 0 0 1 73,1027.5 L73,914.5 A2.5,2.5 0 0 1 75.5,912 " style="stroke:#000000;stroke-width:1.5;fill:none;"/><line style="stroke:#000000;stroke-width:1.5;fill:none;" x1="73" x2="138" y1="935.6094" y2="935.6094"/><text fill="#000000" font-family="sans-serif" font-size="14" font-weight="bold" lengthAdjust="spacing" textLength="52" x="77" y="928.5332">Domain</text></g><!--MD5=[bc6b40dadbf86ab6a0c8405a467a48af]
cluster Persistence--><g id="cluster_Persistence"><path d="M160.5,334 L245.5,334 A3.75,3.75 0 0 1 248,336.5 L255,357.6094 L341.5,357.6094 A2.5,2.5 0 0 1 344,360.1094 L344,449.5 A2.5,2.5 0 0 1 341.5,452 L160.5,452 A2.5,2.5 0 0 1 158,449.5 L158,336.5 A2.5,2.5 0 0 1 160.5,334 " style="stroke:#000000;stroke-width:1.5;fill:none;"/><line style="stroke:#000000;stroke-width:1.5;fill:none;" x1="158" x2="255" y1="357.6094" y2="357.6094"/><text fill="#000000" font-family="sans-serif" font-size="14" font-weight="bold" lengthAdjust="spacing" textLength="84" x="162" y="350.5332">Persistence</text></g><!--MD5=[0d5799440b3bfefd92b00abfcd2c79b9]
cluster Factory--><g id="cluster_Factory"><path d="M175.5,521 L228.5,521 A3.75,3.75 0 0 1 231,523.5 L238,544.6094 L350.5,544.6094 A2.5,2.5 0 0 1 353,547.1094 L353,618.5 A2.5,2.5 0 0 1 350.5,621 L175.5,621 A2.5,2.5 0 0 1 173,618.5 L173,523.5 A2.5,2.5 0 0 1 175.5,521 " style="stroke:#000000;stroke-width:1.5;fill:none;"/><line style="stroke:#000000;stroke-width:1.5;fill:none;" x1="173" x2="238" y1="544.6094" y2="544.6094"/><text fill="#000000" font-family="sans-serif" font-size="14" font-weight="bold" lengthAdjust="spacing" textLength="52" x="177" y="537.5332">Factory</text></g><!--MD5=[71971f99a41bb66cf321ce46bb59f738]
cluster Repository--><g id="cluster_Repository"><path d="M140.5,690 L217.5,690 A3.75,3.75 0 0 1 220,692.5 L227,713.6094 L401.5,713.6094 A2.5,2.5 0 0 1 404,716.1094 L404,840.5 A2.5,2.5 0 0 1 401.5,843 L140.5,843 A2.5,2.5 0 0 1 138,840.5 L138,692.5 A2.5,2.5 0 0 1 140.5,690 " style="stroke:#000000;stroke-width:1.5;fill:none;"/><line style="stroke:#000000;stroke-width:1.5;fill:none;" x1="138" x2="227" y1="713.6094" y2="713.6094"/><text fill="#000000" font-family="sans-serif" font-size="14" font-weight="bold" lengthAdjust="spacing" textLength="76" x="142" y="706.5332">Repository</text></g><!--MD5=[f7f2442ac648ca55478821656344606c]
class DispatchOrderUI--><g id="elem_DispatchOrderUI"><rect codeLine="4" fill="#F1F1F1" height="48" id="DispatchOrderUI" rx="2.5" ry="2.5" style="stroke:#181818;stroke-width:0.5;" width="136" x="83" y="42"/><ellipse cx="98" cy="58" fill="#ADD1B2" rx="11" ry="11" style="stroke:#181818;stroke-width:1.0;"/><path d="M100,54.5 Q100.2031,54 100.4375,53.75 Q100.6719,53.5 100.9375,53.5 Q101.4063,53.5 101.7031,53.7813 Q102,54.0625 102,54.7188 L102,56.2813 Q102,56.9375 101.7188,57.2188 Q101.4375,57.5 101,57.5 Q100.6094,57.5 100.3594,57.3281 Q100.1094,57.1563 100,56.7031 Q99.9531,56.3906 99.7813,56.2188 Q99.4688,55.8906 98.9063,55.7031 Q98.3438,55.5 97.7813,55.5 Q97.0781,55.5 96.4844,55.7813 Q95.9063,56.0625 95.4531,56.6875 Q95,57.3125 95,58.1719 L95,59.0938 Q95,60.125 95.8438,60.8125 Q96.6875,61.5 98.1875,61.5 Q99.0781,61.5 99.7031,61.2969 Q100.0625,61.1875 100.4688,60.8281 Q100.7344,60.625 100.875,60.5625 Q101.0156,60.5 101.1875,60.5 Q101.5156,60.5 101.75,60.7656 Q102,61.0156 102,61.375 Q102,61.7188 101.6563,62.125 Q101.1563,62.7188 100.3594,63.0469 Q99.3125,63.5 98.0313,63.5 Q96.5313,63.5 95.3281,62.9063 Q94.3594,62.4375 93.6719,61.4219 Q93,60.4063 93,59.2031 L93,58.1094 Q93,56.8594 93.5938,55.7656 Q94.2031,54.6719 95.25,54.0938 Q96.3125,53.5 97.5,53.5 Q98.2188,53.5 98.8438,53.75 Q99.4688,54 100,54.5 Z " fill="#000000"/><text fill="#000000" font-family="sans-serif" font-size="14" lengthAdjust="spacing" textLength="104" x="112" y="63.7285">DispatchOrderUI</text><line style="stroke:#181818;stroke-width:0.5;" x1="84" x2="218" y1="74" y2="74"/><line style="stroke:#181818;stroke-width:0.5;" x1="84" x2="218" y1="82" y2="82"/></g><!--MD5=[18ac228186146f06f90cf81afc1dca47]
class DispatchOrderController--><g id="elem_DispatchOrderController"><rect codeLine="8" fill="#F1F1F1" height="83.2188" id="DispatchOrderController" rx="2.5" ry="2.5" style="stroke:#181818;stroke-width:0.5;" width="257" x="22.5" y="166"/><ellipse cx="69.75" cy="182" fill="#ADD1B2" rx="11" ry="11" style="stroke:#181818;stroke-width:1.0;"/><path d="M71.75,178.5 Q71.9531,178 72.1875,177.75 Q72.4219,177.5 72.6875,177.5 Q73.1563,177.5 73.4531,177.7813 Q73.75,178.0625 73.75,178.7188 L73.75,180.2813 Q73.75,180.9375 73.4688,181.2188 Q73.1875,181.5 72.75,181.5 Q72.3594,181.5 72.1094,181.3281 Q71.8594,181.1563 71.75,180.7031 Q71.7031,180.3906 71.5313,180.2188 Q71.2188,179.8906 70.6563,179.7031 Q70.0938,179.5 69.5313,179.5 Q68.8281,179.5 68.2344,179.7813 Q67.6563,180.0625 67.2031,180.6875 Q66.75,181.3125 66.75,182.1719 L66.75,183.0938 Q66.75,184.125 67.5938,184.8125 Q68.4375,185.5 69.9375,185.5 Q70.8281,185.5 71.4531,185.2969 Q71.8125,185.1875 72.2188,184.8281 Q72.4844,184.625 72.625,184.5625 Q72.7656,184.5 72.9375,184.5 Q73.2656,184.5 73.5,184.7656 Q73.75,185.0156 73.75,185.375 Q73.75,185.7188 73.4063,186.125 Q72.9063,186.7188 72.1094,187.0469 Q71.0625,187.5 69.7813,187.5 Q68.2813,187.5 67.0781,186.9063 Q66.1094,186.4375 65.4219,185.4219 Q64.75,184.4063 64.75,183.2031 L64.75,182.1094 Q64.75,180.8594 65.3438,179.7656 Q65.9531,178.6719 67,178.0938 Q68.0625,177.5 69.25,177.5 Q69.9688,177.5 70.5938,177.75 Q71.2188,178 71.75,178.5 Z " fill="#000000"/><text fill="#000000" font-family="sans-serif" font-size="14" lengthAdjust="spacing" textLength="154" x="90.25" y="187.7285">DispatchOrderController</text><line style="stroke:#181818;stroke-width:0.5;" x1="23.5" x2="278.5" y1="198" y2="198"/><line style="stroke:#181818;stroke-width:0.5;" x1="23.5" x2="278.5" y1="206" y2="206"/><text fill="#000000" font-family="sans-serif" font-size="14" lengthAdjust="spacing" textLength="245" x="28.5" y="224.5332">+getOrdersToBeReadyForPackaging()</text><text fill="#000000" font-family="sans-serif" font-size="14" lengthAdjust="spacing" textLength="159" x="28.5" y="242.1426">+changeStatus(orderdto)</text></g><!--MD5=[cbdbc9de1bbacc23837bd5178e7780ba]
class Product_Order--><g id="elem_Product_Order"><rect codeLine="15" fill="#F1F1F1" height="65.6094" id="Product_Order" rx="2.5" ry="2.5" style="stroke:#181818;stroke-width:0.5;" width="143" x="89.5" y="948"/><ellipse cx="112.15" cy="964" fill="#ADD1B2" rx="11" ry="11" style="stroke:#181818;stroke-width:1.0;"/><path d="M114.15,960.5 Q114.3531,960 114.5875,959.75 Q114.8219,959.5 115.0875,959.5 Q115.5563,959.5 115.8531,959.7813 Q116.15,960.0625 116.15,960.7188 L116.15,962.2813 Q116.15,962.9375 115.8688,963.2188 Q115.5875,963.5 115.15,963.5 Q114.7594,963.5 114.5094,963.3281 Q114.2594,963.1563 114.15,962.7031 Q114.1031,962.3906 113.9313,962.2188 Q113.6188,961.8906 113.0563,961.7031 Q112.4938,961.5 111.9313,961.5 Q111.2281,961.5 110.6344,961.7813 Q110.0563,962.0625 109.6031,962.6875 Q109.15,963.3125 109.15,964.1719 L109.15,965.0938 Q109.15,966.125 109.9938,966.8125 Q110.8375,967.5 112.3375,967.5 Q113.2281,967.5 113.8531,967.2969 Q114.2125,967.1875 114.6188,966.8281 Q114.8844,966.625 115.025,966.5625 Q115.1656,966.5 115.3375,966.5 Q115.6656,966.5 115.9,966.7656 Q116.15,967.0156 116.15,967.375 Q116.15,967.7188 115.8063,968.125 Q115.3063,968.7188 114.5094,969.0469 Q113.4625,969.5 112.1813,969.5 Q110.6813,969.5 109.4781,968.9063 Q108.5094,968.4375 107.8219,967.4219 Q107.15,966.4063 107.15,965.2031 L107.15,964.1094 Q107.15,962.8594 107.7438,961.7656 Q108.3531,960.6719 109.4,960.0938 Q110.4625,959.5 111.65,959.5 Q112.3688,959.5 112.9938,959.75 Q113.6188,960 114.15,960.5 Z " fill="#000000"/><text fill="#000000" font-family="sans-serif" font-size="14" lengthAdjust="spacing" textLength="94" x="127.85" y="969.7285">Product_Order</text><line style="stroke:#181818;stroke-width:0.5;" x1="90.5" x2="231.5" y1="980" y2="980"/><line style="stroke:#181818;stroke-width:0.5;" x1="90.5" x2="231.5" y1="988" y2="988"/><text fill="#000000" font-family="sans-serif" font-size="14" lengthAdjust="spacing" textLength="131" x="95.5" y="1006.5332">+toOrderDTO(order)</text></g><!--MD5=[e8c189551b7885b999ad7cefb30fc2a3]
class PersistenceContext--><g id="elem_PersistenceContext"><rect codeLine="22" fill="#F1F1F1" height="65.6094" id="PersistenceContext" rx="2.5" ry="2.5" style="stroke:#181818;stroke-width:0.5;" width="154" x="174" y="370"/><ellipse cx="189" cy="386" fill="#ADD1B2" rx="11" ry="11" style="stroke:#181818;stroke-width:1.0;"/><path d="M191,382.5 Q191.2031,382 191.4375,381.75 Q191.6719,381.5 191.9375,381.5 Q192.4063,381.5 192.7031,381.7813 Q193,382.0625 193,382.7188 L193,384.2813 Q193,384.9375 192.7188,385.2188 Q192.4375,385.5 192,385.5 Q191.6094,385.5 191.3594,385.3281 Q191.1094,385.1563 191,384.7031 Q190.9531,384.3906 190.7813,384.2188 Q190.4688,383.8906 189.9063,383.7031 Q189.3438,383.5 188.7813,383.5 Q188.0781,383.5 187.4844,383.7813 Q186.9063,384.0625 186.4531,384.6875 Q186,385.3125 186,386.1719 L186,387.0938 Q186,388.125 186.8438,388.8125 Q187.6875,389.5 189.1875,389.5 Q190.0781,389.5 190.7031,389.2969 Q191.0625,389.1875 191.4688,388.8281 Q191.7344,388.625 191.875,388.5625 Q192.0156,388.5 192.1875,388.5 Q192.5156,388.5 192.75,388.7656 Q193,389.0156 193,389.375 Q193,389.7188 192.6563,390.125 Q192.1563,390.7188 191.3594,391.0469 Q190.3125,391.5 189.0313,391.5 Q187.5313,391.5 186.3281,390.9063 Q185.3594,390.4375 184.6719,389.4219 Q184,388.4063 184,387.2031 L184,386.1094 Q184,384.8594 184.5938,383.7656 Q185.2031,382.6719 186.25,382.0938 Q187.3125,381.5 188.5,381.5 Q189.2188,381.5 189.8438,381.75 Q190.4688,382 191,382.5 Z " fill="#000000"/><text fill="#000000" font-family="sans-serif" font-size="14" lengthAdjust="spacing" textLength="122" x="203" y="391.7285">PersistenceContext</text><line style="stroke:#181818;stroke-width:0.5;" x1="175" x2="327" y1="402" y2="402"/><line style="stroke:#181818;stroke-width:0.5;" x1="175" x2="327" y1="410" y2="410"/><text fill="#000000" font-family="sans-serif" font-size="14" lengthAdjust="spacing" textLength="92" x="180" y="428.5332">+repositories()</text></g><!--MD5=[48590afff58a68e2fcba47824d6f8a11]
class RepositoryFactory--><g id="elem_RepositoryFactory"><rect codeLine="28" fill="#F1F1F1" height="48" id="RepositoryFactory" rx="2.5" ry="2.5" style="stroke:#181818;stroke-width:0.5;" width="148" x="189" y="557"/><ellipse cx="204" cy="573" fill="#ADD1B2" rx="11" ry="11" style="stroke:#181818;stroke-width:1.0;"/><path d="M206,569.5 Q206.2031,569 206.4375,568.75 Q206.6719,568.5 206.9375,568.5 Q207.4063,568.5 207.7031,568.7813 Q208,569.0625 208,569.7188 L208,571.2813 Q208,571.9375 207.7188,572.2188 Q207.4375,572.5 207,572.5 Q206.6094,572.5 206.3594,572.3281 Q206.1094,572.1563 206,571.7031 Q205.9531,571.3906 205.7813,571.2188 Q205.4688,570.8906 204.9063,570.7031 Q204.3438,570.5 203.7813,570.5 Q203.0781,570.5 202.4844,570.7813 Q201.9063,571.0625 201.4531,571.6875 Q201,572.3125 201,573.1719 L201,574.0938 Q201,575.125 201.8438,575.8125 Q202.6875,576.5 204.1875,576.5 Q205.0781,576.5 205.7031,576.2969 Q206.0625,576.1875 206.4688,575.8281 Q206.7344,575.625 206.875,575.5625 Q207.0156,575.5 207.1875,575.5 Q207.5156,575.5 207.75,575.7656 Q208,576.0156 208,576.375 Q208,576.7188 207.6563,577.125 Q207.1563,577.7188 206.3594,578.0469 Q205.3125,578.5 204.0313,578.5 Q202.5313,578.5 201.3281,577.9063 Q200.3594,577.4375 199.6719,576.4219 Q199,575.4063 199,574.2031 L199,573.1094 Q199,571.8594 199.5938,570.7656 Q200.2031,569.6719 201.25,569.0938 Q202.3125,568.5 203.5,568.5 Q204.2188,568.5 204.8438,568.75 Q205.4688,569 206,569.5 Z " fill="#000000"/><text fill="#000000" font-family="sans-serif" font-size="14" lengthAdjust="spacing" textLength="116" x="218" y="578.7285">RepositoryFactory</text><line style="stroke:#181818;stroke-width:0.5;" x1="190" x2="336" y1="589" y2="589"/><line style="stroke:#181818;stroke-width:0.5;" x1="190" x2="336" y1="597" y2="597"/></g><!--MD5=[708e328039b60d50c6285936843ac334]
class OrderRepository--><g id="elem_OrderRepository"><rect codeLine="33" fill="#F1F1F1" height="100.8281" id="OrderRepository" rx="2.5" ry="2.5" style="stroke:#181818;stroke-width:0.5;" width="234" x="154" y="726"/><ellipse cx="214.25" cy="742" fill="#ADD1B2" rx="11" ry="11" style="stroke:#181818;stroke-width:1.0;"/><path d="M216.25,738.5 Q216.4531,738 216.6875,737.75 Q216.9219,737.5 217.1875,737.5 Q217.6563,737.5 217.9531,737.7813 Q218.25,738.0625 218.25,738.7188 L218.25,740.2813 Q218.25,740.9375 217.9688,741.2188 Q217.6875,741.5 217.25,741.5 Q216.8594,741.5 216.6094,741.3281 Q216.3594,741.1563 216.25,740.7031 Q216.2031,740.3906 216.0313,740.2188 Q215.7188,739.8906 215.1563,739.7031 Q214.5938,739.5 214.0313,739.5 Q213.3281,739.5 212.7344,739.7813 Q212.1563,740.0625 211.7031,740.6875 Q211.25,741.3125 211.25,742.1719 L211.25,743.0938 Q211.25,744.125 212.0938,744.8125 Q212.9375,745.5 214.4375,745.5 Q215.3281,745.5 215.9531,745.2969 Q216.3125,745.1875 216.7188,744.8281 Q216.9844,744.625 217.125,744.5625 Q217.2656,744.5 217.4375,744.5 Q217.7656,744.5 218,744.7656 Q218.25,745.0156 218.25,745.375 Q218.25,745.7188 217.9063,746.125 Q217.4063,746.7188 216.6094,747.0469 Q215.5625,747.5 214.2813,747.5 Q212.7813,747.5 211.5781,746.9063 Q210.6094,746.4375 209.9219,745.4219 Q209.25,744.4063 209.25,743.2031 L209.25,742.1094 Q209.25,740.8594 209.8438,739.7656 Q210.4531,738.6719 211.5,738.0938 Q212.5625,737.5 213.75,737.5 Q214.4688,737.5 215.0938,737.75 Q215.7188,738 216.25,738.5 Z " fill="#000000"/><text fill="#000000" font-family="sans-serif" font-size="14" lengthAdjust="spacing" textLength="105" x="234.75" y="747.7285">OrderRepository</text><line style="stroke:#181818;stroke-width:0.5;" x1="155" x2="387" y1="758" y2="758"/><line style="stroke:#181818;stroke-width:0.5;" x1="155" x2="387" y1="766" y2="766"/><text fill="#000000" font-family="sans-serif" font-size="14" lengthAdjust="spacing" textLength="222" x="160" y="784.5332">+findAllOrderReadyForPackaging()</text><text fill="#000000" font-family="sans-serif" font-size="14" lengthAdjust="spacing" textLength="128" x="160" y="802.1426">+findOrderWithid(id)</text><text fill="#000000" font-family="sans-serif" font-size="14" lengthAdjust="spacing" textLength="82" x="160" y="819.752">+save(order)</text></g><!--MD5=[1b38e21261a9c15376add097cd9f7b61]
link DispatchOrderUI to DispatchOrderController--><g id="link_DispatchOrderUI_DispatchOrderController"><path codeLine="40" d="M151,90.04 C151,109.17 151,136.99 151,160.64 " fill="none" id="DispatchOrderUI-to-DispatchOrderController" style="stroke:#181818;stroke-width:1.0;stroke-dasharray:7.0,7.0;"/><polygon fill="#181818" points="151,165.93,155,156.93,151,160.93,147,156.93,151,165.93" style="stroke:#181818;stroke-width:1.0;"/></g><!--MD5=[a77c953fe9edef28be22f014b9aa77c9]
link DispatchOrderController to PersistenceContext--><g id="link_DispatchOrderController_PersistenceContext"><path codeLine="41" d="M171.96,249.06 C189.65,283.29 214.75,331.86 231.89,365.03 " fill="none" id="DispatchOrderController-to-PersistenceContext" style="stroke:#181818;stroke-width:1.0;stroke-dasharray:7.0,7.0;"/><polygon fill="#181818" points="234.36,369.81,233.7746,359.9786,232.0613,365.3697,226.6702,363.6564,234.36,369.81" style="stroke:#181818;stroke-width:1.0;"/></g><!--MD5=[754b775031405e096442b27febffa290]
link PersistenceContext to RepositoryFactory--><g id="link_PersistenceContext_RepositoryFactory"><path codeLine="42" d="M253.2,436.28 C255.45,469.3 258.92,520.11 261.07,551.63 " fill="none" id="PersistenceContext-to-RepositoryFactory" style="stroke:#181818;stroke-width:1.0;stroke-dasharray:7.0,7.0;"/><polygon fill="#181818" points="261.43,556.9,264.8031,547.6468,261.087,551.9118,256.822,548.1956,261.43,556.9" style="stroke:#181818;stroke-width:1.0;"/></g><!--MD5=[4961dc0a1f38b4bb8bde6c7779428d74]
link RepositoryFactory to OrderRepository--><g id="link_RepositoryFactory_OrderRepository"><path codeLine="43" d="M263.96,605.34 C265.14,633.72 267.16,682.54 268.73,720.63 " fill="none" id="RepositoryFactory-to-OrderRepository" style="stroke:#181818;stroke-width:1.0;stroke-dasharray:7.0,7.0;"/><polygon fill="#181818" points="268.94,725.69,272.5498,716.5265,268.7253,720.6946,264.5572,716.8701,268.94,725.69" style="stroke:#181818;stroke-width:1.0;"/></g><!--MD5=[f31dda91a4320b0760ffb974baa63960]
link OrderRepository to Product_Order--><g id="link_OrderRepository_Product_Order"><path codeLine="44" d="M244.09,827.04 C224.63,862.86 198.76,910.49 181.08,943.03 " fill="none" id="OrderRepository-to-Product_Order" style="stroke:#181818;stroke-width:1.0;stroke-dasharray:7.0,7.0;"/><polygon fill="#181818" points="178.54,947.71,186.3544,941.7154,180.9292,943.3178,179.3269,937.8926,178.54,947.71" style="stroke:#181818;stroke-width:1.0;"/></g><!--MD5=[cd7487c4a774213a3292c5e7484a6fa5]
link DispatchOrderController to Product_Order--><g id="link_DispatchOrderController_Product_Order"><path codeLine="45" d="M134.07,249.23 C119.57,287.86 101,347.87 101,402 C101,402 101,402 101,777.5 C101,837.4 125.43,903.31 143.11,943.17 " fill="none" id="DispatchOrderController-to-Product_Order" style="stroke:#181818;stroke-width:1.0;stroke-dasharray:7.0,7.0;"/><polygon fill="#181818" points="145.24,947.9,145.22,938.0512,143.2,943.3351,137.9161,941.3151,145.24,947.9" style="stroke:#181818;stroke-width:1.0;"/></g><!--MD5=[015ed9cac2da11c6fcb2c2b52c7c6b7c]
@startuml
skinparam classAttributeIconSize 0

package "Presentation"{
class DispatchOrderUI
}

package "Application"{
class DispatchOrderController{
+getOrdersToBeReadyForPackaging()
+changeStatus(orderdto)
}
}

package "Domain"{
class Product_Order{
+toOrderDTO(order)
}
}


package "Persistence"{
class PersistenceContext{
+repositories()
}
}

package "Factory"{
class RepositoryFactory{
}
}

package "Repository"{
class OrderRepository{
+findAllOrderReadyForPackaging()
+findOrderWithid(id)
+save(order)
}

}
DispatchOrderUI .-> DispatchOrderController
DispatchOrderController .- -> PersistenceContext
PersistenceContext .- -> RepositoryFactory
RepositoryFactory .- -> OrderRepository
OrderRepository .- -> Product_Order
DispatchOrderController .- -> Product_Order


@enduml

PlantUML version 1.2022.4(Sat Apr 09 14:29:17 BST 2022)
(GPL source distribution)
Java Runtime: OpenJDK Runtime Environment
JVM: OpenJDK 64-Bit Server VM
Default Encoding: Cp1252
Language: pt
Country: PT
--></g></svg>