<?xml version="1.0" encoding="UTF-8" standalone="no"?><svg xmlns="http://www.w3.org/2000/svg" xmlns:xlink="http://www.w3.org/1999/xlink" contentStyleType="text/css" height="922px" preserveAspectRatio="none" style="width:236px;height:922px;background:#FFFFFF;" version="1.1" viewBox="0 0 236 922" width="236px" zoomAndPan="magnify"><defs/><g><!--MD5=[ee08e984e4ca77f785f2ed59227c7356]
cluster AGVManager--><g id="cluster_AGVManager"><path d="M8.5,6 L100.5,6 A3.75,3.75 0 0 1 103,8.5 L110,29.6094 L151.5,29.6094 A2.5,2.5 0 0 1 154,32.1094 L154,189.5 A2.5,2.5 0 0 1 151.5,192 L8.5,192 A2.5,2.5 0 0 1 6,189.5 L6,8.5 A2.5,2.5 0 0 1 8.5,6 " style="stroke:#000000;stroke-width:1.5;fill:none;"/><line style="stroke:#000000;stroke-width:1.5;fill:none;" x1="6" x2="110" y1="29.6094" y2="29.6094"/><text fill="#000000" font-family="sans-serif" font-size="14" font-weight="bold" lengthAdjust="spacing" textLength="91" x="10" y="22.5332">AGVManager</text></g><!--MD5=[4b7a55d430ce43d42ce9ebad9e6b4010]
cluster console--><g id="cluster_console"><path d="M32.5,50 L89.5,50 A3.75,3.75 0 0 1 92,52.5 L99,73.6094 L127.5,73.6094 A2.5,2.5 0 0 1 130,76.1094 L130,165.5 A2.5,2.5 0 0 1 127.5,168 L32.5,168 A2.5,2.5 0 0 1 30,165.5 L30,52.5 A2.5,2.5 0 0 1 32.5,50 " style="stroke:#000000;stroke-width:1.5;fill:none;"/><line style="stroke:#000000;stroke-width:1.5;fill:none;" x1="30" x2="99" y1="73.6094" y2="73.6094"/><text fill="#000000" font-family="sans-serif" font-size="14" font-weight="bold" lengthAdjust="spacing" textLength="56" x="34" y="66.5332">console</text></g><!--MD5=[121a8bf1197281ab89ed693fab589f94]
cluster Domain--><g id="cluster_Domain"><path d="M18.5,815 L71.5,815 A3.75,3.75 0 0 1 74,817.5 L81,838.6094 L107.5,838.6094 A2.5,2.5 0 0 1 110,841.1094 L110,912.5 A2.5,2.5 0 0 1 107.5,915 L18.5,915 A2.5,2.5 0 0 1 16,912.5 L16,817.5 A2.5,2.5 0 0 1 18.5,815 " style="stroke:#000000;stroke-width:1.5;fill:none;"/><line style="stroke:#000000;stroke-width:1.5;fill:none;" x1="16" x2="81" y1="838.6094" y2="838.6094"/><text fill="#000000" font-family="sans-serif" font-size="14" font-weight="bold" lengthAdjust="spacing" textLength="52" x="20" y="831.5332">Domain</text></g><!--MD5=[bc6b40dadbf86ab6a0c8405a467a48af]
cluster Persistence--><g id="cluster_Persistence"><path d="M45.5,237 L130.5,237 A3.75,3.75 0 0 1 133,239.5 L140,260.6094 L226.5,260.6094 A2.5,2.5 0 0 1 229,263.1094 L229,352.5 A2.5,2.5 0 0 1 226.5,355 L45.5,355 A2.5,2.5 0 0 1 43,352.5 L43,239.5 A2.5,2.5 0 0 1 45.5,237 " style="stroke:#000000;stroke-width:1.5;fill:none;"/><line style="stroke:#000000;stroke-width:1.5;fill:none;" x1="43" x2="140" y1="260.6094" y2="260.6094"/><text fill="#000000" font-family="sans-serif" font-size="14" font-weight="bold" lengthAdjust="spacing" textLength="84" x="47" y="253.5332">Persistence</text></g><!--MD5=[0d5799440b3bfefd92b00abfcd2c79b9]
cluster Factory--><g id="cluster_Factory"><path d="M46.5,424 L99.5,424 A3.75,3.75 0 0 1 102,426.5 L109,447.6094 L221.5,447.6094 A2.5,2.5 0 0 1 224,450.1094 L224,539.5 A2.5,2.5 0 0 1 221.5,542 L46.5,542 A2.5,2.5 0 0 1 44,539.5 L44,426.5 A2.5,2.5 0 0 1 46.5,424 " style="stroke:#000000;stroke-width:1.5;fill:none;"/><line style="stroke:#000000;stroke-width:1.5;fill:none;" x1="44" x2="109" y1="447.6094" y2="447.6094"/><text fill="#000000" font-family="sans-serif" font-size="14" font-weight="bold" lengthAdjust="spacing" textLength="52" x="48" y="440.5332">Factory</text></g><!--MD5=[71971f99a41bb66cf321ce46bb59f738]
cluster Repository--><g id="cluster_Repository"><path d="M49.5,611 L126.5,611 A3.75,3.75 0 0 1 129,613.5 L136,634.6094 L206.5,634.6094 A2.5,2.5 0 0 1 209,637.1094 L209,743.5 A2.5,2.5 0 0 1 206.5,746 L49.5,746 A2.5,2.5 0 0 1 47,743.5 L47,613.5 A2.5,2.5 0 0 1 49.5,611 " style="stroke:#000000;stroke-width:1.5;fill:none;"/><line style="stroke:#000000;stroke-width:1.5;fill:none;" x1="47" x2="136" y1="634.6094" y2="634.6094"/><text fill="#000000" font-family="sans-serif" font-size="14" font-weight="bold" lengthAdjust="spacing" textLength="76" x="51" y="627.5332">Repository</text></g><!--MD5=[bb343e6f985688bd29b45596ea553794]
class HTTP--><g id="elem_HTTP"><rect codeLine="6" fill="#F1F1F1" height="65.6094" id="HTTP" rx="2.5" ry="2.5" style="stroke:#181818;stroke-width:0.5;" width="68" x="46" y="86"/><ellipse cx="61" cy="102" fill="#ADD1B2" rx="11" ry="11" style="stroke:#181818;stroke-width:1.0;"/><path d="M63,98.5 Q63.2031,98 63.4375,97.75 Q63.6719,97.5 63.9375,97.5 Q64.4063,97.5 64.7031,97.7813 Q65,98.0625 65,98.7188 L65,100.2813 Q65,100.9375 64.7188,101.2188 Q64.4375,101.5 64,101.5 Q63.6094,101.5 63.3594,101.3281 Q63.1094,101.1563 63,100.7031 Q62.9531,100.3906 62.7813,100.2188 Q62.4688,99.8906 61.9063,99.7031 Q61.3438,99.5 60.7813,99.5 Q60.0781,99.5 59.4844,99.7813 Q58.9063,100.0625 58.4531,100.6875 Q58,101.3125 58,102.1719 L58,103.0938 Q58,104.125 58.8438,104.8125 Q59.6875,105.5 61.1875,105.5 Q62.0781,105.5 62.7031,105.2969 Q63.0625,105.1875 63.4688,104.8281 Q63.7344,104.625 63.875,104.5625 Q64.0156,104.5 64.1875,104.5 Q64.5156,104.5 64.75,104.7656 Q65,105.0156 65,105.375 Q65,105.7188 64.6563,106.125 Q64.1563,106.7188 63.3594,107.0469 Q62.3125,107.5 61.0313,107.5 Q59.5313,107.5 58.3281,106.9063 Q57.3594,106.4375 56.6719,105.4219 Q56,104.4063 56,103.2031 L56,102.1094 Q56,100.8594 56.5938,99.7656 Q57.2031,98.6719 58.25,98.0938 Q59.3125,97.5 60.5,97.5 Q61.2188,97.5 61.8438,97.75 Q62.4688,98 63,98.5 Z " fill="#000000"/><text fill="#000000" font-family="sans-serif" font-size="14" lengthAdjust="spacing" textLength="36" x="75" y="107.7285">HTTP</text><line style="stroke:#181818;stroke-width:0.5;" x1="47" x2="113" y1="118" y2="118"/><line style="stroke:#181818;stroke-width:0.5;" x1="47" x2="113" y1="126" y2="126"/><text fill="#000000" font-family="sans-serif" font-size="14" lengthAdjust="spacing" textLength="48" x="52" y="144.5332">+main()</text></g><!--MD5=[53b2c06ade5903185ca3326dce80e141]
class AGV--><g id="elem_AGV"><rect codeLine="14" fill="#F1F1F1" height="48" id="AGV" rx="2.5" ry="2.5" style="stroke:#181818;stroke-width:0.5;" width="61" x="32.5" y="851"/><ellipse cx="47.5" cy="867" fill="#ADD1B2" rx="11" ry="11" style="stroke:#181818;stroke-width:1.0;"/><path d="M49.5,863.5 Q49.7031,863 49.9375,862.75 Q50.1719,862.5 50.4375,862.5 Q50.9063,862.5 51.2031,862.7813 Q51.5,863.0625 51.5,863.7188 L51.5,865.2813 Q51.5,865.9375 51.2188,866.2188 Q50.9375,866.5 50.5,866.5 Q50.1094,866.5 49.8594,866.3281 Q49.6094,866.1563 49.5,865.7031 Q49.4531,865.3906 49.2813,865.2188 Q48.9688,864.8906 48.4063,864.7031 Q47.8438,864.5 47.2813,864.5 Q46.5781,864.5 45.9844,864.7813 Q45.4063,865.0625 44.9531,865.6875 Q44.5,866.3125 44.5,867.1719 L44.5,868.0938 Q44.5,869.125 45.3438,869.8125 Q46.1875,870.5 47.6875,870.5 Q48.5781,870.5 49.2031,870.2969 Q49.5625,870.1875 49.9688,869.8281 Q50.2344,869.625 50.375,869.5625 Q50.5156,869.5 50.6875,869.5 Q51.0156,869.5 51.25,869.7656 Q51.5,870.0156 51.5,870.375 Q51.5,870.7188 51.1563,871.125 Q50.6563,871.7188 49.8594,872.0469 Q48.8125,872.5 47.5313,872.5 Q46.0313,872.5 44.8281,871.9063 Q43.8594,871.4375 43.1719,870.4219 Q42.5,869.4063 42.5,868.2031 L42.5,867.1094 Q42.5,865.8594 43.0938,864.7656 Q43.7031,863.6719 44.75,863.0938 Q45.8125,862.5 47,862.5 Q47.7188,862.5 48.3438,862.75 Q48.9688,863 49.5,863.5 Z " fill="#000000"/><text fill="#000000" font-family="sans-serif" font-size="14" lengthAdjust="spacing" textLength="29" x="61.5" y="872.7285">AGV</text><line style="stroke:#181818;stroke-width:0.5;" x1="33.5" x2="92.5" y1="883" y2="883"/><line style="stroke:#181818;stroke-width:0.5;" x1="33.5" x2="92.5" y1="891" y2="891"/></g><!--MD5=[e8c189551b7885b999ad7cefb30fc2a3]
class PersistenceContext--><g id="elem_PersistenceContext"><rect codeLine="20" fill="#F1F1F1" height="65.6094" id="PersistenceContext" rx="2.5" ry="2.5" style="stroke:#181818;stroke-width:0.5;" width="154" x="59" y="273"/><ellipse cx="74" cy="289" fill="#ADD1B2" rx="11" ry="11" style="stroke:#181818;stroke-width:1.0;"/><path d="M76,285.5 Q76.2031,285 76.4375,284.75 Q76.6719,284.5 76.9375,284.5 Q77.4063,284.5 77.7031,284.7813 Q78,285.0625 78,285.7188 L78,287.2813 Q78,287.9375 77.7188,288.2188 Q77.4375,288.5 77,288.5 Q76.6094,288.5 76.3594,288.3281 Q76.1094,288.1563 76,287.7031 Q75.9531,287.3906 75.7813,287.2188 Q75.4688,286.8906 74.9063,286.7031 Q74.3438,286.5 73.7813,286.5 Q73.0781,286.5 72.4844,286.7813 Q71.9063,287.0625 71.4531,287.6875 Q71,288.3125 71,289.1719 L71,290.0938 Q71,291.125 71.8438,291.8125 Q72.6875,292.5 74.1875,292.5 Q75.0781,292.5 75.7031,292.2969 Q76.0625,292.1875 76.4688,291.8281 Q76.7344,291.625 76.875,291.5625 Q77.0156,291.5 77.1875,291.5 Q77.5156,291.5 77.75,291.7656 Q78,292.0156 78,292.375 Q78,292.7188 77.6563,293.125 Q77.1563,293.7188 76.3594,294.0469 Q75.3125,294.5 74.0313,294.5 Q72.5313,294.5 71.3281,293.9063 Q70.3594,293.4375 69.6719,292.4219 Q69,291.4063 69,290.2031 L69,289.1094 Q69,287.8594 69.5938,286.7656 Q70.2031,285.6719 71.25,285.0938 Q72.3125,284.5 73.5,284.5 Q74.2188,284.5 74.8438,284.75 Q75.4688,285 76,285.5 Z " fill="#000000"/><text fill="#000000" font-family="sans-serif" font-size="14" lengthAdjust="spacing" textLength="122" x="88" y="294.7285">PersistenceContext</text><line style="stroke:#181818;stroke-width:0.5;" x1="60" x2="212" y1="305" y2="305"/><line style="stroke:#181818;stroke-width:0.5;" x1="60" x2="212" y1="313" y2="313"/><text fill="#000000" font-family="sans-serif" font-size="14" lengthAdjust="spacing" textLength="92" x="65" y="331.5332">+repositories()</text></g><!--MD5=[48590afff58a68e2fcba47824d6f8a11]
class RepositoryFactory--><g id="elem_RepositoryFactory"><rect codeLine="26" fill="#F1F1F1" height="65.6094" id="RepositoryFactory" rx="2.5" ry="2.5" style="stroke:#181818;stroke-width:0.5;" width="148" x="60" y="460"/><ellipse cx="75" cy="476" fill="#ADD1B2" rx="11" ry="11" style="stroke:#181818;stroke-width:1.0;"/><path d="M77,472.5 Q77.2031,472 77.4375,471.75 Q77.6719,471.5 77.9375,471.5 Q78.4063,471.5 78.7031,471.7813 Q79,472.0625 79,472.7188 L79,474.2813 Q79,474.9375 78.7188,475.2188 Q78.4375,475.5 78,475.5 Q77.6094,475.5 77.3594,475.3281 Q77.1094,475.1563 77,474.7031 Q76.9531,474.3906 76.7813,474.2188 Q76.4688,473.8906 75.9063,473.7031 Q75.3438,473.5 74.7813,473.5 Q74.0781,473.5 73.4844,473.7813 Q72.9063,474.0625 72.4531,474.6875 Q72,475.3125 72,476.1719 L72,477.0938 Q72,478.125 72.8438,478.8125 Q73.6875,479.5 75.1875,479.5 Q76.0781,479.5 76.7031,479.2969 Q77.0625,479.1875 77.4688,478.8281 Q77.7344,478.625 77.875,478.5625 Q78.0156,478.5 78.1875,478.5 Q78.5156,478.5 78.75,478.7656 Q79,479.0156 79,479.375 Q79,479.7188 78.6563,480.125 Q78.1563,480.7188 77.3594,481.0469 Q76.3125,481.5 75.0313,481.5 Q73.5313,481.5 72.3281,480.9063 Q71.3594,480.4375 70.6719,479.4219 Q70,478.4063 70,477.2031 L70,476.1094 Q70,474.8594 70.5938,473.7656 Q71.2031,472.6719 72.25,472.0938 Q73.3125,471.5 74.5,471.5 Q75.2188,471.5 75.8438,471.75 Q76.4688,472 77,472.5 Z " fill="#000000"/><text fill="#000000" font-family="sans-serif" font-size="14" lengthAdjust="spacing" textLength="116" x="89" y="481.7285">RepositoryFactory</text><line style="stroke:#181818;stroke-width:0.5;" x1="61" x2="207" y1="492" y2="492"/><line style="stroke:#181818;stroke-width:0.5;" x1="61" x2="207" y1="500" y2="500"/><text fill="#000000" font-family="sans-serif" font-size="14" lengthAdjust="spacing" textLength="58" x="66" y="518.5332">+create()</text></g><!--MD5=[a2934c79e3adc781b0cd87c74812aba5]
class AGVRepository--><g id="elem_AGVRepository"><rect codeLine="32" fill="#F1F1F1" height="83.2188" id="AGVRepository" rx="2.5" ry="2.5" style="stroke:#181818;stroke-width:0.5;" width="129" x="63.5" y="647"/><ellipse cx="78.5" cy="663" fill="#ADD1B2" rx="11" ry="11" style="stroke:#181818;stroke-width:1.0;"/><path d="M80.5,659.5 Q80.7031,659 80.9375,658.75 Q81.1719,658.5 81.4375,658.5 Q81.9063,658.5 82.2031,658.7813 Q82.5,659.0625 82.5,659.7188 L82.5,661.2813 Q82.5,661.9375 82.2188,662.2188 Q81.9375,662.5 81.5,662.5 Q81.1094,662.5 80.8594,662.3281 Q80.6094,662.1563 80.5,661.7031 Q80.4531,661.3906 80.2813,661.2188 Q79.9688,660.8906 79.4063,660.7031 Q78.8438,660.5 78.2813,660.5 Q77.5781,660.5 76.9844,660.7813 Q76.4063,661.0625 75.9531,661.6875 Q75.5,662.3125 75.5,663.1719 L75.5,664.0938 Q75.5,665.125 76.3438,665.8125 Q77.1875,666.5 78.6875,666.5 Q79.5781,666.5 80.2031,666.2969 Q80.5625,666.1875 80.9688,665.8281 Q81.2344,665.625 81.375,665.5625 Q81.5156,665.5 81.6875,665.5 Q82.0156,665.5 82.25,665.7656 Q82.5,666.0156 82.5,666.375 Q82.5,666.7188 82.1563,667.125 Q81.6563,667.7188 80.8594,668.0469 Q79.8125,668.5 78.5313,668.5 Q77.0313,668.5 75.8281,667.9063 Q74.8594,667.4375 74.1719,666.4219 Q73.5,665.4063 73.5,664.2031 L73.5,663.1094 Q73.5,661.8594 74.0938,660.7656 Q74.7031,659.6719 75.75,659.0938 Q76.8125,658.5 78,658.5 Q78.7188,658.5 79.3438,658.75 Q79.9688,659 80.5,659.5 Z " fill="#000000"/><text fill="#000000" font-family="sans-serif" font-size="14" lengthAdjust="spacing" textLength="97" x="92.5" y="668.7285">AGVRepository</text><line style="stroke:#181818;stroke-width:0.5;" x1="64.5" x2="191.5" y1="679" y2="679"/><line style="stroke:#181818;stroke-width:0.5;" x1="64.5" x2="191.5" y1="687" y2="687"/><text fill="#000000" font-family="sans-serif" font-size="14" lengthAdjust="spacing" textLength="58" x="69.5" y="705.5332">+create()</text><text fill="#000000" font-family="sans-serif" font-size="14" lengthAdjust="spacing" textLength="85" x="69.5" y="723.1426">+findAllAGV()</text></g><!--MD5=[fea881749e553e53396a3094311087f2]
link HTTP to PersistenceContext--><g id="link_HTTP_PersistenceContext"><path codeLine="38" d="M89.75,152.22 C99.52,184.49 114.53,234.09 124.79,267.96 " fill="none" id="HTTP-to-PersistenceContext" style="stroke:#181818;stroke-width:1.0;stroke-dasharray:7.0,7.0;"/><polygon fill="#181818" points="126.26,272.83,127.4651,263.0551,124.8036,268.0468,119.812,265.3853,126.26,272.83" style="stroke:#181818;stroke-width:1.0;"/></g><!--MD5=[754b775031405e096442b27febffa290]
link PersistenceContext to RepositoryFactory--><g id="link_PersistenceContext_RepositoryFactory"><path codeLine="39" d="M135.65,339.22 C135.3,371.36 134.77,420.68 134.4,454.54 " fill="none" id="PersistenceContext-to-RepositoryFactory" style="stroke:#181818;stroke-width:1.0;stroke-dasharray:7.0,7.0;"/><polygon fill="#181818" points="134.35,459.83,138.427,450.8646,134.3929,454.8302,130.4273,450.796,134.35,459.83" style="stroke:#181818;stroke-width:1.0;"/></g><!--MD5=[d05eaea78b8765320ad56e3795dd7d42]
link RepositoryFactory to AGVRepository--><g id="link_RepositoryFactory_AGVRepository"><path codeLine="40" d="M133,526.39 C132.02,557.97 130.52,606.3 129.42,641.79 " fill="none" id="RepositoryFactory-to-AGVRepository" style="stroke:#181818;stroke-width:1.0;stroke-dasharray:7.0,7.0;"/><polygon fill="#181818" points="129.26,646.93,133.5407,638.0601,129.4171,641.9325,125.5447,637.8088,129.26,646.93" style="stroke:#181818;stroke-width:1.0;"/></g><!--MD5=[983f90f3fe3c8d57f5c11d944cae204f]
link HTTP to AGV--><g id="link_HTTP_AGV"><path codeLine="41" d="M58.4,152.2 C36.56,187.93 6,248.1 6,305 C6,305 6,305 6,689.5 C6,747.25 31.81,810.82 48.69,846.23 " fill="none" id="HTTP-to-AGV" style="stroke:#181818;stroke-width:1.0;stroke-dasharray:7.0,7.0;"/><polygon fill="#181818" points="50.91,850.83,50.6134,840.9856,48.7426,846.3242,43.4041,844.4534,50.91,850.83" style="stroke:#181818;stroke-width:1.0;"/></g><!--MD5=[44c78d46300cbd445cde51c8cf6651a2]
link AGVRepository to AGV--><g id="link_AGVRepository_AGV"><path codeLine="42" d="M113.57,730.45 C101.18,765.62 83.65,815.37 72.82,846.12 " fill="none" id="AGVRepository-to-AGV" style="stroke:#181818;stroke-width:1.0;stroke-dasharray:7.0,7.0;"/><polygon fill="#181818" points="71.14,850.88,77.9175,843.734,72.8108,846.1674,70.3774,841.0607,71.14,850.88" style="stroke:#181818;stroke-width:1.0;"/></g><!--MD5=[f307f892fbf25dc508ca8bb95a4f1098]
@startuml
skinparam classAttributeIconSize 0


package "AGVManager"{
package "console"{
class HTTP{
+main()
}
}
}


package "Domain"{
class AGV{
}
}


package "Persistence"{
class PersistenceContext{
+repositories()
}
}

package "Factory"{
class RepositoryFactory{
+create()
}
}

package "Repository"{
class AGVRepository{
+create()
+findAllAGV()
}
}

HTTP .- -> PersistenceContext
PersistenceContext .- -> RepositoryFactory
RepositoryFactory .- -> AGVRepository
HTTP .- -> AGV
AGVRepository .- -> AGV


@enduml

PlantUML version 1.2022.4(Sat Apr 09 14:29:17 BST 2022)
(GPL source distribution)
Java Runtime: OpenJDK Runtime Environment
JVM: OpenJDK 64-Bit Server VM
Default Encoding: Cp1252
Language: pt
Country: PT
--></g></svg>