<?xml version="1.0" encoding="UTF-8" standalone="no"?><svg xmlns="http://www.w3.org/2000/svg" xmlns:xlink="http://www.w3.org/1999/xlink" contentScriptType="application/ecmascript" contentStyleType="text/css" height="1208px" preserveAspectRatio="none" style="width:765px;height:1208px;background:#FFFFFF;" version="1.1" viewBox="0 0 765 1208" width="765px" zoomAndPan="magnify"><defs><filter height="300%" id="f1agqbf4pz59k0" width="300%" x="-1" y="-1"><feGaussianBlur result="blurOut" stdDeviation="2.0"/><feColorMatrix in="blurOut" result="blurOut2" type="matrix" values="0 0 0 0 0 0 0 0 0 0 0 0 0 0 0 0 0 0 .4 0"/><feOffset dx="4.0" dy="4.0" in="blurOut2" result="blurOut3"/><feBlend in="SourceGraphic" in2="blurOut3" mode="normal"/></filter></defs><g><!--MD5=[8fd473fd151a2794da4f2c8684676405]
cluster Presentation--><polygon fill="#FFFFFF" filter="url(#f1agqbf4pz59k0)" points="247,6,343,6,350,29.6094,417,29.6094,417,106,247,106,247,6" style="stroke:#000000;stroke-width:1.5;"/><line style="stroke:#000000;stroke-width:1.5;" x1="247" x2="350" y1="29.6094" y2="29.6094"/><text fill="#000000" font-family="sans-serif" font-size="14" font-weight="bold" lengthAdjust="spacing" textLength="90" x="251" y="22.5332">Presentation</text><!--MD5=[d64883541e3d62e3241c4d12decf100d]
cluster Application--><polygon fill="#FFFFFF" filter="url(#f1agqbf4pz59k0)" points="177,130,261,130,268,153.6094,487,153.6094,487,258,177,258,177,130" style="stroke:#000000;stroke-width:1.5;"/><line style="stroke:#000000;stroke-width:1.5;" x1="177" x2="268" y1="153.6094" y2="153.6094"/><text fill="#000000" font-family="sans-serif" font-size="14" font-weight="bold" lengthAdjust="spacing" textLength="78" x="181" y="146.5332">Application</text><!--MD5=[7b8bc9ee8bb84b99fb3a3f9477c19238]
cluster DTO--><polygon fill="#FFFFFF" filter="url(#f1agqbf4pz59k0)" points="16,1087,51,1087,58,1110.6094,186,1110.6094,186,1187,16,1187,16,1087" style="stroke:#000000;stroke-width:1.5;"/><line style="stroke:#000000;stroke-width:1.5;" x1="16" x2="58" y1="1110.6094" y2="1110.6094"/><text fill="#000000" font-family="sans-serif" font-size="14" font-weight="bold" lengthAdjust="spacing" textLength="29" x="20" y="1103.5332">DTO</text><!--MD5=[121a8bf1197281ab89ed693fab589f94]
cluster Domain--><polygon fill="#FFFFFF" filter="url(#f1agqbf4pz59k0)" points="210,890,268,890,275,913.6094,555,913.6094,555,1201,210,1201,210,890" style="stroke:#000000;stroke-width:1.5;"/><line style="stroke:#000000;stroke-width:1.5;" x1="210" x2="275" y1="913.6094" y2="913.6094"/><text fill="#000000" font-family="sans-serif" font-size="14" font-weight="bold" lengthAdjust="spacing" textLength="52" x="214" y="906.5332">Domain</text><!--MD5=[bc6b40dadbf86ab6a0c8405a467a48af]
cluster Persistence--><polygon fill="#FFFFFF" filter="url(#f1agqbf4pz59k0)" points="321,327,411,327,418,350.6094,493,350.6094,493,441,321,441,321,327" style="stroke:#000000;stroke-width:1.5;"/><line style="stroke:#000000;stroke-width:1.5;" x1="321" x2="418" y1="350.6094" y2="350.6094"/><text fill="#000000" font-family="sans-serif" font-size="14" font-weight="bold" lengthAdjust="spacing" textLength="84" x="325" y="343.5332">Persistence</text><!--MD5=[0d5799440b3bfefd92b00abfcd2c79b9]
cluster Factory--><polygon fill="#FFFFFF" filter="url(#f1agqbf4pz59k0)" points="332,510,390,510,397,533.6094,494,533.6094,494,624,332,624,332,510" style="stroke:#000000;stroke-width:1.5;"/><line style="stroke:#000000;stroke-width:1.5;" x1="332" x2="397" y1="533.6094" y2="533.6094"/><text fill="#000000" font-family="sans-serif" font-size="14" font-weight="bold" lengthAdjust="spacing" textLength="52" x="336" y="526.5332">Factory</text><!--MD5=[71971f99a41bb66cf321ce46bb59f738]
cluster Repository--><polygon fill="#FFFFFF" filter="url(#f1agqbf4pz59k0)" points="319,693,401,693,408,716.6094,748,716.6094,748,821,319,821,319,693" style="stroke:#000000;stroke-width:1.5;"/><line style="stroke:#000000;stroke-width:1.5;" x1="319" x2="408" y1="716.6094" y2="716.6094"/><text fill="#000000" font-family="sans-serif" font-size="14" font-weight="bold" lengthAdjust="spacing" textLength="76" x="323" y="709.5332">Repository</text><!--MD5=[4be0449461100cfab55dbe3c30ef284e]
class AutoAssignOrderUI--><rect codeLine="4" fill="#FEFECE" filter="url(#f1agqbf4pz59k0)" height="48" id="AutoAssignOrderUI" style="stroke:#A80036;stroke-width:1.5;" width="137" x="263.5" y="42"/><ellipse cx="278.5" cy="58" fill="#ADD1B2" rx="11" ry="11" style="stroke:#A80036;stroke-width:1.0;"/><path d="M280.5,54.5 Q280.7031,54 280.9375,53.75 Q281.1719,53.5 281.4375,53.5 Q281.9063,53.5 282.2031,53.7813 Q282.5,54.0625 282.5,54.7188 L282.5,56.2813 Q282.5,56.9375 282.2188,57.2188 Q281.9375,57.5 281.5,57.5 Q281.1094,57.5 280.8594,57.3281 Q280.6094,57.1563 280.5,56.7031 Q280.4531,56.3906 280.2813,56.2188 Q279.9688,55.8906 279.4063,55.7031 Q278.8438,55.5 278.2813,55.5 Q277.5781,55.5 276.9844,55.7813 Q276.4063,56.0625 275.9531,56.6875 Q275.5,57.3125 275.5,58.1719 L275.5,59.0938 Q275.5,60.125 276.3438,60.8125 Q277.1875,61.5 278.6875,61.5 Q279.5781,61.5 280.2031,61.2969 Q280.5625,61.1875 280.9688,60.8281 Q281.2344,60.625 281.375,60.5625 Q281.5156,60.5 281.6875,60.5 Q282.0156,60.5 282.25,60.7656 Q282.5,61.0156 282.5,61.375 Q282.5,61.7188 282.1563,62.125 Q281.6563,62.7188 280.8594,63.0469 Q279.8125,63.5 278.5313,63.5 Q277.0313,63.5 275.8281,62.9063 Q274.8594,62.4375 274.1719,61.4219 Q273.5,60.4063 273.5,59.2031 L273.5,58.1094 Q273.5,56.8594 274.0938,55.7656 Q274.7031,54.6719 275.75,54.0938 Q276.8125,53.5 278,53.5 Q278.7188,53.5 279.3438,53.75 Q279.9688,54 280.5,54.5 Z " fill="#000000"/><text fill="#000000" font-family="sans-serif" font-size="12" lengthAdjust="spacing" textLength="105" x="292.5" y="62.9102">AutoAssignOrderUI</text><line style="stroke:#A80036;stroke-width:1.5;" x1="264.5" x2="399.5" y1="74" y2="74"/><line style="stroke:#A80036;stroke-width:1.5;" x1="264.5" x2="399.5" y1="82" y2="82"/><!--MD5=[95ed20921d01c46c2fff7cf575df3de8]
class AutoAssignOrderController--><rect codeLine="8" fill="#FEFECE" filter="url(#f1agqbf4pz59k0)" height="75.6719" id="AutoAssignOrderController" style="stroke:#A80036;stroke-width:1.5;" width="277" x="193.5" y="166"/><ellipse cx="254.25" cy="182" fill="#ADD1B2" rx="11" ry="11" style="stroke:#A80036;stroke-width:1.0;"/><path d="M256.25,178.5 Q256.4531,178 256.6875,177.75 Q256.9219,177.5 257.1875,177.5 Q257.6563,177.5 257.9531,177.7813 Q258.25,178.0625 258.25,178.7188 L258.25,180.2813 Q258.25,180.9375 257.9688,181.2188 Q257.6875,181.5 257.25,181.5 Q256.8594,181.5 256.6094,181.3281 Q256.3594,181.1563 256.25,180.7031 Q256.2031,180.3906 256.0313,180.2188 Q255.7188,179.8906 255.1563,179.7031 Q254.5938,179.5 254.0313,179.5 Q253.3281,179.5 252.7344,179.7813 Q252.1563,180.0625 251.7031,180.6875 Q251.25,181.3125 251.25,182.1719 L251.25,183.0938 Q251.25,184.125 252.0938,184.8125 Q252.9375,185.5 254.4375,185.5 Q255.3281,185.5 255.9531,185.2969 Q256.3125,185.1875 256.7188,184.8281 Q256.9844,184.625 257.125,184.5625 Q257.2656,184.5 257.4375,184.5 Q257.7656,184.5 258,184.7656 Q258.25,185.0156 258.25,185.375 Q258.25,185.7188 257.9063,186.125 Q257.4063,186.7188 256.6094,187.0469 Q255.5625,187.5 254.2813,187.5 Q252.7813,187.5 251.5781,186.9063 Q250.6094,186.4375 249.9219,185.4219 Q249.25,184.4063 249.25,183.2031 L249.25,182.1094 Q249.25,180.8594 249.8438,179.7656 Q250.4531,178.6719 251.5,178.0938 Q252.5625,177.5 253.75,177.5 Q254.4688,177.5 255.0938,177.75 Q255.7188,178 256.25,178.5 Z " fill="#000000"/><text fill="#000000" font-family="sans-serif" font-size="12" lengthAdjust="spacing" textLength="147" x="274.75" y="186.9102">AutoAssignOrderController</text><line style="stroke:#A80036;stroke-width:1.5;" x1="194.5" x2="469.5" y1="198" y2="198"/><line style="stroke:#A80036;stroke-width:1.5;" x1="194.5" x2="469.5" y1="206" y2="206"/><text fill="#000000" font-family="sans-serif" font-size="11" lengthAdjust="spacing" textLength="192" x="199.5" y="221.4189">+Product_OrderDTO autoAssignOrder()</text><text fill="#000000" font-family="sans-serif" font-size="11" lengthAdjust="spacing" textLength="265" x="199.5" y="235.2549">-Product_OrderDTO toDTOOrder(Product_Order order)</text><!--MD5=[68b6a27de51e7b3e510aa38d6256ce77]
class Product_OrderDTO--><rect codeLine="15" fill="#FEFECE" filter="url(#f1agqbf4pz59k0)" height="48" id="Product_OrderDTO" style="stroke:#A80036;stroke-width:1.5;" width="137" x="32.5" y="1123"/><ellipse cx="47.5" cy="1139" fill="#ADD1B2" rx="11" ry="11" style="stroke:#A80036;stroke-width:1.0;"/><path d="M49.5,1135.5 Q49.7031,1135 49.9375,1134.75 Q50.1719,1134.5 50.4375,1134.5 Q50.9063,1134.5 51.2031,1134.7813 Q51.5,1135.0625 51.5,1135.7188 L51.5,1137.2813 Q51.5,1137.9375 51.2188,1138.2188 Q50.9375,1138.5 50.5,1138.5 Q50.1094,1138.5 49.8594,1138.3281 Q49.6094,1138.1563 49.5,1137.7031 Q49.4531,1137.3906 49.2813,1137.2188 Q48.9688,1136.8906 48.4063,1136.7031 Q47.8438,1136.5 47.2813,1136.5 Q46.5781,1136.5 45.9844,1136.7813 Q45.4063,1137.0625 44.9531,1137.6875 Q44.5,1138.3125 44.5,1139.1719 L44.5,1140.0938 Q44.5,1141.125 45.3438,1141.8125 Q46.1875,1142.5 47.6875,1142.5 Q48.5781,1142.5 49.2031,1142.2969 Q49.5625,1142.1875 49.9688,1141.8281 Q50.2344,1141.625 50.375,1141.5625 Q50.5156,1141.5 50.6875,1141.5 Q51.0156,1141.5 51.25,1141.7656 Q51.5,1142.0156 51.5,1142.375 Q51.5,1142.7188 51.1563,1143.125 Q50.6563,1143.7188 49.8594,1144.0469 Q48.8125,1144.5 47.5313,1144.5 Q46.0313,1144.5 44.8281,1143.9063 Q43.8594,1143.4375 43.1719,1142.4219 Q42.5,1141.4063 42.5,1140.2031 L42.5,1139.1094 Q42.5,1137.8594 43.0938,1136.7656 Q43.7031,1135.6719 44.75,1135.0938 Q45.8125,1134.5 47,1134.5 Q47.7188,1134.5 48.3438,1134.75 Q48.9688,1135 49.5,1135.5 Z " fill="#000000"/><text fill="#000000" font-family="sans-serif" font-size="12" lengthAdjust="spacing" textLength="105" x="61.5" y="1143.9102">Product_OrderDTO</text><line style="stroke:#A80036;stroke-width:1.5;" x1="33.5" x2="168.5" y1="1155" y2="1155"/><line style="stroke:#A80036;stroke-width:1.5;" x1="33.5" x2="168.5" y1="1163" y2="1163"/><!--MD5=[53b2c06ade5903185ca3326dce80e141]
class AGV--><rect codeLine="21" fill="#FEFECE" filter="url(#f1agqbf4pz59k0)" height="75.6719" id="AGV" style="stroke:#A80036;stroke-width:1.5;" width="86" x="399" y="1109"/><ellipse cx="427.95" cy="1125" fill="#ADD1B2" rx="11" ry="11" style="stroke:#A80036;stroke-width:1.0;"/><path d="M429.95,1121.5 Q430.1531,1121 430.3875,1120.75 Q430.6219,1120.5 430.8875,1120.5 Q431.3563,1120.5 431.6531,1120.7813 Q431.95,1121.0625 431.95,1121.7188 L431.95,1123.2813 Q431.95,1123.9375 431.6688,1124.2188 Q431.3875,1124.5 430.95,1124.5 Q430.5594,1124.5 430.3094,1124.3281 Q430.0594,1124.1563 429.95,1123.7031 Q429.9031,1123.3906 429.7313,1123.2188 Q429.4188,1122.8906 428.8563,1122.7031 Q428.2938,1122.5 427.7313,1122.5 Q427.0281,1122.5 426.4344,1122.7813 Q425.8563,1123.0625 425.4031,1123.6875 Q424.95,1124.3125 424.95,1125.1719 L424.95,1126.0938 Q424.95,1127.125 425.7938,1127.8125 Q426.6375,1128.5 428.1375,1128.5 Q429.0281,1128.5 429.6531,1128.2969 Q430.0125,1128.1875 430.4188,1127.8281 Q430.6844,1127.625 430.825,1127.5625 Q430.9656,1127.5 431.1375,1127.5 Q431.4656,1127.5 431.7,1127.7656 Q431.95,1128.0156 431.95,1128.375 Q431.95,1128.7188 431.6063,1129.125 Q431.1063,1129.7188 430.3094,1130.0469 Q429.2625,1130.5 427.9813,1130.5 Q426.4813,1130.5 425.2781,1129.9063 Q424.3094,1129.4375 423.6219,1128.4219 Q422.95,1127.4063 422.95,1126.2031 L422.95,1125.1094 Q422.95,1123.8594 423.5438,1122.7656 Q424.1531,1121.6719 425.2,1121.0938 Q426.2625,1120.5 427.45,1120.5 Q428.1688,1120.5 428.7938,1120.75 Q429.4188,1121 429.95,1121.5 Z " fill="#000000"/><text fill="#000000" font-family="sans-serif" font-size="12" lengthAdjust="spacing" textLength="23" x="445.05" y="1129.9102">AGV</text><line style="stroke:#A80036;stroke-width:1.5;" x1="400" x2="484" y1="1141" y2="1141"/><line style="stroke:#A80036;stroke-width:1.5;" x1="400" x2="484" y1="1149" y2="1149"/><text fill="#000000" font-family="sans-serif" font-size="11" lengthAdjust="spacing" textLength="74" x="405" y="1164.4189">+occupyAGV()</text><text fill="#000000" font-family="sans-serif" font-size="11" lengthAdjust="spacing" textLength="58" x="405" y="1178.2549">+freeAGV()</text><!--MD5=[cbdbc9de1bbacc23837bd5178e7780ba]
class Product_Order--><rect codeLine="25" fill="#FEFECE" filter="url(#f1agqbf4pz59k0)" height="61.8359" id="Product_Order" style="stroke:#A80036;stroke-width:1.5;" width="112" x="226" y="926"/><ellipse cx="241" cy="942" fill="#ADD1B2" rx="11" ry="11" style="stroke:#A80036;stroke-width:1.0;"/><path d="M243,938.5 Q243.2031,938 243.4375,937.75 Q243.6719,937.5 243.9375,937.5 Q244.4063,937.5 244.7031,937.7813 Q245,938.0625 245,938.7188 L245,940.2813 Q245,940.9375 244.7188,941.2188 Q244.4375,941.5 244,941.5 Q243.6094,941.5 243.3594,941.3281 Q243.1094,941.1563 243,940.7031 Q242.9531,940.3906 242.7813,940.2188 Q242.4688,939.8906 241.9063,939.7031 Q241.3438,939.5 240.7813,939.5 Q240.0781,939.5 239.4844,939.7813 Q238.9063,940.0625 238.4531,940.6875 Q238,941.3125 238,942.1719 L238,943.0938 Q238,944.125 238.8438,944.8125 Q239.6875,945.5 241.1875,945.5 Q242.0781,945.5 242.7031,945.2969 Q243.0625,945.1875 243.4688,944.8281 Q243.7344,944.625 243.875,944.5625 Q244.0156,944.5 244.1875,944.5 Q244.5156,944.5 244.75,944.7656 Q245,945.0156 245,945.375 Q245,945.7188 244.6563,946.125 Q244.1563,946.7188 243.3594,947.0469 Q242.3125,947.5 241.0313,947.5 Q239.5313,947.5 238.3281,946.9063 Q237.3594,946.4375 236.6719,945.4219 Q236,944.4063 236,943.2031 L236,942.1094 Q236,940.8594 236.5938,939.7656 Q237.2031,938.6719 238.25,938.0938 Q239.3125,937.5 240.5,937.5 Q241.2188,937.5 241.8438,937.75 Q242.4688,938 243,938.5 Z " fill="#000000"/><text fill="#000000" font-family="sans-serif" font-size="12" lengthAdjust="spacing" textLength="80" x="255" y="946.9102">Product_Order</text><line style="stroke:#A80036;stroke-width:1.5;" x1="227" x2="337" y1="958" y2="958"/><line style="stroke:#A80036;stroke-width:1.5;" x1="227" x2="337" y1="966" y2="966"/><text fill="#000000" font-family="sans-serif" font-size="11" lengthAdjust="spacing" textLength="44" x="232" y="981.4189">+toDTO()</text><!--MD5=[c5149b4909ffd2688ff51a939867f774]
class Warehouse--><rect codeLine="28" fill="#FEFECE" filter="url(#f1agqbf4pz59k0)" height="61.8359" id="Warehouse" style="stroke:#A80036;stroke-width:1.5;" width="165" x="373.5" y="926"/><ellipse cx="419.75" cy="942" fill="#ADD1B2" rx="11" ry="11" style="stroke:#A80036;stroke-width:1.0;"/><path d="M421.75,938.5 Q421.9531,938 422.1875,937.75 Q422.4219,937.5 422.6875,937.5 Q423.1563,937.5 423.4531,937.7813 Q423.75,938.0625 423.75,938.7188 L423.75,940.2813 Q423.75,940.9375 423.4688,941.2188 Q423.1875,941.5 422.75,941.5 Q422.3594,941.5 422.1094,941.3281 Q421.8594,941.1563 421.75,940.7031 Q421.7031,940.3906 421.5313,940.2188 Q421.2188,939.8906 420.6563,939.7031 Q420.0938,939.5 419.5313,939.5 Q418.8281,939.5 418.2344,939.7813 Q417.6563,940.0625 417.2031,940.6875 Q416.75,941.3125 416.75,942.1719 L416.75,943.0938 Q416.75,944.125 417.5938,944.8125 Q418.4375,945.5 419.9375,945.5 Q420.8281,945.5 421.4531,945.2969 Q421.8125,945.1875 422.2188,944.8281 Q422.4844,944.625 422.625,944.5625 Q422.7656,944.5 422.9375,944.5 Q423.2656,944.5 423.5,944.7656 Q423.75,945.0156 423.75,945.375 Q423.75,945.7188 423.4063,946.125 Q422.9063,946.7188 422.1094,947.0469 Q421.0625,947.5 419.7813,947.5 Q418.2813,947.5 417.0781,946.9063 Q416.1094,946.4375 415.4219,945.4219 Q414.75,944.4063 414.75,943.2031 L414.75,942.1094 Q414.75,940.8594 415.3438,939.7656 Q415.9531,938.6719 417,938.0938 Q418.0625,937.5 419.25,937.5 Q419.9688,937.5 420.5938,937.75 Q421.2188,938 421.75,938.5 Z " fill="#000000"/><text fill="#000000" font-family="sans-serif" font-size="12" lengthAdjust="spacing" textLength="64" x="440.25" y="946.9102">Warehouse</text><line style="stroke:#A80036;stroke-width:1.5;" x1="374.5" x2="537.5" y1="958" y2="958"/><line style="stroke:#A80036;stroke-width:1.5;" x1="374.5" x2="537.5" y1="966" y2="966"/><text fill="#000000" font-family="sans-serif" font-size="11" lengthAdjust="spacing" textLength="153" x="379.5" y="981.4189">+Product_Order getNextOrder()</text><!--MD5=[e8c189551b7885b999ad7cefb30fc2a3]
class PersistenceContext--><rect codeLine="35" fill="#FEFECE" filter="url(#f1agqbf4pz59k0)" height="61.8359" id="PersistenceContext" style="stroke:#A80036;stroke-width:1.5;" width="139" x="337.5" y="363"/><ellipse cx="352.5" cy="379" fill="#ADD1B2" rx="11" ry="11" style="stroke:#A80036;stroke-width:1.0;"/><path d="M354.5,375.5 Q354.7031,375 354.9375,374.75 Q355.1719,374.5 355.4375,374.5 Q355.9063,374.5 356.2031,374.7813 Q356.5,375.0625 356.5,375.7188 L356.5,377.2813 Q356.5,377.9375 356.2188,378.2188 Q355.9375,378.5 355.5,378.5 Q355.1094,378.5 354.8594,378.3281 Q354.6094,378.1563 354.5,377.7031 Q354.4531,377.3906 354.2813,377.2188 Q353.9688,376.8906 353.4063,376.7031 Q352.8438,376.5 352.2813,376.5 Q351.5781,376.5 350.9844,376.7813 Q350.4063,377.0625 349.9531,377.6875 Q349.5,378.3125 349.5,379.1719 L349.5,380.0938 Q349.5,381.125 350.3438,381.8125 Q351.1875,382.5 352.6875,382.5 Q353.5781,382.5 354.2031,382.2969 Q354.5625,382.1875 354.9688,381.8281 Q355.2344,381.625 355.375,381.5625 Q355.5156,381.5 355.6875,381.5 Q356.0156,381.5 356.25,381.7656 Q356.5,382.0156 356.5,382.375 Q356.5,382.7188 356.1563,383.125 Q355.6563,383.7188 354.8594,384.0469 Q353.8125,384.5 352.5313,384.5 Q351.0313,384.5 349.8281,383.9063 Q348.8594,383.4375 348.1719,382.4219 Q347.5,381.4063 347.5,380.2031 L347.5,379.1094 Q347.5,377.8594 348.0938,376.7656 Q348.7031,375.6719 349.75,375.0938 Q350.8125,374.5 352,374.5 Q352.7188,374.5 353.3438,374.75 Q353.9688,375 354.5,375.5 Z " fill="#000000"/><text fill="#000000" font-family="sans-serif" font-size="12" lengthAdjust="spacing" textLength="107" x="366.5" y="383.9102">PersistenceContext</text><line style="stroke:#A80036;stroke-width:1.5;" x1="338.5" x2="475.5" y1="395" y2="395"/><line style="stroke:#A80036;stroke-width:1.5;" x1="338.5" x2="475.5" y1="403" y2="403"/><text fill="#000000" font-family="sans-serif" font-size="11" lengthAdjust="spacing" textLength="71" x="343.5" y="418.4189">+repositories()</text><!--MD5=[48590afff58a68e2fcba47824d6f8a11]
class RepositoryFactory--><rect codeLine="41" fill="#FEFECE" filter="url(#f1agqbf4pz59k0)" height="61.8359" id="RepositoryFactory" style="stroke:#A80036;stroke-width:1.5;" width="130" x="348" y="546"/><ellipse cx="363" cy="562" fill="#ADD1B2" rx="11" ry="11" style="stroke:#A80036;stroke-width:1.0;"/><path d="M365,558.5 Q365.2031,558 365.4375,557.75 Q365.6719,557.5 365.9375,557.5 Q366.4063,557.5 366.7031,557.7813 Q367,558.0625 367,558.7188 L367,560.2813 Q367,560.9375 366.7188,561.2188 Q366.4375,561.5 366,561.5 Q365.6094,561.5 365.3594,561.3281 Q365.1094,561.1563 365,560.7031 Q364.9531,560.3906 364.7813,560.2188 Q364.4688,559.8906 363.9063,559.7031 Q363.3438,559.5 362.7813,559.5 Q362.0781,559.5 361.4844,559.7813 Q360.9063,560.0625 360.4531,560.6875 Q360,561.3125 360,562.1719 L360,563.0938 Q360,564.125 360.8438,564.8125 Q361.6875,565.5 363.1875,565.5 Q364.0781,565.5 364.7031,565.2969 Q365.0625,565.1875 365.4688,564.8281 Q365.7344,564.625 365.875,564.5625 Q366.0156,564.5 366.1875,564.5 Q366.5156,564.5 366.75,564.7656 Q367,565.0156 367,565.375 Q367,565.7188 366.6563,566.125 Q366.1563,566.7188 365.3594,567.0469 Q364.3125,567.5 363.0313,567.5 Q361.5313,567.5 360.3281,566.9063 Q359.3594,566.4375 358.6719,565.4219 Q358,564.4063 358,563.2031 L358,562.1094 Q358,560.8594 358.5938,559.7656 Q359.2031,558.6719 360.25,558.0938 Q361.3125,557.5 362.5,557.5 Q363.2188,557.5 363.8438,557.75 Q364.4688,558 365,558.5 Z " fill="#000000"/><text fill="#000000" font-family="sans-serif" font-size="12" lengthAdjust="spacing" textLength="98" x="377" y="566.9102">RepositoryFactory</text><line style="stroke:#A80036;stroke-width:1.5;" x1="349" x2="477" y1="578" y2="578"/><line style="stroke:#A80036;stroke-width:1.5;" x1="349" x2="477" y1="586" y2="586"/><text fill="#000000" font-family="sans-serif" font-size="11" lengthAdjust="spacing" textLength="45" x="354" y="601.4189">+create()</text><!--MD5=[bf4d0c028d0f251e49ce9c9f9f101ed4]
class WarehouseRepository--><rect codeLine="47" fill="#FEFECE" filter="url(#f1agqbf4pz59k0)" height="75.6719" id="WarehouseRepository" style="stroke:#A80036;stroke-width:1.5;" width="155" x="335.5" y="729"/><ellipse cx="350.5" cy="745" fill="#ADD1B2" rx="11" ry="11" style="stroke:#A80036;stroke-width:1.0;"/><path d="M352.5,741.5 Q352.7031,741 352.9375,740.75 Q353.1719,740.5 353.4375,740.5 Q353.9063,740.5 354.2031,740.7813 Q354.5,741.0625 354.5,741.7188 L354.5,743.2813 Q354.5,743.9375 354.2188,744.2188 Q353.9375,744.5 353.5,744.5 Q353.1094,744.5 352.8594,744.3281 Q352.6094,744.1563 352.5,743.7031 Q352.4531,743.3906 352.2813,743.2188 Q351.9688,742.8906 351.4063,742.7031 Q350.8438,742.5 350.2813,742.5 Q349.5781,742.5 348.9844,742.7813 Q348.4063,743.0625 347.9531,743.6875 Q347.5,744.3125 347.5,745.1719 L347.5,746.0938 Q347.5,747.125 348.3438,747.8125 Q349.1875,748.5 350.6875,748.5 Q351.5781,748.5 352.2031,748.2969 Q352.5625,748.1875 352.9688,747.8281 Q353.2344,747.625 353.375,747.5625 Q353.5156,747.5 353.6875,747.5 Q354.0156,747.5 354.25,747.7656 Q354.5,748.0156 354.5,748.375 Q354.5,748.7188 354.1563,749.125 Q353.6563,749.7188 352.8594,750.0469 Q351.8125,750.5 350.5313,750.5 Q349.0313,750.5 347.8281,749.9063 Q346.8594,749.4375 346.1719,748.4219 Q345.5,747.4063 345.5,746.2031 L345.5,745.1094 Q345.5,743.8594 346.0938,742.7656 Q346.7031,741.6719 347.75,741.0938 Q348.8125,740.5 350,740.5 Q350.7188,740.5 351.3438,740.75 Q351.9688,741 352.5,741.5 Z " fill="#000000"/><text fill="#000000" font-family="sans-serif" font-size="12" lengthAdjust="spacing" textLength="123" x="364.5" y="749.9102">WarehouseRepository</text><line style="stroke:#A80036;stroke-width:1.5;" x1="336.5" x2="489.5" y1="761" y2="761"/><line style="stroke:#A80036;stroke-width:1.5;" x1="336.5" x2="489.5" y1="769" y2="769"/><text fill="#000000" font-family="sans-serif" font-size="11" lengthAdjust="spacing" textLength="45" x="341.5" y="784.4189">+create()</text><text fill="#000000" font-family="sans-serif" font-size="11" lengthAdjust="spacing" textLength="106" x="341.5" y="798.2549">+findAllWarehouses()</text><!--MD5=[a2934c79e3adc781b0cd87c74812aba5]
class AGVRepository--><rect codeLine="51" fill="#FEFECE" filter="url(#f1agqbf4pz59k0)" height="75.6719" id="AGVRepository" style="stroke:#A80036;stroke-width:1.5;" width="206" x="526" y="729"/><ellipse cx="583.75" cy="745" fill="#ADD1B2" rx="11" ry="11" style="stroke:#A80036;stroke-width:1.0;"/><path d="M585.75,741.5 Q585.9531,741 586.1875,740.75 Q586.4219,740.5 586.6875,740.5 Q587.1563,740.5 587.4531,740.7813 Q587.75,741.0625 587.75,741.7188 L587.75,743.2813 Q587.75,743.9375 587.4688,744.2188 Q587.1875,744.5 586.75,744.5 Q586.3594,744.5 586.1094,744.3281 Q585.8594,744.1563 585.75,743.7031 Q585.7031,743.3906 585.5313,743.2188 Q585.2188,742.8906 584.6563,742.7031 Q584.0938,742.5 583.5313,742.5 Q582.8281,742.5 582.2344,742.7813 Q581.6563,743.0625 581.2031,743.6875 Q580.75,744.3125 580.75,745.1719 L580.75,746.0938 Q580.75,747.125 581.5938,747.8125 Q582.4375,748.5 583.9375,748.5 Q584.8281,748.5 585.4531,748.2969 Q585.8125,748.1875 586.2188,747.8281 Q586.4844,747.625 586.625,747.5625 Q586.7656,747.5 586.9375,747.5 Q587.2656,747.5 587.5,747.7656 Q587.75,748.0156 587.75,748.375 Q587.75,748.7188 587.4063,749.125 Q586.9063,749.7188 586.1094,750.0469 Q585.0625,750.5 583.7813,750.5 Q582.2813,750.5 581.0781,749.9063 Q580.1094,749.4375 579.4219,748.4219 Q578.75,747.4063 578.75,746.2031 L578.75,745.1094 Q578.75,743.8594 579.3438,742.7656 Q579.9531,741.6719 581,741.0938 Q582.0625,740.5 583.25,740.5 Q583.9688,740.5 584.5938,740.75 Q585.2188,741 585.75,741.5 Z " fill="#000000"/><text fill="#000000" font-family="sans-serif" font-size="12" lengthAdjust="spacing" textLength="82" x="604.25" y="749.9102">AGVRepository</text><line style="stroke:#A80036;stroke-width:1.5;" x1="527" x2="731" y1="761" y2="761"/><line style="stroke:#A80036;stroke-width:1.5;" x1="527" x2="731" y1="769" y2="769"/><text fill="#000000" font-family="sans-serif" font-size="11" lengthAdjust="spacing" textLength="45" x="532" y="784.4189">+create()</text><text fill="#000000" font-family="sans-serif" font-size="11" lengthAdjust="spacing" textLength="194" x="532" y="798.2549">+findAbleAGVs(totalweight,totalvolume)</text><!--MD5=[9ebcc4b7f17d4e4926eb04bb938ef5bb]
link AutoAssignOrderUI to AutoAssignOrderController--><path codeLine="56" d="M332,90.07 C332,109.38 332,137.42 332,160.74 " fill="none" id="AutoAssignOrderUI-to-AutoAssignOrderController" style="stroke:#A80036;stroke-width:1.0;stroke-dasharray:7.0,7.0;"/><polygon fill="#A80036" points="332,165.94,336,156.94,332,160.94,328,156.94,332,165.94" style="stroke:#A80036;stroke-width:1.0;"/><!--MD5=[d37999a5651fc87bf848b2678341cd0a]
link AutoAssignOrderController to PersistenceContext--><path codeLine="57" d="M346.82,242.14 C360.24,275.8 379.89,325.04 393.04,358.01 " fill="none" id="AutoAssignOrderController-to-PersistenceContext" style="stroke:#A80036;stroke-width:1.0;stroke-dasharray:7.0,7.0;"/><polygon fill="#A80036" points="394.93,362.75,395.3118,352.9085,393.078,358.1057,387.8809,355.8718,394.93,362.75" style="stroke:#A80036;stroke-width:1.0;"/><!--MD5=[754b775031405e096442b27febffa290]
link PersistenceContext to RepositoryFactory--><path codeLine="58" d="M408,425.3 C409.06,457.11 410.72,507.08 411.83,540.66 " fill="none" id="PersistenceContext-to-RepositoryFactory" style="stroke:#A80036;stroke-width:1.0;stroke-dasharray:7.0,7.0;"/><polygon fill="#A80036" points="412,545.91,415.6893,536.7782,411.8287,540.9129,407.694,537.0523,412,545.91" style="stroke:#A80036;stroke-width:1.0;"/><!--MD5=[1e897a22714a6b830b517dbc62a38d7f]
link RepositoryFactory to WarehouseRepository--><path codeLine="59" d="M413,608.21 C413,639.47 413,688.55 413,723.68 " fill="none" id="RepositoryFactory-to-WarehouseRepository" style="stroke:#A80036;stroke-width:1.0;stroke-dasharray:7.0,7.0;"/><polygon fill="#A80036" points="413,728.75,417,719.75,413,723.75,409,719.75,413,728.75" style="stroke:#A80036;stroke-width:1.0;"/><!--MD5=[d05eaea78b8765320ad56e3795dd7d42]
link RepositoryFactory to AGVRepository--><path codeLine="60" d="M447.7,608.21 C484.21,639.98 541.87,690.17 582.34,725.39 " fill="none" id="RepositoryFactory-to-AGVRepository" style="stroke:#A80036;stroke-width:1.0;stroke-dasharray:7.0,7.0;"/><polygon fill="#A80036" points="586.2,728.75,582.0416,719.8221,582.43,725.4656,576.7865,725.854,586.2,728.75" style="stroke:#A80036;stroke-width:1.0;"/><!--MD5=[cb8d5150214e6aa765a2f24f67e90a63]
link WarehouseRepository to Warehouse--><path codeLine="61" d="M421.5,805.14 C429.16,838.66 440.36,887.63 447.9,920.6 " fill="none" id="WarehouseRepository-to-Warehouse" style="stroke:#A80036;stroke-width:1.0;stroke-dasharray:7.0,7.0;"/><polygon fill="#A80036" points="449.08,925.75,450.9725,916.0847,447.9651,920.8759,443.1739,917.8685,449.08,925.75" style="stroke:#A80036;stroke-width:1.0;"/><!--MD5=[44c78d46300cbd445cde51c8cf6651a2]
link AGVRepository to AGV--><path codeLine="62" d="M620.37,805.18 C609.12,850.06 587.15,927.09 556,988 C534.26,1030.51 501.83,1074.18 477.12,1104.81 " fill="none" id="AGVRepository-to-AGV" style="stroke:#A80036;stroke-width:1.0;stroke-dasharray:7.0,7.0;"/><polygon fill="#A80036" points="473.83,1108.85,482.5999,1104.3679,476.9743,1104.9624,476.3798,1099.3369,473.83,1108.85" style="stroke:#A80036;stroke-width:1.0;"/><!--MD5=[94d44896551bdf65524b96a6d6dcab74]
link AutoAssignOrderController to Product_Order--><path codeLine="63" d="M316.04,242.04 C301.41,279.41 282,339.13 282,393 C282,393 282,393 282,768 C282,821.04 282,882.5 282,920.31 " fill="none" id="AutoAssignOrderController-to-Product_Order" style="stroke:#A80036;stroke-width:1.0;stroke-dasharray:7.0,7.0;"/><polygon fill="#A80036" points="282,925.72,286,916.72,282,920.72,278,916.72,282,925.72" style="stroke:#A80036;stroke-width:1.0;"/><!--MD5=[f0ec9a1b308eb15252144431beddb166]
link Product_Order to AGV--><path codeLine="64" d="M307.71,988.21 C334.53,1019.72 376.77,1069.36 406.71,1104.54 " fill="none" id="Product_Order-to-AGV" style="stroke:#A80036;stroke-width:1.0;stroke-dasharray:7.0,7.0;"/><polygon fill="#A80036" points="410.3,1108.75,407.5004,1099.3074,407.0543,1104.9467,401.4151,1104.5006,410.3,1108.75" style="stroke:#A80036;stroke-width:1.0;"/><!--MD5=[327835d871782893ba7ce3e6b02e58c7]
link Product_Order to Product_OrderDTO--><path codeLine="65" d="M252.92,988.21 C218.02,1024.46 160.04,1084.68 126.71,1119.3 " fill="none" id="Product_Order-to-Product_OrderDTO" style="stroke:#A80036;stroke-width:1.0;stroke-dasharray:7.0,7.0;"/><polygon fill="#A80036" points="123.16,1122.98,132.2866,1119.2779,126.6307,1119.3808,126.5278,1113.7249,123.16,1122.98" style="stroke:#A80036;stroke-width:1.0;"/><!--MD5=[ec389d762c4c0e218cd0273a1b7cb6e1]
@startuml
skinparam classAttributeIconSize 0

package "Presentation"{
class AutoAssignOrderUI
}

package "Application"{
class AutoAssignOrderController{
+Product_OrderDTO autoAssignOrder()
-Product_OrderDTO toDTOOrder(Product_Order order)
}
}

package "DTO"{
class Product_OrderDTO{
}
}


package "Domain"{
class AGV{
+occupyAGV()
+freeAGV()
}
class Product_Order{
+toDTO()
}
class Warehouse{
+Product_Order getNextOrder()
}
}


package "Persistence"{
class PersistenceContext{
+repositories()
}
}

package "Factory"{
class RepositoryFactory{
+create()
}
}

package "Repository"{
class WarehouseRepository{
+create()
+findAllWarehouses()
}
class AGVRepository{
+create()
+findAbleAGVs(totalweight,totalvolume)
}
}
AutoAssignOrderUI .-> AutoAssignOrderController
AutoAssignOrderController .- -> PersistenceContext
PersistenceContext .- -> RepositoryFactory
RepositoryFactory .- -> WarehouseRepository
RepositoryFactory .- -> AGVRepository
WarehouseRepository .- -> Warehouse
AGVRepository .- -> AGV
AutoAssignOrderController .- -> Product_Order
Product_Order .- -> AGV
Product_Order .- -> Product_OrderDTO

@enduml

PlantUML version 1.2022.1(Tue Feb 01 18:19:58 GMT 2022)
(GPL source distribution)
Java Runtime: OpenJDK Runtime Environment
JVM: OpenJDK 64-Bit Server VM
Default Encoding: Cp1252
Language: pt
Country: PT
--></g></svg>