<?xml version="1.0" encoding="UTF-8" standalone="no"?><svg xmlns="http://www.w3.org/2000/svg" xmlns:xlink="http://www.w3.org/1999/xlink" contentScriptType="application/ecmascript" contentStyleType="text/css" height="611px" preserveAspectRatio="none" style="width:594px;height:611px;background:#FFFFFF;" version="1.1" viewBox="0 0 594 611" width="594px" zoomAndPan="magnify"><defs><filter height="300%" id="fddn4wwd6bmkq" width="300%" x="-1" y="-1"><feGaussianBlur result="blurOut" stdDeviation="2.0"/><feColorMatrix in="blurOut" result="blurOut2" type="matrix" values="0 0 0 0 0 0 0 0 0 0 0 0 0 0 0 0 0 0 .4 0"/><feOffset dx="4.0" dy="4.0" in="blurOut2" result="blurOut3"/><feBlend in="SourceGraphic" in2="blurOut3" mode="normal"/></filter></defs><g><!--MD5=[21278497e3b717440c1992229d7cb5dc]
cluster order--><polygon fill="#FFFFFF" filter="url(#fddn4wwd6bmkq)" points="31,316,76,316,83,339.6094,134,339.6094,134,416,31,416,31,316" style="stroke:#000000;stroke-width:1.5;"/><line style="stroke:#000000;stroke-width:1.5;" x1="31" x2="83" y1="339.6094" y2="339.6094"/><text fill="#000000" font-family="sans-serif" font-size="14" font-weight="bold" lengthAdjust="spacing" textLength="39" x="35" y="332.5332">order</text><!--MD5=[5c1a4368efc4020c811f0dec2d8123d2]
cluster agv--><polygon fill="#FFFFFF" filter="url(#fddn4wwd6bmkq)" points="286,6,318,6,325,29.6094,577,29.6094,577,604,286,604,286,6" style="stroke:#000000;stroke-width:1.5;"/><line style="stroke:#000000;stroke-width:1.5;" x1="286" x2="325" y1="29.6094" y2="29.6094"/><text fill="#000000" font-family="sans-serif" font-size="14" font-weight="bold" lengthAdjust="spacing" textLength="26" x="290" y="22.5332">agv</text><!--MD5=[cf4d6237fcae255cd2e1656cf84a30e2]
class Order--><rect codeLine="6" fill="#FEFECE" filter="url(#fddn4wwd6bmkq)" height="48.1875" id="Order" style="stroke:#A80036;stroke-width:1.5;" width="71" x="47" y="352"/><ellipse cx="62" cy="372.0938" fill="#ADD1B2" rx="11" ry="11" style="stroke:#A80036;stroke-width:1.0;"/><path d="M64,368.5938 Q64.2031,368.0938 64.4375,367.8438 Q64.6719,367.5938 64.9375,367.5938 Q65.4063,367.5938 65.7031,367.875 Q66,368.1563 66,368.8125 L66,370.375 Q66,371.0313 65.7188,371.3125 Q65.4375,371.5938 65,371.5938 Q64.6094,371.5938 64.3594,371.4219 Q64.1094,371.25 64,370.7969 Q63.9531,370.4844 63.7813,370.3125 Q63.4688,369.9844 62.9063,369.7969 Q62.3438,369.5938 61.7813,369.5938 Q61.0781,369.5938 60.4844,369.875 Q59.9063,370.1563 59.4531,370.7813 Q59,371.4063 59,372.2656 L59,373.1875 Q59,374.2188 59.8438,374.9063 Q60.6875,375.5938 62.1875,375.5938 Q63.0781,375.5938 63.7031,375.3906 Q64.0625,375.2813 64.4688,374.9219 Q64.7344,374.7188 64.875,374.6563 Q65.0156,374.5938 65.1875,374.5938 Q65.5156,374.5938 65.75,374.8594 Q66,375.1094 66,375.4688 Q66,375.8125 65.6563,376.2188 Q65.1563,376.8125 64.3594,377.1406 Q63.3125,377.5938 62.0313,377.5938 Q60.5313,377.5938 59.3281,377 Q58.3594,376.5313 57.6719,375.5156 Q57,374.5 57,373.2969 L57,372.2031 Q57,370.9531 57.5938,369.8594 Q58.2031,368.7656 59.25,368.1875 Q60.3125,367.5938 61.5,367.5938 Q62.2188,367.5938 62.8438,367.8438 Q63.4688,368.0938 64,368.5938 Z " fill="#000000"/><text fill="#000000" font-family="sans-serif" font-size="12" font-style="italic" lengthAdjust="spacing" textLength="43" x="74" y="369.457">«entity»</text><text fill="#000000" font-family="sans-serif" font-size="12" lengthAdjust="spacing" textLength="31" x="80" y="384.5508">Order</text><line style="stroke:#A80036;stroke-width:1.5;" x1="48" x2="117" y1="392.1875" y2="392.1875"/><!--MD5=[53b2c06ade5903185ca3326dce80e141]
class AGV--><rect codeLine="13" fill="#FEFECE" filter="url(#fddn4wwd6bmkq)" height="62.0234" id="AGV" style="stroke:#A80036;stroke-width:1.5;" width="71" x="302" y="284"/><ellipse cx="317" cy="304.0938" fill="#ADD1B2" rx="11" ry="11" style="stroke:#A80036;stroke-width:1.0;"/><path d="M319,300.5938 Q319.2031,300.0938 319.4375,299.8438 Q319.6719,299.5938 319.9375,299.5938 Q320.4063,299.5938 320.7031,299.875 Q321,300.1563 321,300.8125 L321,302.375 Q321,303.0313 320.7188,303.3125 Q320.4375,303.5938 320,303.5938 Q319.6094,303.5938 319.3594,303.4219 Q319.1094,303.25 319,302.7969 Q318.9531,302.4844 318.7813,302.3125 Q318.4688,301.9844 317.9063,301.7969 Q317.3438,301.5938 316.7813,301.5938 Q316.0781,301.5938 315.4844,301.875 Q314.9063,302.1563 314.4531,302.7813 Q314,303.4063 314,304.2656 L314,305.1875 Q314,306.2188 314.8438,306.9063 Q315.6875,307.5938 317.1875,307.5938 Q318.0781,307.5938 318.7031,307.3906 Q319.0625,307.2813 319.4688,306.9219 Q319.7344,306.7188 319.875,306.6563 Q320.0156,306.5938 320.1875,306.5938 Q320.5156,306.5938 320.75,306.8594 Q321,307.1094 321,307.4688 Q321,307.8125 320.6563,308.2188 Q320.1563,308.8125 319.3594,309.1406 Q318.3125,309.5938 317.0313,309.5938 Q315.5313,309.5938 314.3281,309 Q313.3594,308.5313 312.6719,307.5156 Q312,306.5 312,305.2969 L312,304.2031 Q312,302.9531 312.5938,301.8594 Q313.2031,300.7656 314.25,300.1875 Q315.3125,299.5938 316.5,299.5938 Q317.2188,299.5938 317.8438,299.8438 Q318.4688,300.0938 319,300.5938 Z " fill="#000000"/><text fill="#000000" font-family="sans-serif" font-size="12" font-style="italic" lengthAdjust="spacing" textLength="43" x="329" y="301.457">«entity»</text><text fill="#000000" font-family="sans-serif" font-size="12" lengthAdjust="spacing" textLength="23" x="339" y="316.5508">AGV</text><line style="stroke:#A80036;stroke-width:1.5;" x1="303" x2="372" y1="324.1875" y2="324.1875"/><text fill="#000000" font-family="sans-serif" font-size="11" lengthAdjust="spacing" textLength="12" x="308" y="339.6064">-id</text><!--MD5=[79d3acb8d8b4a000645cdf546551f625]
class ShortDescription--><rect fill="#FEFECE" filter="url(#fddn4wwd6bmkq)" height="48.1875" id="ShortDescription" style="stroke:#A80036;stroke-width:1.5;" width="124" x="435.5" y="540"/><ellipse cx="450.5" cy="560.0938" fill="#ADD1B2" rx="11" ry="11" style="stroke:#A80036;stroke-width:1.0;"/><path d="M452.5,556.5938 Q452.7031,556.0938 452.9375,555.8438 Q453.1719,555.5938 453.4375,555.5938 Q453.9063,555.5938 454.2031,555.875 Q454.5,556.1563 454.5,556.8125 L454.5,558.375 Q454.5,559.0313 454.2188,559.3125 Q453.9375,559.5938 453.5,559.5938 Q453.1094,559.5938 452.8594,559.4219 Q452.6094,559.25 452.5,558.7969 Q452.4531,558.4844 452.2813,558.3125 Q451.9688,557.9844 451.4063,557.7969 Q450.8438,557.5938 450.2813,557.5938 Q449.5781,557.5938 448.9844,557.875 Q448.4063,558.1563 447.9531,558.7813 Q447.5,559.4063 447.5,560.2656 L447.5,561.1875 Q447.5,562.2188 448.3438,562.9063 Q449.1875,563.5938 450.6875,563.5938 Q451.5781,563.5938 452.2031,563.3906 Q452.5625,563.2813 452.9688,562.9219 Q453.2344,562.7188 453.375,562.6563 Q453.5156,562.5938 453.6875,562.5938 Q454.0156,562.5938 454.25,562.8594 Q454.5,563.1094 454.5,563.4688 Q454.5,563.8125 454.1563,564.2188 Q453.6563,564.8125 452.8594,565.1406 Q451.8125,565.5938 450.5313,565.5938 Q449.0313,565.5938 447.8281,565 Q446.8594,564.5313 446.1719,563.5156 Q445.5,562.5 445.5,561.2969 L445.5,560.2031 Q445.5,558.9531 446.0938,557.8594 Q446.7031,556.7656 447.75,556.1875 Q448.8125,555.5938 450,555.5938 Q450.7188,555.5938 451.3438,555.8438 Q451.9688,556.0938 452.5,556.5938 Z " fill="#000000"/><text fill="#000000" font-family="sans-serif" font-size="12" font-style="italic" lengthAdjust="spacing" textLength="81" x="470" y="557.457">«value object»</text><text fill="#000000" font-family="sans-serif" font-size="12" lengthAdjust="spacing" textLength="92" x="464.5" y="572.5508">ShortDescription</text><line style="stroke:#A80036;stroke-width:1.5;" x1="436.5" x2="558.5" y1="580.1875" y2="580.1875"/><!--MD5=[7e20e022571e30ec1001cf6eabd7f3e2]
class Model--><rect fill="#FEFECE" filter="url(#fddn4wwd6bmkq)" height="48.1875" id="Model" style="stroke:#A80036;stroke-width:1.5;" width="109" x="443" y="457"/><ellipse cx="458" cy="477.0938" fill="#ADD1B2" rx="11" ry="11" style="stroke:#A80036;stroke-width:1.0;"/><path d="M460,473.5938 Q460.2031,473.0938 460.4375,472.8438 Q460.6719,472.5938 460.9375,472.5938 Q461.4063,472.5938 461.7031,472.875 Q462,473.1563 462,473.8125 L462,475.375 Q462,476.0313 461.7188,476.3125 Q461.4375,476.5938 461,476.5938 Q460.6094,476.5938 460.3594,476.4219 Q460.1094,476.25 460,475.7969 Q459.9531,475.4844 459.7813,475.3125 Q459.4688,474.9844 458.9063,474.7969 Q458.3438,474.5938 457.7813,474.5938 Q457.0781,474.5938 456.4844,474.875 Q455.9063,475.1563 455.4531,475.7813 Q455,476.4063 455,477.2656 L455,478.1875 Q455,479.2188 455.8438,479.9063 Q456.6875,480.5938 458.1875,480.5938 Q459.0781,480.5938 459.7031,480.3906 Q460.0625,480.2813 460.4688,479.9219 Q460.7344,479.7188 460.875,479.6563 Q461.0156,479.5938 461.1875,479.5938 Q461.5156,479.5938 461.75,479.8594 Q462,480.1094 462,480.4688 Q462,480.8125 461.6563,481.2188 Q461.1563,481.8125 460.3594,482.1406 Q459.3125,482.5938 458.0313,482.5938 Q456.5313,482.5938 455.3281,482 Q454.3594,481.5313 453.6719,480.5156 Q453,479.5 453,478.2969 L453,477.2031 Q453,475.9531 453.5938,474.8594 Q454.2031,473.7656 455.25,473.1875 Q456.3125,472.5938 457.5,472.5938 Q458.2188,472.5938 458.8438,472.8438 Q459.4688,473.0938 460,473.5938 Z " fill="#000000"/><text fill="#000000" font-family="sans-serif" font-size="12" font-style="italic" lengthAdjust="spacing" textLength="81" x="470" y="474.457">«value object»</text><text fill="#000000" font-family="sans-serif" font-size="12" lengthAdjust="spacing" textLength="33" x="494" y="489.5508">Model</text><line style="stroke:#A80036;stroke-width:1.5;" x1="444" x2="551" y1="497.1875" y2="497.1875"/><!--MD5=[16d95e38f003ccc6ecae27689936446e]
class MaximumWeight--><rect fill="#FEFECE" filter="url(#fddn4wwd6bmkq)" height="48.1875" id="MaximumWeight" style="stroke:#A80036;stroke-width:1.5;" width="123" x="436" y="374"/><ellipse cx="451" cy="394.0938" fill="#ADD1B2" rx="11" ry="11" style="stroke:#A80036;stroke-width:1.0;"/><path d="M453,390.5938 Q453.2031,390.0938 453.4375,389.8438 Q453.6719,389.5938 453.9375,389.5938 Q454.4063,389.5938 454.7031,389.875 Q455,390.1563 455,390.8125 L455,392.375 Q455,393.0313 454.7188,393.3125 Q454.4375,393.5938 454,393.5938 Q453.6094,393.5938 453.3594,393.4219 Q453.1094,393.25 453,392.7969 Q452.9531,392.4844 452.7813,392.3125 Q452.4688,391.9844 451.9063,391.7969 Q451.3438,391.5938 450.7813,391.5938 Q450.0781,391.5938 449.4844,391.875 Q448.9063,392.1563 448.4531,392.7813 Q448,393.4063 448,394.2656 L448,395.1875 Q448,396.2188 448.8438,396.9063 Q449.6875,397.5938 451.1875,397.5938 Q452.0781,397.5938 452.7031,397.3906 Q453.0625,397.2813 453.4688,396.9219 Q453.7344,396.7188 453.875,396.6563 Q454.0156,396.5938 454.1875,396.5938 Q454.5156,396.5938 454.75,396.8594 Q455,397.1094 455,397.4688 Q455,397.8125 454.6563,398.2188 Q454.1563,398.8125 453.3594,399.1406 Q452.3125,399.5938 451.0313,399.5938 Q449.5313,399.5938 448.3281,399 Q447.3594,398.5313 446.6719,397.5156 Q446,396.5 446,395.2969 L446,394.2031 Q446,392.9531 446.5938,391.8594 Q447.2031,390.7656 448.25,390.1875 Q449.3125,389.5938 450.5,389.5938 Q451.2188,389.5938 451.8438,389.8438 Q452.4688,390.0938 453,390.5938 Z " fill="#000000"/><text fill="#000000" font-family="sans-serif" font-size="12" font-style="italic" lengthAdjust="spacing" textLength="81" x="470" y="391.457">«value object»</text><text fill="#000000" font-family="sans-serif" font-size="12" lengthAdjust="spacing" textLength="91" x="465" y="406.5508">MaximumWeight</text><line style="stroke:#A80036;stroke-width:1.5;" x1="437" x2="558" y1="414.1875" y2="414.1875"/><!--MD5=[b285e37e75726846a0747551cbfd9ec4]
class MaximumVolume--><rect fill="#FEFECE" filter="url(#fddn4wwd6bmkq)" height="48.1875" id="MaximumVolume" style="stroke:#A80036;stroke-width:1.5;" width="127" x="434" y="291"/><ellipse cx="449" cy="311.0938" fill="#ADD1B2" rx="11" ry="11" style="stroke:#A80036;stroke-width:1.0;"/><path d="M451,307.5938 Q451.2031,307.0938 451.4375,306.8438 Q451.6719,306.5938 451.9375,306.5938 Q452.4063,306.5938 452.7031,306.875 Q453,307.1563 453,307.8125 L453,309.375 Q453,310.0313 452.7188,310.3125 Q452.4375,310.5938 452,310.5938 Q451.6094,310.5938 451.3594,310.4219 Q451.1094,310.25 451,309.7969 Q450.9531,309.4844 450.7813,309.3125 Q450.4688,308.9844 449.9063,308.7969 Q449.3438,308.5938 448.7813,308.5938 Q448.0781,308.5938 447.4844,308.875 Q446.9063,309.1563 446.4531,309.7813 Q446,310.4063 446,311.2656 L446,312.1875 Q446,313.2188 446.8438,313.9063 Q447.6875,314.5938 449.1875,314.5938 Q450.0781,314.5938 450.7031,314.3906 Q451.0625,314.2813 451.4688,313.9219 Q451.7344,313.7188 451.875,313.6563 Q452.0156,313.5938 452.1875,313.5938 Q452.5156,313.5938 452.75,313.8594 Q453,314.1094 453,314.4688 Q453,314.8125 452.6563,315.2188 Q452.1563,315.8125 451.3594,316.1406 Q450.3125,316.5938 449.0313,316.5938 Q447.5313,316.5938 446.3281,316 Q445.3594,315.5313 444.6719,314.5156 Q444,313.5 444,312.2969 L444,311.2031 Q444,309.9531 444.5938,308.8594 Q445.2031,307.7656 446.25,307.1875 Q447.3125,306.5938 448.5,306.5938 Q449.2188,306.5938 449.8438,306.8438 Q450.4688,307.0938 451,307.5938 Z " fill="#000000"/><text fill="#000000" font-family="sans-serif" font-size="12" font-style="italic" lengthAdjust="spacing" textLength="81" x="470" y="308.457">«value object»</text><text fill="#000000" font-family="sans-serif" font-size="12" lengthAdjust="spacing" textLength="95" x="463" y="323.5508">MaximumVolume</text><line style="stroke:#A80036;stroke-width:1.5;" x1="435" x2="560" y1="331.1875" y2="331.1875"/><!--MD5=[064b306410e464970cda6c2fc60b7bb8]
class BaseLocation--><rect fill="#FEFECE" filter="url(#fddn4wwd6bmkq)" height="48.1875" id="BaseLocation" style="stroke:#A80036;stroke-width:1.5;" width="109" x="443" y="208"/><ellipse cx="458" cy="228.0938" fill="#ADD1B2" rx="11" ry="11" style="stroke:#A80036;stroke-width:1.0;"/><path d="M460,224.5938 Q460.2031,224.0938 460.4375,223.8438 Q460.6719,223.5938 460.9375,223.5938 Q461.4063,223.5938 461.7031,223.875 Q462,224.1563 462,224.8125 L462,226.375 Q462,227.0313 461.7188,227.3125 Q461.4375,227.5938 461,227.5938 Q460.6094,227.5938 460.3594,227.4219 Q460.1094,227.25 460,226.7969 Q459.9531,226.4844 459.7813,226.3125 Q459.4688,225.9844 458.9063,225.7969 Q458.3438,225.5938 457.7813,225.5938 Q457.0781,225.5938 456.4844,225.875 Q455.9063,226.1563 455.4531,226.7813 Q455,227.4063 455,228.2656 L455,229.1875 Q455,230.2188 455.8438,230.9063 Q456.6875,231.5938 458.1875,231.5938 Q459.0781,231.5938 459.7031,231.3906 Q460.0625,231.2813 460.4688,230.9219 Q460.7344,230.7188 460.875,230.6563 Q461.0156,230.5938 461.1875,230.5938 Q461.5156,230.5938 461.75,230.8594 Q462,231.1094 462,231.4688 Q462,231.8125 461.6563,232.2188 Q461.1563,232.8125 460.3594,233.1406 Q459.3125,233.5938 458.0313,233.5938 Q456.5313,233.5938 455.3281,233 Q454.3594,232.5313 453.6719,231.5156 Q453,230.5 453,229.2969 L453,228.2031 Q453,226.9531 453.5938,225.8594 Q454.2031,224.7656 455.25,224.1875 Q456.3125,223.5938 457.5,223.5938 Q458.2188,223.5938 458.8438,223.8438 Q459.4688,224.0938 460,224.5938 Z " fill="#000000"/><text fill="#000000" font-family="sans-serif" font-size="12" font-style="italic" lengthAdjust="spacing" textLength="81" x="470" y="225.457">«value object»</text><text fill="#000000" font-family="sans-serif" font-size="12" lengthAdjust="spacing" textLength="76" x="472.5" y="240.5508">BaseLocation</text><line style="stroke:#A80036;stroke-width:1.5;" x1="444" x2="551" y1="248.1875" y2="248.1875"/><!--MD5=[e3d83ec5fd90ea9f3f2bfe265cb53458]
class Status--><rect fill="#FEFECE" filter="url(#fddn4wwd6bmkq)" height="48.1875" id="Status" style="stroke:#A80036;stroke-width:1.5;" width="109" x="443" y="125"/><ellipse cx="458" cy="145.0938" fill="#ADD1B2" rx="11" ry="11" style="stroke:#A80036;stroke-width:1.0;"/><path d="M460,141.5938 Q460.2031,141.0938 460.4375,140.8438 Q460.6719,140.5938 460.9375,140.5938 Q461.4063,140.5938 461.7031,140.875 Q462,141.1563 462,141.8125 L462,143.375 Q462,144.0313 461.7188,144.3125 Q461.4375,144.5938 461,144.5938 Q460.6094,144.5938 460.3594,144.4219 Q460.1094,144.25 460,143.7969 Q459.9531,143.4844 459.7813,143.3125 Q459.4688,142.9844 458.9063,142.7969 Q458.3438,142.5938 457.7813,142.5938 Q457.0781,142.5938 456.4844,142.875 Q455.9063,143.1563 455.4531,143.7813 Q455,144.4063 455,145.2656 L455,146.1875 Q455,147.2188 455.8438,147.9063 Q456.6875,148.5938 458.1875,148.5938 Q459.0781,148.5938 459.7031,148.3906 Q460.0625,148.2813 460.4688,147.9219 Q460.7344,147.7188 460.875,147.6563 Q461.0156,147.5938 461.1875,147.5938 Q461.5156,147.5938 461.75,147.8594 Q462,148.1094 462,148.4688 Q462,148.8125 461.6563,149.2188 Q461.1563,149.8125 460.3594,150.1406 Q459.3125,150.5938 458.0313,150.5938 Q456.5313,150.5938 455.3281,150 Q454.3594,149.5313 453.6719,148.5156 Q453,147.5 453,146.2969 L453,145.2031 Q453,143.9531 453.5938,142.8594 Q454.2031,141.7656 455.25,141.1875 Q456.3125,140.5938 457.5,140.5938 Q458.2188,140.5938 458.8438,140.8438 Q459.4688,141.0938 460,141.5938 Z " fill="#000000"/><text fill="#000000" font-family="sans-serif" font-size="12" font-style="italic" lengthAdjust="spacing" textLength="81" x="470" y="142.457">«value object»</text><text fill="#000000" font-family="sans-serif" font-size="12" lengthAdjust="spacing" textLength="35" x="493" y="157.5508">Status</text><line style="stroke:#A80036;stroke-width:1.5;" x1="444" x2="551" y1="165.1875" y2="165.1875"/><!--MD5=[38bcef8836b1321d22ded0540bc794c3]
class CurrentTask--><rect fill="#FEFECE" filter="url(#fddn4wwd6bmkq)" height="48.1875" id="CurrentTask" style="stroke:#A80036;stroke-width:1.5;" width="109" x="443" y="42"/><ellipse cx="458" cy="62.0938" fill="#ADD1B2" rx="11" ry="11" style="stroke:#A80036;stroke-width:1.0;"/><path d="M460,58.5938 Q460.2031,58.0938 460.4375,57.8438 Q460.6719,57.5938 460.9375,57.5938 Q461.4063,57.5938 461.7031,57.875 Q462,58.1563 462,58.8125 L462,60.375 Q462,61.0313 461.7188,61.3125 Q461.4375,61.5938 461,61.5938 Q460.6094,61.5938 460.3594,61.4219 Q460.1094,61.25 460,60.7969 Q459.9531,60.4844 459.7813,60.3125 Q459.4688,59.9844 458.9063,59.7969 Q458.3438,59.5938 457.7813,59.5938 Q457.0781,59.5938 456.4844,59.875 Q455.9063,60.1563 455.4531,60.7813 Q455,61.4063 455,62.2656 L455,63.1875 Q455,64.2188 455.8438,64.9063 Q456.6875,65.5938 458.1875,65.5938 Q459.0781,65.5938 459.7031,65.3906 Q460.0625,65.2813 460.4688,64.9219 Q460.7344,64.7188 460.875,64.6563 Q461.0156,64.5938 461.1875,64.5938 Q461.5156,64.5938 461.75,64.8594 Q462,65.1094 462,65.4688 Q462,65.8125 461.6563,66.2188 Q461.1563,66.8125 460.3594,67.1406 Q459.3125,67.5938 458.0313,67.5938 Q456.5313,67.5938 455.3281,67 Q454.3594,66.5313 453.6719,65.5156 Q453,64.5 453,63.2969 L453,62.2031 Q453,60.9531 453.5938,59.8594 Q454.2031,58.7656 455.25,58.1875 Q456.3125,57.5938 457.5,57.5938 Q458.2188,57.5938 458.8438,57.8438 Q459.4688,58.0938 460,58.5938 Z " fill="#000000"/><text fill="#000000" font-family="sans-serif" font-size="12" font-style="italic" lengthAdjust="spacing" textLength="81" x="470" y="59.457">«value object»</text><text fill="#000000" font-family="sans-serif" font-size="12" lengthAdjust="spacing" textLength="68" x="476.5" y="74.5508">CurrentTask</text><line style="stroke:#A80036;stroke-width:1.5;" x1="444" x2="551" y1="82.1875" y2="82.1875"/><!--MD5=[b8084bbefe35ffcc4a4483270aef6409]
class WarehouseEmployee--><rect codeLine="27" fill="#FEFECE" filter="url(#fddn4wwd6bmkq)" height="48.1875" id="WarehouseEmployee" style="stroke:#A80036;stroke-width:1.5;" width="151" x="7" y="252"/><ellipse cx="22" cy="272.0938" fill="#ADD1B2" rx="11" ry="11" style="stroke:#A80036;stroke-width:1.0;"/><path d="M24,268.5938 Q24.2031,268.0938 24.4375,267.8438 Q24.6719,267.5938 24.9375,267.5938 Q25.4063,267.5938 25.7031,267.875 Q26,268.1563 26,268.8125 L26,270.375 Q26,271.0313 25.7188,271.3125 Q25.4375,271.5938 25,271.5938 Q24.6094,271.5938 24.3594,271.4219 Q24.1094,271.25 24,270.7969 Q23.9531,270.4844 23.7813,270.3125 Q23.4688,269.9844 22.9063,269.7969 Q22.3438,269.5938 21.7813,269.5938 Q21.0781,269.5938 20.4844,269.875 Q19.9063,270.1563 19.4531,270.7813 Q19,271.4063 19,272.2656 L19,273.1875 Q19,274.2188 19.8438,274.9063 Q20.6875,275.5938 22.1875,275.5938 Q23.0781,275.5938 23.7031,275.3906 Q24.0625,275.2813 24.4688,274.9219 Q24.7344,274.7188 24.875,274.6563 Q25.0156,274.5938 25.1875,274.5938 Q25.5156,274.5938 25.75,274.8594 Q26,275.1094 26,275.4688 Q26,275.8125 25.6563,276.2188 Q25.1563,276.8125 24.3594,277.1406 Q23.3125,277.5938 22.0313,277.5938 Q20.5313,277.5938 19.3281,277 Q18.3594,276.5313 17.6719,275.5156 Q17,274.5 17,273.2969 L17,272.2031 Q17,270.9531 17.5938,269.8594 Q18.2031,268.7656 19.25,268.1875 Q20.3125,267.5938 21.5,267.5938 Q22.2188,267.5938 22.8438,267.8438 Q23.4688,268.0938 24,268.5938 Z " fill="#000000"/><text fill="#000000" font-family="sans-serif" font-size="12" font-style="italic" lengthAdjust="spacing" textLength="43" x="74" y="269.457">«entity»</text><text fill="#000000" font-family="sans-serif" font-size="12" lengthAdjust="spacing" textLength="119" x="36" y="284.5508">WarehouseEmployee</text><line style="stroke:#A80036;stroke-width:1.5;" x1="8" x2="157" y1="292.1875" y2="292.1875"/><!--MD5=[2f5e32ec77f03236670af236b3ac1ba3]
link WarehouseEmployee to AGV--><path codeLine="34" d="M158.04,287.49 C205.56,294.82 264.91,303.97 301.77,309.65 " fill="none" id="WarehouseEmployee-AGV" style="stroke:#A80036;stroke-width:1.0;"/><polygon fill="#000000" points="204.9416,285.9377,196.45,281.6548,195.5543,287.464,204.9416,285.9377" style="stroke:#000000;stroke-width:1.0;"/><text fill="#000000" font-family="sans-serif" font-size="13" lengthAdjust="spacing" textLength="53" x="209" y="290.4951">manages</text><text fill="#000000" font-family="sans-serif" font-size="13" lengthAdjust="spacing" textLength="7" x="166.191" y="303.0035">1</text><text fill="#000000" font-family="sans-serif" font-size="13" lengthAdjust="spacing" textLength="5" x="288.8851" y="323.7255">*</text><!--MD5=[5ec02356f496e963d0f6fc7dcdfc5886]
link Order to AGV--><path codeLine="35" d="M118.15,367.65 C166.46,356 253.56,335 301.87,323.35 " fill="none" id="Order-AGV" style="stroke:#A80036;stroke-width:1.0;"/><polygon fill="#000000" points="197.8607,322.0037,188.3787,321.2669,189.7565,326.981,197.8607,322.0037" style="stroke:#000000;stroke-width:1.0;"/><text fill="#000000" font-family="sans-serif" font-size="13" lengthAdjust="spacing" textLength="67" x="202" y="328.4951">assigned to</text><text fill="#000000" font-family="sans-serif" font-size="13" lengthAdjust="spacing" textLength="7" x="126.2247" y="381.0898">1</text><text fill="#000000" font-family="sans-serif" font-size="13" lengthAdjust="spacing" textLength="5" x="289.0057" y="340.2511">*</text><!--MD5=[bba317dcae9279c3937714ed06aa4019]
link AGV to ShortDescription--><path codeLine="36" d="M346.97,346.01 C359.99,389.25 388.31,468.38 434,522 C438.46,527.23 443.72,532.09 449.28,536.5 " fill="none" id="AGV-to-ShortDescription" style="stroke:#A80036;stroke-width:1.0;"/><polygon fill="#A80036" points="453.57,539.79,448.8587,531.1411,449.601,536.749,443.9931,537.4914,453.57,539.79" style="stroke:#A80036;stroke-width:1.0;"/><text fill="#000000" font-family="sans-serif" font-size="13" lengthAdjust="spacing" textLength="7" x="434.4161" y="529.0523">1</text><!--MD5=[90de021bb2aa8991bb28cb59916c543e]
link AGV to Model--><path codeLine="37" d="M358.23,346.04 C376.03,372.59 403.97,410.85 434,439 C439.5,444.16 445.7,449.12 452,453.72 " fill="none" id="AGV-to-Model" style="stroke:#A80036;stroke-width:1.0;"/><polygon fill="#A80036" points="456.37,456.85,451.3798,448.359,452.3042,453.9398,446.7234,454.8642,456.37,456.85" style="stroke:#A80036;stroke-width:1.0;"/><text fill="#000000" font-family="sans-serif" font-size="13" lengthAdjust="spacing" textLength="7" x="437.9336" y="446.1277">1</text><!--MD5=[c72f1e6940ed6ecc2c144a601f0c19a4]
link AGV to MaximumWeight--><path codeLine="38" d="M373.17,333.21 C394.55,344.44 422.33,359.04 446.11,371.53 " fill="none" id="AGV-to-MaximumWeight" style="stroke:#A80036;stroke-width:1.0;"/><polygon fill="#A80036" points="450.81,374,444.6861,366.2865,446.3786,371.6842,440.9809,373.3767,450.81,374" style="stroke:#A80036;stroke-width:1.0;"/><text fill="#000000" font-family="sans-serif" font-size="13" lengthAdjust="spacing" textLength="7" x="430.9488" y="363.3161">1</text><!--MD5=[67bde9aab136fc3a908675e16468351d]
link AGV to MaximumVolume--><path codeLine="39" d="M373.17,315 C389.45,315 409.43,315 428.54,315 " fill="none" id="AGV-to-MaximumVolume" style="stroke:#A80036;stroke-width:1.0;"/><polygon fill="#A80036" points="433.9,315,424.9,311,428.9,315,424.9,319,433.9,315" style="stroke:#A80036;stroke-width:1.0;"/><text fill="#000000" font-family="sans-serif" font-size="13" lengthAdjust="spacing" textLength="7" x="419.1416" y="329.4296">1</text><!--MD5=[670f8ab1959079f3e542dc0d97ca6264]
link AGV to BaseLocation--><path codeLine="40" d="M373.17,296.79 C394.55,285.56 422.33,270.96 446.11,258.47 " fill="none" id="AGV-to-BaseLocation" style="stroke:#A80036;stroke-width:1.0;"/><polygon fill="#A80036" points="450.81,256,440.9809,256.6233,446.3786,258.3158,444.6861,263.7135,450.81,256" style="stroke:#A80036;stroke-width:1.0;"/><text fill="#000000" font-family="sans-serif" font-size="13" lengthAdjust="spacing" textLength="7" x="430.9488" y="277.7161">1</text><!--MD5=[f5443cc58319b313032a803e076be4aa]
link AGV to Status--><path codeLine="41" d="M357.93,283.87 C375.64,257.05 403.61,218.28 434,190 C439.25,185.12 445.14,180.43 451.16,176.08 " fill="none" id="AGV-to-Status" style="stroke:#A80036;stroke-width:1.0;"/><polygon fill="#A80036" points="455.34,173.13,445.6811,175.0549,451.256,176.0145,450.2963,181.5894,455.34,173.13" style="stroke:#A80036;stroke-width:1.0;"/><text fill="#000000" font-family="sans-serif" font-size="13" lengthAdjust="spacing" textLength="7" x="436.6396" y="194.8795">1</text><!--MD5=[92849aba45a5a3491428223c69d2c017]
link AGV to CurrentTask--><path codeLine="42" d="M346.85,283.77 C359.72,240.24 387.88,160.62 434,107 C438.25,102.06 443.23,97.48 448.5,93.31 " fill="none" id="AGV-to-CurrentTask" style="stroke:#A80036;stroke-width:1.0;"/><polygon fill="#A80036" points="452.58,90.2,442.9992,92.482,448.6058,93.2341,447.8537,98.8407,452.58,90.2" style="stroke:#A80036;stroke-width:1.0;"/><text fill="#000000" font-family="sans-serif" font-size="13" lengthAdjust="spacing" textLength="7" x="433.7776" y="111.5639">1</text><!--MD5=[9d9df378ce74247c0df3d8e644f42d18]
@startuml
hide methods
left to right direction
skinparam classAttributeIconSize 0

package "order"{
class Order{

}
}


package "agv"{
class AGV{
-id
}

AGV <<entity>>
ShortDescription <<value object>>
Model <<value object>>
MaximumWeight <<value object>>
MaximumVolume <<value object>>
BaseLocation <<value object>>
Status <<value object>>
CurrentTask <<value object>>
}

class WarehouseEmployee{
}

WarehouseEmployee <<entity>>
Order <<entity>>
AGV <<entity>>

WarehouseEmployee "1" - - "*" AGV : manages >
Order "1" - - "*" AGV : assigned to >
AGV  - -> "1" ShortDescription
AGV  - -> "1" Model
AGV  - -> "1" MaximumWeight
AGV  - -> "1" MaximumVolume
AGV  - -> "1" BaseLocation
AGV  - -> "1" Status
AGV  - -> "1" CurrentTask


@enduml

PlantUML version 1.2022.1(Tue Feb 01 18:19:58 GMT 2022)
(GPL source distribution)
Java Runtime: OpenJDK Runtime Environment
JVM: OpenJDK 64-Bit Server VM
Default Encoding: Cp1252
Language: pt
Country: PT
--></g></svg>