<?xml version="1.0" encoding="UTF-8" standalone="no"?><svg xmlns="http://www.w3.org/2000/svg" xmlns:xlink="http://www.w3.org/1999/xlink" contentScriptType="application/ecmascript" contentStyleType="text/css" height="255px" preserveAspectRatio="none" style="width:572px;height:255px;background:#FFFFFF;" version="1.1" viewBox="0 0 572 255" width="572px" zoomAndPan="magnify"><defs><filter height="300%" id="fhh2wn92sh2x5" width="300%" x="-1" y="-1"><feGaussianBlur result="blurOut" stdDeviation="2.0"/><feColorMatrix in="blurOut" result="blurOut2" type="matrix" values="0 0 0 0 0 0 0 0 0 0 0 0 0 0 0 0 0 0 .4 0"/><feOffset dx="4.0" dy="4.0" in="blurOut2" result="blurOut3"/><feBlend in="SourceGraphic" in2="blurOut3" mode="normal"/></filter></defs><g><rect fill="#FFFFFF" filter="url(#fhh2wn92sh2x5)" height="30.3516" style="stroke:#A80036;stroke-width:1.0;" width="10" x="154" y="121.9609"/><rect fill="#FFFFFF" filter="url(#fhh2wn92sh2x5)" height="52.7031" style="stroke:#A80036;stroke-width:1.0;" width="10" x="537" y="99.6094"/><line style="stroke:#A80036;stroke-width:1.0;stroke-dasharray:5.0,5.0;" x1="60" x2="60" y1="89.6094" y2="170.3125"/><line style="stroke:#A80036;stroke-width:1.0;stroke-dasharray:5.0,5.0;" x1="159" x2="159" y1="89.6094" y2="170.3125"/><line style="stroke:#A80036;stroke-width:1.0;stroke-dasharray:5.0,5.0;" x1="542" x2="542" y1="89.6094" y2="170.3125"/><text fill="#000000" font-family="sans-serif" font-size="14" lengthAdjust="spacing" textLength="104" x="5" y="86.5332">Project Manager</text><ellipse cx="60" cy="15" fill="#FEFECE" filter="url(#fhh2wn92sh2x5)" rx="8" ry="8" style="stroke:#A80036;stroke-width:2.0;"/><path d="M60,23 L60,50 M47,31 L73,31 M60,50 L47,65 M60,50 L73,65 " fill="none" filter="url(#fhh2wn92sh2x5)" style="stroke:#A80036;stroke-width:2.0;"/><text fill="#000000" font-family="sans-serif" font-size="14" lengthAdjust="spacing" textLength="104" x="5" y="183.8457">Project Manager</text><ellipse cx="60" cy="196.9219" fill="#FEFECE" filter="url(#fhh2wn92sh2x5)" rx="8" ry="8" style="stroke:#A80036;stroke-width:2.0;"/><path d="M60,204.9219 L60,231.9219 M47,212.9219 L73,212.9219 M60,231.9219 L47,246.9219 M60,231.9219 L73,246.9219 " fill="none" filter="url(#fhh2wn92sh2x5)" style="stroke:#A80036;stroke-width:2.0;"/><rect fill="#FEFECE" filter="url(#fhh2wn92sh2x5)" height="31.6094" style="stroke:#A80036;stroke-width:1.5;" width="64" x="125" y="53"/><text fill="#000000" font-family="sans-serif" font-size="14" lengthAdjust="spacing" textLength="50" x="132" y="74.5332">:System</text><rect fill="#FEFECE" filter="url(#fhh2wn92sh2x5)" height="31.6094" style="stroke:#A80036;stroke-width:1.5;" width="64" x="125" y="169.3125"/><text fill="#000000" font-family="sans-serif" font-size="14" lengthAdjust="spacing" textLength="50" x="132" y="190.8457">:System</text><rect fill="#FEFECE" filter="url(#fhh2wn92sh2x5)" height="31.6094" style="stroke:#A80036;stroke-width:1.5;" width="36" x="522" y="53"/><text fill="#000000" font-family="sans-serif" font-size="14" lengthAdjust="spacing" textLength="22" x="529" y="74.5332">WE</text><rect fill="#FEFECE" filter="url(#fhh2wn92sh2x5)" height="31.6094" style="stroke:#A80036;stroke-width:1.5;" width="36" x="522" y="169.3125"/><text fill="#000000" font-family="sans-serif" font-size="14" lengthAdjust="spacing" textLength="22" x="529" y="190.8457">WE</text><rect fill="#FFFFFF" filter="url(#fhh2wn92sh2x5)" height="30.3516" style="stroke:#A80036;stroke-width:1.0;" width="10" x="154" y="121.9609"/><rect fill="#FFFFFF" filter="url(#fhh2wn92sh2x5)" height="52.7031" style="stroke:#A80036;stroke-width:1.0;" width="10" x="537" y="99.6094"/><polygon fill="#A80036" points="175,117.9609,165,121.9609,175,125.9609,171,121.9609" style="stroke:#A80036;stroke-width:1.0;"/><line style="stroke:#A80036;stroke-width:1.0;" x1="169" x2="536" y1="121.9609" y2="121.9609"/><text fill="#000000" font-family="sans-serif" font-size="13" font-weight="bold" lengthAdjust="spacing" textLength="7" x="181" y="117.1045">1</text><text fill="#000000" font-family="sans-serif" font-size="13" lengthAdjust="spacing" textLength="262" x="192" y="117.1045">I want to automatically assign tasks to AGVs</text><polygon fill="#A80036" points="530,148.3125,540,152.3125,530,156.3125,534,152.3125" style="stroke:#A80036;stroke-width:1.0;"/><line style="stroke:#A80036;stroke-width:1.0;stroke-dasharray:2.0,2.0;" x1="159" x2="536" y1="152.3125" y2="152.3125"/><text fill="#000000" font-family="sans-serif" font-size="13" font-weight="bold" lengthAdjust="spacing" textLength="7" x="166" y="147.4561">2</text><text fill="#000000" font-family="sans-serif" font-size="13" lengthAdjust="spacing" textLength="338" x="177" y="147.4561">shows the orders by sorted and informs operation success</text><!--MD5=[233744b6c3c8fc6df79787ec13f78263]
@startuml
actor "Project Manager" as PM
participant ":System" as System

autonumber
activate WE
WE -> System: I want to automatically assign tasks to AGVs
activate System
System - -> WE: shows the orders by sorted and informs operation success
deactivate System
deactivate WE


@enduml

PlantUML version 1.2022.1(Tue Feb 01 18:19:58 GMT 2022)
(GPL source distribution)
Java Runtime: OpenJDK Runtime Environment
JVM: OpenJDK 64-Bit Server VM
Default Encoding: Cp1252
Language: pt
Country: PT
--></g></svg>