<?xml version="1.0" encoding="UTF-8" standalone="no"?><svg xmlns="http://www.w3.org/2000/svg" xmlns:xlink="http://www.w3.org/1999/xlink" contentStyleType="text/css" height="862px" preserveAspectRatio="none" style="width:931px;height:862px;background:#FFFFFF;" version="1.1" viewBox="0 0 931 862" width="931px" zoomAndPan="magnify"><defs/><g><!--MD5=[21278497e3b717440c1992229d7cb5dc]
cluster order--><g id="cluster_order"><path d="M290.5,6 L330.5,6 A3.75,3.75 0 0 1 333,8.5 L340,29.6094 L724.5,29.6094 A2.5,2.5 0 0 1 727,32.1094 L727,709.5 A2.5,2.5 0 0 1 724.5,712 L290.5,712 A2.5,2.5 0 0 1 288,709.5 L288,8.5 A2.5,2.5 0 0 1 290.5,6 " style="stroke:#000000;stroke-width:1.5;fill:none;"/><line style="stroke:#000000;stroke-width:1.5;fill:none;" x1="288" x2="340" y1="29.6094" y2="29.6094"/><text fill="#000000" font-family="sans-serif" font-size="14" font-weight="bold" lengthAdjust="spacing" textLength="39" x="292" y="22.5332">order</text></g><!--MD5=[87a839285c4e636151e0ab9ef5595388]
cluster product--><g id="cluster_product"><path d="M551,736 L607,736 A3.75,3.75 0 0 1 609.5,738.5 L616.5,759.6094 L659,759.6094 A2.5,2.5 0 0 1 661.5,762.1094 L661.5,837.5 A2.5,2.5 0 0 1 659,840 L551,840 A2.5,2.5 0 0 1 548.5,837.5 L548.5,738.5 A2.5,2.5 0 0 1 551,736 " style="stroke:#000000;stroke-width:1.5;fill:none;"/><line style="stroke:#000000;stroke-width:1.5;fill:none;" x1="548.5" x2="616.5" y1="759.6094" y2="759.6094"/><text fill="#000000" font-family="sans-serif" font-size="14" font-weight="bold" lengthAdjust="spacing" textLength="55" x="552.5" y="752.5332">product</text></g><!--MD5=[cf4d6237fcae255cd2e1656cf84a30e2]
class Order--><g id="elem_Order"><rect codeLine="9" fill="#F1F1F1" height="68.3125" id="Order" rx="2.5" ry="2.5" style="stroke:#181818;stroke-width:0.5;" width="71" x="304" y="378"/><ellipse cx="319" cy="399.3516" fill="#ADD1B2" rx="11" ry="11" style="stroke:#181818;stroke-width:1.0;"/><path d="M321,395.8516 Q321.2031,395.3516 321.4375,395.1016 Q321.6719,394.8516 321.9375,394.8516 Q322.4063,394.8516 322.7031,395.1328 Q323,395.4141 323,396.0703 L323,397.6328 Q323,398.2891 322.7188,398.5703 Q322.4375,398.8516 322,398.8516 Q321.6094,398.8516 321.3594,398.6797 Q321.1094,398.5078 321,398.0547 Q320.9531,397.7422 320.7813,397.5703 Q320.4688,397.2422 319.9063,397.0547 Q319.3438,396.8516 318.7813,396.8516 Q318.0781,396.8516 317.4844,397.1328 Q316.9063,397.4141 316.4531,398.0391 Q316,398.6641 316,399.5234 L316,400.4453 Q316,401.4766 316.8438,402.1641 Q317.6875,402.8516 319.1875,402.8516 Q320.0781,402.8516 320.7031,402.6484 Q321.0625,402.5391 321.4688,402.1797 Q321.7344,401.9766 321.875,401.9141 Q322.0156,401.8516 322.1875,401.8516 Q322.5156,401.8516 322.75,402.1172 Q323,402.3672 323,402.7266 Q323,403.0703 322.6563,403.4766 Q322.1563,404.0703 321.3594,404.3984 Q320.3125,404.8516 319.0313,404.8516 Q317.5313,404.8516 316.3281,404.2578 Q315.3594,403.7891 314.6719,402.7734 Q314,401.7578 314,400.5547 L314,399.4609 Q314,398.2109 314.5938,397.1172 Q315.2031,396.0234 316.25,395.4453 Q317.3125,394.8516 318.5,394.8516 Q319.2188,394.8516 319.8438,395.1016 Q320.4688,395.3516 321,395.8516 Z " fill="#000000"/><text fill="#000000" font-family="sans-serif" font-size="12" font-style="italic" lengthAdjust="spacing" textLength="43" x="331" y="395.457">«entity»</text><text fill="#000000" font-family="sans-serif" font-size="14" lengthAdjust="spacing" textLength="37" x="334" y="412.627">Order</text><line style="stroke:#181818;stroke-width:0.5;" x1="305" x2="374" y1="420.7031" y2="420.7031"/><text fill="#000000" font-family="sans-serif" font-size="14" lengthAdjust="spacing" textLength="16" x="310" y="439.2363">-id</text></g><!--MD5=[c29df52dd5928320aafb26241afd4a45]
class Shipment_method_cost--><g id="elem_Shipment_method_cost"><rect fill="#F1F1F1" height="50.7031" id="Shipment_method_cost" rx="2.5" ry="2.5" style="stroke:#181818;stroke-width:0.5;" width="180" x="515" y="644.5"/><ellipse cx="530" cy="665.8516" fill="#ADD1B2" rx="11" ry="11" style="stroke:#181818;stroke-width:1.0;"/><path d="M532,662.3516 Q532.2031,661.8516 532.4375,661.6016 Q532.6719,661.3516 532.9375,661.3516 Q533.4063,661.3516 533.7031,661.6328 Q534,661.9141 534,662.5703 L534,664.1328 Q534,664.7891 533.7188,665.0703 Q533.4375,665.3516 533,665.3516 Q532.6094,665.3516 532.3594,665.1797 Q532.1094,665.0078 532,664.5547 Q531.9531,664.2422 531.7813,664.0703 Q531.4688,663.7422 530.9063,663.5547 Q530.3438,663.3516 529.7813,663.3516 Q529.0781,663.3516 528.4844,663.6328 Q527.9063,663.9141 527.4531,664.5391 Q527,665.1641 527,666.0234 L527,666.9453 Q527,667.9766 527.8438,668.6641 Q528.6875,669.3516 530.1875,669.3516 Q531.0781,669.3516 531.7031,669.1484 Q532.0625,669.0391 532.4688,668.6797 Q532.7344,668.4766 532.875,668.4141 Q533.0156,668.3516 533.1875,668.3516 Q533.5156,668.3516 533.75,668.6172 Q534,668.8672 534,669.2266 Q534,669.5703 533.6563,669.9766 Q533.1563,670.5703 532.3594,670.8984 Q531.3125,671.3516 530.0313,671.3516 Q528.5313,671.3516 527.3281,670.7578 Q526.3594,670.2891 525.6719,669.2734 Q525,668.2578 525,667.0547 L525,665.9609 Q525,664.7109 525.5938,663.6172 Q526.2031,662.5234 527.25,661.9453 Q528.3125,661.3516 529.5,661.3516 Q530.2188,661.3516 530.8438,661.6016 Q531.4688,661.8516 532,662.3516 Z " fill="#000000"/><text fill="#000000" font-family="sans-serif" font-size="12" font-style="italic" lengthAdjust="spacing" textLength="81" x="577.5" y="661.957">«value object»</text><text fill="#000000" font-family="sans-serif" font-size="14" lengthAdjust="spacing" textLength="148" x="544" y="679.127">Shipment_method_cost</text><line style="stroke:#181818;stroke-width:0.5;" x1="516" x2="694" y1="687.2031" y2="687.2031"/></g><!--MD5=[c5f54386e36bdc2f2bc148d4c3dc15a6]
class Customer_id--><g id="elem_Customer_id"><rect fill="#F1F1F1" height="50.7031" id="Customer_id" rx="2.5" ry="2.5" style="stroke:#181818;stroke-width:0.5;" width="112" x="549" y="558.5"/><ellipse cx="564" cy="579.8516" fill="#ADD1B2" rx="11" ry="11" style="stroke:#181818;stroke-width:1.0;"/><path d="M566,576.3516 Q566.2031,575.8516 566.4375,575.6016 Q566.6719,575.3516 566.9375,575.3516 Q567.4063,575.3516 567.7031,575.6328 Q568,575.9141 568,576.5703 L568,578.1328 Q568,578.7891 567.7188,579.0703 Q567.4375,579.3516 567,579.3516 Q566.6094,579.3516 566.3594,579.1797 Q566.1094,579.0078 566,578.5547 Q565.9531,578.2422 565.7813,578.0703 Q565.4688,577.7422 564.9063,577.5547 Q564.3438,577.3516 563.7813,577.3516 Q563.0781,577.3516 562.4844,577.6328 Q561.9063,577.9141 561.4531,578.5391 Q561,579.1641 561,580.0234 L561,580.9453 Q561,581.9766 561.8438,582.6641 Q562.6875,583.3516 564.1875,583.3516 Q565.0781,583.3516 565.7031,583.1484 Q566.0625,583.0391 566.4688,582.6797 Q566.7344,582.4766 566.875,582.4141 Q567.0156,582.3516 567.1875,582.3516 Q567.5156,582.3516 567.75,582.6172 Q568,582.8672 568,583.2266 Q568,583.5703 567.6563,583.9766 Q567.1563,584.5703 566.3594,584.8984 Q565.3125,585.3516 564.0313,585.3516 Q562.5313,585.3516 561.3281,584.7578 Q560.3594,584.2891 559.6719,583.2734 Q559,582.2578 559,581.0547 L559,579.9609 Q559,578.7109 559.5938,577.6172 Q560.2031,576.5234 561.25,575.9453 Q562.3125,575.3516 563.5,575.3516 Q564.2188,575.3516 564.8438,575.6016 Q565.4688,575.8516 566,576.3516 Z " fill="#000000"/><text fill="#000000" font-family="sans-serif" font-size="12" font-style="italic" lengthAdjust="spacing" textLength="81" x="577.5" y="575.957">«value object»</text><text fill="#000000" font-family="sans-serif" font-size="14" lengthAdjust="spacing" textLength="80" x="578" y="593.127">Customer_id</text><line style="stroke:#181818;stroke-width:0.5;" x1="550" x2="660" y1="601.2031" y2="601.2031"/></g><!--MD5=[610ce1c2e667a05315cabcffc1a01e9d]
class Total_amount_without_taxes--><g id="elem_Total_amount_without_taxes"><rect fill="#F1F1F1" height="50.7031" id="Total_amount_without_taxes" rx="2.5" ry="2.5" style="stroke:#181818;stroke-width:0.5;" width="212" x="499" y="472.5"/><ellipse cx="514" cy="493.8516" fill="#ADD1B2" rx="11" ry="11" style="stroke:#181818;stroke-width:1.0;"/><path d="M516,490.3516 Q516.2031,489.8516 516.4375,489.6016 Q516.6719,489.3516 516.9375,489.3516 Q517.4063,489.3516 517.7031,489.6328 Q518,489.9141 518,490.5703 L518,492.1328 Q518,492.7891 517.7188,493.0703 Q517.4375,493.3516 517,493.3516 Q516.6094,493.3516 516.3594,493.1797 Q516.1094,493.0078 516,492.5547 Q515.9531,492.2422 515.7813,492.0703 Q515.4688,491.7422 514.9063,491.5547 Q514.3438,491.3516 513.7813,491.3516 Q513.0781,491.3516 512.4844,491.6328 Q511.9063,491.9141 511.4531,492.5391 Q511,493.1641 511,494.0234 L511,494.9453 Q511,495.9766 511.8438,496.6641 Q512.6875,497.3516 514.1875,497.3516 Q515.0781,497.3516 515.7031,497.1484 Q516.0625,497.0391 516.4688,496.6797 Q516.7344,496.4766 516.875,496.4141 Q517.0156,496.3516 517.1875,496.3516 Q517.5156,496.3516 517.75,496.6172 Q518,496.8672 518,497.2266 Q518,497.5703 517.6563,497.9766 Q517.1563,498.5703 516.3594,498.8984 Q515.3125,499.3516 514.0313,499.3516 Q512.5313,499.3516 511.3281,498.7578 Q510.3594,498.2891 509.6719,497.2734 Q509,496.2578 509,495.0547 L509,493.9609 Q509,492.7109 509.5938,491.6172 Q510.2031,490.5234 511.25,489.9453 Q512.3125,489.3516 513.5,489.3516 Q514.2188,489.3516 514.8438,489.6016 Q515.4688,489.8516 516,490.3516 Z " fill="#000000"/><text fill="#000000" font-family="sans-serif" font-size="12" font-style="italic" lengthAdjust="spacing" textLength="81" x="577.5" y="489.957">«value object»</text><text fill="#000000" font-family="sans-serif" font-size="14" lengthAdjust="spacing" textLength="180" x="528" y="507.127">Total_amount_without_taxes</text><line style="stroke:#181818;stroke-width:0.5;" x1="500" x2="710" y1="515.2031" y2="515.2031"/></g><!--MD5=[98a6dcb6f1d487f88141394690833bd0]
class Total_amount_with_taxes--><g id="elem_Total_amount_with_taxes"><rect fill="#F1F1F1" height="50.7031" id="Total_amount_with_taxes" rx="2.5" ry="2.5" style="stroke:#181818;stroke-width:0.5;" width="192" x="509" y="386.5"/><ellipse cx="524" cy="407.8516" fill="#ADD1B2" rx="11" ry="11" style="stroke:#181818;stroke-width:1.0;"/><path d="M526,404.3516 Q526.2031,403.8516 526.4375,403.6016 Q526.6719,403.3516 526.9375,403.3516 Q527.4063,403.3516 527.7031,403.6328 Q528,403.9141 528,404.5703 L528,406.1328 Q528,406.7891 527.7188,407.0703 Q527.4375,407.3516 527,407.3516 Q526.6094,407.3516 526.3594,407.1797 Q526.1094,407.0078 526,406.5547 Q525.9531,406.2422 525.7813,406.0703 Q525.4688,405.7422 524.9063,405.5547 Q524.3438,405.3516 523.7813,405.3516 Q523.0781,405.3516 522.4844,405.6328 Q521.9063,405.9141 521.4531,406.5391 Q521,407.1641 521,408.0234 L521,408.9453 Q521,409.9766 521.8438,410.6641 Q522.6875,411.3516 524.1875,411.3516 Q525.0781,411.3516 525.7031,411.1484 Q526.0625,411.0391 526.4688,410.6797 Q526.7344,410.4766 526.875,410.4141 Q527.0156,410.3516 527.1875,410.3516 Q527.5156,410.3516 527.75,410.6172 Q528,410.8672 528,411.2266 Q528,411.5703 527.6563,411.9766 Q527.1563,412.5703 526.3594,412.8984 Q525.3125,413.3516 524.0313,413.3516 Q522.5313,413.3516 521.3281,412.7578 Q520.3594,412.2891 519.6719,411.2734 Q519,410.2578 519,409.0547 L519,407.9609 Q519,406.7109 519.5938,405.6172 Q520.2031,404.5234 521.25,403.9453 Q522.3125,403.3516 523.5,403.3516 Q524.2188,403.3516 524.8438,403.6016 Q525.4688,403.8516 526,404.3516 Z " fill="#000000"/><text fill="#000000" font-family="sans-serif" font-size="12" font-style="italic" lengthAdjust="spacing" textLength="81" x="577.5" y="403.957">«value object»</text><text fill="#000000" font-family="sans-serif" font-size="14" lengthAdjust="spacing" textLength="160" x="538" y="421.127">Total_amount_with_taxes</text><line style="stroke:#181818;stroke-width:0.5;" x1="510" x2="700" y1="429.2031" y2="429.2031"/></g><!--MD5=[cda9517f86d5563a6c586dec9582437c]
class Payment_confirmation--><g id="elem_Payment_confirmation"><rect fill="#F1F1F1" height="50.7031" id="Payment_confirmation" rx="2.5" ry="2.5" style="stroke:#181818;stroke-width:0.5;" width="172" x="519" y="300.5"/><ellipse cx="534" cy="321.8516" fill="#ADD1B2" rx="11" ry="11" style="stroke:#181818;stroke-width:1.0;"/><path d="M536,318.3516 Q536.2031,317.8516 536.4375,317.6016 Q536.6719,317.3516 536.9375,317.3516 Q537.4063,317.3516 537.7031,317.6328 Q538,317.9141 538,318.5703 L538,320.1328 Q538,320.7891 537.7188,321.0703 Q537.4375,321.3516 537,321.3516 Q536.6094,321.3516 536.3594,321.1797 Q536.1094,321.0078 536,320.5547 Q535.9531,320.2422 535.7813,320.0703 Q535.4688,319.7422 534.9063,319.5547 Q534.3438,319.3516 533.7813,319.3516 Q533.0781,319.3516 532.4844,319.6328 Q531.9063,319.9141 531.4531,320.5391 Q531,321.1641 531,322.0234 L531,322.9453 Q531,323.9766 531.8438,324.6641 Q532.6875,325.3516 534.1875,325.3516 Q535.0781,325.3516 535.7031,325.1484 Q536.0625,325.0391 536.4688,324.6797 Q536.7344,324.4766 536.875,324.4141 Q537.0156,324.3516 537.1875,324.3516 Q537.5156,324.3516 537.75,324.6172 Q538,324.8672 538,325.2266 Q538,325.5703 537.6563,325.9766 Q537.1563,326.5703 536.3594,326.8984 Q535.3125,327.3516 534.0313,327.3516 Q532.5313,327.3516 531.3281,326.7578 Q530.3594,326.2891 529.6719,325.2734 Q529,324.2578 529,323.0547 L529,321.9609 Q529,320.7109 529.5938,319.6172 Q530.2031,318.5234 531.25,317.9453 Q532.3125,317.3516 533.5,317.3516 Q534.2188,317.3516 534.8438,317.6016 Q535.4688,317.8516 536,318.3516 Z " fill="#000000"/><text fill="#000000" font-family="sans-serif" font-size="12" font-style="italic" lengthAdjust="spacing" textLength="81" x="577.5" y="317.957">«value object»</text><text fill="#000000" font-family="sans-serif" font-size="14" lengthAdjust="spacing" textLength="140" x="548" y="335.127">Payment_confirmation</text><line style="stroke:#181818;stroke-width:0.5;" x1="520" x2="690" y1="343.2031" y2="343.2031"/></g><!--MD5=[55bfef92506fde6eef81af0ffbdd0e10]
class Payment_method--><g id="elem_Payment_method"><rect fill="#F1F1F1" height="50.7031" id="Payment_method" rx="2.5" ry="2.5" style="stroke:#181818;stroke-width:0.5;" width="142" x="534" y="214.5"/><ellipse cx="549" cy="235.8516" fill="#ADD1B2" rx="11" ry="11" style="stroke:#181818;stroke-width:1.0;"/><path d="M551,232.3516 Q551.2031,231.8516 551.4375,231.6016 Q551.6719,231.3516 551.9375,231.3516 Q552.4063,231.3516 552.7031,231.6328 Q553,231.9141 553,232.5703 L553,234.1328 Q553,234.7891 552.7188,235.0703 Q552.4375,235.3516 552,235.3516 Q551.6094,235.3516 551.3594,235.1797 Q551.1094,235.0078 551,234.5547 Q550.9531,234.2422 550.7813,234.0703 Q550.4688,233.7422 549.9063,233.5547 Q549.3438,233.3516 548.7813,233.3516 Q548.0781,233.3516 547.4844,233.6328 Q546.9063,233.9141 546.4531,234.5391 Q546,235.1641 546,236.0234 L546,236.9453 Q546,237.9766 546.8438,238.6641 Q547.6875,239.3516 549.1875,239.3516 Q550.0781,239.3516 550.7031,239.1484 Q551.0625,239.0391 551.4688,238.6797 Q551.7344,238.4766 551.875,238.4141 Q552.0156,238.3516 552.1875,238.3516 Q552.5156,238.3516 552.75,238.6172 Q553,238.8672 553,239.2266 Q553,239.5703 552.6563,239.9766 Q552.1563,240.5703 551.3594,240.8984 Q550.3125,241.3516 549.0313,241.3516 Q547.5313,241.3516 546.3281,240.7578 Q545.3594,240.2891 544.6719,239.2734 Q544,238.2578 544,237.0547 L544,235.9609 Q544,234.7109 544.5938,233.6172 Q545.2031,232.5234 546.25,231.9453 Q547.3125,231.3516 548.5,231.3516 Q549.2188,231.3516 549.8438,231.6016 Q550.4688,231.8516 551,232.3516 Z " fill="#000000"/><text fill="#000000" font-family="sans-serif" font-size="12" font-style="italic" lengthAdjust="spacing" textLength="81" x="577.5" y="231.957">«value object»</text><text fill="#000000" font-family="sans-serif" font-size="14" lengthAdjust="spacing" textLength="110" x="563" y="249.127">Payment_method</text><line style="stroke:#181818;stroke-width:0.5;" x1="535" x2="675" y1="257.2031" y2="257.2031"/></g><!--MD5=[0f39e4cb6f03951afbf6d14bd2505654]
class Address--><g id="elem_Address"><rect fill="#F1F1F1" height="50.7031" id="Address" rx="2.5" ry="2.5" style="stroke:#181818;stroke-width:0.5;" width="109" x="550.5" y="128.5"/><ellipse cx="565.5" cy="149.8516" fill="#ADD1B2" rx="11" ry="11" style="stroke:#181818;stroke-width:1.0;"/><path d="M567.5,146.3516 Q567.7031,145.8516 567.9375,145.6016 Q568.1719,145.3516 568.4375,145.3516 Q568.9063,145.3516 569.2031,145.6328 Q569.5,145.9141 569.5,146.5703 L569.5,148.1328 Q569.5,148.7891 569.2188,149.0703 Q568.9375,149.3516 568.5,149.3516 Q568.1094,149.3516 567.8594,149.1797 Q567.6094,149.0078 567.5,148.5547 Q567.4531,148.2422 567.2813,148.0703 Q566.9688,147.7422 566.4063,147.5547 Q565.8438,147.3516 565.2813,147.3516 Q564.5781,147.3516 563.9844,147.6328 Q563.4063,147.9141 562.9531,148.5391 Q562.5,149.1641 562.5,150.0234 L562.5,150.9453 Q562.5,151.9766 563.3438,152.6641 Q564.1875,153.3516 565.6875,153.3516 Q566.5781,153.3516 567.2031,153.1484 Q567.5625,153.0391 567.9688,152.6797 Q568.2344,152.4766 568.375,152.4141 Q568.5156,152.3516 568.6875,152.3516 Q569.0156,152.3516 569.25,152.6172 Q569.5,152.8672 569.5,153.2266 Q569.5,153.5703 569.1563,153.9766 Q568.6563,154.5703 567.8594,154.8984 Q566.8125,155.3516 565.5313,155.3516 Q564.0313,155.3516 562.8281,154.7578 Q561.8594,154.2891 561.1719,153.2734 Q560.5,152.2578 560.5,151.0547 L560.5,149.9609 Q560.5,148.7109 561.0938,147.6172 Q561.7031,146.5234 562.75,145.9453 Q563.8125,145.3516 565,145.3516 Q565.7188,145.3516 566.3438,145.6016 Q566.9688,145.8516 567.5,146.3516 Z " fill="#000000"/><text fill="#000000" font-family="sans-serif" font-size="12" font-style="italic" lengthAdjust="spacing" textLength="81" x="577.5" y="145.957">«value object»</text><text fill="#000000" font-family="sans-serif" font-size="14" lengthAdjust="spacing" textLength="52" x="592" y="163.127">Address</text><line style="stroke:#181818;stroke-width:0.5;" x1="551.5" x2="658.5" y1="171.2031" y2="171.2031"/></g><!--MD5=[60d6b92408f98aed8df94d5c6e04aa63]
class State--><g id="elem_State"><rect fill="#F1F1F1" height="50.7031" id="State" rx="2.5" ry="2.5" style="stroke:#181818;stroke-width:0.5;" width="74" x="568" y="42.5"/><ellipse cx="583" cy="63.8516" fill="#ADD1B2" rx="11" ry="11" style="stroke:#181818;stroke-width:1.0;"/><path d="M585,60.3516 Q585.2031,59.8516 585.4375,59.6016 Q585.6719,59.3516 585.9375,59.3516 Q586.4063,59.3516 586.7031,59.6328 Q587,59.9141 587,60.5703 L587,62.1328 Q587,62.7891 586.7188,63.0703 Q586.4375,63.3516 586,63.3516 Q585.6094,63.3516 585.3594,63.1797 Q585.1094,63.0078 585,62.5547 Q584.9531,62.2422 584.7813,62.0703 Q584.4688,61.7422 583.9063,61.5547 Q583.3438,61.3516 582.7813,61.3516 Q582.0781,61.3516 581.4844,61.6328 Q580.9063,61.9141 580.4531,62.5391 Q580,63.1641 580,64.0234 L580,64.9453 Q580,65.9766 580.8438,66.6641 Q581.6875,67.3516 583.1875,67.3516 Q584.0781,67.3516 584.7031,67.1484 Q585.0625,67.0391 585.4688,66.6797 Q585.7344,66.4766 585.875,66.4141 Q586.0156,66.3516 586.1875,66.3516 Q586.5156,66.3516 586.75,66.6172 Q587,66.8672 587,67.2266 Q587,67.5703 586.6563,67.9766 Q586.1563,68.5703 585.3594,68.8984 Q584.3125,69.3516 583.0313,69.3516 Q581.5313,69.3516 580.3281,68.7578 Q579.3594,68.2891 578.6719,67.2734 Q578,66.2578 578,65.0547 L578,63.9609 Q578,62.7109 578.5938,61.6172 Q579.2031,60.5234 580.25,59.9453 Q581.3125,59.3516 582.5,59.3516 Q583.2188,59.3516 583.8438,59.6016 Q584.4688,59.8516 585,60.3516 Z " fill="#000000"/><text fill="#000000" font-family="sans-serif" font-size="12" font-style="italic" lengthAdjust="spacing" textLength="46" x="595" y="59.957">«enum»</text><text fill="#000000" font-family="sans-serif" font-size="14" lengthAdjust="spacing" textLength="33" x="601.5" y="77.127">State</text><line style="stroke:#181818;stroke-width:0.5;" x1="569" x2="641" y1="85.2031" y2="85.2031"/></g><!--MD5=[72136138052d025cffdce3c22fbd185f]
class Product--><g id="elem_Product"><rect fill="#F1F1F1" height="50.7031" id="Product" rx="2.5" ry="2.5" style="stroke:#181818;stroke-width:0.5;" width="81" x="564.5" y="772.5"/><ellipse cx="579.5" cy="793.8516" fill="#ADD1B2" rx="11" ry="11" style="stroke:#181818;stroke-width:1.0;"/><path d="M581.5,790.3516 Q581.7031,789.8516 581.9375,789.6016 Q582.1719,789.3516 582.4375,789.3516 Q582.9063,789.3516 583.2031,789.6328 Q583.5,789.9141 583.5,790.5703 L583.5,792.1328 Q583.5,792.7891 583.2188,793.0703 Q582.9375,793.3516 582.5,793.3516 Q582.1094,793.3516 581.8594,793.1797 Q581.6094,793.0078 581.5,792.5547 Q581.4531,792.2422 581.2813,792.0703 Q580.9688,791.7422 580.4063,791.5547 Q579.8438,791.3516 579.2813,791.3516 Q578.5781,791.3516 577.9844,791.6328 Q577.4063,791.9141 576.9531,792.5391 Q576.5,793.1641 576.5,794.0234 L576.5,794.9453 Q576.5,795.9766 577.3438,796.6641 Q578.1875,797.3516 579.6875,797.3516 Q580.5781,797.3516 581.2031,797.1484 Q581.5625,797.0391 581.9688,796.6797 Q582.2344,796.4766 582.375,796.4141 Q582.5156,796.3516 582.6875,796.3516 Q583.0156,796.3516 583.25,796.6172 Q583.5,796.8672 583.5,797.2266 Q583.5,797.5703 583.1563,797.9766 Q582.6563,798.5703 581.8594,798.8984 Q580.8125,799.3516 579.5313,799.3516 Q578.0313,799.3516 576.8281,798.7578 Q575.8594,798.2891 575.1719,797.2734 Q574.5,796.2578 574.5,795.0547 L574.5,793.9609 Q574.5,792.7109 575.0938,791.6172 Q575.7031,790.5234 576.75,789.9453 Q577.8125,789.3516 579,789.3516 Q579.7188,789.3516 580.3438,789.6016 Q580.9688,789.8516 581.5,790.3516 Z " fill="#000000"/><text fill="#000000" font-family="sans-serif" font-size="12" font-style="italic" lengthAdjust="spacing" textLength="43" x="596.5" y="789.957">«entity»</text><text fill="#000000" font-family="sans-serif" font-size="14" lengthAdjust="spacing" textLength="49" x="593.5" y="807.127">Product</text><line style="stroke:#181818;stroke-width:0.5;" x1="565.5" x2="644.5" y1="815.2031" y2="815.2031"/></g><!--MD5=[b8084bbefe35ffcc4a4483270aef6409]
class WarehouseEmployee--><g id="elem_WarehouseEmployee"><rect codeLine="5" fill="#F1F1F1" height="50.7031" id="WarehouseEmployee" rx="2.5" ry="2.5" style="stroke:#181818;stroke-width:0.5;" width="167" x="7" y="386.5"/><ellipse cx="22" cy="407.8516" fill="#ADD1B2" rx="11" ry="11" style="stroke:#181818;stroke-width:1.0;"/><path d="M24,404.3516 Q24.2031,403.8516 24.4375,403.6016 Q24.6719,403.3516 24.9375,403.3516 Q25.4063,403.3516 25.7031,403.6328 Q26,403.9141 26,404.5703 L26,406.1328 Q26,406.7891 25.7188,407.0703 Q25.4375,407.3516 25,407.3516 Q24.6094,407.3516 24.3594,407.1797 Q24.1094,407.0078 24,406.5547 Q23.9531,406.2422 23.7813,406.0703 Q23.4688,405.7422 22.9063,405.5547 Q22.3438,405.3516 21.7813,405.3516 Q21.0781,405.3516 20.4844,405.6328 Q19.9063,405.9141 19.4531,406.5391 Q19,407.1641 19,408.0234 L19,408.9453 Q19,409.9766 19.8438,410.6641 Q20.6875,411.3516 22.1875,411.3516 Q23.0781,411.3516 23.7031,411.1484 Q24.0625,411.0391 24.4688,410.6797 Q24.7344,410.4766 24.875,410.4141 Q25.0156,410.3516 25.1875,410.3516 Q25.5156,410.3516 25.75,410.6172 Q26,410.8672 26,411.2266 Q26,411.5703 25.6563,411.9766 Q25.1563,412.5703 24.3594,412.8984 Q23.3125,413.3516 22.0313,413.3516 Q20.5313,413.3516 19.3281,412.7578 Q18.3594,412.2891 17.6719,411.2734 Q17,410.2578 17,409.0547 L17,407.9609 Q17,406.7109 17.5938,405.6172 Q18.2031,404.5234 19.25,403.9453 Q20.3125,403.3516 21.5,403.3516 Q22.2188,403.3516 22.8438,403.6016 Q23.4688,403.8516 24,404.3516 Z " fill="#000000"/><text fill="#000000" font-family="sans-serif" font-size="12" font-style="italic" lengthAdjust="spacing" textLength="43" x="82" y="403.957">«entity»</text><text fill="#000000" font-family="sans-serif" font-size="14" lengthAdjust="spacing" textLength="135" x="36" y="421.127">WarehouseEmployee</text><line style="stroke:#181818;stroke-width:0.5;" x1="8" x2="173" y1="429.2031" y2="429.2031"/></g><!--MD5=[acd258f9b7259c0e89b8c44a94864dc6]
class PriceWithTaxes--><g id="elem_PriceWithTaxes"><rect fill="#F1F1F1" height="40" id="PriceWithTaxes" rx="2.5" ry="2.5" style="stroke:#181818;stroke-width:0.5;" width="130" x="784" y="740"/><ellipse cx="799" cy="756" fill="#ADD1B2" rx="11" ry="11" style="stroke:#181818;stroke-width:1.0;"/><path d="M801,752.5 Q801.2031,752 801.4375,751.75 Q801.6719,751.5 801.9375,751.5 Q802.4063,751.5 802.7031,751.7813 Q803,752.0625 803,752.7188 L803,754.2813 Q803,754.9375 802.7188,755.2188 Q802.4375,755.5 802,755.5 Q801.6094,755.5 801.3594,755.3281 Q801.1094,755.1563 801,754.7031 Q800.9531,754.3906 800.7813,754.2188 Q800.4688,753.8906 799.9063,753.7031 Q799.3438,753.5 798.7813,753.5 Q798.0781,753.5 797.4844,753.7813 Q796.9063,754.0625 796.4531,754.6875 Q796,755.3125 796,756.1719 L796,757.0938 Q796,758.125 796.8438,758.8125 Q797.6875,759.5 799.1875,759.5 Q800.0781,759.5 800.7031,759.2969 Q801.0625,759.1875 801.4688,758.8281 Q801.7344,758.625 801.875,758.5625 Q802.0156,758.5 802.1875,758.5 Q802.5156,758.5 802.75,758.7656 Q803,759.0156 803,759.375 Q803,759.7188 802.6563,760.125 Q802.1563,760.7188 801.3594,761.0469 Q800.3125,761.5 799.0313,761.5 Q797.5313,761.5 796.3281,760.9063 Q795.3594,760.4375 794.6719,759.4219 Q794,758.4063 794,757.2031 L794,756.1094 Q794,754.8594 794.5938,753.7656 Q795.2031,752.6719 796.25,752.0938 Q797.3125,751.5 798.5,751.5 Q799.2188,751.5 799.8438,751.75 Q800.4688,752 801,752.5 Z " fill="#000000"/><text fill="#000000" font-family="sans-serif" font-size="14" lengthAdjust="spacing" textLength="98" x="813" y="761.7285">PriceWithTaxes</text><line style="stroke:#181818;stroke-width:0.5;" x1="785" x2="913" y1="772" y2="772"/></g><!--MD5=[45e1d1f825d430c6834a15dff33d6c83]
class PriceWithoutTaxes--><g id="elem_PriceWithoutTaxes"><rect fill="#F1F1F1" height="40" id="PriceWithoutTaxes" rx="2.5" ry="2.5" style="stroke:#181818;stroke-width:0.5;" width="150" x="774" y="815"/><ellipse cx="789" cy="831" fill="#ADD1B2" rx="11" ry="11" style="stroke:#181818;stroke-width:1.0;"/><path d="M791,827.5 Q791.2031,827 791.4375,826.75 Q791.6719,826.5 791.9375,826.5 Q792.4063,826.5 792.7031,826.7813 Q793,827.0625 793,827.7188 L793,829.2813 Q793,829.9375 792.7188,830.2188 Q792.4375,830.5 792,830.5 Q791.6094,830.5 791.3594,830.3281 Q791.1094,830.1563 791,829.7031 Q790.9531,829.3906 790.7813,829.2188 Q790.4688,828.8906 789.9063,828.7031 Q789.3438,828.5 788.7813,828.5 Q788.0781,828.5 787.4844,828.7813 Q786.9063,829.0625 786.4531,829.6875 Q786,830.3125 786,831.1719 L786,832.0938 Q786,833.125 786.8438,833.8125 Q787.6875,834.5 789.1875,834.5 Q790.0781,834.5 790.7031,834.2969 Q791.0625,834.1875 791.4688,833.8281 Q791.7344,833.625 791.875,833.5625 Q792.0156,833.5 792.1875,833.5 Q792.5156,833.5 792.75,833.7656 Q793,834.0156 793,834.375 Q793,834.7188 792.6563,835.125 Q792.1563,835.7188 791.3594,836.0469 Q790.3125,836.5 789.0313,836.5 Q787.5313,836.5 786.3281,835.9063 Q785.3594,835.4375 784.6719,834.4219 Q784,833.4063 784,832.2031 L784,831.1094 Q784,829.8594 784.5938,828.7656 Q785.2031,827.6719 786.25,827.0938 Q787.3125,826.5 788.5,826.5 Q789.2188,826.5 789.8438,826.75 Q790.4688,827 791,827.5 Z " fill="#000000"/><text fill="#000000" font-family="sans-serif" font-size="14" lengthAdjust="spacing" textLength="118" x="803" y="836.7285">PriceWithoutTaxes</text><line style="stroke:#181818;stroke-width:0.5;" x1="775" x2="923" y1="847" y2="847"/></g><!--MD5=[3f19434da2385379263a12462a6d5f96]
class Postal--><g id="elem_Postal"><rect fill="#F1F1F1" height="40" id="Postal" rx="2.5" ry="2.5" style="stroke:#181818;stroke-width:0.5;" width="71" x="813.5" y="97"/><ellipse cx="828.5" cy="113" fill="#ADD1B2" rx="11" ry="11" style="stroke:#181818;stroke-width:1.0;"/><path d="M830.5,109.5 Q830.7031,109 830.9375,108.75 Q831.1719,108.5 831.4375,108.5 Q831.9063,108.5 832.2031,108.7813 Q832.5,109.0625 832.5,109.7188 L832.5,111.2813 Q832.5,111.9375 832.2188,112.2188 Q831.9375,112.5 831.5,112.5 Q831.1094,112.5 830.8594,112.3281 Q830.6094,112.1563 830.5,111.7031 Q830.4531,111.3906 830.2813,111.2188 Q829.9688,110.8906 829.4063,110.7031 Q828.8438,110.5 828.2813,110.5 Q827.5781,110.5 826.9844,110.7813 Q826.4063,111.0625 825.9531,111.6875 Q825.5,112.3125 825.5,113.1719 L825.5,114.0938 Q825.5,115.125 826.3438,115.8125 Q827.1875,116.5 828.6875,116.5 Q829.5781,116.5 830.2031,116.2969 Q830.5625,116.1875 830.9688,115.8281 Q831.2344,115.625 831.375,115.5625 Q831.5156,115.5 831.6875,115.5 Q832.0156,115.5 832.25,115.7656 Q832.5,116.0156 832.5,116.375 Q832.5,116.7188 832.1563,117.125 Q831.6563,117.7188 830.8594,118.0469 Q829.8125,118.5 828.5313,118.5 Q827.0313,118.5 825.8281,117.9063 Q824.8594,117.4375 824.1719,116.4219 Q823.5,115.4063 823.5,114.2031 L823.5,113.1094 Q823.5,111.8594 824.0938,110.7656 Q824.7031,109.6719 825.75,109.0938 Q826.8125,108.5 828,108.5 Q828.7188,108.5 829.3438,108.75 Q829.9688,109 830.5,109.5 Z " fill="#000000"/><text fill="#000000" font-family="sans-serif" font-size="14" lengthAdjust="spacing" textLength="39" x="842.5" y="118.7285">Postal</text><line style="stroke:#181818;stroke-width:0.5;" x1="814.5" x2="883.5" y1="129" y2="129"/></g><!--MD5=[f894d23981485fb2823f2cca49f3bfef]
class Billing--><g id="elem_Billing"><rect fill="#F1F1F1" height="40" id="Billing" rx="2.5" ry="2.5" style="stroke:#181818;stroke-width:0.5;" width="69" x="814.5" y="172"/><ellipse cx="829.5" cy="188" fill="#ADD1B2" rx="11" ry="11" style="stroke:#181818;stroke-width:1.0;"/><path d="M831.5,184.5 Q831.7031,184 831.9375,183.75 Q832.1719,183.5 832.4375,183.5 Q832.9063,183.5 833.2031,183.7813 Q833.5,184.0625 833.5,184.7188 L833.5,186.2813 Q833.5,186.9375 833.2188,187.2188 Q832.9375,187.5 832.5,187.5 Q832.1094,187.5 831.8594,187.3281 Q831.6094,187.1563 831.5,186.7031 Q831.4531,186.3906 831.2813,186.2188 Q830.9688,185.8906 830.4063,185.7031 Q829.8438,185.5 829.2813,185.5 Q828.5781,185.5 827.9844,185.7813 Q827.4063,186.0625 826.9531,186.6875 Q826.5,187.3125 826.5,188.1719 L826.5,189.0938 Q826.5,190.125 827.3438,190.8125 Q828.1875,191.5 829.6875,191.5 Q830.5781,191.5 831.2031,191.2969 Q831.5625,191.1875 831.9688,190.8281 Q832.2344,190.625 832.375,190.5625 Q832.5156,190.5 832.6875,190.5 Q833.0156,190.5 833.25,190.7656 Q833.5,191.0156 833.5,191.375 Q833.5,191.7188 833.1563,192.125 Q832.6563,192.7188 831.8594,193.0469 Q830.8125,193.5 829.5313,193.5 Q828.0313,193.5 826.8281,192.9063 Q825.8594,192.4375 825.1719,191.4219 Q824.5,190.4063 824.5,189.2031 L824.5,188.1094 Q824.5,186.8594 825.0938,185.7656 Q825.7031,184.6719 826.75,184.0938 Q827.8125,183.5 829,183.5 Q829.7188,183.5 830.3438,183.75 Q830.9688,184 831.5,184.5 Z " fill="#000000"/><text fill="#000000" font-family="sans-serif" font-size="14" lengthAdjust="spacing" textLength="37" x="843.5" y="193.7285">Billing</text><line style="stroke:#181818;stroke-width:0.5;" x1="815.5" x2="882.5" y1="204" y2="204"/></g><!--MD5=[5df16df72a49edaa4f00919f1e597f76]
link Order to Product--><g id="link_Order_Product"><path codeLine="34" d="M344.11,446.18 C350.3,492.15 366.26,574.93 405,634 C446.25,696.89 519.06,747.87 564.24,775.48 " fill="none" id="Order-Product" style="stroke:#181818;stroke-width:1.0;"/><polygon fill="#000000" points="412.7787,629.3326,410.1953,620.1796,405.3087,623.4462,412.7787,629.3326" style="stroke:#000000;stroke-width:1.0;"/><text fill="#000000" font-family="sans-serif" font-size="13" lengthAdjust="spacing" textLength="49" x="419" y="630.4951">contains</text><text fill="#000000" font-family="sans-serif" font-size="13" lengthAdjust="spacing" textLength="7" x="337.3216" y="467.7194">1</text><text fill="#000000" font-family="sans-serif" font-size="13" lengthAdjust="spacing" textLength="5" x="551.5343" y="786.4465">*</text></g><!--MD5=[a11f8a7c0857caaceb9973075ab12293]
link Order to Shipment_method_cost--><g id="link_Order_Shipment_method_cost"><path codeLine="35" d="M352.4,446.09 C363.34,474.54 381.44,515.27 405,546 C438.55,589.77 451.98,598.18 499,627 C509.5,633.43 521.13,639.29 532.71,644.47 " fill="none" id="Order-Shipment_method_cost" style="stroke:#181818;stroke-width:1.0;"/><polygon fill="#000000" points="427.363,540.8758,423.4541,532.2057,419.1045,536.1591,427.363,540.8758" style="stroke:#000000;stroke-width:1.0;"/><text fill="#000000" font-family="sans-serif" font-size="13" lengthAdjust="spacing" textLength="21" x="433" y="542.4951">has</text><text fill="#000000" font-family="sans-serif" font-size="13" lengthAdjust="spacing" textLength="7" x="347.2506" y="467.8754">1</text><text fill="#000000" font-family="sans-serif" font-size="13" lengthAdjust="spacing" textLength="7" x="506.2888" y="633.4561">1</text></g><!--MD5=[7783cf4f284f6574ffa41cda79f17a0d]
link Product to PriceWithTaxes--><g id="link_Product_PriceWithTaxes"><path codeLine="36" d="M645.69,791.77 C681.64,786.12 735.41,777.68 778.49,770.92 " fill="none" id="Product-to-PriceWithTaxes" style="stroke:#181818;stroke-width:1.0;"/><polygon fill="#181818" points="783.68,770.1,774.1625,767.5668,778.7424,770.8872,775.422,775.467,783.68,770.1" style="stroke:#181818;stroke-width:1.0;"/><text fill="#000000" font-family="sans-serif" font-size="13" lengthAdjust="spacing" textLength="7" x="769.1528" y="785.594">1</text></g><!--MD5=[21fd7c5c88fbb101f84c32fee8a4a5de]
link Product to PriceWithoutTaxes--><g id="link_Product_PriceWithoutTaxes"><path codeLine="37" d="M645.69,804.07 C678.93,809.15 727.42,816.56 768.59,822.86 " fill="none" id="Product-to-PriceWithoutTaxes" style="stroke:#181818;stroke-width:1.0;"/><polygon fill="#181818" points="773.57,823.62,765.2817,818.2998,768.628,822.8608,764.067,826.207,773.57,823.62" style="stroke:#181818;stroke-width:1.0;"/><text fill="#000000" font-family="sans-serif" font-size="13" lengthAdjust="spacing" textLength="7" x="759.047" y="836.8097">1</text></g><!--MD5=[dd2bca8e69277b6dcf04d6bf8fed5dca]
link Order to Address--><g id="link_Order_Address"><path codeLine="38" d="M357.64,377.87 C382.72,331.05 433.65,247.04 499,197 C512.75,186.47 529.44,178.1 545.42,171.65 " fill="none" id="Order-to-Address" style="stroke:#181818;stroke-width:1.0;"/><polygon fill="#181818" points="550.36,169.71,540.5203,169.2863,545.7078,171.5422,543.4519,176.7298,550.36,169.71" style="stroke:#181818;stroke-width:1.0;"/><text fill="#000000" font-family="sans-serif" font-size="13" lengthAdjust="spacing" textLength="7" x="535.5474" y="186.4347">1</text></g><!--MD5=[e2bea74004a34a3ba8f8169b970ae3a8]
reverse link Address to Postal--><g id="link_Address_Postal"><path codeLine="39" d="M679.65,142.74 C724.14,135.94 778.77,127.58 813.49,122.28 " fill="none" id="Address-backto-Postal" style="stroke:#181818;stroke-width:1.0;"/><polygon fill="none" points="680.54,149.69,659.71,145.79,678.42,135.85,680.54,149.69" style="stroke:#181818;stroke-width:1.0;"/></g><!--MD5=[f35a48c44f5e52f9fae94252204d49ad]
reverse link Address to Billing--><g id="link_Address_Billing"><path codeLine="40" d="M679.47,165.54 C724.29,172.58 779.47,181.24 814.2,186.69 " fill="none" id="Address-backto-Billing" style="stroke:#181818;stroke-width:1.0;"/><polygon fill="none" points="678.38,172.45,659.71,162.43,680.55,158.62,678.38,172.45" style="stroke:#181818;stroke-width:1.0;"/></g><!--MD5=[a020cbbbd9d7b08a8e26d5493b8d6bed]
link Order to Customer_id--><g id="link_Order_Customer_id"><path codeLine="41" d="M375.07,445.22 C405.76,473.41 452.78,513.55 499,541 C513.04,549.34 529.01,556.79 544.17,563.05 " fill="none" id="Order-to-Customer_id" style="stroke:#181818;stroke-width:1.0;"/><polygon fill="#181818" points="548.85,564.95,542.0244,557.85,544.2195,563.0635,539.006,565.2587,548.85,564.95" style="stroke:#181818;stroke-width:1.0;"/><text fill="#000000" font-family="sans-serif" font-size="13" lengthAdjust="spacing" textLength="7" x="533.8345" y="577.0038">1</text></g><!--MD5=[8d13b34d3e8a9a0c3dda405bc3ff7bdd]
link Order to Total_amount_without_taxes--><g id="link_Order_Total_amount_without_taxes"><path codeLine="42" d="M375.22,423.33 C412.04,435.35 471.54,454.77 520.63,470.79 " fill="none" id="Order-to-Total_amount_without_taxes" style="stroke:#181818;stroke-width:1.0;"/><polygon fill="#181818" points="525.65,472.43,518.323,465.8486,520.8939,470.8875,515.855,473.4583,525.65,472.43" style="stroke:#181818;stroke-width:1.0;"/><text fill="#000000" font-family="sans-serif" font-size="13" lengthAdjust="spacing" textLength="7" x="498.4553" y="461.8215">1</text></g><!--MD5=[4f81eaa8b5b3d853c9d2cb7da8b69009]
link Order to Total_amount_with_taxes--><g id="link_Order_Total_amount_with_taxes"><path codeLine="43" d="M375.22,412 C407.85,412 458.3,412 503.53,412 " fill="none" id="Order-to-Total_amount_with_taxes" style="stroke:#181818;stroke-width:1.0;"/><polygon fill="#181818" points="508.74,412,499.74,408,503.74,412,499.74,416,508.74,412" style="stroke:#181818;stroke-width:1.0;"/><text fill="#000000" font-family="sans-serif" font-size="13" lengthAdjust="spacing" textLength="7" x="494.1021" y="426.1324">1</text></g><!--MD5=[ea8e6d7b91295ceaf4229b76aea87bb4]
link Order to Payment_method--><g id="link_Order_Payment_method"><path codeLine="44" d="M375.07,378.78 C405.76,350.59 452.78,310.45 499,283 C508.47,277.37 518.82,272.15 529.2,267.43 " fill="none" id="Order-to-Payment_method" style="stroke:#181818;stroke-width:1.0;"/><polygon fill="#181818" points="533.98,265.3,524.1312,265.3315,529.4175,267.3453,527.4036,272.6315,533.98,265.3" style="stroke:#181818;stroke-width:1.0;"/><text fill="#000000" font-family="sans-serif" font-size="13" lengthAdjust="spacing" textLength="7" x="518.8294" y="282.4728">1</text></g><!--MD5=[1b7a817b58e247dd4f1c0e76d5afeb0d]
link Order to Payment_confirmation--><g id="link_Order_Payment_confirmation"><path codeLine="45" d="M375.22,400.67 C412.04,388.65 471.54,369.23 520.63,353.21 " fill="none" id="Order-to-Payment_confirmation" style="stroke:#181818;stroke-width:1.0;"/><polygon fill="#181818" points="525.65,351.57,515.855,350.5417,520.8939,353.1125,518.323,358.1514,525.65,351.57" style="stroke:#181818;stroke-width:1.0;"/><text fill="#000000" font-family="sans-serif" font-size="13" lengthAdjust="spacing" textLength="7" x="503.8923" y="371.1025">1</text></g><!--MD5=[1724ada59dee632394b1e9b70396c85a]
link Order to State--><g id="link_Order_State"><path codeLine="46" d="M348.97,377.97 C366.26,315.59 411.58,182.76 499,111 C517.46,95.84 542,85.4 562.71,78.6 " fill="none" id="Order-to-State" style="stroke:#181818;stroke-width:1.0;"/><polygon fill="#181818" points="567.61,77.03,557.8207,75.9483,562.8456,78.5466,560.2473,83.5714,567.61,77.03" style="stroke:#181818;stroke-width:1.0;"/><text fill="#000000" font-family="sans-serif" font-size="13" lengthAdjust="spacing" textLength="7" x="553.0709" y="93.7248">1</text></g><!--MD5=[e13cafed75ee7c5693bb720213b1bd11]
link WarehouseEmployee to Order--><g id="link_WarehouseEmployee_Order"><path codeLine="49" d="M174.09,412 C218.27,412 270.32,412 303.83,412 " fill="none" id="WarehouseEmployee-Order" style="stroke:#181818;stroke-width:1.0;"/><polygon fill="#000000" points="214,403.1758,204.9549,400.2369,204.9549,406.1147,214,403.1758" style="stroke:#000000;stroke-width:1.0;"/><text fill="#000000" font-family="sans-serif" font-size="13" lengthAdjust="spacing" textLength="53" x="218" y="408.4951">manages</text><text fill="#000000" font-family="sans-serif" font-size="13" lengthAdjust="spacing" textLength="7" x="182.1186" y="426.2625">1</text><text fill="#000000" font-family="sans-serif" font-size="13" lengthAdjust="spacing" textLength="5" x="290.9574" y="427.1491">*</text></g><!--MD5=[683f4947d471dbf5bed7d688b6429d88]
@startuml
hide methods
left to right direction
skinparam classAttributeIconSize 0

class WarehouseEmployee{
}

package "order"{
class Order{
-id
}





WarehouseEmployee <<entity>>
Order <<entity>>
Order <<entity>>
Shipment_method_cost <<value object>>
Customer_id <<value object>>
Total_amount_without_taxes <<value object>>
Total_amount_with_taxes <<value object>>
Payment_confirmation <<value object>>
Payment_method <<value object>>
Address <<value object>>
State <<enum>>

}
package "product"{
Product <<entity>>
}

Order "1" - - "*" Product : contains >
Order "1" - - "1" Shipment_method_cost : has >
Product  - -> "1" PriceWithTaxes
Product  - -> "1" PriceWithoutTaxes
Order  - -> "1" Address
Address <|- - Postal
Address <|- - Billing
Order  - -> "1" Customer_id
Order  - -> "1" Total_amount_without_taxes
Order  - -> "1" Total_amount_with_taxes
Order  - -> "1" Payment_method
Order  - -> "1" Payment_confirmation
Order  - -> "1" State


WarehouseEmployee "1" - - "*" Order : manages >


@enduml

PlantUML version 1.2022.4(Sat Apr 09 14:29:17 BST 2022)
(GPL source distribution)
Java Runtime: OpenJDK Runtime Environment
JVM: OpenJDK 64-Bit Server VM
Default Encoding: Cp1252
Language: pt
Country: PT
--></g></svg>