<?xml version="1.0" encoding="UTF-8" standalone="no"?><svg xmlns="http://www.w3.org/2000/svg" xmlns:xlink="http://www.w3.org/1999/xlink" contentStyleType="text/css" height="1037px" preserveAspectRatio="none" style="width:283px;height:1037px;background:#FFFFFF;" version="1.1" viewBox="0 0 283 1037" width="283px" zoomAndPan="magnify"><defs/><g><!--MD5=[8fd473fd151a2794da4f2c8684676405]
cluster Presentation--><g id="cluster_Presentation"><path d="M33.5,6 L124.5,6 A3.75,3.75 0 0 1 127,8.5 L134,29.6094 L202.5,29.6094 A2.5,2.5 0 0 1 205,32.1094 L205,103.5 A2.5,2.5 0 0 1 202.5,106 L33.5,106 A2.5,2.5 0 0 1 31,103.5 L31,8.5 A2.5,2.5 0 0 1 33.5,6 " style="stroke:#000000;stroke-width:1.5;fill:none;"/><line style="stroke:#000000;stroke-width:1.5;fill:none;" x1="31" x2="134" y1="29.6094" y2="29.6094"/><text fill="#000000" font-family="sans-serif" font-size="14" font-weight="bold" lengthAdjust="spacing" textLength="90" x="35" y="22.5332">Presentation</text></g><!--MD5=[d64883541e3d62e3241c4d12decf100d]
cluster Application--><g id="cluster_Application"><path d="M8.5,130 L87.5,130 A3.75,3.75 0 0 1 90,132.5 L97,153.6094 L227.5,153.6094 A2.5,2.5 0 0 1 230,156.1094 L230,262.5 A2.5,2.5 0 0 1 227.5,265 L8.5,265 A2.5,2.5 0 0 1 6,262.5 L6,132.5 A2.5,2.5 0 0 1 8.5,130 " style="stroke:#000000;stroke-width:1.5;fill:none;"/><line style="stroke:#000000;stroke-width:1.5;fill:none;" x1="6" x2="97" y1="153.6094" y2="153.6094"/><text fill="#000000" font-family="sans-serif" font-size="14" font-weight="bold" lengthAdjust="spacing" textLength="78" x="10" y="146.5332">Application</text></g><!--MD5=[121a8bf1197281ab89ed693fab589f94]
cluster Domain--><g id="cluster_Domain"><path d="M9.5,912 L62.5,912 A3.75,3.75 0 0 1 65,914.5 L72,935.6094 L180.5,935.6094 A2.5,2.5 0 0 1 183,938.1094 L183,1027.5 A2.5,2.5 0 0 1 180.5,1030 L9.5,1030 A2.5,2.5 0 0 1 7,1027.5 L7,914.5 A2.5,2.5 0 0 1 9.5,912 " style="stroke:#000000;stroke-width:1.5;fill:none;"/><line style="stroke:#000000;stroke-width:1.5;fill:none;" x1="7" x2="72" y1="935.6094" y2="935.6094"/><text fill="#000000" font-family="sans-serif" font-size="14" font-weight="bold" lengthAdjust="spacing" textLength="52" x="11" y="928.5332">Domain</text></g><!--MD5=[bc6b40dadbf86ab6a0c8405a467a48af]
cluster Persistence--><g id="cluster_Persistence"><path d="M75.5,334 L160.5,334 A3.75,3.75 0 0 1 163,336.5 L170,357.6094 L256.5,357.6094 A2.5,2.5 0 0 1 259,360.1094 L259,449.5 A2.5,2.5 0 0 1 256.5,452 L75.5,452 A2.5,2.5 0 0 1 73,449.5 L73,336.5 A2.5,2.5 0 0 1 75.5,334 " style="stroke:#000000;stroke-width:1.5;fill:none;"/><line style="stroke:#000000;stroke-width:1.5;fill:none;" x1="73" x2="170" y1="357.6094" y2="357.6094"/><text fill="#000000" font-family="sans-serif" font-size="14" font-weight="bold" lengthAdjust="spacing" textLength="84" x="77" y="350.5332">Persistence</text></g><!--MD5=[0d5799440b3bfefd92b00abfcd2c79b9]
cluster Factory--><g id="cluster_Factory"><path d="M82.5,521 L135.5,521 A3.75,3.75 0 0 1 138,523.5 L145,544.6094 L257.5,544.6094 A2.5,2.5 0 0 1 260,547.1094 L260,618.5 A2.5,2.5 0 0 1 257.5,621 L82.5,621 A2.5,2.5 0 0 1 80,618.5 L80,523.5 A2.5,2.5 0 0 1 82.5,521 " style="stroke:#000000;stroke-width:1.5;fill:none;"/><line style="stroke:#000000;stroke-width:1.5;fill:none;" x1="80" x2="145" y1="544.6094" y2="544.6094"/><text fill="#000000" font-family="sans-serif" font-size="14" font-weight="bold" lengthAdjust="spacing" textLength="52" x="84" y="537.5332">Factory</text></g><!--MD5=[71971f99a41bb66cf321ce46bb59f738]
cluster Repository--><g id="cluster_Repository"><path d="M70.5,690 L147.5,690 A3.75,3.75 0 0 1 150,692.5 L157,713.6094 L273.5,713.6094 A2.5,2.5 0 0 1 276,716.1094 L276,840.5 A2.5,2.5 0 0 1 273.5,843 L70.5,843 A2.5,2.5 0 0 1 68,840.5 L68,692.5 A2.5,2.5 0 0 1 70.5,690 " style="stroke:#000000;stroke-width:1.5;fill:none;"/><line style="stroke:#000000;stroke-width:1.5;fill:none;" x1="68" x2="157" y1="713.6094" y2="713.6094"/><text fill="#000000" font-family="sans-serif" font-size="14" font-weight="bold" lengthAdjust="spacing" textLength="76" x="72" y="706.5332">Repository</text></g><!--MD5=[a56915dc9f0c0bb70668440955450cdb]
class DeliveredOrderUI--><g id="elem_DeliveredOrderUI"><rect codeLine="4" fill="#F1F1F1" height="48" id="DeliveredOrderUI" rx="2.5" ry="2.5" style="stroke:#181818;stroke-width:0.5;" width="141" x="47.5" y="42"/><ellipse cx="62.5" cy="58" fill="#ADD1B2" rx="11" ry="11" style="stroke:#181818;stroke-width:1.0;"/><path d="M64.5,54.5 Q64.7031,54 64.9375,53.75 Q65.1719,53.5 65.4375,53.5 Q65.9063,53.5 66.2031,53.7813 Q66.5,54.0625 66.5,54.7188 L66.5,56.2813 Q66.5,56.9375 66.2188,57.2188 Q65.9375,57.5 65.5,57.5 Q65.1094,57.5 64.8594,57.3281 Q64.6094,57.1563 64.5,56.7031 Q64.4531,56.3906 64.2813,56.2188 Q63.9688,55.8906 63.4063,55.7031 Q62.8438,55.5 62.2813,55.5 Q61.5781,55.5 60.9844,55.7813 Q60.4063,56.0625 59.9531,56.6875 Q59.5,57.3125 59.5,58.1719 L59.5,59.0938 Q59.5,60.125 60.3438,60.8125 Q61.1875,61.5 62.6875,61.5 Q63.5781,61.5 64.2031,61.2969 Q64.5625,61.1875 64.9688,60.8281 Q65.2344,60.625 65.375,60.5625 Q65.5156,60.5 65.6875,60.5 Q66.0156,60.5 66.25,60.7656 Q66.5,61.0156 66.5,61.375 Q66.5,61.7188 66.1563,62.125 Q65.6563,62.7188 64.8594,63.0469 Q63.8125,63.5 62.5313,63.5 Q61.0313,63.5 59.8281,62.9063 Q58.8594,62.4375 58.1719,61.4219 Q57.5,60.4063 57.5,59.2031 L57.5,58.1094 Q57.5,56.8594 58.0938,55.7656 Q58.7031,54.6719 59.75,54.0938 Q60.8125,53.5 62,53.5 Q62.7188,53.5 63.3438,53.75 Q63.9688,54 64.5,54.5 Z " fill="#000000"/><text fill="#000000" font-family="sans-serif" font-size="14" lengthAdjust="spacing" textLength="109" x="76.5" y="63.7285">DeliveredOrderUI</text><line style="stroke:#181818;stroke-width:0.5;" x1="48.5" x2="187.5" y1="74" y2="74"/><line style="stroke:#181818;stroke-width:0.5;" x1="48.5" x2="187.5" y1="82" y2="82"/></g><!--MD5=[9978ba501ccd16cedaf6353e7f3250ca]
class DeliveredOrderController--><g id="elem_DeliveredOrderController"><rect codeLine="8" fill="#F1F1F1" height="83.2188" id="DeliveredOrderController" rx="2.5" ry="2.5" style="stroke:#181818;stroke-width:0.5;" width="191" x="22.5" y="166"/><ellipse cx="37.5" cy="182" fill="#ADD1B2" rx="11" ry="11" style="stroke:#181818;stroke-width:1.0;"/><path d="M39.5,178.5 Q39.7031,178 39.9375,177.75 Q40.1719,177.5 40.4375,177.5 Q40.9063,177.5 41.2031,177.7813 Q41.5,178.0625 41.5,178.7188 L41.5,180.2813 Q41.5,180.9375 41.2188,181.2188 Q40.9375,181.5 40.5,181.5 Q40.1094,181.5 39.8594,181.3281 Q39.6094,181.1563 39.5,180.7031 Q39.4531,180.3906 39.2813,180.2188 Q38.9688,179.8906 38.4063,179.7031 Q37.8438,179.5 37.2813,179.5 Q36.5781,179.5 35.9844,179.7813 Q35.4063,180.0625 34.9531,180.6875 Q34.5,181.3125 34.5,182.1719 L34.5,183.0938 Q34.5,184.125 35.3438,184.8125 Q36.1875,185.5 37.6875,185.5 Q38.5781,185.5 39.2031,185.2969 Q39.5625,185.1875 39.9688,184.8281 Q40.2344,184.625 40.375,184.5625 Q40.5156,184.5 40.6875,184.5 Q41.0156,184.5 41.25,184.7656 Q41.5,185.0156 41.5,185.375 Q41.5,185.7188 41.1563,186.125 Q40.6563,186.7188 39.8594,187.0469 Q38.8125,187.5 37.5313,187.5 Q36.0313,187.5 34.8281,186.9063 Q33.8594,186.4375 33.1719,185.4219 Q32.5,184.4063 32.5,183.2031 L32.5,182.1094 Q32.5,180.8594 33.0938,179.7656 Q33.7031,178.6719 34.75,178.0938 Q35.8125,177.5 37,177.5 Q37.7188,177.5 38.3438,177.75 Q38.9688,178 39.5,178.5 Z " fill="#000000"/><text fill="#000000" font-family="sans-serif" font-size="14" lengthAdjust="spacing" textLength="159" x="51.5" y="187.7285">DeliveredOrderController</text><line style="stroke:#181818;stroke-width:0.5;" x1="23.5" x2="212.5" y1="198" y2="198"/><line style="stroke:#181818;stroke-width:0.5;" x1="23.5" x2="212.5" y1="206" y2="206"/><text fill="#000000" font-family="sans-serif" font-size="14" lengthAdjust="spacing" textLength="176" x="28.5" y="224.5332">+getOrdersToBeDelivered()</text><text fill="#000000" font-family="sans-serif" font-size="14" lengthAdjust="spacing" textLength="159" x="28.5" y="242.1426">+changeStatus(orderdto)</text></g><!--MD5=[cbdbc9de1bbacc23837bd5178e7780ba]
class Product_Order--><g id="elem_Product_Order"><rect codeLine="15" fill="#F1F1F1" height="65.6094" id="Product_Order" rx="2.5" ry="2.5" style="stroke:#181818;stroke-width:0.5;" width="143" x="23.5" y="948"/><ellipse cx="46.15" cy="964" fill="#ADD1B2" rx="11" ry="11" style="stroke:#181818;stroke-width:1.0;"/><path d="M48.15,960.5 Q48.3531,960 48.5875,959.75 Q48.8219,959.5 49.0875,959.5 Q49.5563,959.5 49.8531,959.7813 Q50.15,960.0625 50.15,960.7188 L50.15,962.2813 Q50.15,962.9375 49.8688,963.2188 Q49.5875,963.5 49.15,963.5 Q48.7594,963.5 48.5094,963.3281 Q48.2594,963.1563 48.15,962.7031 Q48.1031,962.3906 47.9313,962.2188 Q47.6188,961.8906 47.0563,961.7031 Q46.4938,961.5 45.9313,961.5 Q45.2281,961.5 44.6344,961.7813 Q44.0563,962.0625 43.6031,962.6875 Q43.15,963.3125 43.15,964.1719 L43.15,965.0938 Q43.15,966.125 43.9938,966.8125 Q44.8375,967.5 46.3375,967.5 Q47.2281,967.5 47.8531,967.2969 Q48.2125,967.1875 48.6188,966.8281 Q48.8844,966.625 49.025,966.5625 Q49.1656,966.5 49.3375,966.5 Q49.6656,966.5 49.9,966.7656 Q50.15,967.0156 50.15,967.375 Q50.15,967.7188 49.8063,968.125 Q49.3063,968.7188 48.5094,969.0469 Q47.4625,969.5 46.1813,969.5 Q44.6813,969.5 43.4781,968.9063 Q42.5094,968.4375 41.8219,967.4219 Q41.15,966.4063 41.15,965.2031 L41.15,964.1094 Q41.15,962.8594 41.7438,961.7656 Q42.3531,960.6719 43.4,960.0938 Q44.4625,959.5 45.65,959.5 Q46.3688,959.5 46.9938,959.75 Q47.6188,960 48.15,960.5 Z " fill="#000000"/><text fill="#000000" font-family="sans-serif" font-size="14" lengthAdjust="spacing" textLength="94" x="61.85" y="969.7285">Product_Order</text><line style="stroke:#181818;stroke-width:0.5;" x1="24.5" x2="165.5" y1="980" y2="980"/><line style="stroke:#181818;stroke-width:0.5;" x1="24.5" x2="165.5" y1="988" y2="988"/><text fill="#000000" font-family="sans-serif" font-size="14" lengthAdjust="spacing" textLength="131" x="29.5" y="1006.5332">+toOrderDTO(order)</text></g><!--MD5=[e8c189551b7885b999ad7cefb30fc2a3]
class PersistenceContext--><g id="elem_PersistenceContext"><rect codeLine="22" fill="#F1F1F1" height="65.6094" id="PersistenceContext" rx="2.5" ry="2.5" style="stroke:#181818;stroke-width:0.5;" width="154" x="89" y="370"/><ellipse cx="104" cy="386" fill="#ADD1B2" rx="11" ry="11" style="stroke:#181818;stroke-width:1.0;"/><path d="M106,382.5 Q106.2031,382 106.4375,381.75 Q106.6719,381.5 106.9375,381.5 Q107.4063,381.5 107.7031,381.7813 Q108,382.0625 108,382.7188 L108,384.2813 Q108,384.9375 107.7188,385.2188 Q107.4375,385.5 107,385.5 Q106.6094,385.5 106.3594,385.3281 Q106.1094,385.1563 106,384.7031 Q105.9531,384.3906 105.7813,384.2188 Q105.4688,383.8906 104.9063,383.7031 Q104.3438,383.5 103.7813,383.5 Q103.0781,383.5 102.4844,383.7813 Q101.9063,384.0625 101.4531,384.6875 Q101,385.3125 101,386.1719 L101,387.0938 Q101,388.125 101.8438,388.8125 Q102.6875,389.5 104.1875,389.5 Q105.0781,389.5 105.7031,389.2969 Q106.0625,389.1875 106.4688,388.8281 Q106.7344,388.625 106.875,388.5625 Q107.0156,388.5 107.1875,388.5 Q107.5156,388.5 107.75,388.7656 Q108,389.0156 108,389.375 Q108,389.7188 107.6563,390.125 Q107.1563,390.7188 106.3594,391.0469 Q105.3125,391.5 104.0313,391.5 Q102.5313,391.5 101.3281,390.9063 Q100.3594,390.4375 99.6719,389.4219 Q99,388.4063 99,387.2031 L99,386.1094 Q99,384.8594 99.5938,383.7656 Q100.2031,382.6719 101.25,382.0938 Q102.3125,381.5 103.5,381.5 Q104.2188,381.5 104.8438,381.75 Q105.4688,382 106,382.5 Z " fill="#000000"/><text fill="#000000" font-family="sans-serif" font-size="14" lengthAdjust="spacing" textLength="122" x="118" y="391.7285">PersistenceContext</text><line style="stroke:#181818;stroke-width:0.5;" x1="90" x2="242" y1="402" y2="402"/><line style="stroke:#181818;stroke-width:0.5;" x1="90" x2="242" y1="410" y2="410"/><text fill="#000000" font-family="sans-serif" font-size="14" lengthAdjust="spacing" textLength="92" x="95" y="428.5332">+repositories()</text></g><!--MD5=[48590afff58a68e2fcba47824d6f8a11]
class RepositoryFactory--><g id="elem_RepositoryFactory"><rect codeLine="28" fill="#F1F1F1" height="48" id="RepositoryFactory" rx="2.5" ry="2.5" style="stroke:#181818;stroke-width:0.5;" width="148" x="96" y="557"/><ellipse cx="111" cy="573" fill="#ADD1B2" rx="11" ry="11" style="stroke:#181818;stroke-width:1.0;"/><path d="M113,569.5 Q113.2031,569 113.4375,568.75 Q113.6719,568.5 113.9375,568.5 Q114.4063,568.5 114.7031,568.7813 Q115,569.0625 115,569.7188 L115,571.2813 Q115,571.9375 114.7188,572.2188 Q114.4375,572.5 114,572.5 Q113.6094,572.5 113.3594,572.3281 Q113.1094,572.1563 113,571.7031 Q112.9531,571.3906 112.7813,571.2188 Q112.4688,570.8906 111.9063,570.7031 Q111.3438,570.5 110.7813,570.5 Q110.0781,570.5 109.4844,570.7813 Q108.9063,571.0625 108.4531,571.6875 Q108,572.3125 108,573.1719 L108,574.0938 Q108,575.125 108.8438,575.8125 Q109.6875,576.5 111.1875,576.5 Q112.0781,576.5 112.7031,576.2969 Q113.0625,576.1875 113.4688,575.8281 Q113.7344,575.625 113.875,575.5625 Q114.0156,575.5 114.1875,575.5 Q114.5156,575.5 114.75,575.7656 Q115,576.0156 115,576.375 Q115,576.7188 114.6563,577.125 Q114.1563,577.7188 113.3594,578.0469 Q112.3125,578.5 111.0313,578.5 Q109.5313,578.5 108.3281,577.9063 Q107.3594,577.4375 106.6719,576.4219 Q106,575.4063 106,574.2031 L106,573.1094 Q106,571.8594 106.5938,570.7656 Q107.2031,569.6719 108.25,569.0938 Q109.3125,568.5 110.5,568.5 Q111.2188,568.5 111.8438,568.75 Q112.4688,569 113,569.5 Z " fill="#000000"/><text fill="#000000" font-family="sans-serif" font-size="14" lengthAdjust="spacing" textLength="116" x="125" y="578.7285">RepositoryFactory</text><line style="stroke:#181818;stroke-width:0.5;" x1="97" x2="243" y1="589" y2="589"/><line style="stroke:#181818;stroke-width:0.5;" x1="97" x2="243" y1="597" y2="597"/></g><!--MD5=[708e328039b60d50c6285936843ac334]
class OrderRepository--><g id="elem_OrderRepository"><rect codeLine="33" fill="#F1F1F1" height="100.8281" id="OrderRepository" rx="2.5" ry="2.5" style="stroke:#181818;stroke-width:0.5;" width="176" x="84" y="726"/><ellipse cx="116.55" cy="742" fill="#ADD1B2" rx="11" ry="11" style="stroke:#181818;stroke-width:1.0;"/><path d="M118.55,738.5 Q118.7531,738 118.9875,737.75 Q119.2219,737.5 119.4875,737.5 Q119.9563,737.5 120.2531,737.7813 Q120.55,738.0625 120.55,738.7188 L120.55,740.2813 Q120.55,740.9375 120.2688,741.2188 Q119.9875,741.5 119.55,741.5 Q119.1594,741.5 118.9094,741.3281 Q118.6594,741.1563 118.55,740.7031 Q118.5031,740.3906 118.3313,740.2188 Q118.0188,739.8906 117.4563,739.7031 Q116.8938,739.5 116.3313,739.5 Q115.6281,739.5 115.0344,739.7813 Q114.4563,740.0625 114.0031,740.6875 Q113.55,741.3125 113.55,742.1719 L113.55,743.0938 Q113.55,744.125 114.3938,744.8125 Q115.2375,745.5 116.7375,745.5 Q117.6281,745.5 118.2531,745.2969 Q118.6125,745.1875 119.0188,744.8281 Q119.2844,744.625 119.425,744.5625 Q119.5656,744.5 119.7375,744.5 Q120.0656,744.5 120.3,744.7656 Q120.55,745.0156 120.55,745.375 Q120.55,745.7188 120.2063,746.125 Q119.7063,746.7188 118.9094,747.0469 Q117.8625,747.5 116.5813,747.5 Q115.0813,747.5 113.8781,746.9063 Q112.9094,746.4375 112.2219,745.4219 Q111.55,744.4063 111.55,743.2031 L111.55,742.1094 Q111.55,740.8594 112.1438,739.7656 Q112.7531,738.6719 113.8,738.0938 Q114.8625,737.5 116.05,737.5 Q116.7688,737.5 117.3938,737.75 Q118.0188,738 118.55,738.5 Z " fill="#000000"/><text fill="#000000" font-family="sans-serif" font-size="14" lengthAdjust="spacing" textLength="105" x="134.45" y="747.7285">OrderRepository</text><line style="stroke:#181818;stroke-width:0.5;" x1="85" x2="259" y1="758" y2="758"/><line style="stroke:#181818;stroke-width:0.5;" x1="85" x2="259" y1="766" y2="766"/><text fill="#000000" font-family="sans-serif" font-size="14" lengthAdjust="spacing" textLength="164" x="90" y="784.5332">+findAllOrderDispatched()</text><text fill="#000000" font-family="sans-serif" font-size="14" lengthAdjust="spacing" textLength="128" x="90" y="802.1426">+findOrderWithid(id)</text><text fill="#000000" font-family="sans-serif" font-size="14" lengthAdjust="spacing" textLength="82" x="90" y="819.752">+save(order)</text></g><!--MD5=[f14f18248dd0d49ac62a92dea360e02a]
link DeliveredOrderUI to DeliveredOrderController--><g id="link_DeliveredOrderUI_DeliveredOrderController"><path codeLine="40" d="M118,90.04 C118,109.17 118,136.99 118,160.64 " fill="none" id="DeliveredOrderUI-to-DeliveredOrderController" style="stroke:#181818;stroke-width:1.0;stroke-dasharray:7.0,7.0;"/><polygon fill="#181818" points="118,165.93,122,156.93,118,160.93,114,156.93,118,165.93" style="stroke:#181818;stroke-width:1.0;"/></g><!--MD5=[db03b43ed445522e133b1cac5b3a247e]
link DeliveredOrderController to PersistenceContext--><g id="link_DeliveredOrderController_PersistenceContext"><path codeLine="41" d="M128.06,249.06 C136.52,283.15 148.5,331.47 156.73,364.62 " fill="none" id="DeliveredOrderController-to-PersistenceContext" style="stroke:#181818;stroke-width:1.0;stroke-dasharray:7.0,7.0;"/><polygon fill="#181818" points="158.01,369.81,159.7346,360.1133,156.8108,364.9559,151.9681,362.0321,158.01,369.81" style="stroke:#181818;stroke-width:1.0;"/></g><!--MD5=[754b775031405e096442b27febffa290]
link PersistenceContext to RepositoryFactory--><g id="link_PersistenceContext_RepositoryFactory"><path codeLine="42" d="M166.73,436.28 C167.48,469.3 168.64,520.11 169.36,551.63 " fill="none" id="PersistenceContext-to-RepositoryFactory" style="stroke:#181818;stroke-width:1.0;stroke-dasharray:7.0,7.0;"/><polygon fill="#181818" points="169.48,556.9,173.2733,547.8109,169.3657,551.9013,165.2754,547.9938,169.48,556.9" style="stroke:#181818;stroke-width:1.0;"/></g><!--MD5=[4961dc0a1f38b4bb8bde6c7779428d74]
link RepositoryFactory to OrderRepository--><g id="link_RepositoryFactory_OrderRepository"><path codeLine="43" d="M170.24,605.34 C170.53,633.72 171.04,682.54 171.43,720.63 " fill="none" id="RepositoryFactory-to-OrderRepository" style="stroke:#181818;stroke-width:1.0;stroke-dasharray:7.0,7.0;"/><polygon fill="#181818" points="171.49,725.69,175.3869,716.6449,171.4329,720.6903,167.3874,716.7363,171.49,725.69" style="stroke:#181818;stroke-width:1.0;"/></g><!--MD5=[f31dda91a4320b0760ffb974baa63960]
link OrderRepository to Product_Order--><g id="link_OrderRepository_Product_Order"><path codeLine="44" d="M153.16,827.04 C139.54,862.86 121.43,910.49 109.06,943.03 " fill="none" id="OrderRepository-to-Product_Order" style="stroke:#181818;stroke-width:1.0;stroke-dasharray:7.0,7.0;"/><polygon fill="#181818" points="107.28,947.71,114.2112,940.713,109.0528,943.0348,106.731,937.8765,107.28,947.71" style="stroke:#181818;stroke-width:1.0;"/></g><!--MD5=[57743d7fb3de1da50e0132bbe29618d9]
link DeliveredOrderController to Product_Order--><g id="link_DeliveredOrderController_Product_Order"><path codeLine="45" d="M87.57,249.16 C62.48,286.78 31,345.28 31,402 C31,402 31,402 31,777.5 C31,837.55 56.91,903.16 75.76,942.95 " fill="none" id="DeliveredOrderController-to-Product_Order" style="stroke:#181818;stroke-width:1.0;stroke-dasharray:7.0,7.0;"/><polygon fill="#181818" points="78.02,947.67,77.7487,937.8249,75.8642,943.1586,70.5305,941.2741,78.02,947.67" style="stroke:#181818;stroke-width:1.0;"/></g><!--MD5=[ddf7a4c9a9308c3d31b98078430c1a01]
@startuml
skinparam classAttributeIconSize 0

package "Presentation"{
class DeliveredOrderUI
}

package "Application"{
class DeliveredOrderController{
+getOrdersToBeDelivered()
+changeStatus(orderdto)
}
}

package "Domain"{
class Product_Order{
+toOrderDTO(order)
}
}


package "Persistence"{
class PersistenceContext{
+repositories()
}
}

package "Factory"{
class RepositoryFactory{
}
}

package "Repository"{
class OrderRepository{
+findAllOrderDispatched()
+findOrderWithid(id)
+save(order)
}

}
DeliveredOrderUI .-> DeliveredOrderController
DeliveredOrderController .- -> PersistenceContext
PersistenceContext .- -> RepositoryFactory
RepositoryFactory .- -> OrderRepository
OrderRepository .- -> Product_Order
DeliveredOrderController .- -> Product_Order


@enduml

PlantUML version 1.2022.4(Sat Apr 09 14:29:17 BST 2022)
(GPL source distribution)
Java Runtime: OpenJDK Runtime Environment
JVM: OpenJDK 64-Bit Server VM
Default Encoding: Cp1252
Language: pt
Country: PT
--></g></svg>