<?xml version="1.0" encoding="UTF-8" standalone="no"?><svg xmlns="http://www.w3.org/2000/svg" xmlns:xlink="http://www.w3.org/1999/xlink" contentStyleType="text/css" height="322px" preserveAspectRatio="none" style="width:550px;height:322px;background:#FFFFFF;" version="1.1" viewBox="0 0 550 322" width="550px" zoomAndPan="magnify"><defs/><g><rect fill="#FFFFFF" height="129.7578" style="stroke:#181818;stroke-width:1.0;" width="10" x="39" y="92.6094"/><rect fill="#FFFFFF" height="30.3516" style="stroke:#181818;stroke-width:1.0;" width="10" x="507" y="131.3125"/><rect fill="#FFFFFF" height="39.3516" style="stroke:#181818;stroke-width:1.0;" width="10" x="507" y="192.0156"/><line style="stroke:#181818;stroke-width:0.5;stroke-dasharray:5.0,5.0;" x1="44" x2="44" y1="82.6094" y2="240.3672"/><line style="stroke:#181818;stroke-width:0.5;stroke-dasharray:5.0,5.0;" x1="512" x2="512" y1="82.6094" y2="240.3672"/><text fill="#000000" font-family="sans-serif" font-size="14" lengthAdjust="spacing" textLength="72" x="5" y="79.5332">Sales Clerk</text><ellipse cx="44" cy="13.5" fill="#E2E2F0" rx="8" ry="8" style="stroke:#181818;stroke-width:0.5;"/><path d="M44,21.5 L44,48.5 M31,29.5 L57,29.5 M44,48.5 L31,63.5 M44,48.5 L57,63.5 " fill="none" style="stroke:#181818;stroke-width:0.5;"/><text fill="#000000" font-family="sans-serif" font-size="14" lengthAdjust="spacing" textLength="72" x="5" y="253.9004">Sales Clerk</text><ellipse cx="44" cy="265.4766" fill="#E2E2F0" rx="8" ry="8" style="stroke:#181818;stroke-width:0.5;"/><path d="M44,273.4766 L44,300.4766 M31,281.4766 L57,281.4766 M44,300.4766 L31,315.4766 M44,300.4766 L57,315.4766 " fill="none" style="stroke:#181818;stroke-width:0.5;"/><rect fill="#E2E2F0" height="31.6094" rx="2.5" ry="2.5" style="stroke:#181818;stroke-width:0.5;" width="64" x="480" y="50"/><text fill="#000000" font-family="sans-serif" font-size="14" lengthAdjust="spacing" textLength="50" x="487" y="71.5332">:System</text><rect fill="#E2E2F0" height="31.6094" rx="2.5" ry="2.5" style="stroke:#181818;stroke-width:0.5;" width="64" x="480" y="239.3672"/><text fill="#000000" font-family="sans-serif" font-size="14" lengthAdjust="spacing" textLength="50" x="487" y="260.9004">:System</text><rect fill="#FFFFFF" height="129.7578" style="stroke:#181818;stroke-width:1.0;" width="10" x="39" y="92.6094"/><rect fill="#FFFFFF" height="30.3516" style="stroke:#181818;stroke-width:1.0;" width="10" x="507" y="131.3125"/><rect fill="#FFFFFF" height="39.3516" style="stroke:#181818;stroke-width:1.0;" width="10" x="507" y="192.0156"/><polygon fill="#181818" points="495,127.3125,505,131.3125,495,135.3125,499,131.3125" style="stroke:#181818;stroke-width:1.0;"/><line style="stroke:#181818;stroke-width:1.0;" x1="49" x2="501" y1="131.3125" y2="131.3125"/><text fill="#000000" font-family="sans-serif" font-size="13" font-weight="bold" lengthAdjust="spacing" textLength="7" x="56" y="118.2803">1</text><text fill="#000000" font-family="sans-serif" font-size="13" lengthAdjust="spacing" textLength="418" x="67" y="110.1045">I want to access the list of orders that had been dispatched for customer</text><text fill="#000000" font-family="sans-serif" font-size="13" lengthAdjust="spacing" textLength="424" x="71" y="126.4561">delivery and be able to update some of those orders to as being delivered.</text><polygon fill="#181818" points="60,157.6641,50,161.6641,60,165.6641,56,161.6641" style="stroke:#181818;stroke-width:1.0;"/><line style="stroke:#181818;stroke-width:1.0;stroke-dasharray:2.0,2.0;" x1="54" x2="511" y1="161.6641" y2="161.6641"/><text fill="#000000" font-family="sans-serif" font-size="13" font-weight="bold" lengthAdjust="spacing" textLength="7" x="66" y="156.8076">2</text><text fill="#000000" font-family="sans-serif" font-size="13" lengthAdjust="spacing" textLength="255" x="77" y="156.8076">asks to select the desired order from the list</text><polygon fill="#181818" points="495,188.0156,505,192.0156,495,196.0156,499,192.0156" style="stroke:#181818;stroke-width:1.0;"/><line style="stroke:#181818;stroke-width:1.0;" x1="49" x2="501" y1="192.0156" y2="192.0156"/><text fill="#000000" font-family="sans-serif" font-size="13" font-weight="bold" lengthAdjust="spacing" textLength="7" x="56" y="187.1592">3</text><text fill="#000000" font-family="sans-serif" font-size="13" lengthAdjust="spacing" textLength="154" x="67" y="187.1592">selects the requested data</text><polygon fill="#181818" points="55,218.3672,45,222.3672,55,226.3672,51,222.3672" style="stroke:#181818;stroke-width:1.0;"/><line style="stroke:#181818;stroke-width:1.0;stroke-dasharray:2.0,2.0;" x1="49" x2="506" y1="222.3672" y2="222.3672"/><text fill="#000000" font-family="sans-serif" font-size="13" font-weight="bold" lengthAdjust="spacing" textLength="7" x="61" y="217.5107">4</text><text fill="#000000" font-family="sans-serif" font-size="13" lengthAdjust="spacing" textLength="152" x="72" y="217.5107">informs operation success</text><!--MD5=[3c0852c698328f9ea94e6f7609026a0c]
@startuml
actor "Sales Clerk" as WE
participant ":System" as System

autonumber
activate WE
WE -> System: I want to access the list of orders that had been dispatched for customer \n delivery and be able to update some of those orders to as being delivered.
activate System
System - -> WE: asks to select the desired order from the list
deactivate System
WE -> System: selects the requested data
activate System
System - -> WE: informs operation success
deactivate WE


@enduml

PlantUML version 1.2022.4(Sat Apr 09 14:29:17 BST 2022)
(GPL source distribution)
Java Runtime: OpenJDK Runtime Environment
JVM: OpenJDK 64-Bit Server VM
Default Encoding: Cp1252
Language: pt
Country: PT
--></g></svg>