<?xml version="1.0" encoding="UTF-8" standalone="no"?><svg xmlns="http://www.w3.org/2000/svg" xmlns:xlink="http://www.w3.org/1999/xlink" contentStyleType="text/css" height="879px" preserveAspectRatio="none" style="width:903px;height:879px;background:#FFFFFF;" version="1.1" viewBox="0 0 903 879" width="903px" zoomAndPan="magnify"><defs/><g><!--MD5=[21278497e3b717440c1992229d7cb5dc]
cluster order--><g id="cluster_order"><path d="M8.5,77 L48.5,77 A3.75,3.75 0 0 1 51,79.5 L58,100.6094 L696.5,100.6094 A2.5,2.5 0 0 1 699,103.1094 L699,869.5 A2.5,2.5 0 0 1 696.5,872 L8.5,872 A2.5,2.5 0 0 1 6,869.5 L6,79.5 A2.5,2.5 0 0 1 8.5,77 " style="stroke:#000000;stroke-width:1.5;fill:none;"/><line style="stroke:#000000;stroke-width:1.5;fill:none;" x1="6" x2="58" y1="100.6094" y2="100.6094"/><text fill="#000000" font-family="sans-serif" font-size="14" font-weight="bold" lengthAdjust="spacing" textLength="39" x="10" y="93.5332">order</text></g><!--MD5=[cf4d6237fcae255cd2e1656cf84a30e2]
class Order--><g id="elem_Order"><rect codeLine="6" fill="#F1F1F1" height="103.5313" id="Order" rx="2.5" ry="2.5" style="stroke:#181818;stroke-width:0.5;" width="122" x="240" y="388"/><ellipse cx="277.95" cy="409.3516" fill="#ADD1B2" rx="11" ry="11" style="stroke:#181818;stroke-width:1.0;"/><path d="M279.95,405.8516 Q280.1531,405.3516 280.3875,405.1016 Q280.6219,404.8516 280.8875,404.8516 Q281.3563,404.8516 281.6531,405.1328 Q281.95,405.4141 281.95,406.0703 L281.95,407.6328 Q281.95,408.2891 281.6688,408.5703 Q281.3875,408.8516 280.95,408.8516 Q280.5594,408.8516 280.3094,408.6797 Q280.0594,408.5078 279.95,408.0547 Q279.9031,407.7422 279.7313,407.5703 Q279.4188,407.2422 278.8563,407.0547 Q278.2938,406.8516 277.7313,406.8516 Q277.0281,406.8516 276.4344,407.1328 Q275.8563,407.4141 275.4031,408.0391 Q274.95,408.6641 274.95,409.5234 L274.95,410.4453 Q274.95,411.4766 275.7938,412.1641 Q276.6375,412.8516 278.1375,412.8516 Q279.0281,412.8516 279.6531,412.6484 Q280.0125,412.5391 280.4188,412.1797 Q280.6844,411.9766 280.825,411.9141 Q280.9656,411.8516 281.1375,411.8516 Q281.4656,411.8516 281.7,412.1172 Q281.95,412.3672 281.95,412.7266 Q281.95,413.0703 281.6063,413.4766 Q281.1063,414.0703 280.3094,414.3984 Q279.2625,414.8516 277.9813,414.8516 Q276.4813,414.8516 275.2781,414.2578 Q274.3094,413.7891 273.6219,412.7734 Q272.95,411.7578 272.95,410.5547 L272.95,409.4609 Q272.95,408.2109 273.5438,407.1172 Q274.1531,406.0234 275.2,405.4453 Q276.2625,404.8516 277.45,404.8516 Q278.1688,404.8516 278.7938,405.1016 Q279.4188,405.3516 279.95,405.8516 Z " fill="#000000"/><text fill="#000000" font-family="sans-serif" font-size="12" font-style="italic" lengthAdjust="spacing" textLength="43" x="295.05" y="405.457">«entity»</text><text fill="#000000" font-family="sans-serif" font-size="14" lengthAdjust="spacing" textLength="37" x="298.05" y="422.627">Order</text><line style="stroke:#181818;stroke-width:0.5;" x1="241" x2="361" y1="430.7031" y2="430.7031"/><text fill="#000000" font-family="sans-serif" font-size="14" lengthAdjust="spacing" textLength="16" x="246" y="449.2363">-id</text><text fill="#000000" font-family="sans-serif" font-size="14" lengthAdjust="spacing" textLength="110" x="246" y="466.8457">-registration_time</text><text fill="#000000" font-family="sans-serif" font-size="14" lengthAdjust="spacing" textLength="36" x="246" y="484.4551">-state</text></g><!--MD5=[c29df52dd5928320aafb26241afd4a45]
class Shipment_method_cost--><g id="elem_Shipment_method_cost"><rect codeLine="14" fill="#F1F1F1" height="103.5313" id="Shipment_method_cost" rx="2.5" ry="2.5" style="stroke:#181818;stroke-width:0.5;" width="180" x="494.5" y="752"/><ellipse cx="509.5" cy="773.3516" fill="#ADD1B2" rx="11" ry="11" style="stroke:#181818;stroke-width:1.0;"/><path d="M511.5,769.8516 Q511.7031,769.3516 511.9375,769.1016 Q512.1719,768.8516 512.4375,768.8516 Q512.9063,768.8516 513.2031,769.1328 Q513.5,769.4141 513.5,770.0703 L513.5,771.6328 Q513.5,772.2891 513.2188,772.5703 Q512.9375,772.8516 512.5,772.8516 Q512.1094,772.8516 511.8594,772.6797 Q511.6094,772.5078 511.5,772.0547 Q511.4531,771.7422 511.2813,771.5703 Q510.9688,771.2422 510.4063,771.0547 Q509.8438,770.8516 509.2813,770.8516 Q508.5781,770.8516 507.9844,771.1328 Q507.4063,771.4141 506.9531,772.0391 Q506.5,772.6641 506.5,773.5234 L506.5,774.4453 Q506.5,775.4766 507.3438,776.1641 Q508.1875,776.8516 509.6875,776.8516 Q510.5781,776.8516 511.2031,776.6484 Q511.5625,776.5391 511.9688,776.1797 Q512.2344,775.9766 512.375,775.9141 Q512.5156,775.8516 512.6875,775.8516 Q513.0156,775.8516 513.25,776.1172 Q513.5,776.3672 513.5,776.7266 Q513.5,777.0703 513.1563,777.4766 Q512.6563,778.0703 511.8594,778.3984 Q510.8125,778.8516 509.5313,778.8516 Q508.0313,778.8516 506.8281,778.2578 Q505.8594,777.7891 505.1719,776.7734 Q504.5,775.7578 504.5,774.5547 L504.5,773.4609 Q504.5,772.2109 505.0938,771.1172 Q505.7031,770.0234 506.75,769.4453 Q507.8125,768.8516 509,768.8516 Q509.7188,768.8516 510.3438,769.1016 Q510.9688,769.3516 511.5,769.8516 Z " fill="#000000"/><text fill="#000000" font-family="sans-serif" font-size="12" font-style="italic" lengthAdjust="spacing" textLength="81" x="557" y="769.457">«value object»</text><text fill="#000000" font-family="sans-serif" font-size="14" lengthAdjust="spacing" textLength="148" x="523.5" y="786.627">Shipment_method_cost</text><line style="stroke:#181818;stroke-width:0.5;" x1="495.5" x2="673.5" y1="794.7031" y2="794.7031"/><text fill="#000000" font-family="sans-serif" font-size="14" lengthAdjust="spacing" textLength="117" x="500.5" y="813.2363">-shipment_method</text><text fill="#000000" font-family="sans-serif" font-size="14" lengthAdjust="spacing" textLength="45" x="500.5" y="830.8457">-weight</text><text fill="#000000" font-family="sans-serif" font-size="14" lengthAdjust="spacing" textLength="50" x="500.5" y="848.4551">-volume</text></g><!--MD5=[259751c62740cd323654d00ec41ecc78]
class SalesClerk--><g id="elem_SalesClerk"><rect codeLine="20" fill="#F1F1F1" height="50.7031" id="SalesClerk" rx="2.5" ry="2.5" style="stroke:#181818;stroke-width:0.5;" width="100" x="22" y="414.5"/><ellipse cx="37" cy="435.8516" fill="#ADD1B2" rx="11" ry="11" style="stroke:#181818;stroke-width:1.0;"/><path d="M39,432.3516 Q39.2031,431.8516 39.4375,431.6016 Q39.6719,431.3516 39.9375,431.3516 Q40.4063,431.3516 40.7031,431.6328 Q41,431.9141 41,432.5703 L41,434.1328 Q41,434.7891 40.7188,435.0703 Q40.4375,435.3516 40,435.3516 Q39.6094,435.3516 39.3594,435.1797 Q39.1094,435.0078 39,434.5547 Q38.9531,434.2422 38.7813,434.0703 Q38.4688,433.7422 37.9063,433.5547 Q37.3438,433.3516 36.7813,433.3516 Q36.0781,433.3516 35.4844,433.6328 Q34.9063,433.9141 34.4531,434.5391 Q34,435.1641 34,436.0234 L34,436.9453 Q34,437.9766 34.8438,438.6641 Q35.6875,439.3516 37.1875,439.3516 Q38.0781,439.3516 38.7031,439.1484 Q39.0625,439.0391 39.4688,438.6797 Q39.7344,438.4766 39.875,438.4141 Q40.0156,438.3516 40.1875,438.3516 Q40.5156,438.3516 40.75,438.6172 Q41,438.8672 41,439.2266 Q41,439.5703 40.6563,439.9766 Q40.1563,440.5703 39.3594,440.8984 Q38.3125,441.3516 37.0313,441.3516 Q35.5313,441.3516 34.3281,440.7578 Q33.3594,440.2891 32.6719,439.2734 Q32,438.2578 32,437.0547 L32,435.9609 Q32,434.7109 32.5938,433.6172 Q33.2031,432.5234 34.25,431.9453 Q35.3125,431.3516 36.5,431.3516 Q37.2188,431.3516 37.8438,431.6016 Q38.4688,431.8516 39,432.3516 Z " fill="#000000"/><text fill="#000000" font-family="sans-serif" font-size="12" font-style="italic" lengthAdjust="spacing" textLength="43" x="63.5" y="431.957">«entity»</text><text fill="#000000" font-family="sans-serif" font-size="14" lengthAdjust="spacing" textLength="68" x="51" y="449.127">SalesClerk</text><line style="stroke:#181818;stroke-width:0.5;" x1="23" x2="121" y1="457.2031" y2="457.2031"/></g><!--MD5=[60d6b92408f98aed8df94d5c6e04aa63]
class State--><g id="elem_State"><rect codeLine="23" fill="#F1F1F1" height="50.7031" id="State" rx="2.5" ry="2.5" style="stroke:#181818;stroke-width:0.5;" width="109" x="530" y="665.5"/><ellipse cx="545" cy="686.8516" fill="#EB937F" rx="11" ry="11" style="stroke:#181818;stroke-width:1.0;"/><path d="M543.5,687.8516 L543.5,689.8516 L547.5,689.8516 L547.5,688.8516 L547.5,688.3672 L548.125,687.8516 L548.5,687.8516 L548.875,687.8516 L549.5,688.3672 L549.5,688.8516 L549.5,691.8516 L541.5,691.8516 L541.0156,691.8516 L540.5,691.2266 L540.5,690.8516 L540.5,690.4766 L541.0156,689.8516 L541.5,689.8516 L541.5,689.8516 L541.5,683.8516 L541.5,683.8516 L541.0156,683.8516 L540.5,683.2266 L540.5,682.8516 L540.5,682.4766 L541.0156,681.8516 L541.5,681.8516 L549.5,681.8516 L549.5,684.8516 L549.5,685.3359 L548.875,685.8516 L548.5,685.8516 L548.125,685.8516 L547.5,685.3359 L547.5,684.8516 L547.5,683.8516 L543.5,683.8516 L543.5,685.8516 L544.5,685.8516 L544.5,685.3672 L544.5,685.3672 L545.125,684.8516 L545.5,684.8516 L545.875,684.8516 L546.5,685.3672 L546.5,685.8516 L546.5,687.8516 L546.5,688.3359 L545.875,688.8516 L545.875,688.8516 L545.5,688.8516 L545.125,688.8516 L544.5,688.3359 L544.5,688.3359 L544.5,687.8516 L543.5,687.8516 Z " fill="#000000"/><text fill="#000000" font-family="sans-serif" font-size="12" font-style="italic" lengthAdjust="spacing" textLength="81" x="557" y="682.957">«value object»</text><text fill="#000000" font-family="sans-serif" font-size="14" lengthAdjust="spacing" textLength="33" x="581" y="700.127">State</text><line style="stroke:#181818;stroke-width:0.5;" x1="531" x2="638" y1="708.2031" y2="708.2031"/></g><!--MD5=[82d64f05644c079a4b442d58ebf2fd25]
class Total_amount--><g id="elem_Total_amount"><rect codeLine="26" fill="#F1F1F1" height="85.9219" id="Total_amount" rx="2.5" ry="2.5" style="stroke:#181818;stroke-width:0.5;" width="197" x="486" y="544"/><ellipse cx="536.75" cy="565.3516" fill="#ADD1B2" rx="11" ry="11" style="stroke:#181818;stroke-width:1.0;"/><path d="M538.75,561.8516 Q538.9531,561.3516 539.1875,561.1016 Q539.4219,560.8516 539.6875,560.8516 Q540.1563,560.8516 540.4531,561.1328 Q540.75,561.4141 540.75,562.0703 L540.75,563.6328 Q540.75,564.2891 540.4688,564.5703 Q540.1875,564.8516 539.75,564.8516 Q539.3594,564.8516 539.1094,564.6797 Q538.8594,564.5078 538.75,564.0547 Q538.7031,563.7422 538.5313,563.5703 Q538.2188,563.2422 537.6563,563.0547 Q537.0938,562.8516 536.5313,562.8516 Q535.8281,562.8516 535.2344,563.1328 Q534.6563,563.4141 534.2031,564.0391 Q533.75,564.6641 533.75,565.5234 L533.75,566.4453 Q533.75,567.4766 534.5938,568.1641 Q535.4375,568.8516 536.9375,568.8516 Q537.8281,568.8516 538.4531,568.6484 Q538.8125,568.5391 539.2188,568.1797 Q539.4844,567.9766 539.625,567.9141 Q539.7656,567.8516 539.9375,567.8516 Q540.2656,567.8516 540.5,568.1172 Q540.75,568.3672 540.75,568.7266 Q540.75,569.0703 540.4063,569.4766 Q539.9063,570.0703 539.1094,570.3984 Q538.0625,570.8516 536.7813,570.8516 Q535.2813,570.8516 534.0781,570.2578 Q533.1094,569.7891 532.4219,568.7734 Q531.75,567.7578 531.75,566.5547 L531.75,565.4609 Q531.75,564.2109 532.3438,563.1172 Q532.9531,562.0234 534,561.4453 Q535.0625,560.8516 536.25,560.8516 Q536.9688,560.8516 537.5938,561.1016 Q538.2188,561.3516 538.75,561.8516 Z " fill="#000000"/><text fill="#000000" font-family="sans-serif" font-size="12" font-style="italic" lengthAdjust="spacing" textLength="81" x="560.25" y="561.457">«value object»</text><text fill="#000000" font-family="sans-serif" font-size="14" lengthAdjust="spacing" textLength="87" x="557.25" y="578.627">Total_amount</text><line style="stroke:#181818;stroke-width:0.5;" x1="487" x2="682" y1="586.7031" y2="586.7031"/><text fill="#000000" font-family="sans-serif" font-size="14" lengthAdjust="spacing" textLength="165" x="492" y="605.2363">-Total_amount_with_taxes</text><text fill="#000000" font-family="sans-serif" font-size="14" lengthAdjust="spacing" textLength="185" x="492" y="622.8457">-Total_amount_without_taxes</text></g><!--MD5=[72136138052d025cffdce3c22fbd185f]
class Product--><g id="elem_Product"><rect fill="#F1F1F1" height="50.7031" id="Product" rx="2.5" ry="2.5" style="stroke:#181818;stroke-width:0.5;" width="81" x="544" y="113.5"/><ellipse cx="559" cy="134.8516" fill="#ADD1B2" rx="11" ry="11" style="stroke:#181818;stroke-width:1.0;"/><path d="M561,131.3516 Q561.2031,130.8516 561.4375,130.6016 Q561.6719,130.3516 561.9375,130.3516 Q562.4063,130.3516 562.7031,130.6328 Q563,130.9141 563,131.5703 L563,133.1328 Q563,133.7891 562.7188,134.0703 Q562.4375,134.3516 562,134.3516 Q561.6094,134.3516 561.3594,134.1797 Q561.1094,134.0078 561,133.5547 Q560.9531,133.2422 560.7813,133.0703 Q560.4688,132.7422 559.9063,132.5547 Q559.3438,132.3516 558.7813,132.3516 Q558.0781,132.3516 557.4844,132.6328 Q556.9063,132.9141 556.4531,133.5391 Q556,134.1641 556,135.0234 L556,135.9453 Q556,136.9766 556.8438,137.6641 Q557.6875,138.3516 559.1875,138.3516 Q560.0781,138.3516 560.7031,138.1484 Q561.0625,138.0391 561.4688,137.6797 Q561.7344,137.4766 561.875,137.4141 Q562.0156,137.3516 562.1875,137.3516 Q562.5156,137.3516 562.75,137.6172 Q563,137.8672 563,138.2266 Q563,138.5703 562.6563,138.9766 Q562.1563,139.5703 561.3594,139.8984 Q560.3125,140.3516 559.0313,140.3516 Q557.5313,140.3516 556.3281,139.7578 Q555.3594,139.2891 554.6719,138.2734 Q554,137.2578 554,136.0547 L554,134.9609 Q554,133.7109 554.5938,132.6172 Q555.2031,131.5234 556.25,130.9453 Q557.3125,130.3516 558.5,130.3516 Q559.2188,130.3516 559.8438,130.6016 Q560.4688,130.8516 561,131.3516 Z " fill="#000000"/><text fill="#000000" font-family="sans-serif" font-size="12" font-style="italic" lengthAdjust="spacing" textLength="43" x="576" y="130.957">«entity»</text><text fill="#000000" font-family="sans-serif" font-size="14" lengthAdjust="spacing" textLength="49" x="573" y="148.127">Product</text><line style="stroke:#181818;stroke-width:0.5;" x1="545" x2="624" y1="156.2031" y2="156.2031"/></g><!--MD5=[2ce0c9fb7f55b1e256ab28a8ea6b25ec]
class Customer--><g id="elem_Customer"><rect fill="#F1F1F1" height="50.7031" id="Customer" rx="2.5" ry="2.5" style="stroke:#181818;stroke-width:0.5;" width="93" x="538" y="371.5"/><ellipse cx="553" cy="392.8516" fill="#ADD1B2" rx="11" ry="11" style="stroke:#181818;stroke-width:1.0;"/><path d="M555,389.3516 Q555.2031,388.8516 555.4375,388.6016 Q555.6719,388.3516 555.9375,388.3516 Q556.4063,388.3516 556.7031,388.6328 Q557,388.9141 557,389.5703 L557,391.1328 Q557,391.7891 556.7188,392.0703 Q556.4375,392.3516 556,392.3516 Q555.6094,392.3516 555.3594,392.1797 Q555.1094,392.0078 555,391.5547 Q554.9531,391.2422 554.7813,391.0703 Q554.4688,390.7422 553.9063,390.5547 Q553.3438,390.3516 552.7813,390.3516 Q552.0781,390.3516 551.4844,390.6328 Q550.9063,390.9141 550.4531,391.5391 Q550,392.1641 550,393.0234 L550,393.9453 Q550,394.9766 550.8438,395.6641 Q551.6875,396.3516 553.1875,396.3516 Q554.0781,396.3516 554.7031,396.1484 Q555.0625,396.0391 555.4688,395.6797 Q555.7344,395.4766 555.875,395.4141 Q556.0156,395.3516 556.1875,395.3516 Q556.5156,395.3516 556.75,395.6172 Q557,395.8672 557,396.2266 Q557,396.5703 556.6563,396.9766 Q556.1563,397.5703 555.3594,397.8984 Q554.3125,398.3516 553.0313,398.3516 Q551.5313,398.3516 550.3281,397.7578 Q549.3594,397.2891 548.6719,396.2734 Q548,395.2578 548,394.0547 L548,392.9609 Q548,391.7109 548.5938,390.6172 Q549.2031,389.5234 550.25,388.9453 Q551.3125,388.3516 552.5,388.3516 Q553.2188,388.3516 553.8438,388.6016 Q554.4688,388.8516 555,389.3516 Z " fill="#000000"/><text fill="#000000" font-family="sans-serif" font-size="12" font-style="italic" lengthAdjust="spacing" textLength="43" x="576" y="388.957">«entity»</text><text fill="#000000" font-family="sans-serif" font-size="14" lengthAdjust="spacing" textLength="61" x="567" y="406.127">Customer</text><line style="stroke:#181818;stroke-width:0.5;" x1="539" x2="630" y1="414.2031" y2="414.2031"/></g><!--MD5=[cda9517f86d5563a6c586dec9582437c]
class Payment_confirmation--><g id="elem_Payment_confirmation"><rect fill="#F1F1F1" height="50.7031" id="Payment_confirmation" rx="2.5" ry="2.5" style="stroke:#181818;stroke-width:0.5;" width="172" x="498.5" y="285.5"/><ellipse cx="513.5" cy="306.8516" fill="#ADD1B2" rx="11" ry="11" style="stroke:#181818;stroke-width:1.0;"/><path d="M515.5,303.3516 Q515.7031,302.8516 515.9375,302.6016 Q516.1719,302.3516 516.4375,302.3516 Q516.9063,302.3516 517.2031,302.6328 Q517.5,302.9141 517.5,303.5703 L517.5,305.1328 Q517.5,305.7891 517.2188,306.0703 Q516.9375,306.3516 516.5,306.3516 Q516.1094,306.3516 515.8594,306.1797 Q515.6094,306.0078 515.5,305.5547 Q515.4531,305.2422 515.2813,305.0703 Q514.9688,304.7422 514.4063,304.5547 Q513.8438,304.3516 513.2813,304.3516 Q512.5781,304.3516 511.9844,304.6328 Q511.4063,304.9141 510.9531,305.5391 Q510.5,306.1641 510.5,307.0234 L510.5,307.9453 Q510.5,308.9766 511.3438,309.6641 Q512.1875,310.3516 513.6875,310.3516 Q514.5781,310.3516 515.2031,310.1484 Q515.5625,310.0391 515.9688,309.6797 Q516.2344,309.4766 516.375,309.4141 Q516.5156,309.3516 516.6875,309.3516 Q517.0156,309.3516 517.25,309.6172 Q517.5,309.8672 517.5,310.2266 Q517.5,310.5703 517.1563,310.9766 Q516.6563,311.5703 515.8594,311.8984 Q514.8125,312.3516 513.5313,312.3516 Q512.0313,312.3516 510.8281,311.7578 Q509.8594,311.2891 509.1719,310.2734 Q508.5,309.2578 508.5,308.0547 L508.5,306.9609 Q508.5,305.7109 509.0938,304.6172 Q509.7031,303.5234 510.75,302.9453 Q511.8125,302.3516 513,302.3516 Q513.7188,302.3516 514.3438,302.6016 Q514.9688,302.8516 515.5,303.3516 Z " fill="#000000"/><text fill="#000000" font-family="sans-serif" font-size="12" font-style="italic" lengthAdjust="spacing" textLength="81" x="557" y="302.957">«value object»</text><text fill="#000000" font-family="sans-serif" font-size="14" lengthAdjust="spacing" textLength="140" x="527.5" y="320.127">Payment_confirmation</text><line style="stroke:#181818;stroke-width:0.5;" x1="499.5" x2="669.5" y1="328.2031" y2="328.2031"/></g><!--MD5=[55bfef92506fde6eef81af0ffbdd0e10]
class Payment_method--><g id="elem_Payment_method"><rect fill="#F1F1F1" height="50.7031" id="Payment_method" rx="2.5" ry="2.5" style="stroke:#181818;stroke-width:0.5;" width="142" x="513.5" y="199.5"/><ellipse cx="528.5" cy="220.8516" fill="#ADD1B2" rx="11" ry="11" style="stroke:#181818;stroke-width:1.0;"/><path d="M530.5,217.3516 Q530.7031,216.8516 530.9375,216.6016 Q531.1719,216.3516 531.4375,216.3516 Q531.9063,216.3516 532.2031,216.6328 Q532.5,216.9141 532.5,217.5703 L532.5,219.1328 Q532.5,219.7891 532.2188,220.0703 Q531.9375,220.3516 531.5,220.3516 Q531.1094,220.3516 530.8594,220.1797 Q530.6094,220.0078 530.5,219.5547 Q530.4531,219.2422 530.2813,219.0703 Q529.9688,218.7422 529.4063,218.5547 Q528.8438,218.3516 528.2813,218.3516 Q527.5781,218.3516 526.9844,218.6328 Q526.4063,218.9141 525.9531,219.5391 Q525.5,220.1641 525.5,221.0234 L525.5,221.9453 Q525.5,222.9766 526.3438,223.6641 Q527.1875,224.3516 528.6875,224.3516 Q529.5781,224.3516 530.2031,224.1484 Q530.5625,224.0391 530.9688,223.6797 Q531.2344,223.4766 531.375,223.4141 Q531.5156,223.3516 531.6875,223.3516 Q532.0156,223.3516 532.25,223.6172 Q532.5,223.8672 532.5,224.2266 Q532.5,224.5703 532.1563,224.9766 Q531.6563,225.5703 530.8594,225.8984 Q529.8125,226.3516 528.5313,226.3516 Q527.0313,226.3516 525.8281,225.7578 Q524.8594,225.2891 524.1719,224.2734 Q523.5,223.2578 523.5,222.0547 L523.5,220.9609 Q523.5,219.7109 524.0938,218.6172 Q524.7031,217.5234 525.75,216.9453 Q526.8125,216.3516 528,216.3516 Q528.7188,216.3516 529.3438,216.6016 Q529.9688,216.8516 530.5,217.3516 Z " fill="#000000"/><text fill="#000000" font-family="sans-serif" font-size="12" font-style="italic" lengthAdjust="spacing" textLength="81" x="557" y="216.957">«value object»</text><text fill="#000000" font-family="sans-serif" font-size="14" lengthAdjust="spacing" textLength="110" x="542.5" y="234.127">Payment_method</text><line style="stroke:#181818;stroke-width:0.5;" x1="514.5" x2="654.5" y1="242.2031" y2="242.2031"/></g><!--MD5=[0f39e4cb6f03951afbf6d14bd2505654]
class Address--><g id="elem_Address"><rect fill="#F1F1F1" height="50.7031" id="Address" rx="2.5" ry="2.5" style="stroke:#181818;stroke-width:0.5;" width="109" x="530" y="457.5"/><ellipse cx="545" cy="478.8516" fill="#ADD1B2" rx="11" ry="11" style="stroke:#181818;stroke-width:1.0;"/><path d="M547,475.3516 Q547.2031,474.8516 547.4375,474.6016 Q547.6719,474.3516 547.9375,474.3516 Q548.4063,474.3516 548.7031,474.6328 Q549,474.9141 549,475.5703 L549,477.1328 Q549,477.7891 548.7188,478.0703 Q548.4375,478.3516 548,478.3516 Q547.6094,478.3516 547.3594,478.1797 Q547.1094,478.0078 547,477.5547 Q546.9531,477.2422 546.7813,477.0703 Q546.4688,476.7422 545.9063,476.5547 Q545.3438,476.3516 544.7813,476.3516 Q544.0781,476.3516 543.4844,476.6328 Q542.9063,476.9141 542.4531,477.5391 Q542,478.1641 542,479.0234 L542,479.9453 Q542,480.9766 542.8438,481.6641 Q543.6875,482.3516 545.1875,482.3516 Q546.0781,482.3516 546.7031,482.1484 Q547.0625,482.0391 547.4688,481.6797 Q547.7344,481.4766 547.875,481.4141 Q548.0156,481.3516 548.1875,481.3516 Q548.5156,481.3516 548.75,481.6172 Q549,481.8672 549,482.2266 Q549,482.5703 548.6563,482.9766 Q548.1563,483.5703 547.3594,483.8984 Q546.3125,484.3516 545.0313,484.3516 Q543.5313,484.3516 542.3281,483.7578 Q541.3594,483.2891 540.6719,482.2734 Q540,481.2578 540,480.0547 L540,478.9609 Q540,477.7109 540.5938,476.6172 Q541.2031,475.5234 542.25,474.9453 Q543.3125,474.3516 544.5,474.3516 Q545.2188,474.3516 545.8438,474.6016 Q546.4688,474.8516 547,475.3516 Z " fill="#000000"/><text fill="#000000" font-family="sans-serif" font-size="12" font-style="italic" lengthAdjust="spacing" textLength="81" x="557" y="474.957">«value object»</text><text fill="#000000" font-family="sans-serif" font-size="14" lengthAdjust="spacing" textLength="52" x="571.5" y="492.127">Address</text><line style="stroke:#181818;stroke-width:0.5;" x1="531" x2="638" y1="500.2031" y2="500.2031"/></g><!--MD5=[acd258f9b7259c0e89b8c44a94864dc6]
class PriceWithTaxes--><g id="elem_PriceWithTaxes"><rect fill="#F1F1F1" height="40" id="PriceWithTaxes" rx="2.5" ry="2.5" style="stroke:#181818;stroke-width:0.5;" width="130" x="756" y="7"/><ellipse cx="771" cy="23" fill="#ADD1B2" rx="11" ry="11" style="stroke:#181818;stroke-width:1.0;"/><path d="M773,19.5 Q773.2031,19 773.4375,18.75 Q773.6719,18.5 773.9375,18.5 Q774.4063,18.5 774.7031,18.7813 Q775,19.0625 775,19.7188 L775,21.2813 Q775,21.9375 774.7188,22.2188 Q774.4375,22.5 774,22.5 Q773.6094,22.5 773.3594,22.3281 Q773.1094,22.1563 773,21.7031 Q772.9531,21.3906 772.7813,21.2188 Q772.4688,20.8906 771.9063,20.7031 Q771.3438,20.5 770.7813,20.5 Q770.0781,20.5 769.4844,20.7813 Q768.9063,21.0625 768.4531,21.6875 Q768,22.3125 768,23.1719 L768,24.0938 Q768,25.125 768.8438,25.8125 Q769.6875,26.5 771.1875,26.5 Q772.0781,26.5 772.7031,26.2969 Q773.0625,26.1875 773.4688,25.8281 Q773.7344,25.625 773.875,25.5625 Q774.0156,25.5 774.1875,25.5 Q774.5156,25.5 774.75,25.7656 Q775,26.0156 775,26.375 Q775,26.7188 774.6563,27.125 Q774.1563,27.7188 773.3594,28.0469 Q772.3125,28.5 771.0313,28.5 Q769.5313,28.5 768.3281,27.9063 Q767.3594,27.4375 766.6719,26.4219 Q766,25.4063 766,24.2031 L766,23.1094 Q766,21.8594 766.5938,20.7656 Q767.2031,19.6719 768.25,19.0938 Q769.3125,18.5 770.5,18.5 Q771.2188,18.5 771.8438,18.75 Q772.4688,19 773,19.5 Z " fill="#000000"/><text fill="#000000" font-family="sans-serif" font-size="14" lengthAdjust="spacing" textLength="98" x="785" y="28.7285">PriceWithTaxes</text><line style="stroke:#181818;stroke-width:0.5;" x1="757" x2="885" y1="39" y2="39"/></g><!--MD5=[45e1d1f825d430c6834a15dff33d6c83]
class PriceWithoutTaxes--><g id="elem_PriceWithoutTaxes"><rect fill="#F1F1F1" height="40" id="PriceWithoutTaxes" rx="2.5" ry="2.5" style="stroke:#181818;stroke-width:0.5;" width="150" x="746" y="82"/><ellipse cx="761" cy="98" fill="#ADD1B2" rx="11" ry="11" style="stroke:#181818;stroke-width:1.0;"/><path d="M763,94.5 Q763.2031,94 763.4375,93.75 Q763.6719,93.5 763.9375,93.5 Q764.4063,93.5 764.7031,93.7813 Q765,94.0625 765,94.7188 L765,96.2813 Q765,96.9375 764.7188,97.2188 Q764.4375,97.5 764,97.5 Q763.6094,97.5 763.3594,97.3281 Q763.1094,97.1563 763,96.7031 Q762.9531,96.3906 762.7813,96.2188 Q762.4688,95.8906 761.9063,95.7031 Q761.3438,95.5 760.7813,95.5 Q760.0781,95.5 759.4844,95.7813 Q758.9063,96.0625 758.4531,96.6875 Q758,97.3125 758,98.1719 L758,99.0938 Q758,100.125 758.8438,100.8125 Q759.6875,101.5 761.1875,101.5 Q762.0781,101.5 762.7031,101.2969 Q763.0625,101.1875 763.4688,100.8281 Q763.7344,100.625 763.875,100.5625 Q764.0156,100.5 764.1875,100.5 Q764.5156,100.5 764.75,100.7656 Q765,101.0156 765,101.375 Q765,101.7188 764.6563,102.125 Q764.1563,102.7188 763.3594,103.0469 Q762.3125,103.5 761.0313,103.5 Q759.5313,103.5 758.3281,102.9063 Q757.3594,102.4375 756.6719,101.4219 Q756,100.4063 756,99.2031 L756,98.1094 Q756,96.8594 756.5938,95.7656 Q757.2031,94.6719 758.25,94.0938 Q759.3125,93.5 760.5,93.5 Q761.2188,93.5 761.8438,93.75 Q762.4688,94 763,94.5 Z " fill="#000000"/><text fill="#000000" font-family="sans-serif" font-size="14" lengthAdjust="spacing" textLength="118" x="775" y="103.7285">PriceWithoutTaxes</text><line style="stroke:#181818;stroke-width:0.5;" x1="747" x2="895" y1="114" y2="114"/></g><!--MD5=[b8ca79fd367f79be7dbbd127290f5300]
class Weight--><g id="elem_Weight"><rect fill="#F1F1F1" height="40" id="Weight" rx="2.5" ry="2.5" style="stroke:#181818;stroke-width:0.5;" width="76" x="783" y="157"/><ellipse cx="798" cy="173" fill="#ADD1B2" rx="11" ry="11" style="stroke:#181818;stroke-width:1.0;"/><path d="M800,169.5 Q800.2031,169 800.4375,168.75 Q800.6719,168.5 800.9375,168.5 Q801.4063,168.5 801.7031,168.7813 Q802,169.0625 802,169.7188 L802,171.2813 Q802,171.9375 801.7188,172.2188 Q801.4375,172.5 801,172.5 Q800.6094,172.5 800.3594,172.3281 Q800.1094,172.1563 800,171.7031 Q799.9531,171.3906 799.7813,171.2188 Q799.4688,170.8906 798.9063,170.7031 Q798.3438,170.5 797.7813,170.5 Q797.0781,170.5 796.4844,170.7813 Q795.9063,171.0625 795.4531,171.6875 Q795,172.3125 795,173.1719 L795,174.0938 Q795,175.125 795.8438,175.8125 Q796.6875,176.5 798.1875,176.5 Q799.0781,176.5 799.7031,176.2969 Q800.0625,176.1875 800.4688,175.8281 Q800.7344,175.625 800.875,175.5625 Q801.0156,175.5 801.1875,175.5 Q801.5156,175.5 801.75,175.7656 Q802,176.0156 802,176.375 Q802,176.7188 801.6563,177.125 Q801.1563,177.7188 800.3594,178.0469 Q799.3125,178.5 798.0313,178.5 Q796.5313,178.5 795.3281,177.9063 Q794.3594,177.4375 793.6719,176.4219 Q793,175.4063 793,174.2031 L793,173.1094 Q793,171.8594 793.5938,170.7656 Q794.2031,169.6719 795.25,169.0938 Q796.3125,168.5 797.5,168.5 Q798.2188,168.5 798.8438,168.75 Q799.4688,169 800,169.5 Z " fill="#000000"/><text fill="#000000" font-family="sans-serif" font-size="14" lengthAdjust="spacing" textLength="44" x="812" y="178.7285">Weight</text><line style="stroke:#181818;stroke-width:0.5;" x1="784" x2="858" y1="189" y2="189"/></g><!--MD5=[0ce2229b8b99a0b06f3a67484dc45f78]
class Volume--><g id="elem_Volume"><rect fill="#F1F1F1" height="40" id="Volume" rx="2.5" ry="2.5" style="stroke:#181818;stroke-width:0.5;" width="79" x="781.5" y="232"/><ellipse cx="796.5" cy="248" fill="#ADD1B2" rx="11" ry="11" style="stroke:#181818;stroke-width:1.0;"/><path d="M798.5,244.5 Q798.7031,244 798.9375,243.75 Q799.1719,243.5 799.4375,243.5 Q799.9063,243.5 800.2031,243.7813 Q800.5,244.0625 800.5,244.7188 L800.5,246.2813 Q800.5,246.9375 800.2188,247.2188 Q799.9375,247.5 799.5,247.5 Q799.1094,247.5 798.8594,247.3281 Q798.6094,247.1563 798.5,246.7031 Q798.4531,246.3906 798.2813,246.2188 Q797.9688,245.8906 797.4063,245.7031 Q796.8438,245.5 796.2813,245.5 Q795.5781,245.5 794.9844,245.7813 Q794.4063,246.0625 793.9531,246.6875 Q793.5,247.3125 793.5,248.1719 L793.5,249.0938 Q793.5,250.125 794.3438,250.8125 Q795.1875,251.5 796.6875,251.5 Q797.5781,251.5 798.2031,251.2969 Q798.5625,251.1875 798.9688,250.8281 Q799.2344,250.625 799.375,250.5625 Q799.5156,250.5 799.6875,250.5 Q800.0156,250.5 800.25,250.7656 Q800.5,251.0156 800.5,251.375 Q800.5,251.7188 800.1563,252.125 Q799.6563,252.7188 798.8594,253.0469 Q797.8125,253.5 796.5313,253.5 Q795.0313,253.5 793.8281,252.9063 Q792.8594,252.4375 792.1719,251.4219 Q791.5,250.4063 791.5,249.2031 L791.5,248.1094 Q791.5,246.8594 792.0938,245.7656 Q792.7031,244.6719 793.75,244.0938 Q794.8125,243.5 796,243.5 Q796.7188,243.5 797.3438,243.75 Q797.9688,244 798.5,244.5 Z " fill="#000000"/><text fill="#000000" font-family="sans-serif" font-size="14" lengthAdjust="spacing" textLength="47" x="810.5" y="253.7285">Volume</text><line style="stroke:#181818;stroke-width:0.5;" x1="782.5" x2="859.5" y1="264" y2="264"/></g><!--MD5=[6f348c1f2887396a65ea6388da50c56a]
class Delivering--><g id="elem_Delivering"><rect fill="#F1F1F1" height="40" id="Delivering" rx="2.5" ry="2.5" style="stroke:#181818;stroke-width:0.5;" width="95" x="773.5" y="426"/><ellipse cx="788.5" cy="442" fill="#ADD1B2" rx="11" ry="11" style="stroke:#181818;stroke-width:1.0;"/><path d="M790.5,438.5 Q790.7031,438 790.9375,437.75 Q791.1719,437.5 791.4375,437.5 Q791.9063,437.5 792.2031,437.7813 Q792.5,438.0625 792.5,438.7188 L792.5,440.2813 Q792.5,440.9375 792.2188,441.2188 Q791.9375,441.5 791.5,441.5 Q791.1094,441.5 790.8594,441.3281 Q790.6094,441.1563 790.5,440.7031 Q790.4531,440.3906 790.2813,440.2188 Q789.9688,439.8906 789.4063,439.7031 Q788.8438,439.5 788.2813,439.5 Q787.5781,439.5 786.9844,439.7813 Q786.4063,440.0625 785.9531,440.6875 Q785.5,441.3125 785.5,442.1719 L785.5,443.0938 Q785.5,444.125 786.3438,444.8125 Q787.1875,445.5 788.6875,445.5 Q789.5781,445.5 790.2031,445.2969 Q790.5625,445.1875 790.9688,444.8281 Q791.2344,444.625 791.375,444.5625 Q791.5156,444.5 791.6875,444.5 Q792.0156,444.5 792.25,444.7656 Q792.5,445.0156 792.5,445.375 Q792.5,445.7188 792.1563,446.125 Q791.6563,446.7188 790.8594,447.0469 Q789.8125,447.5 788.5313,447.5 Q787.0313,447.5 785.8281,446.9063 Q784.8594,446.4375 784.1719,445.4219 Q783.5,444.4063 783.5,443.2031 L783.5,442.1094 Q783.5,440.8594 784.0938,439.7656 Q784.7031,438.6719 785.75,438.0938 Q786.8125,437.5 788,437.5 Q788.7188,437.5 789.3438,437.75 Q789.9688,438 790.5,438.5 Z " fill="#000000"/><text fill="#000000" font-family="sans-serif" font-size="14" lengthAdjust="spacing" textLength="63" x="802.5" y="447.7285">Delivering</text><line style="stroke:#181818;stroke-width:0.5;" x1="774.5" x2="867.5" y1="458" y2="458"/></g><!--MD5=[f894d23981485fb2823f2cca49f3bfef]
class Billing--><g id="elem_Billing"><rect fill="#F1F1F1" height="40" id="Billing" rx="2.5" ry="2.5" style="stroke:#181818;stroke-width:0.5;" width="69" x="786.5" y="501"/><ellipse cx="801.5" cy="517" fill="#ADD1B2" rx="11" ry="11" style="stroke:#181818;stroke-width:1.0;"/><path d="M803.5,513.5 Q803.7031,513 803.9375,512.75 Q804.1719,512.5 804.4375,512.5 Q804.9063,512.5 805.2031,512.7813 Q805.5,513.0625 805.5,513.7188 L805.5,515.2813 Q805.5,515.9375 805.2188,516.2188 Q804.9375,516.5 804.5,516.5 Q804.1094,516.5 803.8594,516.3281 Q803.6094,516.1563 803.5,515.7031 Q803.4531,515.3906 803.2813,515.2188 Q802.9688,514.8906 802.4063,514.7031 Q801.8438,514.5 801.2813,514.5 Q800.5781,514.5 799.9844,514.7813 Q799.4063,515.0625 798.9531,515.6875 Q798.5,516.3125 798.5,517.1719 L798.5,518.0938 Q798.5,519.125 799.3438,519.8125 Q800.1875,520.5 801.6875,520.5 Q802.5781,520.5 803.2031,520.2969 Q803.5625,520.1875 803.9688,519.8281 Q804.2344,519.625 804.375,519.5625 Q804.5156,519.5 804.6875,519.5 Q805.0156,519.5 805.25,519.7656 Q805.5,520.0156 805.5,520.375 Q805.5,520.7188 805.1563,521.125 Q804.6563,521.7188 803.8594,522.0469 Q802.8125,522.5 801.5313,522.5 Q800.0313,522.5 798.8281,521.9063 Q797.8594,521.4375 797.1719,520.4219 Q796.5,519.4063 796.5,518.2031 L796.5,517.1094 Q796.5,515.8594 797.0938,514.7656 Q797.7031,513.6719 798.75,513.0938 Q799.8125,512.5 801,512.5 Q801.7188,512.5 802.3438,512.75 Q802.9688,513 803.5,513.5 Z " fill="#000000"/><text fill="#000000" font-family="sans-serif" font-size="14" lengthAdjust="spacing" textLength="37" x="815.5" y="522.7285">Billing</text><line style="stroke:#181818;stroke-width:0.5;" x1="787.5" x2="854.5" y1="533" y2="533"/></g><!--MD5=[6d6b43bcb7c172e2a2b095b3f4bf26b1]
link SalesClerk to Order--><g id="link_SalesClerk_Order"><path codeLine="45" d="M122.26,440 C156.81,440 203.21,440 239.94,440 " fill="none" id="SalesClerk-Order" style="stroke:#181818;stroke-width:1.0;"/><polygon fill="#000000" points="162,431.1758,152.9549,428.2369,152.9549,434.1147,162,431.1758" style="stroke:#000000;stroke-width:1.0;"/><text fill="#000000" font-family="sans-serif" font-size="13" lengthAdjust="spacing" textLength="43" x="166" y="436.4951">register</text><text fill="#000000" font-family="sans-serif" font-size="13" lengthAdjust="spacing" textLength="7" x="130.156" y="454.7177">1</text><text fill="#000000" font-family="sans-serif" font-size="13" lengthAdjust="spacing" textLength="5" x="227.1936" y="454.5201">*</text></g><!--MD5=[5df16df72a49edaa4f00919f1e597f76]
link Order to Product--><g id="link_Order_Product"><path codeLine="46" d="M327.75,387.85 C358.41,330.49 414.56,238.9 486,182 C503.08,168.4 525.12,158.2 543.93,151.16 " fill="none" id="Order-Product" style="stroke:#181818;stroke-width:1.0;"/><polygon fill="#000000" points="400.372,198.4839,392.102,203.1806,396.4421,207.1446,400.372,198.4839" style="stroke:#000000;stroke-width:1.0;"/><text fill="#000000" font-family="sans-serif" font-size="13" lengthAdjust="spacing" textLength="49" x="406" y="207.4951">contains</text><text fill="#000000" font-family="sans-serif" font-size="13" lengthAdjust="spacing" textLength="7" x="323.8742" y="377.3176">1</text><text fill="#000000" font-family="sans-serif" font-size="13" lengthAdjust="spacing" textLength="5" x="530.989" y="168.4319">*</text></g><!--MD5=[a11f8a7c0857caaceb9973075ab12293]
link Order to Shipment_method_cost--><g id="link_Order_Shipment_method_cost"><path codeLine="47" d="M318.41,492.24 C333.48,535.55 358.56,597.48 392,645 C421.47,686.88 464.69,724.05 502.61,751.91 " fill="none" id="Order-Shipment_method_cost" style="stroke:#181818;stroke-width:1.0;"/><polygon fill="#000000" points="413.8929,640.2539,411.0567,631.1761,406.2625,634.5769,413.8929,640.2539" style="stroke:#000000;stroke-width:1.0;"/><text fill="#000000" font-family="sans-serif" font-size="13" lengthAdjust="spacing" textLength="21" x="420" y="641.4951">has</text><text fill="#000000" font-family="sans-serif" font-size="13" lengthAdjust="spacing" textLength="7" x="313.1053" y="513.1269">1</text><text fill="#000000" font-family="sans-serif" font-size="13" lengthAdjust="spacing" textLength="7" x="483.602" y="741.0126">1</text></g><!--MD5=[7783cf4f284f6574ffa41cda79f17a0d]
link Product to PriceWithTaxes--><g id="link_Product_PriceWithTaxes"><path codeLine="48" d="M625.01,120.13 C665.94,100.58 729.88,70.04 773.28,49.31 " fill="none" id="Product-to-PriceWithTaxes" style="stroke:#181818;stroke-width:1.0;"/><polygon fill="#181818" points="777.95,47.09,768.1049,47.3613,773.4386,49.2458,771.5541,54.5795,777.95,47.09" style="stroke:#181818;stroke-width:1.0;"/><text fill="#000000" font-family="sans-serif" font-size="13" lengthAdjust="spacing" textLength="7" x="757.8578" y="68.5349">1</text></g><!--MD5=[21fd7c5c88fbb101f84c32fee8a4a5de]
link Product to PriceWithoutTaxes--><g id="link_Product_PriceWithoutTaxes"><path codeLine="49" d="M625.01,132.77 C656.49,127.8 701.58,120.68 740.47,114.55 " fill="none" id="Product-to-PriceWithoutTaxes" style="stroke:#181818;stroke-width:1.0;"/><polygon fill="#181818" points="745.67,113.73,736.1608,111.1657,740.7298,114.501,737.3945,119.07,745.67,113.73" style="stroke:#181818;stroke-width:1.0;"/><text fill="#000000" font-family="sans-serif" font-size="13" lengthAdjust="spacing" textLength="7" x="730.9102" y="129.1846">1</text></g><!--MD5=[21c45546ac8489a13fec8a125b2763ab]
link Product to Weight--><g id="link_Product_Weight"><path codeLine="50" d="M625.01,145.4 C667.28,152.25 734.09,163.08 777.48,170.11 " fill="none" id="Product-to-Weight" style="stroke:#181818;stroke-width:1.0;"/><polygon fill="#181818" points="782.65,170.95,774.4047,165.5634,777.7142,170.1511,773.1265,173.4607,782.65,170.95" style="stroke:#181818;stroke-width:1.0;"/><text fill="#000000" font-family="sans-serif" font-size="13" lengthAdjust="spacing" textLength="7" x="767.9339" y="184.8371">1</text></g><!--MD5=[dbba7c99e765cab38348dc0774bd3da3]
link Product to Volume--><g id="link_Product_Volume"><path codeLine="51" d="M625.02,149.2 C649.54,156.43 681.18,167.43 707,182 C726.53,193.02 727.25,201.7 746,214 C755.63,220.32 766.45,226.39 776.77,231.76 " fill="none" id="Product-to-Volume" style="stroke:#181818;stroke-width:1.0;"/><polygon fill="#181818" points="781.48,234.17,775.2969,226.5039,777.0309,231.8884,771.6464,233.6224,781.48,234.17" style="stroke:#181818;stroke-width:1.0;"/><text fill="#000000" font-family="sans-serif" font-size="13" lengthAdjust="spacing" textLength="7" x="766.5482" y="245.8851">1</text></g><!--MD5=[dd2bca8e69277b6dcf04d6bf8fed5dca]
link Order to Address--><g id="link_Order_Address"><path codeLine="52" d="M362.04,449.17 C410.03,456.5 476.92,466.72 524.6,474 " fill="none" id="Order-to-Address" style="stroke:#181818;stroke-width:1.0;"/><polygon fill="#181818" points="529.73,474.79,521.4394,469.4734,524.7876,474.0329,520.2281,477.3812,529.73,474.79" style="stroke:#181818;stroke-width:1.0;"/><text fill="#000000" font-family="sans-serif" font-size="13" lengthAdjust="spacing" textLength="7" x="514.9" y="488.3005">1</text></g><!--MD5=[b8cb112dbaacd49268de50fffcd769f2]
reverse link Address to Delivering--><g id="link_Address_Delivering"><path codeLine="53" d="M658.97,471.41 C696.4,465.5 740.78,458.5 773.46,453.34 " fill="none" id="Address-backto-Delivering" style="stroke:#181818;stroke-width:1.0;"/><polygon fill="none" points="659.85,478.36,639.01,474.56,657.67,464.53,659.85,478.36" style="stroke:#181818;stroke-width:1.0;"/></g><!--MD5=[f35a48c44f5e52f9fae94252204d49ad]
reverse link Address to Billing--><g id="link_Address_Billing"><path codeLine="54" d="M658.78,494.87 C701.42,501.78 753.14,510.17 786.3,515.54 " fill="none" id="Address-backto-Billing" style="stroke:#181818;stroke-width:1.0;"/><polygon fill="none" points="657.63,501.78,639.01,491.67,659.87,487.96,657.63,501.78" style="stroke:#181818;stroke-width:1.0;"/></g><!--MD5=[65622aaf8fcfd7b10df86db327daabc8]
link Order to Customer--><g id="link_Order_Customer"><path codeLine="55" d="M362.04,430.83 C412.83,423.07 484.8,412.08 532.75,404.75 " fill="none" id="Order-to-Customer" style="stroke:#181818;stroke-width:1.0;"/><polygon fill="#181818" points="537.9,403.97,528.3981,401.3788,532.9576,404.7271,529.6094,409.2866,537.9,403.97" style="stroke:#181818;stroke-width:1.0;"/><text fill="#000000" font-family="sans-serif" font-size="13" lengthAdjust="spacing" textLength="7" x="522.9153" y="419.9026">1</text></g><!--MD5=[d632493b7aa33197b9cc0e718a5b0895]
link Order to Total_amount--><g id="link_Order_Total_amount"><path codeLine="56" d="M362.04,471.35 C401.23,491.82 453.02,518.86 496.66,541.65 " fill="none" id="Order-to-Total_amount" style="stroke:#181818;stroke-width:1.0;"/><polygon fill="#181818" points="501.12,543.98,494.9961,536.2665,496.6886,541.6642,491.2909,543.3567,501.12,543.98" style="stroke:#181818;stroke-width:1.0;"/><text fill="#000000" font-family="sans-serif" font-size="13" lengthAdjust="spacing" textLength="7" x="479.7305" y="533.0605">1</text></g><!--MD5=[ea8e6d7b91295ceaf4229b76aea87bb4]
link Order to Payment_method--><g id="link_Order_Payment_method"><path codeLine="57" d="M348.88,387.62 C383.95,350.7 434.55,301.97 486,268 C494.36,262.48 503.54,257.37 512.83,252.75 " fill="none" id="Order-to-Payment_method" style="stroke:#181818;stroke-width:1.0;"/><polygon fill="#181818" points="517.39,250.52,507.5477,250.8794,512.8981,252.7161,511.0614,258.0664,517.39,250.52" style="stroke:#181818;stroke-width:1.0;"/><text fill="#000000" font-family="sans-serif" font-size="13" lengthAdjust="spacing" textLength="7" x="498.6952" y="269.6206">1</text></g><!--MD5=[1b7a817b58e247dd4f1c0e76d5afeb0d]
link Order to Payment_confirmation--><g id="link_Order_Payment_confirmation"><path codeLine="58" d="M362.34,411.39 C398.19,394.5 444.58,372.81 486,354 C496.98,349.01 508.69,343.78 520.05,338.74 " fill="none" id="Order-to-Payment_confirmation" style="stroke:#181818;stroke-width:1.0;"/><polygon fill="#181818" points="524.89,336.6,515.0411,336.5943,520.3198,338.628,518.286,343.9067,524.89,336.6" style="stroke:#181818;stroke-width:1.0;"/><text fill="#000000" font-family="sans-serif" font-size="13" lengthAdjust="spacing" textLength="7" x="504.0847" y="357.516">1</text></g><!--MD5=[1724ada59dee632394b1e9b70396c85a]
link Order to State--><g id="link_Order_State"><path codeLine="59" d="M338.13,492.34 C371.99,538.26 426.24,604.34 486,648 C497.77,656.6 511.54,663.98 524.96,670.08 " fill="none" id="Order-to-State" style="stroke:#181818;stroke-width:1.0;"/><polygon fill="#181818" points="529.88,672.27,523.276,664.9633,525.3098,670.242,520.0311,672.2757,529.88,672.27" style="stroke:#181818;stroke-width:1.0;"/><text fill="#000000" font-family="sans-serif" font-size="13" lengthAdjust="spacing" textLength="7" x="515.0701" y="684.3668">1</text></g><!--MD5=[2390fe7315ccb762381edb21e590c217]
@startuml
hide methods
left to right direction
skinparam classAttributeIconSize 0

package "order"{
class Order{
- id
- registration_time
- state
}



class Shipment_method_cost{
-shipment_method
-weight
-volume
}

class SalesClerk{
}

enum State{
}

class Total_amount{
-Total_amount_with_taxes
-Total_amount_without_taxes
}


Order <<entity>>
SalesClerk <<entity>>
Product <<entity>>
Customer <<entity>>
Shipment_method_cost <<value object>>
Total_amount <<value object>>
Payment_confirmation <<value object>>
Payment_method <<value object>>
Address <<value object>>
State <<value object>>
}


SalesClerk "1" - - "*" Order : register >
Order "1" - - "*" Product : contains >
Order "1" - - "1" Shipment_method_cost : has >
Product  - -> "1" PriceWithTaxes
Product  - -> "1" PriceWithoutTaxes
Product  - -> "1" Weight
Product  - -> "1" Volume
Order  - -> "1" Address
Address <|- - Delivering
Address <|- - Billing
Order  - -> "1" Customer
Order  - -> "1" Total_amount
Order  - -> "1" Payment_method
Order  - -> "1" Payment_confirmation
Order  - -> "1" State


@enduml

PlantUML version 1.2022.4(Sat Apr 09 14:29:17 BST 2022)
(GPL source distribution)
Java Runtime: OpenJDK Runtime Environment
JVM: OpenJDK 64-Bit Server VM
Default Encoding: Cp1252
Language: pt
Country: PT
--></g></svg>