<?xml version="1.0" encoding="UTF-8" standalone="no"?><svg xmlns="http://www.w3.org/2000/svg" xmlns:xlink="http://www.w3.org/1999/xlink" contentStyleType="text/css" height="1007px" preserveAspectRatio="none" style="width:1953px;height:1007px;background:#FFFFFF;" version="1.1" viewBox="0 0 1953 1007" width="1953px" zoomAndPan="magnify"><defs/><g><!--MD5=[87a839285c4e636151e0ab9ef5595388]
cluster product--><g id="cluster_product"><path d="M8.5,519 L64.5,519 A3.75,3.75 0 0 1 67,521.5 L74,542.6094 L514.5,542.6094 A2.5,2.5 0 0 1 517,545.1094 L517,998 A2.5,2.5 0 0 1 514.5,1000.5 L8.5,1000.5 A2.5,2.5 0 0 1 6,998 L6,521.5 A2.5,2.5 0 0 1 8.5,519 " style="stroke:#000000;stroke-width:1.5;fill:none;"/><line style="stroke:#000000;stroke-width:1.5;fill:none;" x1="6" x2="74" y1="542.6094" y2="542.6094"/><text fill="#000000" font-family="sans-serif" font-size="14" font-weight="bold" lengthAdjust="spacing" textLength="55" x="10" y="535.5332">product</text></g><!--MD5=[01ab03dc48954841470cf80d9642362a]
cluster product.presentation--><g id="cluster_product.presentation"><path d="M32.5,580.5 L182.5,580.5 A3.75,3.75 0 0 1 185,583 L192,604.1094 L192.5,604.1094 A2.5,2.5 0 0 1 195,606.6094 L195,678 A2.5,2.5 0 0 1 192.5,680.5 L32.5,680.5 A2.5,2.5 0 0 1 30,678 L30,583 A2.5,2.5 0 0 1 32.5,580.5 " style="stroke:#000000;stroke-width:1.5;fill:none;"/><line style="stroke:#000000;stroke-width:1.5;fill:none;" x1="30" x2="192" y1="604.1094" y2="604.1094"/><text fill="#000000" font-family="sans-serif" font-size="14" font-weight="bold" lengthAdjust="spacing" textLength="149" x="34" y="597.0332">product.presentation</text></g><!--MD5=[28fa8d3aff3e2560059603ef89a3befc]
cluster product.Persistence--><g id="cluster_product.Persistence"><path d="M221.5,563 L365.5,563 A3.75,3.75 0 0 1 368,565.5 L375,586.6094 L490.5,586.6094 A2.5,2.5 0 0 1 493,589.1094 L493,695.5 A2.5,2.5 0 0 1 490.5,698 L221.5,698 A2.5,2.5 0 0 1 219,695.5 L219,565.5 A2.5,2.5 0 0 1 221.5,563 " style="stroke:#000000;stroke-width:1.5;fill:none;"/><line style="stroke:#000000;stroke-width:1.5;fill:none;" x1="219" x2="375" y1="586.6094" y2="586.6094"/><text fill="#000000" font-family="sans-serif" font-size="14" font-weight="bold" lengthAdjust="spacing" textLength="143" x="223" y="579.5332">product.Persistence</text></g><!--MD5=[5ce6fff06e53b3d16821f1b2eda1ff3f]
cluster product.domain--><g id="cluster_product.domain"><path d="M295.5,876.5 L406.5,876.5 A3.75,3.75 0 0 1 409,879 L416,900.1094 L416.5,900.1094 A2.5,2.5 0 0 1 419,902.6094 L419,974 A2.5,2.5 0 0 1 416.5,976.5 L295.5,976.5 A2.5,2.5 0 0 1 293,974 L293,879 A2.5,2.5 0 0 1 295.5,876.5 " style="stroke:#000000;stroke-width:1.5;fill:none;"/><line style="stroke:#000000;stroke-width:1.5;fill:none;" x1="293" x2="416" y1="900.1094" y2="900.1094"/><text fill="#000000" font-family="sans-serif" font-size="14" font-weight="bold" lengthAdjust="spacing" textLength="110" x="297" y="893.0332">product.domain</text></g><!--MD5=[b5e3361e2a5f8dd2cdf2e5f0d87d6906]
cluster customer--><g id="cluster_customer"><path d="M1384.5,333 L1451.5,333 A3.75,3.75 0 0 1 1454,335.5 L1461,356.6094 L1943.5,356.6094 A2.5,2.5 0 0 1 1946,359.1094 L1946,850 A2.5,2.5 0 0 1 1943.5,852.5 L1384.5,852.5 A2.5,2.5 0 0 1 1382,850 L1382,335.5 A2.5,2.5 0 0 1 1384.5,333 " style="stroke:#000000;stroke-width:1.5;fill:none;"/><line style="stroke:#000000;stroke-width:1.5;fill:none;" x1="1382" x2="1461" y1="356.6094" y2="356.6094"/><text fill="#000000" font-family="sans-serif" font-size="14" font-weight="bold" lengthAdjust="spacing" textLength="66" x="1386" y="349.5332">customer</text></g><!--MD5=[e7226d97a3ee650fc8de7e4b47ac1a9f]
cluster customer.presentation--><g id="cluster_customer.presentation"><path d="M1734.5,386 L1895.5,386 A3.75,3.75 0 0 1 1898,388.5 L1905,409.6094 L1919.5,409.6094 A2.5,2.5 0 0 1 1922,412.1094 L1922,483.5 A2.5,2.5 0 0 1 1919.5,486 L1734.5,486 A2.5,2.5 0 0 1 1732,483.5 L1732,388.5 A2.5,2.5 0 0 1 1734.5,386 " style="stroke:#000000;stroke-width:1.5;fill:none;"/><line style="stroke:#000000;stroke-width:1.5;fill:none;" x1="1732" x2="1905" y1="409.6094" y2="409.6094"/><text fill="#000000" font-family="sans-serif" font-size="14" font-weight="bold" lengthAdjust="spacing" textLength="160" x="1736" y="402.5332">customer.presentation</text></g><!--MD5=[2589d54b33e6307a1621864259def7ba]
cluster customer.persistence--><g id="cluster_customer.persistence"><path d="M1408.5,377 L1563.5,377 A3.75,3.75 0 0 1 1566,379.5 L1573,400.6094 L1705.5,400.6094 A2.5,2.5 0 0 1 1708,403.1094 L1708,492.5 A2.5,2.5 0 0 1 1705.5,495 L1408.5,495 A2.5,2.5 0 0 1 1406,492.5 L1406,379.5 A2.5,2.5 0 0 1 1408.5,377 " style="stroke:#000000;stroke-width:1.5;fill:none;"/><line style="stroke:#000000;stroke-width:1.5;fill:none;" x1="1406" x2="1573" y1="400.6094" y2="400.6094"/><text fill="#000000" font-family="sans-serif" font-size="14" font-weight="bold" lengthAdjust="spacing" textLength="154" x="1410" y="393.5332">customer.persistence</text></g><!--MD5=[f1ee21af2f362fe51244e3de6a6ad5b3]
cluster customer.domain--><g id="cluster_customer.domain"><path d="M1491.5,728.5 L1613.5,728.5 A3.75,3.75 0 0 1 1616,731 L1623,752.1094 L1623.5,752.1094 A2.5,2.5 0 0 1 1626,754.6094 L1626,826 A2.5,2.5 0 0 1 1623.5,828.5 L1491.5,828.5 A2.5,2.5 0 0 1 1489,826 L1489,731 A2.5,2.5 0 0 1 1491.5,728.5 " style="stroke:#000000;stroke-width:1.5;fill:none;"/><line style="stroke:#000000;stroke-width:1.5;fill:none;" x1="1489" x2="1623" y1="752.1094" y2="752.1094"/><text fill="#000000" font-family="sans-serif" font-size="14" font-weight="bold" lengthAdjust="spacing" textLength="121" x="1493" y="745.0332">customer.domain</text></g><!--MD5=[21278497e3b717440c1992229d7cb5dc]
cluster order--><g id="cluster_order"><path d="M844.5,6 L884.5,6 A3.75,3.75 0 0 1 887,8.5 L894,29.6094 L1355.5,29.6094 A2.5,2.5 0 0 1 1358,32.1094 L1358,702 A2.5,2.5 0 0 1 1355.5,704.5 L844.5,704.5 A2.5,2.5 0 0 1 842,702 L842,8.5 A2.5,2.5 0 0 1 844.5,6 " style="stroke:#000000;stroke-width:1.5;fill:none;"/><line style="stroke:#000000;stroke-width:1.5;fill:none;" x1="842" x2="894" y1="29.6094" y2="29.6094"/><text fill="#000000" font-family="sans-serif" font-size="14" font-weight="bold" lengthAdjust="spacing" textLength="39" x="846" y="22.5332">order</text></g><!--MD5=[8fd473fd151a2794da4f2c8684676405]
cluster Presentation--><g id="cluster_Presentation"><path d="M893.5,50 L984.5,50 A3.75,3.75 0 0 1 987,52.5 L994,73.6094 L1112.5,73.6094 A2.5,2.5 0 0 1 1115,76.1094 L1115,147.5 A2.5,2.5 0 0 1 1112.5,150 L893.5,150 A2.5,2.5 0 0 1 891,147.5 L891,52.5 A2.5,2.5 0 0 1 893.5,50 " style="stroke:#000000;stroke-width:1.5;fill:none;"/><line style="stroke:#000000;stroke-width:1.5;fill:none;" x1="891" x2="994" y1="73.6094" y2="73.6094"/><text fill="#000000" font-family="sans-serif" font-size="14" font-weight="bold" lengthAdjust="spacing" textLength="90" x="895" y="66.5332">Presentation</text></g><!--MD5=[d64883541e3d62e3241c4d12decf100d]
cluster Application--><g id="cluster_Application"><path d="M868.5,191.5 L947.5,191.5 A3.75,3.75 0 0 1 950,194 L957,215.1094 L1137.5,215.1094 A2.5,2.5 0 0 1 1140,217.6094 L1140,289 A2.5,2.5 0 0 1 1137.5,291.5 L868.5,291.5 A2.5,2.5 0 0 1 866,289 L866,194 A2.5,2.5 0 0 1 868.5,191.5 " style="stroke:#000000;stroke-width:1.5;fill:none;"/><line style="stroke:#000000;stroke-width:1.5;fill:none;" x1="866" x2="957" y1="215.1094" y2="215.1094"/><text fill="#000000" font-family="sans-serif" font-size="14" font-weight="bold" lengthAdjust="spacing" textLength="78" x="870" y="208.0332">Application</text></g><!--MD5=[121a8bf1197281ab89ed693fab589f94]
cluster Domain--><g id="cluster_Domain"><path d="M1049.5,580.5 L1102.5,580.5 A3.75,3.75 0 0 1 1105,583 L1112,604.1094 L1202.5,604.1094 A2.5,2.5 0 0 1 1205,606.6094 L1205,678 A2.5,2.5 0 0 1 1202.5,680.5 L1049.5,680.5 A2.5,2.5 0 0 1 1047,678 L1047,583 A2.5,2.5 0 0 1 1049.5,580.5 " style="stroke:#000000;stroke-width:1.5;fill:none;"/><line style="stroke:#000000;stroke-width:1.5;fill:none;" x1="1047" x2="1112" y1="604.1094" y2="604.1094"/><text fill="#000000" font-family="sans-serif" font-size="14" font-weight="bold" lengthAdjust="spacing" textLength="52" x="1051" y="597.0332">Domain</text></g><!--MD5=[71971f99a41bb66cf321ce46bb59f738]
cluster Repository--><g id="cluster_Repository"><path d="M1166.5,174 L1243.5,174 A3.75,3.75 0 0 1 1246,176.5 L1253,197.6094 L1331.5,197.6094 A2.5,2.5 0 0 1 1334,200.1094 L1334,306.5 A2.5,2.5 0 0 1 1331.5,309 L1166.5,309 A2.5,2.5 0 0 1 1164,306.5 L1164,176.5 A2.5,2.5 0 0 1 1166.5,174 " style="stroke:#000000;stroke-width:1.5;fill:none;"/><line style="stroke:#000000;stroke-width:1.5;fill:none;" x1="1164" x2="1253" y1="197.6094" y2="197.6094"/><text fill="#000000" font-family="sans-serif" font-size="14" font-weight="bold" lengthAdjust="spacing" textLength="76" x="1168" y="190.5332">Repository</text></g><!--MD5=[a0e2a8e6e826b85563edef6b978fdc9f]
cluster eapli.base.infrastructure.persistence--><g id="cluster_eapli.base.infrastructure.persistence"><path d="M543.5,571.5 L805.5,571.5 A3.75,3.75 0 0 1 808,574 L815,595.1094 L815.5,595.1094 A2.5,2.5 0 0 1 818,597.6094 L818,983 A2.5,2.5 0 0 1 815.5,985.5 L543.5,985.5 A2.5,2.5 0 0 1 541,983 L541,574 A2.5,2.5 0 0 1 543.5,571.5 " style="stroke:#000000;stroke-width:1.5;fill:none;"/><line style="stroke:#000000;stroke-width:1.5;fill:none;" x1="541" x2="815" y1="595.1094" y2="595.1094"/><text fill="#000000" font-family="sans-serif" font-size="14" font-weight="bold" lengthAdjust="spacing" textLength="261" x="545" y="588.0332">eapli.base.infrastructure.persistence</text></g><!--MD5=[86429b8f6286f8ae82eb27da35b74181]
class ViewCatalogUI--><g id="elem_ViewCatalogUI"><rect codeLine="6" fill="#F1F1F1" height="48" id="ViewCatalogUI" rx="2.5" ry="2.5" style="stroke:#181818;stroke-width:0.5;" width="122" x="57" y="616.5"/><ellipse cx="72" cy="632.5" fill="#ADD1B2" rx="11" ry="11" style="stroke:#181818;stroke-width:1.0;"/><path d="M74,629 Q74.2031,628.5 74.4375,628.25 Q74.6719,628 74.9375,628 Q75.4063,628 75.7031,628.2813 Q76,628.5625 76,629.2188 L76,630.7813 Q76,631.4375 75.7188,631.7188 Q75.4375,632 75,632 Q74.6094,632 74.3594,631.8281 Q74.1094,631.6563 74,631.2031 Q73.9531,630.8906 73.7813,630.7188 Q73.4688,630.3906 72.9063,630.2031 Q72.3438,630 71.7813,630 Q71.0781,630 70.4844,630.2813 Q69.9063,630.5625 69.4531,631.1875 Q69,631.8125 69,632.6719 L69,633.5938 Q69,634.625 69.8438,635.3125 Q70.6875,636 72.1875,636 Q73.0781,636 73.7031,635.7969 Q74.0625,635.6875 74.4688,635.3281 Q74.7344,635.125 74.875,635.0625 Q75.0156,635 75.1875,635 Q75.5156,635 75.75,635.2656 Q76,635.5156 76,635.875 Q76,636.2188 75.6563,636.625 Q75.1563,637.2188 74.3594,637.5469 Q73.3125,638 72.0313,638 Q70.5313,638 69.3281,637.4063 Q68.3594,636.9375 67.6719,635.9219 Q67,634.9063 67,633.7031 L67,632.6094 Q67,631.3594 67.5938,630.2656 Q68.2031,629.1719 69.25,628.5938 Q70.3125,628 71.5,628 Q72.2188,628 72.8438,628.25 Q73.4688,628.5 74,629 Z " fill="#000000"/><text fill="#000000" font-family="sans-serif" font-size="14" lengthAdjust="spacing" textLength="90" x="86" y="638.2285">ViewCatalogUI</text><line style="stroke:#181818;stroke-width:0.5;" x1="58" x2="178" y1="648.5" y2="648.5"/><line style="stroke:#181818;stroke-width:0.5;" x1="58" x2="178" y1="656.5" y2="656.5"/></g><!--MD5=[f9761e4ec0e5a044b983a0fb01ce84a9]
class ProductRepository--><g id="elem_ProductRepository"><rect codeLine="11" fill="#F1F1F1" height="83.2188" id="ProductRepository" rx="2.5" ry="2.5" style="stroke:#181818;stroke-width:0.5;" width="241" x="235.5" y="599"/><ellipse cx="293.25" cy="615" fill="#ADD1B2" rx="11" ry="11" style="stroke:#181818;stroke-width:1.0;"/><path d="M295.25,611.5 Q295.4531,611 295.6875,610.75 Q295.9219,610.5 296.1875,610.5 Q296.6563,610.5 296.9531,610.7813 Q297.25,611.0625 297.25,611.7188 L297.25,613.2813 Q297.25,613.9375 296.9688,614.2188 Q296.6875,614.5 296.25,614.5 Q295.8594,614.5 295.6094,614.3281 Q295.3594,614.1563 295.25,613.7031 Q295.2031,613.3906 295.0313,613.2188 Q294.7188,612.8906 294.1563,612.7031 Q293.5938,612.5 293.0313,612.5 Q292.3281,612.5 291.7344,612.7813 Q291.1563,613.0625 290.7031,613.6875 Q290.25,614.3125 290.25,615.1719 L290.25,616.0938 Q290.25,617.125 291.0938,617.8125 Q291.9375,618.5 293.4375,618.5 Q294.3281,618.5 294.9531,618.2969 Q295.3125,618.1875 295.7188,617.8281 Q295.9844,617.625 296.125,617.5625 Q296.2656,617.5 296.4375,617.5 Q296.7656,617.5 297,617.7656 Q297.25,618.0156 297.25,618.375 Q297.25,618.7188 296.9063,619.125 Q296.4063,619.7188 295.6094,620.0469 Q294.5625,620.5 293.2813,620.5 Q291.7813,620.5 290.5781,619.9063 Q289.6094,619.4375 288.9219,618.4219 Q288.25,617.4063 288.25,616.2031 L288.25,615.1094 Q288.25,613.8594 288.8438,612.7656 Q289.4531,611.6719 290.5,611.0938 Q291.5625,610.5 292.75,610.5 Q293.4688,610.5 294.0938,610.75 Q294.7188,611 295.25,611.5 Z " fill="#000000"/><text fill="#000000" font-family="sans-serif" font-size="14" lengthAdjust="spacing" textLength="117" x="313.75" y="620.7285">ProductRepository</text><line style="stroke:#181818;stroke-width:0.5;" x1="236.5" x2="475.5" y1="631" y2="631"/><line style="stroke:#181818;stroke-width:0.5;" x1="236.5" x2="475.5" y1="639" y2="639"/><text fill="#000000" font-family="sans-serif" font-size="14" lengthAdjust="spacing" textLength="228" x="241.5" y="657.5332">+Iterable&lt;Product&gt; findAllProducts()</text><text fill="#000000" font-family="sans-serif" font-size="14" lengthAdjust="spacing" textLength="229" x="241.5" y="675.1426">+Product findProductByID(String str)</text></g><!--MD5=[72136138052d025cffdce3c22fbd185f]
class Product--><g id="elem_Product"><rect codeLine="18" fill="#F1F1F1" height="48" id="Product" rx="2.5" ry="2.5" style="stroke:#181818;stroke-width:0.5;" width="81" x="315.5" y="912.5"/><ellipse cx="330.5" cy="928.5" fill="#ADD1B2" rx="11" ry="11" style="stroke:#181818;stroke-width:1.0;"/><path d="M332.5,925 Q332.7031,924.5 332.9375,924.25 Q333.1719,924 333.4375,924 Q333.9063,924 334.2031,924.2813 Q334.5,924.5625 334.5,925.2188 L334.5,926.7813 Q334.5,927.4375 334.2188,927.7188 Q333.9375,928 333.5,928 Q333.1094,928 332.8594,927.8281 Q332.6094,927.6563 332.5,927.2031 Q332.4531,926.8906 332.2813,926.7188 Q331.9688,926.3906 331.4063,926.2031 Q330.8438,926 330.2813,926 Q329.5781,926 328.9844,926.2813 Q328.4063,926.5625 327.9531,927.1875 Q327.5,927.8125 327.5,928.6719 L327.5,929.5938 Q327.5,930.625 328.3438,931.3125 Q329.1875,932 330.6875,932 Q331.5781,932 332.2031,931.7969 Q332.5625,931.6875 332.9688,931.3281 Q333.2344,931.125 333.375,931.0625 Q333.5156,931 333.6875,931 Q334.0156,931 334.25,931.2656 Q334.5,931.5156 334.5,931.875 Q334.5,932.2188 334.1563,932.625 Q333.6563,933.2188 332.8594,933.5469 Q331.8125,934 330.5313,934 Q329.0313,934 327.8281,933.4063 Q326.8594,932.9375 326.1719,931.9219 Q325.5,930.9063 325.5,929.7031 L325.5,928.6094 Q325.5,927.3594 326.0938,926.2656 Q326.7031,925.1719 327.75,924.5938 Q328.8125,924 330,924 Q330.7188,924 331.3438,924.25 Q331.9688,924.5 332.5,925 Z " fill="#000000"/><text fill="#000000" font-family="sans-serif" font-size="14" lengthAdjust="spacing" textLength="49" x="344.5" y="934.2285">Product</text><line style="stroke:#181818;stroke-width:0.5;" x1="316.5" x2="395.5" y1="944.5" y2="944.5"/><line style="stroke:#181818;stroke-width:0.5;" x1="316.5" x2="395.5" y1="952.5" y2="952.5"/></g><!--MD5=[6da3ee1a450180cf948252897b0c67ba]
class RegisterCustomerUI--><g id="elem_RegisterCustomerUI"><rect codeLine="26" fill="#F1F1F1" height="48" id="RegisterCustomerUI" rx="2.5" ry="2.5" style="stroke:#181818;stroke-width:0.5;" width="158" x="1748" y="422"/><ellipse cx="1763" cy="438" fill="#ADD1B2" rx="11" ry="11" style="stroke:#181818;stroke-width:1.0;"/><path d="M1765,434.5 Q1765.2031,434 1765.4375,433.75 Q1765.6719,433.5 1765.9375,433.5 Q1766.4063,433.5 1766.7031,433.7813 Q1767,434.0625 1767,434.7188 L1767,436.2813 Q1767,436.9375 1766.7188,437.2188 Q1766.4375,437.5 1766,437.5 Q1765.6094,437.5 1765.3594,437.3281 Q1765.1094,437.1563 1765,436.7031 Q1764.9531,436.3906 1764.7813,436.2188 Q1764.4688,435.8906 1763.9063,435.7031 Q1763.3438,435.5 1762.7813,435.5 Q1762.0781,435.5 1761.4844,435.7813 Q1760.9063,436.0625 1760.4531,436.6875 Q1760,437.3125 1760,438.1719 L1760,439.0938 Q1760,440.125 1760.8438,440.8125 Q1761.6875,441.5 1763.1875,441.5 Q1764.0781,441.5 1764.7031,441.2969 Q1765.0625,441.1875 1765.4688,440.8281 Q1765.7344,440.625 1765.875,440.5625 Q1766.0156,440.5 1766.1875,440.5 Q1766.5156,440.5 1766.75,440.7656 Q1767,441.0156 1767,441.375 Q1767,441.7188 1766.6563,442.125 Q1766.1563,442.7188 1765.3594,443.0469 Q1764.3125,443.5 1763.0313,443.5 Q1761.5313,443.5 1760.3281,442.9063 Q1759.3594,442.4375 1758.6719,441.4219 Q1758,440.4063 1758,439.2031 L1758,438.1094 Q1758,436.8594 1758.5938,435.7656 Q1759.2031,434.6719 1760.25,434.0938 Q1761.3125,433.5 1762.5,433.5 Q1763.2188,433.5 1763.8438,433.75 Q1764.4688,434 1765,434.5 Z " fill="#000000"/><text fill="#000000" font-family="sans-serif" font-size="14" lengthAdjust="spacing" textLength="126" x="1777" y="443.7285">RegisterCustomerUI</text><line style="stroke:#181818;stroke-width:0.5;" x1="1749" x2="1905" y1="454" y2="454"/><line style="stroke:#181818;stroke-width:0.5;" x1="1749" x2="1905" y1="462" y2="462"/></g><!--MD5=[e69d6994dde37a3d0167e5476c791457]
class CustomerRepository--><g id="elem_CustomerRepository"><rect codeLine="31" fill="#F1F1F1" height="65.6094" id="CustomerRepository" rx="2.5" ry="2.5" style="stroke:#181818;stroke-width:0.5;" width="269" x="1422.5" y="413"/><ellipse cx="1488.25" cy="429" fill="#ADD1B2" rx="11" ry="11" style="stroke:#181818;stroke-width:1.0;"/><path d="M1490.25,425.5 Q1490.4531,425 1490.6875,424.75 Q1490.9219,424.5 1491.1875,424.5 Q1491.6563,424.5 1491.9531,424.7813 Q1492.25,425.0625 1492.25,425.7188 L1492.25,427.2813 Q1492.25,427.9375 1491.9688,428.2188 Q1491.6875,428.5 1491.25,428.5 Q1490.8594,428.5 1490.6094,428.3281 Q1490.3594,428.1563 1490.25,427.7031 Q1490.2031,427.3906 1490.0313,427.2188 Q1489.7188,426.8906 1489.1563,426.7031 Q1488.5938,426.5 1488.0313,426.5 Q1487.3281,426.5 1486.7344,426.7813 Q1486.1563,427.0625 1485.7031,427.6875 Q1485.25,428.3125 1485.25,429.1719 L1485.25,430.0938 Q1485.25,431.125 1486.0938,431.8125 Q1486.9375,432.5 1488.4375,432.5 Q1489.3281,432.5 1489.9531,432.2969 Q1490.3125,432.1875 1490.7188,431.8281 Q1490.9844,431.625 1491.125,431.5625 Q1491.2656,431.5 1491.4375,431.5 Q1491.7656,431.5 1492,431.7656 Q1492.25,432.0156 1492.25,432.375 Q1492.25,432.7188 1491.9063,433.125 Q1491.4063,433.7188 1490.6094,434.0469 Q1489.5625,434.5 1488.2813,434.5 Q1486.7813,434.5 1485.5781,433.9063 Q1484.6094,433.4375 1483.9219,432.4219 Q1483.25,431.4063 1483.25,430.2031 L1483.25,429.1094 Q1483.25,427.8594 1483.8438,426.7656 Q1484.4531,425.6719 1485.5,425.0938 Q1486.5625,424.5 1487.75,424.5 Q1488.4688,424.5 1489.0938,424.75 Q1489.7188,425 1490.25,425.5 Z " fill="#000000"/><text fill="#000000" font-family="sans-serif" font-size="14" lengthAdjust="spacing" textLength="129" x="1508.75" y="434.7285">CustomerRepository</text><line style="stroke:#181818;stroke-width:0.5;" x1="1423.5" x2="1690.5" y1="445" y2="445"/><line style="stroke:#181818;stroke-width:0.5;" x1="1423.5" x2="1690.5" y1="453" y2="453"/><text fill="#000000" font-family="sans-serif" font-size="14" lengthAdjust="spacing" textLength="257" x="1428.5" y="471.5332">+Customer findCustumerByID(String str);</text></g><!--MD5=[2ce0c9fb7f55b1e256ab28a8ea6b25ec]
class Customer--><g id="elem_Customer"><rect codeLine="37" fill="#F1F1F1" height="48" id="Customer" rx="2.5" ry="2.5" style="stroke:#181818;stroke-width:0.5;" width="93" x="1510.5" y="764.5"/><ellipse cx="1525.5" cy="780.5" fill="#ADD1B2" rx="11" ry="11" style="stroke:#181818;stroke-width:1.0;"/><path d="M1527.5,777 Q1527.7031,776.5 1527.9375,776.25 Q1528.1719,776 1528.4375,776 Q1528.9063,776 1529.2031,776.2813 Q1529.5,776.5625 1529.5,777.2188 L1529.5,778.7813 Q1529.5,779.4375 1529.2188,779.7188 Q1528.9375,780 1528.5,780 Q1528.1094,780 1527.8594,779.8281 Q1527.6094,779.6563 1527.5,779.2031 Q1527.4531,778.8906 1527.2813,778.7188 Q1526.9688,778.3906 1526.4063,778.2031 Q1525.8438,778 1525.2813,778 Q1524.5781,778 1523.9844,778.2813 Q1523.4063,778.5625 1522.9531,779.1875 Q1522.5,779.8125 1522.5,780.6719 L1522.5,781.5938 Q1522.5,782.625 1523.3438,783.3125 Q1524.1875,784 1525.6875,784 Q1526.5781,784 1527.2031,783.7969 Q1527.5625,783.6875 1527.9688,783.3281 Q1528.2344,783.125 1528.375,783.0625 Q1528.5156,783 1528.6875,783 Q1529.0156,783 1529.25,783.2656 Q1529.5,783.5156 1529.5,783.875 Q1529.5,784.2188 1529.1563,784.625 Q1528.6563,785.2188 1527.8594,785.5469 Q1526.8125,786 1525.5313,786 Q1524.0313,786 1522.8281,785.4063 Q1521.8594,784.9375 1521.1719,783.9219 Q1520.5,782.9063 1520.5,781.7031 L1520.5,780.6094 Q1520.5,779.3594 1521.0938,778.2656 Q1521.7031,777.1719 1522.75,776.5938 Q1523.8125,776 1525,776 Q1525.7188,776 1526.3438,776.25 Q1526.9688,776.5 1527.5,777 Z " fill="#000000"/><text fill="#000000" font-family="sans-serif" font-size="14" lengthAdjust="spacing" textLength="61" x="1539.5" y="786.2285">Customer</text><line style="stroke:#181818;stroke-width:0.5;" x1="1511.5" x2="1602.5" y1="796.5" y2="796.5"/><line style="stroke:#181818;stroke-width:0.5;" x1="1511.5" x2="1602.5" y1="804.5" y2="804.5"/></g><!--MD5=[c3ca503ac27cb78acf0b30e0704c3dff]
class RegisterProduct_OrderUI--><g id="elem_RegisterProduct_OrderUI"><rect codeLine="45" fill="#F1F1F1" height="48" id="RegisterProduct_OrderUI" rx="2.5" ry="2.5" style="stroke:#181818;stroke-width:0.5;" width="191" x="907.5" y="86"/><ellipse cx="922.5" cy="102" fill="#ADD1B2" rx="11" ry="11" style="stroke:#181818;stroke-width:1.0;"/><path d="M924.5,98.5 Q924.7031,98 924.9375,97.75 Q925.1719,97.5 925.4375,97.5 Q925.9063,97.5 926.2031,97.7813 Q926.5,98.0625 926.5,98.7188 L926.5,100.2813 Q926.5,100.9375 926.2188,101.2188 Q925.9375,101.5 925.5,101.5 Q925.1094,101.5 924.8594,101.3281 Q924.6094,101.1563 924.5,100.7031 Q924.4531,100.3906 924.2813,100.2188 Q923.9688,99.8906 923.4063,99.7031 Q922.8438,99.5 922.2813,99.5 Q921.5781,99.5 920.9844,99.7813 Q920.4063,100.0625 919.9531,100.6875 Q919.5,101.3125 919.5,102.1719 L919.5,103.0938 Q919.5,104.125 920.3438,104.8125 Q921.1875,105.5 922.6875,105.5 Q923.5781,105.5 924.2031,105.2969 Q924.5625,105.1875 924.9688,104.8281 Q925.2344,104.625 925.375,104.5625 Q925.5156,104.5 925.6875,104.5 Q926.0156,104.5 926.25,104.7656 Q926.5,105.0156 926.5,105.375 Q926.5,105.7188 926.1563,106.125 Q925.6563,106.7188 924.8594,107.0469 Q923.8125,107.5 922.5313,107.5 Q921.0313,107.5 919.8281,106.9063 Q918.8594,106.4375 918.1719,105.4219 Q917.5,104.4063 917.5,103.2031 L917.5,102.1094 Q917.5,100.8594 918.0938,99.7656 Q918.7031,98.6719 919.75,98.0938 Q920.8125,97.5 922,97.5 Q922.7188,97.5 923.3438,97.75 Q923.9688,98 924.5,98.5 Z " fill="#000000"/><text fill="#000000" font-family="sans-serif" font-size="14" lengthAdjust="spacing" textLength="159" x="936.5" y="107.7285">RegisterProduct_OrderUI</text><line style="stroke:#181818;stroke-width:0.5;" x1="908.5" x2="1097.5" y1="118" y2="118"/><line style="stroke:#181818;stroke-width:0.5;" x1="908.5" x2="1097.5" y1="126" y2="126"/></g><!--MD5=[8f37bbd8607553ac2b3570d85b7c0aae]
class RegisterProduct_OrderController--><g id="elem_RegisterProduct_OrderController"><rect codeLine="49" fill="#F1F1F1" height="48" id="RegisterProduct_OrderController" rx="2.5" ry="2.5" style="stroke:#181818;stroke-width:0.5;" width="241" x="882.5" y="227.5"/><ellipse cx="897.5" cy="243.5" fill="#ADD1B2" rx="11" ry="11" style="stroke:#181818;stroke-width:1.0;"/><path d="M899.5,240 Q899.7031,239.5 899.9375,239.25 Q900.1719,239 900.4375,239 Q900.9063,239 901.2031,239.2813 Q901.5,239.5625 901.5,240.2188 L901.5,241.7813 Q901.5,242.4375 901.2188,242.7188 Q900.9375,243 900.5,243 Q900.1094,243 899.8594,242.8281 Q899.6094,242.6563 899.5,242.2031 Q899.4531,241.8906 899.2813,241.7188 Q898.9688,241.3906 898.4063,241.2031 Q897.8438,241 897.2813,241 Q896.5781,241 895.9844,241.2813 Q895.4063,241.5625 894.9531,242.1875 Q894.5,242.8125 894.5,243.6719 L894.5,244.5938 Q894.5,245.625 895.3438,246.3125 Q896.1875,247 897.6875,247 Q898.5781,247 899.2031,246.7969 Q899.5625,246.6875 899.9688,246.3281 Q900.2344,246.125 900.375,246.0625 Q900.5156,246 900.6875,246 Q901.0156,246 901.25,246.2656 Q901.5,246.5156 901.5,246.875 Q901.5,247.2188 901.1563,247.625 Q900.6563,248.2188 899.8594,248.5469 Q898.8125,249 897.5313,249 Q896.0313,249 894.8281,248.4063 Q893.8594,247.9375 893.1719,246.9219 Q892.5,245.9063 892.5,244.7031 L892.5,243.6094 Q892.5,242.3594 893.0938,241.2656 Q893.7031,240.1719 894.75,239.5938 Q895.8125,239 897,239 Q897.7188,239 898.3438,239.25 Q898.9688,239.5 899.5,240 Z " fill="#000000"/><text fill="#000000" font-family="sans-serif" font-size="14" lengthAdjust="spacing" textLength="209" x="911.5" y="249.2285">RegisterProduct_OrderController</text><line style="stroke:#181818;stroke-width:0.5;" x1="883.5" x2="1122.5" y1="259.5" y2="259.5"/><line style="stroke:#181818;stroke-width:0.5;" x1="883.5" x2="1122.5" y1="267.5" y2="267.5"/></g><!--MD5=[cbdbc9de1bbacc23837bd5178e7780ba]
class Product_Order--><g id="elem_Product_Order"><rect codeLine="54" fill="#F1F1F1" height="48" id="Product_Order" rx="2.5" ry="2.5" style="stroke:#181818;stroke-width:0.5;" width="126" x="1063" y="616.5"/><ellipse cx="1078" cy="632.5" fill="#ADD1B2" rx="11" ry="11" style="stroke:#181818;stroke-width:1.0;"/><path d="M1080,629 Q1080.2031,628.5 1080.4375,628.25 Q1080.6719,628 1080.9375,628 Q1081.4063,628 1081.7031,628.2813 Q1082,628.5625 1082,629.2188 L1082,630.7813 Q1082,631.4375 1081.7188,631.7188 Q1081.4375,632 1081,632 Q1080.6094,632 1080.3594,631.8281 Q1080.1094,631.6563 1080,631.2031 Q1079.9531,630.8906 1079.7813,630.7188 Q1079.4688,630.3906 1078.9063,630.2031 Q1078.3438,630 1077.7813,630 Q1077.0781,630 1076.4844,630.2813 Q1075.9063,630.5625 1075.4531,631.1875 Q1075,631.8125 1075,632.6719 L1075,633.5938 Q1075,634.625 1075.8438,635.3125 Q1076.6875,636 1078.1875,636 Q1079.0781,636 1079.7031,635.7969 Q1080.0625,635.6875 1080.4688,635.3281 Q1080.7344,635.125 1080.875,635.0625 Q1081.0156,635 1081.1875,635 Q1081.5156,635 1081.75,635.2656 Q1082,635.5156 1082,635.875 Q1082,636.2188 1081.6563,636.625 Q1081.1563,637.2188 1080.3594,637.5469 Q1079.3125,638 1078.0313,638 Q1076.5313,638 1075.3281,637.4063 Q1074.3594,636.9375 1073.6719,635.9219 Q1073,634.9063 1073,633.7031 L1073,632.6094 Q1073,631.3594 1073.5938,630.2656 Q1074.2031,629.1719 1075.25,628.5938 Q1076.3125,628 1077.5,628 Q1078.2188,628 1078.8438,628.25 Q1079.4688,628.5 1080,629 Z " fill="#000000"/><text fill="#000000" font-family="sans-serif" font-size="14" lengthAdjust="spacing" textLength="94" x="1092" y="638.2285">Product_Order</text><line style="stroke:#181818;stroke-width:0.5;" x1="1064" x2="1188" y1="648.5" y2="648.5"/><line style="stroke:#181818;stroke-width:0.5;" x1="1064" x2="1188" y1="656.5" y2="656.5"/></g><!--MD5=[708e328039b60d50c6285936843ac334]
class OrderRepository--><g id="elem_OrderRepository"><rect codeLine="60" fill="#F1F1F1" height="83.2188" id="OrderRepository" rx="2.5" ry="2.5" style="stroke:#181818;stroke-width:0.5;" width="137" x="1180.5" y="210"/><ellipse cx="1195.5" cy="226" fill="#ADD1B2" rx="11" ry="11" style="stroke:#181818;stroke-width:1.0;"/><path d="M1197.5,222.5 Q1197.7031,222 1197.9375,221.75 Q1198.1719,221.5 1198.4375,221.5 Q1198.9063,221.5 1199.2031,221.7813 Q1199.5,222.0625 1199.5,222.7188 L1199.5,224.2813 Q1199.5,224.9375 1199.2188,225.2188 Q1198.9375,225.5 1198.5,225.5 Q1198.1094,225.5 1197.8594,225.3281 Q1197.6094,225.1563 1197.5,224.7031 Q1197.4531,224.3906 1197.2813,224.2188 Q1196.9688,223.8906 1196.4063,223.7031 Q1195.8438,223.5 1195.2813,223.5 Q1194.5781,223.5 1193.9844,223.7813 Q1193.4063,224.0625 1192.9531,224.6875 Q1192.5,225.3125 1192.5,226.1719 L1192.5,227.0938 Q1192.5,228.125 1193.3438,228.8125 Q1194.1875,229.5 1195.6875,229.5 Q1196.5781,229.5 1197.2031,229.2969 Q1197.5625,229.1875 1197.9688,228.8281 Q1198.2344,228.625 1198.375,228.5625 Q1198.5156,228.5 1198.6875,228.5 Q1199.0156,228.5 1199.25,228.7656 Q1199.5,229.0156 1199.5,229.375 Q1199.5,229.7188 1199.1563,230.125 Q1198.6563,230.7188 1197.8594,231.0469 Q1196.8125,231.5 1195.5313,231.5 Q1194.0313,231.5 1192.8281,230.9063 Q1191.8594,230.4375 1191.1719,229.4219 Q1190.5,228.4063 1190.5,227.2031 L1190.5,226.1094 Q1190.5,224.8594 1191.0938,223.7656 Q1191.7031,222.6719 1192.75,222.0938 Q1193.8125,221.5 1195,221.5 Q1195.7188,221.5 1196.3438,221.75 Q1196.9688,222 1197.5,222.5 Z " fill="#000000"/><text fill="#000000" font-family="sans-serif" font-size="14" lengthAdjust="spacing" textLength="105" x="1209.5" y="231.7285">OrderRepository</text><line style="stroke:#181818;stroke-width:0.5;" x1="1181.5" x2="1316.5" y1="242" y2="242"/><line style="stroke:#181818;stroke-width:0.5;" x1="1181.5" x2="1316.5" y1="250" y2="250"/><text fill="#000000" font-family="sans-serif" font-size="14" lengthAdjust="spacing" textLength="58" x="1186.5" y="268.5332">+create()</text><text fill="#000000" font-family="sans-serif" font-size="14" lengthAdjust="spacing" textLength="106" x="1186.5" y="286.1426">+save(customer)</text></g><!--MD5=[e8c189551b7885b999ad7cefb30fc2a3]
class PersistenceContext--><g id="elem_PersistenceContext"><rect codeLine="71" fill="#F1F1F1" height="65.6094" id="PersistenceContext" rx="2.5" ry="2.5" style="stroke:#181818;stroke-width:0.5;" width="154" x="648" y="607.5"/><ellipse cx="663" cy="623.5" fill="#ADD1B2" rx="11" ry="11" style="stroke:#181818;stroke-width:1.0;"/><path d="M665,620 Q665.2031,619.5 665.4375,619.25 Q665.6719,619 665.9375,619 Q666.4063,619 666.7031,619.2813 Q667,619.5625 667,620.2188 L667,621.7813 Q667,622.4375 666.7188,622.7188 Q666.4375,623 666,623 Q665.6094,623 665.3594,622.8281 Q665.1094,622.6563 665,622.2031 Q664.9531,621.8906 664.7813,621.7188 Q664.4688,621.3906 663.9063,621.2031 Q663.3438,621 662.7813,621 Q662.0781,621 661.4844,621.2813 Q660.9063,621.5625 660.4531,622.1875 Q660,622.8125 660,623.6719 L660,624.5938 Q660,625.625 660.8438,626.3125 Q661.6875,627 663.1875,627 Q664.0781,627 664.7031,626.7969 Q665.0625,626.6875 665.4688,626.3281 Q665.7344,626.125 665.875,626.0625 Q666.0156,626 666.1875,626 Q666.5156,626 666.75,626.2656 Q667,626.5156 667,626.875 Q667,627.2188 666.6563,627.625 Q666.1563,628.2188 665.3594,628.5469 Q664.3125,629 663.0313,629 Q661.5313,629 660.3281,628.4063 Q659.3594,627.9375 658.6719,626.9219 Q658,625.9063 658,624.7031 L658,623.6094 Q658,622.3594 658.5938,621.2656 Q659.2031,620.1719 660.25,619.5938 Q661.3125,619 662.5,619 Q663.2188,619 663.8438,619.25 Q664.4688,619.5 665,620 Z " fill="#000000"/><text fill="#000000" font-family="sans-serif" font-size="14" lengthAdjust="spacing" textLength="122" x="677" y="629.2285">PersistenceContext</text><line style="stroke:#181818;stroke-width:0.5;" x1="649" x2="801" y1="639.5" y2="639.5"/><line style="stroke:#181818;stroke-width:0.5;" x1="649" x2="801" y1="647.5" y2="647.5"/><text fill="#000000" font-family="sans-serif" font-size="14" lengthAdjust="spacing" textLength="92" x="654" y="666.0332">+repositories()</text></g><!--MD5=[48590afff58a68e2fcba47824d6f8a11]
class RepositoryFactory--><g id="elem_RepositoryFactory"><rect codeLine="74" fill="#F1F1F1" height="65.6094" id="RepositoryFactory" rx="2.5" ry="2.5" style="stroke:#181818;stroke-width:0.5;" width="148" x="653" y="903.5"/><ellipse cx="668" cy="919.5" fill="#ADD1B2" rx="11" ry="11" style="stroke:#181818;stroke-width:1.0;"/><path d="M670,916 Q670.2031,915.5 670.4375,915.25 Q670.6719,915 670.9375,915 Q671.4063,915 671.7031,915.2813 Q672,915.5625 672,916.2188 L672,917.7813 Q672,918.4375 671.7188,918.7188 Q671.4375,919 671,919 Q670.6094,919 670.3594,918.8281 Q670.1094,918.6563 670,918.2031 Q669.9531,917.8906 669.7813,917.7188 Q669.4688,917.3906 668.9063,917.2031 Q668.3438,917 667.7813,917 Q667.0781,917 666.4844,917.2813 Q665.9063,917.5625 665.4531,918.1875 Q665,918.8125 665,919.6719 L665,920.5938 Q665,921.625 665.8438,922.3125 Q666.6875,923 668.1875,923 Q669.0781,923 669.7031,922.7969 Q670.0625,922.6875 670.4688,922.3281 Q670.7344,922.125 670.875,922.0625 Q671.0156,922 671.1875,922 Q671.5156,922 671.75,922.2656 Q672,922.5156 672,922.875 Q672,923.2188 671.6563,923.625 Q671.1563,924.2188 670.3594,924.5469 Q669.3125,925 668.0313,925 Q666.5313,925 665.3281,924.4063 Q664.3594,923.9375 663.6719,922.9219 Q663,921.9063 663,920.7031 L663,919.6094 Q663,918.3594 663.5938,917.2656 Q664.2031,916.1719 665.25,915.5938 Q666.3125,915 667.5,915 Q668.2188,915 668.8438,915.25 Q669.4688,915.5 670,916 Z " fill="#000000"/><text fill="#000000" font-family="sans-serif" font-size="14" lengthAdjust="spacing" textLength="116" x="682" y="925.2285">RepositoryFactory</text><line style="stroke:#181818;stroke-width:0.5;" x1="654" x2="800" y1="935.5" y2="935.5"/><line style="stroke:#181818;stroke-width:0.5;" x1="654" x2="800" y1="943.5" y2="943.5"/><text fill="#000000" font-family="sans-serif" font-size="14" lengthAdjust="spacing" textLength="58" x="659" y="962.0332">+create()</text></g><!--MD5=[e91f182804526390c29e5d03519f6406]
link RegisterProduct_OrderUI to RegisterProduct_OrderController--><g id="link_RegisterProduct_OrderUI_RegisterProduct_OrderController"><path codeLine="80" d="M1003,134.04 C1003,158.27 1003,196.42 1003,222.4 " fill="none" id="RegisterProduct_OrderUI-to-RegisterProduct_OrderController" style="stroke:#181818;stroke-width:1.0;stroke-dasharray:7.0,7.0;"/><polygon fill="#181818" points="1003,227.43,1007,218.43,1003,222.43,999,218.43,1003,227.43" style="stroke:#181818;stroke-width:1.0;"/></g><!--MD5=[58a03919e059e41f57e9a413458477bb]
link RegisterProduct_OrderUI to ViewCatalogUI--><g id="link_RegisterProduct_OrderUI_ViewCatalogUI"><path codeLine="81" d="M927.7,134.01 C777.87,182.84 437.95,309.19 219,511 C185.53,541.85 154.35,584.49 135.73,612.04 " fill="none" id="RegisterProduct_OrderUI-to-ViewCatalogUI" style="stroke:#181818;stroke-width:1.0;stroke-dasharray:7.0,7.0;"/><polygon fill="#181818" points="132.85,616.33,141.183,611.0801,135.6334,612.1763,134.5372,606.6267,132.85,616.33" style="stroke:#181818;stroke-width:1.0;"/></g><!--MD5=[083787b65d94764541b30d7074b7c3e0]
link RegisterProduct_OrderUI to RegisterCustomerUI--><g id="link_RegisterProduct_OrderUI_RegisterCustomerUI"><path codeLine="82" d="M1098.5,120.78 C1165.35,129.1 1256.26,143.36 1334,166 C1507.42,216.49 1558.5,223.64 1708,325 C1746.5,351.1 1782.95,390.89 1805.12,417.41 " fill="none" id="RegisterProduct_OrderUI-to-RegisterCustomerUI" style="stroke:#181818;stroke-width:1.0;stroke-dasharray:7.0,7.0;"/><polygon fill="#181818" points="1808.56,421.54,1805.8955,412.0584,1805.3689,417.6907,1799.7367,417.1641,1808.56,421.54" style="stroke:#181818;stroke-width:1.0;"/></g><!--MD5=[5c107d9d2ac590bbc85e4d76e9976ded]
link RegisterProduct_OrderController to Product_Order--><g id="link_RegisterProduct_OrderController_Product_Order"><path codeLine="83" d="M1010.33,275.55 C1031.64,342.61 1093.58,537.51 1116.94,611 " fill="none" id="RegisterProduct_OrderController-to-Product_Order" style="stroke:#181818;stroke-width:1.0;stroke-dasharray:7.0,7.0;"/><polygon fill="#181818" points="1118.56,616.08,1119.6501,606.2917,1117.0475,611.3142,1112.0249,608.7116,1118.56,616.08" style="stroke:#181818;stroke-width:1.0;"/></g><!--MD5=[aec43372e449140b235618e9585da9be]
link RegisterProduct_OrderController to PersistenceContext--><g id="link_RegisterProduct_OrderController_PersistenceContext"><path codeLine="84" d="M937,275.55 C911.3,287.16 883.22,303.44 863,325 C786.24,406.86 747.76,538.35 732.76,602.24 " fill="none" id="RegisterProduct_OrderController-to-PersistenceContext" style="stroke:#181818;stroke-width:1.0;stroke-dasharray:7.0,7.0;"/><polygon fill="#181818" points="731.55,607.47,737.478,599.605,732.6785,602.599,729.6845,597.7994,731.55,607.47" style="stroke:#181818;stroke-width:1.0;"/></g><!--MD5=[94f4a5d25f677d3636a829b5ee062050]
link RegisterProduct_OrderController to ProductRepository--><g id="link_RegisterProduct_OrderController_ProductRepository"><path codeLine="85" d="M890.88,275.56 C847.05,287.04 797.26,303.21 755,325 C611.55,398.95 469.32,527.86 399.86,595.38 " fill="none" id="RegisterProduct_OrderController-to-ProductRepository" style="stroke:#181818;stroke-width:1.0;stroke-dasharray:7.0,7.0;"/><polygon fill="#181818" points="396.2,598.94,405.4415,595.5348,399.7852,595.4548,399.8652,589.7985,396.2,598.94" style="stroke:#181818;stroke-width:1.0;"/></g><!--MD5=[0661ea975cdf4f98724442c062284e0d]
link RegisterProduct_OrderController to CustomerRepository--><g id="link_RegisterProduct_OrderController_CustomerRepository"><path codeLine="86" d="M1058.16,275.65 C1089.09,288.36 1128.48,304.11 1164,317 C1258.72,351.36 1367.77,386.53 1446.93,411.29 " fill="none" id="RegisterProduct_OrderController-to-CustomerRepository" style="stroke:#181818;stroke-width:1.0;stroke-dasharray:7.0,7.0;"/><polygon fill="#181818" points="1452.1,412.91,1444.6961,406.4152,1447.3261,411.4235,1442.3177,414.0535,1452.1,412.91" style="stroke:#181818;stroke-width:1.0;"/></g><!--MD5=[754b775031405e096442b27febffa290]
link PersistenceContext to RepositoryFactory--><g id="link_PersistenceContext_RepositoryFactory"><path codeLine="87" d="M725.22,673.52 C725.59,728.27 726.35,839.6 726.74,897.94 " fill="none" id="PersistenceContext-to-RepositoryFactory" style="stroke:#181818;stroke-width:1.0;stroke-dasharray:7.0,7.0;"/><polygon fill="#181818" points="726.78,903.07,730.7285,894.0473,726.7514,898.0701,722.7286,894.093,726.78,903.07" style="stroke:#181818;stroke-width:1.0;"/></g><!--MD5=[4961dc0a1f38b4bb8bde6c7779428d74]
link RepositoryFactory to OrderRepository--><g id="link_RepositoryFactory_OrderRepository"><path codeLine="88" d="M746.12,903.31 C802.98,808.93 978.62,526.84 1164,325 C1172.92,315.29 1183.09,305.62 1193.23,296.66 " fill="none" id="RepositoryFactory-to-OrderRepository" style="stroke:#181818;stroke-width:1.0;stroke-dasharray:7.0,7.0;"/><polygon fill="#181818" points="1197.26,293.14,1187.8465,296.036,1193.49,296.4244,1193.1016,302.0679,1197.26,293.14" style="stroke:#181818;stroke-width:1.0;"/></g><!--MD5=[f31dda91a4320b0760ffb974baa63960]
link OrderRepository to Product_Order--><g id="link_OrderRepository_Product_Order"><path codeLine="89" d="M1236.07,293.18 C1211.06,371.87 1156.64,543.1 1135.07,610.96 " fill="none" id="OrderRepository-to-Product_Order" style="stroke:#181818;stroke-width:1.0;stroke-dasharray:7.0,7.0;"/><polygon fill="#181818" points="1133.45,616.05,1139.9914,608.6873,1134.9666,611.2856,1132.3683,606.2607,1133.45,616.05" style="stroke:#181818;stroke-width:1.0;"/></g><!--MD5=[3ae97d11c2ca570632e7e7ed3510da9a]
link CustomerRepository to Customer--><g id="link_CustomerRepository_Customer"><path codeLine="90" d="M1557,479.03 C1557,545.21 1557,696.1 1557,759.07 " fill="none" id="CustomerRepository-to-Customer" style="stroke:#181818;stroke-width:1.0;stroke-dasharray:7.0,7.0;"/><polygon fill="#181818" points="1557,764.17,1561,755.17,1557,759.17,1553,755.17,1557,764.17" style="stroke:#181818;stroke-width:1.0;"/></g><!--MD5=[68e4965bc339513f2ae30d33caf3e4dc]
link ProductRepository to Product--><g id="link_ProductRepository_Product"><path codeLine="91" d="M356,682.07 C356,742.53 356,854.76 356,907.17 " fill="none" id="ProductRepository-to-Product" style="stroke:#181818;stroke-width:1.0;stroke-dasharray:7.0,7.0;"/><polygon fill="#181818" points="356,912.35,360,903.35,356,907.35,352,903.35,356,912.35" style="stroke:#181818;stroke-width:1.0;"/></g><!--MD5=[5b3bb5d10949139649e550249b8da8d6]
@startuml
skinparam classAttributeIconSize 0

package "product"{

package "product.presentation"{
class ViewCatalogUI{
}
}

package "product.Persistence"{
class ProductRepository{
+Iterable<Product> findAllProducts()
+Product findProductByID(String str)
}
}

package "product.domain"{
class Product
}

}

package "customer"{

package "customer.presentation"{
class RegisterCustomerUI{
}
}

package "customer.persistence"{
class CustomerRepository{
+Customer findCustumerByID(String str);
}
}

package "customer.domain"{
class Customer
}

}

package "order"{

package "Presentation"{
class RegisterProduct_OrderUI
}

package "Application"{
class RegisterProduct_OrderController
}


package "Domain"{
class Product_Order
}



package "Repository"{
class OrderRepository{
+create()
+save(customer)
}
}

}


package "eapli.base.infrastructure.persistence"{

class PersistenceContext{
+repositories()
}
class RepositoryFactory{
+create()
}
}


RegisterProduct_OrderUI .-> RegisterProduct_OrderController
RegisterProduct_OrderUI .- -> ViewCatalogUI
RegisterProduct_OrderUI .-> RegisterCustomerUI
RegisterProduct_OrderController .- -> Product_Order
RegisterProduct_OrderController .- -> PersistenceContext
RegisterProduct_OrderController .- -> ProductRepository
RegisterProduct_OrderController .-> CustomerRepository
PersistenceContext .- -> RepositoryFactory
RepositoryFactory .- -> OrderRepository
OrderRepository .- -> Product_Order
CustomerRepository .- -> Customer
ProductRepository .- -> Product


@enduml

PlantUML version 1.2022.4(Sat Apr 09 14:29:17 BST 2022)
(GPL source distribution)
Java Runtime: OpenJDK Runtime Environment
JVM: OpenJDK 64-Bit Server VM
Default Encoding: Cp1252
Language: pt
Country: PT
--></g></svg>