<?xml version="1.0" encoding="UTF-8" standalone="no"?><svg xmlns="http://www.w3.org/2000/svg" xmlns:xlink="http://www.w3.org/1999/xlink" contentStyleType="text/css" height="1868px" preserveAspectRatio="none" style="width:2617px;height:1868px;background:#FFFFFF;" version="1.1" viewBox="0 0 2617 1868" width="2617px" zoomAndPan="magnify"><defs/><g><rect fill="#FFFFFF" height="1675.4688" style="stroke:#181818;stroke-width:1.0;" width="10" x="74" y="92.6094"/><rect fill="#FFFFFF" height="855.5313" style="stroke:#181818;stroke-width:1.0;" width="10" x="685" y="114.9609"/><rect fill="#FFFFFF" height="44.3516" style="stroke:#181818;stroke-width:1.0;" width="10" x="685" y="1000.8438"/><rect fill="#FFFFFF" height="351.9609" style="stroke:#181818;stroke-width:1.0;" width="10" x="685" y="1075.5469"/><rect fill="#FFFFFF" height="30.3516" style="stroke:#181818;stroke-width:1.0;" width="10" x="685" y="1457.8594"/><rect fill="#FFFFFF" height="249.5156" style="stroke:#181818;stroke-width:1.0;" width="10" x="685" y="1518.5625"/><rect fill="#FFFFFF" height="76.7969" style="stroke:#181818;stroke-width:1.0;" width="10" x="862" y="312.4219"/><rect fill="#FFFFFF" height="76.7969" style="stroke:#181818;stroke-width:1.0;" width="10" x="1022.5" y="1313.3594"/><rect fill="#FFFFFF" height="357.8125" style="stroke:#181818;stroke-width:1.0;" width="10" x="1218" y="556.9766"/><rect fill="#FFFFFF" height="91.0547" style="stroke:#181818;stroke-width:1.0;" width="10" x="1218" y="1105.8984"/><rect fill="#FFFFFF" height="139.7578" style="stroke:#181818;stroke-width:1.0;" width="10" x="1218" y="1597.9688"/><rect fill="#FFFFFF" height="211.4063" style="stroke:#181818;stroke-width:1.0;" width="10" x="1947" y="587.3281"/><rect fill="#FFFFFF" height="181.0547" style="stroke:#181818;stroke-width:1.0;" width="10" x="2094" y="617.6797"/><rect fill="#FFFFFF" height="30" style="stroke:#181818;stroke-width:1.0;" width="10" x="2232.5" y="648.0313"/><rect fill="#FFFFFF" height="30" style="stroke:#181818;stroke-width:1.0;" width="10" x="2232.5" y="1707.7266"/><rect fill="#FFFFFF" height="30" style="stroke:#181818;stroke-width:1.0;" width="10" x="2377.5" y="708.3828"/><rect fill="#FFFFFF" height="30.3516" style="stroke:#181818;stroke-width:1.0;" width="10" x="2377.5" y="1136.25"/><rect fill="#FFFFFF" height="30" style="stroke:#181818;stroke-width:1.0;" width="10" x="2528.5" y="768.7344"/><rect fill="#FFFFFF" height="30.3516" style="stroke:#181818;stroke-width:1.0;" width="10" x="2528.5" y="854.0859"/><rect height="250.9063" style="stroke:#000000;stroke-width:1.5;fill:none;" width="965.5" x="10" y="160.3125"/><rect height="218.5547" style="stroke:#000000;stroke-width:1.5;fill:none;" width="945.5" x="20" y="185.6641"/><rect height="155.8516" style="stroke:#000000;stroke-width:1.5;fill:none;" width="925.5" x="30" y="241.3672"/><rect height="499.5703" style="stroke:#000000;stroke-width:1.5;fill:none;" width="2591" x="20" y="516.2734"/><rect height="79.0547" style="stroke:#000000;stroke-width:1.5;fill:none;" width="758.5" x="30" y="929.7891"/><rect height="186.2031" style="stroke:#000000;stroke-width:1.5;fill:none;" width="1079.5" x="30" y="1211.9531"/><line style="stroke:#181818;stroke-width:0.5;fill:none;stroke-dasharray:5.0,5.0;" x1="79" x2="79" y1="82.6094" y2="1786.0781"/><line style="stroke:#181818;stroke-width:0.5;fill:none;stroke-dasharray:5.0,5.0;" x1="689.5" x2="689.5" y1="82.6094" y2="1786.0781"/><line style="stroke:#181818;stroke-width:0.5;fill:none;stroke-dasharray:5.0,5.0;" x1="866.5" x2="866.5" y1="82.6094" y2="1786.0781"/><line style="stroke:#181818;stroke-width:0.5;fill:none;stroke-dasharray:5.0,5.0;" x1="1027.5" x2="1027.5" y1="82.6094" y2="1786.0781"/><line style="stroke:#181818;stroke-width:0.5;fill:none;stroke-dasharray:5.0,5.0;" x1="1222.5" x2="1222.5" y1="82.6094" y2="1786.0781"/><line style="stroke:#181818;stroke-width:0.5;fill:none;stroke-dasharray:5.0,5.0;" x1="1769" x2="1769" y1="1655.6719" y2="1786.0781"/><line style="stroke:#181818;stroke-width:0.5;fill:none;stroke-dasharray:5.0,5.0;" x1="1952" x2="1952" y1="82.6094" y2="1786.0781"/><line style="stroke:#181818;stroke-width:0.5;fill:none;stroke-dasharray:5.0,5.0;" x1="2099" x2="2099" y1="82.6094" y2="1786.0781"/><line style="stroke:#181818;stroke-width:0.5;fill:none;stroke-dasharray:5.0,5.0;" x1="2237" x2="2237" y1="82.6094" y2="1786.0781"/><line style="stroke:#181818;stroke-width:0.5;fill:none;stroke-dasharray:5.0,5.0;" x1="2382" x2="2382" y1="82.6094" y2="1786.0781"/><line style="stroke:#181818;stroke-width:0.5;fill:none;stroke-dasharray:5.0,5.0;" x1="2533" x2="2533" y1="82.6094" y2="1786.0781"/><text fill="#000000" font-family="sans-serif" font-size="14" lengthAdjust="spacing" textLength="72" x="40" y="79.5332">Sales Clerk</text><ellipse cx="79" cy="13.5" fill="#E2E2F0" rx="8" ry="8" style="stroke:#181818;stroke-width:0.5;"/><path d="M79,21.5 L79,48.5 M66,29.5 L92,29.5 M79,48.5 L66,63.5 M79,48.5 L92,63.5 " fill="none" style="stroke:#181818;stroke-width:0.5;"/><text fill="#000000" font-family="sans-serif" font-size="14" lengthAdjust="spacing" textLength="72" x="40" y="1799.6113">Sales Clerk</text><ellipse cx="79" cy="1811.1875" fill="#E2E2F0" rx="8" ry="8" style="stroke:#181818;stroke-width:0.5;"/><path d="M79,1819.1875 L79,1846.1875 M66,1827.1875 L92,1827.1875 M79,1846.1875 L66,1861.1875 M79,1846.1875 L92,1861.1875 " fill="none" style="stroke:#181818;stroke-width:0.5;"/><rect fill="#E2E2F0" height="31.6094" rx="2.5" ry="2.5" style="stroke:#181818;stroke-width:0.5;" width="177" x="601.5" y="50"/><text fill="#000000" font-family="sans-serif" font-size="14" lengthAdjust="spacing" textLength="163" x="608.5" y="71.5332">:RegisterProduct_OrderUI</text><rect fill="#E2E2F0" height="31.6094" rx="2.5" ry="2.5" style="stroke:#181818;stroke-width:0.5;" width="177" x="601.5" y="1785.0781"/><text fill="#000000" font-family="sans-serif" font-size="14" lengthAdjust="spacing" textLength="163" x="608.5" y="1806.6113">:RegisterProduct_OrderUI</text><rect fill="#E2E2F0" height="31.6094" rx="2.5" ry="2.5" style="stroke:#181818;stroke-width:0.5;" width="157" x="788.5" y="50"/><text fill="#000000" font-family="sans-serif" font-size="14" lengthAdjust="spacing" textLength="143" x="795.5" y="71.5332">:ViewProductCatalogUI</text><rect fill="#E2E2F0" height="31.6094" rx="2.5" ry="2.5" style="stroke:#181818;stroke-width:0.5;" width="157" x="788.5" y="1785.0781"/><text fill="#000000" font-family="sans-serif" font-size="14" lengthAdjust="spacing" textLength="143" x="795.5" y="1806.6113">:ViewProductCatalogUI</text><rect fill="#E2E2F0" height="31.6094" rx="2.5" ry="2.5" style="stroke:#181818;stroke-width:0.5;" width="144" x="955.5" y="50"/><text fill="#000000" font-family="sans-serif" font-size="14" lengthAdjust="spacing" textLength="130" x="962.5" y="71.5332">:RegisterCustomerUI</text><rect fill="#E2E2F0" height="31.6094" rx="2.5" ry="2.5" style="stroke:#181818;stroke-width:0.5;" width="144" x="955.5" y="1785.0781"/><text fill="#000000" font-family="sans-serif" font-size="14" lengthAdjust="spacing" textLength="130" x="962.5" y="1806.6113">:RegisterCustomerUI</text><rect fill="#E2E2F0" height="31.6094" rx="2.5" ry="2.5" style="stroke:#181818;stroke-width:0.5;" width="227" x="1109.5" y="50"/><text fill="#000000" font-family="sans-serif" font-size="14" lengthAdjust="spacing" textLength="213" x="1116.5" y="71.5332">:RegisterProduct_OrderController</text><rect fill="#E2E2F0" height="31.6094" rx="2.5" ry="2.5" style="stroke:#181818;stroke-width:0.5;" width="227" x="1109.5" y="1785.0781"/><text fill="#000000" font-family="sans-serif" font-size="14" lengthAdjust="spacing" textLength="213" x="1116.5" y="1806.6113">:RegisterProduct_OrderController</text><rect fill="#E2E2F0" height="31.6094" rx="2.5" ry="2.5" style="stroke:#181818;stroke-width:0.5;" width="206" x="1666" y="1785.0781"/><text fill="#000000" font-family="sans-serif" font-size="14" lengthAdjust="spacing" textLength="192" x="1673" y="1806.6113">product_order: Product_Order</text><rect fill="#E2E2F0" height="31.6094" rx="2.5" ry="2.5" style="stroke:#181818;stroke-width:0.5;" width="140" x="1882" y="50"/><text fill="#000000" font-family="sans-serif" font-size="14" lengthAdjust="spacing" textLength="126" x="1889" y="71.5332">:PersistenceContext</text><rect fill="#E2E2F0" height="31.6094" rx="2.5" ry="2.5" style="stroke:#181818;stroke-width:0.5;" width="140" x="1882" y="1785.0781"/><text fill="#000000" font-family="sans-serif" font-size="14" lengthAdjust="spacing" textLength="126" x="1889" y="1806.6113">:PersistenceContext</text><rect fill="#E2E2F0" height="31.6094" rx="2.5" ry="2.5" style="stroke:#181818;stroke-width:0.5;" width="134" x="2032" y="50"/><text fill="#000000" font-family="sans-serif" font-size="14" lengthAdjust="spacing" textLength="120" x="2039" y="71.5332">:RepositoryFactory</text><rect fill="#E2E2F0" height="31.6094" rx="2.5" ry="2.5" style="stroke:#181818;stroke-width:0.5;" width="134" x="2032" y="1785.0781"/><text fill="#000000" font-family="sans-serif" font-size="14" lengthAdjust="spacing" textLength="120" x="2039" y="1806.6113">:RepositoryFactory</text><rect fill="#E2E2F0" height="31.6094" rx="2.5" ry="2.5" style="stroke:#181818;stroke-width:0.5;" width="123" x="2176" y="50"/><text fill="#000000" font-family="sans-serif" font-size="14" lengthAdjust="spacing" textLength="109" x="2183" y="71.5332">:OrderRepository</text><rect fill="#E2E2F0" height="31.6094" rx="2.5" ry="2.5" style="stroke:#181818;stroke-width:0.5;" width="123" x="2176" y="1785.0781"/><text fill="#000000" font-family="sans-serif" font-size="14" lengthAdjust="spacing" textLength="109" x="2183" y="1806.6113">:OrderRepository</text><rect fill="#E2E2F0" height="31.6094" rx="2.5" ry="2.5" style="stroke:#181818;stroke-width:0.5;" width="147" x="2309" y="50"/><text fill="#000000" font-family="sans-serif" font-size="14" lengthAdjust="spacing" textLength="133" x="2316" y="71.5332">:CustomerRepository</text><rect fill="#E2E2F0" height="31.6094" rx="2.5" ry="2.5" style="stroke:#181818;stroke-width:0.5;" width="147" x="2309" y="1785.0781"/><text fill="#000000" font-family="sans-serif" font-size="14" lengthAdjust="spacing" textLength="133" x="2316" y="1806.6113">:CustomerRepository</text><rect fill="#E2E2F0" height="31.6094" rx="2.5" ry="2.5" style="stroke:#181818;stroke-width:0.5;" width="135" x="2466" y="50"/><text fill="#000000" font-family="sans-serif" font-size="14" lengthAdjust="spacing" textLength="121" x="2473" y="71.5332">:ProductRepository</text><rect fill="#E2E2F0" height="31.6094" rx="2.5" ry="2.5" style="stroke:#181818;stroke-width:0.5;" width="135" x="2466" y="1785.0781"/><text fill="#000000" font-family="sans-serif" font-size="14" lengthAdjust="spacing" textLength="121" x="2473" y="1806.6113">:ProductRepository</text><rect fill="#FFFFFF" height="1675.4688" style="stroke:#181818;stroke-width:1.0;" width="10" x="74" y="92.6094"/><rect fill="#FFFFFF" height="855.5313" style="stroke:#181818;stroke-width:1.0;" width="10" x="685" y="114.9609"/><rect fill="#FFFFFF" height="44.3516" style="stroke:#181818;stroke-width:1.0;" width="10" x="685" y="1000.8438"/><rect fill="#FFFFFF" height="351.9609" style="stroke:#181818;stroke-width:1.0;" width="10" x="685" y="1075.5469"/><rect fill="#FFFFFF" height="30.3516" style="stroke:#181818;stroke-width:1.0;" width="10" x="685" y="1457.8594"/><rect fill="#FFFFFF" height="249.5156" style="stroke:#181818;stroke-width:1.0;" width="10" x="685" y="1518.5625"/><rect fill="#FFFFFF" height="76.7969" style="stroke:#181818;stroke-width:1.0;" width="10" x="862" y="312.4219"/><rect fill="#FFFFFF" height="76.7969" style="stroke:#181818;stroke-width:1.0;" width="10" x="1022.5" y="1313.3594"/><rect fill="#FFFFFF" height="357.8125" style="stroke:#181818;stroke-width:1.0;" width="10" x="1218" y="556.9766"/><rect fill="#FFFFFF" height="91.0547" style="stroke:#181818;stroke-width:1.0;" width="10" x="1218" y="1105.8984"/><rect fill="#FFFFFF" height="139.7578" style="stroke:#181818;stroke-width:1.0;" width="10" x="1218" y="1597.9688"/><rect fill="#FFFFFF" height="211.4063" style="stroke:#181818;stroke-width:1.0;" width="10" x="1947" y="587.3281"/><rect fill="#FFFFFF" height="181.0547" style="stroke:#181818;stroke-width:1.0;" width="10" x="2094" y="617.6797"/><rect fill="#FFFFFF" height="30" style="stroke:#181818;stroke-width:1.0;" width="10" x="2232.5" y="648.0313"/><rect fill="#FFFFFF" height="30" style="stroke:#181818;stroke-width:1.0;" width="10" x="2232.5" y="1707.7266"/><rect fill="#FFFFFF" height="30" style="stroke:#181818;stroke-width:1.0;" width="10" x="2377.5" y="708.3828"/><rect fill="#FFFFFF" height="30.3516" style="stroke:#181818;stroke-width:1.0;" width="10" x="2377.5" y="1136.25"/><rect fill="#FFFFFF" height="30" style="stroke:#181818;stroke-width:1.0;" width="10" x="2528.5" y="768.7344"/><rect fill="#FFFFFF" height="30.3516" style="stroke:#181818;stroke-width:1.0;" width="10" x="2528.5" y="854.0859"/><polygon fill="#181818" points="673,110.9609,683,114.9609,673,118.9609,677,114.9609" style="stroke:#181818;stroke-width:1.0;"/><line style="stroke:#181818;stroke-width:1.0;" x1="84" x2="679" y1="114.9609" y2="114.9609"/><text fill="#000000" font-family="sans-serif" font-size="13" font-weight="bold" lengthAdjust="spacing" textLength="7" x="91" y="110.1045">1</text><text fill="#000000" font-family="sans-serif" font-size="13" lengthAdjust="spacing" textLength="257" x="102" y="110.1045">Register a new Order in behalf of a customer</text><polygon fill="#181818" points="95,141.3125,85,145.3125,95,149.3125,91,145.3125" style="stroke:#181818;stroke-width:1.0;"/><line style="stroke:#181818;stroke-width:1.0;stroke-dasharray:2.0,2.0;" x1="89" x2="684" y1="145.3125" y2="145.3125"/><text fill="#000000" font-family="sans-serif" font-size="13" font-weight="bold" lengthAdjust="spacing" textLength="7" x="101" y="140.4561">2</text><text fill="#000000" font-family="sans-serif" font-size="13" lengthAdjust="spacing" textLength="294" x="112" y="140.4561">asks if the Sales Clerk wants to type the produtsID</text><path d="M10,160.3125 L71,160.3125 L71,168.6641 L61,178.6641 L10,178.6641 L10,160.3125 " fill="#EEEEEE" style="stroke:#000000;stroke-width:1.5;"/><rect fill="none" height="250.9063" style="stroke:#000000;stroke-width:1.5;" width="965.5" x="10" y="160.3125"/><text fill="#000000" font-family="sans-serif" font-size="13" font-weight="bold" lengthAdjust="spacing" textLength="16" x="25" y="174.8076">alt</text><text fill="#000000" font-family="sans-serif" font-size="11" font-weight="bold" lengthAdjust="spacing" textLength="111" x="86" y="173.7314">[answered positive]</text><path d="M20,185.6641 L93,185.6641 L93,194.0156 L83,204.0156 L20,204.0156 L20,185.6641 " fill="#EEEEEE" style="stroke:#000000;stroke-width:1.5;"/><rect fill="none" height="218.5547" style="stroke:#000000;stroke-width:1.5;" width="945.5" x="20" y="185.6641"/><text fill="#000000" font-family="sans-serif" font-size="13" font-weight="bold" lengthAdjust="spacing" textLength="28" x="35" y="200.1592">loop</text><text fill="#000000" font-family="sans-serif" font-size="11" font-weight="bold" lengthAdjust="spacing" textLength="176" x="108" y="199.083">[While the Sales Clerk wants to]</text><polygon fill="#181818" points="95,222.3672,85,226.3672,95,230.3672,91,226.3672" style="stroke:#181818;stroke-width:1.0;"/><line style="stroke:#181818;stroke-width:1.0;stroke-dasharray:2.0,2.0;" x1="89" x2="684" y1="226.3672" y2="226.3672"/><text fill="#000000" font-family="sans-serif" font-size="13" font-weight="bold" lengthAdjust="spacing" textLength="7" x="101" y="221.5107">3</text><text fill="#000000" font-family="sans-serif" font-size="13" lengthAdjust="spacing" textLength="324" x="112" y="221.5107">asks if the Sales Clerk wants to see the product catalog</text><path d="M30,241.3672 L91,241.3672 L91,249.7188 L81,259.7188 L30,259.7188 L30,241.3672 " fill="#EEEEEE" style="stroke:#000000;stroke-width:1.5;"/><rect fill="none" height="155.8516" style="stroke:#000000;stroke-width:1.5;" width="925.5" x="30" y="241.3672"/><text fill="#000000" font-family="sans-serif" font-size="13" font-weight="bold" lengthAdjust="spacing" textLength="16" x="45" y="255.8623">alt</text><text fill="#000000" font-family="sans-serif" font-size="11" font-weight="bold" lengthAdjust="spacing" textLength="111" x="106" y="254.7861">[answered positive]</text><polygon fill="#181818" points="673,278.0703,683,282.0703,673,286.0703,677,282.0703" style="stroke:#181818;stroke-width:1.0;"/><line style="stroke:#181818;stroke-width:1.0;" x1="84" x2="679" y1="282.0703" y2="282.0703"/><text fill="#000000" font-family="sans-serif" font-size="13" font-weight="bold" lengthAdjust="spacing" textLength="7" x="91" y="277.2139">4</text><text fill="#000000" font-family="sans-serif" font-size="13" lengthAdjust="spacing" textLength="88" x="102" y="277.2139">positive answer</text><polygon fill="#181818" points="850,308.4219,860,312.4219,850,316.4219,854,312.4219" style="stroke:#181818;stroke-width:1.0;"/><line style="stroke:#181818;stroke-width:1.0;" x1="695" x2="856" y1="312.4219" y2="312.4219"/><text fill="#000000" font-family="sans-serif" font-size="13" font-weight="bold" lengthAdjust="spacing" textLength="7" x="702" y="307.5654">5</text><text fill="#000000" font-family="sans-serif" font-size="13" lengthAdjust="spacing" textLength="4" x="713" y="307.5654"> </text><rect height="41.4453" style="stroke:#000000;stroke-width:1.5;fill:none;" width="163" x="785.5" y="320.4219"/><path d="M785.5,320.4219 L847.5,320.4219 L847.5,328.4219 L837.5,338.4219 L785.5,338.4219 L785.5,320.4219 " fill="#EEEEEE" style="stroke:#000000;stroke-width:2.0;"/><text fill="#000000" font-family="sans-serif" font-size="13" font-weight="bold" lengthAdjust="spacing" textLength="17" x="798.5" y="335.917">ref</text><text fill="#000000" font-family="sans-serif" font-size="12" lengthAdjust="spacing" textLength="69" x="832.5" y="354.8789">US1002_SD</text><polygon fill="#181818" points="706,385.2188,696,389.2188,706,393.2188,702,389.2188" style="stroke:#181818;stroke-width:1.0;"/><line style="stroke:#181818;stroke-width:1.0;stroke-dasharray:2.0,2.0;" x1="700" x2="866" y1="389.2188" y2="389.2188"/><text fill="#000000" font-family="sans-serif" font-size="13" font-weight="bold" lengthAdjust="spacing" textLength="7" x="712" y="384.3623">6</text><text fill="#000000" font-family="sans-serif" font-size="13" lengthAdjust="spacing" textLength="4" x="723" y="384.3623"> </text><polygon fill="#181818" points="95,436.5703,85,440.5703,95,444.5703,91,440.5703" style="stroke:#181818;stroke-width:1.0;"/><line style="stroke:#181818;stroke-width:1.0;stroke-dasharray:2.0,2.0;" x1="89" x2="684" y1="440.5703" y2="440.5703"/><text fill="#000000" font-family="sans-serif" font-size="13" font-weight="bold" lengthAdjust="spacing" textLength="7" x="101" y="435.7139">7</text><text fill="#000000" font-family="sans-serif" font-size="13" lengthAdjust="spacing" textLength="324" x="112" y="435.7139">asks to type requested data (productID and it's quantity)</text><polygon fill="#181818" points="673,466.9219,683,470.9219,673,474.9219,677,470.9219" style="stroke:#181818;stroke-width:1.0;"/><line style="stroke:#181818;stroke-width:1.0;" x1="84" x2="679" y1="470.9219" y2="470.9219"/><text fill="#000000" font-family="sans-serif" font-size="13" font-weight="bold" lengthAdjust="spacing" textLength="7" x="91" y="466.0654">8</text><text fill="#000000" font-family="sans-serif" font-size="13" lengthAdjust="spacing" textLength="122" x="102" y="466.0654">types requested data</text><polygon fill="#181818" points="95,497.2734,85,501.2734,95,505.2734,91,501.2734" style="stroke:#181818;stroke-width:1.0;"/><line style="stroke:#181818;stroke-width:1.0;stroke-dasharray:2.0,2.0;" x1="89" x2="684" y1="501.2734" y2="501.2734"/><text fill="#000000" font-family="sans-serif" font-size="13" font-weight="bold" lengthAdjust="spacing" textLength="7" x="101" y="496.417">9</text><text fill="#000000" font-family="sans-serif" font-size="13" lengthAdjust="spacing" textLength="277" x="112" y="496.417">asks if the Sales Clerk wants to select products</text><path d="M20,516.2734 L81,516.2734 L81,524.625 L71,534.625 L20,534.625 L20,516.2734 " fill="#EEEEEE" style="stroke:#000000;stroke-width:1.5;"/><rect fill="none" height="499.5703" style="stroke:#000000;stroke-width:1.5;" width="2591" x="20" y="516.2734"/><text fill="#000000" font-family="sans-serif" font-size="13" font-weight="bold" lengthAdjust="spacing" textLength="16" x="35" y="530.7686">alt</text><text fill="#000000" font-family="sans-serif" font-size="11" font-weight="bold" lengthAdjust="spacing" textLength="111" x="96" y="529.6924">[answered positive]</text><polygon fill="#181818" points="1206,552.9766,1216,556.9766,1206,560.9766,1210,556.9766" style="stroke:#181818;stroke-width:1.0;"/><line style="stroke:#181818;stroke-width:1.0;" x1="695" x2="1212" y1="556.9766" y2="556.9766"/><text fill="#000000" font-family="sans-serif" font-size="13" font-weight="bold" lengthAdjust="spacing" textLength="14" x="702" y="552.1201">10</text><text fill="#000000" font-family="sans-serif" font-size="13" lengthAdjust="spacing" textLength="146" x="720" y="552.1201">findAllProductsAvailable()</text><polygon fill="#181818" points="1935,583.3281,1945,587.3281,1935,591.3281,1939,587.3281" style="stroke:#181818;stroke-width:1.0;"/><line style="stroke:#181818;stroke-width:1.0;" x1="1228" x2="1941" y1="587.3281" y2="587.3281"/><text fill="#000000" font-family="sans-serif" font-size="13" font-weight="bold" lengthAdjust="spacing" textLength="14" x="1235" y="582.4717">11</text><text fill="#000000" font-family="sans-serif" font-size="13" lengthAdjust="spacing" textLength="75" x="1253" y="582.4717">repositories()</text><polygon fill="#181818" points="2082,613.6797,2092,617.6797,2082,621.6797,2086,617.6797" style="stroke:#181818;stroke-width:1.0;"/><line style="stroke:#181818;stroke-width:1.0;" x1="1957" x2="2088" y1="617.6797" y2="617.6797"/><text fill="#000000" font-family="sans-serif" font-size="13" font-weight="bold" lengthAdjust="spacing" textLength="14" x="1964" y="612.8232">12</text><text fill="#000000" font-family="sans-serif" font-size="13" lengthAdjust="spacing" textLength="44" x="1982" y="612.8232">create()</text><polygon fill="#181818" points="2220.5,644.0313,2230.5,648.0313,2220.5,652.0313,2224.5,648.0313" style="stroke:#181818;stroke-width:1.0;"/><line style="stroke:#181818;stroke-width:1.0;" x1="2104" x2="2226.5" y1="648.0313" y2="648.0313"/><text fill="#000000" font-family="sans-serif" font-size="13" font-weight="bold" lengthAdjust="spacing" textLength="14" x="2111" y="643.1748">13</text><text fill="#000000" font-family="sans-serif" font-size="13" lengthAdjust="spacing" textLength="44" x="2129" y="643.1748">create()</text><polygon fill="#181818" points="2365.5,704.3828,2375.5,708.3828,2365.5,712.3828,2369.5,708.3828" style="stroke:#181818;stroke-width:1.0;"/><line style="stroke:#181818;stroke-width:1.0;" x1="2104" x2="2371.5" y1="708.3828" y2="708.3828"/><text fill="#000000" font-family="sans-serif" font-size="13" font-weight="bold" lengthAdjust="spacing" textLength="14" x="2111" y="703.5264">14</text><text fill="#000000" font-family="sans-serif" font-size="13" lengthAdjust="spacing" textLength="44" x="2129" y="703.5264">create()</text><polygon fill="#181818" points="2516.5,764.7344,2526.5,768.7344,2516.5,772.7344,2520.5,768.7344" style="stroke:#181818;stroke-width:1.0;"/><line style="stroke:#181818;stroke-width:1.0;" x1="2104" x2="2522.5" y1="768.7344" y2="768.7344"/><text fill="#000000" font-family="sans-serif" font-size="13" font-weight="bold" lengthAdjust="spacing" textLength="14" x="2111" y="763.8779">15</text><text fill="#000000" font-family="sans-serif" font-size="13" lengthAdjust="spacing" textLength="44" x="2129" y="763.8779">create()</text><polygon fill="#181818" points="2516.5,850.0859,2526.5,854.0859,2516.5,858.0859,2520.5,854.0859" style="stroke:#181818;stroke-width:1.0;"/><line style="stroke:#181818;stroke-width:1.0;" x1="1228" x2="2522.5" y1="854.0859" y2="854.0859"/><text fill="#000000" font-family="sans-serif" font-size="13" font-weight="bold" lengthAdjust="spacing" textLength="14" x="1235" y="849.2295">16</text><text fill="#000000" font-family="sans-serif" font-size="13" lengthAdjust="spacing" textLength="95" x="1253" y="849.2295">findAllProducts()</text><polygon fill="#181818" points="1239,880.4375,1229,884.4375,1239,888.4375,1235,884.4375" style="stroke:#181818;stroke-width:1.0;"/><line style="stroke:#181818;stroke-width:1.0;stroke-dasharray:2.0,2.0;" x1="1233" x2="2532.5" y1="884.4375" y2="884.4375"/><text fill="#000000" font-family="sans-serif" font-size="13" font-weight="bold" lengthAdjust="spacing" textLength="14" x="1245" y="879.5811">17</text><text fill="#000000" font-family="sans-serif" font-size="13" lengthAdjust="spacing" textLength="67" x="1263" y="879.5811">productslist</text><polygon fill="#181818" points="706,910.7891,696,914.7891,706,918.7891,702,914.7891" style="stroke:#181818;stroke-width:1.0;"/><line style="stroke:#181818;stroke-width:1.0;stroke-dasharray:2.0,2.0;" x1="700" x2="1222" y1="914.7891" y2="914.7891"/><text fill="#000000" font-family="sans-serif" font-size="13" font-weight="bold" lengthAdjust="spacing" textLength="14" x="712" y="909.9326">18</text><text fill="#000000" font-family="sans-serif" font-size="13" lengthAdjust="spacing" textLength="67" x="730" y="909.9326">productslist</text><path d="M30,929.7891 L103,929.7891 L103,938.1406 L93,948.1406 L30,948.1406 L30,929.7891 " fill="#EEEEEE" style="stroke:#000000;stroke-width:1.5;"/><rect fill="none" height="79.0547" style="stroke:#000000;stroke-width:1.5;" width="758.5" x="30" y="929.7891"/><text fill="#000000" font-family="sans-serif" font-size="13" font-weight="bold" lengthAdjust="spacing" textLength="28" x="45" y="944.2842">loop</text><text fill="#000000" font-family="sans-serif" font-size="11" font-weight="bold" lengthAdjust="spacing" textLength="176" x="118" y="943.208">[While the Sales Clerk wants to]</text><polygon fill="#181818" points="95,966.4922,85,970.4922,95,974.4922,91,970.4922" style="stroke:#181818;stroke-width:1.0;"/><line style="stroke:#181818;stroke-width:1.0;stroke-dasharray:2.0,2.0;" x1="89" x2="689" y1="970.4922" y2="970.4922"/><text fill="#000000" font-family="sans-serif" font-size="13" font-weight="bold" lengthAdjust="spacing" textLength="14" x="101" y="965.6357">19</text><text fill="#000000" font-family="sans-serif" font-size="13" lengthAdjust="spacing" textLength="399" x="119" y="965.6357">asks to select the needed data (The wanted produts and it's quantity)</text><polygon fill="#181818" points="673,996.8438,683,1000.8438,673,1004.8438,677,1000.8438" style="stroke:#181818;stroke-width:1.0;"/><line style="stroke:#181818;stroke-width:1.0;" x1="84" x2="679" y1="1000.8438" y2="1000.8438"/><text fill="#000000" font-family="sans-serif" font-size="13" font-weight="bold" lengthAdjust="spacing" textLength="14" x="91" y="995.9873">20</text><text fill="#000000" font-family="sans-serif" font-size="13" lengthAdjust="spacing" textLength="125" x="109" y="995.9873">select requested data</text><polygon fill="#181818" points="95,1041.1953,85,1045.1953,95,1049.1953,91,1045.1953" style="stroke:#181818;stroke-width:1.0;"/><line style="stroke:#181818;stroke-width:1.0;stroke-dasharray:2.0,2.0;" x1="89" x2="689" y1="1045.1953" y2="1045.1953"/><text fill="#000000" font-family="sans-serif" font-size="13" font-weight="bold" lengthAdjust="spacing" textLength="14" x="101" y="1040.3389">21</text><text fill="#000000" font-family="sans-serif" font-size="13" lengthAdjust="spacing" textLength="164" x="119" y="1040.3389">asks to type the customerID</text><polygon fill="#181818" points="673,1071.5469,683,1075.5469,673,1079.5469,677,1075.5469" style="stroke:#181818;stroke-width:1.0;"/><line style="stroke:#181818;stroke-width:1.0;" x1="84" x2="679" y1="1075.5469" y2="1075.5469"/><text fill="#000000" font-family="sans-serif" font-size="13" font-weight="bold" lengthAdjust="spacing" textLength="14" x="91" y="1070.6904">22</text><text fill="#000000" font-family="sans-serif" font-size="13" lengthAdjust="spacing" textLength="115" x="109" y="1070.6904">type requested data</text><polygon fill="#181818" points="1206,1101.8984,1216,1105.8984,1206,1109.8984,1210,1105.8984" style="stroke:#181818;stroke-width:1.0;"/><line style="stroke:#181818;stroke-width:1.0;" x1="695" x2="1212" y1="1105.8984" y2="1105.8984"/><text fill="#000000" font-family="sans-serif" font-size="13" font-weight="bold" lengthAdjust="spacing" textLength="14" x="702" y="1101.042">23</text><text fill="#000000" font-family="sans-serif" font-size="13" lengthAdjust="spacing" textLength="112" x="720" y="1101.042">findCustomerByID()</text><polygon fill="#181818" points="2365.5,1132.25,2375.5,1136.25,2365.5,1140.25,2369.5,1136.25" style="stroke:#181818;stroke-width:1.0;"/><line style="stroke:#181818;stroke-width:1.0;" x1="1228" x2="2371.5" y1="1136.25" y2="1136.25"/><text fill="#000000" font-family="sans-serif" font-size="13" font-weight="bold" lengthAdjust="spacing" textLength="14" x="1235" y="1131.3936">24</text><text fill="#000000" font-family="sans-serif" font-size="13" lengthAdjust="spacing" textLength="112" x="1253" y="1131.3936">findCustomerByID()</text><polygon fill="#181818" points="1239,1162.6016,1229,1166.6016,1239,1170.6016,1235,1166.6016" style="stroke:#181818;stroke-width:1.0;"/><line style="stroke:#181818;stroke-width:1.0;stroke-dasharray:2.0,2.0;" x1="1233" x2="2381.5" y1="1166.6016" y2="1166.6016"/><text fill="#000000" font-family="sans-serif" font-size="13" font-weight="bold" lengthAdjust="spacing" textLength="14" x="1245" y="1161.7451">25</text><text fill="#000000" font-family="sans-serif" font-size="13" lengthAdjust="spacing" textLength="54" x="1263" y="1161.7451">customer</text><polygon fill="#181818" points="706,1192.9531,696,1196.9531,706,1200.9531,702,1196.9531" style="stroke:#181818;stroke-width:1.0;"/><line style="stroke:#181818;stroke-width:1.0;stroke-dasharray:2.0,2.0;" x1="700" x2="1222" y1="1196.9531" y2="1196.9531"/><text fill="#000000" font-family="sans-serif" font-size="13" font-weight="bold" lengthAdjust="spacing" textLength="14" x="712" y="1192.0967">26</text><text fill="#000000" font-family="sans-serif" font-size="13" lengthAdjust="spacing" textLength="54" x="730" y="1192.0967">customer</text><path d="M30,1211.9531 L91,1211.9531 L91,1220.3047 L81,1230.3047 L30,1230.3047 L30,1211.9531 " fill="#EEEEEE" style="stroke:#000000;stroke-width:1.5;"/><rect fill="none" height="186.2031" style="stroke:#000000;stroke-width:1.5;" width="1079.5" x="30" y="1211.9531"/><text fill="#000000" font-family="sans-serif" font-size="13" font-weight="bold" lengthAdjust="spacing" textLength="16" x="45" y="1226.4482">alt</text><text fill="#000000" font-family="sans-serif" font-size="11" font-weight="bold" lengthAdjust="spacing" textLength="100" x="106" y="1225.3721">[customer == null]</text><polygon fill="#181818" points="95,1248.6563,85,1252.6563,95,1256.6563,91,1252.6563" style="stroke:#181818;stroke-width:1.0;"/><line style="stroke:#181818;stroke-width:1.0;stroke-dasharray:2.0,2.0;" x1="89" x2="684" y1="1252.6563" y2="1252.6563"/><text fill="#000000" font-family="sans-serif" font-size="13" font-weight="bold" lengthAdjust="spacing" textLength="14" x="101" y="1247.7998">27</text><text fill="#000000" font-family="sans-serif" font-size="13" lengthAdjust="spacing" textLength="249" x="119" y="1247.7998">asks if the Sales Clerk wants to create one</text><polygon fill="#181818" points="673,1279.0078,683,1283.0078,673,1287.0078,677,1283.0078" style="stroke:#181818;stroke-width:1.0;"/><line style="stroke:#181818;stroke-width:1.0;" x1="84" x2="679" y1="1283.0078" y2="1283.0078"/><text fill="#000000" font-family="sans-serif" font-size="13" font-weight="bold" lengthAdjust="spacing" textLength="14" x="91" y="1278.1514">28</text><text fill="#000000" font-family="sans-serif" font-size="13" lengthAdjust="spacing" textLength="95" x="109" y="1278.1514">answers positive</text><polygon fill="#181818" points="1010.5,1309.3594,1020.5,1313.3594,1010.5,1317.3594,1014.5,1313.3594" style="stroke:#181818;stroke-width:1.0;"/><line style="stroke:#181818;stroke-width:1.0;" x1="695" x2="1016.5" y1="1313.3594" y2="1313.3594"/><text fill="#000000" font-family="sans-serif" font-size="13" font-weight="bold" lengthAdjust="spacing" textLength="14" x="702" y="1308.5029">29</text><text fill="#000000" font-family="sans-serif" font-size="13" lengthAdjust="spacing" textLength="4" x="720" y="1308.5029"> </text><rect height="41.4453" style="stroke:#000000;stroke-width:1.5;fill:none;" width="150" x="952.5" y="1321.3594"/><path d="M952.5,1321.3594 L1014.5,1321.3594 L1014.5,1329.3594 L1004.5,1339.3594 L952.5,1339.3594 L952.5,1321.3594 " fill="#EEEEEE" style="stroke:#000000;stroke-width:2.0;"/><text fill="#000000" font-family="sans-serif" font-size="13" font-weight="bold" lengthAdjust="spacing" textLength="17" x="965.5" y="1336.8545">ref</text><text fill="#000000" font-family="sans-serif" font-size="12" lengthAdjust="spacing" textLength="69" x="993" y="1355.8164">US1003_SD</text><polygon fill="#181818" points="706,1386.1563,696,1390.1563,706,1394.1563,702,1390.1563" style="stroke:#181818;stroke-width:1.0;"/><line style="stroke:#181818;stroke-width:1.0;stroke-dasharray:2.0,2.0;" x1="700" x2="1026.5" y1="1390.1563" y2="1390.1563"/><text fill="#000000" font-family="sans-serif" font-size="13" font-weight="bold" lengthAdjust="spacing" textLength="14" x="712" y="1385.2998">30</text><text fill="#000000" font-family="sans-serif" font-size="13" lengthAdjust="spacing" textLength="4" x="730" y="1385.2998"> </text><polygon fill="#181818" points="95,1423.5078,85,1427.5078,95,1431.5078,91,1427.5078" style="stroke:#181818;stroke-width:1.0;"/><line style="stroke:#181818;stroke-width:1.0;stroke-dasharray:2.0,2.0;" x1="89" x2="689" y1="1427.5078" y2="1427.5078"/><text fill="#000000" font-family="sans-serif" font-size="13" font-weight="bold" lengthAdjust="spacing" textLength="14" x="101" y="1422.6514">31</text><text fill="#000000" font-family="sans-serif" font-size="13" lengthAdjust="spacing" textLength="559" x="119" y="1422.6514">asks to select the billing, the delivering address , the shipment method and a method of payment</text><polygon fill="#181818" points="673,1453.8594,683,1457.8594,673,1461.8594,677,1457.8594" style="stroke:#181818;stroke-width:1.0;"/><line style="stroke:#181818;stroke-width:1.0;" x1="84" x2="679" y1="1457.8594" y2="1457.8594"/><text fill="#000000" font-family="sans-serif" font-size="13" font-weight="bold" lengthAdjust="spacing" textLength="14" x="91" y="1453.0029">32</text><text fill="#000000" font-family="sans-serif" font-size="13" lengthAdjust="spacing" textLength="125" x="109" y="1453.0029">select requested data</text><polygon fill="#181818" points="95,1484.2109,85,1488.2109,95,1492.2109,91,1488.2109" style="stroke:#181818;stroke-width:1.0;"/><line style="stroke:#181818;stroke-width:1.0;stroke-dasharray:2.0,2.0;" x1="89" x2="689" y1="1488.2109" y2="1488.2109"/><text fill="#000000" font-family="sans-serif" font-size="13" font-weight="bold" lengthAdjust="spacing" textLength="14" x="101" y="1483.3545">33</text><text fill="#000000" font-family="sans-serif" font-size="13" lengthAdjust="spacing" textLength="273" x="119" y="1483.3545">asks to type the source of the order information</text><polygon fill="#181818" points="673,1514.5625,683,1518.5625,673,1522.5625,677,1518.5625" style="stroke:#181818;stroke-width:1.0;"/><line style="stroke:#181818;stroke-width:1.0;" x1="84" x2="679" y1="1518.5625" y2="1518.5625"/><text fill="#000000" font-family="sans-serif" font-size="13" font-weight="bold" lengthAdjust="spacing" textLength="14" x="91" y="1513.7061">34</text><text fill="#000000" font-family="sans-serif" font-size="13" lengthAdjust="spacing" textLength="115" x="109" y="1513.7061">type requested data</text><polygon fill="#181818" points="1206,1593.9688,1216,1597.9688,1206,1601.9688,1210,1597.9688" style="stroke:#181818;stroke-width:1.0;"/><line style="stroke:#181818;stroke-width:1.0;" x1="695" x2="1212" y1="1597.9688" y2="1597.9688"/><text fill="#000000" font-family="sans-serif" font-size="13" font-weight="bold" lengthAdjust="spacing" textLength="14" x="702" y="1568.585">35</text><text fill="#000000" font-family="sans-serif" font-size="13" lengthAdjust="spacing" textLength="318" x="720" y="1544.0576">addOrder(registration_time,shipment_method,payment,</text><text fill="#000000" font-family="sans-serif" font-size="13" lengthAdjust="spacing" textLength="167" x="720" y="1560.4092">order_productList,quantitylist</text><text fill="#000000" font-family="sans-serif" font-size="13" lengthAdjust="spacing" textLength="187" x="720" y="1576.7607">,bilingaddress,deliveringaddress,</text><text fill="#000000" font-family="sans-serif" font-size="13" lengthAdjust="spacing" textLength="174" x="720" y="1593.1123">customer,sourceofInformation)</text><polygon fill="#181818" points="1654,1673.375,1664,1677.375,1654,1681.375,1658,1677.375" style="stroke:#181818;stroke-width:1.0;"/><line style="stroke:#181818;stroke-width:1.0;" x1="1228" x2="1660" y1="1677.375" y2="1677.375"/><text fill="#000000" font-family="sans-serif" font-size="13" font-weight="bold" lengthAdjust="spacing" textLength="14" x="1235" y="1647.9912">36</text><text fill="#000000" font-family="sans-serif" font-size="13" lengthAdjust="spacing" textLength="396" x="1253" y="1623.4639">product_order = create(registration_time,shipment_method,payment,</text><text fill="#000000" font-family="sans-serif" font-size="13" lengthAdjust="spacing" textLength="167" x="1253" y="1639.8154">order_productList,quantitylist</text><text fill="#000000" font-family="sans-serif" font-size="13" lengthAdjust="spacing" textLength="187" x="1253" y="1656.167">,bilingaddress,deliveringaddress,</text><text fill="#000000" font-family="sans-serif" font-size="13" lengthAdjust="spacing" textLength="174" x="1253" y="1672.5186">customer,sourceofInformation)</text><rect fill="#E2E2F0" height="31.6094" rx="2.5" ry="2.5" style="stroke:#181818;stroke-width:0.5;" width="206" x="1666" y="1642.7656"/><text fill="#000000" font-family="sans-serif" font-size="14" lengthAdjust="spacing" textLength="192" x="1673" y="1664.2988">product_order: Product_Order</text><polygon fill="#181818" points="2220.5,1703.7266,2230.5,1707.7266,2220.5,1711.7266,2224.5,1707.7266" style="stroke:#181818;stroke-width:1.0;"/><line style="stroke:#181818;stroke-width:1.0;" x1="1228" x2="2226.5" y1="1707.7266" y2="1707.7266"/><text fill="#000000" font-family="sans-serif" font-size="13" font-weight="bold" lengthAdjust="spacing" textLength="14" x="1235" y="1702.8701">37</text><text fill="#000000" font-family="sans-serif" font-size="13" lengthAdjust="spacing" textLength="113" x="1253" y="1702.8701">save(product_order)</text><polygon fill="#181818" points="90,1764.0781,80,1768.0781,90,1772.0781,86,1768.0781" style="stroke:#181818;stroke-width:1.0;"/><line style="stroke:#181818;stroke-width:1.0;stroke-dasharray:2.0,2.0;" x1="84" x2="689" y1="1768.0781" y2="1768.0781"/><text fill="#000000" font-family="sans-serif" font-size="13" font-weight="bold" lengthAdjust="spacing" textLength="14" x="96" y="1763.2217">38</text><text fill="#000000" font-family="sans-serif" font-size="13" lengthAdjust="spacing" textLength="152" x="114" y="1763.2217">informs operation success</text><!--MD5=[311541f37bce9ca3e1054c4f35fc279b]
@startuml
'https://plantuml.com/sequence-diagram

autonumber
'hide footbox
actor "Sales Clerk" as SC
participant ":RegisterProduct_OrderUI" as RPOUI
participant ":ViewProductCatalogUI" as VPCUI
participant ":RegisterCustomerUI" as RCUI
participant ":RegisterProduct_OrderController" as RPOC
participant "product_order: Product_Order" as PO
participant ":PersistenceContext" as PC
participant ":RepositoryFactory" as RF
participant ":OrderRepository" as OR
participant ":CustomerRepository" as CR
participant ":ProductRepository" as PR




autonumber
activate SC
SC -> RPOUI: Register a new Order in behalf of a customer
activate RPOUI
RPOUI - -> SC : asks if the Sales Clerk wants to type the produtsID
alt answered positive
loop While the Sales Clerk wants to
RPOUI - -> SC : asks if the Sales Clerk wants to see the product catalog

alt answered positive

SC -> RPOUI : positive answer
RPOUI -> VPCUI :
activate VPCUI
ref over VPCUI
US1002_SD
end ref
VPCUI - -> RPOUI
deactivate VPCUI
end

end loop
end
RPOUI - -> SC : asks to type requested data (productID and it's quantity)

SC -> RPOUI : types requested data

RPOUI - -> SC : asks if the Sales Clerk wants to select products
alt answered positive


RPOUI -> RPOC: findAllProductsAvailable()
activate RPOC

RPOC -> PC : repositories()
activate PC
PC -> RF : create()
activate RF
RF -> OR : create()
activate OR
deactivate OR
RF -> CR : create()
activate CR
deactivate CR
RF -> PR : create()
activate PR
deactivate PR
deactivate RF
|||
deactivate PC

RPOC -> PR : findAllProducts()
activate PR
PR - -> RPOC : productslist
deactivate PR
RPOC - -> RPOUI : productslist

loop While the Sales Clerk wants to
deactivate RPOC
RPOUI - -> SC: asks to select the needed data (The wanted produts and it's quantity)
deactivate RPOUI

SC -> RPOUI: select requested data
activate RPOUI
end loop
end


RPOUI - -> SC: asks to type the customerID
deactivate RPOUI


SC -> RPOUI: type requested data
activate RPOUI

RPOUI -> RPOC : findCustomerByID()
activate RPOC
RPOC -> CR : findCustomerByID()
activate CR
CR - -> RPOC : customer
deactivate CR
RPOC - -> RPOUI : customer
deactivate RPOC

alt customer == null
RPOUI - -> SC : asks if the Sales Clerk wants to create one
SC -> RPOUI : answers positive
RPOUI -> RCUI :
activate RCUI
ref over RCUI
US1003_SD
end ref
RCUI - -> RPOUI
deactivate RCUI


end

RPOUI - -> SC: asks to select the billing, the delivering address , the shipment method and a method of payment
deactivate RPOUI



SC -> RPOUI: select requested data
activate RPOUI
RPOUI - -> SC: asks to type the source of the order information
deactivate RPOUI



SC -> RPOUI: type requested data
activate RPOUI
RPOUI -> RPOC : addOrder(registration_time,shipment_method,payment,\norder_productList,quantitylist\n,bilingaddress,deliveringaddress,\ncustomer,sourceofInformation)
activate RPOC
RPOC -> PO** : product_order = create(registration_time,shipment_method,payment,\norder_productList,quantitylist\n,bilingaddress,deliveringaddress,\ncustomer,sourceofInformation)
RPOC -> OR : save(product_order)
activate OR
deactivate OR
deactivate RPOC


RPOUI - -> SC: informs operation success
deactivate RPOUI
deactivate SC

@enduml

@startuml

autonumber
actor "Sales Clerk" as SC
participant ":RegisterProduct_OrderUI" as RPOUI
participant ":ViewProductCatalogUI" as VPCUI
participant ":RegisterCustomerUI" as RCUI
participant ":RegisterProduct_OrderController" as RPOC
participant "product_order: Product_Order" as PO
participant ":PersistenceContext" as PC
participant ":RepositoryFactory" as RF
participant ":OrderRepository" as OR
participant ":CustomerRepository" as CR
participant ":ProductRepository" as PR




autonumber
activate SC
SC -> RPOUI: Register a new Order in behalf of a customer
activate RPOUI
RPOUI - -> SC : asks if the Sales Clerk wants to type the produtsID
alt answered positive
loop While the Sales Clerk wants to
RPOUI - -> SC : asks if the Sales Clerk wants to see the product catalog

alt answered positive

SC -> RPOUI : positive answer
RPOUI -> VPCUI :
activate VPCUI
ref over VPCUI
US1002_SD
end ref
VPCUI - -> RPOUI
deactivate VPCUI
end

end loop
end
RPOUI - -> SC : asks to type requested data (productID and it's quantity)

SC -> RPOUI : types requested data

RPOUI - -> SC : asks if the Sales Clerk wants to select products
alt answered positive


RPOUI -> RPOC: findAllProductsAvailable()
activate RPOC

RPOC -> PC : repositories()
activate PC
PC -> RF : create()
activate RF
RF -> OR : create()
activate OR
deactivate OR
RF -> CR : create()
activate CR
deactivate CR
RF -> PR : create()
activate PR
deactivate PR
deactivate RF
|||
deactivate PC

RPOC -> PR : findAllProducts()
activate PR
PR - -> RPOC : productslist
deactivate PR
RPOC - -> RPOUI : productslist

loop While the Sales Clerk wants to
deactivate RPOC
RPOUI - -> SC: asks to select the needed data (The wanted produts and it's quantity)
deactivate RPOUI

SC -> RPOUI: select requested data
activate RPOUI
end loop
end


RPOUI - -> SC: asks to type the customerID
deactivate RPOUI


SC -> RPOUI: type requested data
activate RPOUI

RPOUI -> RPOC : findCustomerByID()
activate RPOC
RPOC -> CR : findCustomerByID()
activate CR
CR - -> RPOC : customer
deactivate CR
RPOC - -> RPOUI : customer
deactivate RPOC

alt customer == null
RPOUI - -> SC : asks if the Sales Clerk wants to create one
SC -> RPOUI : answers positive
RPOUI -> RCUI :
activate RCUI
ref over RCUI
US1003_SD
end ref
RCUI - -> RPOUI
deactivate RCUI


end

RPOUI - -> SC: asks to select the billing, the delivering address , the shipment method and a method of payment
deactivate RPOUI



SC -> RPOUI: select requested data
activate RPOUI
RPOUI - -> SC: asks to type the source of the order information
deactivate RPOUI



SC -> RPOUI: type requested data
activate RPOUI
RPOUI -> RPOC : addOrder(registration_time,shipment_method,payment,\norder_productList,quantitylist\n,bilingaddress,deliveringaddress,\ncustomer,sourceofInformation)
activate RPOC
RPOC -> PO** : product_order = create(registration_time,shipment_method,payment,\norder_productList,quantitylist\n,bilingaddress,deliveringaddress,\ncustomer,sourceofInformation)
RPOC -> OR : save(product_order)
activate OR
deactivate OR
deactivate RPOC


RPOUI - -> SC: informs operation success
deactivate RPOUI
deactivate SC

@enduml

PlantUML version 1.2022.4(Sat Apr 09 14:29:17 BST 2022)
(GPL source distribution)
Java Runtime: OpenJDK Runtime Environment
JVM: OpenJDK 64-Bit Server VM
Default Encoding: Cp1252
Language: pt
Country: PT
--></g></svg>