<?xml version="1.0" encoding="UTF-8" standalone="no"?><svg xmlns="http://www.w3.org/2000/svg" xmlns:xlink="http://www.w3.org/1999/xlink" contentScriptType="application/ecmascript" contentStyleType="text/css" height="983px" preserveAspectRatio="none" style="width:667px;height:983px;background:#FFFFFF;" version="1.1" viewBox="0 0 667 983" width="667px" zoomAndPan="magnify"><defs><filter height="300%" id="f1f13boxl0a41b" width="300%" x="-1" y="-1"><feGaussianBlur result="blurOut" stdDeviation="2.0"/><feColorMatrix in="blurOut" result="blurOut2" type="matrix" values="0 0 0 0 0 0 0 0 0 0 0 0 0 0 0 0 0 0 .4 0"/><feOffset dx="4.0" dy="4.0" in="blurOut2" result="blurOut3"/><feBlend in="SourceGraphic" in2="blurOut3" mode="normal"/></filter></defs><g><!--MD5=[8fd473fd151a2794da4f2c8684676405]
cluster Presentation--><polygon fill="#FFFFFF" filter="url(#f1f13boxl0a41b)" points="56,6,152,6,159,29.6094,174,29.6094,174,106,56,106,56,6" style="stroke:#000000;stroke-width:1.5;"/><line style="stroke:#000000;stroke-width:1.5;" x1="56" x2="159" y1="29.6094" y2="29.6094"/><text fill="#000000" font-family="sans-serif" font-size="14" font-weight="bold" lengthAdjust="spacing" textLength="90" x="60" y="22.5332">Presentation</text><!--MD5=[d64883541e3d62e3241c4d12decf100d]
cluster Application--><polygon fill="#FFFFFF" filter="url(#f1f13boxl0a41b)" points="16,130,100,130,107,153.6094,214,153.6094,214,244,16,244,16,130" style="stroke:#000000;stroke-width:1.5;"/><line style="stroke:#000000;stroke-width:1.5;" x1="16" x2="107" y1="153.6094" y2="153.6094"/><text fill="#000000" font-family="sans-serif" font-size="14" font-weight="bold" lengthAdjust="spacing" textLength="78" x="20" y="146.5332">Application</text><!--MD5=[121a8bf1197281ab89ed693fab589f94]
cluster Domain--><polygon fill="#FFFFFF" filter="url(#f1f13boxl0a41b)" points="36,876,94,876,101,899.6094,142,899.6094,142,976,36,976,36,876" style="stroke:#000000;stroke-width:1.5;"/><line style="stroke:#000000;stroke-width:1.5;" x1="36" x2="101" y1="899.6094" y2="899.6094"/><text fill="#000000" font-family="sans-serif" font-size="14" font-weight="bold" lengthAdjust="spacing" textLength="52" x="40" y="892.5332">Domain</text><!--MD5=[bc6b40dadbf86ab6a0c8405a467a48af]
cluster Persistence--><polygon fill="#FFFFFF" filter="url(#f1f13boxl0a41b)" points="110,313,200,313,207,336.6094,282,336.6094,282,427,110,427,110,313" style="stroke:#000000;stroke-width:1.5;"/><line style="stroke:#000000;stroke-width:1.5;" x1="110" x2="207" y1="336.6094" y2="336.6094"/><text fill="#000000" font-family="sans-serif" font-size="14" font-weight="bold" lengthAdjust="spacing" textLength="84" x="114" y="329.5332">Persistence</text><!--MD5=[0d5799440b3bfefd92b00abfcd2c79b9]
cluster Factory--><polygon fill="#FFFFFF" filter="url(#f1f13boxl0a41b)" points="171,496,229,496,236,519.6094,333,519.6094,333,610,171,610,171,496" style="stroke:#000000;stroke-width:1.5;"/><line style="stroke:#000000;stroke-width:1.5;" x1="171" x2="236" y1="519.6094" y2="519.6094"/><text fill="#000000" font-family="sans-serif" font-size="14" font-weight="bold" lengthAdjust="spacing" textLength="52" x="175" y="512.5332">Factory</text><!--MD5=[71971f99a41bb66cf321ce46bb59f738]
cluster Repository--><polygon fill="#FFFFFF" filter="url(#f1f13boxl0a41b)" points="76,679,158,679,165,702.6094,650,702.6094,650,807,76,807,76,679" style="stroke:#000000;stroke-width:1.5;"/><line style="stroke:#000000;stroke-width:1.5;" x1="76" x2="165" y1="702.6094" y2="702.6094"/><text fill="#000000" font-family="sans-serif" font-size="14" font-weight="bold" lengthAdjust="spacing" textLength="76" x="80" y="695.5332">Repository</text><!--MD5=[1d3b02a907f38f5cbff31e6750f26249]
class ProductUI--><rect codeLine="4" fill="#FEFECE" filter="url(#f1f13boxl0a41b)" height="48" id="ProductUI" style="stroke:#A80036;stroke-width:1.5;" width="86" x="72" y="42"/><ellipse cx="87" cy="58" fill="#ADD1B2" rx="11" ry="11" style="stroke:#A80036;stroke-width:1.0;"/><path d="M89,54.5 Q89.2031,54 89.4375,53.75 Q89.6719,53.5 89.9375,53.5 Q90.4063,53.5 90.7031,53.7813 Q91,54.0625 91,54.7188 L91,56.2813 Q91,56.9375 90.7188,57.2188 Q90.4375,57.5 90,57.5 Q89.6094,57.5 89.3594,57.3281 Q89.1094,57.1563 89,56.7031 Q88.9531,56.3906 88.7813,56.2188 Q88.4688,55.8906 87.9063,55.7031 Q87.3438,55.5 86.7813,55.5 Q86.0781,55.5 85.4844,55.7813 Q84.9063,56.0625 84.4531,56.6875 Q84,57.3125 84,58.1719 L84,59.0938 Q84,60.125 84.8438,60.8125 Q85.6875,61.5 87.1875,61.5 Q88.0781,61.5 88.7031,61.2969 Q89.0625,61.1875 89.4688,60.8281 Q89.7344,60.625 89.875,60.5625 Q90.0156,60.5 90.1875,60.5 Q90.5156,60.5 90.75,60.7656 Q91,61.0156 91,61.375 Q91,61.7188 90.6563,62.125 Q90.1563,62.7188 89.3594,63.0469 Q88.3125,63.5 87.0313,63.5 Q85.5313,63.5 84.3281,62.9063 Q83.3594,62.4375 82.6719,61.4219 Q82,60.4063 82,59.2031 L82,58.1094 Q82,56.8594 82.5938,55.7656 Q83.2031,54.6719 84.25,54.0938 Q85.3125,53.5 86.5,53.5 Q87.2188,53.5 87.8438,53.75 Q88.4688,54 89,54.5 Z " fill="#000000"/><text fill="#000000" font-family="sans-serif" font-size="12" lengthAdjust="spacing" textLength="54" x="101" y="62.9102">ProductUI</text><line style="stroke:#A80036;stroke-width:1.5;" x1="73" x2="157" y1="74" y2="74"/><line style="stroke:#A80036;stroke-width:1.5;" x1="73" x2="157" y1="82" y2="82"/><!--MD5=[d075cbfd1bc6257328ab78d4d3e082be]
class CreateProductController--><rect codeLine="8" fill="#FEFECE" filter="url(#f1f13boxl0a41b)" height="61.8359" id="CreateProductController" style="stroke:#A80036;stroke-width:1.5;" width="165" x="32.5" y="166"/><ellipse cx="47.5" cy="182" fill="#ADD1B2" rx="11" ry="11" style="stroke:#A80036;stroke-width:1.0;"/><path d="M49.5,178.5 Q49.7031,178 49.9375,177.75 Q50.1719,177.5 50.4375,177.5 Q50.9063,177.5 51.2031,177.7813 Q51.5,178.0625 51.5,178.7188 L51.5,180.2813 Q51.5,180.9375 51.2188,181.2188 Q50.9375,181.5 50.5,181.5 Q50.1094,181.5 49.8594,181.3281 Q49.6094,181.1563 49.5,180.7031 Q49.4531,180.3906 49.2813,180.2188 Q48.9688,179.8906 48.4063,179.7031 Q47.8438,179.5 47.2813,179.5 Q46.5781,179.5 45.9844,179.7813 Q45.4063,180.0625 44.9531,180.6875 Q44.5,181.3125 44.5,182.1719 L44.5,183.0938 Q44.5,184.125 45.3438,184.8125 Q46.1875,185.5 47.6875,185.5 Q48.5781,185.5 49.2031,185.2969 Q49.5625,185.1875 49.9688,184.8281 Q50.2344,184.625 50.375,184.5625 Q50.5156,184.5 50.6875,184.5 Q51.0156,184.5 51.25,184.7656 Q51.5,185.0156 51.5,185.375 Q51.5,185.7188 51.1563,186.125 Q50.6563,186.7188 49.8594,187.0469 Q48.8125,187.5 47.5313,187.5 Q46.0313,187.5 44.8281,186.9063 Q43.8594,186.4375 43.1719,185.4219 Q42.5,184.4063 42.5,183.2031 L42.5,182.1094 Q42.5,180.8594 43.0938,179.7656 Q43.7031,178.6719 44.75,178.0938 Q45.8125,177.5 47,177.5 Q47.7188,177.5 48.3438,177.75 Q48.9688,178 49.5,178.5 Z " fill="#000000"/><text fill="#000000" font-family="sans-serif" font-size="12" lengthAdjust="spacing" textLength="133" x="61.5" y="186.9102">CreateProductController</text><line style="stroke:#A80036;stroke-width:1.5;" x1="33.5" x2="196.5" y1="198" y2="198"/><line style="stroke:#A80036;stroke-width:1.5;" x1="33.5" x2="196.5" y1="206" y2="206"/><text fill="#000000" font-family="sans-serif" font-size="11" lengthAdjust="spacing" textLength="81" x="38.5" y="221.4189">+getCategories()</text><!--MD5=[72136138052d025cffdce3c22fbd185f]
class Product--><rect codeLine="14" fill="#FEFECE" filter="url(#f1f13boxl0a41b)" height="48" id="Product" style="stroke:#A80036;stroke-width:1.5;" width="74" x="52" y="912"/><ellipse cx="67" cy="928" fill="#ADD1B2" rx="11" ry="11" style="stroke:#A80036;stroke-width:1.0;"/><path d="M69,924.5 Q69.2031,924 69.4375,923.75 Q69.6719,923.5 69.9375,923.5 Q70.4063,923.5 70.7031,923.7813 Q71,924.0625 71,924.7188 L71,926.2813 Q71,926.9375 70.7188,927.2188 Q70.4375,927.5 70,927.5 Q69.6094,927.5 69.3594,927.3281 Q69.1094,927.1563 69,926.7031 Q68.9531,926.3906 68.7813,926.2188 Q68.4688,925.8906 67.9063,925.7031 Q67.3438,925.5 66.7813,925.5 Q66.0781,925.5 65.4844,925.7813 Q64.9063,926.0625 64.4531,926.6875 Q64,927.3125 64,928.1719 L64,929.0938 Q64,930.125 64.8438,930.8125 Q65.6875,931.5 67.1875,931.5 Q68.0781,931.5 68.7031,931.2969 Q69.0625,931.1875 69.4688,930.8281 Q69.7344,930.625 69.875,930.5625 Q70.0156,930.5 70.1875,930.5 Q70.5156,930.5 70.75,930.7656 Q71,931.0156 71,931.375 Q71,931.7188 70.6563,932.125 Q70.1563,932.7188 69.3594,933.0469 Q68.3125,933.5 67.0313,933.5 Q65.5313,933.5 64.3281,932.9063 Q63.3594,932.4375 62.6719,931.4219 Q62,930.4063 62,929.2031 L62,928.1094 Q62,926.8594 62.5938,925.7656 Q63.2031,924.6719 64.25,924.0938 Q65.3125,923.5 66.5,923.5 Q67.2188,923.5 67.8438,923.75 Q68.4688,924 69,924.5 Z " fill="#000000"/><text fill="#000000" font-family="sans-serif" font-size="12" lengthAdjust="spacing" textLength="42" x="81" y="932.9102">Product</text><line style="stroke:#A80036;stroke-width:1.5;" x1="53" x2="125" y1="944" y2="944"/><line style="stroke:#A80036;stroke-width:1.5;" x1="53" x2="125" y1="952" y2="952"/><!--MD5=[e8c189551b7885b999ad7cefb30fc2a3]
class PersistenceContext--><rect codeLine="18" fill="#FEFECE" filter="url(#f1f13boxl0a41b)" height="61.8359" id="PersistenceContext" style="stroke:#A80036;stroke-width:1.5;" width="139" x="126.5" y="349"/><ellipse cx="141.5" cy="365" fill="#ADD1B2" rx="11" ry="11" style="stroke:#A80036;stroke-width:1.0;"/><path d="M143.5,361.5 Q143.7031,361 143.9375,360.75 Q144.1719,360.5 144.4375,360.5 Q144.9063,360.5 145.2031,360.7813 Q145.5,361.0625 145.5,361.7188 L145.5,363.2813 Q145.5,363.9375 145.2188,364.2188 Q144.9375,364.5 144.5,364.5 Q144.1094,364.5 143.8594,364.3281 Q143.6094,364.1563 143.5,363.7031 Q143.4531,363.3906 143.2813,363.2188 Q142.9688,362.8906 142.4063,362.7031 Q141.8438,362.5 141.2813,362.5 Q140.5781,362.5 139.9844,362.7813 Q139.4063,363.0625 138.9531,363.6875 Q138.5,364.3125 138.5,365.1719 L138.5,366.0938 Q138.5,367.125 139.3438,367.8125 Q140.1875,368.5 141.6875,368.5 Q142.5781,368.5 143.2031,368.2969 Q143.5625,368.1875 143.9688,367.8281 Q144.2344,367.625 144.375,367.5625 Q144.5156,367.5 144.6875,367.5 Q145.0156,367.5 145.25,367.7656 Q145.5,368.0156 145.5,368.375 Q145.5,368.7188 145.1563,369.125 Q144.6563,369.7188 143.8594,370.0469 Q142.8125,370.5 141.5313,370.5 Q140.0313,370.5 138.8281,369.9063 Q137.8594,369.4375 137.1719,368.4219 Q136.5,367.4063 136.5,366.2031 L136.5,365.1094 Q136.5,363.8594 137.0938,362.7656 Q137.7031,361.6719 138.75,361.0938 Q139.8125,360.5 141,360.5 Q141.7188,360.5 142.3438,360.75 Q142.9688,361 143.5,361.5 Z " fill="#000000"/><text fill="#000000" font-family="sans-serif" font-size="12" lengthAdjust="spacing" textLength="107" x="155.5" y="369.9102">PersistenceContext</text><line style="stroke:#A80036;stroke-width:1.5;" x1="127.5" x2="264.5" y1="381" y2="381"/><line style="stroke:#A80036;stroke-width:1.5;" x1="127.5" x2="264.5" y1="389" y2="389"/><text fill="#000000" font-family="sans-serif" font-size="11" lengthAdjust="spacing" textLength="71" x="132.5" y="404.4189">+repositories()</text><!--MD5=[48590afff58a68e2fcba47824d6f8a11]
class RepositoryFactory--><rect codeLine="24" fill="#FEFECE" filter="url(#f1f13boxl0a41b)" height="61.8359" id="RepositoryFactory" style="stroke:#A80036;stroke-width:1.5;" width="130" x="187" y="532"/><ellipse cx="202" cy="548" fill="#ADD1B2" rx="11" ry="11" style="stroke:#A80036;stroke-width:1.0;"/><path d="M204,544.5 Q204.2031,544 204.4375,543.75 Q204.6719,543.5 204.9375,543.5 Q205.4063,543.5 205.7031,543.7813 Q206,544.0625 206,544.7188 L206,546.2813 Q206,546.9375 205.7188,547.2188 Q205.4375,547.5 205,547.5 Q204.6094,547.5 204.3594,547.3281 Q204.1094,547.1563 204,546.7031 Q203.9531,546.3906 203.7813,546.2188 Q203.4688,545.8906 202.9063,545.7031 Q202.3438,545.5 201.7813,545.5 Q201.0781,545.5 200.4844,545.7813 Q199.9063,546.0625 199.4531,546.6875 Q199,547.3125 199,548.1719 L199,549.0938 Q199,550.125 199.8438,550.8125 Q200.6875,551.5 202.1875,551.5 Q203.0781,551.5 203.7031,551.2969 Q204.0625,551.1875 204.4688,550.8281 Q204.7344,550.625 204.875,550.5625 Q205.0156,550.5 205.1875,550.5 Q205.5156,550.5 205.75,550.7656 Q206,551.0156 206,551.375 Q206,551.7188 205.6563,552.125 Q205.1563,552.7188 204.3594,553.0469 Q203.3125,553.5 202.0313,553.5 Q200.5313,553.5 199.3281,552.9063 Q198.3594,552.4375 197.6719,551.4219 Q197,550.4063 197,549.2031 L197,548.1094 Q197,546.8594 197.5938,545.7656 Q198.2031,544.6719 199.25,544.0938 Q200.3125,543.5 201.5,543.5 Q202.2188,543.5 202.8438,543.75 Q203.4688,544 204,544.5 Z " fill="#000000"/><text fill="#000000" font-family="sans-serif" font-size="12" lengthAdjust="spacing" textLength="98" x="216" y="552.9102">RepositoryFactory</text><line style="stroke:#A80036;stroke-width:1.5;" x1="188" x2="316" y1="564" y2="564"/><line style="stroke:#A80036;stroke-width:1.5;" x1="188" x2="316" y1="572" y2="572"/><text fill="#000000" font-family="sans-serif" font-size="11" lengthAdjust="spacing" textLength="45" x="193" y="587.4189">+create()</text><!--MD5=[f9761e4ec0e5a044b983a0fb01ce84a9]
class ProductRepository--><rect codeLine="30" fill="#FEFECE" filter="url(#f1f13boxl0a41b)" height="75.6719" id="ProductRepository" style="stroke:#A80036;stroke-width:1.5;" width="133" x="92.5" y="715"/><ellipse cx="107.5" cy="731" fill="#ADD1B2" rx="11" ry="11" style="stroke:#A80036;stroke-width:1.0;"/><path d="M109.5,727.5 Q109.7031,727 109.9375,726.75 Q110.1719,726.5 110.4375,726.5 Q110.9063,726.5 111.2031,726.7813 Q111.5,727.0625 111.5,727.7188 L111.5,729.2813 Q111.5,729.9375 111.2188,730.2188 Q110.9375,730.5 110.5,730.5 Q110.1094,730.5 109.8594,730.3281 Q109.6094,730.1563 109.5,729.7031 Q109.4531,729.3906 109.2813,729.2188 Q108.9688,728.8906 108.4063,728.7031 Q107.8438,728.5 107.2813,728.5 Q106.5781,728.5 105.9844,728.7813 Q105.4063,729.0625 104.9531,729.6875 Q104.5,730.3125 104.5,731.1719 L104.5,732.0938 Q104.5,733.125 105.3438,733.8125 Q106.1875,734.5 107.6875,734.5 Q108.5781,734.5 109.2031,734.2969 Q109.5625,734.1875 109.9688,733.8281 Q110.2344,733.625 110.375,733.5625 Q110.5156,733.5 110.6875,733.5 Q111.0156,733.5 111.25,733.7656 Q111.5,734.0156 111.5,734.375 Q111.5,734.7188 111.1563,735.125 Q110.6563,735.7188 109.8594,736.0469 Q108.8125,736.5 107.5313,736.5 Q106.0313,736.5 104.8281,735.9063 Q103.8594,735.4375 103.1719,734.4219 Q102.5,733.4063 102.5,732.2031 L102.5,731.1094 Q102.5,729.8594 103.0938,728.7656 Q103.7031,727.6719 104.75,727.0938 Q105.8125,726.5 107,726.5 Q107.7188,726.5 108.3438,726.75 Q108.9688,727 109.5,727.5 Z " fill="#000000"/><text fill="#000000" font-family="sans-serif" font-size="12" lengthAdjust="spacing" textLength="101" x="121.5" y="735.9102">ProductRepository</text><line style="stroke:#A80036;stroke-width:1.5;" x1="93.5" x2="224.5" y1="747" y2="747"/><line style="stroke:#A80036;stroke-width:1.5;" x1="93.5" x2="224.5" y1="755" y2="755"/><text fill="#000000" font-family="sans-serif" font-size="11" lengthAdjust="spacing" textLength="45" x="98.5" y="770.4189">+create()</text><text fill="#000000" font-family="sans-serif" font-size="11" lengthAdjust="spacing" textLength="75" x="98.5" y="784.2549">+save(product)</text><!--MD5=[866dcdb0a7daba50545206253620ba29]
class ProductCategoryRepository--><rect codeLine="34" fill="#FEFECE" filter="url(#f1f13boxl0a41b)" height="61.8359" id="ProductCategoryRepository" style="stroke:#A80036;stroke-width:1.5;" width="182" x="261" y="722"/><ellipse cx="276" cy="738" fill="#ADD1B2" rx="11" ry="11" style="stroke:#A80036;stroke-width:1.0;"/><path d="M278,734.5 Q278.2031,734 278.4375,733.75 Q278.6719,733.5 278.9375,733.5 Q279.4063,733.5 279.7031,733.7813 Q280,734.0625 280,734.7188 L280,736.2813 Q280,736.9375 279.7188,737.2188 Q279.4375,737.5 279,737.5 Q278.6094,737.5 278.3594,737.3281 Q278.1094,737.1563 278,736.7031 Q277.9531,736.3906 277.7813,736.2188 Q277.4688,735.8906 276.9063,735.7031 Q276.3438,735.5 275.7813,735.5 Q275.0781,735.5 274.4844,735.7813 Q273.9063,736.0625 273.4531,736.6875 Q273,737.3125 273,738.1719 L273,739.0938 Q273,740.125 273.8438,740.8125 Q274.6875,741.5 276.1875,741.5 Q277.0781,741.5 277.7031,741.2969 Q278.0625,741.1875 278.4688,740.8281 Q278.7344,740.625 278.875,740.5625 Q279.0156,740.5 279.1875,740.5 Q279.5156,740.5 279.75,740.7656 Q280,741.0156 280,741.375 Q280,741.7188 279.6563,742.125 Q279.1563,742.7188 278.3594,743.0469 Q277.3125,743.5 276.0313,743.5 Q274.5313,743.5 273.3281,742.9063 Q272.3594,742.4375 271.6719,741.4219 Q271,740.4063 271,739.2031 L271,738.1094 Q271,736.8594 271.5938,735.7656 Q272.2031,734.6719 273.25,734.0938 Q274.3125,733.5 275.5,733.5 Q276.2188,733.5 276.8438,733.75 Q277.4688,734 278,734.5 Z " fill="#000000"/><text fill="#000000" font-family="sans-serif" font-size="12" lengthAdjust="spacing" textLength="150" x="290" y="742.9102">ProductCategoryRepository</text><line style="stroke:#A80036;stroke-width:1.5;" x1="262" x2="442" y1="754" y2="754"/><line style="stroke:#A80036;stroke-width:1.5;" x1="262" x2="442" y1="762" y2="762"/><text fill="#000000" font-family="sans-serif" font-size="11" lengthAdjust="spacing" textLength="133" x="267" y="777.4189">+findAllProductCategories()</text><!--MD5=[bf4d0c028d0f251e49ce9c9f9f101ed4]
class WarehouseRepository--><rect codeLine="37" fill="#FEFECE" filter="url(#f1f13boxl0a41b)" height="75.6719" id="WarehouseRepository" style="stroke:#A80036;stroke-width:1.5;" width="155" x="478.5" y="715"/><ellipse cx="493.5" cy="731" fill="#ADD1B2" rx="11" ry="11" style="stroke:#A80036;stroke-width:1.0;"/><path d="M495.5,727.5 Q495.7031,727 495.9375,726.75 Q496.1719,726.5 496.4375,726.5 Q496.9063,726.5 497.2031,726.7813 Q497.5,727.0625 497.5,727.7188 L497.5,729.2813 Q497.5,729.9375 497.2188,730.2188 Q496.9375,730.5 496.5,730.5 Q496.1094,730.5 495.8594,730.3281 Q495.6094,730.1563 495.5,729.7031 Q495.4531,729.3906 495.2813,729.2188 Q494.9688,728.8906 494.4063,728.7031 Q493.8438,728.5 493.2813,728.5 Q492.5781,728.5 491.9844,728.7813 Q491.4063,729.0625 490.9531,729.6875 Q490.5,730.3125 490.5,731.1719 L490.5,732.0938 Q490.5,733.125 491.3438,733.8125 Q492.1875,734.5 493.6875,734.5 Q494.5781,734.5 495.2031,734.2969 Q495.5625,734.1875 495.9688,733.8281 Q496.2344,733.625 496.375,733.5625 Q496.5156,733.5 496.6875,733.5 Q497.0156,733.5 497.25,733.7656 Q497.5,734.0156 497.5,734.375 Q497.5,734.7188 497.1563,735.125 Q496.6563,735.7188 495.8594,736.0469 Q494.8125,736.5 493.5313,736.5 Q492.0313,736.5 490.8281,735.9063 Q489.8594,735.4375 489.1719,734.4219 Q488.5,733.4063 488.5,732.2031 L488.5,731.1094 Q488.5,729.8594 489.0938,728.7656 Q489.7031,727.6719 490.75,727.0938 Q491.8125,726.5 493,726.5 Q493.7188,726.5 494.3438,726.75 Q494.9688,727 495.5,727.5 Z " fill="#000000"/><text fill="#000000" font-family="sans-serif" font-size="12" lengthAdjust="spacing" textLength="123" x="507.5" y="735.9102">WarehouseRepository</text><line style="stroke:#A80036;stroke-width:1.5;" x1="479.5" x2="632.5" y1="747" y2="747"/><line style="stroke:#A80036;stroke-width:1.5;" x1="479.5" x2="632.5" y1="755" y2="755"/><text fill="#000000" font-family="sans-serif" font-size="11" lengthAdjust="spacing" textLength="112" x="484.5" y="770.4189">+findAvailableRowPK()</text><text fill="#000000" font-family="sans-serif" font-size="11" lengthAdjust="spacing" textLength="74" x="484.5" y="784.2549">+getRowByID()</text><!--MD5=[3ee82cb7d51db0d8eeb2f41bf72822b6]
link ProductUI to CreateProductController--><path codeLine="42" d="M115,90.06 C115,109.65 115,138.09 115,160.57 " fill="none" id="ProductUI-to-CreateProductController" style="stroke:#A80036;stroke-width:1.0;stroke-dasharray:7.0,7.0;"/><polygon fill="#A80036" points="115,165.85,119,156.85,115,160.85,111,156.85,115,165.85" style="stroke:#A80036;stroke-width:1.0;"/><!--MD5=[eedcf41722b5a3a82fedb8037603fffa]
link CreateProductController to Product--><path codeLine="43" d="M93.63,228.09 C71.15,262.76 39,322.25 39,379 C39,379 39,379 39,754 C39,809.77 61.33,871.84 76.15,906.88 " fill="none" id="CreateProductController-to-Product" style="stroke:#A80036;stroke-width:1.0;stroke-dasharray:7.0,7.0;"/><polygon fill="#A80036" points="78.27,911.85,78.3902,902.0019,76.2952,907.2565,71.0406,905.1615,78.27,911.85" style="stroke:#A80036;stroke-width:1.0;"/><!--MD5=[9372325158c2201ca321bf5df427bb3f]
link CreateProductController to PersistenceContext--><path codeLine="44" d="M128.56,228.3 C142.85,260.24 165.34,310.49 180.37,344.08 " fill="none" id="CreateProductController-to-PersistenceContext" style="stroke:#A80036;stroke-width:1.0;stroke-dasharray:7.0,7.0;"/><polygon fill="#A80036" points="182.53,348.91,182.51,339.0612,180.49,344.3451,175.2061,342.3251,182.53,348.91" style="stroke:#A80036;stroke-width:1.0;"/><!--MD5=[754b775031405e096442b27febffa290]
link PersistenceContext to RepositoryFactory--><path codeLine="45" d="M205.37,411.3 C215.26,443.24 230.8,493.49 241.2,527.08 " fill="none" id="PersistenceContext-to-RepositoryFactory" style="stroke:#A80036;stroke-width:1.0;stroke-dasharray:7.0,7.0;"/><polygon fill="#A80036" points="242.69,531.91,243.8335,522.1277,241.2035,527.1361,236.1952,524.5061,242.69,531.91" style="stroke:#A80036;stroke-width:1.0;"/><!--MD5=[a107a52b6e2b3fb29ad79d2f6a7df605]
link RepositoryFactory to ProductRepository--><path codeLine="46" d="M237.06,594.21 C221.53,625.6 197.11,674.96 179.72,710.11 " fill="none" id="RepositoryFactory-to-ProductRepository" style="stroke:#A80036;stroke-width:1.0;stroke-dasharray:7.0,7.0;"/><polygon fill="#A80036" points="177.43,714.75,185.0166,708.4696,179.6547,710.2722,177.8521,704.9102,177.43,714.75" style="stroke:#A80036;stroke-width:1.0;"/><!--MD5=[1e897a22714a6b830b517dbc62a38d7f]
link RepositoryFactory to WarehouseRepository--><path codeLine="47" d="M317.28,592.61 C359.64,612.32 415.26,640.4 461,671 C478.77,682.89 496.95,697.64 512.59,711.28 " fill="none" id="RepositoryFactory-to-WarehouseRepository" style="stroke:#A80036;stroke-width:1.0;stroke-dasharray:7.0,7.0;"/><polygon fill="#A80036" points="516.51,714.73,512.3876,705.7854,512.7533,711.4304,507.1083,711.7961,516.51,714.73" style="stroke:#A80036;stroke-width:1.0;"/><!--MD5=[9e0c7b031ab342ad64f9e6318367261d]
link RepositoryFactory to ProductCategoryRepository--><path codeLine="48" d="M268.07,594.21 C285.93,627.78 314.72,681.92 333.51,717.23 " fill="none" id="RepositoryFactory-to-ProductCategoryRepository" style="stroke:#A80036;stroke-width:1.0;stroke-dasharray:7.0,7.0;"/><polygon fill="#A80036" points="335.97,721.87,335.2592,712.0468,333.6148,717.4594,328.2022,715.8151,335.97,721.87" style="stroke:#A80036;stroke-width:1.0;"/><!--MD5=[68e4965bc339513f2ae30d33caf3e4dc]
link ProductRepository to Product--><path codeLine="49" d="M144.67,791.06 C131.38,825.43 111.9,875.8 99.85,906.93 " fill="none" id="ProductRepository-to-Product" style="stroke:#A80036;stroke-width:1.0;stroke-dasharray:7.0,7.0;"/><polygon fill="#A80036" points="97.99,911.76,104.9656,904.8073,99.7926,907.0962,97.5036,901.9232,97.99,911.76" style="stroke:#A80036;stroke-width:1.0;"/><!--MD5=[4d96559feb7b5bb26e6faf7df6bc07c5]
@startuml
skinparam classAttributeIconSize 0

package "Presentation"{
class ProductUI
}

package "Application"{
class CreateProductController{
+getCategories()
}
}

package "Domain"{
class Product
}

package "Persistence"{
class PersistenceContext{
+repositories()
}
}

package "Factory"{
class RepositoryFactory{
+create()
}
}

package "Repository"{
class ProductRepository{
+create()
+save(product)
}
class ProductCategoryRepository{
+findAllProductCategories()
}
class WarehouseRepository{
+findAvailableRowPK()
+getRowByID()
}
}
ProductUI .-> CreateProductController
CreateProductController .- -> Product
CreateProductController .- -> PersistenceContext
PersistenceContext .- -> RepositoryFactory
RepositoryFactory .- -> ProductRepository
RepositoryFactory .- -> WarehouseRepository
RepositoryFactory .- -> ProductCategoryRepository
ProductRepository .- -> Product


@enduml

PlantUML version 1.2022.1(Tue Feb 01 18:19:58 GMT 2022)
(GPL source distribution)
Java Runtime: OpenJDK Runtime Environment
JVM: OpenJDK 64-Bit Server VM
Default Encoding: Cp1252
Language: pt
Country: PT
--></g></svg>