<?xml version="1.0" encoding="UTF-8" standalone="no"?><svg xmlns="http://www.w3.org/2000/svg" xmlns:xlink="http://www.w3.org/1999/xlink" contentStyleType="text/css" height="1184px" preserveAspectRatio="none" style="width:1048px;height:1184px;background:#FFFFFF;" version="1.1" viewBox="0 0 1048 1184" width="1048px" zoomAndPan="magnify"><defs/><g><!--MD5=[87a839285c4e636151e0ab9ef5595388]
cluster product--><g id="cluster_product"><path d="M8.5,6 L64.5,6 A3.75,3.75 0 0 1 67,8.5 L74,29.6094 L1038.5,29.6094 A2.5,2.5 0 0 1 1041,32.1094 L1041,1174.5 A2.5,2.5 0 0 1 1038.5,1177 L8.5,1177 A2.5,2.5 0 0 1 6,1174.5 L6,8.5 A2.5,2.5 0 0 1 8.5,6 " style="stroke:#000000;stroke-width:1.5;fill:none;"/><line style="stroke:#000000;stroke-width:1.5;fill:none;" x1="6" x2="74" y1="29.6094" y2="29.6094"/><text fill="#000000" font-family="sans-serif" font-size="14" font-weight="bold" lengthAdjust="spacing" textLength="55" x="10" y="22.5332">product</text></g><!--MD5=[72136138052d025cffdce3c22fbd185f]
class Product--><g id="elem_Product"><rect codeLine="6" fill="#F1F1F1" height="68.3125" id="Product" rx="2.5" ry="2.5" style="stroke:#181818;stroke-width:0.5;" width="82" x="255" y="550"/><ellipse cx="270.45" cy="571.3516" fill="#ADD1B2" rx="11" ry="11" style="stroke:#181818;stroke-width:1.0;"/><path d="M272.45,567.8516 Q272.6531,567.3516 272.8875,567.1016 Q273.1219,566.8516 273.3875,566.8516 Q273.8563,566.8516 274.1531,567.1328 Q274.45,567.4141 274.45,568.0703 L274.45,569.6328 Q274.45,570.2891 274.1688,570.5703 Q273.8875,570.8516 273.45,570.8516 Q273.0594,570.8516 272.8094,570.6797 Q272.5594,570.5078 272.45,570.0547 Q272.4031,569.7422 272.2313,569.5703 Q271.9188,569.2422 271.3563,569.0547 Q270.7938,568.8516 270.2313,568.8516 Q269.5281,568.8516 268.9344,569.1328 Q268.3563,569.4141 267.9031,570.0391 Q267.45,570.6641 267.45,571.5234 L267.45,572.4453 Q267.45,573.4766 268.2938,574.1641 Q269.1375,574.8516 270.6375,574.8516 Q271.5281,574.8516 272.1531,574.6484 Q272.5125,574.5391 272.9188,574.1797 Q273.1844,573.9766 273.325,573.9141 Q273.4656,573.8516 273.6375,573.8516 Q273.9656,573.8516 274.2,574.1172 Q274.45,574.3672 274.45,574.7266 Q274.45,575.0703 274.1063,575.4766 Q273.6063,576.0703 272.8094,576.3984 Q271.7625,576.8516 270.4813,576.8516 Q268.9813,576.8516 267.7781,576.2578 Q266.8094,575.7891 266.1219,574.7734 Q265.45,573.7578 265.45,572.5547 L265.45,571.4609 Q265.45,570.2109 266.0438,569.1172 Q266.6531,568.0234 267.7,567.4453 Q268.7625,566.8516 269.95,566.8516 Q270.6688,566.8516 271.2938,567.1016 Q271.9188,567.3516 272.45,567.8516 Z " fill="#000000"/><text fill="#000000" font-family="sans-serif" font-size="12" font-style="italic" lengthAdjust="spacing" textLength="43" x="287.55" y="567.457">«entity»</text><text fill="#000000" font-family="sans-serif" font-size="14" lengthAdjust="spacing" textLength="49" x="284.55" y="584.627">Product</text><line style="stroke:#181818;stroke-width:0.5;" x1="256" x2="336" y1="592.7031" y2="592.7031"/><text fill="#000000" font-family="sans-serif" font-size="14" lengthAdjust="spacing" textLength="70" x="261" y="611.2363">-availability</text></g><!--MD5=[a96594a83e2ecdc78cbf17c2ddf01934]
class Category--><g id="elem_Category"><rect codeLine="10" fill="#F1F1F1" height="85.9219" id="Category" rx="2.5" ry="2.5" style="stroke:#181818;stroke-width:0.5;" width="90" x="523" y="1075"/><ellipse cx="538" cy="1096.3516" fill="#ADD1B2" rx="11" ry="11" style="stroke:#181818;stroke-width:1.0;"/><path d="M540,1092.8516 Q540.2031,1092.3516 540.4375,1092.1016 Q540.6719,1091.8516 540.9375,1091.8516 Q541.4063,1091.8516 541.7031,1092.1328 Q542,1092.4141 542,1093.0703 L542,1094.6328 Q542,1095.2891 541.7188,1095.5703 Q541.4375,1095.8516 541,1095.8516 Q540.6094,1095.8516 540.3594,1095.6797 Q540.1094,1095.5078 540,1095.0547 Q539.9531,1094.7422 539.7813,1094.5703 Q539.4688,1094.2422 538.9063,1094.0547 Q538.3438,1093.8516 537.7813,1093.8516 Q537.0781,1093.8516 536.4844,1094.1328 Q535.9063,1094.4141 535.4531,1095.0391 Q535,1095.6641 535,1096.5234 L535,1097.4453 Q535,1098.4766 535.8438,1099.1641 Q536.6875,1099.8516 538.1875,1099.8516 Q539.0781,1099.8516 539.7031,1099.6484 Q540.0625,1099.5391 540.4688,1099.1797 Q540.7344,1098.9766 540.875,1098.9141 Q541.0156,1098.8516 541.1875,1098.8516 Q541.5156,1098.8516 541.75,1099.1172 Q542,1099.3672 542,1099.7266 Q542,1100.0703 541.6563,1100.4766 Q541.1563,1101.0703 540.3594,1101.3984 Q539.3125,1101.8516 538.0313,1101.8516 Q536.5313,1101.8516 535.3281,1101.2578 Q534.3594,1100.7891 533.6719,1099.7734 Q533,1098.7578 533,1097.5547 L533,1096.4609 Q533,1095.2109 533.5938,1094.1172 Q534.2031,1093.0234 535.25,1092.4453 Q536.3125,1091.8516 537.5,1091.8516 Q538.2188,1091.8516 538.8438,1092.1016 Q539.4688,1092.3516 540,1092.8516 Z " fill="#000000"/><text fill="#000000" font-family="sans-serif" font-size="12" font-style="italic" lengthAdjust="spacing" textLength="43" x="559.5" y="1092.457">«entity»</text><text fill="#000000" font-family="sans-serif" font-size="14" lengthAdjust="spacing" textLength="58" x="552" y="1109.627">Category</text><line style="stroke:#181818;stroke-width:0.5;" x1="524" x2="612" y1="1117.7031" y2="1117.7031"/><text fill="#000000" font-family="sans-serif" font-size="14" lengthAdjust="spacing" textLength="74" x="529" y="1136.2363">-description</text><text fill="#000000" font-family="sans-serif" font-size="14" lengthAdjust="spacing" textLength="36" x="529" y="1153.8457">-code</text></g><!--MD5=[c5149b4909ffd2688ff51a939867f774]
class Warehouse--><g id="elem_Warehouse"><rect codeLine="15" fill="#F1F1F1" height="50.7031" id="Warehouse" rx="2.5" ry="2.5" style="stroke:#181818;stroke-width:0.5;" width="105" x="711" y="173.5"/><ellipse cx="726" cy="194.8516" fill="#ADD1B2" rx="11" ry="11" style="stroke:#181818;stroke-width:1.0;"/><path d="M728,191.3516 Q728.2031,190.8516 728.4375,190.6016 Q728.6719,190.3516 728.9375,190.3516 Q729.4063,190.3516 729.7031,190.6328 Q730,190.9141 730,191.5703 L730,193.1328 Q730,193.7891 729.7188,194.0703 Q729.4375,194.3516 729,194.3516 Q728.6094,194.3516 728.3594,194.1797 Q728.1094,194.0078 728,193.5547 Q727.9531,193.2422 727.7813,193.0703 Q727.4688,192.7422 726.9063,192.5547 Q726.3438,192.3516 725.7813,192.3516 Q725.0781,192.3516 724.4844,192.6328 Q723.9063,192.9141 723.4531,193.5391 Q723,194.1641 723,195.0234 L723,195.9453 Q723,196.9766 723.8438,197.6641 Q724.6875,198.3516 726.1875,198.3516 Q727.0781,198.3516 727.7031,198.1484 Q728.0625,198.0391 728.4688,197.6797 Q728.7344,197.4766 728.875,197.4141 Q729.0156,197.3516 729.1875,197.3516 Q729.5156,197.3516 729.75,197.6172 Q730,197.8672 730,198.2266 Q730,198.5703 729.6563,198.9766 Q729.1563,199.5703 728.3594,199.8984 Q727.3125,200.3516 726.0313,200.3516 Q724.5313,200.3516 723.3281,199.7578 Q722.3594,199.2891 721.6719,198.2734 Q721,197.2578 721,196.0547 L721,194.9609 Q721,193.7109 721.5938,192.6172 Q722.2031,191.5234 723.25,190.9453 Q724.3125,190.3516 725.5,190.3516 Q726.2188,190.3516 726.8438,190.6016 Q727.4688,190.8516 728,191.3516 Z " fill="#000000"/><text fill="#000000" font-family="sans-serif" font-size="12" font-style="italic" lengthAdjust="spacing" textLength="43" x="755" y="190.957">«entity»</text><text fill="#000000" font-family="sans-serif" font-size="14" lengthAdjust="spacing" textLength="73" x="740" y="208.127">Warehouse</text><line style="stroke:#181818;stroke-width:0.5;" x1="712" x2="815" y1="216.2031" y2="216.2031"/></g><!--MD5=[0a2f0ce5c49321e9082933c32b514ce4]
class Aisle--><g id="elem_Aisle"><rect codeLine="18" fill="#F1F1F1" height="191.5781" id="Aisle" rx="2.5" ry="2.5" style="stroke:#181818;stroke-width:0.5;" width="148" x="877" y="373"/><ellipse cx="909.55" cy="394.3516" fill="#ADD1B2" rx="11" ry="11" style="stroke:#181818;stroke-width:1.0;"/><path d="M911.55,390.8516 Q911.7531,390.3516 911.9875,390.1016 Q912.2219,389.8516 912.4875,389.8516 Q912.9563,389.8516 913.2531,390.1328 Q913.55,390.4141 913.55,391.0703 L913.55,392.6328 Q913.55,393.2891 913.2688,393.5703 Q912.9875,393.8516 912.55,393.8516 Q912.1594,393.8516 911.9094,393.6797 Q911.6594,393.5078 911.55,393.0547 Q911.5031,392.7422 911.3313,392.5703 Q911.0188,392.2422 910.4563,392.0547 Q909.8938,391.8516 909.3313,391.8516 Q908.6281,391.8516 908.0344,392.1328 Q907.4563,392.4141 907.0031,393.0391 Q906.55,393.6641 906.55,394.5234 L906.55,395.4453 Q906.55,396.4766 907.3938,397.1641 Q908.2375,397.8516 909.7375,397.8516 Q910.6281,397.8516 911.2531,397.6484 Q911.6125,397.5391 912.0188,397.1797 Q912.2844,396.9766 912.425,396.9141 Q912.5656,396.8516 912.7375,396.8516 Q913.0656,396.8516 913.3,397.1172 Q913.55,397.3672 913.55,397.7266 Q913.55,398.0703 913.2063,398.4766 Q912.7063,399.0703 911.9094,399.3984 Q910.8625,399.8516 909.5813,399.8516 Q908.0813,399.8516 906.8781,399.2578 Q905.9094,398.7891 905.2219,397.7734 Q904.55,396.7578 904.55,395.5547 L904.55,394.4609 Q904.55,393.2109 905.1438,392.1172 Q905.7531,391.0234 906.8,390.4453 Q907.8625,389.8516 909.05,389.8516 Q909.7688,389.8516 910.3938,390.1016 Q911.0188,390.3516 911.55,390.8516 Z " fill="#000000"/><text fill="#000000" font-family="sans-serif" font-size="12" font-style="italic" lengthAdjust="spacing" textLength="81" x="925.45" y="390.457">«value object»</text><text fill="#000000" font-family="sans-serif" font-size="14" lengthAdjust="spacing" textLength="30" x="950.95" y="407.627">Aisle</text><line style="stroke:#181818;stroke-width:0.5;" x1="878" x2="1024" y1="415.7031" y2="415.7031"/><text fill="#000000" font-family="sans-serif" font-size="14" lengthAdjust="spacing" textLength="16" x="883" y="434.2363">-id</text><text fill="#000000" font-family="sans-serif" font-size="14" lengthAdjust="spacing" textLength="130" x="883" y="451.8457">-beginLengthSquare</text><text fill="#000000" font-family="sans-serif" font-size="14" lengthAdjust="spacing" textLength="122" x="883" y="469.4551">-beginWidthSquare</text><text fill="#000000" font-family="sans-serif" font-size="14" lengthAdjust="spacing" textLength="119" x="883" y="487.0645">-endLengthSquare</text><text fill="#000000" font-family="sans-serif" font-size="14" lengthAdjust="spacing" textLength="111" x="883" y="504.6738">-endWidthSquare</text><text fill="#000000" font-family="sans-serif" font-size="14" lengthAdjust="spacing" textLength="131" x="883" y="522.2832">-depthLengthSquare</text><text fill="#000000" font-family="sans-serif" font-size="14" lengthAdjust="spacing" textLength="123" x="883" y="539.8926">-depthWidthSquare</text><text fill="#000000" font-family="sans-serif" font-size="14" lengthAdjust="spacing" textLength="136" x="883" y="557.502">-accessibilityDirection</text></g><!--MD5=[05aedcff764caeeb5d443618a4d90de7]
class Row--><g id="elem_Row"><rect codeLine="29" fill="#F1F1F1" height="138.75" id="Row" rx="2.5" ry="2.5" style="stroke:#181818;stroke-width:0.5;" width="142" x="880" y="198.5"/><ellipse cx="909.85" cy="219.8516" fill="#ADD1B2" rx="11" ry="11" style="stroke:#181818;stroke-width:1.0;"/><path d="M911.85,216.3516 Q912.0531,215.8516 912.2875,215.6016 Q912.5219,215.3516 912.7875,215.3516 Q913.2563,215.3516 913.5531,215.6328 Q913.85,215.9141 913.85,216.5703 L913.85,218.1328 Q913.85,218.7891 913.5688,219.0703 Q913.2875,219.3516 912.85,219.3516 Q912.4594,219.3516 912.2094,219.1797 Q911.9594,219.0078 911.85,218.5547 Q911.8031,218.2422 911.6313,218.0703 Q911.3188,217.7422 910.7563,217.5547 Q910.1938,217.3516 909.6313,217.3516 Q908.9281,217.3516 908.3344,217.6328 Q907.7563,217.9141 907.3031,218.5391 Q906.85,219.1641 906.85,220.0234 L906.85,220.9453 Q906.85,221.9766 907.6938,222.6641 Q908.5375,223.3516 910.0375,223.3516 Q910.9281,223.3516 911.5531,223.1484 Q911.9125,223.0391 912.3188,222.6797 Q912.5844,222.4766 912.725,222.4141 Q912.8656,222.3516 913.0375,222.3516 Q913.3656,222.3516 913.6,222.6172 Q913.85,222.8672 913.85,223.2266 Q913.85,223.5703 913.5063,223.9766 Q913.0063,224.5703 912.2094,224.8984 Q911.1625,225.3516 909.8813,225.3516 Q908.3813,225.3516 907.1781,224.7578 Q906.2094,224.2891 905.5219,223.2734 Q904.85,222.2578 904.85,221.0547 L904.85,219.9609 Q904.85,218.7109 905.4438,217.6172 Q906.0531,216.5234 907.1,215.9453 Q908.1625,215.3516 909.35,215.3516 Q910.0688,215.3516 910.6938,215.6016 Q911.3188,215.8516 911.85,216.3516 Z " fill="#000000"/><text fill="#000000" font-family="sans-serif" font-size="12" font-style="italic" lengthAdjust="spacing" textLength="81" x="925.15" y="215.957">«value object»</text><text fill="#000000" font-family="sans-serif" font-size="14" lengthAdjust="spacing" textLength="27" x="952.15" y="233.127">Row</text><line style="stroke:#181818;stroke-width:0.5;" x1="881" x2="1021" y1="241.2031" y2="241.2031"/><text fill="#000000" font-family="sans-serif" font-size="14" lengthAdjust="spacing" textLength="16" x="886" y="259.7363">-id</text><text fill="#000000" font-family="sans-serif" font-size="14" lengthAdjust="spacing" textLength="130" x="886" y="277.3457">-beginLengthSquare</text><text fill="#000000" font-family="sans-serif" font-size="14" lengthAdjust="spacing" textLength="122" x="886" y="294.9551">-beginWidthSquare</text><text fill="#000000" font-family="sans-serif" font-size="14" lengthAdjust="spacing" textLength="119" x="886" y="312.5645">-endLengthSquare</text><text fill="#000000" font-family="sans-serif" font-size="14" lengthAdjust="spacing" textLength="111" x="886" y="330.1738">-endWidthSquare</text></g><!--MD5=[47ccbbcd9e46084c93562a335102da55]
class Shelf--><g id="elem_Shelf"><rect codeLine="37" fill="#F1F1F1" height="121.1406" id="Shelf" rx="2.5" ry="2.5" style="stroke:#181818;stroke-width:0.5;" width="109" x="896.5" y="42.5"/><ellipse cx="911.5" cy="63.8516" fill="#ADD1B2" rx="11" ry="11" style="stroke:#181818;stroke-width:1.0;"/><path d="M913.5,60.3516 Q913.7031,59.8516 913.9375,59.6016 Q914.1719,59.3516 914.4375,59.3516 Q914.9063,59.3516 915.2031,59.6328 Q915.5,59.9141 915.5,60.5703 L915.5,62.1328 Q915.5,62.7891 915.2188,63.0703 Q914.9375,63.3516 914.5,63.3516 Q914.1094,63.3516 913.8594,63.1797 Q913.6094,63.0078 913.5,62.5547 Q913.4531,62.2422 913.2813,62.0703 Q912.9688,61.7422 912.4063,61.5547 Q911.8438,61.3516 911.2813,61.3516 Q910.5781,61.3516 909.9844,61.6328 Q909.4063,61.9141 908.9531,62.5391 Q908.5,63.1641 908.5,64.0234 L908.5,64.9453 Q908.5,65.9766 909.3438,66.6641 Q910.1875,67.3516 911.6875,67.3516 Q912.5781,67.3516 913.2031,67.1484 Q913.5625,67.0391 913.9688,66.6797 Q914.2344,66.4766 914.375,66.4141 Q914.5156,66.3516 914.6875,66.3516 Q915.0156,66.3516 915.25,66.6172 Q915.5,66.8672 915.5,67.2266 Q915.5,67.5703 915.1563,67.9766 Q914.6563,68.5703 913.8594,68.8984 Q912.8125,69.3516 911.5313,69.3516 Q910.0313,69.3516 908.8281,68.7578 Q907.8594,68.2891 907.1719,67.2734 Q906.5,66.2578 906.5,65.0547 L906.5,63.9609 Q906.5,62.7109 907.0938,61.6172 Q907.7031,60.5234 908.75,59.9453 Q909.8125,59.3516 911,59.3516 Q911.7188,59.3516 912.3438,59.6016 Q912.9688,59.8516 913.5,60.3516 Z " fill="#000000"/><text fill="#000000" font-family="sans-serif" font-size="12" font-style="italic" lengthAdjust="spacing" textLength="81" x="923.5" y="59.957">«value object»</text><text fill="#000000" font-family="sans-serif" font-size="14" lengthAdjust="spacing" textLength="32" x="948" y="77.127">Shelf</text><line style="stroke:#181818;stroke-width:0.5;" x1="897.5" x2="1004.5" y1="85.2031" y2="85.2031"/><text fill="#000000" font-family="sans-serif" font-size="14" lengthAdjust="spacing" textLength="16" x="902.5" y="103.7363">-id</text><text fill="#000000" font-family="sans-serif" font-size="14" lengthAdjust="spacing" textLength="50" x="902.5" y="121.3457">-binSize</text><text fill="#000000" font-family="sans-serif" font-size="14" lengthAdjust="spacing" textLength="95" x="902.5" y="138.9551">-numberOfBins</text><text fill="#000000" font-family="sans-serif" font-size="14" lengthAdjust="spacing" textLength="57" x="902.5" y="156.5645">-maxBins</text></g><!--MD5=[b582e6ce3c86f1934c1c2f1f310142ca]
class Catalog--><g id="elem_Catalog"><rect fill="#F1F1F1" height="50.7031" id="Catalog" rx="2.5" ry="2.5" style="stroke:#181818;stroke-width:0.5;" width="109" x="22" y="558.5"/><ellipse cx="37" cy="579.8516" fill="#ADD1B2" rx="11" ry="11" style="stroke:#181818;stroke-width:1.0;"/><path d="M39,576.3516 Q39.2031,575.8516 39.4375,575.6016 Q39.6719,575.3516 39.9375,575.3516 Q40.4063,575.3516 40.7031,575.6328 Q41,575.9141 41,576.5703 L41,578.1328 Q41,578.7891 40.7188,579.0703 Q40.4375,579.3516 40,579.3516 Q39.6094,579.3516 39.3594,579.1797 Q39.1094,579.0078 39,578.5547 Q38.9531,578.2422 38.7813,578.0703 Q38.4688,577.7422 37.9063,577.5547 Q37.3438,577.3516 36.7813,577.3516 Q36.0781,577.3516 35.4844,577.6328 Q34.9063,577.9141 34.4531,578.5391 Q34,579.1641 34,580.0234 L34,580.9453 Q34,581.9766 34.8438,582.6641 Q35.6875,583.3516 37.1875,583.3516 Q38.0781,583.3516 38.7031,583.1484 Q39.0625,583.0391 39.4688,582.6797 Q39.7344,582.4766 39.875,582.4141 Q40.0156,582.3516 40.1875,582.3516 Q40.5156,582.3516 40.75,582.6172 Q41,582.8672 41,583.2266 Q41,583.5703 40.6563,583.9766 Q40.1563,584.5703 39.3594,584.8984 Q38.3125,585.3516 37.0313,585.3516 Q35.5313,585.3516 34.3281,584.7578 Q33.3594,584.2891 32.6719,583.2734 Q32,582.2578 32,581.0547 L32,579.9609 Q32,578.7109 32.5938,577.6172 Q33.2031,576.5234 34.25,575.9453 Q35.3125,575.3516 36.5,575.3516 Q37.2188,575.3516 37.8438,575.6016 Q38.4688,575.8516 39,576.3516 Z " fill="#000000"/><text fill="#000000" font-family="sans-serif" font-size="12" font-style="italic" lengthAdjust="spacing" textLength="81" x="49" y="575.957">«value object»</text><text fill="#000000" font-family="sans-serif" font-size="14" lengthAdjust="spacing" textLength="49" x="65" y="593.127">Catalog</text><line style="stroke:#181818;stroke-width:0.5;" x1="23" x2="130" y1="601.2031" y2="601.2031"/></g><!--MD5=[b17673c2a8c0190a39afe62d0e87136e]
class InternalCode--><g id="elem_InternalCode"><rect fill="#F1F1F1" height="50.7031" id="InternalCode" rx="2.5" ry="2.5" style="stroke:#181818;stroke-width:0.5;" width="113" x="511.5" y="988.5"/><ellipse cx="526.5" cy="1009.8516" fill="#ADD1B2" rx="11" ry="11" style="stroke:#181818;stroke-width:1.0;"/><path d="M528.5,1006.3516 Q528.7031,1005.8516 528.9375,1005.6016 Q529.1719,1005.3516 529.4375,1005.3516 Q529.9063,1005.3516 530.2031,1005.6328 Q530.5,1005.9141 530.5,1006.5703 L530.5,1008.1328 Q530.5,1008.7891 530.2188,1009.0703 Q529.9375,1009.3516 529.5,1009.3516 Q529.1094,1009.3516 528.8594,1009.1797 Q528.6094,1009.0078 528.5,1008.5547 Q528.4531,1008.2422 528.2813,1008.0703 Q527.9688,1007.7422 527.4063,1007.5547 Q526.8438,1007.3516 526.2813,1007.3516 Q525.5781,1007.3516 524.9844,1007.6328 Q524.4063,1007.9141 523.9531,1008.5391 Q523.5,1009.1641 523.5,1010.0234 L523.5,1010.9453 Q523.5,1011.9766 524.3438,1012.6641 Q525.1875,1013.3516 526.6875,1013.3516 Q527.5781,1013.3516 528.2031,1013.1484 Q528.5625,1013.0391 528.9688,1012.6797 Q529.2344,1012.4766 529.375,1012.4141 Q529.5156,1012.3516 529.6875,1012.3516 Q530.0156,1012.3516 530.25,1012.6172 Q530.5,1012.8672 530.5,1013.2266 Q530.5,1013.5703 530.1563,1013.9766 Q529.6563,1014.5703 528.8594,1014.8984 Q527.8125,1015.3516 526.5313,1015.3516 Q525.0313,1015.3516 523.8281,1014.7578 Q522.8594,1014.2891 522.1719,1013.2734 Q521.5,1012.2578 521.5,1011.0547 L521.5,1009.9609 Q521.5,1008.7109 522.0938,1007.6172 Q522.7031,1006.5234 523.75,1005.9453 Q524.8125,1005.3516 526,1005.3516 Q526.7188,1005.3516 527.3438,1005.6016 Q527.9688,1005.8516 528.5,1006.3516 Z " fill="#000000"/><text fill="#000000" font-family="sans-serif" font-size="12" font-style="italic" lengthAdjust="spacing" textLength="81" x="540.5" y="1005.957">«value object»</text><text fill="#000000" font-family="sans-serif" font-size="14" lengthAdjust="spacing" textLength="81" x="540.5" y="1023.127">InternalCode</text><line style="stroke:#181818;stroke-width:0.5;" x1="512.5" x2="623.5" y1="1031.2031" y2="1031.2031"/></g><!--MD5=[8a78b94ac034f628eee9959bc26304be]
class Brand--><g id="elem_Brand"><rect fill="#F1F1F1" height="50.7031" id="Brand" rx="2.5" ry="2.5" style="stroke:#181818;stroke-width:0.5;" width="109" x="513.5" y="902.5"/><ellipse cx="528.5" cy="923.8516" fill="#ADD1B2" rx="11" ry="11" style="stroke:#181818;stroke-width:1.0;"/><path d="M530.5,920.3516 Q530.7031,919.8516 530.9375,919.6016 Q531.1719,919.3516 531.4375,919.3516 Q531.9063,919.3516 532.2031,919.6328 Q532.5,919.9141 532.5,920.5703 L532.5,922.1328 Q532.5,922.7891 532.2188,923.0703 Q531.9375,923.3516 531.5,923.3516 Q531.1094,923.3516 530.8594,923.1797 Q530.6094,923.0078 530.5,922.5547 Q530.4531,922.2422 530.2813,922.0703 Q529.9688,921.7422 529.4063,921.5547 Q528.8438,921.3516 528.2813,921.3516 Q527.5781,921.3516 526.9844,921.6328 Q526.4063,921.9141 525.9531,922.5391 Q525.5,923.1641 525.5,924.0234 L525.5,924.9453 Q525.5,925.9766 526.3438,926.6641 Q527.1875,927.3516 528.6875,927.3516 Q529.5781,927.3516 530.2031,927.1484 Q530.5625,927.0391 530.9688,926.6797 Q531.2344,926.4766 531.375,926.4141 Q531.5156,926.3516 531.6875,926.3516 Q532.0156,926.3516 532.25,926.6172 Q532.5,926.8672 532.5,927.2266 Q532.5,927.5703 532.1563,927.9766 Q531.6563,928.5703 530.8594,928.8984 Q529.8125,929.3516 528.5313,929.3516 Q527.0313,929.3516 525.8281,928.7578 Q524.8594,928.2891 524.1719,927.2734 Q523.5,926.2578 523.5,925.0547 L523.5,923.9609 Q523.5,922.7109 524.0938,921.6172 Q524.7031,920.5234 525.75,919.9453 Q526.8125,919.3516 528,919.3516 Q528.7188,919.3516 529.3438,919.6016 Q529.9688,919.8516 530.5,920.3516 Z " fill="#000000"/><text fill="#000000" font-family="sans-serif" font-size="12" font-style="italic" lengthAdjust="spacing" textLength="81" x="540.5" y="919.957">«value object»</text><text fill="#000000" font-family="sans-serif" font-size="14" lengthAdjust="spacing" textLength="38" x="562" y="937.127">Brand</text><line style="stroke:#181818;stroke-width:0.5;" x1="514.5" x2="621.5" y1="945.2031" y2="945.2031"/></g><!--MD5=[45e1d1f825d430c6834a15dff33d6c83]
class PriceWithoutTaxes--><g id="elem_PriceWithoutTaxes"><rect fill="#F1F1F1" height="50.7031" id="PriceWithoutTaxes" rx="2.5" ry="2.5" style="stroke:#181818;stroke-width:0.5;" width="150" x="493" y="816.5"/><ellipse cx="508" cy="837.8516" fill="#ADD1B2" rx="11" ry="11" style="stroke:#181818;stroke-width:1.0;"/><path d="M510,834.3516 Q510.2031,833.8516 510.4375,833.6016 Q510.6719,833.3516 510.9375,833.3516 Q511.4063,833.3516 511.7031,833.6328 Q512,833.9141 512,834.5703 L512,836.1328 Q512,836.7891 511.7188,837.0703 Q511.4375,837.3516 511,837.3516 Q510.6094,837.3516 510.3594,837.1797 Q510.1094,837.0078 510,836.5547 Q509.9531,836.2422 509.7813,836.0703 Q509.4688,835.7422 508.9063,835.5547 Q508.3438,835.3516 507.7813,835.3516 Q507.0781,835.3516 506.4844,835.6328 Q505.9063,835.9141 505.4531,836.5391 Q505,837.1641 505,838.0234 L505,838.9453 Q505,839.9766 505.8438,840.6641 Q506.6875,841.3516 508.1875,841.3516 Q509.0781,841.3516 509.7031,841.1484 Q510.0625,841.0391 510.4688,840.6797 Q510.7344,840.4766 510.875,840.4141 Q511.0156,840.3516 511.1875,840.3516 Q511.5156,840.3516 511.75,840.6172 Q512,840.8672 512,841.2266 Q512,841.5703 511.6563,841.9766 Q511.1563,842.5703 510.3594,842.8984 Q509.3125,843.3516 508.0313,843.3516 Q506.5313,843.3516 505.3281,842.7578 Q504.3594,842.2891 503.6719,841.2734 Q503,840.2578 503,839.0547 L503,837.9609 Q503,836.7109 503.5938,835.6172 Q504.2031,834.5234 505.25,833.9453 Q506.3125,833.3516 507.5,833.3516 Q508.2188,833.3516 508.8438,833.6016 Q509.4688,833.8516 510,834.3516 Z " fill="#000000"/><text fill="#000000" font-family="sans-serif" font-size="12" font-style="italic" lengthAdjust="spacing" textLength="81" x="540.5" y="833.957">«value object»</text><text fill="#000000" font-family="sans-serif" font-size="14" lengthAdjust="spacing" textLength="118" x="522" y="851.127">PriceWithoutTaxes</text><line style="stroke:#181818;stroke-width:0.5;" x1="494" x2="642" y1="859.2031" y2="859.2031"/></g><!--MD5=[acd258f9b7259c0e89b8c44a94864dc6]
class PriceWithTaxes--><g id="elem_PriceWithTaxes"><rect fill="#F1F1F1" height="50.7031" id="PriceWithTaxes" rx="2.5" ry="2.5" style="stroke:#181818;stroke-width:0.5;" width="130" x="503" y="730.5"/><ellipse cx="518" cy="751.8516" fill="#ADD1B2" rx="11" ry="11" style="stroke:#181818;stroke-width:1.0;"/><path d="M520,748.3516 Q520.2031,747.8516 520.4375,747.6016 Q520.6719,747.3516 520.9375,747.3516 Q521.4063,747.3516 521.7031,747.6328 Q522,747.9141 522,748.5703 L522,750.1328 Q522,750.7891 521.7188,751.0703 Q521.4375,751.3516 521,751.3516 Q520.6094,751.3516 520.3594,751.1797 Q520.1094,751.0078 520,750.5547 Q519.9531,750.2422 519.7813,750.0703 Q519.4688,749.7422 518.9063,749.5547 Q518.3438,749.3516 517.7813,749.3516 Q517.0781,749.3516 516.4844,749.6328 Q515.9063,749.9141 515.4531,750.5391 Q515,751.1641 515,752.0234 L515,752.9453 Q515,753.9766 515.8438,754.6641 Q516.6875,755.3516 518.1875,755.3516 Q519.0781,755.3516 519.7031,755.1484 Q520.0625,755.0391 520.4688,754.6797 Q520.7344,754.4766 520.875,754.4141 Q521.0156,754.3516 521.1875,754.3516 Q521.5156,754.3516 521.75,754.6172 Q522,754.8672 522,755.2266 Q522,755.5703 521.6563,755.9766 Q521.1563,756.5703 520.3594,756.8984 Q519.3125,757.3516 518.0313,757.3516 Q516.5313,757.3516 515.3281,756.7578 Q514.3594,756.2891 513.6719,755.2734 Q513,754.2578 513,753.0547 L513,751.9609 Q513,750.7109 513.5938,749.6172 Q514.2031,748.5234 515.25,747.9453 Q516.3125,747.3516 517.5,747.3516 Q518.2188,747.3516 518.8438,747.6016 Q519.4688,747.8516 520,748.3516 Z " fill="#000000"/><text fill="#000000" font-family="sans-serif" font-size="12" font-style="italic" lengthAdjust="spacing" textLength="81" x="540.5" y="747.957">«value object»</text><text fill="#000000" font-family="sans-serif" font-size="14" lengthAdjust="spacing" textLength="98" x="532" y="765.127">PriceWithTaxes</text><line style="stroke:#181818;stroke-width:0.5;" x1="504" x2="632" y1="773.2031" y2="773.2031"/></g><!--MD5=[e59bda2572a266093cda22ac34510ea0]
class Barcode--><g id="elem_Barcode"><rect fill="#F1F1F1" height="50.7031" id="Barcode" rx="2.5" ry="2.5" style="stroke:#181818;stroke-width:0.5;" width="109" x="513.5" y="644.5"/><ellipse cx="528.5" cy="665.8516" fill="#ADD1B2" rx="11" ry="11" style="stroke:#181818;stroke-width:1.0;"/><path d="M530.5,662.3516 Q530.7031,661.8516 530.9375,661.6016 Q531.1719,661.3516 531.4375,661.3516 Q531.9063,661.3516 532.2031,661.6328 Q532.5,661.9141 532.5,662.5703 L532.5,664.1328 Q532.5,664.7891 532.2188,665.0703 Q531.9375,665.3516 531.5,665.3516 Q531.1094,665.3516 530.8594,665.1797 Q530.6094,665.0078 530.5,664.5547 Q530.4531,664.2422 530.2813,664.0703 Q529.9688,663.7422 529.4063,663.5547 Q528.8438,663.3516 528.2813,663.3516 Q527.5781,663.3516 526.9844,663.6328 Q526.4063,663.9141 525.9531,664.5391 Q525.5,665.1641 525.5,666.0234 L525.5,666.9453 Q525.5,667.9766 526.3438,668.6641 Q527.1875,669.3516 528.6875,669.3516 Q529.5781,669.3516 530.2031,669.1484 Q530.5625,669.0391 530.9688,668.6797 Q531.2344,668.4766 531.375,668.4141 Q531.5156,668.3516 531.6875,668.3516 Q532.0156,668.3516 532.25,668.6172 Q532.5,668.8672 532.5,669.2266 Q532.5,669.5703 532.1563,669.9766 Q531.6563,670.5703 530.8594,670.8984 Q529.8125,671.3516 528.5313,671.3516 Q527.0313,671.3516 525.8281,670.7578 Q524.8594,670.2891 524.1719,669.2734 Q523.5,668.2578 523.5,667.0547 L523.5,665.9609 Q523.5,664.7109 524.0938,663.6172 Q524.7031,662.5234 525.75,661.9453 Q526.8125,661.3516 528,661.3516 Q528.7188,661.3516 529.3438,661.6016 Q529.9688,661.8516 530.5,662.3516 Z " fill="#000000"/><text fill="#000000" font-family="sans-serif" font-size="12" font-style="italic" lengthAdjust="spacing" textLength="81" x="540.5" y="661.957">«value object»</text><text fill="#000000" font-family="sans-serif" font-size="14" lengthAdjust="spacing" textLength="53" x="554.5" y="679.127">Barcode</text><line style="stroke:#181818;stroke-width:0.5;" x1="514.5" x2="621.5" y1="687.2031" y2="687.2031"/></g><!--MD5=[f08eadd80edf125a26d903aaabdc00ef]
class ProductionCode--><g id="elem_ProductionCode"><rect fill="#F1F1F1" height="50.7031" id="ProductionCode" rx="2.5" ry="2.5" style="stroke:#181818;stroke-width:0.5;" width="134" x="501" y="558.5"/><ellipse cx="516" cy="579.8516" fill="#ADD1B2" rx="11" ry="11" style="stroke:#181818;stroke-width:1.0;"/><path d="M518,576.3516 Q518.2031,575.8516 518.4375,575.6016 Q518.6719,575.3516 518.9375,575.3516 Q519.4063,575.3516 519.7031,575.6328 Q520,575.9141 520,576.5703 L520,578.1328 Q520,578.7891 519.7188,579.0703 Q519.4375,579.3516 519,579.3516 Q518.6094,579.3516 518.3594,579.1797 Q518.1094,579.0078 518,578.5547 Q517.9531,578.2422 517.7813,578.0703 Q517.4688,577.7422 516.9063,577.5547 Q516.3438,577.3516 515.7813,577.3516 Q515.0781,577.3516 514.4844,577.6328 Q513.9063,577.9141 513.4531,578.5391 Q513,579.1641 513,580.0234 L513,580.9453 Q513,581.9766 513.8438,582.6641 Q514.6875,583.3516 516.1875,583.3516 Q517.0781,583.3516 517.7031,583.1484 Q518.0625,583.0391 518.4688,582.6797 Q518.7344,582.4766 518.875,582.4141 Q519.0156,582.3516 519.1875,582.3516 Q519.5156,582.3516 519.75,582.6172 Q520,582.8672 520,583.2266 Q520,583.5703 519.6563,583.9766 Q519.1563,584.5703 518.3594,584.8984 Q517.3125,585.3516 516.0313,585.3516 Q514.5313,585.3516 513.3281,584.7578 Q512.3594,584.2891 511.6719,583.2734 Q511,582.2578 511,581.0547 L511,579.9609 Q511,578.7109 511.5938,577.6172 Q512.2031,576.5234 513.25,575.9453 Q514.3125,575.3516 515.5,575.3516 Q516.2188,575.3516 516.8438,575.6016 Q517.4688,575.8516 518,576.3516 Z " fill="#000000"/><text fill="#000000" font-family="sans-serif" font-size="12" font-style="italic" lengthAdjust="spacing" textLength="81" x="540.5" y="575.957">«value object»</text><text fill="#000000" font-family="sans-serif" font-size="14" lengthAdjust="spacing" textLength="102" x="530" y="593.127">ProductionCode</text><line style="stroke:#181818;stroke-width:0.5;" x1="502" x2="634" y1="601.2031" y2="601.2031"/></g><!--MD5=[3a7cf800944e5f3d9e9c59d889c61f3b]
class Reference--><g id="elem_Reference"><rect fill="#F1F1F1" height="50.7031" id="Reference" rx="2.5" ry="2.5" style="stroke:#181818;stroke-width:0.5;" width="109" x="513.5" y="472.5"/><ellipse cx="528.5" cy="493.8516" fill="#ADD1B2" rx="11" ry="11" style="stroke:#181818;stroke-width:1.0;"/><path d="M530.5,490.3516 Q530.7031,489.8516 530.9375,489.6016 Q531.1719,489.3516 531.4375,489.3516 Q531.9063,489.3516 532.2031,489.6328 Q532.5,489.9141 532.5,490.5703 L532.5,492.1328 Q532.5,492.7891 532.2188,493.0703 Q531.9375,493.3516 531.5,493.3516 Q531.1094,493.3516 530.8594,493.1797 Q530.6094,493.0078 530.5,492.5547 Q530.4531,492.2422 530.2813,492.0703 Q529.9688,491.7422 529.4063,491.5547 Q528.8438,491.3516 528.2813,491.3516 Q527.5781,491.3516 526.9844,491.6328 Q526.4063,491.9141 525.9531,492.5391 Q525.5,493.1641 525.5,494.0234 L525.5,494.9453 Q525.5,495.9766 526.3438,496.6641 Q527.1875,497.3516 528.6875,497.3516 Q529.5781,497.3516 530.2031,497.1484 Q530.5625,497.0391 530.9688,496.6797 Q531.2344,496.4766 531.375,496.4141 Q531.5156,496.3516 531.6875,496.3516 Q532.0156,496.3516 532.25,496.6172 Q532.5,496.8672 532.5,497.2266 Q532.5,497.5703 532.1563,497.9766 Q531.6563,498.5703 530.8594,498.8984 Q529.8125,499.3516 528.5313,499.3516 Q527.0313,499.3516 525.8281,498.7578 Q524.8594,498.2891 524.1719,497.2734 Q523.5,496.2578 523.5,495.0547 L523.5,493.9609 Q523.5,492.7109 524.0938,491.6172 Q524.7031,490.5234 525.75,489.9453 Q526.8125,489.3516 528,489.3516 Q528.7188,489.3516 529.3438,489.6016 Q529.9688,489.8516 530.5,490.3516 Z " fill="#000000"/><text fill="#000000" font-family="sans-serif" font-size="12" font-style="italic" lengthAdjust="spacing" textLength="81" x="540.5" y="489.957">«value object»</text><text fill="#000000" font-family="sans-serif" font-size="14" lengthAdjust="spacing" textLength="66" x="548" y="507.127">Reference</text><line style="stroke:#181818;stroke-width:0.5;" x1="514.5" x2="621.5" y1="515.2031" y2="515.2031"/></g><!--MD5=[216845e66863fbf0f228ebacc80c455b]
class TechnicalDescription--><g id="elem_TechnicalDescription"><rect fill="#F1F1F1" height="50.7031" id="TechnicalDescription" rx="2.5" ry="2.5" style="stroke:#181818;stroke-width:0.5;" width="164" x="486" y="386.5"/><ellipse cx="501" cy="407.8516" fill="#ADD1B2" rx="11" ry="11" style="stroke:#181818;stroke-width:1.0;"/><path d="M503,404.3516 Q503.2031,403.8516 503.4375,403.6016 Q503.6719,403.3516 503.9375,403.3516 Q504.4063,403.3516 504.7031,403.6328 Q505,403.9141 505,404.5703 L505,406.1328 Q505,406.7891 504.7188,407.0703 Q504.4375,407.3516 504,407.3516 Q503.6094,407.3516 503.3594,407.1797 Q503.1094,407.0078 503,406.5547 Q502.9531,406.2422 502.7813,406.0703 Q502.4688,405.7422 501.9063,405.5547 Q501.3438,405.3516 500.7813,405.3516 Q500.0781,405.3516 499.4844,405.6328 Q498.9063,405.9141 498.4531,406.5391 Q498,407.1641 498,408.0234 L498,408.9453 Q498,409.9766 498.8438,410.6641 Q499.6875,411.3516 501.1875,411.3516 Q502.0781,411.3516 502.7031,411.1484 Q503.0625,411.0391 503.4688,410.6797 Q503.7344,410.4766 503.875,410.4141 Q504.0156,410.3516 504.1875,410.3516 Q504.5156,410.3516 504.75,410.6172 Q505,410.8672 505,411.2266 Q505,411.5703 504.6563,411.9766 Q504.1563,412.5703 503.3594,412.8984 Q502.3125,413.3516 501.0313,413.3516 Q499.5313,413.3516 498.3281,412.7578 Q497.3594,412.2891 496.6719,411.2734 Q496,410.2578 496,409.0547 L496,407.9609 Q496,406.7109 496.5938,405.6172 Q497.2031,404.5234 498.25,403.9453 Q499.3125,403.3516 500.5,403.3516 Q501.2188,403.3516 501.8438,403.6016 Q502.4688,403.8516 503,404.3516 Z " fill="#000000"/><text fill="#000000" font-family="sans-serif" font-size="12" font-style="italic" lengthAdjust="spacing" textLength="81" x="540.5" y="403.957">«value object»</text><text fill="#000000" font-family="sans-serif" font-size="14" lengthAdjust="spacing" textLength="132" x="515" y="421.127">TechnicalDescription</text><line style="stroke:#181818;stroke-width:0.5;" x1="487" x2="649" y1="429.2031" y2="429.2031"/></g><!--MD5=[c51d8cfff82d6e99b9bc7d5eb38188c2]
class ExtendedDescription--><g id="elem_ExtendedDescription"><rect fill="#F1F1F1" height="50.7031" id="ExtendedDescription" rx="2.5" ry="2.5" style="stroke:#181818;stroke-width:0.5;" width="162" x="487" y="300.5"/><ellipse cx="502" cy="321.8516" fill="#ADD1B2" rx="11" ry="11" style="stroke:#181818;stroke-width:1.0;"/><path d="M504,318.3516 Q504.2031,317.8516 504.4375,317.6016 Q504.6719,317.3516 504.9375,317.3516 Q505.4063,317.3516 505.7031,317.6328 Q506,317.9141 506,318.5703 L506,320.1328 Q506,320.7891 505.7188,321.0703 Q505.4375,321.3516 505,321.3516 Q504.6094,321.3516 504.3594,321.1797 Q504.1094,321.0078 504,320.5547 Q503.9531,320.2422 503.7813,320.0703 Q503.4688,319.7422 502.9063,319.5547 Q502.3438,319.3516 501.7813,319.3516 Q501.0781,319.3516 500.4844,319.6328 Q499.9063,319.9141 499.4531,320.5391 Q499,321.1641 499,322.0234 L499,322.9453 Q499,323.9766 499.8438,324.6641 Q500.6875,325.3516 502.1875,325.3516 Q503.0781,325.3516 503.7031,325.1484 Q504.0625,325.0391 504.4688,324.6797 Q504.7344,324.4766 504.875,324.4141 Q505.0156,324.3516 505.1875,324.3516 Q505.5156,324.3516 505.75,324.6172 Q506,324.8672 506,325.2266 Q506,325.5703 505.6563,325.9766 Q505.1563,326.5703 504.3594,326.8984 Q503.3125,327.3516 502.0313,327.3516 Q500.5313,327.3516 499.3281,326.7578 Q498.3594,326.2891 497.6719,325.2734 Q497,324.2578 497,323.0547 L497,321.9609 Q497,320.7109 497.5938,319.6172 Q498.2031,318.5234 499.25,317.9453 Q500.3125,317.3516 501.5,317.3516 Q502.2188,317.3516 502.8438,317.6016 Q503.4688,317.8516 504,318.3516 Z " fill="#000000"/><text fill="#000000" font-family="sans-serif" font-size="12" font-style="italic" lengthAdjust="spacing" textLength="81" x="540.5" y="317.957">«value object»</text><text fill="#000000" font-family="sans-serif" font-size="14" lengthAdjust="spacing" textLength="130" x="516" y="335.127">ExtendedDescription</text><line style="stroke:#181818;stroke-width:0.5;" x1="488" x2="648" y1="343.2031" y2="343.2031"/></g><!--MD5=[79d3acb8d8b4a000645cdf546551f625]
class ShortDescription--><g id="elem_ShortDescription"><rect fill="#F1F1F1" height="50.7031" id="ShortDescription" rx="2.5" ry="2.5" style="stroke:#181818;stroke-width:0.5;" width="137" x="499.5" y="214.5"/><ellipse cx="514.5" cy="235.8516" fill="#ADD1B2" rx="11" ry="11" style="stroke:#181818;stroke-width:1.0;"/><path d="M516.5,232.3516 Q516.7031,231.8516 516.9375,231.6016 Q517.1719,231.3516 517.4375,231.3516 Q517.9063,231.3516 518.2031,231.6328 Q518.5,231.9141 518.5,232.5703 L518.5,234.1328 Q518.5,234.7891 518.2188,235.0703 Q517.9375,235.3516 517.5,235.3516 Q517.1094,235.3516 516.8594,235.1797 Q516.6094,235.0078 516.5,234.5547 Q516.4531,234.2422 516.2813,234.0703 Q515.9688,233.7422 515.4063,233.5547 Q514.8438,233.3516 514.2813,233.3516 Q513.5781,233.3516 512.9844,233.6328 Q512.4063,233.9141 511.9531,234.5391 Q511.5,235.1641 511.5,236.0234 L511.5,236.9453 Q511.5,237.9766 512.3438,238.6641 Q513.1875,239.3516 514.6875,239.3516 Q515.5781,239.3516 516.2031,239.1484 Q516.5625,239.0391 516.9688,238.6797 Q517.2344,238.4766 517.375,238.4141 Q517.5156,238.3516 517.6875,238.3516 Q518.0156,238.3516 518.25,238.6172 Q518.5,238.8672 518.5,239.2266 Q518.5,239.5703 518.1563,239.9766 Q517.6563,240.5703 516.8594,240.8984 Q515.8125,241.3516 514.5313,241.3516 Q513.0313,241.3516 511.8281,240.7578 Q510.8594,240.2891 510.1719,239.2734 Q509.5,238.2578 509.5,237.0547 L509.5,235.9609 Q509.5,234.7109 510.0938,233.6172 Q510.7031,232.5234 511.75,231.9453 Q512.8125,231.3516 514,231.3516 Q514.7188,231.3516 515.3438,231.6016 Q515.9688,231.8516 516.5,232.3516 Z " fill="#000000"/><text fill="#000000" font-family="sans-serif" font-size="12" font-style="italic" lengthAdjust="spacing" textLength="81" x="540.5" y="231.957">«value object»</text><text fill="#000000" font-family="sans-serif" font-size="14" lengthAdjust="spacing" textLength="105" x="528.5" y="249.127">ShortDescription</text><line style="stroke:#181818;stroke-width:0.5;" x1="500.5" x2="635.5" y1="257.2031" y2="257.2031"/></g><!--MD5=[a805b40f8193e3b705560a3818c5c109]
class Photo--><g id="elem_Photo"><rect fill="#F1F1F1" height="50.7031" id="Photo" rx="2.5" ry="2.5" style="stroke:#181818;stroke-width:0.5;" width="109" x="513.5" y="128.5"/><ellipse cx="528.5" cy="149.8516" fill="#ADD1B2" rx="11" ry="11" style="stroke:#181818;stroke-width:1.0;"/><path d="M530.5,146.3516 Q530.7031,145.8516 530.9375,145.6016 Q531.1719,145.3516 531.4375,145.3516 Q531.9063,145.3516 532.2031,145.6328 Q532.5,145.9141 532.5,146.5703 L532.5,148.1328 Q532.5,148.7891 532.2188,149.0703 Q531.9375,149.3516 531.5,149.3516 Q531.1094,149.3516 530.8594,149.1797 Q530.6094,149.0078 530.5,148.5547 Q530.4531,148.2422 530.2813,148.0703 Q529.9688,147.7422 529.4063,147.5547 Q528.8438,147.3516 528.2813,147.3516 Q527.5781,147.3516 526.9844,147.6328 Q526.4063,147.9141 525.9531,148.5391 Q525.5,149.1641 525.5,150.0234 L525.5,150.9453 Q525.5,151.9766 526.3438,152.6641 Q527.1875,153.3516 528.6875,153.3516 Q529.5781,153.3516 530.2031,153.1484 Q530.5625,153.0391 530.9688,152.6797 Q531.2344,152.4766 531.375,152.4141 Q531.5156,152.3516 531.6875,152.3516 Q532.0156,152.3516 532.25,152.6172 Q532.5,152.8672 532.5,153.2266 Q532.5,153.5703 532.1563,153.9766 Q531.6563,154.5703 530.8594,154.8984 Q529.8125,155.3516 528.5313,155.3516 Q527.0313,155.3516 525.8281,154.7578 Q524.8594,154.2891 524.1719,153.2734 Q523.5,152.2578 523.5,151.0547 L523.5,149.9609 Q523.5,148.7109 524.0938,147.6172 Q524.7031,146.5234 525.75,145.9453 Q526.8125,145.3516 528,145.3516 Q528.7188,145.3516 529.3438,145.6016 Q529.9688,145.8516 530.5,146.3516 Z " fill="#000000"/><text fill="#000000" font-family="sans-serif" font-size="12" font-style="italic" lengthAdjust="spacing" textLength="81" x="540.5" y="145.957">«value object»</text><text fill="#000000" font-family="sans-serif" font-size="14" lengthAdjust="spacing" textLength="37" x="562.5" y="163.127">Photo</text><line style="stroke:#181818;stroke-width:0.5;" x1="514.5" x2="621.5" y1="171.2031" y2="171.2031"/></g><!--MD5=[4f1f3706c1a355a8488e154afcaed5df]
class Location--><g id="elem_Location"><rect fill="#F1F1F1" height="50.7031" id="Location" rx="2.5" ry="2.5" style="stroke:#181818;stroke-width:0.5;" width="109" x="513.5" y="42.5"/><ellipse cx="528.5" cy="63.8516" fill="#ADD1B2" rx="11" ry="11" style="stroke:#181818;stroke-width:1.0;"/><path d="M530.5,60.3516 Q530.7031,59.8516 530.9375,59.6016 Q531.1719,59.3516 531.4375,59.3516 Q531.9063,59.3516 532.2031,59.6328 Q532.5,59.9141 532.5,60.5703 L532.5,62.1328 Q532.5,62.7891 532.2188,63.0703 Q531.9375,63.3516 531.5,63.3516 Q531.1094,63.3516 530.8594,63.1797 Q530.6094,63.0078 530.5,62.5547 Q530.4531,62.2422 530.2813,62.0703 Q529.9688,61.7422 529.4063,61.5547 Q528.8438,61.3516 528.2813,61.3516 Q527.5781,61.3516 526.9844,61.6328 Q526.4063,61.9141 525.9531,62.5391 Q525.5,63.1641 525.5,64.0234 L525.5,64.9453 Q525.5,65.9766 526.3438,66.6641 Q527.1875,67.3516 528.6875,67.3516 Q529.5781,67.3516 530.2031,67.1484 Q530.5625,67.0391 530.9688,66.6797 Q531.2344,66.4766 531.375,66.4141 Q531.5156,66.3516 531.6875,66.3516 Q532.0156,66.3516 532.25,66.6172 Q532.5,66.8672 532.5,67.2266 Q532.5,67.5703 532.1563,67.9766 Q531.6563,68.5703 530.8594,68.8984 Q529.8125,69.3516 528.5313,69.3516 Q527.0313,69.3516 525.8281,68.7578 Q524.8594,68.2891 524.1719,67.2734 Q523.5,66.2578 523.5,65.0547 L523.5,63.9609 Q523.5,62.7109 524.0938,61.6172 Q524.7031,60.5234 525.75,59.9453 Q526.8125,59.3516 528,59.3516 Q528.7188,59.3516 529.3438,59.6016 Q529.9688,59.8516 530.5,60.3516 Z " fill="#000000"/><text fill="#000000" font-family="sans-serif" font-size="12" font-style="italic" lengthAdjust="spacing" textLength="81" x="540.5" y="59.957">«value object»</text><text fill="#000000" font-family="sans-serif" font-size="14" lengthAdjust="spacing" textLength="54" x="554" y="77.127">Location</text><line style="stroke:#181818;stroke-width:0.5;" x1="514.5" x2="621.5" y1="85.2031" y2="85.2031"/></g><!--MD5=[d88dd8880c36eab9d6aef5069e2c5939]
link Catalog to Product--><g id="link_Catalog_Product"><path codeLine="67" d="M131.26,584 C169.51,584 220.06,584 254.82,584 " fill="none" id="Catalog-Product" style="stroke:#181818;stroke-width:1.0;"/><polygon fill="#000000" points="171,575.1758,161.9549,572.2369,161.9549,578.1147,171,575.1758" style="stroke:#000000;stroke-width:1.0;"/><text fill="#000000" font-family="sans-serif" font-size="13" lengthAdjust="spacing" textLength="49" x="175" y="580.4951">contains</text><text fill="#000000" font-family="sans-serif" font-size="13" lengthAdjust="spacing" textLength="7" x="139.0887" y="598.6137">1</text><text fill="#000000" font-family="sans-serif" font-size="13" lengthAdjust="spacing" textLength="5" x="242.0395" y="598.9236">*</text></g><!--MD5=[41043388d0f8d1cf0966079386e80353]
link Product to Category--><g id="link_Product_Category"><path codeLine="68" d="M299.88,618.29 C307.43,701.9 329.78,913.73 367,973 C404.52,1032.75 476.4,1075.58 522.99,1098.57 " fill="none" id="Product-Category" style="stroke:#181818;stroke-width:1.0;"/><polygon fill="#000000" points="374.1065,968.7104,372.9612,959.269,367.6304,961.7454,374.1065,968.7104" style="stroke:#000000;stroke-width:1.0;"/><text fill="#000000" font-family="sans-serif" font-size="13" lengthAdjust="spacing" textLength="74" x="381" y="969.4951">organized by</text><text fill="#000000" font-family="sans-serif" font-size="13" lengthAdjust="spacing" textLength="5" x="295.1431" y="639.8504">*</text><text fill="#000000" font-family="sans-serif" font-size="13" lengthAdjust="spacing" textLength="7" x="507.9555" y="1110.2076">1</text></g><!--MD5=[0821e12892cf20577cca50dd9d3655ef]
link Product to InternalCode--><g id="link_Product_InternalCode"><path codeLine="69" d="M300.85,618.41 C307.8,670.16 325.73,769.87 367,844 C404.62,911.59 424.56,924.01 486,971 C492.94,976.3 500.62,981.31 508.41,985.9 " fill="none" id="Product-to-InternalCode" style="stroke:#181818;stroke-width:1.0;"/><polygon fill="#181818" points="512.74,988.41,506.947,980.445,508.4103,985.9093,502.9459,987.3726,512.74,988.41" style="stroke:#181818;stroke-width:1.0;"/><text fill="#000000" font-family="sans-serif" font-size="13" lengthAdjust="spacing" textLength="7" x="496.3751" y="980.6034">1</text></g><!--MD5=[d712a9affdb0a2e6fd883f05aa145395]
link Product to Photo--><g id="link_Product_Photo"><path codeLine="70" d="M304.54,549.91 C315.03,505.92 336.25,427.73 367,366 C407.96,283.77 417.1,257.76 486,197 C492.85,190.96 500.7,185.46 508.76,180.58 " fill="none" id="Product-to-Photo" style="stroke:#181818;stroke-width:1.0;"/><polygon fill="#181818" points="513.25,177.92,503.4671,179.0581,508.9462,180.4651,507.5393,185.9442,513.25,177.92" style="stroke:#181818;stroke-width:1.0;"/><text fill="#000000" font-family="sans-serif" font-size="13" lengthAdjust="spacing" textLength="7" x="498.4227" y="195.7479">1</text></g><!--MD5=[ff6f7e6c179b97a3a11d359eab0adb49]
link Product to ShortDescription--><g id="link_Product_ShortDescription"><path codeLine="71" d="M310.04,549.74 C335.11,488.15 395.65,358.19 486,283 C492.38,277.69 499.53,272.75 506.86,268.26 " fill="none" id="Product-to-ShortDescription" style="stroke:#181818;stroke-width:1.0;"/><polygon fill="#181818" points="511.45,265.53,501.6717,266.7065,507.1562,268.0919,505.7708,273.5765,511.45,265.53" style="stroke:#181818;stroke-width:1.0;"/><text fill="#000000" font-family="sans-serif" font-size="13" lengthAdjust="spacing" textLength="7" x="490.5634" y="286.8539">1</text></g><!--MD5=[f6039fb79c6ecc2101f694a642168494]
link Product to ExtendedDescription--><g id="link_Product_ExtendedDescription"><path codeLine="72" d="M320.45,549.66 C353.18,503.75 416.42,422 486,369 C492.95,363.71 500.63,358.71 508.43,354.12 " fill="none" id="Product-to-ExtendedDescription" style="stroke:#181818;stroke-width:1.0;"/><polygon fill="#181818" points="512.76,351.62,502.9659,352.6574,508.4303,354.1207,506.967,359.585,512.76,351.62" style="stroke:#181818;stroke-width:1.0;"/><text fill="#000000" font-family="sans-serif" font-size="13" lengthAdjust="spacing" textLength="7" x="492.9106" y="372.5404">1</text></g><!--MD5=[308bef9f33132c2b243ec8e9138be5c6]
link Product to TechnicalDescription--><g id="link_Product_TechnicalDescription"><path codeLine="73" d="M337.07,554.74 C374.75,527.68 433.13,486.94 486,455 C494.28,450 503.19,444.95 511.97,440.16 " fill="none" id="Product-to-TechnicalDescription" style="stroke:#181818;stroke-width:1.0;"/><polygon fill="#181818" points="516.82,437.52,507.0026,438.3069,512.4278,439.9092,510.8254,445.3344,516.82,437.52" style="stroke:#181818;stroke-width:1.0;"/><text fill="#000000" font-family="sans-serif" font-size="13" lengthAdjust="spacing" textLength="22" x="480.4409" y="458.8416">0..1</text></g><!--MD5=[5aa13b7ab9f0c275d874c3b024766aa8]
link Product to Brand--><g id="link_Product_Brand"><path codeLine="74" d="M313.06,618.09 C326.45,645.64 346.57,685.11 367,718 C402.41,775.01 417.6,784.95 456,840 C469.75,859.71 468.18,868.87 486,885 C492.77,891.13 500.58,896.67 508.62,901.58 " fill="none" id="Product-to-Brand" style="stroke:#181818;stroke-width:1.0;"/><polygon fill="#181818" points="513.1,904.24,507.3893,896.2158,508.7962,901.6949,503.3171,903.1019,513.1,904.24" style="stroke:#181818;stroke-width:1.0;"/><text fill="#000000" font-family="sans-serif" font-size="13" lengthAdjust="spacing" textLength="7" x="498.6175" y="915.7574">1</text></g><!--MD5=[a08fded9ab29299d2f06160dc61bc428]
link Product to Reference--><g id="link_Product_Reference"><path codeLine="75" d="M337.13,571.22 C382.39,556.8 456.4,533.23 508.18,516.73 " fill="none" id="Product-to-Reference" style="stroke:#181818;stroke-width:1.0;"/><polygon fill="#181818" points="513.12,515.16,503.3317,514.0699,508.3542,516.6725,505.7516,521.6951,513.12,515.16" style="stroke:#181818;stroke-width:1.0;"/><text fill="#000000" font-family="sans-serif" font-size="13" lengthAdjust="spacing" textLength="7" x="498.6401" y="531.9203">1</text></g><!--MD5=[d52d4675e9eec1727cacff8adb24bf93]
link Product to Barcode--><g id="link_Product_Barcode"><path codeLine="76" d="M337.26,589.33 C376.92,594.86 434.6,603.69 456,611 C470.3,615.88 472.66,619.9 486,627 C495.06,631.82 504.69,636.94 514.03,641.9 " fill="none" id="Product-to-Barcode" style="stroke:#181818;stroke-width:1.0;"/><polygon fill="#181818" points="518.59,644.32,512.5155,636.5675,514.1735,641.976,508.7651,643.6339,518.59,644.32" style="stroke:#181818;stroke-width:1.0;"/><text fill="#000000" font-family="sans-serif" font-size="13" lengthAdjust="spacing" textLength="7" x="498.6932" y="633.6846">1</text></g><!--MD5=[7783cf4f284f6574ffa41cda79f17a0d]
link Product to PriceWithTaxes--><g id="link_Product_PriceWithTaxes"><path codeLine="77" d="M337.17,602.3 C346.88,606.58 357.27,611.05 367,615 C406.08,630.88 425.04,619.34 456,648 C479.35,669.61 464.14,689.88 486,713 C491.07,718.36 496.95,723.18 503.19,727.49 " fill="none" id="Product-to-PriceWithTaxes" style="stroke:#181818;stroke-width:1.0;"/><polygon fill="#181818" points="507.56,730.4,502.2772,722.0878,503.3954,727.6331,497.8501,728.7513,507.56,730.4" style="stroke:#181818;stroke-width:1.0;"/><text fill="#000000" font-family="sans-serif" font-size="13" lengthAdjust="spacing" textLength="7" x="487.9718" y="721.3439">1</text></g><!--MD5=[21fd7c5c88fbb101f84c32fee8a4a5de]
link Product to PriceWithoutTaxes--><g id="link_Product_PriceWithoutTaxes"><path codeLine="78" d="M329.79,618.01 C341.2,629.25 354.32,641.54 367,652 C404.19,682.67 426.79,675.65 456,714 C480.27,745.87 459.86,768.65 486,799 C490.64,804.39 496.13,809.21 502.03,813.49 " fill="none" id="Product-to-PriceWithoutTaxes" style="stroke:#181818;stroke-width:1.0;"/><polygon fill="#181818" points="506.18,816.37,501.0693,807.951,502.0732,813.518,496.5061,814.5219,506.18,816.37" style="stroke:#181818;stroke-width:1.0;"/><text fill="#000000" font-family="sans-serif" font-size="13" lengthAdjust="spacing" textLength="7" x="483.2583" y="805.7468">1</text></g><!--MD5=[7119557809726774d3ef77edfe01616b]
link Product to ProductionCode--><g id="link_Product_ProductionCode"><path codeLine="79" d="M337.13,584 C378.89,584 445.12,584 495.79,584 " fill="none" id="Product-to-ProductionCode" style="stroke:#181818;stroke-width:1.0;"/><polygon fill="#181818" points="500.96,584,491.96,580,495.96,584,491.96,588,500.96,584" style="stroke:#181818;stroke-width:1.0;"/><text fill="#000000" font-family="sans-serif" font-size="13" lengthAdjust="spacing" textLength="7" x="485.8038" y="598.4576">1</text></g><!--MD5=[7018fed88091f02095fb5df2c573b4cc]
link Product to Location--><g id="link_Product_Location"><path codeLine="80" d="M301.02,549.9 C308.54,493.47 327.66,378 367,288 C404.96,201.14 415.58,174.46 486,111 C492.79,104.88 500.6,99.35 508.64,94.44 " fill="none" id="Product-to-Location" style="stroke:#181818;stroke-width:1.0;"/><polygon fill="#181818" points="513.12,91.78,503.3371,92.9181,508.8162,94.3251,507.4093,99.8042,513.12,91.78" style="stroke:#181818;stroke-width:1.0;"/><text fill="#000000" font-family="sans-serif" font-size="13" lengthAdjust="spacing" textLength="7" x="498.6401" y="109.3885">1</text></g><!--MD5=[61dc9360a9fd368df11acc2d480d23b7]
link Location to Warehouse--><g id="link_Location_Warehouse"><path codeLine="81" d="M620.34,93.5 C630.36,98.97 640.65,104.93 650,111 C677.61,128.93 706.83,151.92 728.57,169.91 " fill="none" id="Location-to-Warehouse" style="stroke:#181818;stroke-width:1.0;"/><polygon fill="#181818" points="732.54,173.21,728.1641,164.3867,728.6907,170.0189,723.0584,170.5455,732.54,173.21" style="stroke:#181818;stroke-width:1.0;"/><text fill="#000000" font-family="sans-serif" font-size="13" lengthAdjust="spacing" textLength="7" x="717.1404" y="162.5478">1</text></g><!--MD5=[17945b6083a4b4dab7f006498923d435]
link Warehouse to Shelf--><g id="link_Warehouse_Shelf"><path codeLine="83" d="M814.21,173.27 C838.05,160.93 866.77,146.07 891.65,133.2 " fill="none" id="Warehouse-to-Shelf" style="stroke:#181818;stroke-width:1.0;"/><polygon fill="#181818" points="896.24,130.82,886.4086,131.4054,891.7997,133.1187,890.0864,138.5098,896.24,130.82" style="stroke:#181818;stroke-width:1.0;"/><text fill="#000000" font-family="sans-serif" font-size="13" lengthAdjust="spacing" textLength="20" x="868.3474" y="148.6935">1..*</text></g><!--MD5=[cca7e706f1d9c6c9e6f0f393b462673a]
link Warehouse to Row--><g id="link_Warehouse_Row"><path codeLine="84" d="M816.17,218.22 C834.43,225.01 855.36,232.8 875.15,240.16 " fill="none" id="Warehouse-to-Row" style="stroke:#181818;stroke-width:1.0;"/><polygon fill="#181818" points="879.89,241.92,872.8491,235.0334,875.2037,240.1769,870.0601,242.5315,879.89,241.92" style="stroke:#181818;stroke-width:1.0;"/><text fill="#000000" font-family="sans-serif" font-size="13" lengthAdjust="spacing" textLength="20" x="851.9057" y="253.665">1..*</text></g><!--MD5=[8e30de69f95fb92b10aa949696d889b2]
link Warehouse to Aisle--><g id="link_Warehouse_Aisle"><path codeLine="85" d="M782.29,224.89 C804.95,257.88 845.47,316.85 880.99,368.56 " fill="none" id="Warehouse-to-Aisle" style="stroke:#181818;stroke-width:1.0;"/><polygon fill="#181818" points="883.98,372.9,882.1931,363.2146,881.154,368.7752,875.5934,367.7362,883.98,372.9" style="stroke:#181818;stroke-width:1.0;"/><text fill="#000000" font-family="sans-serif" font-size="13" lengthAdjust="spacing" textLength="20" x="857.8425" y="362.1305">1..*</text></g><!--MD5=[45265e9278e5eb8011aa2b651996a473]
@startuml
hide methods
left to right direction
skinparam classAttributeIconSize 0

package "product"{
class Product{
-availability
}

class Category{
-description
-code
}

class Warehouse{
}

class Aisle{
-id
-beginLengthSquare
-beginWidthSquare
-endLengthSquare
-endWidthSquare
-depthLengthSquare
-depthWidthSquare
-accessibilityDirection
}

class Row{
-id
-beginLengthSquare
-beginWidthSquare
-endLengthSquare
-endWidthSquare
}

class Shelf{
-id
-binSize
-numberOfBins
-maxBins
}

Warehouse <<entity>>
Shelf <<value object>>
Row <<value object>>
Aisle <<value object>>


Product <<entity>>
Category <<entity>>
Catalog <<value object>>
InternalCode <<value object>>
Brand <<value object>>
PriceWithoutTaxes <<value object>>
PriceWithTaxes <<value object>>
Barcode <<value object>>
ProductionCode <<value object>>
Reference <<value object>>
TechnicalDescription <<value object>>
ExtendedDescription <<value object>>
ShortDescription <<value object>>
Photo <<value object>>
Location <<value object>>
}

Catalog "1" - - "*" Product : contains >
Product "*" - - "1" Category : organized by >
Product  - -> "1" InternalCode
Product  - -> "1" Photo
Product  - -> "1" ShortDescription
Product  - -> "1" ExtendedDescription
Product  - -> "0..1" TechnicalDescription
Product  - -> "1" Brand
Product  - -> "1" Reference
Product  - -> "1" Barcode
Product  - -> "1" PriceWithTaxes
Product  - -> "1" PriceWithoutTaxes
Product  - -> "1" ProductionCode
Product  - -> "1" Location
Location - -> "1" Warehouse

Warehouse  - -> "1..*" Shelf
Warehouse  - -> "1..*" Row
Warehouse  - -> "1..*" Aisle


@enduml

PlantUML version 1.2022.4(Sat Apr 09 14:29:17 BST 2022)
(GPL source distribution)
Java Runtime: OpenJDK Runtime Environment
JVM: OpenJDK 64-Bit Server VM
Default Encoding: Cp1252
Language: pt
Country: PT
--></g></svg>