<?xml version="1.0" encoding="UTF-8" standalone="no"?><svg xmlns="http://www.w3.org/2000/svg" xmlns:xlink="http://www.w3.org/1999/xlink" contentStyleType="text/css" height="428px" preserveAspectRatio="none" style="width:968px;height:428px;background:#FFFFFF;" version="1.1" viewBox="0 0 968 428" width="968px" zoomAndPan="magnify"><defs/><g><rect fill="#FFFFFF" height="87.7031" style="stroke:#181818;stroke-width:1.0;" width="10" x="403.5" y="143.2734"/><rect fill="#FFFFFF" height="155.4063" style="stroke:#181818;stroke-width:1.0;" width="10" x="531" y="200.625"/><rect height="136.4063" style="stroke:#000000;stroke-width:1.5;fill:none;" width="583" x="10" y="102.5703"/><line style="stroke:#181818;stroke-width:0.5;fill:none;stroke-dasharray:5.0,5.0;" x1="75" x2="75" y1="55.2188" y2="374.0313"/><line style="stroke:#181818;stroke-width:0.5;fill:none;stroke-dasharray:5.0,5.0;" x1="234" x2="234" y1="55.2188" y2="374.0313"/><line style="stroke:#181818;stroke-width:0.5;fill:none;stroke-dasharray:5.0,5.0;" x1="408" x2="408" y1="55.2188" y2="374.0313"/><line style="stroke:#181818;stroke-width:0.5;fill:none;stroke-dasharray:5.0,5.0;" x1="536" x2="536" y1="55.2188" y2="374.0313"/><line style="stroke:#181818;stroke-width:0.5;fill:none;stroke-dasharray:5.0,5.0;" x1="715" x2="715" y1="55.2188" y2="374.0313"/><line style="stroke:#181818;stroke-width:0.5;fill:none;stroke-dasharray:5.0,5.0;" x1="904" x2="904" y1="55.2188" y2="374.0313"/><rect fill="#E2E2F0" height="49.2188" rx="2.5" ry="2.5" style="stroke:#181818;stroke-width:0.5;" width="111" x="20" y="5"/><text fill="#000000" font-family="sans-serif" font-size="14" font-style="italic" lengthAdjust="spacing" textLength="49" x="51" y="26.5332">«client»</text><text fill="#000000" font-family="sans-serif" font-size="14" lengthAdjust="spacing" textLength="97" x="27" y="44.1426">AGVDigitalTwin</text><rect fill="#E2E2F0" height="49.2188" rx="2.5" ry="2.5" style="stroke:#181818;stroke-width:0.5;" width="111" x="20" y="373.0313"/><text fill="#000000" font-family="sans-serif" font-size="14" font-style="italic" lengthAdjust="spacing" textLength="49" x="51" y="394.5645">«client»</text><text fill="#000000" font-family="sans-serif" font-size="14" lengthAdjust="spacing" textLength="97" x="27" y="412.1738">AGVDigitalTwin</text><rect fill="#E2E2F0" height="31.6094" rx="2.5" ry="2.5" style="stroke:#181818;stroke-width:0.5;" width="187" x="141" y="22.6094"/><text fill="#000000" font-family="sans-serif" font-size="14" lengthAdjust="spacing" textLength="173" x="148" y="44.1426">AssignOrderProtocolServer</text><rect fill="#E2E2F0" height="31.6094" rx="2.5" ry="2.5" style="stroke:#181818;stroke-width:0.5;" width="187" x="141" y="373.0313"/><text fill="#000000" font-family="sans-serif" font-size="14" lengthAdjust="spacing" textLength="173" x="148" y="394.5645">AssignOrderProtocolServer</text><rect fill="#E2E2F0" height="31.6094" rx="2.5" ry="2.5" style="stroke:#181818;stroke-width:0.5;" width="141" x="338" y="22.6094"/><text fill="#000000" font-family="sans-serif" font-size="14" lengthAdjust="spacing" textLength="127" x="345" y="44.1426">AGVManagerServer</text><rect fill="#E2E2F0" height="31.6094" rx="2.5" ry="2.5" style="stroke:#181818;stroke-width:0.5;" width="141" x="338" y="373.0313"/><text fill="#000000" font-family="sans-serif" font-size="14" lengthAdjust="spacing" textLength="127" x="345" y="394.5645">AGVManagerServer</text><rect fill="#E2E2F0" height="49.2188" rx="2.5" ry="2.5" style="stroke:#181818;stroke-width:0.5;" width="94" x="489" y="5"/><text fill="#000000" font-family="sans-serif" font-size="14" font-style="italic" lengthAdjust="spacing" textLength="57" x="507.5" y="26.5332">«thread»</text><text fill="#000000" font-family="sans-serif" font-size="14" lengthAdjust="spacing" textLength="80" x="496" y="44.1426">HandleClient</text><rect fill="#E2E2F0" height="49.2188" rx="2.5" ry="2.5" style="stroke:#181818;stroke-width:0.5;" width="94" x="489" y="373.0313"/><text fill="#000000" font-family="sans-serif" font-size="14" font-style="italic" lengthAdjust="spacing" textLength="57" x="507.5" y="394.5645">«thread»</text><text fill="#000000" font-family="sans-serif" font-size="14" lengthAdjust="spacing" textLength="80" x="496" y="412.1738">HandleClient</text><rect fill="#E2E2F0" height="31.6094" rx="2.5" ry="2.5" style="stroke:#181818;stroke-width:0.5;" width="244" x="593" y="22.6094"/><text fill="#000000" font-family="sans-serif" font-size="14" lengthAdjust="spacing" textLength="230" x="600" y="44.1426">AssignOrderProtocolMessageParser</text><rect fill="#E2E2F0" height="31.6094" rx="2.5" ry="2.5" style="stroke:#181818;stroke-width:0.5;" width="244" x="593" y="373.0313"/><text fill="#000000" font-family="sans-serif" font-size="14" lengthAdjust="spacing" textLength="230" x="600" y="394.5645">AssignOrderProtocolMessageParser</text><rect fill="#E2E2F0" height="31.6094" rx="2.5" ry="2.5" style="stroke:#181818;stroke-width:0.5;" width="115" x="847" y="22.6094"/><text fill="#000000" font-family="sans-serif" font-size="14" lengthAdjust="spacing" textLength="101" x="854" y="44.1426">MessageBuilder</text><rect fill="#E2E2F0" height="31.6094" rx="2.5" ry="2.5" style="stroke:#181818;stroke-width:0.5;" width="115" x="847" y="373.0313"/><text fill="#000000" font-family="sans-serif" font-size="14" lengthAdjust="spacing" textLength="101" x="854" y="394.5645">MessageBuilder</text><rect fill="#FFFFFF" height="87.7031" style="stroke:#181818;stroke-width:1.0;" width="10" x="403.5" y="143.2734"/><rect fill="#FFFFFF" height="155.4063" style="stroke:#181818;stroke-width:1.0;" width="10" x="531" y="200.625"/><polygon fill="#181818" points="396.5,83.5703,406.5,87.5703,396.5,91.5703,400.5,87.5703" style="stroke:#181818;stroke-width:1.0;"/><line style="stroke:#181818;stroke-width:1.0;" x1="234.5" x2="402.5" y1="87.5703" y2="87.5703"/><text fill="#000000" font-family="sans-serif" font-size="13" lengthAdjust="spacing" textLength="23" x="241.5" y="82.7139">new</text><path d="M10,102.5703 L83,102.5703 L83,110.9219 L73,120.9219 L10,120.9219 L10,102.5703 " fill="#EEEEEE" style="stroke:#000000;stroke-width:1.5;"/><rect fill="none" height="136.4063" style="stroke:#000000;stroke-width:1.5;" width="583" x="10" y="102.5703"/><text fill="#000000" font-family="sans-serif" font-size="13" font-weight="bold" lengthAdjust="spacing" textLength="28" x="25" y="117.0654">loop</text><text fill="#000000" font-family="sans-serif" font-size="11" font-weight="bold" lengthAdjust="spacing" textLength="31" x="98" y="115.9893">[true]</text><polygon fill="#181818" points="391.5,139.2734,401.5,143.2734,391.5,147.2734,395.5,143.2734" style="stroke:#181818;stroke-width:1.0;"/><line style="stroke:#181818;stroke-width:1.0;" x1="234.5" x2="397.5" y1="143.2734" y2="143.2734"/><text fill="#000000" font-family="sans-serif" font-size="13" lengthAdjust="spacing" textLength="26" x="241.5" y="138.417">start</text><line style="stroke:#181818;stroke-width:1.0;" x1="413.5" x2="455.5" y1="173.625" y2="173.625"/><line style="stroke:#181818;stroke-width:1.0;" x1="455.5" x2="455.5" y1="173.625" y2="186.625"/><line style="stroke:#181818;stroke-width:1.0;" x1="414.5" x2="455.5" y1="186.625" y2="186.625"/><polygon fill="#181818" points="424.5,182.625,414.5,186.625,424.5,190.625,420.5,186.625" style="stroke:#181818;stroke-width:1.0;"/><text fill="#000000" font-family="sans-serif" font-size="13" lengthAdjust="spacing" textLength="39" x="420.5" y="168.7686">accept</text><polygon fill="#181818" points="391.5,196.625,401.5,200.625,391.5,204.625,395.5,200.625" style="stroke:#181818;stroke-width:1.0;"/><line style="stroke:#181818;stroke-width:1.0;stroke-dasharray:2.0,2.0;" x1="75.5" x2="397.5" y1="200.625" y2="200.625"/><polygon fill="#181818" points="519,226.9766,529,230.9766,519,230.9766" style="stroke:#181818;stroke-width:1.0;"/><line style="stroke:#181818;stroke-width:1.0;" x1="408.5" x2="530" y1="230.9766" y2="230.9766"/><text fill="#000000" font-family="sans-serif" font-size="13" lengthAdjust="spacing" textLength="26" x="415.5" y="226.1201">start</text><polygon fill="#181818" points="703,264.3281,713,268.3281,703,272.3281,707,268.3281" style="stroke:#181818;stroke-width:1.0;"/><line style="stroke:#181818;stroke-width:1.0;" x1="541" x2="709" y1="268.3281" y2="268.3281"/><text fill="#000000" font-family="sans-serif" font-size="13" lengthAdjust="spacing" textLength="32" x="548" y="263.4717">parse</text><line style="stroke:#181818;stroke-width:1.0;" x1="541" x2="583" y1="298.6797" y2="298.6797"/><line style="stroke:#181818;stroke-width:1.0;" x1="583" x2="583" y1="298.6797" y2="311.6797"/><line style="stroke:#181818;stroke-width:1.0;" x1="542" x2="583" y1="311.6797" y2="311.6797"/><polygon fill="#181818" points="552,307.6797,542,311.6797,552,315.6797,548,311.6797" style="stroke:#181818;stroke-width:1.0;"/><text fill="#000000" font-family="sans-serif" font-size="13" lengthAdjust="spacing" textLength="46" x="548" y="293.8232">execute</text><polygon fill="#181818" points="892.5,338.0313,902.5,342.0313,892.5,346.0313,896.5,342.0313" style="stroke:#181818;stroke-width:1.0;"/><line style="stroke:#181818;stroke-width:1.0;" x1="541" x2="898.5" y1="342.0313" y2="342.0313"/><text fill="#000000" font-family="sans-serif" font-size="13" lengthAdjust="spacing" textLength="27" x="548" y="337.1748">build</text><polygon fill="#181818" points="86.5,352.0313,76.5,356.0313,86.5,360.0313,82.5,356.0313" style="stroke:#181818;stroke-width:1.0;"/><line style="stroke:#181818;stroke-width:1.0;stroke-dasharray:2.0,2.0;" x1="80.5" x2="535" y1="356.0313" y2="356.0313"/><!--MD5=[415a8d89a6b5bbb0fbe428f6bc2a01cb]
@startuml US5001_SD.svg

participant AGVDigitalTwin <<client>>

AssignOrderProtocolServer -> AGVManagerServer : new
loop true
AssignOrderProtocolServer -> AGVManagerServer: start
Activate AGVManagerServer
AGVManagerServer -> AGVManagerServer: accept

AGVDigitalTwin - -> AGVManagerServer

participant HandleClient <<thread>>
activate HandleClient
AGVManagerServer -\ HandleClient: start
deactivate AGVManagerServer
end

HandleClient -> AssignOrderProtocolMessageParser:parse
HandleClient -> HandleClient: execute
HandleClient -> MessageBuilder:build

HandleClient - -> AGVDigitalTwin
deactivate HandleClient

@enduml

PlantUML version 1.2022.4(Sat Apr 09 14:29:17 BST 2022)
(GPL source distribution)
Java Runtime: OpenJDK Runtime Environment
JVM: OpenJDK 64-Bit Server VM
Default Encoding: Cp1252
Language: pt
Country: PT
--></g></svg>