<?xml version="1.0" encoding="UTF-8" standalone="no"?><svg xmlns="http://www.w3.org/2000/svg" xmlns:xlink="http://www.w3.org/1999/xlink" contentStyleType="text/css" height="1507px" preserveAspectRatio="none" style="width:906px;height:1507px;background:#FFFFFF;" version="1.1" viewBox="0 0 906 1507" width="906px" zoomAndPan="magnify"><defs/><g><!--MD5=[5c1a4368efc4020c811f0dec2d8123d2]
cluster agv--><g id="cluster_agv"><path d="M8.5,6 L35.5,6 A3.75,3.75 0 0 1 38,8.5 L45,29.6094 L361.5,29.6094 A2.5,2.5 0 0 1 364,32.1094 L364,623.5 A2.5,2.5 0 0 1 361.5,626 L8.5,626 A2.5,2.5 0 0 1 6,623.5 L6,8.5 A2.5,2.5 0 0 1 8.5,6 " style="stroke:#000000;stroke-width:1.5;fill:none;"/><line style="stroke:#000000;stroke-width:1.5;fill:none;" x1="6" x2="45" y1="29.6094" y2="29.6094"/><text fill="#000000" font-family="sans-serif" font-size="14" font-weight="bold" lengthAdjust="spacing" textLength="26" x="10" y="22.5332">agv</text></g><!--MD5=[21278497e3b717440c1992229d7cb5dc]
cluster order--><g id="cluster_order"><path d="M230.5,650 L270.5,650 A3.75,3.75 0 0 1 273,652.5 L280,673.6094 L699.5,673.6094 A2.5,2.5 0 0 1 702,676.1094 L702,1353.5 A2.5,2.5 0 0 1 699.5,1356 L230.5,1356 A2.5,2.5 0 0 1 228,1353.5 L228,652.5 A2.5,2.5 0 0 1 230.5,650 " style="stroke:#000000;stroke-width:1.5;fill:none;"/><line style="stroke:#000000;stroke-width:1.5;fill:none;" x1="228" x2="280" y1="673.6094" y2="673.6094"/><text fill="#000000" font-family="sans-serif" font-size="14" font-weight="bold" lengthAdjust="spacing" textLength="39" x="232" y="666.5332">order</text></g><!--MD5=[87a839285c4e636151e0ab9ef5595388]
cluster product--><g id="cluster_product"><path d="M526,1380 L582,1380 A3.75,3.75 0 0 1 584.5,1382.5 L591.5,1403.6094 L634,1403.6094 A2.5,2.5 0 0 1 636.5,1406.1094 L636.5,1481.5 A2.5,2.5 0 0 1 634,1484 L526,1484 A2.5,2.5 0 0 1 523.5,1481.5 L523.5,1382.5 A2.5,2.5 0 0 1 526,1380 " style="stroke:#000000;stroke-width:1.5;fill:none;"/><line style="stroke:#000000;stroke-width:1.5;fill:none;" x1="523.5" x2="591.5" y1="1403.6094" y2="1403.6094"/><text fill="#000000" font-family="sans-serif" font-size="14" font-weight="bold" lengthAdjust="spacing" textLength="55" x="527.5" y="1396.5332">product</text></g><!--MD5=[53b2c06ade5903185ca3326dce80e141]
class AGV--><g id="elem_AGV"><rect codeLine="9" fill="#F1F1F1" height="68.3125" id="AGV" rx="2.5" ry="2.5" style="stroke:#181818;stroke-width:0.5;" width="71" x="22" y="335"/><ellipse cx="37" cy="356.3516" fill="#ADD1B2" rx="11" ry="11" style="stroke:#181818;stroke-width:1.0;"/><path d="M39,352.8516 Q39.2031,352.3516 39.4375,352.1016 Q39.6719,351.8516 39.9375,351.8516 Q40.4063,351.8516 40.7031,352.1328 Q41,352.4141 41,353.0703 L41,354.6328 Q41,355.2891 40.7188,355.5703 Q40.4375,355.8516 40,355.8516 Q39.6094,355.8516 39.3594,355.6797 Q39.1094,355.5078 39,355.0547 Q38.9531,354.7422 38.7813,354.5703 Q38.4688,354.2422 37.9063,354.0547 Q37.3438,353.8516 36.7813,353.8516 Q36.0781,353.8516 35.4844,354.1328 Q34.9063,354.4141 34.4531,355.0391 Q34,355.6641 34,356.5234 L34,357.4453 Q34,358.4766 34.8438,359.1641 Q35.6875,359.8516 37.1875,359.8516 Q38.0781,359.8516 38.7031,359.6484 Q39.0625,359.5391 39.4688,359.1797 Q39.7344,358.9766 39.875,358.9141 Q40.0156,358.8516 40.1875,358.8516 Q40.5156,358.8516 40.75,359.1172 Q41,359.3672 41,359.7266 Q41,360.0703 40.6563,360.4766 Q40.1563,361.0703 39.3594,361.3984 Q38.3125,361.8516 37.0313,361.8516 Q35.5313,361.8516 34.3281,361.2578 Q33.3594,360.7891 32.6719,359.7734 Q32,358.7578 32,357.5547 L32,356.4609 Q32,355.2109 32.5938,354.1172 Q33.2031,353.0234 34.25,352.4453 Q35.3125,351.8516 36.5,351.8516 Q37.2188,351.8516 37.8438,352.1016 Q38.4688,352.3516 39,352.8516 Z " fill="#000000"/><text fill="#000000" font-family="sans-serif" font-size="12" font-style="italic" lengthAdjust="spacing" textLength="43" x="49" y="352.457">«entity»</text><text fill="#000000" font-family="sans-serif" font-size="14" lengthAdjust="spacing" textLength="29" x="56" y="369.627">AGV</text><line style="stroke:#181818;stroke-width:0.5;" x1="23" x2="92" y1="377.7031" y2="377.7031"/><text fill="#000000" font-family="sans-serif" font-size="14" lengthAdjust="spacing" textLength="16" x="28" y="396.2363">-id</text></g><!--MD5=[79d3acb8d8b4a000645cdf546551f625]
class ShortDescription--><g id="elem_ShortDescription"><rect fill="#F1F1F1" height="50.7031" id="ShortDescription" rx="2.5" ry="2.5" style="stroke:#181818;stroke-width:0.5;" width="137" x="211" y="558.5"/><ellipse cx="226" cy="579.8516" fill="#ADD1B2" rx="11" ry="11" style="stroke:#181818;stroke-width:1.0;"/><path d="M228,576.3516 Q228.2031,575.8516 228.4375,575.6016 Q228.6719,575.3516 228.9375,575.3516 Q229.4063,575.3516 229.7031,575.6328 Q230,575.9141 230,576.5703 L230,578.1328 Q230,578.7891 229.7188,579.0703 Q229.4375,579.3516 229,579.3516 Q228.6094,579.3516 228.3594,579.1797 Q228.1094,579.0078 228,578.5547 Q227.9531,578.2422 227.7813,578.0703 Q227.4688,577.7422 226.9063,577.5547 Q226.3438,577.3516 225.7813,577.3516 Q225.0781,577.3516 224.4844,577.6328 Q223.9063,577.9141 223.4531,578.5391 Q223,579.1641 223,580.0234 L223,580.9453 Q223,581.9766 223.8438,582.6641 Q224.6875,583.3516 226.1875,583.3516 Q227.0781,583.3516 227.7031,583.1484 Q228.0625,583.0391 228.4688,582.6797 Q228.7344,582.4766 228.875,582.4141 Q229.0156,582.3516 229.1875,582.3516 Q229.5156,582.3516 229.75,582.6172 Q230,582.8672 230,583.2266 Q230,583.5703 229.6563,583.9766 Q229.1563,584.5703 228.3594,584.8984 Q227.3125,585.3516 226.0313,585.3516 Q224.5313,585.3516 223.3281,584.7578 Q222.3594,584.2891 221.6719,583.2734 Q221,582.2578 221,581.0547 L221,579.9609 Q221,578.7109 221.5938,577.6172 Q222.2031,576.5234 223.25,575.9453 Q224.3125,575.3516 225.5,575.3516 Q226.2188,575.3516 226.8438,575.6016 Q227.4688,575.8516 228,576.3516 Z " fill="#000000"/><text fill="#000000" font-family="sans-serif" font-size="12" font-style="italic" lengthAdjust="spacing" textLength="81" x="252" y="575.957">«value object»</text><text fill="#000000" font-family="sans-serif" font-size="14" lengthAdjust="spacing" textLength="105" x="240" y="593.127">ShortDescription</text><line style="stroke:#181818;stroke-width:0.5;" x1="212" x2="347" y1="601.2031" y2="601.2031"/></g><!--MD5=[7e20e022571e30ec1001cf6eabd7f3e2]
class Model--><g id="elem_Model"><rect fill="#F1F1F1" height="50.7031" id="Model" rx="2.5" ry="2.5" style="stroke:#181818;stroke-width:0.5;" width="109" x="225" y="472.5"/><ellipse cx="240" cy="493.8516" fill="#ADD1B2" rx="11" ry="11" style="stroke:#181818;stroke-width:1.0;"/><path d="M242,490.3516 Q242.2031,489.8516 242.4375,489.6016 Q242.6719,489.3516 242.9375,489.3516 Q243.4063,489.3516 243.7031,489.6328 Q244,489.9141 244,490.5703 L244,492.1328 Q244,492.7891 243.7188,493.0703 Q243.4375,493.3516 243,493.3516 Q242.6094,493.3516 242.3594,493.1797 Q242.1094,493.0078 242,492.5547 Q241.9531,492.2422 241.7813,492.0703 Q241.4688,491.7422 240.9063,491.5547 Q240.3438,491.3516 239.7813,491.3516 Q239.0781,491.3516 238.4844,491.6328 Q237.9063,491.9141 237.4531,492.5391 Q237,493.1641 237,494.0234 L237,494.9453 Q237,495.9766 237.8438,496.6641 Q238.6875,497.3516 240.1875,497.3516 Q241.0781,497.3516 241.7031,497.1484 Q242.0625,497.0391 242.4688,496.6797 Q242.7344,496.4766 242.875,496.4141 Q243.0156,496.3516 243.1875,496.3516 Q243.5156,496.3516 243.75,496.6172 Q244,496.8672 244,497.2266 Q244,497.5703 243.6563,497.9766 Q243.1563,498.5703 242.3594,498.8984 Q241.3125,499.3516 240.0313,499.3516 Q238.5313,499.3516 237.3281,498.7578 Q236.3594,498.2891 235.6719,497.2734 Q235,496.2578 235,495.0547 L235,493.9609 Q235,492.7109 235.5938,491.6172 Q236.2031,490.5234 237.25,489.9453 Q238.3125,489.3516 239.5,489.3516 Q240.2188,489.3516 240.8438,489.6016 Q241.4688,489.8516 242,490.3516 Z " fill="#000000"/><text fill="#000000" font-family="sans-serif" font-size="12" font-style="italic" lengthAdjust="spacing" textLength="81" x="252" y="489.957">«value object»</text><text fill="#000000" font-family="sans-serif" font-size="14" lengthAdjust="spacing" textLength="38" x="273.5" y="507.127">Model</text><line style="stroke:#181818;stroke-width:0.5;" x1="226" x2="333" y1="515.2031" y2="515.2031"/></g><!--MD5=[16d95e38f003ccc6ecae27689936446e]
class MaximumWeight--><g id="elem_MaximumWeight"><rect fill="#F1F1F1" height="50.7031" id="MaximumWeight" rx="2.5" ry="2.5" style="stroke:#181818;stroke-width:0.5;" width="134" x="212.5" y="386.5"/><ellipse cx="227.5" cy="407.8516" fill="#ADD1B2" rx="11" ry="11" style="stroke:#181818;stroke-width:1.0;"/><path d="M229.5,404.3516 Q229.7031,403.8516 229.9375,403.6016 Q230.1719,403.3516 230.4375,403.3516 Q230.9063,403.3516 231.2031,403.6328 Q231.5,403.9141 231.5,404.5703 L231.5,406.1328 Q231.5,406.7891 231.2188,407.0703 Q230.9375,407.3516 230.5,407.3516 Q230.1094,407.3516 229.8594,407.1797 Q229.6094,407.0078 229.5,406.5547 Q229.4531,406.2422 229.2813,406.0703 Q228.9688,405.7422 228.4063,405.5547 Q227.8438,405.3516 227.2813,405.3516 Q226.5781,405.3516 225.9844,405.6328 Q225.4063,405.9141 224.9531,406.5391 Q224.5,407.1641 224.5,408.0234 L224.5,408.9453 Q224.5,409.9766 225.3438,410.6641 Q226.1875,411.3516 227.6875,411.3516 Q228.5781,411.3516 229.2031,411.1484 Q229.5625,411.0391 229.9688,410.6797 Q230.2344,410.4766 230.375,410.4141 Q230.5156,410.3516 230.6875,410.3516 Q231.0156,410.3516 231.25,410.6172 Q231.5,410.8672 231.5,411.2266 Q231.5,411.5703 231.1563,411.9766 Q230.6563,412.5703 229.8594,412.8984 Q228.8125,413.3516 227.5313,413.3516 Q226.0313,413.3516 224.8281,412.7578 Q223.8594,412.2891 223.1719,411.2734 Q222.5,410.2578 222.5,409.0547 L222.5,407.9609 Q222.5,406.7109 223.0938,405.6172 Q223.7031,404.5234 224.75,403.9453 Q225.8125,403.3516 227,403.3516 Q227.7188,403.3516 228.3438,403.6016 Q228.9688,403.8516 229.5,404.3516 Z " fill="#000000"/><text fill="#000000" font-family="sans-serif" font-size="12" font-style="italic" lengthAdjust="spacing" textLength="81" x="252" y="403.957">«value object»</text><text fill="#000000" font-family="sans-serif" font-size="14" lengthAdjust="spacing" textLength="102" x="241.5" y="421.127">MaximumWeight</text><line style="stroke:#181818;stroke-width:0.5;" x1="213.5" x2="345.5" y1="429.2031" y2="429.2031"/></g><!--MD5=[b285e37e75726846a0747551cbfd9ec4]
class MaximumVolume--><g id="elem_MaximumVolume"><rect fill="#F1F1F1" height="50.7031" id="MaximumVolume" rx="2.5" ry="2.5" style="stroke:#181818;stroke-width:0.5;" width="137" x="211" y="300.5"/><ellipse cx="226" cy="321.8516" fill="#ADD1B2" rx="11" ry="11" style="stroke:#181818;stroke-width:1.0;"/><path d="M228,318.3516 Q228.2031,317.8516 228.4375,317.6016 Q228.6719,317.3516 228.9375,317.3516 Q229.4063,317.3516 229.7031,317.6328 Q230,317.9141 230,318.5703 L230,320.1328 Q230,320.7891 229.7188,321.0703 Q229.4375,321.3516 229,321.3516 Q228.6094,321.3516 228.3594,321.1797 Q228.1094,321.0078 228,320.5547 Q227.9531,320.2422 227.7813,320.0703 Q227.4688,319.7422 226.9063,319.5547 Q226.3438,319.3516 225.7813,319.3516 Q225.0781,319.3516 224.4844,319.6328 Q223.9063,319.9141 223.4531,320.5391 Q223,321.1641 223,322.0234 L223,322.9453 Q223,323.9766 223.8438,324.6641 Q224.6875,325.3516 226.1875,325.3516 Q227.0781,325.3516 227.7031,325.1484 Q228.0625,325.0391 228.4688,324.6797 Q228.7344,324.4766 228.875,324.4141 Q229.0156,324.3516 229.1875,324.3516 Q229.5156,324.3516 229.75,324.6172 Q230,324.8672 230,325.2266 Q230,325.5703 229.6563,325.9766 Q229.1563,326.5703 228.3594,326.8984 Q227.3125,327.3516 226.0313,327.3516 Q224.5313,327.3516 223.3281,326.7578 Q222.3594,326.2891 221.6719,325.2734 Q221,324.2578 221,323.0547 L221,321.9609 Q221,320.7109 221.5938,319.6172 Q222.2031,318.5234 223.25,317.9453 Q224.3125,317.3516 225.5,317.3516 Q226.2188,317.3516 226.8438,317.6016 Q227.4688,317.8516 228,318.3516 Z " fill="#000000"/><text fill="#000000" font-family="sans-serif" font-size="12" font-style="italic" lengthAdjust="spacing" textLength="81" x="252" y="317.957">«value object»</text><text fill="#000000" font-family="sans-serif" font-size="14" lengthAdjust="spacing" textLength="105" x="240" y="335.127">MaximumVolume</text><line style="stroke:#181818;stroke-width:0.5;" x1="212" x2="347" y1="343.2031" y2="343.2031"/></g><!--MD5=[064b306410e464970cda6c2fc60b7bb8]
class BaseLocation--><g id="elem_BaseLocation"><rect fill="#F1F1F1" height="50.7031" id="BaseLocation" rx="2.5" ry="2.5" style="stroke:#181818;stroke-width:0.5;" width="118" x="220.5" y="214.5"/><ellipse cx="235.5" cy="235.8516" fill="#ADD1B2" rx="11" ry="11" style="stroke:#181818;stroke-width:1.0;"/><path d="M237.5,232.3516 Q237.7031,231.8516 237.9375,231.6016 Q238.1719,231.3516 238.4375,231.3516 Q238.9063,231.3516 239.2031,231.6328 Q239.5,231.9141 239.5,232.5703 L239.5,234.1328 Q239.5,234.7891 239.2188,235.0703 Q238.9375,235.3516 238.5,235.3516 Q238.1094,235.3516 237.8594,235.1797 Q237.6094,235.0078 237.5,234.5547 Q237.4531,234.2422 237.2813,234.0703 Q236.9688,233.7422 236.4063,233.5547 Q235.8438,233.3516 235.2813,233.3516 Q234.5781,233.3516 233.9844,233.6328 Q233.4063,233.9141 232.9531,234.5391 Q232.5,235.1641 232.5,236.0234 L232.5,236.9453 Q232.5,237.9766 233.3438,238.6641 Q234.1875,239.3516 235.6875,239.3516 Q236.5781,239.3516 237.2031,239.1484 Q237.5625,239.0391 237.9688,238.6797 Q238.2344,238.4766 238.375,238.4141 Q238.5156,238.3516 238.6875,238.3516 Q239.0156,238.3516 239.25,238.6172 Q239.5,238.8672 239.5,239.2266 Q239.5,239.5703 239.1563,239.9766 Q238.6563,240.5703 237.8594,240.8984 Q236.8125,241.3516 235.5313,241.3516 Q234.0313,241.3516 232.8281,240.7578 Q231.8594,240.2891 231.1719,239.2734 Q230.5,238.2578 230.5,237.0547 L230.5,235.9609 Q230.5,234.7109 231.0938,233.6172 Q231.7031,232.5234 232.75,231.9453 Q233.8125,231.3516 235,231.3516 Q235.7188,231.3516 236.3438,231.6016 Q236.9688,231.8516 237.5,232.3516 Z " fill="#000000"/><text fill="#000000" font-family="sans-serif" font-size="12" font-style="italic" lengthAdjust="spacing" textLength="81" x="252" y="231.957">«value object»</text><text fill="#000000" font-family="sans-serif" font-size="14" lengthAdjust="spacing" textLength="86" x="249.5" y="249.127">BaseLocation</text><line style="stroke:#181818;stroke-width:0.5;" x1="221.5" x2="337.5" y1="257.2031" y2="257.2031"/></g><!--MD5=[e3d83ec5fd90ea9f3f2bfe265cb53458]
class Status--><g id="elem_Status"><rect fill="#F1F1F1" height="50.7031" id="Status" rx="2.5" ry="2.5" style="stroke:#181818;stroke-width:0.5;" width="109" x="225" y="128.5"/><ellipse cx="240" cy="149.8516" fill="#ADD1B2" rx="11" ry="11" style="stroke:#181818;stroke-width:1.0;"/><path d="M242,146.3516 Q242.2031,145.8516 242.4375,145.6016 Q242.6719,145.3516 242.9375,145.3516 Q243.4063,145.3516 243.7031,145.6328 Q244,145.9141 244,146.5703 L244,148.1328 Q244,148.7891 243.7188,149.0703 Q243.4375,149.3516 243,149.3516 Q242.6094,149.3516 242.3594,149.1797 Q242.1094,149.0078 242,148.5547 Q241.9531,148.2422 241.7813,148.0703 Q241.4688,147.7422 240.9063,147.5547 Q240.3438,147.3516 239.7813,147.3516 Q239.0781,147.3516 238.4844,147.6328 Q237.9063,147.9141 237.4531,148.5391 Q237,149.1641 237,150.0234 L237,150.9453 Q237,151.9766 237.8438,152.6641 Q238.6875,153.3516 240.1875,153.3516 Q241.0781,153.3516 241.7031,153.1484 Q242.0625,153.0391 242.4688,152.6797 Q242.7344,152.4766 242.875,152.4141 Q243.0156,152.3516 243.1875,152.3516 Q243.5156,152.3516 243.75,152.6172 Q244,152.8672 244,153.2266 Q244,153.5703 243.6563,153.9766 Q243.1563,154.5703 242.3594,154.8984 Q241.3125,155.3516 240.0313,155.3516 Q238.5313,155.3516 237.3281,154.7578 Q236.3594,154.2891 235.6719,153.2734 Q235,152.2578 235,151.0547 L235,149.9609 Q235,148.7109 235.5938,147.6172 Q236.2031,146.5234 237.25,145.9453 Q238.3125,145.3516 239.5,145.3516 Q240.2188,145.3516 240.8438,145.6016 Q241.4688,145.8516 242,146.3516 Z " fill="#000000"/><text fill="#000000" font-family="sans-serif" font-size="12" font-style="italic" lengthAdjust="spacing" textLength="81" x="252" y="145.957">«value object»</text><text fill="#000000" font-family="sans-serif" font-size="14" lengthAdjust="spacing" textLength="40" x="272.5" y="163.127">Status</text><line style="stroke:#181818;stroke-width:0.5;" x1="226" x2="333" y1="171.2031" y2="171.2031"/></g><!--MD5=[38bcef8836b1321d22ded0540bc794c3]
class CurrentTask--><g id="elem_CurrentTask"><rect fill="#F1F1F1" height="50.7031" id="CurrentTask" rx="2.5" ry="2.5" style="stroke:#181818;stroke-width:0.5;" width="111" x="224" y="42.5"/><ellipse cx="239" cy="63.8516" fill="#ADD1B2" rx="11" ry="11" style="stroke:#181818;stroke-width:1.0;"/><path d="M241,60.3516 Q241.2031,59.8516 241.4375,59.6016 Q241.6719,59.3516 241.9375,59.3516 Q242.4063,59.3516 242.7031,59.6328 Q243,59.9141 243,60.5703 L243,62.1328 Q243,62.7891 242.7188,63.0703 Q242.4375,63.3516 242,63.3516 Q241.6094,63.3516 241.3594,63.1797 Q241.1094,63.0078 241,62.5547 Q240.9531,62.2422 240.7813,62.0703 Q240.4688,61.7422 239.9063,61.5547 Q239.3438,61.3516 238.7813,61.3516 Q238.0781,61.3516 237.4844,61.6328 Q236.9063,61.9141 236.4531,62.5391 Q236,63.1641 236,64.0234 L236,64.9453 Q236,65.9766 236.8438,66.6641 Q237.6875,67.3516 239.1875,67.3516 Q240.0781,67.3516 240.7031,67.1484 Q241.0625,67.0391 241.4688,66.6797 Q241.7344,66.4766 241.875,66.4141 Q242.0156,66.3516 242.1875,66.3516 Q242.5156,66.3516 242.75,66.6172 Q243,66.8672 243,67.2266 Q243,67.5703 242.6563,67.9766 Q242.1563,68.5703 241.3594,68.8984 Q240.3125,69.3516 239.0313,69.3516 Q237.5313,69.3516 236.3281,68.7578 Q235.3594,68.2891 234.6719,67.2734 Q234,66.2578 234,65.0547 L234,63.9609 Q234,62.7109 234.5938,61.6172 Q235.2031,60.5234 236.25,59.9453 Q237.3125,59.3516 238.5,59.3516 Q239.2188,59.3516 239.8438,59.6016 Q240.4688,59.8516 241,60.3516 Z " fill="#000000"/><text fill="#000000" font-family="sans-serif" font-size="12" font-style="italic" lengthAdjust="spacing" textLength="81" x="252" y="59.957">«value object»</text><text fill="#000000" font-family="sans-serif" font-size="14" lengthAdjust="spacing" textLength="79" x="253" y="77.127">CurrentTask</text><line style="stroke:#181818;stroke-width:0.5;" x1="225" x2="334" y1="85.2031" y2="85.2031"/></g><!--MD5=[cf4d6237fcae255cd2e1656cf84a30e2]
class Order--><g id="elem_Order"><rect codeLine="26" fill="#F1F1F1" height="68.3125" id="Order" rx="2.5" ry="2.5" style="stroke:#181818;stroke-width:0.5;" width="71" x="244" y="979"/><ellipse cx="259" cy="1000.3516" fill="#ADD1B2" rx="11" ry="11" style="stroke:#181818;stroke-width:1.0;"/><path d="M261,996.8516 Q261.2031,996.3516 261.4375,996.1016 Q261.6719,995.8516 261.9375,995.8516 Q262.4063,995.8516 262.7031,996.1328 Q263,996.4141 263,997.0703 L263,998.6328 Q263,999.2891 262.7188,999.5703 Q262.4375,999.8516 262,999.8516 Q261.6094,999.8516 261.3594,999.6797 Q261.1094,999.5078 261,999.0547 Q260.9531,998.7422 260.7813,998.5703 Q260.4688,998.2422 259.9063,998.0547 Q259.3438,997.8516 258.7813,997.8516 Q258.0781,997.8516 257.4844,998.1328 Q256.9063,998.4141 256.4531,999.0391 Q256,999.6641 256,1000.5234 L256,1001.4453 Q256,1002.4766 256.8438,1003.1641 Q257.6875,1003.8516 259.1875,1003.8516 Q260.0781,1003.8516 260.7031,1003.6484 Q261.0625,1003.5391 261.4688,1003.1797 Q261.7344,1002.9766 261.875,1002.9141 Q262.0156,1002.8516 262.1875,1002.8516 Q262.5156,1002.8516 262.75,1003.1172 Q263,1003.3672 263,1003.7266 Q263,1004.0703 262.6563,1004.4766 Q262.1563,1005.0703 261.3594,1005.3984 Q260.3125,1005.8516 259.0313,1005.8516 Q257.5313,1005.8516 256.3281,1005.2578 Q255.3594,1004.7891 254.6719,1003.7734 Q254,1002.7578 254,1001.5547 L254,1000.4609 Q254,999.2109 254.5938,998.1172 Q255.2031,997.0234 256.25,996.4453 Q257.3125,995.8516 258.5,995.8516 Q259.2188,995.8516 259.8438,996.1016 Q260.4688,996.3516 261,996.8516 Z " fill="#000000"/><text fill="#000000" font-family="sans-serif" font-size="12" font-style="italic" lengthAdjust="spacing" textLength="43" x="271" y="996.457">«entity»</text><text fill="#000000" font-family="sans-serif" font-size="14" lengthAdjust="spacing" textLength="37" x="274" y="1013.627">Order</text><line style="stroke:#181818;stroke-width:0.5;" x1="245" x2="314" y1="1021.7031" y2="1021.7031"/><text fill="#000000" font-family="sans-serif" font-size="14" lengthAdjust="spacing" textLength="16" x="250" y="1040.2363">-id</text></g><!--MD5=[c29df52dd5928320aafb26241afd4a45]
class Shipment_method_cost--><g id="elem_Shipment_method_cost"><rect fill="#F1F1F1" height="50.7031" id="Shipment_method_cost" rx="2.5" ry="2.5" style="stroke:#181818;stroke-width:0.5;" width="180" x="490" y="1288.5"/><ellipse cx="505" cy="1309.8516" fill="#ADD1B2" rx="11" ry="11" style="stroke:#181818;stroke-width:1.0;"/><path d="M507,1306.3516 Q507.2031,1305.8516 507.4375,1305.6016 Q507.6719,1305.3516 507.9375,1305.3516 Q508.4063,1305.3516 508.7031,1305.6328 Q509,1305.9141 509,1306.5703 L509,1308.1328 Q509,1308.7891 508.7188,1309.0703 Q508.4375,1309.3516 508,1309.3516 Q507.6094,1309.3516 507.3594,1309.1797 Q507.1094,1309.0078 507,1308.5547 Q506.9531,1308.2422 506.7813,1308.0703 Q506.4688,1307.7422 505.9063,1307.5547 Q505.3438,1307.3516 504.7813,1307.3516 Q504.0781,1307.3516 503.4844,1307.6328 Q502.9063,1307.9141 502.4531,1308.5391 Q502,1309.1641 502,1310.0234 L502,1310.9453 Q502,1311.9766 502.8438,1312.6641 Q503.6875,1313.3516 505.1875,1313.3516 Q506.0781,1313.3516 506.7031,1313.1484 Q507.0625,1313.0391 507.4688,1312.6797 Q507.7344,1312.4766 507.875,1312.4141 Q508.0156,1312.3516 508.1875,1312.3516 Q508.5156,1312.3516 508.75,1312.6172 Q509,1312.8672 509,1313.2266 Q509,1313.5703 508.6563,1313.9766 Q508.1563,1314.5703 507.3594,1314.8984 Q506.3125,1315.3516 505.0313,1315.3516 Q503.5313,1315.3516 502.3281,1314.7578 Q501.3594,1314.2891 500.6719,1313.2734 Q500,1312.2578 500,1311.0547 L500,1309.9609 Q500,1308.7109 500.5938,1307.6172 Q501.2031,1306.5234 502.25,1305.9453 Q503.3125,1305.3516 504.5,1305.3516 Q505.2188,1305.3516 505.8438,1305.6016 Q506.4688,1305.8516 507,1306.3516 Z " fill="#000000"/><text fill="#000000" font-family="sans-serif" font-size="12" font-style="italic" lengthAdjust="spacing" textLength="81" x="552.5" y="1305.957">«value object»</text><text fill="#000000" font-family="sans-serif" font-size="14" lengthAdjust="spacing" textLength="148" x="519" y="1323.127">Shipment_method_cost</text><line style="stroke:#181818;stroke-width:0.5;" x1="491" x2="669" y1="1331.2031" y2="1331.2031"/></g><!--MD5=[c5f54386e36bdc2f2bc148d4c3dc15a6]
class Customer_id--><g id="elem_Customer_id"><rect fill="#F1F1F1" height="50.7031" id="Customer_id" rx="2.5" ry="2.5" style="stroke:#181818;stroke-width:0.5;" width="112" x="524" y="1202.5"/><ellipse cx="539" cy="1223.8516" fill="#ADD1B2" rx="11" ry="11" style="stroke:#181818;stroke-width:1.0;"/><path d="M541,1220.3516 Q541.2031,1219.8516 541.4375,1219.6016 Q541.6719,1219.3516 541.9375,1219.3516 Q542.4063,1219.3516 542.7031,1219.6328 Q543,1219.9141 543,1220.5703 L543,1222.1328 Q543,1222.7891 542.7188,1223.0703 Q542.4375,1223.3516 542,1223.3516 Q541.6094,1223.3516 541.3594,1223.1797 Q541.1094,1223.0078 541,1222.5547 Q540.9531,1222.2422 540.7813,1222.0703 Q540.4688,1221.7422 539.9063,1221.5547 Q539.3438,1221.3516 538.7813,1221.3516 Q538.0781,1221.3516 537.4844,1221.6328 Q536.9063,1221.9141 536.4531,1222.5391 Q536,1223.1641 536,1224.0234 L536,1224.9453 Q536,1225.9766 536.8438,1226.6641 Q537.6875,1227.3516 539.1875,1227.3516 Q540.0781,1227.3516 540.7031,1227.1484 Q541.0625,1227.0391 541.4688,1226.6797 Q541.7344,1226.4766 541.875,1226.4141 Q542.0156,1226.3516 542.1875,1226.3516 Q542.5156,1226.3516 542.75,1226.6172 Q543,1226.8672 543,1227.2266 Q543,1227.5703 542.6563,1227.9766 Q542.1563,1228.5703 541.3594,1228.8984 Q540.3125,1229.3516 539.0313,1229.3516 Q537.5313,1229.3516 536.3281,1228.7578 Q535.3594,1228.2891 534.6719,1227.2734 Q534,1226.2578 534,1225.0547 L534,1223.9609 Q534,1222.7109 534.5938,1221.6172 Q535.2031,1220.5234 536.25,1219.9453 Q537.3125,1219.3516 538.5,1219.3516 Q539.2188,1219.3516 539.8438,1219.6016 Q540.4688,1219.8516 541,1220.3516 Z " fill="#000000"/><text fill="#000000" font-family="sans-serif" font-size="12" font-style="italic" lengthAdjust="spacing" textLength="81" x="552.5" y="1219.957">«value object»</text><text fill="#000000" font-family="sans-serif" font-size="14" lengthAdjust="spacing" textLength="80" x="553" y="1237.127">Customer_id</text><line style="stroke:#181818;stroke-width:0.5;" x1="525" x2="635" y1="1245.2031" y2="1245.2031"/></g><!--MD5=[610ce1c2e667a05315cabcffc1a01e9d]
class Total_amount_without_taxes--><g id="elem_Total_amount_without_taxes"><rect fill="#F1F1F1" height="50.7031" id="Total_amount_without_taxes" rx="2.5" ry="2.5" style="stroke:#181818;stroke-width:0.5;" width="212" x="474" y="1116.5"/><ellipse cx="489" cy="1137.8516" fill="#ADD1B2" rx="11" ry="11" style="stroke:#181818;stroke-width:1.0;"/><path d="M491,1134.3516 Q491.2031,1133.8516 491.4375,1133.6016 Q491.6719,1133.3516 491.9375,1133.3516 Q492.4063,1133.3516 492.7031,1133.6328 Q493,1133.9141 493,1134.5703 L493,1136.1328 Q493,1136.7891 492.7188,1137.0703 Q492.4375,1137.3516 492,1137.3516 Q491.6094,1137.3516 491.3594,1137.1797 Q491.1094,1137.0078 491,1136.5547 Q490.9531,1136.2422 490.7813,1136.0703 Q490.4688,1135.7422 489.9063,1135.5547 Q489.3438,1135.3516 488.7813,1135.3516 Q488.0781,1135.3516 487.4844,1135.6328 Q486.9063,1135.9141 486.4531,1136.5391 Q486,1137.1641 486,1138.0234 L486,1138.9453 Q486,1139.9766 486.8438,1140.6641 Q487.6875,1141.3516 489.1875,1141.3516 Q490.0781,1141.3516 490.7031,1141.1484 Q491.0625,1141.0391 491.4688,1140.6797 Q491.7344,1140.4766 491.875,1140.4141 Q492.0156,1140.3516 492.1875,1140.3516 Q492.5156,1140.3516 492.75,1140.6172 Q493,1140.8672 493,1141.2266 Q493,1141.5703 492.6563,1141.9766 Q492.1563,1142.5703 491.3594,1142.8984 Q490.3125,1143.3516 489.0313,1143.3516 Q487.5313,1143.3516 486.3281,1142.7578 Q485.3594,1142.2891 484.6719,1141.2734 Q484,1140.2578 484,1139.0547 L484,1137.9609 Q484,1136.7109 484.5938,1135.6172 Q485.2031,1134.5234 486.25,1133.9453 Q487.3125,1133.3516 488.5,1133.3516 Q489.2188,1133.3516 489.8438,1133.6016 Q490.4688,1133.8516 491,1134.3516 Z " fill="#000000"/><text fill="#000000" font-family="sans-serif" font-size="12" font-style="italic" lengthAdjust="spacing" textLength="81" x="552.5" y="1133.957">«value object»</text><text fill="#000000" font-family="sans-serif" font-size="14" lengthAdjust="spacing" textLength="180" x="503" y="1151.127">Total_amount_without_taxes</text><line style="stroke:#181818;stroke-width:0.5;" x1="475" x2="685" y1="1159.2031" y2="1159.2031"/></g><!--MD5=[98a6dcb6f1d487f88141394690833bd0]
class Total_amount_with_taxes--><g id="elem_Total_amount_with_taxes"><rect fill="#F1F1F1" height="50.7031" id="Total_amount_with_taxes" rx="2.5" ry="2.5" style="stroke:#181818;stroke-width:0.5;" width="192" x="484" y="1030.5"/><ellipse cx="499" cy="1051.8516" fill="#ADD1B2" rx="11" ry="11" style="stroke:#181818;stroke-width:1.0;"/><path d="M501,1048.3516 Q501.2031,1047.8516 501.4375,1047.6016 Q501.6719,1047.3516 501.9375,1047.3516 Q502.4063,1047.3516 502.7031,1047.6328 Q503,1047.9141 503,1048.5703 L503,1050.1328 Q503,1050.7891 502.7188,1051.0703 Q502.4375,1051.3516 502,1051.3516 Q501.6094,1051.3516 501.3594,1051.1797 Q501.1094,1051.0078 501,1050.5547 Q500.9531,1050.2422 500.7813,1050.0703 Q500.4688,1049.7422 499.9063,1049.5547 Q499.3438,1049.3516 498.7813,1049.3516 Q498.0781,1049.3516 497.4844,1049.6328 Q496.9063,1049.9141 496.4531,1050.5391 Q496,1051.1641 496,1052.0234 L496,1052.9453 Q496,1053.9766 496.8438,1054.6641 Q497.6875,1055.3516 499.1875,1055.3516 Q500.0781,1055.3516 500.7031,1055.1484 Q501.0625,1055.0391 501.4688,1054.6797 Q501.7344,1054.4766 501.875,1054.4141 Q502.0156,1054.3516 502.1875,1054.3516 Q502.5156,1054.3516 502.75,1054.6172 Q503,1054.8672 503,1055.2266 Q503,1055.5703 502.6563,1055.9766 Q502.1563,1056.5703 501.3594,1056.8984 Q500.3125,1057.3516 499.0313,1057.3516 Q497.5313,1057.3516 496.3281,1056.7578 Q495.3594,1056.2891 494.6719,1055.2734 Q494,1054.2578 494,1053.0547 L494,1051.9609 Q494,1050.7109 494.5938,1049.6172 Q495.2031,1048.5234 496.25,1047.9453 Q497.3125,1047.3516 498.5,1047.3516 Q499.2188,1047.3516 499.8438,1047.6016 Q500.4688,1047.8516 501,1048.3516 Z " fill="#000000"/><text fill="#000000" font-family="sans-serif" font-size="12" font-style="italic" lengthAdjust="spacing" textLength="81" x="552.5" y="1047.957">«value object»</text><text fill="#000000" font-family="sans-serif" font-size="14" lengthAdjust="spacing" textLength="160" x="513" y="1065.127">Total_amount_with_taxes</text><line style="stroke:#181818;stroke-width:0.5;" x1="485" x2="675" y1="1073.2031" y2="1073.2031"/></g><!--MD5=[cda9517f86d5563a6c586dec9582437c]
class Payment_confirmation--><g id="elem_Payment_confirmation"><rect fill="#F1F1F1" height="50.7031" id="Payment_confirmation" rx="2.5" ry="2.5" style="stroke:#181818;stroke-width:0.5;" width="172" x="494" y="944.5"/><ellipse cx="509" cy="965.8516" fill="#ADD1B2" rx="11" ry="11" style="stroke:#181818;stroke-width:1.0;"/><path d="M511,962.3516 Q511.2031,961.8516 511.4375,961.6016 Q511.6719,961.3516 511.9375,961.3516 Q512.4063,961.3516 512.7031,961.6328 Q513,961.9141 513,962.5703 L513,964.1328 Q513,964.7891 512.7188,965.0703 Q512.4375,965.3516 512,965.3516 Q511.6094,965.3516 511.3594,965.1797 Q511.1094,965.0078 511,964.5547 Q510.9531,964.2422 510.7813,964.0703 Q510.4688,963.7422 509.9063,963.5547 Q509.3438,963.3516 508.7813,963.3516 Q508.0781,963.3516 507.4844,963.6328 Q506.9063,963.9141 506.4531,964.5391 Q506,965.1641 506,966.0234 L506,966.9453 Q506,967.9766 506.8438,968.6641 Q507.6875,969.3516 509.1875,969.3516 Q510.0781,969.3516 510.7031,969.1484 Q511.0625,969.0391 511.4688,968.6797 Q511.7344,968.4766 511.875,968.4141 Q512.0156,968.3516 512.1875,968.3516 Q512.5156,968.3516 512.75,968.6172 Q513,968.8672 513,969.2266 Q513,969.5703 512.6563,969.9766 Q512.1563,970.5703 511.3594,970.8984 Q510.3125,971.3516 509.0313,971.3516 Q507.5313,971.3516 506.3281,970.7578 Q505.3594,970.2891 504.6719,969.2734 Q504,968.2578 504,967.0547 L504,965.9609 Q504,964.7109 504.5938,963.6172 Q505.2031,962.5234 506.25,961.9453 Q507.3125,961.3516 508.5,961.3516 Q509.2188,961.3516 509.8438,961.6016 Q510.4688,961.8516 511,962.3516 Z " fill="#000000"/><text fill="#000000" font-family="sans-serif" font-size="12" font-style="italic" lengthAdjust="spacing" textLength="81" x="552.5" y="961.957">«value object»</text><text fill="#000000" font-family="sans-serif" font-size="14" lengthAdjust="spacing" textLength="140" x="523" y="979.127">Payment_confirmation</text><line style="stroke:#181818;stroke-width:0.5;" x1="495" x2="665" y1="987.2031" y2="987.2031"/></g><!--MD5=[55bfef92506fde6eef81af0ffbdd0e10]
class Payment_method--><g id="elem_Payment_method"><rect fill="#F1F1F1" height="50.7031" id="Payment_method" rx="2.5" ry="2.5" style="stroke:#181818;stroke-width:0.5;" width="142" x="509" y="858.5"/><ellipse cx="524" cy="879.8516" fill="#ADD1B2" rx="11" ry="11" style="stroke:#181818;stroke-width:1.0;"/><path d="M526,876.3516 Q526.2031,875.8516 526.4375,875.6016 Q526.6719,875.3516 526.9375,875.3516 Q527.4063,875.3516 527.7031,875.6328 Q528,875.9141 528,876.5703 L528,878.1328 Q528,878.7891 527.7188,879.0703 Q527.4375,879.3516 527,879.3516 Q526.6094,879.3516 526.3594,879.1797 Q526.1094,879.0078 526,878.5547 Q525.9531,878.2422 525.7813,878.0703 Q525.4688,877.7422 524.9063,877.5547 Q524.3438,877.3516 523.7813,877.3516 Q523.0781,877.3516 522.4844,877.6328 Q521.9063,877.9141 521.4531,878.5391 Q521,879.1641 521,880.0234 L521,880.9453 Q521,881.9766 521.8438,882.6641 Q522.6875,883.3516 524.1875,883.3516 Q525.0781,883.3516 525.7031,883.1484 Q526.0625,883.0391 526.4688,882.6797 Q526.7344,882.4766 526.875,882.4141 Q527.0156,882.3516 527.1875,882.3516 Q527.5156,882.3516 527.75,882.6172 Q528,882.8672 528,883.2266 Q528,883.5703 527.6563,883.9766 Q527.1563,884.5703 526.3594,884.8984 Q525.3125,885.3516 524.0313,885.3516 Q522.5313,885.3516 521.3281,884.7578 Q520.3594,884.2891 519.6719,883.2734 Q519,882.2578 519,881.0547 L519,879.9609 Q519,878.7109 519.5938,877.6172 Q520.2031,876.5234 521.25,875.9453 Q522.3125,875.3516 523.5,875.3516 Q524.2188,875.3516 524.8438,875.6016 Q525.4688,875.8516 526,876.3516 Z " fill="#000000"/><text fill="#000000" font-family="sans-serif" font-size="12" font-style="italic" lengthAdjust="spacing" textLength="81" x="552.5" y="875.957">«value object»</text><text fill="#000000" font-family="sans-serif" font-size="14" lengthAdjust="spacing" textLength="110" x="538" y="893.127">Payment_method</text><line style="stroke:#181818;stroke-width:0.5;" x1="510" x2="650" y1="901.2031" y2="901.2031"/></g><!--MD5=[0f39e4cb6f03951afbf6d14bd2505654]
class Address--><g id="elem_Address"><rect fill="#F1F1F1" height="50.7031" id="Address" rx="2.5" ry="2.5" style="stroke:#181818;stroke-width:0.5;" width="109" x="525.5" y="772.5"/><ellipse cx="540.5" cy="793.8516" fill="#ADD1B2" rx="11" ry="11" style="stroke:#181818;stroke-width:1.0;"/><path d="M542.5,790.3516 Q542.7031,789.8516 542.9375,789.6016 Q543.1719,789.3516 543.4375,789.3516 Q543.9063,789.3516 544.2031,789.6328 Q544.5,789.9141 544.5,790.5703 L544.5,792.1328 Q544.5,792.7891 544.2188,793.0703 Q543.9375,793.3516 543.5,793.3516 Q543.1094,793.3516 542.8594,793.1797 Q542.6094,793.0078 542.5,792.5547 Q542.4531,792.2422 542.2813,792.0703 Q541.9688,791.7422 541.4063,791.5547 Q540.8438,791.3516 540.2813,791.3516 Q539.5781,791.3516 538.9844,791.6328 Q538.4063,791.9141 537.9531,792.5391 Q537.5,793.1641 537.5,794.0234 L537.5,794.9453 Q537.5,795.9766 538.3438,796.6641 Q539.1875,797.3516 540.6875,797.3516 Q541.5781,797.3516 542.2031,797.1484 Q542.5625,797.0391 542.9688,796.6797 Q543.2344,796.4766 543.375,796.4141 Q543.5156,796.3516 543.6875,796.3516 Q544.0156,796.3516 544.25,796.6172 Q544.5,796.8672 544.5,797.2266 Q544.5,797.5703 544.1563,797.9766 Q543.6563,798.5703 542.8594,798.8984 Q541.8125,799.3516 540.5313,799.3516 Q539.0313,799.3516 537.8281,798.7578 Q536.8594,798.2891 536.1719,797.2734 Q535.5,796.2578 535.5,795.0547 L535.5,793.9609 Q535.5,792.7109 536.0938,791.6172 Q536.7031,790.5234 537.75,789.9453 Q538.8125,789.3516 540,789.3516 Q540.7188,789.3516 541.3438,789.6016 Q541.9688,789.8516 542.5,790.3516 Z " fill="#000000"/><text fill="#000000" font-family="sans-serif" font-size="12" font-style="italic" lengthAdjust="spacing" textLength="81" x="552.5" y="789.957">«value object»</text><text fill="#000000" font-family="sans-serif" font-size="14" lengthAdjust="spacing" textLength="52" x="567" y="807.127">Address</text><line style="stroke:#181818;stroke-width:0.5;" x1="526.5" x2="633.5" y1="815.2031" y2="815.2031"/></g><!--MD5=[60d6b92408f98aed8df94d5c6e04aa63]
class State--><g id="elem_State"><rect fill="#F1F1F1" height="50.7031" id="State" rx="2.5" ry="2.5" style="stroke:#181818;stroke-width:0.5;" width="74" x="543" y="686.5"/><ellipse cx="558" cy="707.8516" fill="#ADD1B2" rx="11" ry="11" style="stroke:#181818;stroke-width:1.0;"/><path d="M560,704.3516 Q560.2031,703.8516 560.4375,703.6016 Q560.6719,703.3516 560.9375,703.3516 Q561.4063,703.3516 561.7031,703.6328 Q562,703.9141 562,704.5703 L562,706.1328 Q562,706.7891 561.7188,707.0703 Q561.4375,707.3516 561,707.3516 Q560.6094,707.3516 560.3594,707.1797 Q560.1094,707.0078 560,706.5547 Q559.9531,706.2422 559.7813,706.0703 Q559.4688,705.7422 558.9063,705.5547 Q558.3438,705.3516 557.7813,705.3516 Q557.0781,705.3516 556.4844,705.6328 Q555.9063,705.9141 555.4531,706.5391 Q555,707.1641 555,708.0234 L555,708.9453 Q555,709.9766 555.8438,710.6641 Q556.6875,711.3516 558.1875,711.3516 Q559.0781,711.3516 559.7031,711.1484 Q560.0625,711.0391 560.4688,710.6797 Q560.7344,710.4766 560.875,710.4141 Q561.0156,710.3516 561.1875,710.3516 Q561.5156,710.3516 561.75,710.6172 Q562,710.8672 562,711.2266 Q562,711.5703 561.6563,711.9766 Q561.1563,712.5703 560.3594,712.8984 Q559.3125,713.3516 558.0313,713.3516 Q556.5313,713.3516 555.3281,712.7578 Q554.3594,712.2891 553.6719,711.2734 Q553,710.2578 553,709.0547 L553,707.9609 Q553,706.7109 553.5938,705.6172 Q554.2031,704.5234 555.25,703.9453 Q556.3125,703.3516 557.5,703.3516 Q558.2188,703.3516 558.8438,703.6016 Q559.4688,703.8516 560,704.3516 Z " fill="#000000"/><text fill="#000000" font-family="sans-serif" font-size="12" font-style="italic" lengthAdjust="spacing" textLength="46" x="570" y="703.957">«enum»</text><text fill="#000000" font-family="sans-serif" font-size="14" lengthAdjust="spacing" textLength="33" x="576.5" y="721.127">State</text><line style="stroke:#181818;stroke-width:0.5;" x1="544" x2="616" y1="729.2031" y2="729.2031"/></g><!--MD5=[72136138052d025cffdce3c22fbd185f]
class Product--><g id="elem_Product"><rect fill="#F1F1F1" height="50.7031" id="Product" rx="2.5" ry="2.5" style="stroke:#181818;stroke-width:0.5;" width="81" x="539.5" y="1416.5"/><ellipse cx="554.5" cy="1437.8516" fill="#ADD1B2" rx="11" ry="11" style="stroke:#181818;stroke-width:1.0;"/><path d="M556.5,1434.3516 Q556.7031,1433.8516 556.9375,1433.6016 Q557.1719,1433.3516 557.4375,1433.3516 Q557.9063,1433.3516 558.2031,1433.6328 Q558.5,1433.9141 558.5,1434.5703 L558.5,1436.1328 Q558.5,1436.7891 558.2188,1437.0703 Q557.9375,1437.3516 557.5,1437.3516 Q557.1094,1437.3516 556.8594,1437.1797 Q556.6094,1437.0078 556.5,1436.5547 Q556.4531,1436.2422 556.2813,1436.0703 Q555.9688,1435.7422 555.4063,1435.5547 Q554.8438,1435.3516 554.2813,1435.3516 Q553.5781,1435.3516 552.9844,1435.6328 Q552.4063,1435.9141 551.9531,1436.5391 Q551.5,1437.1641 551.5,1438.0234 L551.5,1438.9453 Q551.5,1439.9766 552.3438,1440.6641 Q553.1875,1441.3516 554.6875,1441.3516 Q555.5781,1441.3516 556.2031,1441.1484 Q556.5625,1441.0391 556.9688,1440.6797 Q557.2344,1440.4766 557.375,1440.4141 Q557.5156,1440.3516 557.6875,1440.3516 Q558.0156,1440.3516 558.25,1440.6172 Q558.5,1440.8672 558.5,1441.2266 Q558.5,1441.5703 558.1563,1441.9766 Q557.6563,1442.5703 556.8594,1442.8984 Q555.8125,1443.3516 554.5313,1443.3516 Q553.0313,1443.3516 551.8281,1442.7578 Q550.8594,1442.2891 550.1719,1441.2734 Q549.5,1440.2578 549.5,1439.0547 L549.5,1437.9609 Q549.5,1436.7109 550.0938,1435.6172 Q550.7031,1434.5234 551.75,1433.9453 Q552.8125,1433.3516 554,1433.3516 Q554.7188,1433.3516 555.3438,1433.6016 Q555.9688,1433.8516 556.5,1434.3516 Z " fill="#000000"/><text fill="#000000" font-family="sans-serif" font-size="12" font-style="italic" lengthAdjust="spacing" textLength="43" x="571.5" y="1433.957">«entity»</text><text fill="#000000" font-family="sans-serif" font-size="14" lengthAdjust="spacing" textLength="49" x="568.5" y="1451.127">Product</text><line style="stroke:#181818;stroke-width:0.5;" x1="540.5" x2="619.5" y1="1459.2031" y2="1459.2031"/></g><!--MD5=[acd258f9b7259c0e89b8c44a94864dc6]
class PriceWithTaxes--><g id="elem_PriceWithTaxes"><rect fill="#F1F1F1" height="40" id="PriceWithTaxes" rx="2.5" ry="2.5" style="stroke:#181818;stroke-width:0.5;" width="130" x="759" y="1385"/><ellipse cx="774" cy="1401" fill="#ADD1B2" rx="11" ry="11" style="stroke:#181818;stroke-width:1.0;"/><path d="M776,1397.5 Q776.2031,1397 776.4375,1396.75 Q776.6719,1396.5 776.9375,1396.5 Q777.4063,1396.5 777.7031,1396.7813 Q778,1397.0625 778,1397.7188 L778,1399.2813 Q778,1399.9375 777.7188,1400.2188 Q777.4375,1400.5 777,1400.5 Q776.6094,1400.5 776.3594,1400.3281 Q776.1094,1400.1563 776,1399.7031 Q775.9531,1399.3906 775.7813,1399.2188 Q775.4688,1398.8906 774.9063,1398.7031 Q774.3438,1398.5 773.7813,1398.5 Q773.0781,1398.5 772.4844,1398.7813 Q771.9063,1399.0625 771.4531,1399.6875 Q771,1400.3125 771,1401.1719 L771,1402.0938 Q771,1403.125 771.8438,1403.8125 Q772.6875,1404.5 774.1875,1404.5 Q775.0781,1404.5 775.7031,1404.2969 Q776.0625,1404.1875 776.4688,1403.8281 Q776.7344,1403.625 776.875,1403.5625 Q777.0156,1403.5 777.1875,1403.5 Q777.5156,1403.5 777.75,1403.7656 Q778,1404.0156 778,1404.375 Q778,1404.7188 777.6563,1405.125 Q777.1563,1405.7188 776.3594,1406.0469 Q775.3125,1406.5 774.0313,1406.5 Q772.5313,1406.5 771.3281,1405.9063 Q770.3594,1405.4375 769.6719,1404.4219 Q769,1403.4063 769,1402.2031 L769,1401.1094 Q769,1399.8594 769.5938,1398.7656 Q770.2031,1397.6719 771.25,1397.0938 Q772.3125,1396.5 773.5,1396.5 Q774.2188,1396.5 774.8438,1396.75 Q775.4688,1397 776,1397.5 Z " fill="#000000"/><text fill="#000000" font-family="sans-serif" font-size="14" lengthAdjust="spacing" textLength="98" x="788" y="1406.7285">PriceWithTaxes</text><line style="stroke:#181818;stroke-width:0.5;" x1="760" x2="888" y1="1417" y2="1417"/></g><!--MD5=[45e1d1f825d430c6834a15dff33d6c83]
class PriceWithoutTaxes--><g id="elem_PriceWithoutTaxes"><rect fill="#F1F1F1" height="40" id="PriceWithoutTaxes" rx="2.5" ry="2.5" style="stroke:#181818;stroke-width:0.5;" width="150" x="749" y="1460"/><ellipse cx="764" cy="1476" fill="#ADD1B2" rx="11" ry="11" style="stroke:#181818;stroke-width:1.0;"/><path d="M766,1472.5 Q766.2031,1472 766.4375,1471.75 Q766.6719,1471.5 766.9375,1471.5 Q767.4063,1471.5 767.7031,1471.7813 Q768,1472.0625 768,1472.7188 L768,1474.2813 Q768,1474.9375 767.7188,1475.2188 Q767.4375,1475.5 767,1475.5 Q766.6094,1475.5 766.3594,1475.3281 Q766.1094,1475.1563 766,1474.7031 Q765.9531,1474.3906 765.7813,1474.2188 Q765.4688,1473.8906 764.9063,1473.7031 Q764.3438,1473.5 763.7813,1473.5 Q763.0781,1473.5 762.4844,1473.7813 Q761.9063,1474.0625 761.4531,1474.6875 Q761,1475.3125 761,1476.1719 L761,1477.0938 Q761,1478.125 761.8438,1478.8125 Q762.6875,1479.5 764.1875,1479.5 Q765.0781,1479.5 765.7031,1479.2969 Q766.0625,1479.1875 766.4688,1478.8281 Q766.7344,1478.625 766.875,1478.5625 Q767.0156,1478.5 767.1875,1478.5 Q767.5156,1478.5 767.75,1478.7656 Q768,1479.0156 768,1479.375 Q768,1479.7188 767.6563,1480.125 Q767.1563,1480.7188 766.3594,1481.0469 Q765.3125,1481.5 764.0313,1481.5 Q762.5313,1481.5 761.3281,1480.9063 Q760.3594,1480.4375 759.6719,1479.4219 Q759,1478.4063 759,1477.2031 L759,1476.1094 Q759,1474.8594 759.5938,1473.7656 Q760.2031,1472.6719 761.25,1472.0938 Q762.3125,1471.5 763.5,1471.5 Q764.2188,1471.5 764.8438,1471.75 Q765.4688,1472 766,1472.5 Z " fill="#000000"/><text fill="#000000" font-family="sans-serif" font-size="14" lengthAdjust="spacing" textLength="118" x="778" y="1481.7285">PriceWithoutTaxes</text><line style="stroke:#181818;stroke-width:0.5;" x1="750" x2="898" y1="1492" y2="1492"/></g><!--MD5=[3f19434da2385379263a12462a6d5f96]
class Postal--><g id="elem_Postal"><rect fill="#F1F1F1" height="40" id="Postal" rx="2.5" ry="2.5" style="stroke:#181818;stroke-width:0.5;" width="71" x="788.5" y="741"/><ellipse cx="803.5" cy="757" fill="#ADD1B2" rx="11" ry="11" style="stroke:#181818;stroke-width:1.0;"/><path d="M805.5,753.5 Q805.7031,753 805.9375,752.75 Q806.1719,752.5 806.4375,752.5 Q806.9063,752.5 807.2031,752.7813 Q807.5,753.0625 807.5,753.7188 L807.5,755.2813 Q807.5,755.9375 807.2188,756.2188 Q806.9375,756.5 806.5,756.5 Q806.1094,756.5 805.8594,756.3281 Q805.6094,756.1563 805.5,755.7031 Q805.4531,755.3906 805.2813,755.2188 Q804.9688,754.8906 804.4063,754.7031 Q803.8438,754.5 803.2813,754.5 Q802.5781,754.5 801.9844,754.7813 Q801.4063,755.0625 800.9531,755.6875 Q800.5,756.3125 800.5,757.1719 L800.5,758.0938 Q800.5,759.125 801.3438,759.8125 Q802.1875,760.5 803.6875,760.5 Q804.5781,760.5 805.2031,760.2969 Q805.5625,760.1875 805.9688,759.8281 Q806.2344,759.625 806.375,759.5625 Q806.5156,759.5 806.6875,759.5 Q807.0156,759.5 807.25,759.7656 Q807.5,760.0156 807.5,760.375 Q807.5,760.7188 807.1563,761.125 Q806.6563,761.7188 805.8594,762.0469 Q804.8125,762.5 803.5313,762.5 Q802.0313,762.5 800.8281,761.9063 Q799.8594,761.4375 799.1719,760.4219 Q798.5,759.4063 798.5,758.2031 L798.5,757.1094 Q798.5,755.8594 799.0938,754.7656 Q799.7031,753.6719 800.75,753.0938 Q801.8125,752.5 803,752.5 Q803.7188,752.5 804.3438,752.75 Q804.9688,753 805.5,753.5 Z " fill="#000000"/><text fill="#000000" font-family="sans-serif" font-size="14" lengthAdjust="spacing" textLength="39" x="817.5" y="762.7285">Postal</text><line style="stroke:#181818;stroke-width:0.5;" x1="789.5" x2="858.5" y1="773" y2="773"/></g><!--MD5=[f894d23981485fb2823f2cca49f3bfef]
class Billing--><g id="elem_Billing"><rect fill="#F1F1F1" height="40" id="Billing" rx="2.5" ry="2.5" style="stroke:#181818;stroke-width:0.5;" width="69" x="789.5" y="816"/><ellipse cx="804.5" cy="832" fill="#ADD1B2" rx="11" ry="11" style="stroke:#181818;stroke-width:1.0;"/><path d="M806.5,828.5 Q806.7031,828 806.9375,827.75 Q807.1719,827.5 807.4375,827.5 Q807.9063,827.5 808.2031,827.7813 Q808.5,828.0625 808.5,828.7188 L808.5,830.2813 Q808.5,830.9375 808.2188,831.2188 Q807.9375,831.5 807.5,831.5 Q807.1094,831.5 806.8594,831.3281 Q806.6094,831.1563 806.5,830.7031 Q806.4531,830.3906 806.2813,830.2188 Q805.9688,829.8906 805.4063,829.7031 Q804.8438,829.5 804.2813,829.5 Q803.5781,829.5 802.9844,829.7813 Q802.4063,830.0625 801.9531,830.6875 Q801.5,831.3125 801.5,832.1719 L801.5,833.0938 Q801.5,834.125 802.3438,834.8125 Q803.1875,835.5 804.6875,835.5 Q805.5781,835.5 806.2031,835.2969 Q806.5625,835.1875 806.9688,834.8281 Q807.2344,834.625 807.375,834.5625 Q807.5156,834.5 807.6875,834.5 Q808.0156,834.5 808.25,834.7656 Q808.5,835.0156 808.5,835.375 Q808.5,835.7188 808.1563,836.125 Q807.6563,836.7188 806.8594,837.0469 Q805.8125,837.5 804.5313,837.5 Q803.0313,837.5 801.8281,836.9063 Q800.8594,836.4375 800.1719,835.4219 Q799.5,834.4063 799.5,833.2031 L799.5,832.1094 Q799.5,830.8594 800.0938,829.7656 Q800.7031,828.6719 801.75,828.0938 Q802.8125,827.5 804,827.5 Q804.7188,827.5 805.3438,827.75 Q805.9688,828 806.5,828.5 Z " fill="#000000"/><text fill="#000000" font-family="sans-serif" font-size="14" lengthAdjust="spacing" textLength="37" x="818.5" y="837.7285">Billing</text><line style="stroke:#181818;stroke-width:0.5;" x1="790.5" x2="857.5" y1="848" y2="848"/></g><!--MD5=[5df16df72a49edaa4f00919f1e597f76]
link Order to Product--><g id="link_Order_Product"><path codeLine="46" d="M287.34,1047.05 C299.25,1100.23 327.7,1204.54 380,1278 C423.36,1338.91 494.83,1390.14 539.29,1418.4 " fill="none" id="Order-Product" style="stroke:#181818;stroke-width:1.0;"/><polygon fill="#000000" points="387.8072,1273.3134,385.1609,1264.1784,380.2969,1267.4785,387.8072,1273.3134" style="stroke:#000000;stroke-width:1.0;"/><text fill="#000000" font-family="sans-serif" font-size="13" lengthAdjust="spacing" textLength="49" x="394" y="1274.4951">contains</text><text fill="#000000" font-family="sans-serif" font-size="13" lengthAdjust="spacing" textLength="7" x="281.1944" y="1068.8276">1</text><text fill="#000000" font-family="sans-serif" font-size="13" lengthAdjust="spacing" textLength="5" x="526.5932" y="1429.1741">*</text></g><!--MD5=[a11f8a7c0857caaceb9973075ab12293]
link Order to Shipment_method_cost--><g id="link_Order_Shipment_method_cost"><path codeLine="47" d="M295.81,1047.32 C313.19,1084.2 343.86,1143.51 380,1188 C415.14,1231.26 426.66,1241.58 474,1271 C484.37,1277.45 495.88,1283.29 507.36,1288.45 " fill="none" id="Order-Shipment_method_cost" style="stroke:#181818;stroke-width:1.0;"/><polygon fill="#000000" points="402.2975,1182.9343,398.5415,1174.1968,394.1231,1178.0733,402.2975,1182.9343" style="stroke:#000000;stroke-width:1.0;"/><text fill="#000000" font-family="sans-serif" font-size="13" lengthAdjust="spacing" textLength="21" x="408" y="1184.4951">has</text><text fill="#000000" font-family="sans-serif" font-size="13" lengthAdjust="spacing" textLength="7" x="291.2519" y="1068.8861">1</text><text fill="#000000" font-family="sans-serif" font-size="13" lengthAdjust="spacing" textLength="7" x="481.8009" y="1277.8463">1</text></g><!--MD5=[7783cf4f284f6574ffa41cda79f17a0d]
link Product to PriceWithTaxes--><g id="link_Product_PriceWithTaxes"><path codeLine="48" d="M620.69,1435.93 C656.64,1430.44 710.41,1422.21 753.49,1415.63 " fill="none" id="Product-to-PriceWithTaxes" style="stroke:#181818;stroke-width:1.0;"/><polygon fill="#181818" points="758.68,1414.83,749.1781,1412.2388,753.7376,1415.5871,750.3894,1420.1466,758.68,1414.83" style="stroke:#181818;stroke-width:1.0;"/><text fill="#000000" font-family="sans-serif" font-size="13" lengthAdjust="spacing" textLength="7" x="744.1528" y="1430.2945">1</text></g><!--MD5=[21fd7c5c88fbb101f84c32fee8a4a5de]
link Product to PriceWithoutTaxes--><g id="link_Product_PriceWithoutTaxes"><path codeLine="49" d="M620.69,1448.23 C653.93,1453.45 702.42,1461.07 743.59,1467.53 " fill="none" id="Product-to-PriceWithoutTaxes" style="stroke:#181818;stroke-width:1.0;"/><polygon fill="#181818" points="748.57,1468.31,740.3096,1462.9467,743.632,1467.5251,739.0536,1470.8475,748.57,1468.31" style="stroke:#181818;stroke-width:1.0;"/><text fill="#000000" font-family="sans-serif" font-size="13" lengthAdjust="spacing" textLength="7" x="734.047" y="1481.4702">1</text></g><!--MD5=[dd2bca8e69277b6dcf04d6bf8fed5dca]
link Order to Address--><g id="link_Order_Address"><path codeLine="50" d="M311.96,978.81 C348.13,941.08 410.69,880.49 474,841 C488.39,832.03 504.98,824.22 520.65,817.82 " fill="none" id="Order-to-Address" style="stroke:#181818;stroke-width:1.0;"/><polygon fill="#181818" points="525.49,815.88,515.6481,815.5086,520.8476,817.737,518.6193,822.9364,525.49,815.88" style="stroke:#181818;stroke-width:1.0;"/><text fill="#000000" font-family="sans-serif" font-size="13" lengthAdjust="spacing" textLength="7" x="510.3323" y="833.0601">1</text></g><!--MD5=[e2bea74004a34a3ba8f8169b970ae3a8]
reverse link Address to Postal--><g id="link_Address_Postal"><path codeLine="51" d="M654.65,786.74 C699.14,779.94 753.77,771.58 788.49,766.28 " fill="none" id="Address-backto-Postal" style="stroke:#181818;stroke-width:1.0;"/><polygon fill="none" points="655.54,793.69,634.71,789.79,653.42,779.85,655.54,793.69" style="stroke:#181818;stroke-width:1.0;"/></g><!--MD5=[f35a48c44f5e52f9fae94252204d49ad]
reverse link Address to Billing--><g id="link_Address_Billing"><path codeLine="52" d="M654.47,809.54 C699.29,816.58 754.47,825.24 789.2,830.69 " fill="none" id="Address-backto-Billing" style="stroke:#181818;stroke-width:1.0;"/><polygon fill="none" points="653.38,816.45,634.71,806.43,655.55,802.62,653.38,816.45" style="stroke:#181818;stroke-width:1.0;"/></g><!--MD5=[a020cbbbd9d7b08a8e26d5493b8d6bed]
link Order to Customer_id--><g id="link_Order_Customer_id"><path codeLine="53" d="M311.96,1047.19 C348.13,1084.92 410.69,1145.51 474,1185 C487.94,1193.69 503.93,1201.28 519.17,1207.57 " fill="none" id="Order-to-Customer_id" style="stroke:#181818;stroke-width:1.0;"/><polygon fill="#181818" points="523.87,1209.48,517.018,1202.4054,519.2326,1207.6108,514.0272,1209.8253,523.87,1209.48" style="stroke:#181818;stroke-width:1.0;"/><text fill="#000000" font-family="sans-serif" font-size="13" lengthAdjust="spacing" textLength="7" x="508.8572" y="1221.6051">1</text></g><!--MD5=[8d13b34d3e8a9a0c3dda405bc3ff7bdd]
link Order to Total_amount_without_taxes--><g id="link_Order_Total_amount_without_taxes"><path codeLine="54" d="M315.32,1028.85 C353.95,1046.34 418.21,1075.19 474,1099 C485.92,1104.09 498.64,1109.4 510.97,1114.48 " fill="none" id="Order-to-Total_amount_without_taxes" style="stroke:#181818;stroke-width:1.0;"/><polygon fill="#181818" points="515.86,1116.49,509.0532,1109.3719,511.2345,1114.5913,506.0152,1116.7727,515.86,1116.49" style="stroke:#181818;stroke-width:1.0;"/><text fill="#000000" font-family="sans-serif" font-size="13" lengthAdjust="spacing" textLength="7" x="491.5273" y="1105.4813">1</text></g><!--MD5=[4f81eaa8b5b3d853c9d2cb7da8b69009]
link Order to Total_amount_with_taxes--><g id="link_Order_Total_amount_with_taxes"><path codeLine="55" d="M315.03,1017.97 C354.88,1023.72 422.21,1033.41 478.89,1041.58 " fill="none" id="Order-to-Total_amount_with_taxes" style="stroke:#181818;stroke-width:1.0;"/><polygon fill="#181818" points="483.99,1042.31,475.6546,1037.0639,479.0414,1041.5949,474.5104,1044.9817,483.99,1042.31" style="stroke:#181818;stroke-width:1.0;"/><text fill="#000000" font-family="sans-serif" font-size="13" lengthAdjust="spacing" textLength="7" x="469.0603" y="1055.3775">1</text></g><!--MD5=[ea8e6d7b91295ceaf4229b76aea87bb4]
link Order to Payment_method--><g id="link_Order_Payment_method"><path codeLine="56" d="M315.32,997.15 C353.95,979.66 418.21,950.81 474,927 C485.92,921.91 498.64,916.6 510.97,911.52 " fill="none" id="Order-to-Payment_method" style="stroke:#181818;stroke-width:1.0;"/><polygon fill="#181818" points="515.86,909.51,506.0152,909.2273,511.2345,911.4087,509.0532,916.6281,515.86,909.51" style="stroke:#181818;stroke-width:1.0;"/><text fill="#000000" font-family="sans-serif" font-size="13" lengthAdjust="spacing" textLength="7" x="494.0638" y="930.4064">1</text></g><!--MD5=[1b7a817b58e247dd4f1c0e76d5afeb0d]
link Order to Payment_confirmation--><g id="link_Order_Payment_confirmation"><path codeLine="57" d="M315.03,1008.03 C357.19,1001.95 430.1,991.45 488.63,983.02 " fill="none" id="Order-to-Payment_confirmation" style="stroke:#181818;stroke-width:1.0;"/><polygon fill="#181818" points="493.88,982.26,484.4091,979.5577,488.9291,982.9591,485.5277,987.4791,493.88,982.26" style="stroke:#181818;stroke-width:1.0;"/><text fill="#000000" font-family="sans-serif" font-size="13" lengthAdjust="spacing" textLength="7" x="478.8982" y="997.5884">1</text></g><!--MD5=[1724ada59dee632394b1e9b70396c85a]
link Order to State--><g id="link_Order_State"><path codeLine="58" d="M298.19,978.6 C327.75,924.18 392.1,817.96 474,755 C492.94,740.44 517.5,730.02 538.1,723.09 " fill="none" id="Order-to-State" style="stroke:#181818;stroke-width:1.0;"/><polygon fill="#181818" points="542.98,721.49,533.1822,720.4882,538.2281,723.0454,535.6709,728.0913,542.98,721.49" style="stroke:#181818;stroke-width:1.0;"/><text fill="#000000" font-family="sans-serif" font-size="13" lengthAdjust="spacing" textLength="7" x="528.0026" y="738.4923">1</text></g><!--MD5=[bba317dcae9279c3937714ed06aa4019]
link AGV to ShortDescription--><g id="link_AGV_ShortDescription"><path codeLine="59" d="M83.7,403.09 C112,439.91 160.6,498.94 211,541 C217.01,546.01 223.64,550.9 230.33,555.48 " fill="none" id="AGV-to-ShortDescription" style="stroke:#181818;stroke-width:1.0;"/><polygon fill="#181818" points="234.49,558.28,229.2732,549.9263,230.3474,555.4802,224.7935,556.5544,234.49,558.28" style="stroke:#181818;stroke-width:1.0;"/><text fill="#000000" font-family="sans-serif" font-size="13" lengthAdjust="spacing" textLength="7" x="215.6657" y="547.6349">1</text></g><!--MD5=[90de021bb2aa8991bb28cb59916c543e]
link AGV to Model--><g id="link_AGV_Model"><path codeLine="60" d="M93.36,389.44 C130.3,411.1 188.9,445.46 230.26,469.71 " fill="none" id="AGV-to-Model" style="stroke:#181818;stroke-width:1.0;"/><polygon fill="#181818" points="234.71,472.32,228.9679,464.3182,230.3963,469.7918,224.9227,471.2201,234.71,472.32" style="stroke:#181818;stroke-width:1.0;"/><text fill="#000000" font-family="sans-serif" font-size="13" lengthAdjust="spacing" textLength="7" x="215.9393" y="461.6846">1</text></g><!--MD5=[c72f1e6940ed6ecc2c144a601f0c19a4]
link AGV to MaximumWeight--><g id="link_AGV_MaximumWeight"><path codeLine="61" d="M93.36,375.81 C123.86,381.77 169.11,390.62 207.24,398.07 " fill="none" id="AGV-to-MaximumWeight" style="stroke:#181818;stroke-width:1.0;"/><polygon fill="#181818" points="212.34,399.07,204.2707,393.4232,207.4322,398.1141,202.7413,401.2756,212.34,399.07" style="stroke:#181818;stroke-width:1.0;"/><text fill="#000000" font-family="sans-serif" font-size="13" lengthAdjust="spacing" textLength="7" x="197.6116" y="412.0614">1</text></g><!--MD5=[67bde9aab136fc3a908675e16468351d]
link AGV to MaximumVolume--><g id="link_AGV_MaximumVolume"><path codeLine="62" d="M93.36,362.19 C123.51,356.29 168.08,347.58 205.94,340.18 " fill="none" id="AGV-to-MaximumVolume" style="stroke:#181818;stroke-width:1.0;"/><polygon fill="#181818" points="210.99,339.19,201.3901,336.9896,206.0827,340.1486,202.9238,344.8412,210.99,339.19" style="stroke:#181818;stroke-width:1.0;"/><text fill="#000000" font-family="sans-serif" font-size="13" lengthAdjust="spacing" textLength="7" x="196.1139" y="355.0382">1</text></g><!--MD5=[670f8ab1959079f3e542dc0d97ca6264]
link AGV to BaseLocation--><g id="link_AGV_BaseLocation"><path codeLine="63" d="M93.36,348.56 C130.3,326.9 188.9,292.54 230.26,268.29 " fill="none" id="AGV-to-BaseLocation" style="stroke:#181818;stroke-width:1.0;"/><polygon fill="#181818" points="234.71,265.68,224.9227,266.7799,230.3963,268.2082,228.9679,273.6818,234.71,265.68" style="stroke:#181818;stroke-width:1.0;"/><text fill="#000000" font-family="sans-serif" font-size="13" lengthAdjust="spacing" textLength="7" x="217.1466" y="286.6135">1</text></g><!--MD5=[f5443cc58319b313032a803e076be4aa]
link AGV to Status--><g id="link_AGV_Status"><path codeLine="64" d="M84.14,334.78 C112.63,298.12 161.21,239.48 211,197 C216.95,191.92 223.55,187 230.23,182.4 " fill="none" id="AGV-to-Status" style="stroke:#181818;stroke-width:1.0;"/><polygon fill="#181818" points="234.39,179.59,224.6935,181.3156,230.2474,182.3898,229.1732,187.9437,234.39,179.59" style="stroke:#181818;stroke-width:1.0;"/><text fill="#000000" font-family="sans-serif" font-size="13" lengthAdjust="spacing" textLength="7" x="216.7566" y="200.5039">1</text></g><!--MD5=[92849aba45a5a3491428223c69d2c017]
link AGV to CurrentTask--><g id="link_AGV_CurrentTask"><path codeLine="65" d="M71.99,334.86 C94.33,281.73 143.36,178.39 211,111 C216.12,105.9 221.94,101.1 227.97,96.68 " fill="none" id="AGV-to-CurrentTask" style="stroke:#181818;stroke-width:1.0;"/><polygon fill="#181818" points="232.18,93.69,222.5288,95.6534,228.1075,96.5908,227.1701,102.1694,232.18,93.69" style="stroke:#181818;stroke-width:1.0;"/><text fill="#000000" font-family="sans-serif" font-size="13" lengthAdjust="spacing" textLength="7" x="214.0631" y="114.6257">1</text></g><!--MD5=[b15788600414bc85f7a85bb1ca6bcc0d]
link AGV to Order--><g id="link_AGV_Order"><path codeLine="66" d="M70.17,403.17 C107.72,513.09 225.27,857.19 265.13,973.86 " fill="none" id="AGV-to-Order" style="stroke:#181818;stroke-width:1.0;"/><polygon fill="#181818" points="266.86,978.91,267.7378,969.1003,265.2446,974.1781,260.1668,971.685,266.86,978.91" style="stroke:#181818;stroke-width:1.0;"/><polygon fill="#000000" points="129.6164,555.9073,129.4734,546.3978,123.9112,548.298,129.6164,555.9073" style="stroke:#000000;stroke-width:1.0;"/><text fill="#000000" font-family="sans-serif" font-size="13" lengthAdjust="spacing" textLength="43" x="137" y="556.4951">prepare</text><text fill="#000000" font-family="sans-serif" font-size="13" lengthAdjust="spacing" textLength="5" x="258.8793" y="968.1225">*</text></g><!--MD5=[595fbce7cab9cc8f7c0388b8e6f1e534]
@startuml
hide methods
left to right direction
skinparam classAttributeIconSize 0




package "agv"{
class AGV{
-id
}

AGV <<entity>>
ShortDescription <<value object>>
Model <<value object>>
MaximumWeight <<value object>>
MaximumVolume <<value object>>
BaseLocation <<value object>>
Status <<value object>>
CurrentTask <<value object>>
}



package "order"{
class Order{
-id
}


Order <<entity>>
Shipment_method_cost <<value object>>
Customer_id <<value object>>
Total_amount_without_taxes <<value object>>
Total_amount_with_taxes <<value object>>
Payment_confirmation <<value object>>
Payment_method <<value object>>
Address <<value object>>
State <<enum>>

}
package "product"{
Product <<entity>>
}

Order "1" - - "*" Product : contains >
Order "1" - - "1" Shipment_method_cost : has >
Product  - -> "1" PriceWithTaxes
Product  - -> "1" PriceWithoutTaxes
Order  - -> "1" Address
Address <|- - Postal
Address <|- - Billing
Order  - -> "1" Customer_id
Order  - -> "1" Total_amount_without_taxes
Order  - -> "1" Total_amount_with_taxes
Order  - -> "1" Payment_method
Order  - -> "1" Payment_confirmation
Order  - -> "1" State
AGV  - -> "1" ShortDescription
AGV  - -> "1" Model
AGV  - -> "1" MaximumWeight
AGV  - -> "1" MaximumVolume
AGV  - -> "1" BaseLocation
AGV  - -> "1" Status
AGV  - -> "1" CurrentTask
AGV  - -> "*" Order : prepare >



@enduml

PlantUML version 1.2022.5(Sat Apr 30 11:55:52 BST 2022)
(GPL source distribution)
Java Runtime: OpenJDK Runtime Environment
JVM: OpenJDK 64-Bit Server VM
Default Encoding: Cp1252
Language: pt
Country: PT
--></g></svg>