<?xml version="1.0" encoding="UTF-8" standalone="no"?><svg xmlns="http://www.w3.org/2000/svg" xmlns:xlink="http://www.w3.org/1999/xlink" contentStyleType="text/css" height="698px" preserveAspectRatio="none" style="width:489px;height:698px;background:#FFFFFF;" version="1.1" viewBox="0 0 489 698" width="489px" zoomAndPan="magnify"><defs/><g><!--MD5=[91152a020533eb72a67d09dd9b75c2dd]
cluster agvdigitaltwin--><g id="cluster_agvdigitaltwin"><path d="M153.5,6 L252.5,6 A3.75,3.75 0 0 1 255,8.5 L262,29.6094 L334.5,29.6094 A2.5,2.5 0 0 1 337,32.1094 L337,103.5 A2.5,2.5 0 0 1 334.5,106 L153.5,106 A2.5,2.5 0 0 1 151,103.5 L151,8.5 A2.5,2.5 0 0 1 153.5,6 " style="stroke:#000000;stroke-width:1.5;fill:none;"/><line style="stroke:#000000;stroke-width:1.5;fill:none;" x1="151" x2="262" y1="29.6094" y2="29.6094"/><text fill="#000000" font-family="sans-serif" font-size="14" font-weight="bold" lengthAdjust="spacing" textLength="98" x="155" y="22.5332">agvdigitaltwin</text></g><!--MD5=[6a39f2d56fdf01f836299c84e2c63ac6]
cluster agvmanager--><g id="cluster_agvmanager"><path d="M8.5,130 L96.5,130 A3.75,3.75 0 0 1 99,132.5 L106,153.6094 L479.5,153.6094 A2.5,2.5 0 0 1 482,156.1094 L482,458.5 A2.5,2.5 0 0 1 479.5,461 L8.5,461 A2.5,2.5 0 0 1 6,458.5 L6,132.5 A2.5,2.5 0 0 1 8.5,130 " style="stroke:#000000;stroke-width:1.5;fill:none;"/><line style="stroke:#000000;stroke-width:1.5;fill:none;" x1="6" x2="106" y1="153.6094" y2="153.6094"/><text fill="#000000" font-family="sans-serif" font-size="14" font-weight="bold" lengthAdjust="spacing" textLength="87" x="10" y="146.5332">agvmanager</text></g><!--MD5=[d64883541e3d62e3241c4d12decf100d]
cluster Application--><g id="cluster_Application"><path d="M120.5,485 L199.5,485 A3.75,3.75 0 0 1 202,487.5 L209,508.6094 L367.5,508.6094 A2.5,2.5 0 0 1 370,511.1094 L370,688.5 A2.5,2.5 0 0 1 367.5,691 L120.5,691 A2.5,2.5 0 0 1 118,688.5 L118,487.5 A2.5,2.5 0 0 1 120.5,485 " style="stroke:#000000;stroke-width:1.5;fill:none;"/><line style="stroke:#000000;stroke-width:1.5;fill:none;" x1="118" x2="209" y1="508.6094" y2="508.6094"/><text fill="#000000" font-family="sans-serif" font-size="14" font-weight="bold" lengthAdjust="spacing" textLength="78" x="122" y="501.5332">Application</text></g><!--MD5=[035ac329b1fb46baf39b468c9481fdfa]
class AGVDigitalTwinApp--><g id="elem_AGVDigitalTwinApp"><rect codeLine="5" fill="#F1F1F1" height="48" id="AGVDigitalTwinApp" rx="2.5" ry="2.5" style="stroke:#181818;stroke-width:0.5;" width="154" x="167" y="42"/><ellipse cx="182" cy="58" fill="#ADD1B2" rx="11" ry="11" style="stroke:#181818;stroke-width:1.0;"/><path d="M184,54.5 Q184.2031,54 184.4375,53.75 Q184.6719,53.5 184.9375,53.5 Q185.4063,53.5 185.7031,53.7813 Q186,54.0625 186,54.7188 L186,56.2813 Q186,56.9375 185.7188,57.2188 Q185.4375,57.5 185,57.5 Q184.6094,57.5 184.3594,57.3281 Q184.1094,57.1563 184,56.7031 Q183.9531,56.3906 183.7813,56.2188 Q183.4688,55.8906 182.9063,55.7031 Q182.3438,55.5 181.7813,55.5 Q181.0781,55.5 180.4844,55.7813 Q179.9063,56.0625 179.4531,56.6875 Q179,57.3125 179,58.1719 L179,59.0938 Q179,60.125 179.8438,60.8125 Q180.6875,61.5 182.1875,61.5 Q183.0781,61.5 183.7031,61.2969 Q184.0625,61.1875 184.4688,60.8281 Q184.7344,60.625 184.875,60.5625 Q185.0156,60.5 185.1875,60.5 Q185.5156,60.5 185.75,60.7656 Q186,61.0156 186,61.375 Q186,61.7188 185.6563,62.125 Q185.1563,62.7188 184.3594,63.0469 Q183.3125,63.5 182.0313,63.5 Q180.5313,63.5 179.3281,62.9063 Q178.3594,62.4375 177.6719,61.4219 Q177,60.4063 177,59.2031 L177,58.1094 Q177,56.8594 177.5938,55.7656 Q178.2031,54.6719 179.25,54.0938 Q180.3125,53.5 181.5,53.5 Q182.2188,53.5 182.8438,53.75 Q183.4688,54 184,54.5 Z " fill="#000000"/><text fill="#000000" font-family="sans-serif" font-size="14" lengthAdjust="spacing" textLength="122" x="196" y="63.7285">AGVDigitalTwinApp</text><line style="stroke:#181818;stroke-width:0.5;" x1="168" x2="320" y1="74" y2="74"/><line style="stroke:#181818;stroke-width:0.5;" x1="168" x2="320" y1="82" y2="82"/></g><!--MD5=[4d7174ddd294a19c491f7f60ddde2f1c]
class AGVManagerServer--><g id="elem_AGVManagerServer"><rect codeLine="10" fill="#F1F1F1" height="48" id="AGVManagerServer" rx="2.5" ry="2.5" style="stroke:#181818;stroke-width:0.5;" width="159" x="164.5" y="166"/><ellipse cx="179.5" cy="182" fill="#ADD1B2" rx="11" ry="11" style="stroke:#181818;stroke-width:1.0;"/><path d="M181.5,178.5 Q181.7031,178 181.9375,177.75 Q182.1719,177.5 182.4375,177.5 Q182.9063,177.5 183.2031,177.7813 Q183.5,178.0625 183.5,178.7188 L183.5,180.2813 Q183.5,180.9375 183.2188,181.2188 Q182.9375,181.5 182.5,181.5 Q182.1094,181.5 181.8594,181.3281 Q181.6094,181.1563 181.5,180.7031 Q181.4531,180.3906 181.2813,180.2188 Q180.9688,179.8906 180.4063,179.7031 Q179.8438,179.5 179.2813,179.5 Q178.5781,179.5 177.9844,179.7813 Q177.4063,180.0625 176.9531,180.6875 Q176.5,181.3125 176.5,182.1719 L176.5,183.0938 Q176.5,184.125 177.3438,184.8125 Q178.1875,185.5 179.6875,185.5 Q180.5781,185.5 181.2031,185.2969 Q181.5625,185.1875 181.9688,184.8281 Q182.2344,184.625 182.375,184.5625 Q182.5156,184.5 182.6875,184.5 Q183.0156,184.5 183.25,184.7656 Q183.5,185.0156 183.5,185.375 Q183.5,185.7188 183.1563,186.125 Q182.6563,186.7188 181.8594,187.0469 Q180.8125,187.5 179.5313,187.5 Q178.0313,187.5 176.8281,186.9063 Q175.8594,186.4375 175.1719,185.4219 Q174.5,184.4063 174.5,183.2031 L174.5,182.1094 Q174.5,180.8594 175.0938,179.7656 Q175.7031,178.6719 176.75,178.0938 Q177.8125,177.5 179,177.5 Q179.7188,177.5 180.3438,177.75 Q180.9688,178 181.5,178.5 Z " fill="#000000"/><text fill="#000000" font-family="sans-serif" font-size="14" lengthAdjust="spacing" textLength="127" x="193.5" y="187.7285">AGVManagerServer</text><line style="stroke:#181818;stroke-width:0.5;" x1="165.5" x2="322.5" y1="198" y2="198"/><line style="stroke:#181818;stroke-width:0.5;" x1="165.5" x2="322.5" y1="206" y2="206"/></g><!--MD5=[76604297ccb9e0c9806a6039d68f78c5]
class AgvManagerThread--><g id="elem_AgvManagerThread"><rect codeLine="12" fill="#F1F1F1" height="171.2656" id="AgvManagerThread" rx="2.5" ry="2.5" style="stroke:#181818;stroke-width:0.5;" width="444" x="22" y="274"/><ellipse cx="176.75" cy="290" fill="#ADD1B2" rx="11" ry="11" style="stroke:#181818;stroke-width:1.0;"/><path d="M178.75,286.5 Q178.9531,286 179.1875,285.75 Q179.4219,285.5 179.6875,285.5 Q180.1563,285.5 180.4531,285.7813 Q180.75,286.0625 180.75,286.7188 L180.75,288.2813 Q180.75,288.9375 180.4688,289.2188 Q180.1875,289.5 179.75,289.5 Q179.3594,289.5 179.1094,289.3281 Q178.8594,289.1563 178.75,288.7031 Q178.7031,288.3906 178.5313,288.2188 Q178.2188,287.8906 177.6563,287.7031 Q177.0938,287.5 176.5313,287.5 Q175.8281,287.5 175.2344,287.7813 Q174.6563,288.0625 174.2031,288.6875 Q173.75,289.3125 173.75,290.1719 L173.75,291.0938 Q173.75,292.125 174.5938,292.8125 Q175.4375,293.5 176.9375,293.5 Q177.8281,293.5 178.4531,293.2969 Q178.8125,293.1875 179.2188,292.8281 Q179.4844,292.625 179.625,292.5625 Q179.7656,292.5 179.9375,292.5 Q180.2656,292.5 180.5,292.7656 Q180.75,293.0156 180.75,293.375 Q180.75,293.7188 180.4063,294.125 Q179.9063,294.7188 179.1094,295.0469 Q178.0625,295.5 176.7813,295.5 Q175.2813,295.5 174.0781,294.9063 Q173.1094,294.4375 172.4219,293.4219 Q171.75,292.4063 171.75,291.2031 L171.75,290.1094 Q171.75,288.8594 172.3438,287.7656 Q172.9531,286.6719 174,286.0938 Q175.0625,285.5 176.25,285.5 Q176.9688,285.5 177.5938,285.75 Q178.2188,286 178.75,286.5 Z " fill="#000000"/><text fill="#000000" font-family="sans-serif" font-size="14" lengthAdjust="spacing" textLength="126" x="197.25" y="295.7285">AgvManagerThread</text><line style="stroke:#181818;stroke-width:0.5;" x1="23" x2="465" y1="306" y2="306"/><line style="stroke:#181818;stroke-width:0.5;" x1="23" x2="465" y1="314" y2="314"/><text fill="#000000" font-family="sans-serif" font-size="14" lengthAdjust="spacing" textLength="144" x="28" y="332.5332">+AgvManagerThread()</text><text fill="#000000" font-family="sans-serif" font-size="14" lengthAdjust="spacing" textLength="39" x="28" y="350.1426">+run()</text><text fill="#000000" font-family="sans-serif" font-size="14" lengthAdjust="spacing" textLength="432" x="28" y="367.752">-moveAroundWarehouse( xActual, yActual, xProduct, yProduct, time)</text><text fill="#000000" font-family="sans-serif" font-size="14" lengthAdjust="spacing" textLength="261" x="28" y="385.3613">-moveRight( xActual, yActual, notify, time)</text><text fill="#000000" font-family="sans-serif" font-size="14" lengthAdjust="spacing" textLength="252" x="28" y="402.9707">-moveLeft( xActual, yActual, notify, time)</text><text fill="#000000" font-family="sans-serif" font-size="14" lengthAdjust="spacing" textLength="245" x="28" y="420.5801">-moveUp( xActual, yActual, notify, time)</text><text fill="#000000" font-family="sans-serif" font-size="14" lengthAdjust="spacing" textLength="263" x="28" y="438.1895">-moveDown( xActual, yActual, notify, time)</text></g><!--MD5=[7c8182aed7c24d6b9d075f9563070bdf]
class GetProductLocationController--><g id="elem_GetProductLocationController"><rect codeLine="24" fill="#F1F1F1" height="153.6563" id="GetProductLocationController" rx="2.5" ry="2.5" style="stroke:#181818;stroke-width:0.5;" width="220" x="134" y="521"/><ellipse cx="149" cy="537" fill="#ADD1B2" rx="11" ry="11" style="stroke:#181818;stroke-width:1.0;"/><path d="M151,533.5 Q151.2031,533 151.4375,532.75 Q151.6719,532.5 151.9375,532.5 Q152.4063,532.5 152.7031,532.7813 Q153,533.0625 153,533.7188 L153,535.2813 Q153,535.9375 152.7188,536.2188 Q152.4375,536.5 152,536.5 Q151.6094,536.5 151.3594,536.3281 Q151.1094,536.1563 151,535.7031 Q150.9531,535.3906 150.7813,535.2188 Q150.4688,534.8906 149.9063,534.7031 Q149.3438,534.5 148.7813,534.5 Q148.0781,534.5 147.4844,534.7813 Q146.9063,535.0625 146.4531,535.6875 Q146,536.3125 146,537.1719 L146,538.0938 Q146,539.125 146.8438,539.8125 Q147.6875,540.5 149.1875,540.5 Q150.0781,540.5 150.7031,540.2969 Q151.0625,540.1875 151.4688,539.8281 Q151.7344,539.625 151.875,539.5625 Q152.0156,539.5 152.1875,539.5 Q152.5156,539.5 152.75,539.7656 Q153,540.0156 153,540.375 Q153,540.7188 152.6563,541.125 Q152.1563,541.7188 151.3594,542.0469 Q150.3125,542.5 149.0313,542.5 Q147.5313,542.5 146.3281,541.9063 Q145.3594,541.4375 144.6719,540.4219 Q144,539.4063 144,538.2031 L144,537.1094 Q144,535.8594 144.5938,534.7656 Q145.2031,533.6719 146.25,533.0938 Q147.3125,532.5 148.5,532.5 Q149.2188,532.5 149.8438,532.75 Q150.4688,533 151,533.5 Z " fill="#000000"/><text fill="#000000" font-family="sans-serif" font-size="14" lengthAdjust="spacing" textLength="188" x="163" y="542.7285">GetProductLocationController</text><line style="stroke:#181818;stroke-width:0.5;" x1="135" x2="353" y1="553" y2="553"/><line style="stroke:#181818;stroke-width:0.5;" x1="135" x2="353" y1="561" y2="561"/><text fill="#000000" font-family="sans-serif" font-size="14" lengthAdjust="spacing" textLength="141" x="140" y="579.5332">+getProductLocation()</text><text fill="#000000" font-family="sans-serif" font-size="14" lengthAdjust="spacing" textLength="127" x="140" y="597.1426">+getAgvLocation(id)</text><text fill="#000000" font-family="sans-serif" font-size="14" lengthAdjust="spacing" textLength="136" x="140" y="614.752">+getAccessibility(row)</text><text fill="#000000" font-family="sans-serif" font-size="14" lengthAdjust="spacing" textLength="149" x="140" y="632.3613">+setOrderReady(order)</text><text fill="#000000" font-family="sans-serif" font-size="14" lengthAdjust="spacing" textLength="83" x="140" y="649.9707">+freeAGV(id)</text><text fill="#000000" font-family="sans-serif" font-size="14" lengthAdjust="spacing" textLength="112" x="140" y="667.5801">-occupyAGV(agv)</text></g><!--MD5=[9de855cbb70d988ae8170d9770fbbef8]
link AGVManagerServer to AgvManagerThread--><g id="link_AGVManagerServer_AgvManagerThread"><path codeLine="36" d="M244,214.29 C244,228.79 244,248.47 244,268.63 " fill="none" id="AGVManagerServer-to-AgvManagerThread" style="stroke:#181818;stroke-width:1.0;stroke-dasharray:7.0,7.0;"/><polygon fill="#181818" points="244,273.76,248,264.76,244,268.76,240,264.76,244,273.76" style="stroke:#181818;stroke-width:1.0;"/></g><!--MD5=[91d982614b7633a9ca9183fba11d7655]
link AGVDigitalTwinApp to AGVManagerServer--><g id="link_AGVDigitalTwinApp_AGVManagerServer"><path codeLine="37" d="M244,90.23 C244,110.25 244,139.2 244,160.59 " fill="none" id="AGVDigitalTwinApp-to-AGVManagerServer" style="stroke:#181818;stroke-width:1.0;stroke-dasharray:7.0,7.0;"/><polygon fill="#181818" points="244,165.85,248,156.85,244,160.85,240,156.85,244,165.85" style="stroke:#181818;stroke-width:1.0;"/></g><!--MD5=[7d9e9a389c3b82c25f1dd3601b70210e]
link AgvManagerThread to GetProductLocationController--><g id="link_AgvManagerThread_GetProductLocationController"><path codeLine="38" d="M244,445.21 C244,468.13 244,492.88 244,515.62 " fill="none" id="AgvManagerThread-to-GetProductLocationController" style="stroke:#181818;stroke-width:1.0;stroke-dasharray:7.0,7.0;"/><polygon fill="#181818" points="244,520.74,248,511.74,244,515.74,240,511.74,244,520.74" style="stroke:#181818;stroke-width:1.0;"/></g><!--MD5=[f203969b331c275f01be3545c6a52c53]
@startuml
skinparam classAttributeIconSize 0


package "agvdigitaltwin"{
class AGVDigitalTwinApp{
}
}

package "agvmanager"{
class AGVManagerServer{
}
class AgvManagerThread{
+AgvManagerThread()
+run()
-moveAroundWarehouse( xActual, yActual, xProduct, yProduct, time)
-moveRight( xActual, yActual, notify, time)
-moveLeft( xActual, yActual, notify, time)
-moveUp( xActual, yActual, notify, time)
-moveDown( xActual, yActual, notify, time)
}
}

package "Application"{
class GetProductLocationController{
+getProductLocation()
+getAgvLocation(id)
+getAccessibility(row)
+setOrderReady(order)
+freeAGV(id)
-occupyAGV(agv)
}
}



AGVManagerServer .-> AgvManagerThread
AGVDigitalTwinApp .-> AGVManagerServer
AgvManagerThread .-> GetProductLocationController



@enduml

PlantUML version 1.2022.5(Sat Apr 30 11:55:52 BST 2022)
(GPL source distribution)
Java Runtime: OpenJDK Runtime Environment
JVM: OpenJDK 64-Bit Server VM
Default Encoding: Cp1252
Language: pt
Country: PT
--></g></svg>