<?xml version="1.0" encoding="UTF-8" standalone="no"?><svg xmlns="http://www.w3.org/2000/svg" xmlns:xlink="http://www.w3.org/1999/xlink" contentScriptType="application/ecmascript" contentStyleType="text/css" height="611px" preserveAspectRatio="none" style="width:541px;height:611px;background:#FFFFFF;" version="1.1" viewBox="0 0 541 611" width="541px" zoomAndPan="magnify"><defs><filter height="300%" id="f1hx8u4d6kmhgt" width="300%" x="-1" y="-1"><feGaussianBlur result="blurOut" stdDeviation="2.0"/><feColorMatrix in="blurOut" result="blurOut2" type="matrix" values="0 0 0 0 0 0 0 0 0 0 0 0 0 0 0 0 0 0 .4 0"/><feOffset dx="4.0" dy="4.0" in="blurOut2" result="blurOut3"/><feBlend in="SourceGraphic" in2="blurOut3" mode="normal"/></filter></defs><g><!--MD5=[21278497e3b717440c1992229d7cb5dc]
cluster order--><polygon fill="#FFFFFF" filter="url(#f1hx8u4d6kmhgt)" points="16,255,61,255,68,278.6094,119,278.6094,119,355,16,355,16,255" style="stroke:#000000;stroke-width:1.5;"/><line style="stroke:#000000;stroke-width:1.5;" x1="16" x2="68" y1="278.6094" y2="278.6094"/><text fill="#000000" font-family="sans-serif" font-size="14" font-weight="bold" lengthAdjust="spacing" textLength="39" x="20" y="271.5332">order</text><!--MD5=[5c1a4368efc4020c811f0dec2d8123d2]
cluster agv--><polygon fill="#FFFFFF" filter="url(#f1hx8u4d6kmhgt)" points="233,6,265,6,272,29.6094,524,29.6094,524,604,233,604,233,6" style="stroke:#000000;stroke-width:1.5;"/><line style="stroke:#000000;stroke-width:1.5;" x1="233" x2="272" y1="29.6094" y2="29.6094"/><text fill="#000000" font-family="sans-serif" font-size="14" font-weight="bold" lengthAdjust="spacing" textLength="26" x="237" y="22.5332">agv</text><!--MD5=[cf4d6237fcae255cd2e1656cf84a30e2]
class Order--><rect codeLine="6" fill="#FEFECE" filter="url(#f1hx8u4d6kmhgt)" height="48.1875" id="Order" style="stroke:#A80036;stroke-width:1.5;" width="71" x="32" y="291"/><ellipse cx="47" cy="311.0938" fill="#ADD1B2" rx="11" ry="11" style="stroke:#A80036;stroke-width:1.0;"/><path d="M49,307.5938 Q49.2031,307.0938 49.4375,306.8438 Q49.6719,306.5938 49.9375,306.5938 Q50.4063,306.5938 50.7031,306.875 Q51,307.1563 51,307.8125 L51,309.375 Q51,310.0313 50.7188,310.3125 Q50.4375,310.5938 50,310.5938 Q49.6094,310.5938 49.3594,310.4219 Q49.1094,310.25 49,309.7969 Q48.9531,309.4844 48.7813,309.3125 Q48.4688,308.9844 47.9063,308.7969 Q47.3438,308.5938 46.7813,308.5938 Q46.0781,308.5938 45.4844,308.875 Q44.9063,309.1563 44.4531,309.7813 Q44,310.4063 44,311.2656 L44,312.1875 Q44,313.2188 44.8438,313.9063 Q45.6875,314.5938 47.1875,314.5938 Q48.0781,314.5938 48.7031,314.3906 Q49.0625,314.2813 49.4688,313.9219 Q49.7344,313.7188 49.875,313.6563 Q50.0156,313.5938 50.1875,313.5938 Q50.5156,313.5938 50.75,313.8594 Q51,314.1094 51,314.4688 Q51,314.8125 50.6563,315.2188 Q50.1563,315.8125 49.3594,316.1406 Q48.3125,316.5938 47.0313,316.5938 Q45.5313,316.5938 44.3281,316 Q43.3594,315.5313 42.6719,314.5156 Q42,313.5 42,312.2969 L42,311.2031 Q42,309.9531 42.5938,308.8594 Q43.2031,307.7656 44.25,307.1875 Q45.3125,306.5938 46.5,306.5938 Q47.2188,306.5938 47.8438,306.8438 Q48.4688,307.0938 49,307.5938 Z " fill="#000000"/><text fill="#000000" font-family="sans-serif" font-size="12" font-style="italic" lengthAdjust="spacing" textLength="43" x="59" y="308.457">«entity»</text><text fill="#000000" font-family="sans-serif" font-size="12" lengthAdjust="spacing" textLength="31" x="65" y="323.5508">Order</text><line style="stroke:#A80036;stroke-width:1.5;" x1="33" x2="102" y1="331.1875" y2="331.1875"/><!--MD5=[53b2c06ade5903185ca3326dce80e141]
class AGV--><rect codeLine="13" fill="#FEFECE" filter="url(#f1hx8u4d6kmhgt)" height="62.0234" id="AGV" style="stroke:#A80036;stroke-width:1.5;" width="71" x="249" y="284"/><ellipse cx="264" cy="304.0938" fill="#ADD1B2" rx="11" ry="11" style="stroke:#A80036;stroke-width:1.0;"/><path d="M266,300.5938 Q266.2031,300.0938 266.4375,299.8438 Q266.6719,299.5938 266.9375,299.5938 Q267.4063,299.5938 267.7031,299.875 Q268,300.1563 268,300.8125 L268,302.375 Q268,303.0313 267.7188,303.3125 Q267.4375,303.5938 267,303.5938 Q266.6094,303.5938 266.3594,303.4219 Q266.1094,303.25 266,302.7969 Q265.9531,302.4844 265.7813,302.3125 Q265.4688,301.9844 264.9063,301.7969 Q264.3438,301.5938 263.7813,301.5938 Q263.0781,301.5938 262.4844,301.875 Q261.9063,302.1563 261.4531,302.7813 Q261,303.4063 261,304.2656 L261,305.1875 Q261,306.2188 261.8438,306.9063 Q262.6875,307.5938 264.1875,307.5938 Q265.0781,307.5938 265.7031,307.3906 Q266.0625,307.2813 266.4688,306.9219 Q266.7344,306.7188 266.875,306.6563 Q267.0156,306.5938 267.1875,306.5938 Q267.5156,306.5938 267.75,306.8594 Q268,307.1094 268,307.4688 Q268,307.8125 267.6563,308.2188 Q267.1563,308.8125 266.3594,309.1406 Q265.3125,309.5938 264.0313,309.5938 Q262.5313,309.5938 261.3281,309 Q260.3594,308.5313 259.6719,307.5156 Q259,306.5 259,305.2969 L259,304.2031 Q259,302.9531 259.5938,301.8594 Q260.2031,300.7656 261.25,300.1875 Q262.3125,299.5938 263.5,299.5938 Q264.2188,299.5938 264.8438,299.8438 Q265.4688,300.0938 266,300.5938 Z " fill="#000000"/><text fill="#000000" font-family="sans-serif" font-size="12" font-style="italic" lengthAdjust="spacing" textLength="43" x="276" y="301.457">«entity»</text><text fill="#000000" font-family="sans-serif" font-size="12" lengthAdjust="spacing" textLength="23" x="286" y="316.5508">AGV</text><line style="stroke:#A80036;stroke-width:1.5;" x1="250" x2="319" y1="324.1875" y2="324.1875"/><text fill="#000000" font-family="sans-serif" font-size="11" lengthAdjust="spacing" textLength="12" x="255" y="339.6064">-id</text><!--MD5=[79d3acb8d8b4a000645cdf546551f625]
class ShortDescription--><rect fill="#FEFECE" filter="url(#f1hx8u4d6kmhgt)" height="48.1875" id="ShortDescription" style="stroke:#A80036;stroke-width:1.5;" width="124" x="382.5" y="540"/><ellipse cx="397.5" cy="560.0938" fill="#ADD1B2" rx="11" ry="11" style="stroke:#A80036;stroke-width:1.0;"/><path d="M399.5,556.5938 Q399.7031,556.0938 399.9375,555.8438 Q400.1719,555.5938 400.4375,555.5938 Q400.9063,555.5938 401.2031,555.875 Q401.5,556.1563 401.5,556.8125 L401.5,558.375 Q401.5,559.0313 401.2188,559.3125 Q400.9375,559.5938 400.5,559.5938 Q400.1094,559.5938 399.8594,559.4219 Q399.6094,559.25 399.5,558.7969 Q399.4531,558.4844 399.2813,558.3125 Q398.9688,557.9844 398.4063,557.7969 Q397.8438,557.5938 397.2813,557.5938 Q396.5781,557.5938 395.9844,557.875 Q395.4063,558.1563 394.9531,558.7813 Q394.5,559.4063 394.5,560.2656 L394.5,561.1875 Q394.5,562.2188 395.3438,562.9063 Q396.1875,563.5938 397.6875,563.5938 Q398.5781,563.5938 399.2031,563.3906 Q399.5625,563.2813 399.9688,562.9219 Q400.2344,562.7188 400.375,562.6563 Q400.5156,562.5938 400.6875,562.5938 Q401.0156,562.5938 401.25,562.8594 Q401.5,563.1094 401.5,563.4688 Q401.5,563.8125 401.1563,564.2188 Q400.6563,564.8125 399.8594,565.1406 Q398.8125,565.5938 397.5313,565.5938 Q396.0313,565.5938 394.8281,565 Q393.8594,564.5313 393.1719,563.5156 Q392.5,562.5 392.5,561.2969 L392.5,560.2031 Q392.5,558.9531 393.0938,557.8594 Q393.7031,556.7656 394.75,556.1875 Q395.8125,555.5938 397,555.5938 Q397.7188,555.5938 398.3438,555.8438 Q398.9688,556.0938 399.5,556.5938 Z " fill="#000000"/><text fill="#000000" font-family="sans-serif" font-size="12" font-style="italic" lengthAdjust="spacing" textLength="81" x="417" y="557.457">«value object»</text><text fill="#000000" font-family="sans-serif" font-size="12" lengthAdjust="spacing" textLength="92" x="411.5" y="572.5508">ShortDescription</text><line style="stroke:#A80036;stroke-width:1.5;" x1="383.5" x2="505.5" y1="580.1875" y2="580.1875"/><!--MD5=[7e20e022571e30ec1001cf6eabd7f3e2]
class Model--><rect fill="#FEFECE" filter="url(#f1hx8u4d6kmhgt)" height="48.1875" id="Model" style="stroke:#A80036;stroke-width:1.5;" width="109" x="390" y="457"/><ellipse cx="405" cy="477.0938" fill="#ADD1B2" rx="11" ry="11" style="stroke:#A80036;stroke-width:1.0;"/><path d="M407,473.5938 Q407.2031,473.0938 407.4375,472.8438 Q407.6719,472.5938 407.9375,472.5938 Q408.4063,472.5938 408.7031,472.875 Q409,473.1563 409,473.8125 L409,475.375 Q409,476.0313 408.7188,476.3125 Q408.4375,476.5938 408,476.5938 Q407.6094,476.5938 407.3594,476.4219 Q407.1094,476.25 407,475.7969 Q406.9531,475.4844 406.7813,475.3125 Q406.4688,474.9844 405.9063,474.7969 Q405.3438,474.5938 404.7813,474.5938 Q404.0781,474.5938 403.4844,474.875 Q402.9063,475.1563 402.4531,475.7813 Q402,476.4063 402,477.2656 L402,478.1875 Q402,479.2188 402.8438,479.9063 Q403.6875,480.5938 405.1875,480.5938 Q406.0781,480.5938 406.7031,480.3906 Q407.0625,480.2813 407.4688,479.9219 Q407.7344,479.7188 407.875,479.6563 Q408.0156,479.5938 408.1875,479.5938 Q408.5156,479.5938 408.75,479.8594 Q409,480.1094 409,480.4688 Q409,480.8125 408.6563,481.2188 Q408.1563,481.8125 407.3594,482.1406 Q406.3125,482.5938 405.0313,482.5938 Q403.5313,482.5938 402.3281,482 Q401.3594,481.5313 400.6719,480.5156 Q400,479.5 400,478.2969 L400,477.2031 Q400,475.9531 400.5938,474.8594 Q401.2031,473.7656 402.25,473.1875 Q403.3125,472.5938 404.5,472.5938 Q405.2188,472.5938 405.8438,472.8438 Q406.4688,473.0938 407,473.5938 Z " fill="#000000"/><text fill="#000000" font-family="sans-serif" font-size="12" font-style="italic" lengthAdjust="spacing" textLength="81" x="417" y="474.457">«value object»</text><text fill="#000000" font-family="sans-serif" font-size="12" lengthAdjust="spacing" textLength="33" x="441" y="489.5508">Model</text><line style="stroke:#A80036;stroke-width:1.5;" x1="391" x2="498" y1="497.1875" y2="497.1875"/><!--MD5=[16d95e38f003ccc6ecae27689936446e]
class MaximumWeight--><rect fill="#FEFECE" filter="url(#f1hx8u4d6kmhgt)" height="48.1875" id="MaximumWeight" style="stroke:#A80036;stroke-width:1.5;" width="123" x="383" y="374"/><ellipse cx="398" cy="394.0938" fill="#ADD1B2" rx="11" ry="11" style="stroke:#A80036;stroke-width:1.0;"/><path d="M400,390.5938 Q400.2031,390.0938 400.4375,389.8438 Q400.6719,389.5938 400.9375,389.5938 Q401.4063,389.5938 401.7031,389.875 Q402,390.1563 402,390.8125 L402,392.375 Q402,393.0313 401.7188,393.3125 Q401.4375,393.5938 401,393.5938 Q400.6094,393.5938 400.3594,393.4219 Q400.1094,393.25 400,392.7969 Q399.9531,392.4844 399.7813,392.3125 Q399.4688,391.9844 398.9063,391.7969 Q398.3438,391.5938 397.7813,391.5938 Q397.0781,391.5938 396.4844,391.875 Q395.9063,392.1563 395.4531,392.7813 Q395,393.4063 395,394.2656 L395,395.1875 Q395,396.2188 395.8438,396.9063 Q396.6875,397.5938 398.1875,397.5938 Q399.0781,397.5938 399.7031,397.3906 Q400.0625,397.2813 400.4688,396.9219 Q400.7344,396.7188 400.875,396.6563 Q401.0156,396.5938 401.1875,396.5938 Q401.5156,396.5938 401.75,396.8594 Q402,397.1094 402,397.4688 Q402,397.8125 401.6563,398.2188 Q401.1563,398.8125 400.3594,399.1406 Q399.3125,399.5938 398.0313,399.5938 Q396.5313,399.5938 395.3281,399 Q394.3594,398.5313 393.6719,397.5156 Q393,396.5 393,395.2969 L393,394.2031 Q393,392.9531 393.5938,391.8594 Q394.2031,390.7656 395.25,390.1875 Q396.3125,389.5938 397.5,389.5938 Q398.2188,389.5938 398.8438,389.8438 Q399.4688,390.0938 400,390.5938 Z " fill="#000000"/><text fill="#000000" font-family="sans-serif" font-size="12" font-style="italic" lengthAdjust="spacing" textLength="81" x="417" y="391.457">«value object»</text><text fill="#000000" font-family="sans-serif" font-size="12" lengthAdjust="spacing" textLength="91" x="412" y="406.5508">MaximumWeight</text><line style="stroke:#A80036;stroke-width:1.5;" x1="384" x2="505" y1="414.1875" y2="414.1875"/><!--MD5=[b285e37e75726846a0747551cbfd9ec4]
class MaximumVolume--><rect fill="#FEFECE" filter="url(#f1hx8u4d6kmhgt)" height="48.1875" id="MaximumVolume" style="stroke:#A80036;stroke-width:1.5;" width="127" x="381" y="291"/><ellipse cx="396" cy="311.0938" fill="#ADD1B2" rx="11" ry="11" style="stroke:#A80036;stroke-width:1.0;"/><path d="M398,307.5938 Q398.2031,307.0938 398.4375,306.8438 Q398.6719,306.5938 398.9375,306.5938 Q399.4063,306.5938 399.7031,306.875 Q400,307.1563 400,307.8125 L400,309.375 Q400,310.0313 399.7188,310.3125 Q399.4375,310.5938 399,310.5938 Q398.6094,310.5938 398.3594,310.4219 Q398.1094,310.25 398,309.7969 Q397.9531,309.4844 397.7813,309.3125 Q397.4688,308.9844 396.9063,308.7969 Q396.3438,308.5938 395.7813,308.5938 Q395.0781,308.5938 394.4844,308.875 Q393.9063,309.1563 393.4531,309.7813 Q393,310.4063 393,311.2656 L393,312.1875 Q393,313.2188 393.8438,313.9063 Q394.6875,314.5938 396.1875,314.5938 Q397.0781,314.5938 397.7031,314.3906 Q398.0625,314.2813 398.4688,313.9219 Q398.7344,313.7188 398.875,313.6563 Q399.0156,313.5938 399.1875,313.5938 Q399.5156,313.5938 399.75,313.8594 Q400,314.1094 400,314.4688 Q400,314.8125 399.6563,315.2188 Q399.1563,315.8125 398.3594,316.1406 Q397.3125,316.5938 396.0313,316.5938 Q394.5313,316.5938 393.3281,316 Q392.3594,315.5313 391.6719,314.5156 Q391,313.5 391,312.2969 L391,311.2031 Q391,309.9531 391.5938,308.8594 Q392.2031,307.7656 393.25,307.1875 Q394.3125,306.5938 395.5,306.5938 Q396.2188,306.5938 396.8438,306.8438 Q397.4688,307.0938 398,307.5938 Z " fill="#000000"/><text fill="#000000" font-family="sans-serif" font-size="12" font-style="italic" lengthAdjust="spacing" textLength="81" x="417" y="308.457">«value object»</text><text fill="#000000" font-family="sans-serif" font-size="12" lengthAdjust="spacing" textLength="95" x="410" y="323.5508">MaximumVolume</text><line style="stroke:#A80036;stroke-width:1.5;" x1="382" x2="507" y1="331.1875" y2="331.1875"/><!--MD5=[064b306410e464970cda6c2fc60b7bb8]
class BaseLocation--><rect fill="#FEFECE" filter="url(#f1hx8u4d6kmhgt)" height="48.1875" id="BaseLocation" style="stroke:#A80036;stroke-width:1.5;" width="109" x="390" y="208"/><ellipse cx="405" cy="228.0938" fill="#ADD1B2" rx="11" ry="11" style="stroke:#A80036;stroke-width:1.0;"/><path d="M407,224.5938 Q407.2031,224.0938 407.4375,223.8438 Q407.6719,223.5938 407.9375,223.5938 Q408.4063,223.5938 408.7031,223.875 Q409,224.1563 409,224.8125 L409,226.375 Q409,227.0313 408.7188,227.3125 Q408.4375,227.5938 408,227.5938 Q407.6094,227.5938 407.3594,227.4219 Q407.1094,227.25 407,226.7969 Q406.9531,226.4844 406.7813,226.3125 Q406.4688,225.9844 405.9063,225.7969 Q405.3438,225.5938 404.7813,225.5938 Q404.0781,225.5938 403.4844,225.875 Q402.9063,226.1563 402.4531,226.7813 Q402,227.4063 402,228.2656 L402,229.1875 Q402,230.2188 402.8438,230.9063 Q403.6875,231.5938 405.1875,231.5938 Q406.0781,231.5938 406.7031,231.3906 Q407.0625,231.2813 407.4688,230.9219 Q407.7344,230.7188 407.875,230.6563 Q408.0156,230.5938 408.1875,230.5938 Q408.5156,230.5938 408.75,230.8594 Q409,231.1094 409,231.4688 Q409,231.8125 408.6563,232.2188 Q408.1563,232.8125 407.3594,233.1406 Q406.3125,233.5938 405.0313,233.5938 Q403.5313,233.5938 402.3281,233 Q401.3594,232.5313 400.6719,231.5156 Q400,230.5 400,229.2969 L400,228.2031 Q400,226.9531 400.5938,225.8594 Q401.2031,224.7656 402.25,224.1875 Q403.3125,223.5938 404.5,223.5938 Q405.2188,223.5938 405.8438,223.8438 Q406.4688,224.0938 407,224.5938 Z " fill="#000000"/><text fill="#000000" font-family="sans-serif" font-size="12" font-style="italic" lengthAdjust="spacing" textLength="81" x="417" y="225.457">«value object»</text><text fill="#000000" font-family="sans-serif" font-size="12" lengthAdjust="spacing" textLength="76" x="419.5" y="240.5508">BaseLocation</text><line style="stroke:#A80036;stroke-width:1.5;" x1="391" x2="498" y1="248.1875" y2="248.1875"/><!--MD5=[e3d83ec5fd90ea9f3f2bfe265cb53458]
class Status--><rect fill="#FEFECE" filter="url(#f1hx8u4d6kmhgt)" height="48.1875" id="Status" style="stroke:#A80036;stroke-width:1.5;" width="109" x="390" y="125"/><ellipse cx="405" cy="145.0938" fill="#ADD1B2" rx="11" ry="11" style="stroke:#A80036;stroke-width:1.0;"/><path d="M407,141.5938 Q407.2031,141.0938 407.4375,140.8438 Q407.6719,140.5938 407.9375,140.5938 Q408.4063,140.5938 408.7031,140.875 Q409,141.1563 409,141.8125 L409,143.375 Q409,144.0313 408.7188,144.3125 Q408.4375,144.5938 408,144.5938 Q407.6094,144.5938 407.3594,144.4219 Q407.1094,144.25 407,143.7969 Q406.9531,143.4844 406.7813,143.3125 Q406.4688,142.9844 405.9063,142.7969 Q405.3438,142.5938 404.7813,142.5938 Q404.0781,142.5938 403.4844,142.875 Q402.9063,143.1563 402.4531,143.7813 Q402,144.4063 402,145.2656 L402,146.1875 Q402,147.2188 402.8438,147.9063 Q403.6875,148.5938 405.1875,148.5938 Q406.0781,148.5938 406.7031,148.3906 Q407.0625,148.2813 407.4688,147.9219 Q407.7344,147.7188 407.875,147.6563 Q408.0156,147.5938 408.1875,147.5938 Q408.5156,147.5938 408.75,147.8594 Q409,148.1094 409,148.4688 Q409,148.8125 408.6563,149.2188 Q408.1563,149.8125 407.3594,150.1406 Q406.3125,150.5938 405.0313,150.5938 Q403.5313,150.5938 402.3281,150 Q401.3594,149.5313 400.6719,148.5156 Q400,147.5 400,146.2969 L400,145.2031 Q400,143.9531 400.5938,142.8594 Q401.2031,141.7656 402.25,141.1875 Q403.3125,140.5938 404.5,140.5938 Q405.2188,140.5938 405.8438,140.8438 Q406.4688,141.0938 407,141.5938 Z " fill="#000000"/><text fill="#000000" font-family="sans-serif" font-size="12" font-style="italic" lengthAdjust="spacing" textLength="81" x="417" y="142.457">«value object»</text><text fill="#000000" font-family="sans-serif" font-size="12" lengthAdjust="spacing" textLength="35" x="440" y="157.5508">Status</text><line style="stroke:#A80036;stroke-width:1.5;" x1="391" x2="498" y1="165.1875" y2="165.1875"/><!--MD5=[38bcef8836b1321d22ded0540bc794c3]
class CurrentTask--><rect fill="#FEFECE" filter="url(#f1hx8u4d6kmhgt)" height="48.1875" id="CurrentTask" style="stroke:#A80036;stroke-width:1.5;" width="109" x="390" y="42"/><ellipse cx="405" cy="62.0938" fill="#ADD1B2" rx="11" ry="11" style="stroke:#A80036;stroke-width:1.0;"/><path d="M407,58.5938 Q407.2031,58.0938 407.4375,57.8438 Q407.6719,57.5938 407.9375,57.5938 Q408.4063,57.5938 408.7031,57.875 Q409,58.1563 409,58.8125 L409,60.375 Q409,61.0313 408.7188,61.3125 Q408.4375,61.5938 408,61.5938 Q407.6094,61.5938 407.3594,61.4219 Q407.1094,61.25 407,60.7969 Q406.9531,60.4844 406.7813,60.3125 Q406.4688,59.9844 405.9063,59.7969 Q405.3438,59.5938 404.7813,59.5938 Q404.0781,59.5938 403.4844,59.875 Q402.9063,60.1563 402.4531,60.7813 Q402,61.4063 402,62.2656 L402,63.1875 Q402,64.2188 402.8438,64.9063 Q403.6875,65.5938 405.1875,65.5938 Q406.0781,65.5938 406.7031,65.3906 Q407.0625,65.2813 407.4688,64.9219 Q407.7344,64.7188 407.875,64.6563 Q408.0156,64.5938 408.1875,64.5938 Q408.5156,64.5938 408.75,64.8594 Q409,65.1094 409,65.4688 Q409,65.8125 408.6563,66.2188 Q408.1563,66.8125 407.3594,67.1406 Q406.3125,67.5938 405.0313,67.5938 Q403.5313,67.5938 402.3281,67 Q401.3594,66.5313 400.6719,65.5156 Q400,64.5 400,63.2969 L400,62.2031 Q400,60.9531 400.5938,59.8594 Q401.2031,58.7656 402.25,58.1875 Q403.3125,57.5938 404.5,57.5938 Q405.2188,57.5938 405.8438,57.8438 Q406.4688,58.0938 407,58.5938 Z " fill="#000000"/><text fill="#000000" font-family="sans-serif" font-size="12" font-style="italic" lengthAdjust="spacing" textLength="81" x="417" y="59.457">«value object»</text><text fill="#000000" font-family="sans-serif" font-size="12" lengthAdjust="spacing" textLength="68" x="423.5" y="74.5508">CurrentTask</text><line style="stroke:#A80036;stroke-width:1.5;" x1="391" x2="498" y1="82.1875" y2="82.1875"/><!--MD5=[5ec02356f496e963d0f6fc7dcdfc5886]
link Order to AGV--><path codeLine="31" d="M103.04,315 C143.05,315 208.57,315 248.69,315 " fill="none" id="Order-AGV" style="stroke:#A80036;stroke-width:1.0;"/><polygon fill="#000000" points="145,306.1758,135.9549,303.2369,135.9549,309.1147,145,306.1758" style="stroke:#000000;stroke-width:1.0;"/><text fill="#000000" font-family="sans-serif" font-size="13" lengthAdjust="spacing" textLength="67" x="149" y="311.4951">assigned to</text><text fill="#000000" font-family="sans-serif" font-size="13" lengthAdjust="spacing" textLength="7" x="111.092" y="330.162">1</text><text fill="#000000" font-family="sans-serif" font-size="13" lengthAdjust="spacing" textLength="5" x="235.7886" y="330.179">*</text><!--MD5=[bba317dcae9279c3937714ed06aa4019]
link AGV to ShortDescription--><path codeLine="32" d="M293.97,346.01 C306.99,389.25 335.31,468.38 381,522 C385.46,527.23 390.72,532.09 396.28,536.5 " fill="none" id="AGV-to-ShortDescription" style="stroke:#A80036;stroke-width:1.0;"/><polygon fill="#A80036" points="400.57,539.79,395.8587,531.1411,396.601,536.749,390.9931,537.4914,400.57,539.79" style="stroke:#A80036;stroke-width:1.0;"/><text fill="#000000" font-family="sans-serif" font-size="13" lengthAdjust="spacing" textLength="7" x="381.4161" y="529.0523">1</text><!--MD5=[90de021bb2aa8991bb28cb59916c543e]
link AGV to Model--><path codeLine="33" d="M305.23,346.04 C323.03,372.59 350.97,410.85 381,439 C386.5,444.16 392.7,449.12 399,453.72 " fill="none" id="AGV-to-Model" style="stroke:#A80036;stroke-width:1.0;"/><polygon fill="#A80036" points="403.37,456.85,398.3798,448.359,399.3042,453.9398,393.7234,454.8642,403.37,456.85" style="stroke:#A80036;stroke-width:1.0;"/><text fill="#000000" font-family="sans-serif" font-size="13" lengthAdjust="spacing" textLength="7" x="384.9336" y="446.1277">1</text><!--MD5=[c72f1e6940ed6ecc2c144a601f0c19a4]
link AGV to MaximumWeight--><path codeLine="34" d="M320.17,333.21 C341.55,344.44 369.33,359.04 393.11,371.53 " fill="none" id="AGV-to-MaximumWeight" style="stroke:#A80036;stroke-width:1.0;"/><polygon fill="#A80036" points="397.81,374,391.6861,366.2865,393.3786,371.6842,387.9809,373.3767,397.81,374" style="stroke:#A80036;stroke-width:1.0;"/><text fill="#000000" font-family="sans-serif" font-size="13" lengthAdjust="spacing" textLength="7" x="377.9488" y="363.3161">1</text><!--MD5=[67bde9aab136fc3a908675e16468351d]
link AGV to MaximumVolume--><path codeLine="35" d="M320.17,315 C336.45,315 356.43,315 375.54,315 " fill="none" id="AGV-to-MaximumVolume" style="stroke:#A80036;stroke-width:1.0;"/><polygon fill="#A80036" points="380.9,315,371.9,311,375.9,315,371.9,319,380.9,315" style="stroke:#A80036;stroke-width:1.0;"/><text fill="#000000" font-family="sans-serif" font-size="13" lengthAdjust="spacing" textLength="7" x="366.1416" y="329.4296">1</text><!--MD5=[670f8ab1959079f3e542dc0d97ca6264]
link AGV to BaseLocation--><path codeLine="36" d="M320.17,296.79 C341.55,285.56 369.33,270.96 393.11,258.47 " fill="none" id="AGV-to-BaseLocation" style="stroke:#A80036;stroke-width:1.0;"/><polygon fill="#A80036" points="397.81,256,387.9809,256.6233,393.3786,258.3158,391.6861,263.7135,397.81,256" style="stroke:#A80036;stroke-width:1.0;"/><text fill="#000000" font-family="sans-serif" font-size="13" lengthAdjust="spacing" textLength="7" x="377.9488" y="277.7161">1</text><!--MD5=[f5443cc58319b313032a803e076be4aa]
link AGV to Status--><path codeLine="37" d="M304.93,283.87 C322.64,257.05 350.61,218.28 381,190 C386.25,185.12 392.14,180.43 398.16,176.08 " fill="none" id="AGV-to-Status" style="stroke:#A80036;stroke-width:1.0;"/><polygon fill="#A80036" points="402.34,173.13,392.6811,175.0549,398.256,176.0145,397.2963,181.5894,402.34,173.13" style="stroke:#A80036;stroke-width:1.0;"/><text fill="#000000" font-family="sans-serif" font-size="13" lengthAdjust="spacing" textLength="7" x="383.6396" y="194.8795">1</text><!--MD5=[92849aba45a5a3491428223c69d2c017]
link AGV to CurrentTask--><path codeLine="38" d="M293.85,283.77 C306.72,240.24 334.88,160.62 381,107 C385.25,102.06 390.23,97.48 395.5,93.31 " fill="none" id="AGV-to-CurrentTask" style="stroke:#A80036;stroke-width:1.0;"/><polygon fill="#A80036" points="399.58,90.2,389.9992,92.482,395.6058,93.2341,394.8537,98.8407,399.58,90.2" style="stroke:#A80036;stroke-width:1.0;"/><text fill="#000000" font-family="sans-serif" font-size="13" lengthAdjust="spacing" textLength="7" x="380.7776" y="111.5639">1</text><!--MD5=[d6691fb29748e98cf0cf36855a1b886f]
@startuml
hide methods
left to right direction
skinparam classAttributeIconSize 0

package "order"{
class Order{

}
}


package "agv"{
class AGV{
-id
}

AGV <<entity>>
ShortDescription <<value object>>
Model <<value object>>
MaximumWeight <<value object>>
MaximumVolume <<value object>>
BaseLocation <<value object>>
Status <<value object>>
CurrentTask <<value object>>
}

Order <<entity>>
AGV <<entity>>


Order "1" - - "*" AGV : assigned to >
AGV  - -> "1" ShortDescription
AGV  - -> "1" Model
AGV  - -> "1" MaximumWeight
AGV  - -> "1" MaximumVolume
AGV  - -> "1" BaseLocation
AGV  - -> "1" Status
AGV  - -> "1" CurrentTask


@enduml

PlantUML version 1.2022.1(Tue Feb 01 18:19:58 GMT 2022)
(GPL source distribution)
Java Runtime: OpenJDK Runtime Environment
JVM: OpenJDK 64-Bit Server VM
Default Encoding: Cp1252
Language: pt
Country: PT
--></g></svg>