<?xml version="1.0" encoding="UTF-8" standalone="no"?><svg xmlns="http://www.w3.org/2000/svg" xmlns:xlink="http://www.w3.org/1999/xlink" contentScriptType="application/ecmascript" contentStyleType="text/css" height="878px" preserveAspectRatio="none" style="width:1059px;height:878px;background:#FFFFFF;" version="1.1" viewBox="0 0 1059 878" width="1059px" zoomAndPan="magnify"><defs><filter height="300%" id="frve2ds7vivl8" width="300%" x="-1" y="-1"><feGaussianBlur result="blurOut" stdDeviation="2.0"/><feColorMatrix in="blurOut" result="blurOut2" type="matrix" values="0 0 0 0 0 0 0 0 0 0 0 0 0 0 0 0 0 0 .4 0"/><feOffset dx="4.0" dy="4.0" in="blurOut2" result="blurOut3"/><feBlend in="SourceGraphic" in2="blurOut3" mode="normal"/></filter></defs><g><!--MD5=[ee08e984e4ca77f785f2ed59227c7356]
cluster AGVManager--><polygon fill="#FFFFFF" filter="url(#frve2ds7vivl8)" points="16,6,113,6,120,29.6094,234,29.6094,234,188,16,188,16,6" style="stroke:#000000;stroke-width:1.5;"/><line style="stroke:#000000;stroke-width:1.5;" x1="16" x2="120" y1="29.6094" y2="29.6094"/><text fill="#000000" font-family="sans-serif" font-size="14" font-weight="bold" lengthAdjust="spacing" textLength="91" x="20" y="22.5332">AGVManager</text><!--MD5=[4b7a55d430ce43d42ce9ebad9e6b4010]
cluster console--><polygon fill="#FFFFFF" filter="url(#frve2ds7vivl8)" points="40,50,102,50,109,73.6094,210,73.6094,210,164,40,164,40,50" style="stroke:#000000;stroke-width:1.5;"/><line style="stroke:#000000;stroke-width:1.5;" x1="40" x2="109" y1="73.6094" y2="73.6094"/><text fill="#000000" font-family="sans-serif" font-size="14" font-weight="bold" lengthAdjust="spacing" textLength="56" x="44" y="66.5332">console</text><!--MD5=[d64883541e3d62e3241c4d12decf100d]
cluster Application--><polygon fill="#FFFFFF" filter="url(#frve2ds7vivl8)" points="732,736,816,736,823,759.6094,1042,759.6094,1042,864,732,864,732,736" style="stroke:#000000;stroke-width:1.5;"/><line style="stroke:#000000;stroke-width:1.5;" x1="732" x2="823" y1="759.6094" y2="759.6094"/><text fill="#000000" font-family="sans-serif" font-size="14" font-weight="bold" lengthAdjust="spacing" textLength="78" x="736" y="752.5332">Application</text><!--MD5=[d098377b76c3e5e82b41f463683e39ae]
cluster assignorder--><polygon fill="#FFFFFF" filter="url(#frve2ds7vivl8)" points="258,43,349,43,356,66.6094,530,66.6094,530,378,258,378,258,43" style="stroke:#000000;stroke-width:1.5;"/><line style="stroke:#000000;stroke-width:1.5;" x1="258" x2="356" y1="66.6094" y2="66.6094"/><text fill="#000000" font-family="sans-serif" font-size="14" font-weight="bold" lengthAdjust="spacing" textLength="85" x="262" y="59.5332">assignorder</text><!--MD5=[3dcf69e4e87a10af00fce8354034ba4c]
cluster presentation--><polygon fill="#FFFFFF" filter="url(#frve2ds7vivl8)" points="282,212,378,212,385,235.6094,506,235.6094,506,354,282,354,282,212" style="stroke:#000000;stroke-width:1.5;"/><line style="stroke:#000000;stroke-width:1.5;" x1="282" x2="385" y1="235.6094" y2="235.6094"/><text fill="#000000" font-family="sans-serif" font-size="14" font-weight="bold" lengthAdjust="spacing" textLength="90" x="286" y="228.5332">presentation</text><!--MD5=[979da56a7f83e2393dc758167ae295d0]
cluster Server--><polygon fill="#FFFFFF" filter="url(#frve2ds7vivl8)" points="28,402,82,402,89,425.6094,708,425.6094,708,871,28,871,28,402" style="stroke:#000000;stroke-width:1.5;"/><line style="stroke:#000000;stroke-width:1.5;" x1="28" x2="89" y1="425.6094" y2="425.6094"/><text fill="#000000" font-family="sans-serif" font-size="14" font-weight="bold" lengthAdjust="spacing" textLength="48" x="32" y="418.5332">Server</text><!--MD5=[035ac329b1fb46baf39b468c9481fdfa]
class AGVDigitalTwinApp--><rect codeLine="6" fill="#FEFECE" filter="url(#frve2ds7vivl8)" height="61.8359" id="AGVDigitalTwinApp" style="stroke:#A80036;stroke-width:1.5;" width="137" x="56.5" y="86"/><ellipse cx="71.5" cy="102" fill="#ADD1B2" rx="11" ry="11" style="stroke:#A80036;stroke-width:1.0;"/><path d="M73.5,98.5 Q73.7031,98 73.9375,97.75 Q74.1719,97.5 74.4375,97.5 Q74.9063,97.5 75.2031,97.7813 Q75.5,98.0625 75.5,98.7188 L75.5,100.2813 Q75.5,100.9375 75.2188,101.2188 Q74.9375,101.5 74.5,101.5 Q74.1094,101.5 73.8594,101.3281 Q73.6094,101.1563 73.5,100.7031 Q73.4531,100.3906 73.2813,100.2188 Q72.9688,99.8906 72.4063,99.7031 Q71.8438,99.5 71.2813,99.5 Q70.5781,99.5 69.9844,99.7813 Q69.4063,100.0625 68.9531,100.6875 Q68.5,101.3125 68.5,102.1719 L68.5,103.0938 Q68.5,104.125 69.3438,104.8125 Q70.1875,105.5 71.6875,105.5 Q72.5781,105.5 73.2031,105.2969 Q73.5625,105.1875 73.9688,104.8281 Q74.2344,104.625 74.375,104.5625 Q74.5156,104.5 74.6875,104.5 Q75.0156,104.5 75.25,104.7656 Q75.5,105.0156 75.5,105.375 Q75.5,105.7188 75.1563,106.125 Q74.6563,106.7188 73.8594,107.0469 Q72.8125,107.5 71.5313,107.5 Q70.0313,107.5 68.8281,106.9063 Q67.8594,106.4375 67.1719,105.4219 Q66.5,104.4063 66.5,103.2031 L66.5,102.1094 Q66.5,100.8594 67.0938,99.7656 Q67.7031,98.6719 68.75,98.0938 Q69.8125,97.5 71,97.5 Q71.7188,97.5 72.3438,97.75 Q72.9688,98 73.5,98.5 Z " fill="#000000"/><text fill="#000000" font-family="sans-serif" font-size="12" lengthAdjust="spacing" textLength="105" x="85.5" y="106.9102">AGVDigitalTwinApp</text><line style="stroke:#A80036;stroke-width:1.5;" x1="57.5" x2="192.5" y1="118" y2="118"/><line style="stroke:#A80036;stroke-width:1.5;" x1="57.5" x2="192.5" y1="126" y2="126"/><text fill="#000000" font-family="sans-serif" font-size="11" lengthAdjust="spacing" textLength="118" x="62.5" y="141.4189">+connect(address, port)</text><!--MD5=[95ed20921d01c46c2fff7cf575df3de8]
class AutoAssignOrderController--><rect codeLine="13" fill="#FEFECE" filter="url(#frve2ds7vivl8)" height="75.6719" id="AutoAssignOrderController" style="stroke:#A80036;stroke-width:1.5;" width="277" x="748.5" y="772"/><ellipse cx="809.25" cy="788" fill="#ADD1B2" rx="11" ry="11" style="stroke:#A80036;stroke-width:1.0;"/><path d="M811.25,784.5 Q811.4531,784 811.6875,783.75 Q811.9219,783.5 812.1875,783.5 Q812.6563,783.5 812.9531,783.7813 Q813.25,784.0625 813.25,784.7188 L813.25,786.2813 Q813.25,786.9375 812.9688,787.2188 Q812.6875,787.5 812.25,787.5 Q811.8594,787.5 811.6094,787.3281 Q811.3594,787.1563 811.25,786.7031 Q811.2031,786.3906 811.0313,786.2188 Q810.7188,785.8906 810.1563,785.7031 Q809.5938,785.5 809.0313,785.5 Q808.3281,785.5 807.7344,785.7813 Q807.1563,786.0625 806.7031,786.6875 Q806.25,787.3125 806.25,788.1719 L806.25,789.0938 Q806.25,790.125 807.0938,790.8125 Q807.9375,791.5 809.4375,791.5 Q810.3281,791.5 810.9531,791.2969 Q811.3125,791.1875 811.7188,790.8281 Q811.9844,790.625 812.125,790.5625 Q812.2656,790.5 812.4375,790.5 Q812.7656,790.5 813,790.7656 Q813.25,791.0156 813.25,791.375 Q813.25,791.7188 812.9063,792.125 Q812.4063,792.7188 811.6094,793.0469 Q810.5625,793.5 809.2813,793.5 Q807.7813,793.5 806.5781,792.9063 Q805.6094,792.4375 804.9219,791.4219 Q804.25,790.4063 804.25,789.2031 L804.25,788.1094 Q804.25,786.8594 804.8438,785.7656 Q805.4531,784.6719 806.5,784.0938 Q807.5625,783.5 808.75,783.5 Q809.4688,783.5 810.0938,783.75 Q810.7188,784 811.25,784.5 Z " fill="#000000"/><text fill="#000000" font-family="sans-serif" font-size="12" lengthAdjust="spacing" textLength="147" x="829.75" y="792.9102">AutoAssignOrderController</text><line style="stroke:#A80036;stroke-width:1.5;" x1="749.5" x2="1024.5" y1="804" y2="804"/><line style="stroke:#A80036;stroke-width:1.5;" x1="749.5" x2="1024.5" y1="812" y2="812"/><text fill="#000000" font-family="sans-serif" font-size="11" lengthAdjust="spacing" textLength="192" x="754.5" y="827.4189">+Product_OrderDTO autoAssignOrder()</text><text fill="#000000" font-family="sans-serif" font-size="11" lengthAdjust="spacing" textLength="265" x="754.5" y="841.2549">-Product_OrderDTO toDTOOrder(Product_Order order)</text><!--MD5=[4d7174ddd294a19c491f7f60ddde2f1c]
class AGVManagerServer--><rect codeLine="27" fill="#FEFECE" filter="url(#frve2ds7vivl8)" height="75.6719" id="AGVManagerServer" style="stroke:#A80036;stroke-width:1.5;" width="150" x="341" y="79"/><ellipse cx="361.4" cy="95" fill="#ADD1B2" rx="11" ry="11" style="stroke:#A80036;stroke-width:1.0;"/><path d="M363.4,91.5 Q363.6031,91 363.8375,90.75 Q364.0719,90.5 364.3375,90.5 Q364.8063,90.5 365.1031,90.7813 Q365.4,91.0625 365.4,91.7188 L365.4,93.2813 Q365.4,93.9375 365.1188,94.2188 Q364.8375,94.5 364.4,94.5 Q364.0094,94.5 363.7594,94.3281 Q363.5094,94.1563 363.4,93.7031 Q363.3531,93.3906 363.1813,93.2188 Q362.8688,92.8906 362.3063,92.7031 Q361.7438,92.5 361.1813,92.5 Q360.4781,92.5 359.8844,92.7813 Q359.3063,93.0625 358.8531,93.6875 Q358.4,94.3125 358.4,95.1719 L358.4,96.0938 Q358.4,97.125 359.2438,97.8125 Q360.0875,98.5 361.5875,98.5 Q362.4781,98.5 363.1031,98.2969 Q363.4625,98.1875 363.8688,97.8281 Q364.1344,97.625 364.275,97.5625 Q364.4156,97.5 364.5875,97.5 Q364.9156,97.5 365.15,97.7656 Q365.4,98.0156 365.4,98.375 Q365.4,98.7188 365.0563,99.125 Q364.5563,99.7188 363.7594,100.0469 Q362.7125,100.5 361.4313,100.5 Q359.9313,100.5 358.7281,99.9063 Q357.7594,99.4375 357.0719,98.4219 Q356.4,97.4063 356.4,96.2031 L356.4,95.1094 Q356.4,93.8594 356.9938,92.7656 Q357.6031,91.6719 358.65,91.0938 Q359.7125,90.5 360.9,90.5 Q361.6188,90.5 362.2438,90.75 Q362.8688,91 363.4,91.5 Z " fill="#000000"/><text fill="#000000" font-family="sans-serif" font-size="12" lengthAdjust="spacing" textLength="106" x="376.6" y="99.9102">AGVManagerServer</text><line style="stroke:#A80036;stroke-width:1.5;" x1="342" x2="490" y1="111" y2="111"/><line style="stroke:#A80036;stroke-width:1.5;" x1="342" x2="490" y1="119" y2="119"/><text fill="#000000" font-family="sans-serif" font-size="11" lengthAdjust="spacing" textLength="111" x="347" y="134.4189">-AGVManagerServer()</text><text fill="#000000" font-family="sans-serif" font-size="11" lengthAdjust="spacing" textLength="138" x="347" y="148.2549">+buildServerDependencies()</text><!--MD5=[f5c3dd7673470024d27c2dc023182cfe]
class AssignOrderProtocolServer--><rect codeLine="21" fill="#FEFECE" filter="url(#frve2ds7vivl8)" height="89.5078" id="AssignOrderProtocolServer" style="stroke:#A80036;stroke-width:1.5;" width="192" x="298" y="248"/><ellipse cx="317.95" cy="264" fill="#ADD1B2" rx="11" ry="11" style="stroke:#A80036;stroke-width:1.0;"/><path d="M319.95,260.5 Q320.1531,260 320.3875,259.75 Q320.6219,259.5 320.8875,259.5 Q321.3563,259.5 321.6531,259.7813 Q321.95,260.0625 321.95,260.7188 L321.95,262.2813 Q321.95,262.9375 321.6688,263.2188 Q321.3875,263.5 320.95,263.5 Q320.5594,263.5 320.3094,263.3281 Q320.0594,263.1563 319.95,262.7031 Q319.9031,262.3906 319.7313,262.2188 Q319.4188,261.8906 318.8563,261.7031 Q318.2938,261.5 317.7313,261.5 Q317.0281,261.5 316.4344,261.7813 Q315.8563,262.0625 315.4031,262.6875 Q314.95,263.3125 314.95,264.1719 L314.95,265.0938 Q314.95,266.125 315.7938,266.8125 Q316.6375,267.5 318.1375,267.5 Q319.0281,267.5 319.6531,267.2969 Q320.0125,267.1875 320.4188,266.8281 Q320.6844,266.625 320.825,266.5625 Q320.9656,266.5 321.1375,266.5 Q321.4656,266.5 321.7,266.7656 Q321.95,267.0156 321.95,267.375 Q321.95,267.7188 321.6063,268.125 Q321.1063,268.7188 320.3094,269.0469 Q319.2625,269.5 317.9813,269.5 Q316.4813,269.5 315.2781,268.9063 Q314.3094,268.4375 313.6219,267.4219 Q312.95,266.4063 312.95,265.2031 L312.95,264.1094 Q312.95,262.8594 313.5438,261.7656 Q314.1531,260.6719 315.2,260.0938 Q316.2625,259.5 317.45,259.5 Q318.1688,259.5 318.7938,259.75 Q319.4188,260 319.95,260.5 Z " fill="#000000"/><text fill="#000000" font-family="sans-serif" font-size="12" lengthAdjust="spacing" textLength="149" x="333.05" y="268.9102">AssignOrderProtocolServer</text><line style="stroke:#A80036;stroke-width:1.5;" x1="299" x2="489" y1="280" y2="280"/><line style="stroke:#A80036;stroke-width:1.5;" x1="299" x2="489" y1="288" y2="288"/><text fill="#000000" font-family="sans-serif" font-size="11" lengthAdjust="spacing" textLength="180" x="304" y="303.4189">+AssignOrderProtocolServer(parser)</text><text fill="#000000" font-family="sans-serif" font-size="11" lengthAdjust="spacing" textLength="56" x="304" y="317.2549">-listen(port)</text><text fill="#000000" font-family="sans-serif" font-size="11" lengthAdjust="spacing" textLength="100" x="304" y="331.0908">+start(port, blocking)</text><!--MD5=[7f3228600c61f75084044b4cb6691947]
class AssignOrderProtocolMessageParser--><rect codeLine="34" fill="#FEFECE" filter="url(#frve2ds7vivl8)" height="75.6719" id="AssignOrderProtocolMessageParser" style="stroke:#A80036;stroke-width:1.5;" width="248" x="419" y="608.5"/><ellipse cx="440.3" cy="624.5" fill="#ADD1B2" rx="11" ry="11" style="stroke:#A80036;stroke-width:1.0;"/><path d="M442.3,621 Q442.5031,620.5 442.7375,620.25 Q442.9719,620 443.2375,620 Q443.7063,620 444.0031,620.2813 Q444.3,620.5625 444.3,621.2188 L444.3,622.7813 Q444.3,623.4375 444.0188,623.7188 Q443.7375,624 443.3,624 Q442.9094,624 442.6594,623.8281 Q442.4094,623.6563 442.3,623.2031 Q442.2531,622.8906 442.0813,622.7188 Q441.7688,622.3906 441.2063,622.2031 Q440.6438,622 440.0813,622 Q439.3781,622 438.7844,622.2813 Q438.2063,622.5625 437.7531,623.1875 Q437.3,623.8125 437.3,624.6719 L437.3,625.5938 Q437.3,626.625 438.1438,627.3125 Q438.9875,628 440.4875,628 Q441.3781,628 442.0031,627.7969 Q442.3625,627.6875 442.7688,627.3281 Q443.0344,627.125 443.175,627.0625 Q443.3156,627 443.4875,627 Q443.8156,627 444.05,627.2656 Q444.3,627.5156 444.3,627.875 Q444.3,628.2188 443.9563,628.625 Q443.4563,629.2188 442.6594,629.5469 Q441.6125,630 440.3313,630 Q438.8313,630 437.6281,629.4063 Q436.6594,628.9375 435.9719,627.9219 Q435.3,626.9063 435.3,625.7031 L435.3,624.6094 Q435.3,623.3594 435.8938,622.2656 Q436.5031,621.1719 437.55,620.5938 Q438.6125,620 439.8,620 Q440.5188,620 441.1438,620.25 Q441.7688,620.5 442.3,621 Z " fill="#000000"/><text fill="#000000" font-family="sans-serif" font-size="12" lengthAdjust="spacing" textLength="202" x="455.7" y="629.4102">AssignOrderProtocolMessageParser</text><line style="stroke:#A80036;stroke-width:1.5;" x1="420" x2="666" y1="640.5" y2="640.5"/><line style="stroke:#A80036;stroke-width:1.5;" x1="420" x2="666" y1="648.5" y2="648.5"/><text fill="#000000" font-family="sans-serif" font-size="11" lengthAdjust="spacing" textLength="236" x="425" y="663.9189">+AssignOrderProtocolMessageParser(controller)</text><text fill="#000000" font-family="sans-serif" font-size="11" lengthAdjust="spacing" textLength="85" x="425" y="677.7549">+parse(inputLine)</text><!--MD5=[368b138eab1e2cfa1a3518b720cf06a1]
class AssignOrderProtocolRequest--><rect codeLine="38" fill="#FEFECE" filter="url(#frve2ds7vivl8)" height="89.5078" id="AssignOrderProtocolRequest" style="stroke:#A80036;stroke-width:1.5;" width="281" x="90.5" y="438"/><ellipse cx="146.25" cy="454" fill="#ADD1B2" rx="11" ry="11" style="stroke:#A80036;stroke-width:1.0;"/><path d="M148.25,450.5 Q148.4531,450 148.6875,449.75 Q148.9219,449.5 149.1875,449.5 Q149.6563,449.5 149.9531,449.7813 Q150.25,450.0625 150.25,450.7188 L150.25,452.2813 Q150.25,452.9375 149.9688,453.2188 Q149.6875,453.5 149.25,453.5 Q148.8594,453.5 148.6094,453.3281 Q148.3594,453.1563 148.25,452.7031 Q148.2031,452.3906 148.0313,452.2188 Q147.7188,451.8906 147.1563,451.7031 Q146.5938,451.5 146.0313,451.5 Q145.3281,451.5 144.7344,451.7813 Q144.1563,452.0625 143.7031,452.6875 Q143.25,453.3125 143.25,454.1719 L143.25,455.0938 Q143.25,456.125 144.0938,456.8125 Q144.9375,457.5 146.4375,457.5 Q147.3281,457.5 147.9531,457.2969 Q148.3125,457.1875 148.7188,456.8281 Q148.9844,456.625 149.125,456.5625 Q149.2656,456.5 149.4375,456.5 Q149.7656,456.5 150,456.7656 Q150.25,457.0156 150.25,457.375 Q150.25,457.7188 149.9063,458.125 Q149.4063,458.7188 148.6094,459.0469 Q147.5625,459.5 146.2813,459.5 Q144.7813,459.5 143.5781,458.9063 Q142.6094,458.4375 141.9219,457.4219 Q141.25,456.4063 141.25,455.2031 L141.25,454.1094 Q141.25,452.8594 141.8438,451.7656 Q142.4531,450.6719 143.5,450.0938 Q144.5625,449.5 145.75,449.5 Q146.4688,449.5 147.0938,449.75 Q147.7188,450 148.25,450.5 Z " fill="#000000"/><text fill="#000000" font-family="sans-serif" font-size="12" lengthAdjust="spacing" textLength="161" x="166.75" y="458.9102">AssignOrderProtocolRequest</text><line style="stroke:#A80036;stroke-width:1.5;" x1="91.5" x2="370.5" y1="470" y2="470"/><line style="stroke:#A80036;stroke-width:1.5;" x1="91.5" x2="370.5" y1="478" y2="478"/><text fill="#000000" font-family="sans-serif" font-size="11" lengthAdjust="spacing" textLength="269" x="96.5" y="493.4189">+AssignOrderProtocolRequest(controller, inputRequest)</text><text fill="#000000" font-family="sans-serif" font-size="11" lengthAdjust="spacing" textLength="53" x="96.5" y="507.2549">+execute()</text><text fill="#000000" font-family="sans-serif" font-size="11" lengthAdjust="spacing" textLength="66" x="96.5" y="521.0908">+isGoodbye()</text><!--MD5=[05b268743a5dfb186e74fda60220be62]
class AssignOrderRequest--><rect codeLine="43" fill="#FEFECE" filter="url(#frve2ds7vivl8)" height="89.5078" id="AssignOrderRequest" style="stroke:#A80036;stroke-width:1.5;" width="216" x="476" y="765"/><ellipse cx="521.75" cy="781" fill="#ADD1B2" rx="11" ry="11" style="stroke:#A80036;stroke-width:1.0;"/><path d="M523.75,777.5 Q523.9531,777 524.1875,776.75 Q524.4219,776.5 524.6875,776.5 Q525.1563,776.5 525.4531,776.7813 Q525.75,777.0625 525.75,777.7188 L525.75,779.2813 Q525.75,779.9375 525.4688,780.2188 Q525.1875,780.5 524.75,780.5 Q524.3594,780.5 524.1094,780.3281 Q523.8594,780.1563 523.75,779.7031 Q523.7031,779.3906 523.5313,779.2188 Q523.2188,778.8906 522.6563,778.7031 Q522.0938,778.5 521.5313,778.5 Q520.8281,778.5 520.2344,778.7813 Q519.6563,779.0625 519.2031,779.6875 Q518.75,780.3125 518.75,781.1719 L518.75,782.0938 Q518.75,783.125 519.5938,783.8125 Q520.4375,784.5 521.9375,784.5 Q522.8281,784.5 523.4531,784.2969 Q523.8125,784.1875 524.2188,783.8281 Q524.4844,783.625 524.625,783.5625 Q524.7656,783.5 524.9375,783.5 Q525.2656,783.5 525.5,783.7656 Q525.75,784.0156 525.75,784.375 Q525.75,784.7188 525.4063,785.125 Q524.9063,785.7188 524.1094,786.0469 Q523.0625,786.5 521.7813,786.5 Q520.2813,786.5 519.0781,785.9063 Q518.1094,785.4375 517.4219,784.4219 Q516.75,783.4063 516.75,782.2031 L516.75,781.1094 Q516.75,779.8594 517.3438,778.7656 Q517.9531,777.6719 519,777.0938 Q520.0625,776.5 521.25,776.5 Q521.9688,776.5 522.5938,776.75 Q523.2188,777 523.75,777.5 Z " fill="#000000"/><text fill="#000000" font-family="sans-serif" font-size="12" lengthAdjust="spacing" textLength="116" x="542.25" y="785.9102">AssignOrderRequest</text><line style="stroke:#A80036;stroke-width:1.5;" x1="477" x2="691" y1="797" y2="797"/><line style="stroke:#A80036;stroke-width:1.5;" x1="477" x2="691" y1="805" y2="805"/><text fill="#000000" font-family="sans-serif" font-size="11" lengthAdjust="spacing" textLength="204" x="482" y="820.4189">+AssignOrderRequest(controller, request)</text><text fill="#000000" font-family="sans-serif" font-size="11" lengthAdjust="spacing" textLength="53" x="482" y="834.2549">+execute()</text><text fill="#000000" font-family="sans-serif" font-size="11" lengthAdjust="spacing" textLength="111" x="482" y="848.0908">+buildResponse(token)</text><!--MD5=[1e3ac46dfaa4f84f5037a4a7e5a4b3e2]
class BadRequest--><rect codeLine="48" fill="#FEFECE" filter="url(#frve2ds7vivl8)" height="75.6719" id="BadRequest" style="stroke:#A80036;stroke-width:1.5;" width="206" x="44" y="772"/><ellipse cx="108.25" cy="788" fill="#ADD1B2" rx="11" ry="11" style="stroke:#A80036;stroke-width:1.0;"/><path d="M110.25,784.5 Q110.4531,784 110.6875,783.75 Q110.9219,783.5 111.1875,783.5 Q111.6563,783.5 111.9531,783.7813 Q112.25,784.0625 112.25,784.7188 L112.25,786.2813 Q112.25,786.9375 111.9688,787.2188 Q111.6875,787.5 111.25,787.5 Q110.8594,787.5 110.6094,787.3281 Q110.3594,787.1563 110.25,786.7031 Q110.2031,786.3906 110.0313,786.2188 Q109.7188,785.8906 109.1563,785.7031 Q108.5938,785.5 108.0313,785.5 Q107.3281,785.5 106.7344,785.7813 Q106.1563,786.0625 105.7031,786.6875 Q105.25,787.3125 105.25,788.1719 L105.25,789.0938 Q105.25,790.125 106.0938,790.8125 Q106.9375,791.5 108.4375,791.5 Q109.3281,791.5 109.9531,791.2969 Q110.3125,791.1875 110.7188,790.8281 Q110.9844,790.625 111.125,790.5625 Q111.2656,790.5 111.4375,790.5 Q111.7656,790.5 112,790.7656 Q112.25,791.0156 112.25,791.375 Q112.25,791.7188 111.9063,792.125 Q111.4063,792.7188 110.6094,793.0469 Q109.5625,793.5 108.2813,793.5 Q106.7813,793.5 105.5781,792.9063 Q104.6094,792.4375 103.9219,791.4219 Q103.25,790.4063 103.25,789.2031 L103.25,788.1094 Q103.25,786.8594 103.8438,785.7656 Q104.4531,784.6719 105.5,784.0938 Q106.5625,783.5 107.75,783.5 Q108.4688,783.5 109.0938,783.75 Q109.7188,784 110.25,784.5 Z " fill="#000000"/><text fill="#000000" font-family="sans-serif" font-size="12" lengthAdjust="spacing" textLength="69" x="128.75" y="792.9102">BadRequest</text><line style="stroke:#A80036;stroke-width:1.5;" x1="45" x2="249" y1="804" y2="804"/><line style="stroke:#A80036;stroke-width:1.5;" x1="45" x2="249" y1="812" y2="812"/><text fill="#000000" font-family="sans-serif" font-size="11" lengthAdjust="spacing" textLength="194" x="50" y="827.4189">+BadRequest(request, errorDescription)</text><text fill="#000000" font-family="sans-serif" font-size="11" lengthAdjust="spacing" textLength="82" x="50" y="841.2549">+messageType()</text><!--MD5=[b0a34b84acd0c39559ba9c2da39eba50]
class BaseErrorRequest--><rect codeLine="52" fill="#FEFECE" filter="url(#frve2ds7vivl8)" height="117.1797" id="BaseErrorRequest" style="stroke:#A80036;stroke-width:1.5;" width="236" x="125" y="588"/><ellipse cx="187.25" cy="604" fill="#ADD1B2" rx="11" ry="11" style="stroke:#A80036;stroke-width:1.0;"/><path d="M189.25,600.5 Q189.4531,600 189.6875,599.75 Q189.9219,599.5 190.1875,599.5 Q190.6563,599.5 190.9531,599.7813 Q191.25,600.0625 191.25,600.7188 L191.25,602.2813 Q191.25,602.9375 190.9688,603.2188 Q190.6875,603.5 190.25,603.5 Q189.8594,603.5 189.6094,603.3281 Q189.3594,603.1563 189.25,602.7031 Q189.2031,602.3906 189.0313,602.2188 Q188.7188,601.8906 188.1563,601.7031 Q187.5938,601.5 187.0313,601.5 Q186.3281,601.5 185.7344,601.7813 Q185.1563,602.0625 184.7031,602.6875 Q184.25,603.3125 184.25,604.1719 L184.25,605.0938 Q184.25,606.125 185.0938,606.8125 Q185.9375,607.5 187.4375,607.5 Q188.3281,607.5 188.9531,607.2969 Q189.3125,607.1875 189.7188,606.8281 Q189.9844,606.625 190.125,606.5625 Q190.2656,606.5 190.4375,606.5 Q190.7656,606.5 191,606.7656 Q191.25,607.0156 191.25,607.375 Q191.25,607.7188 190.9063,608.125 Q190.4063,608.7188 189.6094,609.0469 Q188.5625,609.5 187.2813,609.5 Q185.7813,609.5 184.5781,608.9063 Q183.6094,608.4375 182.9219,607.4219 Q182.25,606.4063 182.25,605.2031 L182.25,604.1094 Q182.25,602.8594 182.8438,601.7656 Q183.4531,600.6719 184.5,600.0938 Q185.5625,599.5 186.75,599.5 Q187.4688,599.5 188.0938,599.75 Q188.7188,600 189.25,600.5 Z " fill="#000000"/><text fill="#000000" font-family="sans-serif" font-size="12" lengthAdjust="spacing" textLength="103" x="207.75" y="608.9102">BaseErrorRequest</text><line style="stroke:#A80036;stroke-width:1.5;" x1="126" x2="360" y1="620" y2="620"/><line style="stroke:#A80036;stroke-width:1.5;" x1="126" x2="360" y1="628" y2="628"/><text fill="#000000" font-family="sans-serif" font-size="11" lengthAdjust="spacing" textLength="224" x="131" y="643.4189">+BaseErrorRequest(request, errorDescription)</text><text fill="#000000" font-family="sans-serif" font-size="11" lengthAdjust="spacing" textLength="140" x="131" y="657.2549">+BaseErrorRequest(request)</text><text fill="#000000" font-family="sans-serif" font-size="11" lengthAdjust="spacing" textLength="53" x="131" y="671.0908">+execute()</text><text fill="#000000" font-family="sans-serif" font-size="11" lengthAdjust="spacing" textLength="85" x="131" y="684.9268">+buildResponse()</text><text fill="#000000" font-family="sans-serif" font-size="11" lengthAdjust="spacing" textLength="82" x="131" y="698.7627">+messageType()</text><!--MD5=[f9ec5ddcc12b14cdf1a4275c5575830a]
class UnknownRequest--><rect codeLine="59" fill="#FEFECE" filter="url(#frve2ds7vivl8)" height="75.6719" id="UnknownRequest" style="stroke:#A80036;stroke-width:1.5;" width="155" x="285.5" y="772"/><ellipse cx="311.3" cy="788" fill="#ADD1B2" rx="11" ry="11" style="stroke:#A80036;stroke-width:1.0;"/><path d="M313.3,784.5 Q313.5031,784 313.7375,783.75 Q313.9719,783.5 314.2375,783.5 Q314.7063,783.5 315.0031,783.7813 Q315.3,784.0625 315.3,784.7188 L315.3,786.2813 Q315.3,786.9375 315.0188,787.2188 Q314.7375,787.5 314.3,787.5 Q313.9094,787.5 313.6594,787.3281 Q313.4094,787.1563 313.3,786.7031 Q313.2531,786.3906 313.0813,786.2188 Q312.7688,785.8906 312.2063,785.7031 Q311.6438,785.5 311.0813,785.5 Q310.3781,785.5 309.7844,785.7813 Q309.2063,786.0625 308.7531,786.6875 Q308.3,787.3125 308.3,788.1719 L308.3,789.0938 Q308.3,790.125 309.1438,790.8125 Q309.9875,791.5 311.4875,791.5 Q312.3781,791.5 313.0031,791.2969 Q313.3625,791.1875 313.7688,790.8281 Q314.0344,790.625 314.175,790.5625 Q314.3156,790.5 314.4875,790.5 Q314.8156,790.5 315.05,790.7656 Q315.3,791.0156 315.3,791.375 Q315.3,791.7188 314.9563,792.125 Q314.4563,792.7188 313.6594,793.0469 Q312.6125,793.5 311.3313,793.5 Q309.8313,793.5 308.6281,792.9063 Q307.6594,792.4375 306.9719,791.4219 Q306.3,790.4063 306.3,789.2031 L306.3,788.1094 Q306.3,786.8594 306.8938,785.7656 Q307.5031,784.6719 308.55,784.0938 Q309.6125,783.5 310.8,783.5 Q311.5188,783.5 312.1438,783.75 Q312.7688,784 313.3,784.5 Z " fill="#000000"/><text fill="#000000" font-family="sans-serif" font-size="12" lengthAdjust="spacing" textLength="99" x="327.7" y="792.9102">UnknownRequest</text><line style="stroke:#A80036;stroke-width:1.5;" x1="286.5" x2="439.5" y1="804" y2="804"/><line style="stroke:#A80036;stroke-width:1.5;" x1="286.5" x2="439.5" y1="812" y2="812"/><text fill="#000000" font-family="sans-serif" font-size="11" lengthAdjust="spacing" textLength="143" x="291.5" y="827.4189">+UnknownRequest(inputLine)</text><text fill="#000000" font-family="sans-serif" font-size="11" lengthAdjust="spacing" textLength="82" x="291.5" y="841.2549">+messageType()</text><!--MD5=[5f2359fa87ce08542854390afa627278]
link AGVManagerServer to AssignOrderProtocolServer--><path codeLine="65" d="M411.28,155.33 C408.05,180.9 403.73,215.08 400.21,242.86 " fill="none" id="AGVManagerServer-to-AssignOrderProtocolServer" style="stroke:#A80036;stroke-width:1.0;stroke-dasharray:7.0,7.0;"/><polygon fill="#A80036" points="399.57,247.97,404.6704,239.5447,400.199,243.0097,396.7339,238.5383,399.57,247.97" style="stroke:#A80036;stroke-width:1.0;"/><!--MD5=[c1acd9062c81dc5a94e7ebcaa1e723fb]
link AGVManagerServer to AssignOrderProtocolMessageParser--><path codeLine="66" d="M467.51,155.28 C482.47,168.86 497.15,185.48 506,204 C570.1,338.12 558.51,521.35 548.97,603.11 " fill="none" id="AGVManagerServer-to-AssignOrderProtocolMessageParser" style="stroke:#A80036;stroke-width:1.0;stroke-dasharray:7.0,7.0;"/><polygon fill="#A80036" points="548.35,608.34,553.3996,599.8841,548.9491,603.376,545.4572,598.9256,548.35,608.34" style="stroke:#A80036;stroke-width:1.0;"/><!--MD5=[e52f3716ec59f9e0b9a3e35e7757df23]
link AssignOrderProtocolMessageParser to AutoAssignOrderController--><path codeLine="67" d="M621.92,684.55 C676.23,710.05 748.26,743.87 803.53,769.81 " fill="none" id="AssignOrderProtocolMessageParser-to-AutoAssignOrderController" style="stroke:#A80036;stroke-width:1.0;stroke-dasharray:7.0,7.0;"/><polygon fill="#A80036" points="808.15,771.98,801.7064,764.5315,803.6249,769.8531,798.3033,771.7716,808.15,771.98" style="stroke:#A80036;stroke-width:1.0;"/><!--MD5=[646f1a55fcb44249ea530e0e8dd69ace]
link AssignOrderProtocolMessageParser to UnknownRequest--><path codeLine="68" d="M501.7,684.55 C473.79,709.6 436.93,742.66 408.23,768.42 " fill="none" id="AssignOrderProtocolMessageParser-to-UnknownRequest" style="stroke:#A80036;stroke-width:1.0;stroke-dasharray:7.0,7.0;"/><polygon fill="#A80036" points="404.41,771.84,413.7813,768.8104,408.1328,768.5023,408.4409,762.8538,404.41,771.84" style="stroke:#A80036;stroke-width:1.0;"/><!--MD5=[6dc051feb8fdaac688b7e1df511fa4ee]
link AssignOrderProtocolMessageParser to BadRequest--><path codeLine="69" d="M443.94,684.61 C422.68,691.9 400.22,699.11 379,705 C330.45,718.48 314.46,708.51 268,728 C243.19,738.4 218.11,754.15 197.25,769.01 " fill="none" id="AssignOrderProtocolMessageParser-to-BadRequest" style="stroke:#A80036;stroke-width:1.0;stroke-dasharray:7.0,7.0;"/><polygon fill="#A80036" points="193.14,771.96,202.7833,769.9581,197.2009,769.043,198.1161,763.4607,193.14,771.96" style="stroke:#A80036;stroke-width:1.0;"/><!--MD5=[3588e01097e0d6c483fce83bb13acde9]
link AssignOrderProtocolMessageParser to AssignOrderRequest--><path codeLine="70" d="M552.41,684.55 C558.08,706.9 565.37,735.63 571.52,759.85 " fill="none" id="AssignOrderProtocolMessageParser-to-AssignOrderRequest" style="stroke:#A80036;stroke-width:1.0;stroke-dasharray:7.0,7.0;"/><polygon fill="#A80036" points="572.82,764.95,574.4841,755.2427,571.5905,760.1035,566.7297,757.2099,572.82,764.95" style="stroke:#A80036;stroke-width:1.0;"/><!--MD5=[9ae67f6737e7dc07481cb8b01e5940ab]
link BaseErrorRequest to UnknownRequest--><path codeLine="71" d="M285.98,705.35 C301.24,725.88 318.09,748.57 332.14,767.46 " fill="none" id="BaseErrorRequest-to-UnknownRequest" style="stroke:#A80036;stroke-width:1.0;stroke-dasharray:7.0,7.0;"/><polygon fill="#A80036" points="335.27,771.69,333.1084,762.0813,332.286,767.678,326.6893,766.8557,335.27,771.69" style="stroke:#A80036;stroke-width:1.0;"/><!--MD5=[fdbca5d34e7d95593274e5ccf3007c06]
link BaseErrorRequest to BadRequest--><path codeLine="72" d="M208.61,705.35 C196.51,725.71 183.15,748.18 171.97,766.99 " fill="none" id="BaseErrorRequest-to-BadRequest" style="stroke:#A80036;stroke-width:1.0;stroke-dasharray:7.0,7.0;"/><polygon fill="#A80036" points="169.18,771.69,177.2182,765.999,171.7357,767.3925,170.3422,761.91,169.18,771.69" style="stroke:#A80036;stroke-width:1.0;"/><!--MD5=[cad56e7173fa9959de3e3c82c59afa65]
link AssignOrderProtocolServer to BaseErrorRequest--><path codeLine="73" d="M403.7,338.43 C412.08,387.54 418.69,467.66 389,528 C378.45,549.44 361.94,568.25 343.75,584.17 " fill="none" id="AssignOrderProtocolServer-to-BaseErrorRequest" style="stroke:#A80036;stroke-width:1.0;stroke-dasharray:7.0,7.0;"/><polygon fill="#A80036" points="339.6,587.74,349.0365,584.9199,343.3963,584.486,343.8301,578.8459,339.6,587.74" style="stroke:#A80036;stroke-width:1.0;"/><!--MD5=[5213411516e6e3dfe3f65a62a8a344d8]
link AssignOrderProtocolServer to AssignOrderProtocolRequest--><path codeLine="74" d="M355.78,338.08 C330.84,366.85 298.27,404.41 272.66,433.94 " fill="none" id="AssignOrderProtocolServer-to-AssignOrderProtocolRequest" style="stroke:#A80036;stroke-width:1.0;stroke-dasharray:7.0,7.0;"/><polygon fill="#A80036" points="269.26,437.87,278.1711,433.6757,272.5292,434.0868,272.1181,428.445,269.26,437.87" style="stroke:#A80036;stroke-width:1.0;"/><!--MD5=[27d35877bf96bcebe2191f82329f483a]
link AssignOrderProtocolRequest to BaseErrorRequest--><path codeLine="75" d="M234.28,528.13 C235.53,544.95 236.98,564.45 238.33,582.68 " fill="none" id="AssignOrderProtocolRequest-to-BaseErrorRequest" style="stroke:#A80036;stroke-width:1.0;stroke-dasharray:7.0,7.0;"/><polygon fill="#A80036" points="238.71,587.78,242.0303,578.5077,238.3385,582.7938,234.0524,579.102,238.71,587.78" style="stroke:#A80036;stroke-width:1.0;"/><!--MD5=[072ac929a63d2dcf23e1527332cb9def]
link AGVDigitalTwinApp to AssignOrderProtocolServer--><path codeLine="76" d="M171.55,148.11 C212.86,174.83 273.88,214.3 321.56,245.15 " fill="none" id="AGVDigitalTwinApp-to-AssignOrderProtocolServer" style="stroke:#A80036;stroke-width:1.0;stroke-dasharray:7.0,7.0;"/><polygon fill="#A80036" points="325.84,247.91,320.4522,239.6655,321.6406,245.1961,316.11,246.3845,325.84,247.91" style="stroke:#A80036;stroke-width:1.0;"/><!--MD5=[94d8edd3d54b83f0c6d07ff54a61ed21]
@startuml
skinparam classAttributeIconSize 0


package "AGVManager"{
package "console"{
class AGVDigitalTwinApp{
+connect(address, port)
}
}
}

package "Application"{
class AutoAssignOrderController{
+Product_OrderDTO autoAssignOrder()
-Product_OrderDTO toDTOOrder(Product_Order order)
}
}

package "assignorder"{
package "presentation"{
class AssignOrderProtocolServer{
+AssignOrderProtocolServer(parser)
-listen(port)
+start(port, blocking)
}
}
class AGVManagerServer{
-AGVManagerServer()
+buildServerDependencies()
}
}

package "Server"{
class AssignOrderProtocolMessageParser{
+AssignOrderProtocolMessageParser(controller)
+parse(inputLine)
}
class AssignOrderProtocolRequest{
+AssignOrderProtocolRequest(controller, inputRequest)
+execute()
+isGoodbye()
}
class AssignOrderRequest{
+AssignOrderRequest(controller, request)
+execute()
+buildResponse(token)
}
class BadRequest{
+BadRequest(request, errorDescription)
+messageType()
}
class BaseErrorRequest{
+BaseErrorRequest(request, errorDescription)
+BaseErrorRequest(request)
+execute()
+buildResponse()
+messageType()
}
class UnknownRequest{
+UnknownRequest(inputLine)
+messageType()
}
}

AGVManagerServer .-> AssignOrderProtocolServer
AGVManagerServer .-> AssignOrderProtocolMessageParser
AssignOrderProtocolMessageParser .-> AutoAssignOrderController
AssignOrderProtocolMessageParser .-> UnknownRequest
AssignOrderProtocolMessageParser .-> BadRequest
AssignOrderProtocolMessageParser .-> AssignOrderRequest
BaseErrorRequest .-> UnknownRequest
BaseErrorRequest .-> BadRequest
AssignOrderProtocolServer .-> BaseErrorRequest
AssignOrderProtocolServer .-> AssignOrderProtocolRequest
AssignOrderProtocolRequest .-> BaseErrorRequest
AGVDigitalTwinApp .-> AssignOrderProtocolServer



@enduml

PlantUML version 1.2022.1(Tue Feb 01 18:19:58 GMT 2022)
(GPL source distribution)
Java Runtime: OpenJDK Runtime Environment
JVM: OpenJDK 64-Bit Server VM
Default Encoding: Cp1252
Language: pt
Country: PT
--></g></svg>