<?xml version="1.0" encoding="UTF-8" standalone="no"?><svg xmlns="http://www.w3.org/2000/svg" xmlns:xlink="http://www.w3.org/1999/xlink" contentScriptType="application/ecmascript" contentStyleType="text/css" height="440px" preserveAspectRatio="none" style="width:996px;height:440px;background:#FFFFFF;" version="1.1" viewBox="0 0 996 440" width="996px" zoomAndPan="magnify"><defs><filter height="300%" id="fyxhhvd3l3bon" width="300%" x="-1" y="-1"><feGaussianBlur result="blurOut" stdDeviation="2.0"/><feColorMatrix in="blurOut" result="blurOut2" type="matrix" values="0 0 0 0 0 0 0 0 0 0 0 0 0 0 0 0 0 0 .4 0"/><feOffset dx="4.0" dy="4.0" in="blurOut2" result="blurOut3"/><feBlend in="SourceGraphic" in2="blurOut3" mode="normal"/></filter></defs><g><rect fill="#FFFFFF" filter="url(#fyxhhvd3l3bon)" height="87.7031" style="stroke:#A80036;stroke-width:1.0;" width="10" x="413.5" y="147.2734"/><rect fill="#FFFFFF" filter="url(#fyxhhvd3l3bon)" height="155.4063" style="stroke:#A80036;stroke-width:1.0;" width="10" x="545" y="204.625"/><rect fill="#FFFFFF" filter="url(#fyxhhvd3l3bon)" height="136.4063" style="stroke:#000000;stroke-width:2.0;" width="599" x="10" y="106.5703"/><line style="stroke:#A80036;stroke-width:1.0;stroke-dasharray:5.0,5.0;" x1="77" x2="77" y1="59.2188" y2="378.0313"/><line style="stroke:#A80036;stroke-width:1.0;stroke-dasharray:5.0,5.0;" x1="240" x2="240" y1="59.2188" y2="378.0313"/><line style="stroke:#A80036;stroke-width:1.0;stroke-dasharray:5.0,5.0;" x1="418" x2="418" y1="59.2188" y2="378.0313"/><line style="stroke:#A80036;stroke-width:1.0;stroke-dasharray:5.0,5.0;" x1="550" x2="550" y1="59.2188" y2="378.0313"/><line style="stroke:#A80036;stroke-width:1.0;stroke-dasharray:5.0,5.0;" x1="733" x2="733" y1="59.2188" y2="378.0313"/><line style="stroke:#A80036;stroke-width:1.0;stroke-dasharray:5.0,5.0;" x1="926" x2="926" y1="59.2188" y2="378.0313"/><rect fill="#FEFECE" filter="url(#fyxhhvd3l3bon)" height="49.2188" style="stroke:#A80036;stroke-width:1.5;" width="111" x="20" y="5"/><text fill="#000000" font-family="sans-serif" font-size="14" font-style="italic" lengthAdjust="spacing" textLength="49" x="51" y="26.5332">«client»</text><text fill="#000000" font-family="sans-serif" font-size="14" lengthAdjust="spacing" textLength="97" x="27" y="44.1426">AGVDigitalTwin</text><rect fill="#FEFECE" filter="url(#fyxhhvd3l3bon)" height="49.2188" style="stroke:#A80036;stroke-width:1.5;" width="111" x="20" y="377.0313"/><text fill="#000000" font-family="sans-serif" font-size="14" font-style="italic" lengthAdjust="spacing" textLength="49" x="51" y="398.5645">«client»</text><text fill="#000000" font-family="sans-serif" font-size="14" lengthAdjust="spacing" textLength="97" x="27" y="416.1738">AGVDigitalTwin</text><rect fill="#FEFECE" filter="url(#fyxhhvd3l3bon)" height="31.6094" style="stroke:#A80036;stroke-width:1.5;" width="187" x="145" y="22.6094"/><text fill="#000000" font-family="sans-serif" font-size="14" lengthAdjust="spacing" textLength="173" x="152" y="44.1426">AssignOrderProtocolServer</text><rect fill="#FEFECE" filter="url(#fyxhhvd3l3bon)" height="31.6094" style="stroke:#A80036;stroke-width:1.5;" width="187" x="145" y="377.0313"/><text fill="#000000" font-family="sans-serif" font-size="14" lengthAdjust="spacing" textLength="173" x="152" y="398.5645">AssignOrderProtocolServer</text><rect fill="#FEFECE" filter="url(#fyxhhvd3l3bon)" height="31.6094" style="stroke:#A80036;stroke-width:1.5;" width="141" x="346" y="22.6094"/><text fill="#000000" font-family="sans-serif" font-size="14" lengthAdjust="spacing" textLength="127" x="353" y="44.1426">AGVManagerServer</text><rect fill="#FEFECE" filter="url(#fyxhhvd3l3bon)" height="31.6094" style="stroke:#A80036;stroke-width:1.5;" width="141" x="346" y="377.0313"/><text fill="#000000" font-family="sans-serif" font-size="14" lengthAdjust="spacing" textLength="127" x="353" y="398.5645">AGVManagerServer</text><rect fill="#FEFECE" filter="url(#fyxhhvd3l3bon)" height="49.2188" style="stroke:#A80036;stroke-width:1.5;" width="94" x="501" y="5"/><text fill="#000000" font-family="sans-serif" font-size="14" font-style="italic" lengthAdjust="spacing" textLength="57" x="519.5" y="26.5332">«thread»</text><text fill="#000000" font-family="sans-serif" font-size="14" lengthAdjust="spacing" textLength="80" x="508" y="44.1426">HandleClient</text><rect fill="#FEFECE" filter="url(#fyxhhvd3l3bon)" height="49.2188" style="stroke:#A80036;stroke-width:1.5;" width="94" x="501" y="377.0313"/><text fill="#000000" font-family="sans-serif" font-size="14" font-style="italic" lengthAdjust="spacing" textLength="57" x="519.5" y="398.5645">«thread»</text><text fill="#000000" font-family="sans-serif" font-size="14" lengthAdjust="spacing" textLength="80" x="508" y="416.1738">HandleClient</text><rect fill="#FEFECE" filter="url(#fyxhhvd3l3bon)" height="31.6094" style="stroke:#A80036;stroke-width:1.5;" width="244" x="609" y="22.6094"/><text fill="#000000" font-family="sans-serif" font-size="14" lengthAdjust="spacing" textLength="230" x="616" y="44.1426">AssignOrderProtocolMessageParser</text><rect fill="#FEFECE" filter="url(#fyxhhvd3l3bon)" height="31.6094" style="stroke:#A80036;stroke-width:1.5;" width="244" x="609" y="377.0313"/><text fill="#000000" font-family="sans-serif" font-size="14" lengthAdjust="spacing" textLength="230" x="616" y="398.5645">AssignOrderProtocolMessageParser</text><rect fill="#FEFECE" filter="url(#fyxhhvd3l3bon)" height="31.6094" style="stroke:#A80036;stroke-width:1.5;" width="115" x="867" y="22.6094"/><text fill="#000000" font-family="sans-serif" font-size="14" lengthAdjust="spacing" textLength="101" x="874" y="44.1426">MessageBuilder</text><rect fill="#FEFECE" filter="url(#fyxhhvd3l3bon)" height="31.6094" style="stroke:#A80036;stroke-width:1.5;" width="115" x="867" y="377.0313"/><text fill="#000000" font-family="sans-serif" font-size="14" lengthAdjust="spacing" textLength="101" x="874" y="398.5645">MessageBuilder</text><rect fill="#FFFFFF" filter="url(#fyxhhvd3l3bon)" height="87.7031" style="stroke:#A80036;stroke-width:1.0;" width="10" x="413.5" y="147.2734"/><rect fill="#FFFFFF" filter="url(#fyxhhvd3l3bon)" height="155.4063" style="stroke:#A80036;stroke-width:1.0;" width="10" x="545" y="204.625"/><polygon fill="#A80036" points="406.5,87.5703,416.5,91.5703,406.5,95.5703,410.5,91.5703" style="stroke:#A80036;stroke-width:1.0;"/><line style="stroke:#A80036;stroke-width:1.0;" x1="240.5" x2="412.5" y1="91.5703" y2="91.5703"/><text fill="#000000" font-family="sans-serif" font-size="13" lengthAdjust="spacing" textLength="23" x="247.5" y="86.7139">new</text><path d="M10,106.5703 L83,106.5703 L83,114.5703 L73,124.5703 L10,124.5703 L10,106.5703 " fill="#EEEEEE" style="stroke:#000000;stroke-width:1.0;"/><rect fill="none" height="136.4063" style="stroke:#000000;stroke-width:2.0;" width="599" x="10" y="106.5703"/><text fill="#000000" font-family="sans-serif" font-size="13" font-weight="bold" lengthAdjust="spacing" textLength="28" x="25" y="121.0654">loop</text><text fill="#000000" font-family="sans-serif" font-size="11" font-weight="bold" lengthAdjust="spacing" textLength="31" x="98" y="119.9893">[true]</text><polygon fill="#A80036" points="401.5,143.2734,411.5,147.2734,401.5,151.2734,405.5,147.2734" style="stroke:#A80036;stroke-width:1.0;"/><line style="stroke:#A80036;stroke-width:1.0;" x1="240.5" x2="407.5" y1="147.2734" y2="147.2734"/><text fill="#000000" font-family="sans-serif" font-size="13" lengthAdjust="spacing" textLength="26" x="247.5" y="142.417">start</text><line style="stroke:#A80036;stroke-width:1.0;" x1="423.5" x2="465.5" y1="177.625" y2="177.625"/><line style="stroke:#A80036;stroke-width:1.0;" x1="465.5" x2="465.5" y1="177.625" y2="190.625"/><line style="stroke:#A80036;stroke-width:1.0;" x1="424.5" x2="465.5" y1="190.625" y2="190.625"/><polygon fill="#A80036" points="434.5,186.625,424.5,190.625,434.5,194.625,430.5,190.625" style="stroke:#A80036;stroke-width:1.0;"/><text fill="#000000" font-family="sans-serif" font-size="13" lengthAdjust="spacing" textLength="39" x="430.5" y="172.7686">accept</text><polygon fill="#A80036" points="401.5,200.625,411.5,204.625,401.5,208.625,405.5,204.625" style="stroke:#A80036;stroke-width:1.0;"/><line style="stroke:#A80036;stroke-width:1.0;stroke-dasharray:2.0,2.0;" x1="77.5" x2="407.5" y1="204.625" y2="204.625"/><polygon fill="#A80036" points="533,230.9766,543,234.9766,533,234.9766" style="stroke:#A80036;stroke-width:1.0;"/><line style="stroke:#A80036;stroke-width:1.0;" x1="418.5" x2="544" y1="234.9766" y2="234.9766"/><text fill="#000000" font-family="sans-serif" font-size="13" lengthAdjust="spacing" textLength="26" x="425.5" y="230.1201">start</text><polygon fill="#A80036" points="721,268.3281,731,272.3281,721,276.3281,725,272.3281" style="stroke:#A80036;stroke-width:1.0;"/><line style="stroke:#A80036;stroke-width:1.0;" x1="555" x2="727" y1="272.3281" y2="272.3281"/><text fill="#000000" font-family="sans-serif" font-size="13" lengthAdjust="spacing" textLength="32" x="562" y="267.4717">parse</text><line style="stroke:#A80036;stroke-width:1.0;" x1="555" x2="597" y1="302.6797" y2="302.6797"/><line style="stroke:#A80036;stroke-width:1.0;" x1="597" x2="597" y1="302.6797" y2="315.6797"/><line style="stroke:#A80036;stroke-width:1.0;" x1="556" x2="597" y1="315.6797" y2="315.6797"/><polygon fill="#A80036" points="566,311.6797,556,315.6797,566,319.6797,562,315.6797" style="stroke:#A80036;stroke-width:1.0;"/><text fill="#000000" font-family="sans-serif" font-size="13" lengthAdjust="spacing" textLength="46" x="562" y="297.8232">execute</text><polygon fill="#A80036" points="914.5,342.0313,924.5,346.0313,914.5,350.0313,918.5,346.0313" style="stroke:#A80036;stroke-width:1.0;"/><line style="stroke:#A80036;stroke-width:1.0;" x1="555" x2="920.5" y1="346.0313" y2="346.0313"/><text fill="#000000" font-family="sans-serif" font-size="13" lengthAdjust="spacing" textLength="27" x="562" y="341.1748">build</text><polygon fill="#A80036" points="88.5,356.0313,78.5,360.0313,88.5,364.0313,84.5,360.0313" style="stroke:#A80036;stroke-width:1.0;"/><line style="stroke:#A80036;stroke-width:1.0;stroke-dasharray:2.0,2.0;" x1="82.5" x2="549" y1="360.0313" y2="360.0313"/><!--MD5=[c93a95ffe47ba2edf29deec1bb5ecc75]
@startuml US5001_SD.svg

participant AGVDigitalTwin <<client>>

AssignOrderProtocolServer -> AGVManagerServer : new
loop true
AssignOrderProtocolServer -> AGVManagerServer: start
Activate AGVManagerServer
AGVManagerServer -> AGVManagerServer: accept

AGVDigitalTwin - -> AGVManagerServer

participant HandleClient <<thread>>
activate HandleClient
AGVManagerServer -\ HandleClient: start
deactivate AGVManagerServer
end

HandleClient -> AssignOrderProtocolMessageParser:parse
HandleClient -> HandleClient: execute
HandleClient -> MessageBuilder:build

HandleClient - -> AGVDigitalTwin
deactivate HandleClient

@enduml

PlantUML version 1.2022.1(Tue Feb 01 18:19:58 GMT 2022)
(GPL source distribution)
Java Runtime: OpenJDK Runtime Environment
JVM: OpenJDK 64-Bit Server VM
Default Encoding: Cp1252
Language: pt
Country: PT
--></g></svg>